<svg width="126" height="124" viewBox="0 0 126 124" fill="none" xmlns="http://www.w3.org/2000/svg">
<path d="M79.3973 5.75173C79.2915 5.64721 78.9928 4.96672 78.7932 5.09296C78.701 4.91752 78.9204 5.72277 79.3973 5.75173ZM73.9901 4.77523L74.2189 5.01897L73.2419 4.54715L73.9813 4.77314L73.9901 4.77523ZM70.3738 5.95237C70.0224 4.74154 71.7994 5.70441 72.1987 5.10062L72.1504 4.81496L72.9979 5.61148C72.1296 5.72094 70.7393 5.4671 70.384 5.95303L70.3738 5.95237ZM69.9957 8.97092C69.8363 8.50708 69.3507 8.74793 70.3478 8.68489C70.337 8.74529 70.3374 8.77892 70.3403 8.82493C70.2592 8.84572 70.1583 8.88356 70.0018 8.97589L69.9957 8.97092ZM70.3343 8.81996C70.722 8.71949 70.3259 9.26698 70.3343 8.81996V8.81996ZM68.4637 9.18306L69.2046 9.39234C69.2678 9.67744 68.8716 9.88887 69.1525 10.0137C68.5186 9.97933 68.4554 9.69424 68.4664 9.18019L68.4637 9.18306ZM67.4726 8.54844L67.8336 8.61581C67.8596 8.73967 67.8128 8.79625 67.4726 8.54844ZM68.5941 8.76677L67.8336 8.61581C67.7879 8.41432 67.5609 8.05918 68.1629 8.65213C67.9061 8.34703 68.2169 8.61435 68.5941 8.76677ZM68.7945 8.49242C68.9146 8.15488 69.1741 7.88278 68.4304 7.67639C69.4728 7.49404 69.8259 8.31395 68.7945 8.49242ZM69.461 4.87673L69.6372 4.43128L70.1988 4.6963C69.9166 4.56523 69.6601 5.23467 69.465 4.88004L69.461 4.87673ZM65.8127 10.8481C65.6251 10.6253 65.5547 10.1702 65.3905 9.8588L65.9249 9.98613C65.8486 10.2134 65.602 10.4909 65.8066 10.8431L65.8127 10.8481ZM65.3905 9.8588L64.5882 9.66851C65.0363 9.44053 65.2502 9.5978 65.3905 9.8588ZM66.5778 7.36702L68.024 7.88716L66.3986 7.41513L66.5778 7.36702ZM63.8019 11.6528L64.4681 12.0727L63.3762 11.4683L63.7979 11.6495L63.8019 11.6528ZM62.3936 12.0791C62.9211 12.429 62.6171 12.9518 63.0389 13.1254C62.6277 13.1938 62.0503 12.9416 61.5393 12.718C61.9675 12.7866 62.2424 12.6117 62.3936 12.0791ZM60.7225 12.4106C60.9464 12.4555 61.2327 12.5823 61.536 12.7101C61.3052 12.6724 61.0498 12.5889 60.7225 12.4106ZM63.7512 10.1267C63.8061 10.2845 63.9777 10.6789 63.7876 10.9462L63.5519 10.2148L63.7553 10.1224L63.7512 10.1267ZM63.5372 10.1925L63.5437 10.2158L63.1135 10.425L63.5331 10.1891L63.5372 10.1925ZM63.8017 10.104L63.7512 10.1267C63.7301 10.0581 63.7277 10.0305 63.8017 10.104ZM65.5356 8.45975C64.9772 8.21784 64.0555 8.08102 64.32 7.28226C64.8447 7.64268 64.697 8.09606 65.5356 8.45975ZM63.5066 9.19306L63.9736 8.82424C64.0828 9.00077 64.152 9.29083 64.4268 9.41075L63.5093 9.19018L63.5066 9.19306ZM63.0874 9.096L63.5066 9.19306L63.334 9.32866L63.0874 9.096ZM61.2458 11.4161C60.8071 11.2338 60.5276 11.3228 60.1986 11.3996C60.4287 11.1393 60.7107 10.9344 61.028 10.8095C61.2138 10.9925 61.6051 11.3001 61.2499 11.4194L61.2458 11.4161ZM62.309 10.7585C62.309 10.7585 62.252 10.7503 62.2249 10.7409C62.2208 10.6735 62.2353 10.6469 62.309 10.7585ZM57.2683 12.6206L57.2309 12.4822L57.3244 12.5921L57.2683 12.6206ZM60.9872 10.6633C61.1396 10.4394 61.3942 10.5351 61.6729 10.6812C61.4491 10.6929 61.2286 10.7277 61.0219 10.8046C60.9398 10.7245 60.8928 10.6604 60.9913 10.659L60.9872 10.6633ZM59.6863 12.4467C59.7126 12.2605 59.7733 12.0872 59.8497 11.9241C59.8724 12.1761 59.8535 12.5964 59.6863 12.4467ZM62.2698 10.947C62.2698 10.947 62.3098 10.9617 62.3268 10.9628C62.3408 11.1333 62.3048 11.0576 62.2698 10.947ZM62.2698 10.947C62.0785 10.9057 61.8711 10.7794 61.6729 10.6812C61.8571 10.6731 62.0439 10.6927 62.229 10.7366C62.2278 10.7946 62.2495 10.8739 62.2698 10.947ZM53.3765 8.90291C53.8542 9.47876 54.8855 9.74631 54.9693 8.86879C55.8399 9.08941 56.8905 11.1881 57.2309 12.4822C57.026 12.2324 56.8509 11.989 56.0492 11.8813C56.0028 11.4766 56.71 10.5839 55.8581 10.253C54.907 10.2716 55.4159 10.7242 55.2911 11.1989C55.0506 10.3251 53.5764 10.5333 52.9362 9.38341L53.8603 9.48373C53.7505 9.31174 53.315 9.1449 53.3825 8.90788L53.3765 8.90291ZM58.2274 11.9777L58.5056 11.9543C58.3235 12.1641 58.3076 12.4793 58.3059 13.0856C57.7219 12.9535 57.4864 12.7735 57.3142 12.5838C57.6573 12.3904 58.0124 12.2145 58.3656 12.0293L58.2261 11.9715L58.2274 11.9777ZM59.5298 11.5416C58.8895 10.9661 58.1417 10.9152 57.9784 10.0739C58.68 9.84071 58.8356 10.4219 59.4312 10.5379C58.2384 10.8252 59.9966 10.7726 59.4816 11.4637C59.7709 11.4853 59.9881 11.4426 60.1843 11.3956C60.0489 11.5565 59.9276 11.729 59.8408 11.922L59.8338 11.8727L59.8298 11.8694C59.824 11.7621 59.8048 11.7104 59.7851 11.7764C59.775 11.7681 59.7614 11.7749 59.7553 11.7699C59.6868 11.683 59.608 11.6108 59.5358 11.5466C59.3179 11.8092 59.602 11.7341 59.7553 11.7699C59.7815 11.7991 59.8091 11.8268 59.8367 11.8622C59.8367 11.8622 59.8367 11.8622 59.838 11.8684L58.5029 11.9572C58.6677 11.7768 58.9698 11.6754 59.5257 11.5383L59.5298 11.5416ZM62.7639 6.09523C62.7673 6.16724 62.8009 6.2152 62.829 6.2613C62.7024 6.20891 62.6375 6.16352 62.7639 6.09523ZM62.5743 6.66812C62.7192 6.72779 62.9636 6.96643 63.1793 6.79692C63.2718 6.51109 62.9655 6.48082 62.829 6.2613C63.1039 6.37357 63.6992 6.52008 63.4191 7.02915L63.2762 6.97114C62.9823 7.36629 62.9656 8.40391 63.1064 8.46026C62.8311 7.81945 62.6622 7.35805 62.5655 6.66603L62.5743 6.66812ZM60.8651 8.93254C60.485 8.94185 60.1096 8.96521 59.7336 8.97783L59.7979 8.22279L60.0148 8.56964C60.4374 8.22854 60.6226 8.69557 60.8692 8.92823L60.8651 8.93254ZM57.3988 12.9863L58.012 13.6167L56.803 12.878L57.3988 12.9863ZM56.1964 13.412L56.6756 13.9864L56.1095 13.7639L56.1964 13.412ZM13.2207 29.4893L13.5957 29.5041C13.4385 29.5215 13.3197 29.5139 13.2207 29.4893ZM11.5466 30.5569L11.2628 30.3066C11.4753 30.4088 11.6083 30.4997 11.5466 30.5569ZM29.7519 27.9494C29.9052 28.6878 30.2963 29.7285 29.7492 29.0856L29.2784 28.4155C29.6113 28.365 29.7191 28.1764 29.7458 27.9444L29.7519 27.9494ZM9.87156 36.6544L9.83718 36.4109C10.0937 36.5953 10.3307 36.7586 10.557 36.9105C10.3382 36.8339 10.1105 36.7552 9.86882 36.6573L9.87156 36.6544ZM7.76925 34.015C7.76273 34.1994 7.73317 34.3777 7.71047 34.5489C7.6883 34.3794 7.71584 34.1994 7.76925 34.015ZM23.447 24.9481L24.2484 25.453C23.7936 25.6729 23.7378 25.2477 23.447 24.9481ZM44.5665 18.7372C44.4579 19.1457 44.302 19.3847 44.1083 19.5312C44.1816 18.9707 44.0387 18.2666 44.5665 18.7372ZM6.83015 23.3512C7.07737 23.3716 7.25123 23.4576 7.36475 23.5993C7.11948 23.5882 6.92777 23.5209 6.83015 23.3512ZM43.2201 20.0091C43.2203 19.9144 43.2501 19.8567 43.2563 19.7746C43.5658 19.7562 43.8679 19.719 44.1083 19.5312C44.0554 19.9494 43.8816 20.2789 43.2201 20.0091ZM62.1003 11.0492C62.1176 11.0121 62.141 10.9876 62.1543 10.9472C62.2085 11.0377 62.171 11.0506 62.1003 11.0492ZM71.4035 1.88029C71.255 1.85093 71.0413 1.87852 70.8433 1.89336C70.918 1.83398 71.082 1.81696 71.4035 1.88029ZM51.8517 15.7799C51.9464 15.8317 52.1222 15.7116 51.8517 15.7799V15.7799ZM51.073 12.6858C50.9688 12.6364 50.8587 12.5667 50.7405 12.4187C50.8798 12.5635 50.9857 12.6451 51.073 12.6858ZM37.6579 17.4005L37.6441 17.4149C37.6063 17.2505 37.6108 17.2798 37.6579 17.4005ZM51.9853 15.3149C51.9576 15.4384 51.9042 15.551 51.8264 15.6515C51.8339 15.5756 51.8825 15.4718 51.9853 15.3149ZM52.1697 15.6429C52.2343 15.5752 52.281 15.5262 52.3249 15.4802C52.4402 15.5746 52.4619 15.6539 52.1697 15.6429ZM51.4903 15.9019C51.6309 15.8452 51.7357 15.7541 51.8264 15.6515C51.8136 15.7179 51.8193 15.761 51.8477 15.7765C51.7693 15.8021 51.6602 15.8333 51.4903 15.9019ZM39.2839 15.314C39.2839 15.314 39.2938 15.2658 39.3003 15.2326C39.7369 15.4132 39.5962 15.4134 39.2839 15.314ZM18.2556 25.7252C18.2556 25.7252 18.2895 25.735 18.3065 25.7361L18.2932 25.7765L18.2496 25.7202L18.2556 25.7252ZM17.0527 25.853C18.1057 26.3357 18.203 26.1128 18.2932 25.7765L19.734 27.6511L17.0555 25.8501L17.0527 25.853ZM16.7809 27.5586C16.8371 26.302 18.4301 26.9629 19.2666 27.2684C19.3272 26.8308 17.8216 25.9082 18.9252 25.7939C20.4199 25.5641 19.8789 27.3518 20.7685 27.2162L20.4505 25.9251C21.9823 26.2307 22.0888 25.182 22.7747 24.6745C23.0188 24.6717 23.1881 24.736 23.3183 24.8299C23.7975 23.9761 25.8364 24.997 26.1912 24.3567C25.8805 24.2177 26.0421 23.5269 25.9292 23.2448L27.566 23.3723C26.8528 23.3267 26.4161 22.7153 25.8829 22.1787C26.2904 22.0764 26.7067 22.3276 27.0149 22.2954C26.7083 22.152 26.3876 22.0048 26.3801 21.6499L28.3387 22.0974C28.3402 22.2319 28.2345 22.3351 28.1366 22.4114C28.4416 22.2842 29.3727 22.3697 29.4384 21.6774C29.227 21.4607 28.9206 21.3098 28.7092 21.0931C28.8373 21.9185 28.211 21.4492 27.6891 21.0859C28.5991 20.8081 27.7812 20.8383 27.8692 20.2283C28.4772 19.98 29.3059 20.6715 29.5261 21.2492C30.0231 20.728 30.1329 20.4845 31.2696 20.8077L30.5429 20.0357L31.3654 20.0272L30.1243 19.2391C30.9468 18.1614 31.3665 20.5588 32.387 19.5227L31.876 18.7966C32.5973 18.8565 33.6453 20.0095 33.4343 18.965C34.2504 19.205 33.29 20.3442 34.5866 20.0162C34.5359 19.5593 34.8005 19.1042 35.0411 18.8218C35.6559 19.0046 35.3492 19.8022 35.0346 19.7959C37.0845 19.4412 34.4413 16.8588 36.7396 17.1921C36.5354 17.9351 38.1653 18.4288 36.8359 18.9197C37.7639 19.118 37.3442 17.3667 38.5575 17.9345L37.4897 17.1499C37.7197 17.0485 38.2203 17.2944 38.425 17.3594L37.8825 16.6511C39.5575 17.6304 39.0293 15.4978 40.6164 16.9924C39.4145 15.8005 41.2838 16.8517 41.2749 16.2188C39.988 15.5316 39.3384 16.9381 38.4464 15.7539C38.523 15.273 39.2007 15.7639 39.2724 15.2995C38.937 15.1941 38.4088 14.9847 38.1709 14.7694C38.7785 13.7054 40.314 14.914 41.1485 15.0025L39.8369 15.1233C40.7208 16.3086 40.479 15.1491 41.413 15.9908C41.5524 15.1306 42.6124 15.9499 42.8182 15.3903C42.7015 15.4408 42.6136 15.3176 42.4949 15.3665C43.7538 14.9949 42.8529 12.8905 43.3299 12.6888C43.7224 12.3717 45.064 12.737 45.0519 13.3656C45.6603 13.574 43.1668 13.5399 44.8688 14.8951C44.4392 12.8254 46.7441 15.1051 47.5536 13.3911C46.4684 12.9383 47.3356 12.2331 46.4162 11.9238C47.2644 11.8543 47.4556 12.1185 48.1061 12.5435L47.9926 11.8993C49.7455 12.9065 48.9014 12.9716 50.7966 13.2364C50.0275 12.9169 50.9094 12.2339 50.289 11.9285C50.6807 11.7748 51.1925 11.8427 51.6997 12.1119L51.595 12.0441C53.2891 11.9416 52.4262 10.976 54.1806 11.2562L54.2367 11.6432C55.4124 11.8726 56.5033 11.73 57.5557 11.4918C58.6141 11.2662 59.6393 10.9621 60.7238 10.9887L60.1977 11.4194C60.3133 11.1961 61.78 11.7099 62.093 11.0304C61.9571 11.0217 61.6714 10.9056 61.577 10.9745C61.3911 10.5761 61.3184 9.93452 61.7349 9.73967L62.2229 10.3085L62.1693 9.79799C62.8695 9.63807 62.4046 10.7112 63.1069 10.5529C62.6337 8.70651 66.0455 9.73112 65.9212 8.08572C67.02 9.25727 64.6481 8.51757 65.7426 9.56512C65.8678 9.33942 65.8471 9.08148 66.2669 8.89447L66.4709 9.6743C68.4112 8.83756 68.9575 8.07209 70.9898 7.92859L70.8396 7.77999C71.4029 7.37456 71.8405 7.456 72.4478 8.06609C72.4337 7.6879 71.8508 7.58496 71.9786 7.22807C74.0615 8.98491 73.834 5.46788 75.1814 6.72253C74.4204 5.19682 75.4478 3.51507 74.2532 2.40614L74.8523 2.52234C74.2508 1.52463 73.2043 2.70873 72.4501 1.68599L71.2587 2.96164C71.1448 2.57097 70.6231 2.04119 70.8299 1.87722C70.4123 1.90704 70.0317 1.90562 70.3237 1.28581C68.9376 2.87895 66.9738 3.1811 64.9639 3.39935C62.9634 3.63043 60.8647 3.68109 59.3536 4.77438C59.0508 4.7367 59.0177 4.35577 58.9971 4.09783C58.805 5.20977 58.0789 3.73059 57.6267 3.67572L57.3369 5.27936C56.7133 4.95081 56.8077 4.45889 56.635 4.18665C54.5741 4.32985 53.4776 6.13701 51.4979 5.67748C51.2935 6.29983 52.2292 6.75832 51.6937 7.09679C51.7584 5.4421 49.4803 6.92016 49.4586 5.77165C49.7044 7.44466 47.3597 6.69907 48.8501 8.72201C48.1707 9.04517 47.7076 7.99674 47.8167 7.75015C46.9919 8.06708 46.31 8.29843 45.2098 7.84623C45.1172 8.15497 44.0546 8.32074 43.0253 8.62918C42.0075 8.94445 41.0546 9.44106 41.163 10.34C41.0464 9.16254 40.794 9.82766 40.0218 9.54917L39.9114 8.5126L38.8406 8.97417C38.5586 8.96379 38.5179 9.02534 38.5661 9.10327C38.4026 9.21043 38.9392 9.60369 38.5965 9.98198C37.867 10.2821 37.5247 9.82487 36.8106 9.51191L36.8415 9.33976L36.2778 9.43966C35.918 9.60149 38.1817 9.85007 37.2462 10.7403C37.0724 10.5032 35.5871 9.5895 35.6731 10.3419C36.2697 10.0715 36.5946 10.717 36.5322 11.0582L35.6994 11.4327L35.2502 10.211C34.6321 10.451 34.0319 10.7365 33.4404 11.0469C32.8596 11.3688 32.2934 11.7206 31.7232 12.069C30.572 12.7622 29.3925 13.4322 28.0798 13.9547C28.8069 14.9039 26.2783 14.7744 27.5341 16.0873L27.5358 15.9118C28.2677 15.7829 28.1599 17.1049 27.5314 17.1594C27.7417 16.4855 25.5352 16.1505 26.6925 15.3905L25.1899 15.1523C22.6446 12.7091 22.6838 16.5899 20.522 16.412C20.7084 16.4697 20.8452 16.5945 20.9205 16.6742C18.9284 16.4583 18.5129 18.8359 17.8732 18.5583L18.3313 19.3437C16.3174 18.7689 16.1183 18.7623 15.1607 19.8986C15.2691 20.0079 15.5921 20.1339 15.5026 20.394C14.7537 20.0269 14.0007 19.6641 13.2145 20.2844L13.4334 20.4893C12.9285 20.6938 12.4283 20.9047 11.9334 21.1251C13.7946 23.3183 8.42427 21.1131 10.0314 23.7239C9.21025 23.2284 8.0402 23.6165 7.3404 23.587C7.41901 23.6821 7.47978 23.796 7.49336 23.9405C5.9484 23.0856 6.31431 25.2032 5.62779 25.4205C5.00639 25.3655 4.83746 24.9041 4.67605 24.4386C4.68766 24.7891 4.53525 24.9489 4.23296 25.0732C3.92179 25.203 3.5041 25.2404 3.10339 25.2789C2.28652 25.3382 1.46935 25.3563 1.51674 25.6617C1.03724 26.2665 2.15009 26.6034 2.48862 27.1704C1.99388 27.4473 1.51617 27.0074 1.14193 26.6932C0.773686 26.3917 0.480376 26.2156 0.426272 27.1867C0.647115 27.1214 0.949333 26.933 1.00106 27.1394C0.902985 27.4463 1.34751 28.3026 1.7765 29.077C2.18923 29.8457 2.58737 30.505 2.16889 30.5547C2.07553 30.3654 1.98428 30.1702 1.90191 29.9694C1.61602 30.084 1.50956 30.343 1.53079 30.6834C1.54602 31.0113 1.66957 31.3842 1.80028 31.7195C1.92023 32.0433 2.044 32.3216 2.01718 32.4971C1.99043 32.6649 1.8063 32.7295 1.34165 32.6311C1.05939 32.5076 0.77988 32.3813 0.497696 32.2502C0.597331 32.5652 0.710194 32.8473 0.775582 33.047L0.93331 33.5428C1.00289 33.8024 0.980622 33.9277 0.952866 34.0588C0.91969 34.1881 0.930449 34.343 1.0345 34.6231C1.09772 34.7646 1.17084 34.9373 1.334 35.1478C1.50258 35.3603 1.72449 35.6112 2.01621 35.8834L2.11138 35.8101C2.42036 36.34 2.8996 36.6196 3.25491 36.8516C3.61289 37.0883 3.78899 37.2966 3.77855 37.965C3.61249 37.9162 3.44513 37.8612 3.2717 37.8012C4.00898 38.3921 4.46662 38.5848 4.9033 38.7655C5.33883 38.9247 5.78751 39.0588 6.53189 39.1888C6.70033 39.3447 7.4588 39.6376 7.60739 39.3798C7.72479 39.899 8.65272 40.0973 9.51585 39.9631C9.95002 39.9083 10.3578 39.7679 10.6887 39.6363C10.9891 39.4951 11.2085 39.3671 11.3213 39.3056C10.3458 39.4632 10.5273 38.8837 10.4916 38.4186C11.4758 39.0604 11.9314 38.9719 12.053 38.1227C12.5711 38.6752 13.1149 39.2461 13.7029 39.5892C14.2862 39.9335 14.9255 40.0339 15.5046 39.6799C15.1781 39.6331 14.8211 39.7279 14.7118 39.423C14.6114 39.1203 15.098 39.1957 15.2548 39.2164C15.1387 38.9188 14.6419 38.9863 14.3819 38.5221C16.0937 39.0623 15.5892 37.721 16.74 37.4249C16.1544 37.3249 16.1492 36.9411 15.855 36.5053C17.1852 37.6382 15.8173 34.6028 17.1551 36.37C17.4237 35.2874 18.3715 34.4712 19.1988 33.7512C20.0449 33.0492 20.7624 32.4291 20.5533 31.6887C20.2705 31.1237 21.432 31.4928 21.7234 31.3006L21.147 30.7979C22.8841 31.1717 22.107 30.6943 23.9985 30.997C22.9817 30.6387 22.8476 30.2315 22.732 29.442L24.4706 30.0939L23.7698 29.1739C24.351 29.3088 24.5099 28.9646 24.6688 28.6203C24.5191 28.7131 24.5258 28.5852 24.3893 28.4299C25.6611 29.4842 26.6551 28.5289 27.3714 28.9642C26.5645 27.6265 28.4198 28.7226 27.6089 27.5099C27.8547 27.6036 28.1037 27.6485 28.3442 27.6684C28.6831 28.2614 29.1614 28.8556 29.1892 28.4373C29.2212 28.4302 29.2376 28.4206 29.2656 28.4101L28.7486 27.6714C29.1594 27.6411 29.4989 27.5345 29.6923 27.4262C29.6654 27.5375 29.6867 27.7268 29.7376 27.9454C29.7584 27.765 29.7466 27.5733 29.7462 27.3961C29.7879 27.3712 29.8181 27.3472 29.8346 27.3223C29.8007 27.3125 29.7708 27.3136 29.7489 27.329C29.763 27.0611 29.86 26.8687 30.3026 26.9337C30.2951 25.2866 33.7027 26.9769 33.4459 24.8846C33.4239 25.1307 33.2615 25.3387 32.9827 25.1361C33.9045 24.6268 33.9256 23.116 34.9558 23.2903L35.4824 23.9471C36.3895 23.831 37.075 23.7282 37.563 23.3638L38.2245 24.0644C38.7455 23.3141 41.4301 23.5483 40.6178 21.7704C41.3018 22.2433 41.549 20.9791 42.1566 20.9202L41.7941 20.2952C42.2298 19.793 42.7607 19.7918 43.2523 19.7713C43.483 17.9577 45.532 18.4843 46.5383 17.875L46.4176 17.7069L47.8212 17.5614C47.13 17.1903 48.3211 17.8118 48.5273 17.5011C49.0952 17.6046 49.5322 17.1728 49.6458 16.5966C49.8666 16.4671 50.0933 16.3502 50.3242 16.229C49.2403 16.2132 49.7355 15.3803 49.2703 14.6968L50.1319 15.0101C50.0685 14.6043 49.4375 14.6311 49.664 14.3294C50.2417 14.5436 51.1208 14.0942 51.9209 14.6494C52.0061 14.8396 52.0211 15.0468 51.988 15.2402C51.9196 15.2175 51.9257 15.2225 51.9872 15.26L51.984 15.3087C51.984 15.3087 51.9917 15.2817 52.0054 15.2673C52.0927 15.3156 52.2367 15.3951 52.3318 15.473C52.7782 15.0616 52.7801 15.4298 52.9912 15.7412C52.8307 14.402 53.716 14.9322 53.2866 13.4857C53.6486 15.1615 54.7813 12.8404 55.3373 14.3393C55.0306 13.0702 55.6314 14.1442 55.2655 13.1035C54.8024 13.691 53.4032 13.0196 52.5046 12.8094L52.572 11.9416C51.3143 10.8988 51.6993 12.9397 51.0812 12.6848C51.5056 12.8632 51.7762 12.3566 51.5919 12.0851L52.1392 13.0641C51.6586 13.791 50.5133 13.3634 49.6281 13.1693C49.9045 12.6264 48.5885 12.918 48.4624 12.102L48.9539 12.0249C48.8946 11.6148 48.2905 11.5304 47.857 11.3728C47.0696 12.6178 44.3273 13.2337 44.4394 14.1665C44.5135 13.8093 45.148 13.7673 45.5742 13.9137L45.2809 14.5839C45.7832 14.3746 45.5242 13.3805 46.4654 13.323C46.7972 13.9537 47.9205 14.4761 48.0104 15.5343C47.3844 17.1012 45.7327 14.6127 44.2832 15.6489C43.9946 15.551 45.367 16.3979 44.2632 16.5351C42.7413 16.5401 40.8994 15.6831 39.8894 14.4637C40.6435 14.5761 42.1299 14.801 41.5469 13.8442C40.7997 13.7246 39.8353 13.9348 39.326 13.3845C39.6999 14.6624 40.4348 13.2232 40.5226 14.4156C40.1868 14.5637 39.7727 14.2989 39.4772 14.2083C40.0418 14.5193 39.7823 15.0786 39.8883 15.3679C38.864 15.9318 38.6474 16.6954 37.651 17.4077C37.7159 17.589 37.8767 17.9796 38.1192 18.209C37.3618 18.2323 35.3024 17.1537 34.9587 16.4107C34.2984 16.729 34.6771 17.2237 33.9088 17.2509C33.9682 15.8586 33.8765 17.4963 32.935 16.5792C32.2962 16.7843 33.1613 17.1619 33.1081 17.5312C32.9339 17.4834 32.4355 17.2881 32.1925 17.0404C32.5119 17.9712 34.5052 18.5675 34.8734 19.6588C35.0829 20.3611 34.8123 22.0087 34.8016 22.1333C33.8298 21.4709 30.9123 18.0767 30.3328 16.7611C29.7908 16.2224 30.3581 17.6716 30.1815 17.8757C30.3218 19.1983 28.5115 17.7979 28.273 18.5128L29.155 18.7479C29.2679 19.0301 28.1917 19.2668 27.7658 19.0257C28.0318 19.3513 29.6548 20.37 29.7475 20.9075C28.9209 21.71 26.3928 20.5937 25.5878 19.6242L28.007 19.6078C27.3439 18.7879 26.2086 19.5249 25.403 18.5447L24.2592 19.744C24.46 19.6468 25.2034 19.5172 25.3924 20.0822C24.7515 20.4369 25.2063 20.4247 25.1413 21.0407C26.754 21.5715 30.3514 23.3045 31.895 24.2326L30.7096 24.1644L30.9562 24.7408C29.4747 24.7148 25.784 22.2182 24.7962 21.5991C24.4564 22.1593 26.2023 23.6838 26.6269 23.9187C25.6815 24.706 23.397 22.284 22.5715 23.244L22.6203 22.6147C22.2253 22.6322 21.6446 23.5849 21.4523 23.2198C21.6623 23.7968 22.475 24.9547 22.9694 25.0749L20.5703 24.1975C20.8653 24.2622 22.0567 25.6352 22.3403 25.829C22.0314 26.1453 20.2467 24.771 20.2653 24.3888C20.4852 25.8509 20.146 25.2091 20.6719 26.732C20.3763 26.7925 19.3237 25.3383 19.337 25.0825C18.5153 25.0789 18.3996 25.4533 18.3138 25.7549C19.6523 25.7381 21.4237 28.5091 22.5606 29.3914C20.7291 28.5044 18.8737 27.6236 17.0372 26.7684C17.3283 26.9581 18.6994 28.086 18.84 28.2447C17.5544 27.2048 15.5143 28.5239 14.757 29.3935L14.9054 29.2945C15.4904 29.5351 15.0329 30.4682 14.3143 30.3413C14.6049 30.5202 14.6074 30.3967 14.7498 30.2927C15.0409 31.6311 12.1839 29.2275 12.6216 30.7295C13.0613 30.1665 13.6478 30.5263 14.0838 30.9986C13.2039 30.9653 12.6266 32.2695 11.4432 30.7748C11.4478 31.2914 11.0036 31.3379 11.7369 31.982C11.084 32.0242 10.4378 32.0822 9.8197 32.1069C10.0413 32.1806 10.5227 32.5108 10.3129 32.8517C10.6942 32.2025 12.6226 32.9047 12.0338 31.7841C12.9186 32.583 13.1486 33.2071 14.1755 33.6455C12.574 34.2289 10.424 33.4606 8.8339 32.9176C8.73415 33.3282 8.6339 33.7204 8.50258 34.0924L8.13456 33.6962C8.36485 34.0668 8.57605 34.4423 8.78719 34.8254C8.48102 34.644 8.25925 34.4495 8.30845 34.5642C8.35636 34.6726 8.48224 34.8014 8.64613 34.9356C8.49936 34.9308 8.34298 34.8642 8.21949 34.7708C8.55238 35.3588 9.16927 35.9588 9.84173 36.4325L9.72636 35.6996C10.3525 36.1123 11.0071 36.5406 10.9272 37.0701C10.8189 37.025 10.6956 36.9805 10.5662 36.9386C11.0363 37.2543 11.405 37.51 11.4021 37.7359C10.9065 37.7531 10.4071 37.7365 9.90591 37.6876C9.94718 37.4932 9.93513 37.1167 9.87604 36.6837C9.31536 36.463 8.73907 36.1681 8.3532 35.7905C7.97202 35.4194 7.76869 35.0017 7.71423 34.5827C7.69412 34.838 7.63117 35.0967 7.52211 35.3433C6.96722 34.7992 6.83427 34.557 6.68317 34.3641C6.56402 34.1716 6.35641 33.9888 6.35022 33.5683C6.28755 33.9401 6.35286 34.291 6.2722 34.5532C6.18609 33.8878 6.24417 34.2841 5.96638 34.5489C5.84143 34.6799 5.67196 34.7745 5.57462 34.7896C5.48487 34.793 5.4848 34.7289 5.72118 34.6019C5.75305 34.5383 5.81398 34.4933 5.93264 34.452L6.10174 34.3956C6.14264 34.383 6.1086 34.3884 6.12284 34.3924C6.12284 34.3924 6.12284 34.3924 6.10781 34.4006C6.23109 34.3733 6.29288 34.3803 6.42736 34.3905C6.48921 34.3898 6.48922 34.3898 6.45525 34.3877C6.41854 34.3884 6.36687 34.3897 6.3608 34.3847C6.3337 34.3753 6.29208 34.3925 6.48517 34.3865C7.1802 34.4172 7.61797 34.5552 7.37483 33.9638C7.60457 33.7493 8.0182 34.0675 8.34713 34.3574C8.5082 34.5021 8.68097 34.6308 8.80201 34.6965C8.92095 34.7683 8.98881 34.7803 9.00963 34.664C8.35689 34.1885 7.5644 33.6139 7.71097 33.2108C8.29269 33.3641 8.78435 33.7667 9.2897 33.7318L8.30521 32.9769C8.59695 32.7466 8.9835 32.6965 8.29543 32.0766C8.91747 32.2065 9.0253 32.0179 9.01064 31.7726C9.48672 31.8137 9.82099 32.3284 10.1089 32.854C10.3927 33.3914 10.6302 33.9321 10.7764 34.1339C10.4598 33.1926 11.1203 33.3539 10.368 32.1251C10.16 32.1317 9.94904 32.1564 9.73543 32.1763C9.64854 31.3077 10.151 31.5064 10.5757 31.5824C10.9813 31.6786 11.212 31.7239 10.6429 30.5938C10.2885 30.9164 9.35287 30.7374 9.15035 30.0921L10.173 30.1911C10.0323 29.9117 9.67375 30.231 9.71532 29.7907C10.0699 29.8836 10.8315 30.1354 11.2537 30.3427L11.193 30.2929L12.4246 29.7836C12.2511 29.9467 11.904 29.6419 12.0789 29.4774L13.2142 29.5225C12.7931 29.4238 12.7746 29.0086 12.9702 28.6637C13.6666 27.8391 15.494 30.2945 15.4205 28.9471C15.3294 29.0238 15.2142 28.9217 15.123 28.9984L15.15 28.3769C16.8801 30.2807 17.5349 27.3272 19.2512 29.2455C19.1249 28.1575 18.8991 28.7495 17.4367 28.2084L17.5376 27.3244C17.2428 27.3804 17.173 27.6386 16.7616 27.5864L16.7809 27.5586ZM9.61832 31.5548C9.91169 32.0104 9.26234 31.7505 9.00241 31.7094C8.9848 31.3463 8.75524 30.8993 9.61832 31.5548ZM9.63498 35.0889C9.60313 34.7218 9.65409 34.5097 9.96387 34.6685C9.95302 34.9519 9.816 35.0653 9.63498 35.0889ZM48.7502 16.4324C48.7502 16.4324 48.7786 16.448 48.7955 16.4567C48.6373 16.7246 48.5839 16.9014 48.7502 16.4324ZM49.0687 16.0984C49.2313 15.9469 49.421 15.8689 49.62 16.0191C49.581 15.9051 49.5065 15.8056 49.344 15.7417C48.9767 15.6999 48.977 15.8848 49.0687 16.0984ZM38.7958 9.60674L38.8499 9.35358C39.0969 9.53281 39.3333 9.69303 38.7958 9.60674ZM7.99679 34.3167C8.04513 34.4511 8.12873 34.5939 8.20691 34.7349C8.07742 34.6288 7.985 34.4839 7.99679 34.3167ZM23.2876 24.8432C23.2876 24.8432 23.3014 24.8288 23.3082 24.8216C23.3548 24.8597 23.3993 24.8962 23.4369 24.9398L23.2876 24.8432ZM32.1801 16.4867C32.1103 16.6808 32.1317 16.8624 32.1865 17.0278C32.029 16.868 31.9777 16.6799 32.1801 16.4867ZM54.5486 14.9319L53.8895 14.9845C54.1649 14.8997 54.1402 14.7103 54.1826 14.5373C54.2985 14.7143 54.3829 14.9962 54.5547 14.9369L54.5486 14.9319ZM55.8848 8.44921C56.0284 8.50269 56.058 8.3885 56.2056 8.44528L56.4259 8.79235C56.0707 8.9117 55.6381 8.73435 55.8848 8.44921ZM53.2467 12.3299C52.8366 11.7095 53.3268 11.7622 53.782 11.7119C53.7582 11.718 53.7343 11.7241 53.7178 11.7414C54.4538 12.5415 53.8553 12.436 53.2507 12.3332L53.2467 12.3299ZM53.8801 11.6922C54.0162 11.6703 54.1491 11.633 54.2362 11.553C54.5329 11.8729 54.148 11.6833 53.8801 11.6922ZM50.6676 15.6461C50.7242 15.413 51.3704 16.3601 51.2773 16.0685C52.056 16.7369 49.4206 15.6917 50.6676 15.6461ZM52.0591 10.2011L52.4796 11.0069L51.8197 10.4974L52.0591 10.2011ZM49.5391 12.099L49.9753 11.6152C50.0645 11.7446 50.1906 11.7786 50.3263 11.7949C49.9792 11.9927 49.7 12.3308 49.5452 12.104L49.5391 12.099ZM50.3203 11.79C50.5014 11.687 50.6896 11.6181 50.8902 11.6874C50.781 11.7263 50.5437 11.8088 50.3203 11.79ZM51.0689 10.3363L51.0075 10.5707L50.6286 10.8168C50.7709 10.6487 50.9192 10.4933 51.0689 10.3363ZM43.4019 15.3375L42.6102 15.461C42.3452 15.2439 42.3856 14.9975 42.6998 14.9779C42.9865 15.0665 43.2986 15.0452 43.4019 15.3375ZM43.7035 12.3614C43.6529 12.5995 43.773 12.7721 43.8688 13.0608L43.1208 12.1637L43.7035 12.3614ZM41.6744 13.0947C41.4053 12.8743 40.1778 12.8692 41.0154 12.4935C41.2804 12.7105 42.0931 12.5914 41.6744 13.0947ZM33.3719 19.4574L33.5303 19.3744L34.7841 20.8292L33.3719 19.4574ZM22.4129 21.1244C22.7802 20.3124 23.3954 21.8776 23.6223 21.0276C24.0926 21.2486 23.4411 21.7202 23.8765 21.8946C23.1335 21.8273 23.103 22.1767 22.4129 21.1244ZM23.8765 21.8946C23.9933 21.9006 24.131 21.9262 24.2911 21.9624C24.092 21.9558 23.97 21.9251 23.8765 21.8946ZM73.1834 0.694191L73.6367 0.275619L73.4794 0.875024L73.1834 0.694191ZM74.8317 1.76187L74.536 0.696647L75.2859 1.59539C75.134 1.56582 74.8341 1.50999 74.8276 1.75855L74.8317 1.76187ZM10.1251 34.08L9.87872 33.9039C9.66692 33.6612 9.68738 33.5831 9.77844 33.4423C9.88379 33.6568 9.9973 33.8702 10.1251 34.08ZM14.5922 30.0688L14.5112 30.1538L13.9813 29.1942L14.5963 30.0645L14.5922 30.0688ZM20.6952 28.2793C20.5116 28.4264 20.1044 28.3698 19.9147 28.5196C20.5089 28.4293 19.8845 27.1872 20.6952 28.2793ZM94.4449 32.6119C94.5454 32.4045 95.1191 32.9743 95.2517 33.0392C94.8552 33.2018 94.2858 32.4689 94.4449 32.6119ZM90.4688 34.1663L90.7718 34.3246L89.7655 34.216L90.4688 34.1663ZM88.0976 36.7091C87.2497 35.5995 89.1307 35.932 89.1753 35.1711L89.0005 34.8972L90.0527 35.3922C89.4028 35.8318 88.1594 36.0777 88.0976 36.7091ZM89.1394 39.9391C88.7989 39.5141 88.508 39.94 89.3039 39.5174C89.3209 39.5826 89.3356 39.6126 89.3535 39.658C89.2986 39.708 89.2313 39.7861 89.1354 39.9358L89.1394 39.9391ZM89.3596 39.663C89.6426 39.4229 89.5414 40.1222 89.3596 39.663V39.663ZM87.9597 40.7038L88.663 40.6541C88.8385 40.9234 88.6012 41.2856 88.8905 41.3147C88.3503 41.5109 88.1728 41.2398 87.9637 40.7071L87.9597 40.7038ZM86.8642 40.4016L87.191 40.3461C87.266 40.464 87.2564 40.5382 86.8642 40.4016ZM87.8881 40.2273L87.191 40.3461C87.0636 40.1547 86.7238 39.8687 87.4792 40.2668C87.1354 40.0417 87.509 40.2091 87.8881 40.2273ZM87.9302 39.8771C87.8829 39.4922 87.9734 39.1177 87.2742 39.1707C88.0537 38.6141 88.7157 39.3255 87.9302 39.8771ZM86.8638 35.9398L86.7974 35.4239L87.3684 35.4864C87.0839 35.456 87.1812 36.2305 86.8611 35.9427L86.8638 35.9398ZM86.4556 43.3388C86.2064 43.1732 85.9571 42.728 85.6911 42.4666L86.1972 42.4195C86.226 42.6765 86.1355 43.051 86.4556 43.3388ZM85.6911 42.4666L84.9332 42.5358C85.2129 42.1519 85.4588 42.2379 85.6911 42.4666ZM85.614 39.4984L87.035 39.5235L85.4899 39.6096L85.614 39.4984ZM85.0886 44.8476L85.8194 45.0562L84.6534 44.8014L85.0886 44.8476ZM84.07 45.757C84.6581 45.9489 84.5964 46.5804 85.0316 46.6265C84.7027 46.8316 84.1115 46.7525 83.5833 46.6867C83.9734 46.6215 84.1466 46.3454 84.07 45.757ZM82.7647 46.6343C82.9723 46.6094 83.2649 46.6465 83.5805 46.6896C83.3668 46.7248 83.1146 46.7209 82.7647 46.6343ZM84.4237 43.2929C84.5359 43.436 84.8405 43.7854 84.7903 44.129L84.2944 43.4588L84.4298 43.2979L84.4237 43.2929ZM84.2749 43.43L84.2952 43.4466L84.0171 43.8137L84.2749 43.43ZM84.4568 43.2507L84.4197 43.2896C84.3727 43.2255 84.3641 43.2005 84.4568 43.2507ZM85.2328 40.9862C84.6618 40.9237 83.8303 41.089 83.7179 40.1867C84.306 40.3786 84.3725 40.8946 85.2328 40.9862ZM83.8313 42.4103L84.0715 41.8789C84.2346 42.0252 84.406 42.2989 84.6946 42.3326L83.8286 42.4132L83.8313 42.4103ZM83.4388 42.4479L83.8313 42.4103L83.7404 42.6077L83.4388 42.4479ZM82.8278 45.4424C82.3796 45.3908 82.1727 45.57 81.9255 45.7574C82.0185 45.4181 82.1783 45.1183 82.398 44.8879C82.6285 45.0203 83.0855 45.2099 82.825 45.4452L82.8278 45.4424ZM83.4757 44.4191C83.4757 44.4191 83.4294 44.4299 83.4043 44.4298C83.373 44.3606 83.3746 44.3287 83.4757 44.4191ZM79.8896 47.9261L79.8092 47.7988L79.9254 47.881L79.8855 47.9228L79.8896 47.9261ZM82.3245 44.7534C82.3694 44.4721 82.6206 44.4958 82.9198 44.5562C82.7287 44.6356 82.5537 44.7436 82.4068 44.89C82.3034 44.8284 82.2406 44.7847 82.3245 44.7534ZM81.9001 47.0007C81.8524 46.7975 81.8366 46.6025 81.8371 46.4055C81.9563 46.6621 82.0969 47.1003 81.9001 47.0007ZM83.5246 44.6361C83.5246 44.6361 83.5627 44.634 83.5797 44.6351C83.6644 44.807 83.6004 44.7418 83.5246 44.6361ZM83.5246 44.6361C83.3477 44.6554 83.1206 44.595 82.9137 44.5512C83.0659 44.4861 83.2294 44.4431 83.4043 44.4298C83.4282 44.4879 83.4777 44.5644 83.5246 44.6361ZM75.1647 45.2519C75.7857 45.704 76.7742 45.6801 76.5178 44.7625C77.3338 44.723 79.044 46.5722 79.8105 47.8049C79.5378 47.6073 79.2991 47.4118 78.5665 47.5375C78.3794 47.133 78.6612 46.0177 77.8009 45.926C76.9865 46.2207 77.5952 46.5422 77.663 47.0567C77.1353 46.2348 75.9404 46.8717 74.963 45.8714L75.7918 45.709C75.6287 45.5626 75.1975 45.5121 75.1687 45.2552L75.1647 45.2519ZM80.4791 46.9755L80.7072 46.8648C80.6325 47.1396 80.7394 47.4733 80.9666 48.1003C80.4095 48.1441 80.1374 48.0214 79.9226 47.8839L80.6149 46.9918L80.4703 46.9734L80.4791 46.9755ZM81.4212 46.1162C80.6548 45.722 79.9999 45.9062 79.5312 45.0865C80.0385 44.6302 80.3915 45.1782 80.9509 45.1131C80.0433 45.7776 81.5259 45.1789 81.3532 46.0477C81.6107 45.9817 81.7729 45.8683 81.9255 45.7574C81.8685 45.9645 81.8358 46.1839 81.833 46.4098L81.809 46.3594L81.8009 46.3528C81.7543 46.2505 81.7154 46.2007 81.7269 46.2717C81.7168 46.2634 81.7058 46.2749 81.6942 46.2757C81.5984 46.21 81.5057 46.1598 81.4171 46.1129C81.3337 46.4497 81.5507 46.2864 81.6942 46.2757C81.7246 46.3005 81.7646 46.3153 81.799 46.3435C81.799 46.3435 81.805 46.3485 81.8091 46.3518L80.7059 46.8586C80.7761 46.6187 80.9908 46.4201 81.4199 46.11L81.4212 46.1162ZM81.9349 39.4908C81.9648 39.5614 82.0195 39.5985 82.0599 39.6393C81.9281 39.6263 81.857 39.5988 81.9349 39.4908ZM82.0185 40.1361C82.1624 40.1515 82.4681 40.3146 82.5792 40.0696C82.5373 39.7508 82.2696 39.8162 82.068 39.6383C82.3465 39.6637 82.9043 39.6154 82.8788 40.2278L82.7422 40.216C82.66 40.7179 83.0814 41.7835 83.2213 41.7955C82.7306 41.2295 82.3879 40.8105 82.0185 40.1361ZM81.5329 43.018L80.5945 43.4239L80.3546 42.6326L80.6747 42.9204C80.8968 42.4381 81.234 42.8553 81.5411 43.017L81.5329 43.018ZM80.1378 48.2704L80.9007 48.7361L79.5805 48.3371L80.1378 48.2704ZM79.2487 49.0628L79.8745 49.5137L79.3048 49.4498L79.2575 49.0649L79.2487 49.0628ZM42.3214 77.4288L42.6739 77.3841C42.5356 77.4272 42.426 77.44 42.3214 77.4288ZM41.0059 78.8156L40.681 78.6085C40.9067 78.6779 41.0453 78.7479 41.0059 78.8156ZM59.2985 70.1771C59.5831 70.9102 60.1471 71.9284 59.511 71.3485L58.9445 70.7334C59.2494 70.6292 59.3159 70.4196 59.2985 70.1771ZM41.7979 81.5179L41.6765 81.2749L42.4762 81.5888L41.7938 81.5146L41.7979 81.5179ZM38.9186 79.5345L38.9919 80.251C38.9245 80.0497 38.8962 79.8111 38.9186 79.5345ZM50.6161 70.8211L51.4807 71.1804C51.114 71.5006 50.9536 71.0718 50.6161 70.8211ZM70.7199 57.6992C70.7442 58.1498 70.6681 58.4337 70.5364 58.6284C70.4395 58.0311 70.0994 57.3372 70.7199 57.6992ZM35.0063 72.2413C35.2369 72.2224 35.4206 72.283 35.5601 72.405C35.3315 72.4331 35.1415 72.3981 35.0063 72.2413ZM69.8704 59.3343C69.8454 59.2395 69.8522 59.1682 69.8374 59.0817C70.117 58.9926 70.3736 58.8822 70.5364 58.6284C70.6063 59.0728 70.5468 59.46 69.8663 59.331L69.8704 59.3343ZM80.8807 47.1967C80.8778 47.1507 80.8971 47.1229 80.8873 47.0764C80.9695 47.1565 80.9393 47.1806 80.8807 47.1967ZM85.385 35.0648C85.253 35.0823 85.0862 35.174 84.9217 35.2521C84.962 35.1645 85.091 35.101 85.385 35.0648ZM76.2724 52.7615C76.4845 52.6146 76.3687 52.789 76.2724 52.7615V52.7615ZM74.5349 49.7849C74.425 49.7641 74.3065 49.7183 74.1499 49.6029C74.3194 49.7161 74.4461 49.7685 74.5349 49.7849ZM64.1083 57.8646L64.0946 57.879C64.022 57.7247 64.0367 57.7547 64.1083 57.8646ZM76.24 52.2477C76.2543 52.38 76.251 52.5157 76.2131 52.6385C76.1996 52.5582 76.1994 52.4376 76.24 52.2477ZM76.5132 52.5355C76.5453 52.449 76.573 52.3897 76.6008 52.3227C76.7334 52.3877 76.7748 52.4652 76.5132 52.5355ZM76.0018 52.9886C76.1094 52.8946 76.1738 52.7704 76.2131 52.6385C76.2247 52.7095 76.2453 52.7521 76.2792 52.7619C76.2183 52.8069 76.1402 52.8737 76.0045 52.9857L76.0018 52.9886ZM62.224 57.4601C62.224 57.4601 62.2231 57.4081 62.2106 57.3721C62.6583 57.4619 62.5336 57.4905 62.224 57.4601ZM48.0783 69.4507C48.0783 69.4507 48.1163 69.4562 48.1272 69.4523L48.126 69.5026L48.0783 69.4507ZM46.9767 69.7102C48.0518 70.0905 48.0976 69.846 48.1301 69.4983L49.8012 71.241L46.9828 69.7152L46.9767 69.7102ZM45.1523 74.7931C44.9084 73.4959 46.5245 73.8757 47.3638 74.0271C47.3084 73.5638 45.7052 72.9023 46.6891 72.5772C48.0038 72.0564 47.948 74.0003 48.7319 73.6884L48.1254 72.42C49.611 72.4417 49.4496 71.3377 49.9364 70.6799C50.1564 70.6268 50.3274 70.6591 50.4661 70.7291C50.684 69.7563 52.8094 70.3992 52.97 69.6641C52.6507 69.5795 52.6197 68.8413 52.4394 68.5655L53.9592 68.3587C53.3009 68.4633 52.7419 67.9235 52.1147 67.474C52.4571 67.2851 52.9034 67.4557 53.1734 67.3615C52.8541 67.2769 52.5307 67.189 52.4213 66.8276L54.3138 66.8799C54.3553 67.0139 54.2841 67.1453 54.2131 67.2462C54.4576 67.0464 55.33 66.9403 55.203 66.2158C54.9566 66.0396 54.6332 65.9518 54.3835 65.7678C54.7209 66.5928 54.027 66.2322 53.4511 65.9709C54.2073 65.4953 53.4741 65.6974 53.383 65.0485C53.8699 64.6703 54.8102 65.207 55.1652 65.7566C55.4759 65.1136 55.4996 64.8356 56.6108 64.9173L55.7441 64.2845L56.4847 64.1012L55.1468 63.5544C55.5825 62.2701 56.6324 64.6453 57.2666 63.3569L56.6011 62.7171C57.2695 62.6208 58.5348 63.58 58.0511 62.5532C58.8573 62.6185 58.3126 64.0057 59.3904 63.3781C59.2113 62.9161 59.3251 62.3887 59.4589 62.0444C60.0674 62.094 60.0134 62.9857 59.732 63.0502C61.4711 62.2204 58.3445 60.1524 60.5049 59.9805C60.5379 60.7921 62.1461 60.9347 61.0897 61.7363C61.9788 61.7259 61.0991 60.0261 62.3469 60.3273L61.1601 59.7657C61.3322 59.6041 61.853 59.7382 62.0593 59.7637L61.3677 59.1589C63.1542 59.7756 62.0416 57.7004 63.9111 58.8724C62.4738 57.9236 64.4673 58.5688 64.2689 57.9192C62.9147 57.518 62.7574 59.1148 61.6089 58.105C61.5315 57.593 62.286 57.9467 62.2098 57.4485C61.8838 57.42 61.3512 57.3248 61.068 57.157C61.2898 55.9233 63.0166 56.8066 63.7965 56.7067L62.6655 57.137C63.8099 58.151 63.2458 57.0121 64.3345 57.6652C64.1978 56.7507 65.3871 57.3323 65.3985 56.7083C65.306 56.7864 65.1948 56.6877 65.1037 56.7643C66.1067 56.0754 64.6462 54.1231 65.0088 53.8072C65.2548 53.383 66.558 53.4373 66.7434 54.0892C67.3525 54.1571 65.1279 54.7252 67.0617 55.7088C66.0316 53.6832 68.7972 55.4684 68.9534 53.4911C67.8521 53.297 68.3912 52.3539 67.48 52.259C68.1984 51.9704 68.4559 52.1992 69.1622 52.475L68.8515 51.8411C70.7224 52.4372 70.0007 52.718 71.7515 52.5107C70.9772 52.3817 71.5203 51.4496 70.874 51.2922C71.1721 51.0363 71.635 50.9666 72.1685 51.1137L72.052 51.0696C73.5009 50.5176 72.4309 49.7542 74.055 49.5816L74.2396 49.9661C76.4673 49.8519 77.7822 48.103 79.6602 47.5357L79.3595 48.1305C79.3783 47.869 80.8338 47.9864 80.861 47.1985C80.7377 47.2257 80.4492 47.192 80.3952 47.2863C80.0928 46.9233 79.8039 46.2893 80.0917 45.9686L80.7175 46.4195L80.4919 45.9117C81.0378 45.5509 81.0226 46.7872 81.5684 46.4265C80.5004 44.6673 83.8078 44.7398 83.0929 43.0826C84.4676 43.9724 82.1601 43.8905 83.4844 44.6519C83.504 44.3782 83.4004 44.1241 83.6915 43.8113L84.1568 44.5589C85.5277 43.1405 85.6965 42.1813 87.3689 41.4328L87.1817 41.3231C87.5053 40.742 87.9095 40.6884 88.6611 41.1397C88.5043 40.7524 87.9681 40.8235 87.9454 40.4203C90.4001 41.6022 88.8299 38.0421 90.4609 38.9238C89.2257 37.5893 89.4245 35.5521 87.9842 34.7727L88.534 34.7101C87.6366 33.8752 87.2292 35.398 86.193 34.5803L85.6993 36.2503C85.4506 35.8877 84.8066 35.4937 84.9209 35.2642C84.5823 35.4228 84.2665 35.5309 84.2666 34.8054C83.7144 36.8429 82.1826 37.7424 80.5553 38.538C78.9368 39.3434 77.1831 39.992 76.2788 41.5258C76.0126 41.5745 75.8389 41.1861 75.7285 40.9316C75.9625 42.1257 74.8107 40.8057 74.4037 40.8698L74.7332 42.5986C74.0796 42.43 73.9827 41.8968 73.7415 41.6661C72.0275 42.3676 71.7093 44.5147 69.8458 44.5606C69.8787 45.2515 70.8511 45.4863 70.4999 45.9679C69.9895 44.2551 68.5129 46.3511 68.1074 45.178C68.8856 46.8331 66.6027 46.6689 68.576 48.3668C68.0913 48.875 67.3412 47.9121 67.3527 47.6318C66.7373 48.1637 66.2121 48.567 65.1067 48.3772C65.1313 48.7255 64.2538 49.1506 63.4606 49.7215C62.6708 50.2927 61.9903 51.0252 62.3658 51.9198C61.8911 50.7362 61.8805 51.484 61.1094 51.3782L60.6836 50.3398L59.8916 51.0682C59.6396 51.1285 59.6199 51.1944 59.692 51.2662C59.5805 51.4134 60.1732 51.6911 59.9967 52.1671C59.4491 52.6468 58.9995 52.253 58.2744 52.0951L58.2469 51.9086L57.7764 52.1412C57.5049 52.3881 59.5839 52.1239 59.0403 53.253C58.8111 53.0475 57.2134 52.4519 57.5243 53.2065C57.9687 52.7935 58.4559 53.3822 58.5068 53.7444L57.8861 54.3233L57.1162 53.1698C56.1586 53.9395 55.3611 54.8966 54.5457 55.8649C53.727 56.8329 52.8745 57.7834 51.8479 58.5915C52.7658 59.4124 50.4694 59.814 51.966 60.8933L51.9147 60.7129C52.5319 60.4285 52.813 61.8075 52.2627 61.9953C52.2596 61.2543 50.1901 61.3801 51.0155 60.356L49.6024 60.4245C46.6388 58.4388 47.7423 62.4013 45.745 62.6555C45.9256 62.6701 46.085 62.7826 46.1768 62.845C44.3224 63.0136 44.5669 65.5267 43.9234 65.3664L44.5426 66.0811C42.5707 65.8818 42.3869 65.9082 41.8005 67.2485C41.9309 67.3347 42.251 67.4071 42.2381 67.6889C41.4628 67.4514 40.6834 67.2183 40.1295 67.9955L40.3848 68.1661C39.9721 68.4666 39.5756 68.7804 39.175 69.0908C41.4093 71.0024 35.9631 69.6966 38.063 72.0853C37.1917 71.7257 36.2202 72.325 35.5601 72.405C35.6524 72.4857 35.7329 72.5978 35.7785 72.7427C34.1612 72.1261 34.986 74.2348 34.4038 74.5657C33.8201 74.6185 33.5613 74.1682 33.2978 73.7191C33.4911 74.4081 32.8137 74.597 32.0698 74.7724C31.3328 74.9331 30.5325 75.111 30.6354 75.4414C30.2603 76.2163 31.4099 76.3295 31.8364 76.8685C31.417 77.2968 30.8644 76.9392 30.4468 76.6895C30.0419 76.4528 29.7005 76.3272 29.8557 77.5209C30.0476 77.3498 30.3089 77.0381 30.3964 77.2637C30.3581 77.6477 30.9974 78.5378 31.6396 79.2662C31.9543 79.6239 32.264 79.9981 32.462 80.2628C32.6593 80.532 32.743 80.7314 32.5942 80.8685C32.4253 80.6942 32.2456 80.5086 32.0945 80.3157C31.9036 80.5876 31.9828 80.9806 32.1879 81.3512C32.4032 81.73 32.7315 82.0809 33.0476 82.3654C33.6749 82.9431 34.1624 83.2141 33.4848 83.6336C33.224 83.6842 32.9578 83.7328 32.6835 83.7672C33.3719 84.3565 33.8286 84.6485 34.1215 84.8627C34.4117 85.0798 34.5417 85.2118 34.6809 85.3643C34.8141 85.5118 34.9703 85.6654 35.3242 85.8347C35.5022 85.9163 35.7325 85.9921 36.0147 86.059C36.2903 86.095 36.6269 86.1501 37.0046 86.0979L36.9603 85.9668C37.6305 86.1746 38.0393 85.9349 38.3453 85.8445C38.6482 85.731 38.9055 85.7596 39.4952 86.2938L39.2284 86.5471C39.9173 86.4368 40.2237 86.3006 40.4949 86.156C40.7717 86.0057 41.0024 85.828 41.409 85.5225C41.6031 85.5609 42.1563 85.4267 42.0293 85.1253C42.4862 85.5379 43.0387 85.2647 43.4383 84.8458C43.8584 84.4052 44.0432 83.913 44.1439 83.7621C43.5778 84.1062 43.3649 83.5549 43.0986 83.1087C44.1323 83.4757 44.3932 83.3534 44.1761 82.5192C45.4208 83.4359 46.7663 84.3941 47.5285 83.7157C47.242 83.6836 46.974 83.7795 46.7964 83.5085C46.625 83.2348 47.0501 83.2803 47.194 83.2957C47.0185 83.0263 46.6045 83.1052 46.2673 82.688C47.8788 83.1179 47.1578 81.8942 48.2388 81.505C47.661 81.4421 47.613 81.0541 47.2812 80.6388C48.6884 81.6835 47.0326 78.6968 48.5206 80.3897C48.8038 78.1242 51.8144 76.7434 51.2011 75.2745C50.8521 74.7297 52.0154 74.9798 52.2691 74.7516L51.6419 74.3021C53.3625 74.4854 52.5452 74.088 54.3906 74.1632C53.3672 73.9252 53.1753 73.5219 52.93 72.7287L54.6855 73.1739L53.8678 72.3197C54.4415 72.3869 54.5341 72.0141 54.6328 71.6385C54.5046 71.754 54.4888 71.6232 54.3318 71.4818C55.7226 72.3925 56.5034 71.2754 57.2519 71.6165C56.2443 70.3607 58.1944 71.2063 57.1951 70.0778C57.446 70.1396 57.6873 70.1474 57.9151 70.1314C58.3461 70.6921 58.916 71.228 58.8557 70.7888C58.8836 70.7784 58.9001 70.7611 58.9267 70.7521L58.2956 70.0687C58.6751 69.9769 58.9798 69.8161 59.1334 69.6701C59.135 69.7894 59.1923 69.9824 59.2739 70.1954C59.2546 70.0078 59.2089 69.8063 59.1746 69.6269C59.2048 69.5953 59.2323 69.5665 59.2448 69.5382C59.2108 69.5361 59.1768 69.5415 59.1603 69.5588C59.1242 69.2831 59.1752 69.071 59.6074 69.0711C59.2525 67.3728 62.7942 68.5294 62.1 66.4123C62.1289 66.6692 62.0239 66.9115 61.7182 66.756C62.4832 66.0748 62.1399 64.504 63.1298 64.4863L63.7699 65.0695C64.5843 64.7748 65.1942 64.5358 65.5569 64.061L66.3411 64.6519C66.6565 63.7922 69.1585 63.4282 67.957 61.7674C68.7082 62.1057 68.6022 60.7471 69.143 60.5541L68.6455 59.9876C68.8947 59.3636 69.3723 59.2444 69.808 59.1012C69.4866 57.1637 71.5153 57.2582 72.2165 56.3529L72.0554 56.2082L73.264 55.7005C72.5292 55.4962 73.7875 55.8317 73.8781 55.4571C74.414 55.4166 74.6735 54.8649 74.5918 54.2365L75.0675 53.6697C74.1126 53.9492 74.269 52.9465 73.6275 52.3648L74.4878 52.4565C74.2931 52.056 73.7529 52.2521 73.8495 51.8826C74.4274 51.9455 75.0396 51.2468 75.9376 51.5975C76.0773 51.7684 76.1569 51.9797 76.1949 52.1929C76.127 52.1885 76.1331 52.1935 76.2022 52.2117L76.2133 52.2643C76.2133 52.2643 76.2129 52.2383 76.2151 52.2171C76.3073 52.2413 76.4666 52.2897 76.5701 52.336C76.8228 51.7839 76.9523 52.1695 77.2421 52.4324C76.6492 51.0931 77.6163 51.3978 76.7267 50.0258C77.643 51.6607 77.7826 48.9187 78.808 50.307C78.0855 49.0847 78.9868 50.0175 78.2959 49.0492C78.1101 49.7919 76.6562 49.5065 75.8103 49.5472L75.5519 48.6279C74.1021 47.9151 75.1497 49.896 74.5185 49.8021C74.9528 49.8681 75.0155 49.281 74.7581 49.0522L75.5751 49.9033C75.3982 50.7764 74.2514 50.6527 73.4164 50.6894C73.4781 50.0579 72.4238 50.71 72.04 49.9034L72.4376 49.6905C72.2457 49.2872 71.685 49.3537 71.26 49.3082C71.0213 50.8128 68.7817 52.0993 69.1786 53.032C69.1327 52.6457 69.6729 52.4496 70.1007 52.4922L70.0594 53.2533C70.4386 52.9125 69.8916 51.9595 70.7046 51.6662C71.1975 52.2263 72.3635 52.481 72.7849 53.5467C72.7218 55.3206 70.4701 53.1665 69.5179 54.5919C69.2294 54.5581 70.7127 55.1036 69.7763 55.5111C68.4026 55.8709 66.5045 55.4089 65.2419 54.3827C65.9452 54.3329 67.3457 54.2285 66.5286 53.3774C65.8253 53.4271 65.0308 53.8483 64.4085 53.3976C65.1268 54.6243 65.3463 52.9886 65.7821 54.1866C65.5244 54.4114 65.0788 54.2363 64.7903 54.2026C65.3858 54.398 65.3208 55.0216 65.4982 55.3003C64.7565 56.1082 64.7913 56.9445 64.0736 57.8746C64.1834 58.0466 64.4334 58.4154 64.7199 58.5987C64.033 58.7824 61.8876 58.0923 61.3716 57.3979C60.8643 57.8543 61.3414 58.2835 60.6586 58.4705C60.3365 57.0324 60.6962 58.7295 59.6003 57.9705C59.0745 58.2989 59.9553 58.5202 60.0032 58.9082C59.8267 58.8893 59.3308 58.7858 59.0419 58.5748C59.5677 59.4669 61.5433 59.7077 62.1546 60.7519C62.522 61.4246 62.6814 63.173 62.6999 63.301C61.6437 62.8027 58.1428 59.8539 57.2818 58.6181C56.6546 58.1687 57.536 59.5417 57.425 59.779C57.8753 61.1016 55.8943 59.9973 55.847 60.7535L56.7093 60.8468C56.8807 61.1205 55.9443 61.528 55.4988 61.3529C55.8189 61.6407 57.5475 62.4125 57.7579 62.9438C57.1731 63.9008 54.5945 63.1662 53.6369 62.3L55.8496 61.9069C55.0491 61.1821 54.1791 62.1056 53.2175 61.2361L52.443 62.6224C52.608 62.4985 53.2595 62.2499 53.5567 62.8036C53.0493 63.2599 53.4661 63.1781 53.5442 63.8216C55.1366 64.1204 58.8372 65.3071 60.4877 65.9945L59.3677 66.1261L59.7227 66.6758C58.3332 66.9047 54.3908 64.9327 53.3365 64.4361C53.1322 65.0508 55.0739 66.3511 55.5256 66.5312C54.7934 67.4727 52.1813 65.3337 51.611 66.4154L51.5281 65.7655C51.1679 65.8371 50.8181 66.884 50.5652 66.5333C50.8827 67.0959 51.8533 68.1676 52.3421 68.2217L49.9267 67.6335C50.2132 67.6656 51.5832 68.9079 51.8841 69.0647C51.6436 69.4189 49.7189 68.248 49.673 67.8617C50.1377 69.3165 49.7119 68.7013 50.4679 70.1869C50.1957 70.2871 48.9539 68.9293 48.9265 68.6709C48.1541 68.7666 48.1144 69.1521 48.0896 69.4728C49.3425 69.3039 51.4873 71.9064 52.7028 72.6684L47.0549 70.6332C47.3566 70.793 48.8397 71.7921 48.9967 71.9335C47.61 71.0185 45.8826 72.5424 45.2992 73.498L45.4233 73.3868C46.0169 73.5805 45.7145 74.5663 45.0009 74.4871C45.3039 74.6454 45.2895 74.5208 45.4149 74.4081C45.8652 75.7307 42.8186 73.5411 43.4292 75.0129C43.7775 74.4134 44.3862 74.7349 44.8673 75.1674C44.0215 75.2004 43.6286 76.5607 42.318 75.1465C42.3845 75.6625 41.9738 75.7492 42.7532 76.3413L40.9146 76.6255C41.1398 76.6766 41.6434 76.9684 41.4651 77.3481C41.7983 76.6209 43.7135 77.2123 43.0069 76.1131C43.95 76.8547 44.2473 77.4724 45.2851 77.8351C43.8168 78.5661 41.6715 77.876 39.9509 77.6927L39.715 79.1944L39.2523 78.8899L40.16 79.9255C39.8033 79.8462 39.5173 79.753 39.5993 79.856C39.6717 79.9538 39.8416 80.0365 40.0453 80.1213C39.896 80.1759 39.7191 80.1951 39.5597 80.1544C40.0852 80.6462 40.8886 81.0016 41.6471 81.2944C41.5298 81.0471 41.4106 80.7905 41.3014 80.5499C42.0154 80.7987 42.6936 81.1078 42.8045 81.6602C42.7014 81.6398 42.5758 81.6242 42.4468 81.6083C42.9607 81.8138 43.3599 82.0073 43.4347 82.2198L42.2293 82.5353C42.1619 82.334 41.9765 81.9616 41.7631 81.5356C40.629 81.4325 39.2916 81.2554 38.9524 80.2622C38.983 80.6231 39.0527 80.9392 39.0909 81.2807C38.2891 81.1088 37.9835 81.0098 37.6945 80.9578C37.4151 80.888 37.1227 80.8998 36.5478 80.6752C36.8188 81.0484 37.2397 81.2495 37.3576 81.5717C36.6379 81.1361 36.768 81.5324 36.8347 81.9537C36.9313 82.3738 36.8751 82.7765 36.7677 82.2091C36.7604 82.1903 36.7544 82.1777 36.758 82.155C36.758 82.155 36.7613 82.1705 36.7612 82.1781L36.7642 82.2241C36.7638 82.2623 36.7613 82.2346 36.7613 82.2346L36.7682 82.2274L36.7642 82.2241L36.771 82.2169L36.7213 82.4429L36.7158 82.4486C36.7078 82.5062 36.7009 82.5134 36.725 82.4767C36.7484 82.4522 36.7182 82.4839 36.7086 82.494C36.7086 82.494 36.7154 82.4868 36.7416 82.4518C36.7959 82.3835 36.911 82.2931 37.0648 82.2036C37.1419 82.1719 37.2225 82.1328 37.3146 82.0928C37.3998 82.0677 37.4946 82.0325 37.5859 82.0124C37.7664 81.9705 37.9522 81.9457 38.1093 81.9359C38.197 81.9384 38.2575 81.9316 38.3275 81.93C38.4362 81.9369 38.3703 81.9343 38.3134 81.9184C38.3413 81.9156 38.3868 81.917 38.4499 81.9225L38.5877 81.9481L38.5436 81.9377L38.4216 81.8993C38.3674 81.8806 38.3152 81.8712 38.2808 81.843C38.2444 81.8132 38.227 81.7785 38.2164 81.7518C38.7544 81.8565 39.3124 82.1442 39.6798 82.1783L38.5862 81.6059C38.7115 81.4367 39.0411 81.3707 38.2542 80.8545C38.8366 80.9315 38.8827 80.7359 38.8231 80.4922C39.272 80.4675 39.6882 80.9416 40.0641 81.4392C40.44 81.9367 40.8119 82.4233 41 82.5774C40.4252 81.7784 41.1216 81.8001 40.2031 80.6171L39.589 80.7963C39.3452 79.9146 39.9226 79.9515 40.3028 79.9911C40.6927 80.0206 40.9251 80.0263 40.1379 78.9663C39.8725 79.3618 38.9884 79.3328 38.6559 78.7066L39.6218 78.6309C39.4266 78.3633 39.1699 78.7609 39.1064 78.2986C39.454 78.3345 40.2223 78.4585 40.6613 78.6027L40.5938 78.5602L41.6196 77.8284C41.492 78.0264 41.1056 77.7741 41.2346 77.5747L42.2984 77.4227C41.8894 77.3981 41.7759 76.9769 41.8802 76.5879C42.3279 75.6084 44.5826 77.8085 44.2089 76.4359C44.142 76.5324 44.013 76.4448 43.9462 76.5413L43.8245 75.8981C45.8663 77.5393 45.7747 74.3823 47.8171 76.0342C47.4428 74.938 47.3693 75.5931 45.8951 75.3064L45.7789 74.3779C45.5209 74.4898 45.5141 74.7689 45.1313 74.7887L45.1523 74.7931ZM39.4076 80.2119C39.7624 80.6409 39.0917 80.4789 38.8478 80.474C38.7541 80.1075 38.4543 79.6774 39.4076 80.2119ZM41.1123 79.9207C41.0012 79.5271 41.0274 79.2768 41.3609 79.3729C41.3967 79.6792 41.2911 79.8466 41.1123 79.9207ZM73.7582 54.2718C73.7582 54.2718 73.7899 54.2876 73.8049 54.287C73.7441 54.6039 73.7599 54.7989 73.7582 54.2718ZM73.9423 53.8482C74.036 53.648 74.182 53.5214 74.4032 53.6257C74.3254 53.5184 74.2304 53.4329 74.0736 53.4121C73.738 53.4655 73.7919 53.6507 73.9423 53.8482ZM60.0439 51.7057L60.0119 51.4333C60.2853 51.5547 60.5432 51.6658 60.0439 51.7057ZM39.2557 79.7516C39.3448 79.8886 39.4633 80.0062 39.5933 80.1306C39.4231 80.0861 39.2835 79.9718 39.2557 79.7516ZM50.4564 70.7468C50.4564 70.7468 50.4701 70.7324 50.473 70.7219C50.5271 70.7482 50.5757 70.7804 50.6162 70.8135L50.4564 70.7468ZM58.9447 58.008C58.9277 58.2223 58.9967 58.3994 59.0883 58.5564C58.9075 58.4211 58.8127 58.241 58.9447 58.008ZM78.3862 51.1308L77.8258 51.3745C78.0428 51.2112 77.9475 51.0127 77.9262 50.8234C78.0873 50.9682 78.2607 51.2435 78.3889 51.128L78.3862 51.1308ZM77.1424 44.0586C77.287 44.077 77.2665 43.9474 77.4104 43.9627L77.7305 44.2504C77.4769 44.4786 77.0436 44.4341 77.1424 44.0586ZM76.3304 48.8167C75.7488 48.2892 76.1894 48.2089 76.5636 48.0205C76.5458 48.0392 76.528 48.0503 76.5156 48.0709C77.4443 48.6801 76.885 48.7452 76.3304 48.8167ZM76.6443 47.9737C76.7556 47.9136 76.8508 47.8403 76.9035 47.7321C77.273 47.9757 76.8748 47.8907 76.6443 47.9737ZM75.2191 52.9553C75.1842 52.6934 76.071 53.5016 75.8996 53.228C76.8133 53.7095 74.1381 53.3445 75.2191 52.9553ZM74.5326 46.965L75.1885 47.6714L74.4359 47.3346L74.5265 46.96L74.5326 46.965ZM73.0243 49.6043L73.2361 48.9931C73.3527 49.1014 73.4824 49.1051 73.6044 49.0793C73.3719 49.3684 73.2434 49.794 73.0285 49.6L73.0243 49.6043ZM73.6002 49.0836C73.722 48.9295 73.8652 48.8057 74.0588 48.8257C73.9806 48.9002 73.7977 49.0427 73.6002 49.0836ZM73.7339 47.3905L73.7688 47.6524L73.5316 48.0145L73.7359 47.3998L73.7339 47.3905ZM68.6924 54.4902L68.024 54.8019C67.721 54.6435 67.6881 54.3832 67.9561 54.2873C68.2468 54.3151 68.5108 54.2159 68.6924 54.4902ZM68.0098 51.3596C68.0414 51.6136 68.1997 51.7612 68.3799 52.037L67.4388 51.2971L68.0139 51.3629L68.0098 51.3596ZM66.4681 52.5945C66.1624 52.4314 65.0697 52.693 65.6984 52.1283C65.9993 52.285 66.6677 51.9734 66.4681 52.5945ZM60.7937 60.8375L60.9192 60.7249L62.4331 61.9825L60.7937 60.8375ZM51.1057 64.2965C51.2765 63.4261 52.1723 64.9238 52.2066 64.0339C52.6924 64.1933 52.1793 64.7577 52.6207 64.873C51.9142 64.9073 51.9597 65.2676 51.0997 64.2916L51.1057 64.2965ZM52.6248 64.8763C52.739 64.8699 52.8627 64.8686 53.0223 64.8865C52.8345 64.9096 52.7197 64.8977 52.6248 64.8763ZM86.4462 33.3287L86.6575 32.7633L86.7715 33.4258L86.4462 33.3287ZM88.2533 33.9238L87.5831 32.9263L88.5702 33.6218C88.428 33.6387 88.1599 33.6704 88.2533 33.9238ZM40.5099 82.517L40.2441 82.3763C39.9815 82.1869 39.969 82.1434 39.9844 82.0252C40.1512 82.2054 40.3326 82.3667 40.5139 82.5204L40.5099 82.517ZM43.7122 77.7728L43.6514 77.8743L42.9455 76.986L43.7163 77.7761L43.7122 77.7728ZM48.909 74.7873C48.774 74.9742 48.383 74.995 48.248 75.1819C48.774 74.9742 47.8967 73.8122 48.909 74.7873ZM124.164 51.0405C124.135 50.7912 124.871 51.1346 125.011 51.1466C124.781 51.4633 123.971 50.964 124.164 51.0405ZM121.829 54.1386L122.142 54.1815L121.3 54.4592L121.829 54.1386ZM121.207 57.5799C119.995 56.7876 121.648 56.4106 121.307 55.6343L121.035 55.429L122.113 55.5223C121.812 56.2119 120.95 56.9266 121.207 57.5799ZM123.617 60.4254C123.147 60.1281 123.116 60.6637 123.54 59.9393C123.586 60.0003 123.617 60.0252 123.653 60.0627C123.631 60.1315 123.611 60.2356 123.617 60.4254ZM123.653 60.0627C123.757 59.7119 124.025 60.4546 123.653 60.0627V60.0627ZM123.035 61.6285L123.573 61.3177C123.843 61.5259 123.824 61.9723 124.069 61.8932C123.727 62.2899 123.457 62.0817 123.035 61.6285ZM122.015 61.7344L122.253 61.5571C122.362 61.6466 122.395 61.7251 122.015 61.7344ZM122.754 61.1829L122.253 61.5571C122.062 61.4136 121.649 61.2528 122.446 61.3739C122.061 61.2745 122.446 61.3098 122.758 61.1862L122.754 61.1829ZM122.618 60.8121C122.395 60.4405 122.294 60.0369 121.758 60.3494C122.109 59.5057 122.981 59.9662 122.618 60.8121ZM119.85 57.2717L119.546 56.7818L120.03 56.6295C119.791 56.7028 120.249 57.4393 119.85 57.2717ZM123.085 64.8409C122.81 64.7668 122.396 64.4105 122.059 64.2423L122.44 64.01C122.593 64.2611 122.69 64.6691 123.085 64.8409ZM122.059 64.2423L121.489 64.5908C121.532 64.1001 121.77 64.1 122.059 64.2423ZM120.583 61.29L121.733 60.7907L120.54 61.4491L120.587 61.2857L120.583 61.29ZM122.695 66.8597L123.388 66.8017L122.325 66.9675L122.695 66.8597ZM122.294 68.1416C122.86 68.1259 123.1 68.7843 123.474 68.6722C123.301 69.0003 122.785 69.1338 122.331 69.2545C122.619 69.0468 122.631 68.71 122.296 68.1387L122.294 68.1416ZM121.644 69.4947C121.801 69.3947 122.056 69.3316 122.328 69.2574C122.175 69.3652 121.972 69.4576 121.644 69.4947ZM121.439 65.5346C121.593 65.6345 122.006 65.8778 122.119 66.2425L121.406 65.7478L121.439 65.5346ZM121.379 65.7263L121.399 65.7428L121.343 66.2021L121.375 65.723L121.379 65.7263ZM121.445 65.483L121.439 65.5346C121.371 65.4859 121.35 65.4617 121.445 65.483ZM120.997 62.9233C120.509 63.0724 119.92 63.5388 119.4 62.6701C119.964 62.6465 120.262 63.1422 120.997 62.9233ZM120.553 64.8654L120.493 64.2414C120.69 64.3289 120.962 64.5387 121.207 64.4673L120.556 64.8626L120.553 64.8654ZM120.252 65.0417L120.553 64.8654L120.572 65.0957L120.252 65.0417ZM121.144 68.2698C120.764 68.3814 120.676 68.6324 120.556 68.9058C120.477 68.5311 120.468 68.17 120.539 67.8614C120.786 67.9123 121.245 67.9417 121.144 68.2698ZM121.194 67.0082C121.194 67.0082 121.164 67.0399 121.14 67.046C121.082 66.9858 121.068 66.9558 121.194 67.0082ZM119.891 71.8052L119.766 71.7025L119.895 71.7443L119.891 71.8052ZM120.408 67.7492C120.315 67.4576 120.535 67.3861 120.798 67.3403C120.679 67.4916 120.592 67.6586 120.542 67.8586C120.432 67.8378 120.357 67.8146 120.414 67.7542L120.408 67.7492ZM121.109 70.1661C120.983 69.9809 120.875 69.7876 120.78 69.5891C120.995 69.8014 121.316 70.1977 121.109 70.1661ZM121.331 67.2017C121.331 67.2017 121.361 67.1884 121.371 67.1784C121.519 67.3177 121.441 67.279 121.331 67.2017ZM121.331 67.2017C121.195 67.2801 120.984 67.3048 120.798 67.3403C120.889 67.2193 121.003 67.1182 121.136 67.0427C121.184 67.0946 121.259 67.1559 121.331 67.2017ZM114.824 70.7404C115.535 70.9814 116.332 70.6215 115.707 69.7887C116.355 69.4712 118.585 70.7303 119.766 71.7025C119.456 71.6002 119.173 71.4889 118.629 71.8635C118.293 71.5197 118.017 70.3015 117.273 70.5075C116.741 71.0845 117.382 71.1911 117.669 71.6906C116.865 71.045 116.181 72.0981 114.93 71.4193L115.531 70.9781C115.334 70.8861 114.964 70.9862 114.82 70.7371L114.824 70.7404ZM119.941 70.6383L120.077 70.4469C120.141 70.7535 120.377 71.0465 120.847 71.6036C120.418 71.8388 120.139 71.8134 119.895 71.7443L120.06 70.6047L119.937 70.6426L119.941 70.6383ZM120.317 69.4434C119.515 69.3173 119.061 69.7282 118.314 69.0725C118.515 68.4347 119.054 68.8632 119.477 68.597C119.053 69.5902 119.971 68.4575 120.238 69.3972C120.415 69.2389 120.495 69.0638 120.567 68.9019C120.615 69.131 120.691 69.3574 120.794 69.5931L120.749 69.5566L120.756 69.5494L120.746 69.5411C120.656 69.462 120.602 69.4235 120.647 69.4981C120.638 69.4991 120.633 69.5125 120.63 69.5154C120.52 69.4839 120.422 69.4654 120.327 69.4517C120.417 69.8225 120.515 69.5798 120.63 69.5154C120.664 69.5252 120.704 69.5323 120.748 69.5504L120.758 69.5587L120.093 70.4602C120.037 70.1939 120.133 69.9235 120.333 69.4567L120.317 69.4434ZM117.635 62.6168C117.697 62.6727 117.751 62.6914 117.805 62.7178C117.696 62.749 117.627 62.7538 117.635 62.6168ZM118.009 63.2303C118.131 63.1923 118.453 63.248 118.422 62.9634C118.234 62.6581 118.055 62.8269 117.805 62.7178C118.037 62.641 118.464 62.3903 118.739 63.0127L118.617 63.0461C118.795 63.5769 119.638 64.4953 119.754 64.4569C119.089 64.0661 118.619 63.7688 118.003 63.2253L118.009 63.2303ZM118.962 66.2805L118.391 67.0199L117.826 66.3118L118.218 66.4865C118.17 65.9213 118.641 66.2203 118.958 66.2772L118.962 66.2805ZM120.24 72.052L121.075 72.2566L119.812 72.3149L120.24 72.052ZM119.87 73.1648L120.584 73.4029L120.092 73.5364L119.873 73.1619L119.87 73.1648ZM103.805 111.463L104.048 111.275C103.971 111.375 103.89 111.43 103.805 111.463ZM103.575 113.351L103.216 113.281C103.421 113.259 103.574 113.269 103.575 113.351ZM111.758 100.819C112.276 101.484 113.137 102.358 112.38 101.954L111.662 101.486C111.881 101.294 111.867 101.06 111.758 100.819ZM100.381 116.828L100.2 116.61L101.006 116.74L100.381 116.828ZM97.2012 115.488L97.4936 116.194C97.3662 116.003 97.2705 115.778 97.2012 115.488ZM106.62 101.699L107.47 101.718C107.363 102.174 107.012 101.817 106.62 101.699ZM116.549 84.7247C116.754 85.1716 116.811 85.4822 116.777 85.7214C116.451 85.1446 115.881 84.5522 116.549 84.7247ZM95.4475 109.427C95.6118 109.307 95.7805 109.289 95.9512 109.352C95.795 109.478 95.6288 109.524 95.4475 109.427ZM116.512 86.6531C116.45 86.5666 116.427 86.4888 116.382 86.408C116.578 86.2281 116.744 86.0355 116.78 85.7293C117.02 86.154 117.13 86.5719 116.512 86.6531ZM118.325 66.643C118.304 66.6004 118.296 66.5633 118.267 66.5186C118.371 66.5681 118.366 66.5998 118.325 66.643ZM115.283 52.7777C115.194 52.8515 115.115 53.0068 115.043 53.1503C115.024 53.0483 115.082 52.9314 115.283 52.7777ZM119.062 77.9186C119.175 77.6951 119.155 77.9123 119.062 77.9186V77.9186ZM116.327 75.4968C116.232 75.5136 116.106 75.5056 115.927 75.4407C116.117 75.4941 116.243 75.5098 116.327 75.4968ZM111.076 86.9609L111.073 86.9835C110.945 86.8455 110.967 86.8714 111.076 86.9609ZM118.803 77.4086C118.875 77.537 118.929 77.6764 118.948 77.812C118.906 77.739 118.854 77.6151 118.803 77.4086ZM119.153 77.6082C119.14 77.5081 119.139 77.4377 119.136 77.3657C119.271 77.3897 119.342 77.4477 119.153 77.6082ZM118.931 78.2416C118.978 78.1087 118.976 77.9604 118.948 77.812C118.988 77.8833 119.026 77.9193 119.052 77.9179C119.026 77.9835 118.979 78.0782 118.925 78.2367L118.931 78.2416ZM108.935 84.0562C108.935 84.0562 108.907 84.0025 108.879 83.9747C109.274 83.8931 109.186 83.9668 108.935 84.0562ZM101.803 103.126C101.803 103.126 101.835 103.119 101.846 103.115L101.862 103.166L101.8 103.129L101.803 103.126ZM100.94 103.668C102.005 103.776 101.965 103.523 101.864 103.163L103.93 104.481L100.94 103.668ZM104.525 107.76C103.653 106.592 105.085 106.319 105.798 106.131C105.508 105.698 103.935 105.685 104.502 104.97C105.25 103.944 106.214 105.872 106.661 105.253L105.532 104.252C106.699 103.697 106.005 102.68 106.022 101.835C106.162 101.695 106.31 101.661 106.457 101.673C106.099 100.621 108.116 100.447 107.861 99.664C107.567 99.7002 107.176 98.9878 106.89 98.7862L107.947 97.9908C107.494 98.3452 106.789 98.0267 106.067 97.8278C106.23 97.5053 106.664 97.5071 106.82 97.3062C106.531 97.3488 106.233 97.3817 105.966 97.0683L107.458 96.3954C107.557 96.5147 107.569 96.6683 107.571 96.7982C107.655 96.5058 108.296 96.0762 107.838 95.4115C107.552 95.3291 107.254 95.362 106.969 95.2796C107.644 95.9659 106.923 95.88 106.338 95.8319C106.701 95.0807 106.214 95.5537 105.828 94.9455C106.023 94.3867 107.033 94.5628 107.586 94.9693C107.507 94.2173 107.381 93.9297 108.287 93.592L107.289 93.293L107.767 92.8256L106.449 92.7948C106.14 91.3469 108.163 93.3137 107.998 91.794L107.156 91.4149C107.641 91.0731 109.114 91.5461 108.224 90.7103C108.889 90.4702 109.15 92.0556 109.687 91.0283C109.315 90.6364 109.136 90.072 109.066 89.6734C109.564 89.4945 109.976 90.4006 109.784 90.5717C110.729 89.0893 107.245 88.2083 108.845 87.2261C109.279 88.0176 110.606 87.5556 110.188 88.7538C110.865 88.4061 109.351 87.0507 110.478 86.8814L109.271 86.7721C109.325 86.5449 109.8 86.4852 109.975 86.4307L109.132 86.0897C110.842 86.0355 108.932 84.3844 110.983 84.844C109.385 84.4378 111.266 84.3366 110.792 83.764C109.526 83.871 110.201 85.5241 108.799 84.9503C108.481 84.464 109.248 84.536 108.941 84.0688C108.671 84.163 108.208 84.2709 107.902 84.2101C107.455 82.8909 109.254 83.125 109.81 82.7267L109.14 83.5805C110.539 84.1572 109.536 83.2408 110.71 83.4762C110.146 82.6168 111.369 82.747 111.071 82.123C111.037 82.2339 110.901 82.1794 110.871 82.2874C111.312 81.2204 109.195 79.8234 109.319 79.3685C109.302 78.8542 110.353 78.4128 110.82 78.9925C111.33 78.8281 109.864 80.2373 111.877 80.4882C110.066 78.8618 113.107 79.5877 112.253 77.555C111.293 77.7793 111.243 76.6336 110.483 76.8829C110.901 76.3231 111.218 76.4563 111.908 76.4577L111.346 75.9406C113.108 75.8226 112.693 76.3795 113.957 75.5072C113.291 75.6769 113.238 74.5341 112.658 74.6284C112.755 74.2588 113.083 74.0094 113.573 73.9491L113.461 73.945C114.32 72.8406 113.091 72.4932 114.288 71.6959L114.625 72.0108C116.28 71.0275 116.435 68.7721 117.584 67.4648L117.66 68.1784C117.538 67.9063 118.72 67.4457 118.331 66.648C118.253 66.73 118.006 66.7998 118.019 66.9183C117.599 66.6791 117.043 66.1547 117.101 65.7232L117.815 65.9231L117.372 65.5037C117.611 64.9279 118.234 66.1637 118.476 65.5926C116.756 64.2714 119.313 63.0036 117.886 61.64C119.407 61.9679 117.605 62.8257 119.013 63.0501C118.889 62.7718 118.671 62.5547 118.725 62.1243L119.477 62.6842C119.783 60.7164 119.397 59.6928 120.252 58.2445L120.051 58.2133C119.987 57.502 120.266 57.2815 121.07 57.4169C120.744 57.0982 120.37 57.3875 120.138 56.9999C122.639 57.1476 119.495 54.2628 121.202 54.4529C119.536 53.6529 118.553 51.5586 117.047 51.3997L117.42 51.1104C116.288 50.6622 116.83 52.3343 115.606 51.9552L116.163 53.8039C115.781 53.5473 115.085 53.431 115.038 53.1546C114.878 53.4514 114.696 53.6872 114.298 52.9714C115.69 57.4136 111.666 59.0672 111.823 62.7982C111.641 62.9439 111.31 62.6295 111.094 62.4216C111.894 63.513 110.321 62.6533 110.047 62.8771L111.204 64.4709C110.616 64.5586 110.269 64.0644 109.956 63.9283C109.003 65.2895 109.83 67.5282 108.434 68.305C108.81 68.9797 109.687 68.8387 109.654 69.4507C108.391 67.9418 108.296 70.5874 107.382 69.5743C108.825 70.9251 106.958 71.6276 109.358 72.5692C109.248 73.2618 108.169 72.5878 108.035 72.3013C107.833 73.072 107.615 73.663 106.651 73.8915C106.846 74.2278 106.364 74.9821 106.034 75.85C105.714 76.7262 105.525 77.7024 106.278 78.4577C105.313 77.4597 105.677 78.2039 105.028 78.3931L104.176 77.5184L103.918 78.5406C103.749 78.6917 103.773 78.7681 103.859 78.8071C103.848 78.9959 104.451 79.0512 104.548 79.592C104.36 80.2796 103.805 80.0532 103.157 80.166L103.047 79.994L102.79 80.4038C102.707 80.7513 104.204 79.7029 104.333 81.034C104.053 80.9198 102.504 80.9262 103.121 81.5599C103.265 80.9825 103.94 81.3815 104.16 81.7286L103.958 82.5344L102.775 81.6737C102.034 83.9282 102.194 86.7077 101.337 89.0755C102.47 89.542 100.882 90.8259 102.597 91.3327L102.467 91.1701C102.808 90.6466 103.72 91.9192 103.392 92.3199C103.016 91.5809 101.468 92.5085 101.586 91.1642L100.522 91.7774C98.859 91.3565 98.7322 92.0296 98.8488 92.9276C98.9835 93.8404 99.3554 94.9732 98.6482 95.4992C98.7976 95.4446 98.9766 95.4912 99.0831 95.5194C98.4011 95.9661 98.4185 96.7905 98.5408 97.5086C98.665 98.236 98.9058 98.8639 98.611 98.9123L99.4616 99.3806C97.8559 99.976 97.7034 100.072 97.9441 101.64C98.0872 101.676 98.38 101.618 98.5159 101.906C97.7872 101.979 97.0525 102.054 97.0598 103.07L97.346 103.133L96.9145 104.549C98.2773 105.047 97.7393 105.516 97.225 106.067C96.7032 106.614 96.2072 107.236 97.6615 107.978C96.8179 107.99 96.4005 108.994 95.9512 109.352C96.0677 109.396 96.1853 109.469 96.3024 109.588C94.7431 109.67 96.5067 111.399 96.2565 111.979C95.8601 112.285 95.4105 111.955 94.9611 111.618C96.0365 112.822 93.4062 113.517 93.866 113.983C93.9122 114.634 94.8946 114.533 95.4866 114.887C95.124 115.713 93.0137 113.985 93.9769 115.54C94.1125 115.436 94.2405 115.2 94.3906 115.348C94.5602 115.885 97.6633 117.641 97 117.921L96.5264 117.469C95.759 118.123 98.641 120.103 96.7761 119.727L95.9167 119.408C96.9394 121.143 95.6092 120.003 96.3812 121.589L100.178 123.075C100.178 123.075 100.155 123.004 100.143 122.964L99.9975 122.909C100.403 122.431 99.5037 121.587 100.941 122.007L101.038 122.294C101.439 121.651 101.371 121.536 101.61 120.791C101.772 120.772 102.117 120.532 101.885 120.291C102.992 120.83 103.104 118.899 103.16 118.542C102.768 119.029 102.409 118.514 102.027 118.125C103.06 118.25 103.249 118.071 102.788 117.271C104.184 117.907 105.678 118.563 106.137 117.68C105.872 117.717 105.665 117.881 105.419 117.644C105.177 117.407 105.574 117.353 105.7 117.33C105.458 117.093 105.122 117.279 104.686 116.935C106.247 116.98 105.218 115.912 106.054 115.251C105.529 115.326 105.359 114.945 104.925 114.603C106.505 115.315 104.058 112.685 105.929 114.041C105.426 111.67 107.6 109.501 106.547 108.16C106.05 107.696 107.156 107.653 107.298 107.354L106.601 107.065C108.169 106.803 107.313 106.613 108.948 106.202C107.972 106.232 107.666 105.873 107.174 105.134L108.849 105.116L107.835 104.468C108.357 104.377 108.304 103.975 108.245 103.573C108.178 103.726 108.119 103.595 107.932 103.493C109.463 104.045 109.736 102.697 110.512 102.832C109.185 101.835 111.182 102.16 109.91 101.29C110.146 101.281 110.356 101.22 110.546 101.142C111.128 101.593 111.813 101.982 111.597 101.546C111.617 101.526 111.63 101.512 111.648 101.493L110.854 100.976C111.151 100.779 111.349 100.522 111.433 100.332C111.477 100.456 111.6 100.633 111.751 100.826C111.672 100.641 111.549 100.453 111.46 100.277C111.472 100.238 111.489 100.201 111.485 100.168C111.453 100.172 111.432 100.186 111.424 100.213C111.291 99.9443 111.254 99.7113 111.629 99.5902C110.689 97.9721 114.169 98.1243 112.762 96.1693C112.885 96.4216 112.885 96.7011 112.569 96.632C112.956 95.7158 112.058 94.221 112.897 93.9188L113.669 94.3149C114.247 93.7775 114.686 93.3549 114.8 92.7589L115.698 93.1279C115.623 92.1563 117.596 91.0176 115.916 89.7035C116.688 89.8124 116.054 88.4705 116.423 88.103L115.772 87.6857C115.725 86.9755 116.074 86.6999 116.379 86.4185C115.308 84.5568 117.06 84.0119 117.248 82.8662L117.057 82.7715L117.849 81.8659C117.155 81.8979 118.337 81.8299 118.255 81.4214C118.685 81.2045 118.663 80.5554 118.333 79.9569L118.49 79.2323C117.813 79.829 117.517 78.7638 116.735 78.3945L117.487 78.2028C117.156 77.8624 116.788 78.236 116.704 77.8335C117.207 77.7068 117.41 76.7942 118.301 76.8465C118.489 76.9746 118.652 77.1591 118.772 77.3578C118.707 77.3765 118.724 77.3776 118.782 77.3737L118.817 77.4202C118.817 77.4202 118.806 77.3936 118.803 77.3705C118.887 77.3652 119.04 77.3566 119.15 77.3773C119.12 76.74 119.389 77.081 119.746 77.2474C118.671 76.0957 119.595 76.0754 118.269 74.9947C119.74 76.3244 118.654 73.5224 120.11 74.5686C118.97 73.5793 120.131 74.214 119.13 73.4764C119.314 74.2962 117.993 74.502 117.308 74.8202L116.692 73.9805C115.183 73.7496 116.919 75.3865 116.358 75.5095C116.742 75.4317 116.536 74.8136 116.226 74.6732L117.272 75.2579C117.513 76.1958 116.512 76.4557 115.833 76.7667C115.607 76.1122 115.023 77.1135 114.357 76.4294L114.588 76.0807C114.249 75.7413 113.823 75.992 113.452 76.0859C113.928 77.6759 112.597 79.6835 113.334 80.4943C113.129 80.1237 113.495 79.747 113.872 79.658L114.159 80.4371C114.325 79.9726 113.469 79.1893 114.017 78.6332C114.667 79.0398 115.746 78.9133 116.553 79.8508C117.262 81.665 114.464 80.2198 114.284 81.9618C114.033 82.0206 115.496 82.0927 114.893 82.8073C113.898 83.6097 112.113 83.7354 110.634 83.091C111.196 82.826 112.335 82.2863 111.294 81.6851C110.727 81.9544 110.237 82.6227 109.529 82.3636C110.638 83.3662 110.142 81.665 111.008 82.7285C110.884 83.0322 110.44 82.9961 110.185 83.0516C110.758 83.0623 110.971 83.7159 111.231 83.9342C110.94 84.9726 111.32 85.8095 111.097 86.9653C111.261 87.0995 111.619 87.3927 111.935 87.5C111.428 87.8922 109.338 87.8426 108.625 87.2976C108.382 87.9082 108.962 88.1989 108.453 88.5849C107.602 87.2367 108.588 88.8333 107.365 88.3962C107.054 88.8804 107.883 88.8463 108.082 89.2164C107.923 89.2506 107.46 89.2898 107.137 89.1637C107.939 89.9069 109.698 89.5657 110.635 90.4351C111.221 91.0103 112.037 92.7274 112.097 92.8503C111.004 92.6583 106.879 90.7082 105.662 89.717C104.954 89.4472 106.238 90.5634 106.24 90.8415C107.138 92.0384 105.023 91.4939 105.284 92.2712L106.052 92.1156C106.31 92.3399 105.667 93.0213 105.223 92.9654C105.607 93.1672 107.379 93.4484 107.758 93.9233C107.64 95.0598 105.146 95.0378 103.995 94.4311L105.733 93.4166C104.774 92.9153 104.394 94.0885 103.234 93.4798L103.091 95.0806C103.188 94.9142 103.656 94.4874 104.116 94.9537C103.858 95.5497 104.178 95.3533 104.493 95.9828C105.968 95.8495 109.601 96.007 111.26 96.2214L110.361 96.6803L110.869 97.1343C109.761 97.763 105.639 96.8703 104.548 96.6584C104.605 97.3311 106.753 98.1099 107.207 98.1665C106.931 99.3173 103.899 97.8787 103.803 99.1205L103.499 98.4915C103.213 98.6627 103.295 99.8044 102.945 99.5177C103.422 99.9958 104.649 100.818 105.091 100.744L102.787 100.791C103.042 100.746 104.676 101.636 104.999 101.717C104.922 102.142 102.838 101.463 102.655 101.088C103.585 102.429 102.996 101.921 104.182 103.223C103.983 103.394 102.426 102.352 102.303 102.099C101.675 102.395 101.779 102.796 101.869 103.121C102.89 102.624 105.681 104.689 107.006 105.143L101.375 104.55C101.694 104.634 103.334 105.265 103.522 105.367C101.994 104.803 101.031 106.776 100.849 107.878L100.919 107.733C101.504 107.776 101.575 108.847 100.915 108.945C101.23 109.031 101.175 108.904 101.249 108.762C102.09 109.981 98.6826 108.525 99.7167 109.859C99.8204 109.172 100.457 109.339 101.025 109.666C100.295 109.909 100.414 111.376 98.781 110.262C99.0147 110.768 98.6826 110.95 99.5637 111.364L98.0417 112.087C98.2559 112.085 98.7959 112.263 98.7681 112.682C98.8254 111.877 100.697 112.008 99.7126 111.068C100.788 111.587 101.253 112.139 102.289 112.255C101.253 113.36 99.1217 113.169 97.5469 113.377L97.8317 114.948L97.3218 114.746L98.4618 115.58C98.1206 115.582 97.8409 115.551 97.9433 115.64C98.0425 115.721 98.2167 115.769 98.4223 115.806C98.3106 115.897 98.1551 115.954 98.003 115.947C98.6253 116.326 99.4455 116.498 100.21 116.619C100.022 116.396 99.8374 116.162 99.6642 115.944C100.375 116.026 101.075 116.184 101.348 116.717C101.247 116.721 101.132 116.728 101.016 116.748C101.536 116.838 101.951 116.939 102.088 117.139L101.129 117.744C101.008 117.557 100.725 117.223 100.401 116.837C99.3653 116.994 98.1256 117.13 97.5105 116.203L97.9388 117.262C96.3861 117.431 96.69 117.418 95.3755 117.924C95.7752 118.2 96.247 118.125 96.4823 118.464C94.809 118.45 97.334 121.035 96.0627 120.559C95.934 120.656 95.8025 120.692 95.6666 120.683L101.203 122.847C101.589 122.74 102.106 123.022 102.399 122.783C102.253 122.766 101.97 122.729 101.956 122.605L102.91 122.368C102.594 122.083 102.242 122.641 101.877 121.989C102.628 121.239 103.136 120.827 102.745 119.926C103.031 118.885 104.549 120.918 104.423 119.935C103.677 119.584 102.792 119.208 102.718 118.59C103.272 118.436 103.848 118.649 104.236 118.234L103.077 117.923C103.179 117.458 103.434 117.141 102.565 116.873C103.098 116.628 103.042 116.335 102.879 116.068C103.569 115.533 105.157 117.326 105.589 117.624C104.801 116.655 105.36 116.323 104.015 115.481L103.64 116.015C102.369 114.215 105.396 115.261 103.043 113.852C103.072 114.342 102.405 114.706 101.805 114.228L102.471 113.745C102.175 113.564 102.211 114.063 101.901 113.637C102.182 113.526 102.83 113.331 103.237 113.285L103.166 113.27L103.539 112.134C103.553 112.38 103.121 112.293 103.107 112.047L103.832 111.464C103.507 111.608 103.191 111.245 103.058 110.825C102.866 109.689 105.75 110.912 104.712 109.721C104.713 109.842 104.565 109.811 104.574 109.931L104.135 109.351C106.576 110.129 104.827 107.092 107.27 107.897C106.4 106.977 106.691 107.639 105.411 107.95L104.83 107.089C104.688 107.302 104.836 107.574 104.552 107.751L104.525 107.76ZM103.155 115.453C103.648 115.745 103.051 115.925 102.852 116.051C102.599 115.655 102.139 115.347 103.155 115.453ZM99.2603 115.385C99.0321 115.008 98.9734 114.752 99.2994 114.773C99.4358 115.08 99.3892 115.265 99.2603 115.385ZM117.629 80.2831C117.629 80.2831 117.659 80.282 117.676 80.2831C117.761 80.62 117.857 80.8186 117.629 80.2831ZM117.603 79.8003C117.595 79.5661 117.666 79.3904 117.89 79.4231C117.787 79.3386 117.669 79.2852 117.522 79.3185C117.268 79.4826 117.391 79.6523 117.599 79.8046L117.603 79.8003ZM104.358 79.1415L104.198 78.8823C104.474 78.9061 104.727 78.913 104.358 79.1415ZM97.5627 115.646C97.6825 115.762 97.8346 115.856 97.986 115.946C97.8242 115.942 97.6626 115.858 97.5627 115.646ZM106.457 101.703C106.457 101.703 106.456 101.685 106.45 101.673C106.505 101.679 106.556 101.69 106.61 101.709L106.453 101.708L106.457 101.703ZM106.775 88.6518C106.846 88.8686 106.974 89.0295 107.116 89.1593C106.906 89.0741 106.756 88.9255 106.775 88.6518ZM120.083 75.5643L119.728 75.9999C119.837 75.7655 119.672 75.5945 119.569 75.4154C119.766 75.5074 120.029 75.7228 120.083 75.5643ZM115.888 68.8808C116.01 68.8473 115.938 68.7266 116.068 68.6922L116.458 68.8683C116.357 69.1826 115.981 69.2854 115.894 68.8857L115.888 68.8808ZM117.368 73.929C116.664 73.5983 116.982 73.3666 117.206 73.0495C117.198 73.0688 117.185 73.0894 117.191 73.1142C118.222 73.4077 117.796 73.6661 117.368 73.9214L117.368 73.929ZM117.249 72.9774C117.31 72.8759 117.358 72.769 117.346 72.6414C117.759 72.7564 117.395 72.8126 117.249 72.9774ZM118.27 78.4774C118.127 78.2269 119.212 78.7438 118.949 78.5284C119.912 78.7091 117.549 79.2332 118.27 78.4774ZM115.074 72.681L115.928 73.1725L115.159 73.0867L115.07 72.6777L115.074 72.681ZM114.998 75.8289L114.899 75.1428C115.046 75.2118 115.154 75.1744 115.239 75.1111C115.177 75.4828 115.255 75.9522 114.998 75.8289ZM115.239 75.1111C115.272 74.9177 115.333 74.7444 115.505 74.7035C115.473 74.8022 115.384 75.0088 115.239 75.1111ZM114.604 73.3704L114.747 73.6209L114.712 74.0585L114.608 73.3737L114.604 73.3704ZM113.504 82.1442L113.078 82.6668C112.759 82.6006 112.625 82.3522 112.807 82.1683C113.064 82.1069 113.241 81.9211 113.508 82.1398L113.504 82.1442ZM111.603 79.2106C111.744 79.4563 111.936 79.5526 112.204 79.7713L111.101 79.3297L111.603 79.2106ZM110.852 80.939C110.533 80.8728 109.727 81.4765 110.022 80.7133C110.339 80.7779 110.761 80.2519 110.852 80.939ZM109.459 90.9496L109.522 90.8008L111.3 91.6232L109.459 90.9496ZM102.521 97.1551C102.344 96.238 103.674 97.4992 103.367 96.5967C103.847 96.6228 103.619 97.3338 104.04 97.3302C103.449 97.5612 103.624 97.9069 102.527 97.1601L102.521 97.1551ZM104.034 97.3252C104.131 97.2917 104.237 97.2526 104.377 97.2264C104.224 97.3037 104.121 97.3215 104.034 97.3252ZM115.084 50.6433L114.924 50.0023L115.376 50.6055L115.084 50.6433ZM116.755 50.4783L115.702 49.7801L116.822 50.0457C116.726 50.119 116.543 50.2661 116.755 50.4783ZM105.044 118.139L104.758 118.095C104.466 117.929 104.451 117.805 104.434 117.562L105.05 118.144L105.044 118.139ZM105.027 111.25L105.037 111.372L104.016 110.795L105.027 111.25ZM107.359 106.27C107.362 106.509 107.075 106.677 107.076 106.918C107.356 106.504 106.061 105.715 107.359 106.27Z" fill="#F84E72"/>
</svg>
