<?xml version="1.0" encoding="UTF-8"?>
<svg version="1.1" xmlns="http://www.w3.org/2000/svg" width="942" height="432">
<path d="M0 0 C4.74148071 4.33795044 5.4483885 9.84279803 6.6875 15.875 C7.00557617 17.32712891 7.00557617 17.32712891 7.33007812 18.80859375 C9.28841627 27.88984633 10.20399964 36.52617802 10.25 45.8125 C10.270625 46.84181641 10.29125 47.87113281 10.3125 48.93164062 C10.36850893 60.00040623 7.83938989 69.62620166 0.25 77.91015625 C-7.41561804 85.18940241 -17.780989 88.74882479 -28.30078125 89.0703125 C-31.87404551 88.84820832 -33.64524925 88.37561844 -36.125 85.75 C-37 83 -37 83 -36.6875 80.3125 C-34.17163379 76.86483149 -30.9885915 76.71090038 -27 76 C-18.7679305 74.48821244 -12.28482521 72.86010965 -7 66 C-1.43266979 56.9530884 -2.61960436 46.1967164 -3 36 C-3.42410156 36.845625 -3.84820312 37.69125 -4.28515625 38.5625 C-9.13963361 47.9513793 -13.52511574 56.42447031 -23.859375 60.37890625 C-26.75330196 61.21856754 -29.01778637 61.48547664 -32 61 C-34.375 59.5 -34.375 59.5 -36 58 C-38.91863261 59.32260476 -41.00166387 60.79395119 -43.3125 63 C-48.19512316 67.25930957 -53.47018673 68.53917592 -59.95703125 68.30078125 C-64.74434196 67.5959573 -68.35383805 65.72581495 -71.6953125 62.22265625 C-75.84757005 56.6202384 -77.54176337 50.54392186 -79.23828125 43.84375 C-79.71403108 41.11927746 -79.71403108 41.11927746 -81 40 C-81.2630896 40.98057373 -81.2630896 40.98057373 -81.53149414 41.98095703 C-90.49162731 74.99441821 -90.49162731 74.99441821 -98 80 C-102.52762754 80 -104.43486159 79.51490388 -107.8125 76.4375 C-112.05605017 70.60466989 -112.33772136 63.45768919 -112.25 56.5 C-112.24468262 55.72897949 -112.23936523 54.95795898 -112.23388672 54.16357422 C-111.89180394 32.96743272 -111.89180394 32.96743272 -108 27 C-105.13879744 25.56939872 -103.15989415 25.61307419 -100 26 C-97.85404501 28.69959178 -97.01644139 30.37090068 -96.92578125 33.83984375 C-97.05339844 34.86207031 -97.18101562 35.88429687 -97.3125 36.9375 C-98.05422782 43.9839143 -98.07510014 50.92241712 -98 58 C-97.78384033 57.25427734 -97.56768066 56.50855469 -97.3449707 55.74023438 C-96.34669089 52.32301518 -95.32977367 48.91161081 -94.3125 45.5 C-93.80299805 43.74042969 -93.80299805 43.74042969 -93.28320312 41.9453125 C-89.13121235 28.13121235 -89.13121235 28.13121235 -84 23 C-79.45583985 22.34278676 -76.06260474 22.29159684 -72.1875 24.875 C-67.48742053 31.58939924 -65.41509299 39.56806658 -63.02734375 47.3359375 C-62.00658274 49.98292993 -60.81138494 51.83454832 -59 54 C-52.15404891 53.44114685 -47.46557578 51.74196594 -42.8046875 46.55859375 C-38.6515447 41.27213571 -35.44535866 36.13346117 -32.5625 30.0625 C-27.09095147 18.62658447 -14.76354778 -2.15301739 0 0 Z M-9.00390625 14.94921875 C-21.23904533 27.855684 -21.23904533 27.855684 -26.0625 44.1875 C-26.041875 45.445625 -26.02125 46.70375 -26 48 C-16.42797287 43.62304742 -11.77084697 32.2978178 -8 23 C-7.02732973 19.67139477 -6.33179163 16.45063291 -6 13 C-7.34645478 12.88379034 -7.34645478 12.88379034 -9.00390625 14.94921875 Z " fill="#808080" transform="translate(509,185)"/>
<path d="M0 0 C2.4375 0.75 2.4375 0.75 4.4375 2.75 C4.74047852 5.49975586 4.74047852 5.49975586 4.81640625 8.96484375 C4.85056641 10.20814453 4.88472656 11.45144531 4.91992188 12.73242188 C4.95956055 14.69018555 4.95956055 14.69018555 5 16.6875 C5.05986644 19.25920921 5.12348964 21.83083454 5.19140625 24.40234375 C5.21533447 25.54695068 5.2392627 26.69155762 5.26391602 27.87084961 C5.31719794 30.82003075 5.31719794 30.82003075 6.4375 33.75 C6.6233667 33.160979 6.8092334 32.57195801 7.00073242 31.96508789 C7.86555685 29.24428894 8.7451744 26.52848337 9.625 23.8125 C9.91697266 22.88630859 10.20894531 21.96011719 10.50976562 21.00585938 C15.80123982 4.79005135 15.80123982 4.79005135 22.4375 0.75 C26.31476431 0.98738353 28.17826883 1.57717922 31.4375 3.75 C33.72110873 11.47521911 34.41519946 19.5880094 35.35229492 27.57080078 C35.62534865 29.8779459 35.91294902 32.18298816 36.20117188 34.48828125 C36.37849361 35.97385244 36.55495559 37.45952655 36.73046875 38.9453125 C36.81685104 39.62465851 36.90323334 40.30400452 36.99223328 41.00393677 C37.49405888 45.43729528 37.45298919 49.39596725 36.4375 53.75 C33.20958445 55.9019437 32.15349191 55.95086443 28.4375 55.75 C24.32420509 45.42682782 22.07242406 35.88481616 22.4375 24.75 C21.7775 24.75 21.1175 24.75 20.4375 24.75 C20.33953125 25.69101563 20.2415625 26.63203125 20.140625 27.6015625 C19.41825897 32.62528988 17.7983157 37.32682559 16.1875 42.125 C15.90003906 43.01960938 15.61257813 43.91421875 15.31640625 44.8359375 C10.80867034 58.37882966 10.80867034 58.37882966 6.4375 62.75 C0.16929524 63.33038933 0.16929524 63.33038933 -2.375 61.3125 C-5.59824663 54.35707307 -5.92154175 46.73960618 -6.1875 39.1875 C-6.24550781 37.81754883 -6.24550781 37.81754883 -6.3046875 36.41992188 C-6.39780252 34.19680076 -6.48362166 31.97366387 -6.5625 29.75 C-6.94776855 30.28181885 -7.33303711 30.8136377 -7.72998047 31.36157227 C-10.48780779 35.11350013 -13.13976118 38.63529555 -16.6875 41.6875 C-17.32945312 42.25339844 -17.97140625 42.81929687 -18.6328125 43.40234375 C-20.63603385 44.80135461 -22.17361952 45.33061876 -24.5625 45.75 C-24.624375 46.69875 -24.68625 47.6475 -24.75 48.625 C-25.85234544 56.27931409 -30.23973192 63.29075068 -35.5625 68.75 C-40.01174404 71.49307207 -44.48683592 71.28558144 -49.5625 70.75 C-53.30330326 69.15816883 -55.55673363 67.28396932 -57.5625 63.75 C-59.83789675 57.49265892 -59.47468826 52.37189617 -58.65625 45.80078125 C-58.55460379 42.49304408 -59.2512429 40.74160879 -60.5625 37.75 C-61.51311723 30.97408879 -60.6105903 25.31911831 -56.5625 19.75 C-52.18829108 14.75252297 -47.09717089 11.93300076 -40.5625 10.75 C-36.06450421 10.47913529 -33.05705734 11.42340553 -29.25 13.9375 C-24.45930561 18.95101739 -23.03956033 24.16003851 -21.5625 30.75 C-15.09627019 23.12316484 -10.72605225 14.19099543 -7.04296875 4.94140625 C-5.33737344 1.2647008 -4.23723575 -0.41338885 0 0 Z M-46.5625 26.75 C-48.97185753 29.703406 -49.5765477 31.04761516 -49.5 34.875 C-48.3982707 38.2536365 -47.69761849 39.14007429 -44.5625 40.75 C-40.94074817 41.63695963 -39.12685101 41.938117 -35.5625 40.75 C-35.48099256 38.68816367 -35.4230806 36.62538651 -35.375 34.5625 C-35.34019531 33.41394531 -35.30539062 32.26539063 -35.26953125 31.08203125 C-35.58813683 27.45842376 -36.34302668 25.60360856 -38.5625 22.75 C-41.94696425 22.75 -43.93162107 24.76341795 -46.5625 26.75 Z M-48.5625 49.75 C-48.38120185 53.18793339 -48.38120185 53.18793339 -47.5625 56.75 C-45.62652968 58.26294288 -45.62652968 58.26294288 -43.5625 58.75 C-39.78215377 55.27263974 -39.78215377 55.27263974 -37.5625 50.75 C-41.1925 50.42 -44.8225 50.09 -48.5625 49.75 Z " fill="#808080" transform="translate(747.5625,124.25)"/>
<path d="M0 0 C3.20250317 0.86734461 4.0275947 1.25385201 6 3.8125 C11.09461254 19.66240568 14.83562878 43.38253325 12 59.8125 C8.53076119 62.12532587 7.07794425 62.23728586 3 61.8125 C0.06083209 59.59414283 -0.52278511 57.58159285 -1.1328125 54.0234375 C-1.38224609 52.60998047 -1.38224609 52.60998047 -1.63671875 51.16796875 C-1.79785156 50.18441406 -1.95898438 49.20085937 -2.125 48.1875 C-2.37830078 46.74697266 -2.37830078 46.74697266 -2.63671875 45.27734375 C-3.63743739 39.47002379 -4.40769593 33.67510154 -5 27.8125 C-7.23995122 30.05245122 -7.96628501 31.80599936 -9.171875 34.72265625 C-9.79835938 36.20862305 -9.79835938 36.20862305 -10.4375 37.72460938 C-11.30048341 39.79602641 -12.15996303 41.86890728 -13.015625 43.94335938 C-16.10036312 51.23669599 -19.35715079 58.71607817 -25.5 63.9375 C-28.82620523 65.10167183 -30.64320733 64.86149771 -34 63.8125 C-38.48615274 61.05963354 -39.65127492 58.80504955 -41 53.8125 C-41.49268665 50.69716672 -41.81931568 47.57604945 -42.125 44.4375 C-42.28062222 42.89887868 -42.43674177 41.3603076 -42.59326172 39.82177734 C-42.72884115 38.48535156 -42.86442057 37.14892578 -43 35.8125 C-43.51385254 37.33387573 -43.51385254 37.33387573 -44.03808594 38.88598633 C-45.3144379 42.65332792 -46.6081831 46.41450103 -47.90722656 50.17407227 C-48.46666906 51.80102571 -49.0214024 53.42960647 -49.57128906 55.05981445 C-50.36326665 57.40501163 -51.17208537 59.74380381 -51.984375 62.08203125 C-52.22621521 62.81025589 -52.46805542 63.53848053 -52.71722412 64.28877258 C-54.10879088 68.23519541 -55.18853217 70.8633084 -59 72.8125 C-65.12911163 73.45766965 -65.12911163 73.45766965 -67.6418457 71.59619141 C-72.46918652 65.25634744 -71.33621157 54.01571744 -71.3125 46.4375 C-71.32861328 45.38433594 -71.34472656 44.33117187 -71.36132812 43.24609375 C-71.36758472 33.37318018 -71.36758472 33.37318018 -68 29.8125 C-64.4375 29.375 -64.4375 29.375 -61 29.8125 C-58.22957891 32.58292109 -58.60203894 34.57783805 -58.375 38.4375 C-58.30023438 39.62601562 -58.22546875 40.81453125 -58.1484375 42.0390625 C-58.09945313 42.95429688 -58.05046875 43.86953125 -58 44.8125 C-57.71334473 43.99628174 -57.71334473 43.99628174 -57.42089844 43.16357422 C-56.53913844 40.66843748 -55.64469106 38.17802776 -54.75 35.6875 C-54.29947266 34.40359375 -54.29947266 34.40359375 -53.83984375 33.09375 C-51.60851293 26.9219839 -49.63914558 21.57193039 -44 17.8125 C-39.94457523 17.74601763 -37.38434451 17.70443026 -34.1796875 20.26953125 C-29.00618582 26.00537007 -28.84269456 31.69200478 -28.4375 39.125 C-28.39431641 39.86556641 -28.35113281 40.60613281 -28.30664062 41.36914062 C-28.20129568 43.18341464 -28.10021684 44.9979355 -28 46.8125 C-27.5467334 45.80461426 -27.0934668 44.79672852 -26.62646484 43.75830078 C-24.92175018 39.97210584 -23.20886376 36.18965297 -21.49365234 32.40820312 C-20.75643807 30.77996034 -20.02135928 29.15074874 -19.28857422 27.52050781 C-6.72380935 -0.42023808 -6.72380935 -0.42023808 0 0 Z " fill="#808080" transform="translate(344,220.1875)"/>
<path d="M0 0 C1.9375 1.125 1.9375 1.125 3 3 C3.70997747 6.99362328 3.24217571 8.61720613 1.0625 12.0625 C-1.11798842 14.44511234 -3.31669859 15.79932907 -6.1875 17.25 C-15.39774955 22.03194927 -22.70772592 30.52963819 -26.87109375 39.9765625 C-27.22947276 42.17388393 -27.22947276 42.17388393 -25.40625 44.15234375 C-22.70932284 46.22319853 -20.80977167 46.85516976 -17.5 47.5625 C-16.44941406 47.80097656 -15.39882813 48.03945312 -14.31640625 48.28515625 C-13.22199219 48.52105469 -12.12757813 48.75695312 -11 49 C-8.80981992 49.48812648 -6.6221481 49.98768277 -4.4375 50.5 C-3.46683594 50.7165625 -2.49617187 50.933125 -1.49609375 51.15625 C1.17122986 52.05788052 2.36001984 52.72884327 4 55 C4.52066718 59.53724255 4.54260626 61.91478747 2.5 66 C-4.7242058 74.66904696 -14.7635833 84.97044791 -26.5 86.4375 C-30 86 -30 86 -32.5 83.8125 C-34 81 -34 81 -34.25 78.5 C-32.25685178 74.51370357 -28.81125348 73.10490797 -25 71 C-23.26666449 69.98626135 -21.53753914 68.96529278 -19.8125 67.9375 C-19.01457031 67.47214844 -18.21664062 67.00679688 -17.39453125 66.52734375 C-14.77077034 64.85378663 -12.39794942 62.98054437 -10 61 C-11.12277344 60.82984375 -12.24554687 60.6596875 -13.40234375 60.484375 C-32.55397063 57.44602937 -32.55397063 57.44602937 -38.5625 51.4375 C-41.0541241 45.47926846 -41.02823287 40.23158903 -39.0703125 34.078125 C-33.2737795 21.11309852 -15.30141212 -1.07378331 0 0 Z " fill="#808080" transform="translate(620,138)"/>
<path d="M0 0 C2.29203347 1.99628721 2.86775104 3.31277772 3.4375 6.2734375 C2.78035621 10.3688515 0.01825639 12.28938024 -2.9375 14.9375 C-13.13164966 24.58140518 -21.93554851 36.18820486 -22.375 50.625 C-22.23607369 56.61967034 -21.33110899 60.66889101 -17 65 C-11.191241 65.67024142 -8.57777487 64.4791089 -4 61 C-2.49231833 59.87794206 -0.97058269 58.774595 0.5625 57.6875 C1.28566406 57.15511719 2.00882813 56.62273437 2.75390625 56.07421875 C5.60365415 54.71129584 7.03889558 55.05345893 10 56 C11 57 11 57 11.3125 60.1875 C10.82527475 66.131648 7.91497871 69.32556794 3.625 73.1875 C-2.10998988 77.82895367 -7.580772 80.17196886 -15 80 C-22.02642028 78.87672873 -27.41977596 75.38849888 -32 70 C-37.17347028 61.26789988 -38.08166742 52.33454418 -36 42.5 C-31.66684344 26.40832471 -22.1677147 11.2172724 -9 1 C-5.9167365 -0.54163175 -3.39121901 -0.29747535 0 0 Z " fill="#808080" transform="translate(200,241)"/>
<path d="M0 0 C6.10114584 5.81061509 8.94669688 12.11046144 9.625 20.5 C9.92060163 34.01073317 6.206845 45.71930567 -3.09375 55.609375 C-6.50724391 58.43836653 -9.37341674 59.38871297 -13.75 59.875 C-18.0452033 59.43066862 -21.15066949 58.34029115 -24.375 55.5 C-28.27172568 50.28474479 -28.92782156 44.82092769 -29.375 38.5 C-29.86569134 35.67852478 -30.46798188 33.22105435 -31.375 30.5 C-32.46528853 20.90822113 -31.0135 13.42951158 -25.375 5.5 C-18.38155576 -1.40125194 -9.30161756 -4.13405225 0 0 Z M-12.375 11.9375 C-16.04552197 15.07273752 -17.90872404 17.90454692 -19.375 22.5 C-19.58351653 25.99109318 -19.18209602 29.2955159 -18.6875 32.75 C-18.58244141 33.63429688 -18.47738281 34.51859375 -18.36914062 35.4296875 C-17.90574862 39.19368149 -17.35138081 42.83193258 -16.375 46.5 C-12.58114979 46.28320856 -11.4313797 45.5563797 -8.6875 42.8125 C-3.37629224 36.39406978 -3.42008117 27.43428651 -3.375 19.5 C-3.78769114 16.63200498 -4.43889758 14.2532424 -5.375 11.5 C-8.60324096 10.44943021 -9.12086174 10.37822541 -12.375 11.9375 Z " fill="#808080" transform="translate(251.375,249.5)"/>
<path d="M0 0 C5.56247789 4.2274832 7.52851999 8.70253228 9.125 15.375 C9.41248385 18.15242665 9.45926388 20.89667656 9.4375 23.6875 C9.43012817 24.80898437 9.43012817 24.80898437 9.42260742 25.953125 C9.29849579 31.82901515 8.51152547 36.95720225 6.125 42.375 C5.7846875 43.15230469 5.444375 43.92960937 5.09375 44.73046875 C2.23265282 50.50099246 -1.60542621 54.67086445 -6.875 58.375 C-11.50885819 59.9196194 -15.34441774 59.86478632 -20 58.375 C-24.26807099 55.40590714 -26.9079053 51.35294406 -28.515625 46.40234375 C-29.04044492 43.44167486 -28.84296084 40.58656527 -28.71484375 37.59375 C-28.72761563 35.35309547 -28.72761563 35.35309547 -29.85546875 33.51171875 C-32.43653599 28.10235562 -31.6641618 20.33115744 -30.15234375 14.66796875 C-27.22651982 7.71469487 -23.13087588 2.21985558 -16.1171875 -0.9296875 C-10.66082344 -2.62173071 -5.14012525 -2.61959274 0 0 Z M-16.6875 16.0625 C-18.51856747 19.62826297 -18.84565208 23.39101981 -18.875 27.375 C-18.545 28.365 -18.215 29.355 -17.875 30.375 C-17.56694214 33.6951792 -17.36610596 37.0160341 -17.15625 40.34375 C-16.98675504 43.4184509 -16.98675504 43.4184509 -15.875 46.375 C-12.57797393 46.10024783 -11.15558785 45.64733527 -8.75 43.3125 C-3.20416876 34.62403105 -2.30728002 25.38833948 -3.42578125 15.28515625 C-3.83115712 13.06215096 -3.83115712 13.06215096 -5.875 10.375 C-10.51203784 10.375 -13.374077 12.97758893 -16.6875 16.0625 Z " fill="#808080" transform="translate(666.875,149.625)"/>
<path d="M0 0 C4.95 20.79 9.9 41.58 15 63 C11.81237635 65.12508244 9.73487777 65.5020163 6 66 C2.83261165 54.34281171 -0.15348286 42.64267275 -3.05639648 30.91699219 C-3.56517857 28.87003552 -4.07827937 26.82414798 -4.59545898 24.77929688 C-5.35104438 21.79016783 -6.09297866 18.79794113 -6.83203125 15.8046875 C-7.18186821 14.43750076 -7.18186821 14.43750076 -7.53877258 13.04269409 C-9.43358546 5.25724764 -9.43358546 5.25724764 -8 1 C-5.10765685 0.17361624 -3.11257569 0 0 0 Z " fill="#808080" transform="translate(904,56)"/>
<path d="M0 0 C1.6557657 6.59747165 3.3095982 13.19542583 4.9621582 19.79370117 C5.52324829 22.03306761 6.08476269 24.27232778 6.64672852 26.51147461 C15 59.79833333 15 59.79833333 15 64 C10.545 64.495 10.545 64.495 6 65 C3.37853097 54.57103619 0.76871627 44.13922596 -1.828125 33.70410156 C-2.55960223 30.76521579 -3.2936323 27.82699883 -4.03125 24.88964844 C-4.90382746 21.40751902 -5.76617106 17.92304121 -6.625 14.4375 C-7.01389404 12.89848022 -7.01389404 12.89848022 -7.41064453 11.32836914 C-7.63864746 10.39371826 -7.86665039 9.45906738 -8.1015625 8.49609375 C-8.30088379 7.69357178 -8.50020508 6.8910498 -8.70556641 6.06420898 C-9 4 -9 4 -8 1 C-5.17884816 -0.07009208 -3.09455459 0 0 0 Z " fill="#808080" transform="translate(32,310)"/>
<path d="M0 0 C2.875 -0.125 2.875 -0.125 6 0 C12.72036409 6.72036409 10.14354934 25.95516865 10.25 34.875 C10.2713501 35.83196777 10.2927002 36.78893555 10.31469727 37.77490234 C10.31912842 38.67160645 10.32355957 39.56831055 10.328125 40.4921875 C10.34214355 41.68884033 10.34214355 41.68884033 10.35644531 42.90966797 C9.90509215 45.55657602 9.16444859 46.44231891 7 48 C3.5 48.0625 3.5 48.0625 0 47 C-3.6022186 41.81549846 -3.58216675 36.52922542 -3.75 30.4375 C-3.78383789 29.46039063 -3.81767578 28.48328125 -3.85253906 27.4765625 C-4.44904441 6.77028497 -4.44904441 6.77028497 0 0 Z " fill="#808080" transform="translate(373,226)"/>
<path d="M0 0 C0.66 2.97 1.32 5.94 2 9 C-3.76434516 10.4300566 -9.53014043 11.85405411 -15.29736328 13.27246094 C-17.25903692 13.75582355 -19.22030421 14.24083846 -21.18115234 14.72753906 C-23.99992315 15.42687967 -26.82010258 16.12026248 -29.640625 16.8125 C-30.95489471 17.14060669 -30.95489471 17.14060669 -32.29571533 17.4753418 C-33.11626404 17.67554932 -33.93681274 17.87575684 -34.78222656 18.08203125 C-35.50170471 18.25968018 -36.22118286 18.4373291 -36.96246338 18.62036133 C-39 19 -39 19 -43 19 C-43.66 16.03 -44.32 13.06 -45 10 C-39.07451517 8.57153151 -33.14799281 7.14748117 -27.22045898 5.72753906 C-25.20356481 5.24373124 -23.18696103 4.75871117 -21.1706543 4.27246094 C-18.27467891 3.57429221 -15.37769181 2.88047039 -12.48046875 2.1875 C-11.57725388 1.96876221 -10.674039 1.75002441 -9.74345398 1.5246582 C-8.90280899 1.32445068 -8.062164 1.12424316 -7.19604492 0.91796875 C-6.45658127 0.74031982 -5.71711761 0.5626709 -4.95524597 0.37963867 C-3 0 -3 0 0 0 Z " fill="#808080" transform="translate(85,193)"/>
<path d="M0 0 C0.66 2.97 1.32 5.94 2 9 C-3.74417745 10.45593259 -9.49159262 11.89799886 -15.24243164 13.32739258 C-17.19780809 13.81546673 -19.1522504 14.30729946 -21.10571289 14.80297852 C-23.91575065 15.51531201 -26.72888399 16.21400677 -29.54296875 16.91015625 C-30.84949654 17.24600487 -30.84949654 17.24600487 -32.18241882 17.58863831 C-36.43003757 18.62551077 -39.71175335 19.41661863 -44 18 C-44.33 15.36 -44.66 12.72 -45 10 C-39.07451517 8.57153151 -33.14799281 7.14748117 -27.22045898 5.72753906 C-25.20356481 5.24373124 -23.18696103 4.75871117 -21.1706543 4.27246094 C-18.27467891 3.57429221 -15.37769181 2.88047039 -12.48046875 2.1875 C-11.57725388 1.96876221 -10.674039 1.75002441 -9.74345398 1.5246582 C-8.90280899 1.32445068 -8.062164 1.12424316 -7.19604492 0.91796875 C-6.45658127 0.74031982 -5.71711761 0.5626709 -4.95524597 0.37963867 C-3 0 -3 0 0 0 Z " fill="#808080" transform="translate(526,87)"/>
<path d="M0 0 C0.66 2.64 1.32 5.28 2 8 C-5.8855127 10.86335341 -13.9358216 12.75295765 -22.09545898 14.64428711 C-24.45741169 15.19211832 -26.81764297 15.74694493 -29.17773438 16.30273438 C-30.67959239 16.65405268 -32.18154224 17.00497867 -33.68359375 17.35546875 C-34.38874619 17.52104782 -35.09389862 17.68662689 -35.82041931 17.85722351 C-40.76798953 19 -40.76798953 19 -43 19 C-43.66 16.03 -44.32 13.06 -45 10 C-39.23565484 8.5699434 -33.46985957 7.14594589 -27.70263672 5.72753906 C-25.74096308 5.24417645 -23.77969579 4.75916154 -21.81884766 4.27246094 C-19.00007685 3.57312033 -16.17989742 2.87973752 -13.359375 2.1875 C-12.48319519 1.96876221 -11.60701538 1.75002441 -10.70428467 1.5246582 C-9.88373596 1.32445068 -9.06318726 1.12424316 -8.21777344 0.91796875 C-7.49829529 0.74031982 -6.77881714 0.5626709 -6.03753662 0.37963867 C-4 0 -4 0 0 0 Z " fill="#808080" transform="translate(673,52)"/>
<path d="M0 0 C2.12508244 3.18762365 2.5020163 5.26512223 3 9 C-11.86516947 13.19875839 -26.9511165 16.53605515 -42 20 C-42.66 17.03 -43.32 14.06 -44 11 C-34.11024857 8.06527555 -24.17921016 5.54831542 -14.125 3.25 C-12.74341284 2.93132212 -11.36190202 2.61231306 -9.98046875 2.29296875 C-6.65451196 1.52484869 -3.32756298 0.76113591 0 0 Z " fill="#808080" transform="translate(819,16)"/>
<path d="M0 0 C0.66 2.97 1.32 5.94 2 9 C-3.92548483 10.42846849 -9.85200719 11.85251883 -15.77954102 13.27246094 C-17.79643519 13.75626876 -19.81303897 14.24128883 -21.8293457 14.72753906 C-24.72532109 15.42570779 -27.62230819 16.11952961 -30.51953125 16.8125 C-31.87435356 17.14060669 -31.87435356 17.14060669 -33.25654602 17.4753418 C-34.09719101 17.67554932 -34.937836 17.87575684 -35.80395508 18.08203125 C-36.54341873 18.25968018 -37.28288239 18.4373291 -38.04475403 18.62036133 C-40 19 -40 19 -43 19 C-43.66 16.03 -44.32 13.06 -45 10 C-39.07451517 8.57153151 -33.14799281 7.14748117 -27.22045898 5.72753906 C-25.20356481 5.24373124 -23.18696103 4.75871117 -21.1706543 4.27246094 C-18.27467891 3.57429221 -15.37769181 2.88047039 -12.48046875 2.1875 C-11.57725388 1.96876221 -10.674039 1.75002441 -9.74345398 1.5246582 C-8.90280899 1.32445068 -8.062164 1.12424316 -7.19604492 0.91796875 C-6.45658127 0.74031982 -5.71711761 0.5626709 -4.95524597 0.37963867 C-3 0 -3 0 0 0 Z " fill="#808080" transform="translate(165,396)"/>
<path d="M0 0 C0.66 2.97 1.32 5.94 2 9 C-3.74417745 10.45593259 -9.49159262 11.89799886 -15.24243164 13.32739258 C-17.19780809 13.81546673 -19.1522504 14.30729946 -21.10571289 14.80297852 C-23.91575065 15.51531201 -26.72888399 16.21400677 -29.54296875 16.91015625 C-30.84949654 17.24600487 -30.84949654 17.24600487 -32.18241882 17.58863831 C-36.43003757 18.62551077 -39.71175335 19.41661863 -44 18 C-44.33 15.36 -44.66 12.72 -45 10 C-39.07451517 8.57153151 -33.14799281 7.14748117 -27.22045898 5.72753906 C-25.20356481 5.24373124 -23.18696103 4.75871117 -21.1706543 4.27246094 C-18.27467891 3.57429221 -15.37769181 2.88047039 -12.48046875 2.1875 C-11.57725388 1.96876221 -10.674039 1.75002441 -9.74345398 1.5246582 C-8.90280899 1.32445068 -8.062164 1.12424316 -7.19604492 0.91796875 C-6.45658127 0.74031982 -5.71711761 0.5626709 -4.95524597 0.37963867 C-3 0 -3 0 0 0 Z " fill="#808080" transform="translate(606,290)"/>
<path d="M0 0 C0.495 3.465 0.495 3.465 1 7 C-3.45997901 8.97342232 -8.00115346 10.06008575 -12.73046875 11.1640625 C-13.56210037 11.36099701 -14.39373199 11.55793152 -15.25056458 11.76083374 C-17.00083683 12.17443114 -18.75155435 12.58614825 -20.50268555 12.99609375 C-23.18976515 13.6255306 -25.87523201 14.2615186 -28.56054688 14.8984375 C-30.26292972 15.29986576 -31.96540069 15.70092052 -33.66796875 16.1015625 C-34.47316452 16.2921524 -35.27836029 16.48274231 -36.10795593 16.67910767 C-41.76843632 18 -41.76843632 18 -44 18 C-44.66 15.03 -45.32 12.06 -46 9 C-40.96497996 7.73505173 -35.92957063 6.47166898 -30.89379883 5.2097168 C-29.18177758 4.78045657 -27.46986229 4.35077348 -25.75805664 3.9206543 C-23.29341114 3.30145059 -20.82838489 2.68378319 -18.36328125 2.06640625 C-17.60163162 1.87470352 -16.83998199 1.68300079 -16.05525208 1.48548889 C-4.98599999 -1.28211428 -4.98599999 -1.28211428 0 0 Z " fill="#808080" transform="translate(233,159)"/>
<path d="M0 0 C0.66 2.64 1.32 5.28 2 8 C-2.45997901 9.97342232 -7.00115346 11.06008575 -11.73046875 12.1640625 C-12.56210037 12.36099701 -13.39373199 12.55793152 -14.25056458 12.76083374 C-16.00083683 13.17443114 -17.75155435 13.58614825 -19.50268555 13.99609375 C-22.18976515 14.6255306 -24.87523201 15.2615186 -27.56054688 15.8984375 C-29.26292972 16.29986576 -30.96540069 16.70092052 -32.66796875 17.1015625 C-33.47316452 17.2921524 -34.27836029 17.48274231 -35.10795593 17.67910767 C-40.76843632 19 -40.76843632 19 -43 19 C-43.66 16.03 -44.32 13.06 -45 10 C-39.96497996 8.73505173 -34.92957063 7.47166898 -29.89379883 6.2097168 C-28.18177758 5.78045657 -26.46986229 5.35077348 -24.75805664 4.9206543 C-22.29341114 4.30145059 -19.82838489 3.68378319 -17.36328125 3.06640625 C-16.60163162 2.87470352 -15.83998199 2.68300079 -15.05525208 2.48548889 C-5.11433882 0 -5.11433882 0 0 0 Z " fill="#808080" transform="translate(312,361)"/>
<path d="M0 0 C0.66 2.64 1.32 5.28 2 8 C-5.87201338 10.84617417 -13.90319734 12.7865764 -22.04052734 14.69921875 C-24.39251468 15.25413231 -26.74110878 15.82212271 -29.08984375 16.390625 C-30.58835295 16.74558928 -32.08704465 17.09978423 -33.5859375 17.453125 C-34.28592865 17.62386536 -34.9859198 17.79460571 -35.7071228 17.97052002 C-38.99716147 18.7309139 -40.72987481 19.09004173 -44 18 C-44.33 15.36 -44.66 12.72 -45 10 C-39.23565484 8.5699434 -33.46985957 7.14594589 -27.70263672 5.72753906 C-25.74096308 5.24417645 -23.77969579 4.75916154 -21.81884766 4.27246094 C-19.00007685 3.57312033 -16.17989742 2.87973752 -13.359375 2.1875 C-12.48319519 1.96876221 -11.60701538 1.75002441 -10.70428467 1.5246582 C-9.88373596 1.32445068 -9.06318726 1.12424316 -8.21777344 0.91796875 C-7.49829529 0.74031982 -6.77881714 0.5626709 -6.03753662 0.37963867 C-4 0 -4 0 0 0 Z " fill="#808080" transform="translate(753,255)"/>
<path d="M0 0 C0.66 2.97 1.32 5.94 2 9 C-3.60316319 10.43172909 -9.20822847 11.85566216 -14.81518555 13.27246094 C-16.72165092 13.75535654 -18.6275826 14.24036432 -20.53295898 14.72753906 C-23.27449602 15.42811437 -26.01787333 16.12102868 -28.76171875 16.8125 C-29.61086349 17.03123779 -30.46000824 17.24997559 -31.33488464 17.4753418 C-35.30087606 18.46730744 -38.874782 19.29334884 -43 19 C-45 13.25 -45 13.25 -45 11 C-34.55656672 7.98567571 -24.06930487 5.22802997 -13.5 2.6875 C-11.8439978 2.28797119 -11.8439978 2.28797119 -10.15454102 1.88037109 C-2.25710589 0 -2.25710589 0 0 0 Z " fill="#808080" transform="translate(379,122)"/>
<path d="M0 0 C0.66 2.97 1.32 5.94 2 9 C-3.60316319 10.43172909 -9.20822847 11.85566216 -14.81518555 13.27246094 C-16.72165092 13.75535654 -18.6275826 14.24036432 -20.53295898 14.72753906 C-23.27449602 15.42811437 -26.01787333 16.12102868 -28.76171875 16.8125 C-29.61086349 17.03123779 -30.46000824 17.24997559 -31.33488464 17.4753418 C-35.30087606 18.46730744 -38.874782 19.29334884 -43 19 C-44.25664978 16.09399739 -45 14.20395416 -45 11 C-34.55656672 7.98567571 -24.06930487 5.22802997 -13.5 2.6875 C-11.8439978 2.28797119 -11.8439978 2.28797119 -10.15454102 1.88037109 C-2.25710589 0 -2.25710589 0 0 0 Z " fill="#808080" transform="translate(459,325)"/>
<path d="M0 0 C0.66 2.64 1.32 5.28 2 8 C-12.86516947 12.19875839 -27.9511165 15.53605515 -43 19 C-44.49821059 15.62902617 -45 13.79557881 -45 10 C-36.07294006 7.28515172 -27.06219645 4.96445885 -18 2.75 C-16.37106812 2.34467041 -16.37106812 2.34467041 -14.70922852 1.93115234 C-13.67080811 1.68059082 -12.6323877 1.4300293 -11.5625 1.171875 C-10.17224609 0.8330127 -10.17224609 0.8330127 -8.75390625 0.48730469 C-5.78557093 -0.0379433 -3.00836113 -0.0830733 0 0 Z " fill="#808080" transform="translate(900,220)"/>
<path d="M0 0 C2.5 1.5625 2.5 1.5625 4 4 C4.71175407 8.34960823 4.5322053 10.23495488 2 13.875 C-1.64196439 16.45472478 -4.52163823 17.60494 -9 17 C-12.48769835 14.60220738 -13.77941951 13.17642926 -14.5625 9 C-13.87642343 5.34092496 -12.57265686 3.64832324 -10 1 C-6.79419594 -0.60290203 -3.47817686 -0.48117071 0 0 Z " fill="#808080" transform="translate(380,201)"/>
<path d="M0 0 C1.7479503 5.24385089 2.19392201 9.47322267 2 15 C0.73160474 15.50615298 -0.53983102 16.00469099 -1.8125 16.5 C-2.52019531 16.7784375 -3.22789062 17.056875 -3.95703125 17.34375 C-6 18 -6 18 -9 18 C-9.66 15.03 -10.32 12.06 -11 9 C-10.01 9 -9.02 9 -8 9 C-8.33 6.69 -8.66 4.38 -9 2 C-3.375 0 -3.375 0 0 0 Z " fill="#808080" transform="translate(939,203)"/>
<path d="M0 0 C0.33 1.98 0.66 3.96 1 6 C2.65 6.33 4.3 6.66 6 7 C6.33 9.31 6.66 11.62 7 14 C3.20414534 15.78628454 0.19341188 16.63812789 -4 16 C-7.47974554 12.14742458 -8.08016278 6.967121 -9 2 C-3.375 0 -3.375 0 0 0 Z " fill="#808080" transform="translate(57,415)"/>
<path d="M0 0 C0.50692692 1.5811292 1.00526443 3.16501383 1.5 4.75 C1.7784375 5.63171875 2.056875 6.5134375 2.34375 7.421875 C3 10 3 10 3 14 C0.36 14.66 -2.28 15.32 -5 16 C-5.433125 15.030625 -5.86625 14.06125 -6.3125 13.0625 C-7.7014861 9.72268235 -7.7014861 9.72268235 -11 9 C-11.33 6.36 -11.66 3.72 -12 1 C-7.48270255 -0.50576582 -4.611983 -1.13905625 0 0 Z " fill="#808080" transform="translate(890,1)"/>
<path d="M0 0 C0.9765625 6.0546875 0.9765625 6.0546875 1 8 C0.34 8.66 -0.32 9.32 -1 10 C-0.67801034 13.09926819 -0.67801034 13.09926819 0 16 C-2.97 16.33 -5.94 16.66 -9 17 C-9.58553797 15.0902454 -10.14269188 13.1717704 -10.6875 11.25 C-11.00074219 10.18265625 -11.31398438 9.1153125 -11.63671875 8.015625 C-12 5 -12 5 -10.69921875 2.65625 C-7.5475192 -0.4157514 -4.22593651 -0.11738713 0 0 Z " fill="#808080" transform="translate(12,211)"/>
<path d="M0 0 C2 3 2 3 3 9 C-2.28 10.32 -7.56 11.64 -13 13 C-13.66 10.03 -14.32 7.06 -15 4 C-10.05 2.68 -5.1 1.36 0 0 Z " fill="#808080" transform="translate(649,279)"/>
<path d="M0 0 C2.76223278 2.76223278 2.57856291 5.20706617 3 9 C1.27318563 9.50806447 -0.45657979 10.00610467 -2.1875 10.5 C-3.15042969 10.7784375 -4.11335937 11.056875 -5.10546875 11.34375 C-7.85345876 11.96677608 -10.19598416 12.12302812 -13 12 C-13.33 9.36 -13.66 6.72 -14 4 C-3.3255814 0.30232558 -3.3255814 0.30232558 0 0 Z " fill="#808080" transform="translate(208,385)"/>
<path d="M0 0 C0.66 2.97 1.32 5.94 2 9 C0.08487728 9.50588147 -1.83216922 10.00448391 -3.75 10.5 C-4.81734375 10.7784375 -5.8846875 11.056875 -6.984375 11.34375 C-10 12 -10 12 -14 12 C-14.33 9.03 -14.66 6.06 -15 3 C-13.0636296 2.49564306 -11.12585854 1.99666126 -9.1875 1.5 C-8.10855469 1.2215625 -7.02960938 0.943125 -5.91796875 0.65625 C-3 0 -3 0 0 0 Z " fill="#808080" transform="translate(356,350)"/>
<path d="M0 0 C0.66 2.64 1.32 5.28 2 8 C-3.33835539 9.92471317 -8.34979382 11.39891424 -14 12 C-14.66 9.03 -15.32 6.06 -16 3 C-14.08487728 2.49411853 -12.16783078 1.99551609 -10.25 1.5 C-8.64898437 1.08234375 -8.64898437 1.08234375 -7.015625 0.65625 C-4 0 -4 0 0 0 Z " fill="#808080" transform="translate(503,315)"/>
<path d="M0 0 C0.66 2.97 1.32 5.94 2 9 C0.08487728 9.50588147 -1.83216922 10.00448391 -3.75 10.5 C-4.81734375 10.7784375 -5.8846875 11.056875 -6.984375 11.34375 C-10 12 -10 12 -14 12 C-14.66 9.36 -15.32 6.72 -16 4 C-14.58398286 3.51891725 -13.16715563 3.04021859 -11.75 2.5625 C-10.96109375 2.29566406 -10.1721875 2.02882812 -9.359375 1.75390625 C-6.0956101 0.71101448 -3.4442958 0 0 0 Z " fill="#808080" transform="translate(797,244)"/>
<path d="M0 0 C0.33 2.97 0.66 5.94 1 9 C-0.91345327 9.53251766 -2.8309295 10.05059483 -4.75 10.5625 C-5.81734375 10.85253906 -6.8846875 11.14257812 -7.984375 11.44140625 C-10.84335927 11.97098494 -12.31597383 11.98370862 -15 11 C-15.33 8.36 -15.66 5.72 -16 3 C-13.89679937 2.49595192 -11.79240209 1.99689492 -9.6875 1.5 C-8.51574219 1.2215625 -7.34398437 0.943125 -6.13671875 0.65625 C-3 0 -3 0 0 0 Z " fill="#808080" transform="translate(306,140)"/>
<path d="M0 0 C0.33 2.97 0.66 5.94 1 9 C-0.55966218 9.508783 -2.12289241 10.00663469 -3.6875 10.5 C-4.55761719 10.7784375 -5.42773438 11.056875 -6.32421875 11.34375 C-8.99391677 11.99850805 -11.26396684 12.11831495 -14 12 C-16.125 6.375 -16.125 6.375 -15 3 C-12.12890625 2.05078125 -12.12890625 2.05078125 -8.5625 1.3125 C-7.38816406 1.06113281 -6.21382812 0.80976563 -5.00390625 0.55078125 C-2 0 -2 0 0 0 Z " fill="#808080" transform="translate(159,175)"/>
<path d="M0 0 C0.33 2.64 0.66 5.28 1 8 C-0.91345327 8.53251766 -2.8309295 9.05059483 -4.75 9.5625 C-5.81734375 9.85253906 -6.8846875 10.14257812 -7.984375 10.44140625 C-10.84335927 10.97098494 -12.31597383 10.98370862 -15 10 C-15.33 7.36 -15.66 4.72 -16 2 C-13.89829344 1.46932659 -11.79352402 0.95077143 -9.6875 0.4375 C-7.92986328 0.00244141 -7.92986328 0.00244141 -6.13671875 -0.44140625 C-3 -1 -3 -1 0 0 Z " fill="#808080" transform="translate(747,35)"/>
<path d="M0 0 C0.33 2.64 0.66 5.28 1 8 C-3.97361654 9.75734451 -8.7415998 11.32584613 -14 12 C-14.66 9.03 -15.32 6.06 -16 3 C-14.27318563 2.49193553 -12.54342021 1.99389533 -10.8125 1.5 C-9.84957031 1.2215625 -8.88664062 0.943125 -7.89453125 0.65625 C-5.14654124 0.03322392 -2.80401584 -0.12302812 0 0 Z " fill="#808080" transform="translate(453,105)"/>
<path d="M0 0 C0.59355614 2.64860427 0.74209269 5.29197322 1 8 C-3.95 9.32 -8.9 10.64 -14 12 C-14.66 9.03 -15.32 6.06 -16 3 C-13.71068726 2.30364247 -11.4191243 1.61765623 -9.125 0.9375 C-8.47402344 0.73833984 -7.82304688 0.53917969 -7.15234375 0.33398438 C-2.2265625 -1.11328125 -2.2265625 -1.11328125 0 0 Z " fill="#808080" transform="translate(600,70)"/>
</svg>
