<svg clip-rule="evenodd" fill-rule="evenodd" stroke-linejoin="round" stroke-miterlimit="2" viewBox="0 0 100 100" xmlns="http://www.w3.org/2000/svg"><g fill="#fff"><path d="m50.143 90.478c-14.51.056-28.053-7.762-35.261-20.358-1.305-2.281-4.217-3.073-6.497-1.768-2.281 1.305-3.073 4.216-1.768 6.497 8.906 15.562 25.637 25.221 43.563 25.151 2.627-.011 4.752-2.152 4.742-4.78s-2.152-4.753-4.779-4.742zm30.069-67.397s-.705-13.164.069-12.717c.001 0 .002.001.003.001.039.023.077.046.115.07l.042-.072c8.435 6.465 14.885 15.657 17.846 26.708 6.672 24.901-6.72 50.484-30.244 59.563-2.452.946-5.21-.276-6.156-2.728-.946-2.451.276-5.209 2.728-6.155 19.041-7.349 29.875-28.06 24.475-48.216-1.693-6.317-4.795-11.885-8.878-16.454zm-70.204 33.142c-1.556-9.934.697-19.765 5.79-27.829 1.403-2.222.738-5.165-1.484-6.568-2.221-1.403-5.164-.739-6.567 1.483-6.293 9.964-9.069 22.112-7.147 34.387.406 2.596 2.844 4.374 5.44 3.967 2.596-.406 4.374-2.844 3.968-5.44zm15.691-38.583c4.02-3.023 8.674-5.34 13.827-6.72 2.538-.681 4.046-3.293 3.366-5.831-.68-2.539-3.293-4.047-5.831-3.367-6.367 1.706-12.117 4.572-17.085 8.307-2.1 1.579-2.523 4.567-.943 6.667 1.579 2.1 4.566 2.523 6.666.944z"/><path d="m80.212 23.081-7.417 43.199c-.297 1.731-1.81 2.988-3.567 2.963-.001 0-.001 0-.002 0-8.345-.118-16.101 4.287-20.274 11.515-7.172 2.255-22.6-6.653-25.057-14.467 4.173-7.228 4.11-16.147-.166-23.315 0-.001 0-.001-.001-.002-.899-1.508-.567-3.448.783-4.571 8.003-6.654 34.115-28.365 41.053-34.133 1.025-.853 2.472-.976 3.626-.309.001 0 .002.001.003.001.775.447 1.34 1.184 1.571 2.047.231.864.11 1.784-.337 2.559-4.943 8.561-19.053 33.001-19.053 33.001-3.163-.441-6.425 1.028-8.119 3.963-2.23 3.862-.905 8.808 2.957 11.038s8.808.904 11.038-2.958c1.694-2.934 1.336-6.494-.628-9.013 0 0 14.111-24.44 19.053-33.001.448-.774 1.184-1.34 2.048-1.571.863-.231 1.784-.11 2.558.337.001 0 .002.001.003.001.039.023.077.046.115.07l.042-.072c1.611 1.235 1.337 3.596-.229 12.718z"/></g></svg>