<svg clip-rule="evenodd" fill-rule="evenodd" height="100" stroke-linejoin="round" stroke-miterlimit="2" width="100" xmlns="http://www.w3.org/2000/svg"><path d="m26.973 34.261c3.994 0 7.196-3.172 7.202-7.133.005-4.019-3.193-7.244-7.182-7.245-4.018-.002-7.193 3.188-7.19 7.224.003 3.985 3.178 7.154 7.17 7.154m-6.235 25.164c0 6.326.008 12.653-.012 18.981-.002.642.134.93.844.925 3.613-.026 7.227-.023 10.84-.002.651.003.832-.245.832-.87-.013-12.68-.015-25.36.003-38.039.001-.699-.239-.868-.898-.863-3.563.027-7.125.034-10.686-.004-.768-.009-.941.242-.938.968.027 6.301.015 12.602.015 18.904m32.016-14.695c0-1.421-.034-2.842.015-4.26.025-.721-.221-.922-.928-.915-3.356.033-6.713.014-10.07.015-1.027 0-1.032.003-1.032 1.013-.001 12.581.006 25.161-.016 37.742-.002.793.244 1.017 1.014 1.009 3.486-.033 6.971-.012 10.457-.015 1.035 0 1.038-.006 1.038-1.018 0-6.329-.017-12.658.014-18.986.008-1.31.091-2.636.322-3.922.48-2.676 1.712-4.838 4.575-5.551.861-.214 1.785-.255 2.678-.244 2.95.037 4.796 1.42 5.443 4.287.358 1.592.5 3.262.515 4.899.055 6.509.033 13.02.008 19.53-.003.778.237 1.029 1.018 1.021 3.486-.034 6.973-.032 10.457-.001.753.006 1.022-.183 1.02-.994-.032-7.542.056-15.087-.063-22.628-.04-2.505-.38-5.047-.938-7.49-1.007-4.395-3.561-7.604-8.052-8.864-1.543-.433-3.185-.539-4.789-.728-2.716-.319-5.277.231-7.678 1.523-2.042 1.1-3.654 2.666-5.008 4.577m-2.77-36.098c11.749 0 23.499.034 35.248-.023 3.132-.016 5.663 2.227 6.083 4.983.046.304.074.614.074.921.004 23.666.004 47.332.002 70.997-.001 3.139-2.494 5.737-5.619 5.872-.207.01-.413.009-.619.009-23.448 0-46.896.001-70.343-.001-2.943 0-5.168-1.58-5.942-4.249-.162-.56-.249-1.164-.249-1.748-.011-23.589-.011-47.177-.009-70.764 0-3.36 2.526-5.947 5.893-5.989 2.839-.035 5.68-.008 8.521-.008z" fill="#fff" fill-rule="nonzero"/></svg>