<svg clip-rule="evenodd" fill-rule="evenodd" stroke-linejoin="round" stroke-miterlimit="2" viewBox="0 0 382 382" xmlns="http://www.w3.org/2000/svg"><path d="m330.244 21h-278.488c-16.986 0-30.756 13.77-30.756 30.756v278.487c0 16.987 13.77 30.757 30.756 30.757h278.487c16.987 0 30.757-13.77 30.757-30.757v-278.487c0-16.986-13.77-30.756-30.756-30.756z" fill="#0077b7"/><g fill="#fff"><path d="m126.21 314.578c0 4.944-4.007 8.951-8.95 8.951h-38.1c-4.943 0-8.95-4.007-8.95-8.951v-159.711c0-4.944 4.007-8.951 8.95-8.951h38.1c4.943 0 8.95 4.007 8.95 8.951z"/><path d="m325.318 315.299c0 4.545-3.685 8.23-8.23 8.23h-40.883c-4.545 0-8.23-3.685-8.23-8.23v-74.914c0-11.175 3.278-48.971-29.205-48.971-25.196 0-30.307 25.87-31.333 37.48v86.405c0 4.545-3.684 8.23-8.23 8.23h-39.541c-4.545 0-8.23-3.685-8.23-8.23v-161.153c0-4.545 3.685-8.23 8.23-8.23h39.541c4.545 0 8.23 3.685 8.23 8.23v13.933c9.342-14.021 23.227-24.843 52.79-24.843 65.466 0 65.091 61.161 65.091 94.766z"/><path d="m98.21 130.861c-19.989 0-36.195-16.205-36.195-36.195s16.206-36.195 36.195-36.195c19.99 0 36.195 16.205 36.195 36.195s-16.204 36.195-36.195 36.195z"/></g></svg>