<svg clip-rule="evenodd" fill-rule="evenodd" stroke-linejoin="round" stroke-miterlimit="2" viewBox="0 0 750 200" xmlns="http://www.w3.org/2000/svg"><g fill-rule="nonzero" transform="translate(62.3699 -220.55)"><g><path d="m303 294.3c0 9.3-5.3 14.2-13.3 14.2-7.9 0-13.3-4.8-13.3-13.9v-18.6h3.6v18.4c0 6.9 3.7 10.8 9.8 10.8 5.9 0 9.6-3.6 9.6-10.6v-18.6h3.6z"/><path d="m313.6 307.9h-3.6v-23.6h3.5v4.1c1.6-2.6 4-4.6 8.1-4.6 5.7 0 9 3.8 9 9.5v14.7h-3.5v-13.8c0-4.4-2.4-7.1-6.5-7.1s-7.1 3-7.1 7.4v13.4z"/><path d="m337.4 279.2v-3.9h4v3.9zm.2 28.7v-23.6h3.5v23.6z"/><path d="m365.9 284.3h3.8l-10.3 23.8h-3.1l-10.3-23.8h3.9l7.9 19.6z"/><path d="m383.3 305.4c3.2 0 5.5-1.3 7.4-3.3l2.2 2c-2.4 2.6-5.3 4.4-9.7 4.4-6.5 0-11.8-5-11.8-12.3 0-6.9 4.8-12.3 11.3-12.3 7 0 11 5.6 11 12.5v1.1h-18.7c.5 5 4.1 7.9 8.3 7.9zm6.9-10.6c-.4-4.3-2.8-8-7.5-8-4.1 0-7.2 3.4-7.7 8z"/><path d="m402.5 307.9h-3.5v-23.6h3.5v6.2c1.7-3.9 5.2-6.8 9.6-6.6v3.8h-.3c-5.2 0-9.4 3.7-9.4 10.8v9.4z"/><path d="m424.4 308.4c-3.4 0-7.1-1.3-9.8-3.5l1.8-2.5c2.6 1.9 5.4 3 8.2 3s4.9-1.5 4.9-3.7v-.1c0-2.4-2.8-3.3-5.9-4.2-3.7-1.1-7.8-2.3-7.8-6.7v-.1c0-4.1 3.4-6.8 8-6.8 2.9 0 6.1 1 8.5 2.6l-1.6 2.6c-2.2-1.4-4.7-2.3-7-2.3-2.8 0-4.6 1.5-4.6 3.4v.1c0 2.2 2.9 3.1 6.1 4.1 3.7 1.1 7.6 2.5 7.6 6.8v.1c0 4.6-3.7 7.2-8.4 7.2z"/><path d="m438.5 279.2v-3.9h4v3.9zm.2 28.7v-23.6h3.5v23.6z"/><path d="m454.3 301.2c0 2.9 1.6 3.9 4 3.9 1.2 0 2.2-.2 3.4-.8v3c-1.2.6-2.6 1-4.2 1-3.8 0-6.7-1.9-6.7-6.7v-14.3h-3.3v-3.1h3.3v-7.1h3.5v7.1h7.5v3.1h-7.5z"/><path d="m478.6 308.7c-2 4.9-4.3 6.7-7.9 6.7-2 0-3.4-.4-5-1.2l1.2-2.8c1.1.6 2.2.9 3.7.9 2.1 0 3.4-1.1 4.8-4.4l-10.7-23.5h3.9l8.6 19.7 7.6-19.7h3.7z"/><path d="m516.7 308.5c-7.1 0-12.2-5.6-12.2-12.3s5.2-12.4 12.3-12.4 12.3 5.6 12.3 12.3-5.3 12.4-12.4 12.4zm0-21.6c-5.1 0-8.6 4.1-8.6 9.2s3.7 9.2 8.7 9.2c5.1 0 8.7-4.1 8.7-9.1 0-5.2-3.8-9.3-8.8-9.3z"/><path d="m546.8 284.4v3h-7.4v20.5h-3.5v-20.5h-3.2v-3.1h3.2v-2.1c0-5.2 2.6-7.9 7.1-7.9 1.6 0 2.7.2 3.9.6v3.1c-1.3-.4-2.2-.6-3.4-.6-2.7 0-4.1 1.6-4.1 5v1.9z"/><path d="m291.5 361.8c-9.2 0-16-7.3-16-16.5 0-9.1 6.8-16.6 16.2-16.6 5.8 0 9.3 2.1 12.5 5.1l-2.5 2.6c-2.7-2.6-5.7-4.4-10.1-4.4-7.1 0-12.4 5.7-12.4 13.2 0 7.4 5.3 13.2 12.4 13.2 4.4 0 7.3-1.7 10.3-4.6l2.4 2.3c-3.3 3.4-7 5.7-12.8 5.7z"/><path d="m310.5 342.1-1.1-2.9c2.6-1.2 5.2-2 8.6-2 6.4 0 10.1 3.3 10.1 9.5v14.4h-3.4v-3.6c-1.6 2.1-4.4 4.1-8.5 4.1-4.4 0-8.8-2.5-8.8-7.4 0-5 4.1-7.7 10.1-7.7 3 0 5.2.4 7.3 1v-.8c0-4.2-2.6-6.4-7-6.4-3 .1-5.2.8-7.3 1.8zm.4 12.1c0 3 2.7 4.8 5.9 4.8 4.3 0 7.9-2.6 7.9-6.4v-2.3c-1.7-.5-4.1-1-6.9-1-4.5 0-6.9 1.9-6.9 4.9z"/><path d="m334.9 327.8h3.5v33.4h-3.5z"/><path d="m345.8 332.4v-3.9h4v3.9zm.2 28.8v-23.6h3.5v23.6z"/><path d="m369.1 337.6v3.1h-7.4v20.5h-3.5v-20.5h-3.2v-3.1h3.2v-2.1c0-5.2 2.6-7.9 7.1-7.9 1.6 0 2.7.2 3.9.6v3.1c-1.3-.4-2.2-.6-3.4-.6-2.7 0-4.1 1.6-4.1 5v1.9z"/><path d="m383 361.8c-7.1 0-12.2-5.6-12.2-12.3s5.2-12.4 12.3-12.4 12.3 5.6 12.3 12.3-5.3 12.4-12.4 12.4zm0-21.6c-5.1 0-8.6 4.1-8.6 9.2s3.7 9.2 8.7 9.2c5.1 0 8.7-4.1 8.7-9.1 0-5.2-3.8-9.3-8.8-9.3z"/><path d="m404.3 361.2h-3.5v-23.6h3.5v6.2c1.7-3.9 5.2-6.8 9.6-6.6v3.8h-.3c-5.2 0-9.4 3.7-9.4 10.8v9.4z"/><path d="m421.9 361.2h-3.5v-23.6h3.5v4.1c1.6-2.6 4-4.6 8.1-4.6 5.7 0 9 3.8 9 9.5v14.7h-3.5v-13.8c0-4.4-2.4-7.1-6.5-7.1s-7.1 3-7.1 7.4z"/><path d="m445.7 332.4v-3.9h4v3.9zm.2 28.8v-23.6h3.5v23.6z"/><path d="m458.1 342.1-1.1-2.9c2.6-1.2 5.2-2 8.6-2 6.4 0 10.1 3.3 10.1 9.5v14.4h-3.4v-3.6c-1.6 2.1-4.4 4.1-8.5 4.1-4.4 0-8.8-2.5-8.8-7.4 0-5 4.1-7.7 10.1-7.7 3 0 5.2.4 7.3 1v-.8c0-4.2-2.6-6.4-7-6.4-3 .1-5.2.8-7.3 1.8zm.4 12.1c0 3 2.7 4.8 5.9 4.8 4.3 0 7.9-2.6 7.9-6.4v-2.3c-1.7-.5-4.1-1-6.9-1-4.5 0-6.9 1.9-6.9 4.9z"/><path d="m483.4 361.2h-1.6v-4.8h4.2v4.1c0 3.7-1.6 5.5-5.1 6.3l-.5-1.6c2.3-.8 3.2-2 3-4z"/><path d="m506.2 329.2h3.6v32h-3.6z"/><path d="m521.2 361.2h-3.5v-23.6h3.5v6.2c1.7-3.9 5.2-6.8 9.6-6.6v3.8h-.3c-5.2 0-9.4 3.7-9.4 10.8z"/><path d="m552.7 337.6h3.8l-10.3 23.8h-3.1l-10.2-23.8h3.9l7.9 19.6z"/><path d="m561.2 332.4v-3.9h4v3.9zm.2 28.8v-23.6h3.5v23.6z"/><path d="m575.7 361.2h-3.5v-23.6h3.5v4.1c1.6-2.6 4-4.6 8.1-4.6 5.7 0 9 3.8 9 9.5v14.7h-3.5v-13.8c0-4.4-2.4-7.1-6.5-7.1s-7.1 3-7.1 7.4z"/><path d="m609.9 358.7c3.2 0 5.5-1.3 7.4-3.3l2.2 2c-2.4 2.6-5.3 4.4-9.7 4.4-6.5 0-11.8-5-11.8-12.3 0-6.9 4.8-12.3 11.3-12.3 7 0 11 5.6 11 12.5v1.1h-18.7c.4 5 4.1 7.9 8.3 7.9zm6.9-10.6c-.4-4.3-2.8-8-7.5-8-4.1 0-7.2 3.4-7.7 8z"/></g><g><path d="m20.3 323.8v-47.9h23.9v47.4c0 12.3 6.2 18.2 15.7 18.2 9.6 0 15.8-5.6 15.8-17.5v-48h23.9v47.3c0 27.4-15.7 39.6-40 39.6-24.1-.1-39.3-12.4-39.3-39.1z"/><path d="m111.1 318.8v-.2c0-24.9 19-44.3 44.8-44.3 17.4 0 28.6 7.3 36.2 17.7l-17.8 13.8c-4.9-6-10.5-10-18.6-10-11.9 0-20.3 10.2-20.3 22.7v.2c0 12.8 8.4 22.8 20.3 22.8 8.9 0 14.1-4.1 19.2-10.3l17.8 12.7c-8 11.1-18.9 19.2-37.6 19.2-24.4-.2-44-18.8-44-44.3z"/><path d="m206 275.9h23.6v85.3h-23.6z"/></g></g></svg>