<svg clip-rule="evenodd" fill-rule="evenodd" stroke-linejoin="round" stroke-miterlimit="2" viewBox="0 0 216 72" xmlns="http://www.w3.org/2000/svg"><path d="m65.107 37.006c0 12.418-10.082 22.5-22.5 22.5s-22.5-10.082-22.5-22.5 10.082-22.5 22.5-22.5 22.5 10.082 22.5 22.5z"/><g fill-rule="nonzero"><path d="m36.586 34.658h-.938c-.979 0-1.601-.539-1.601-1.349 0-.917.666-1.314 1.634-1.314.442 0 .75.041.905.084zm16.518-8.342h-16.793c-5.188 0-7.965 4.393-9.175 7.757-1.391 3.868-1.64 10.919-1.64 12.359 0 0-.003.8-.003.806 0 .196.159.356.359.356h3.17c.199 0 .356-.16.356-.356v-.769c0-.953-.099-1.897.356-3.332.771-2.446 2.06-3.828 4.628-3.926h2.069v8.027c0 .196.157.356.356.356h3.526c.194 0 .354-.16.354-.356 0-.07.002-3.521.002-3.521 0-.358.047-.709.163-1.02.333-1.043 1.11-2.086 2.387-2.086 1.591 0 2.162 1.305 2.162 3.127 0 0-.003 3.467-.003 3.5 0 .203.16.356.359.356h3.681c.197 0 .357-.157.357-.356v-3.713c0-.353.071-.732.164-1.039.38-.996 1.006-1.875 2.217-1.875 1.658 0 2.253 1.305 2.253 3.534v3.093c0 .196.157.356.357.356h3.926c.197 0 .364-.16.364-.356 0-.006.002-15.484.002-15.484 0-3.004-2.953-5.438-5.954-5.438z" fill="#fff"/><path d="m76.155 35.714h2.286c2.6 0 4.197-1.379 4.197-3.477 0-2.286-1.597-3.383-4.103-3.383-1.221 0-2.004.095-2.38.188zm-3.821-9.302c1.472-.282 3.602-.47 5.826-.47 3.037 0 5.073.501 6.514 1.691 1.159.971 1.817 2.443 1.817 4.26 0 2.725-1.848 4.572-3.853 5.261v.094c1.535.564 2.443 2.036 2.944 4.072.689 2.631 1.253 5.074 1.66 5.888h-3.946c-.313-.626-.846-2.349-1.409-4.979-.627-2.756-1.598-3.633-3.79-3.697h-1.942v8.676h-3.821z"/><path d="m95.228 44.766c2.192 0 3.727-2.131 3.727-5.231 0-2.381-1.065-5.137-3.696-5.137-2.724 0-3.821 2.663-3.821 5.2 0 2.943 1.473 5.168 3.759 5.168zm-.125 2.787c-4.291 0-7.642-2.945-7.642-7.862 0-5.011 3.289-8.08 7.893-8.08 4.541 0 7.579 3.195 7.579 7.83 0 5.606-3.947 8.112-7.799 8.112z"/><path d="m104.687 43.638c.846.532 2.505 1.128 3.883 1.128 1.692 0 2.444-.721 2.444-1.723 0-1.034-.627-1.535-2.506-2.225-2.975-1.002-4.197-2.63-4.197-4.446 0-2.694 2.224-4.761 5.763-4.761 1.692 0 3.163.407 4.072.908l-.784 2.693c-.626-.375-1.879-.877-3.225-.877-1.379 0-2.13.69-2.13 1.629 0 .971.72 1.409 2.662 2.13 2.788.97 4.04 2.381 4.071 4.635 0 2.788-2.16 4.792-6.201 4.792-1.848 0-3.508-.439-4.635-1.064z"/><path d="m126.391 37.969c.031-1.409-.595-3.727-3.163-3.727-2.38 0-3.383 2.161-3.54 3.727zm-6.703 2.693c.094 2.756 2.255 3.946 4.699 3.946 1.785 0 3.037-.282 4.227-.688l.564 2.631c-1.315.563-3.131.97-5.324.97-4.949 0-7.862-3.038-7.862-7.705 0-4.228 2.569-8.205 7.455-8.205 4.948 0 6.576 4.072 6.576 7.422 0 .721-.062 1.285-.125 1.629z"/><path d="m131.871 36.497c0-1.754-.062-3.226-.125-4.541h3.352l.187 2.286h.094c.689-1.19 2.35-2.631 4.887-2.631 2.662 0 5.418 1.722 5.418 6.545v9.052h-3.852v-8.612c0-2.193-.814-3.853-2.914-3.853-1.534 0-2.599 1.096-3.006 2.255-.125.313-.187.783-.187 1.221v8.989h-3.854z"/><path d="m149.285 47.208v-12.371h-2.067v-2.881h2.067v-.658c0-1.973.532-3.946 1.848-5.199 1.127-1.065 2.662-1.473 3.977-1.473 1.035 0 1.848.188 2.443.376l-.25 2.976c-.439-.157-.94-.282-1.66-.282-1.911 0-2.538 1.597-2.538 3.476v.784h3.352v2.881h-3.32v12.371z"/><path d="m167.638 37.969c.031-1.409-.595-3.727-3.163-3.727-2.381 0-3.383 2.161-3.539 3.727zm-6.702 2.693c.093 2.756 2.254 3.946 4.697 3.946 1.785 0 3.039-.282 4.228-.688l.565 2.631c-1.317.563-3.133.97-5.324.97-4.95 0-7.862-3.038-7.862-7.705 0-4.228 2.569-8.205 7.453-8.205 4.95 0 6.578 4.072 6.578 7.422 0 .721-.062 1.285-.125 1.629z"/></g><path d="m173.118 24.94h3.853v22.268h-3.853z"/><path d="m190.125 38.313c0-.313-.031-.72-.094-1.034-.344-1.471-1.566-2.693-3.32-2.693-2.475 0-3.852 2.192-3.852 5.012 0 2.818 1.377 4.853 3.821 4.853 1.566 0 2.944-1.064 3.32-2.724.094-.344.125-.72.125-1.127zm3.852-13.373v17.977c0 1.566.063 3.257.126 4.291h-3.415l-.187-2.411h-.064c-.908 1.691-2.755 2.756-4.947 2.756-3.665 0-6.547-3.102-6.547-7.799-.031-5.105 3.164-8.143 6.828-8.143 2.099 0 3.602.846 4.291 1.973h.063v-8.644z" fill-rule="nonzero"/></svg>