<svg clip-rule="evenodd" fill-rule="evenodd" stroke-linejoin="round" stroke-miterlimit="2" viewBox="0 0 100 210" xmlns="http://www.w3.org/2000/svg"><path d="m0 0h100v210h-100z" fill="none"/><path d="m100 50.001c0-13.111-5.046-25.043-13.302-33.96-25.494-18.568-46.559 65.423-36.697 79.057 9.488 0 16.258-.567 25.914-2.329 14.439-8.768 24.085-24.642 24.085-42.768z" fill="#089aff"/><path d="m43.35 42.859s30.797-34.531 25.803-39.059c-5.899-2.448-12.369-3.799-19.153-3.799h-42c-2.122 0-4.157.843-5.657 2.343s-2.343 3.535-2.343 5.657c.001 12.402.002 34.858.002 34.858z" fill="#ffcc45"/><path d="m.002 42.859 69.142-39.063c6.56 2.722 12.416 6.798 17.216 11.884l.338.36-66.682 83.961h-12.014c-4.419 0-8-3.582-8-8v-49.142z" fill="#fc593d"/><path d="m28.498 98.335 33.408-51.2 15.328-19.345c-18.008 22.447-17.734 63.021-1.316 64.979-7.558 4.59-16.428 7.232-25.916 7.232h-6.822z"/><path d="m61.713 47.132c-19.66 32.756-21.597 45.669-18.533 52.867h-23.881s19.967-24.887 42.414-52.867z" fill="#fff"/><circle cx="25.249" cy="59.167" r="9.167"/><path d="m69.138 113.8c6.067 2.519 11.533 6.199 16.12 10.763-.085.051-.109.056-.057.004-4.438 4.438-8.161 9.174-11.237 14.039l-57.278 71.395h-4.686c-6.627 0-12-5.373-12-12v-45.141zm-20.134 96.201c-3.726-14.253.904-26.114 16.156-52.319-.781 2.528-1.414 5.033-1.906 7.49-2.454 12.237-1.425 23.319 1.863 30.485 2.003 4.365 4.864 7.333 8.25 8.55-6.975 3.699-14.928 5.794-23.367 5.794zm39.713-81.625c7.051 8.619 11.283 19.632 11.283 31.625 0 13.152-5.089 25.125-13.403 34.053-4.828 4.445-11.45 1.733-13.606-3.001-2.043-4.485-2.99-10.638-2.736-17.351 1.078-28.479 14.636-42.048 18.462-45.326zm-63.468 31.625c5.059 0 9.166 4.108 9.166 9.167s-4.107 9.166-9.166 9.166c-5.06 0-9.167-4.107-9.167-9.166s4.107-9.167 9.167-9.167zm-25.249-16.069v-21.653c0-6.586 5.309-11.942 11.896-11.999 12.176-.117 30.375-.279 38.104-.279 4.865 0 9.569.696 14.02 1.996l-64.02 31.935z" fill="#7a7a8d"/></svg>