<svg clip-rule="evenodd" fill-rule="evenodd" height="210" stroke-linejoin="round" stroke-miterlimit="2" width="100" xmlns="http://www.w3.org/2000/svg" xmlns:xlink="http://www.w3.org/1999/xlink"><clipPath id="a"><path clip-rule="evenodd" d="m0 0h100v210h-100z"/></clipPath><path d="m0 0h100v210h-100z" fill="none"/><g clip-path="url(#a)"><path d="m100 50.001c0-13.111-5.046-25.043-13.302-33.96-25.494-18.568-46.559 65.423-36.697 79.057 9.488 0 16.258-.567 25.914-2.329 14.439-8.768 24.085-24.642 24.085-42.768z" fill="#089aff"/><path d="m43.35 42.859s30.797-34.531 25.803-39.059c-5.899-2.448-12.369-3.799-19.153-3.799h-42c-2.122 0-4.157.843-5.657 2.343s-2.343 3.535-2.343 5.657c.001 12.402.002 34.858.002 34.858z" fill="#ffcc45"/><path d="m.002 42.859 69.142-39.063c6.56 2.722 12.416 6.798 17.216 11.884l.338.36-66.682 83.961h-12.014c-4.419 0-8-3.582-8-8v-49.142z" fill="#fc593d"/><path d="m28.498 98.335 33.408-51.2 15.328-19.345c-18.008 22.447-17.734 63.021-1.316 64.979-7.558 4.59-16.428 7.232-25.916 7.232h-6.822z"/><path d="m61.713 47.132c-19.66 32.756-21.597 45.669-18.533 52.867h-23.881s19.967-24.887 42.414-52.867z" fill="#fff"/><circle cx="25.249" cy="59.167" r="9.167"/><path d="m100 159.999c0-13.26-5.268-25.977-14.644-35.354-9.377-9.376-22.094-14.644-35.354-14.644h-42.002c-4.418 0-8 3.582-8 8v83.999c0 4.418 3.582 8 8 8h42.002c13.26 0 25.977-5.268 35.354-14.644 9.376-9.377 14.644-22.094 14.644-35.354zm-35.04-39.244c5.119 1.951 9.85 4.901 13.897 8.728l-57.594 72.517h-13.263v-49.065zm-8.28 49.514c-9.034 16.774-10.892 25.028-6.896 31.731h-18.305zm27.519-34.65c5.041 7.07 7.801 15.583 7.801 24.38v.003c0 11.139-4.425 21.821-12.301 29.697-3.355 3.355-7.22 6.084-11.411 8.111-5.686-8.191-6.196-25.067-1.156-40.701zm-58.95 24.382c5.059 0 9.167 4.108 9.167 9.167s-4.108 9.167-9.167 9.167-9.167-4.108-9.167-9.167 4.108-9.167 9.167-9.167zm-17.249-16.255v-25.745h42.002c1.117 0 2.23.045 3.334.133z" fill="#fff"/></g></svg>