<svg height="182" viewBox="0 0 461 182" width="461" xmlns="http://www.w3.org/2000/svg"><g fill-rule="evenodd" transform="translate(47 48)"><path d="m122.364717 53.5641081-.065338-.8796975h-.876344-5.43923-.983805l.040286.9894955c.448838 11.0242335 7.832147 18.3260939 20.962908 18.3260939 12.523566 0 21.039245-6.5497481 21.039245-16.4638783 0-5.3608073-1.847594-9.1544668-5.368256-11.7452814-2.708208-1.9929394-5.946342-3.1162908-11.315921-4.2882654-.358771-.0783058-.732723-.1584574-1.180845-.2533795-.2661-.0563658-1.220865-.2575529-1.170195-.2468597-9.75152-2.0579098-12.844716-3.845606-12.844716-9.1696361 0-5.5054394 4.472551-9.0114068 11.973861-9.0114068 7.298195 0 11.9106 4.4869124 12.125393 11.549998l.028023.9214849h.915845 5.363686.966354l-.022295-.9725008c-.252396-11.0096508-7.590782-18.4191342-19.452551-18.4191342-11.625553 0-19.301713 7.0417699-19.301713 16.1596958 0 5.3456511 1.845637 9.0683276 5.37185 11.5555681 2.686291 1.8947953 5.798211 2.8992941 11.287769 4.014984.257094.0522514.52533.10619.84467.1699589.19767.0394726.42092.0839105.839896.1672873 5.194051 1.0344864 7.485831 1.6729898 9.576592 2.8968159 2.595471 1.519258 3.883611 3.6893795 3.883611 7.0508991 0 5.8363225-4.874806 9.1634981-13.409213 9.1634981-8.170238 0-13.240598-4.1246097-13.789567-11.5157398zm49.975557-40.6135378v-.9505703h-.944311-5.363686-.94431v.9505703 57.0342206.9505703h.94431 5.363686.944311v-.9505703-10.1692242l7.634005-7.4841405 13.632957 18.225158.283337.378777h.471029 6.647948 1.902538l-1.150423-1.5253593-16.64932-22.0755302 15.354627-15.3831558 1.621308-1.6243197h-2.287448-7.176762-.39311l-.276982.2808033-19.613704 19.8842416zm67.763743 40.1901141h.887134l.055338-.8912754c.009733-.156758.024167-.4158757.038591-.7280579.011418-.2471138.020835-.4879142.027566-.7155796.007295-.2467145.011227-.471139.011227-.6688894 0-11.9312843-7.850643-20.7224334-19.452803-20.7224334-11.580363 0-19.830527 9.3579168-19.830527 21.1787072 0 12.1638001 7.876218 21.2547528 19.906072 21.2547528 9.096125 0 16.123313-5.432832 18.655192-13.6735078l.378349-1.2314351h-1.280498-5.59032-.66692l-.223025.6326902c-1.589924 4.5103981-5.894513 7.5041919-11.197233 7.5041919-6.932503 0-11.765143-4.7924237-12.635721-11.9391635zm-30.697827-6.3117871c1.224118-6.3990244 5.899344-10.6463878 12.26488-10.6463878 6.56087 0 11.088664 4.1079857 12.079041 10.6463878zm55.514315-10.0380228h.944311v-.9505703-4.5627377-.9505703h-.944311-7.894438v-10.0760456-.9505704h-.944311-5.363686-.94431v.9505704 10.0760456h-6.383541-.944311v.9505703 4.5627377.9505703h.944311 6.383541v22.7756654c0 7.471476 3.849748 11.5209126 10.916232 11.5209126 1.233394 0 2.296653-.0743269 3.189475-.1991519.551682-.0771304.932653-.1570254 1.142687-.2157551l.691572-.1933766v-.7225149-4.8669202-1.1794182l-1.14491.2505434c-.045762.0100141-.138466.0290032-.270884.0539963-.224374.042349-.474298.0848456-.742423.1245372-.686649.1016471-1.367697.1667956-1.994706.1782297-.064496.0011762-.128145.0017694-.190907.0017694-3.095578 0-4.343829-1.4636451-4.343829-5.1330798v-22.3954373zm22.550142 35.0570342c10.038303 0 17.126036-6.3943209 18.906002-15.44273l.223315-1.1352167h-1.149639-5.439231-.726085l-.186532.7063677c-1.524834 5.7743026-5.663569 9.1035182-11.62783 9.1035182-7.443213 0-12.57822-5.9104226-12.57822-14.4106464 0-8.565977 5.126088-14.486692 12.57822-14.486692 5.964261 0 10.102996 3.3292156 11.62783 9.1035182l.186532.7063677h.726085 5.439231 1.149639l-.223315-1.1352167c-1.779966-9.0484091-8.867699-15.44273-18.906002-15.44273-11.660861 0-19.906072 9.4240546-19.906072 21.2547528 0 11.7656283 8.256564 21.1787072 19.906072 21.1787072zm32.484292-58.8973384v-.9505703h-.944311-5.363686-.94431v.9505703 57.0342206.9505703h.94431 5.363686.944311v-.9505703-22.8897339c0-6.9740609 4.216986-11.0646387 10.614053-11.0646387 6.109825 0 9.178701 3.5604557 9.178701 10.3041825v23.6501901.9505703h.944311 5.363685.944311v-.9505703-24.7148289c0-9.5259446-5.859681-15.8555133-15.52447-15.8555133-4.972218 0-8.968918 1.8337418-11.520591 4.4656271z" fill-rule="nonzero"/><path d="m48 86-.153-.176.028-.051zm-48-55h17.775l30.092 54.758-.028.058zm74.258 0-26.382 54.739-26.137-54.739zm-53.258-28-3.339 25.283-17.661 2.717zm27-3 24.203 28h-48.406zm27 3v23.55l-27-26.55zm21 28-17.661-2.717-3.339-25.283zm-48 55-.116-.243 30.091-54.757h18.025zm-27-83 27-3-27 26.55z"/></g></svg>