<svg clip-rule="evenodd" fill-rule="evenodd" stroke-linecap="square" stroke-miterlimit="2" viewBox="0 0 100 100" xmlns="http://www.w3.org/2000/svg"><path d="m65.05 70h-35.05c-11.038 0-20-8.962-20-20s8.962-20 20-20v-.129c.07-10.979 9.005-19.871 20-19.871 11.038 0 20 8.962 20 20v14.909" fill="none" stroke="#ff5dd5" stroke-width="3" transform="matrix(.707107 .707107 -.707107 .707107 50 -17.7837)"/><path d="m63.499 66.845 12.908 7.452v8.5l-7.362 4.25-7.361-4.25v-14.988c1.66 2.921 3.277 5.867 4.989 8.756-.807.967-.97 2.374-.304 3.527.853 1.478 2.745 1.985 4.222 1.132s1.984-2.745 1.131-4.222c-.675-1.17-2.001-1.731-3.257-1.492-1.637-2.899-3.247-5.815-4.966-8.665z" transform="translate(2.1107 -3.3754)"/><path d="m45 38h2.737v11h-2.737z" transform="matrix(-.564682 -.978057 .973384 -.561983 60.6098 154.6899)"/><circle cx="21.716" cy="24.643" r="3"/><circle cx="50.0003" cy="24.643" r="3"/><circle cx="78.2845" cy="24.643" r="3"/><circle cx="21.716" cy="52.9273" r="3"/><circle cx="78.2845" cy="52.9273" r="3"/><path d="m53.229 84.44h-6.459v-6.459h6.459zm-4.519-4.519v2.579h2.579v-2.579z" transform="matrix(1.54885 0 0 1.54885 -27.4423 -44.5724)"/></svg>