<?xml version="1.0" encoding="UTF-8"?><svg id="Capa_1" xmlns="http://www.w3.org/2000/svg"
    xmlns:xlink="http://www.w3.org/1999/xlink" viewBox="0 -100 480 290">
    <defs>
        <style>
            .cls-1 {
                fill: url(#linear-gradient);
            }

            .cls-2 {
                fill: #ffcc45;
            }

            .cls-3 {
                fill: url(#linear-gradient-2);
            }
        </style>
        <linearGradient id="linear-gradient" x1="0" y1="114.92" x2="117.36" y2="114.92" gradientUnits="userSpaceOnUse">
            <stop offset="0" stop-color="#ffcc45" />
            <stop offset="1" stop-color="#fc593d" />
        </linearGradient>
        <linearGradient id="linear-gradient-2" x1="115.9" y1="74.15" x2="160.99" y2="74.15"
            xlink:href="#linear-gradient" />
    </defs>
    <g id="whuZgE">
        <g>
            <path class="cls-1"
                d="M1.9,155.46c-1.69-8.73-2.22-17.37-1.71-26.1,.49-8.43,1.99-16.62,5.22-24.46,6.45-15.67,18.13-25.4,34.2-30.16,2.8-.83,5.42-.16,7.94,.99,2.88,1.31,5.74,2.67,8.52,4.17,7.18,3.87,14.1,3.29,21.06-.69,2.99-1.71,6.26-2.93,9.44-4.29,.64-.27,1.51-.31,2.19-.13,10.55,2.79,19.77,7.67,26.16,16.9,.91,1.31,1.57,2.79,2.44,4.35-.61,.38-1.03,.71-1.51,.94-12.72,6.05-20.46,16.39-25.14,29.31-3.22,8.9-4.65,18.13-4.61,27.58,0,.37-.02,.75-.04,1.12,0,.11-.09,.22-.19,.46H1.9Z" />
            <path class="cls-2"
                d="M184.57,153.29H92.55c0-2-.1-3.91,.02-5.81,.72-11.9,3.41-23.2,10.42-33.12,4.73-6.69,10.98-11.47,18.77-14.03,1.47-.48,3.34-.29,4.88,.13,1.82,.5,3.54,1.5,5.21,2.44,4.18,2.34,8.51,2.39,12.97,1.05,2.02-.6,4.04-1.2,6.05-1.82,4.11-1.27,7.96-.51,11.68,1.46,8.49,4.49,13.94,11.59,17.42,20.35,3.61,9.08,4.86,18.57,4.74,28.28,0,.3-.07,.6-.14,1.08Z" />
            <path class="cls-2"
                d="M68.17,66.83c-17.37,.14-33.24-13.58-33.4-33.4C34.61,14.99,49.96-.08,68.41,0c18.41,.08,33.33,15.14,33.26,33.59-.07,18.53-14.95,33.29-33.5,33.24Z" />
            <path class="cls-3"
                d="M160.99,74.34c.3,11.93-10.07,23.1-23.82,22.39-11.21-.58-21.63-10.12-21.25-23.32,.34-11.97,10.71-22.07,22.85-21.87,12.47,.21,22.38,10.38,22.22,22.8Z" />
        </g>
    </g>
</svg>