<svg clip-rule="evenodd" fill-rule="evenodd" stroke-linejoin="round" stroke-miterlimit="2" viewBox="0 0 100 210" xmlns="http://www.w3.org/2000/svg"><path d="m0 110h100v100h-100z" fill="none"/><path d="m0 0h100v100h-100z" fill="none"/><path d="m93.97 137.874c-1.073-3.964-4.179-7.07-8.143-8.143-7.139-1.947-35.874-1.947-35.874-1.947s-28.734.059-35.873 2.006c-3.964 1.073-7.07 4.18-8.142 8.143-2.161 12.686-2.998 32.015.058 44.193 1.073 3.964 4.179 7.07 8.143 8.143 7.139 1.947 35.873 1.947 35.873 1.947s28.735 0 35.875-1.947c3.963-1.073 7.07-4.179 8.142-8.143 2.277-12.703 2.979-32.021-.059-44.252zm-53.162 35.933 23.837-13.807-23.837-13.807z" fill="#7a7a8d"/><path d="m93.97 27.874c-1.073-3.964-4.179-7.07-8.143-8.143-7.139-1.947-35.874-1.947-35.874-1.947s-28.734.059-35.873 2.006c-3.964 1.073-7.07 4.18-8.142 8.143-2.161 12.686-2.998 32.015.058 44.193 1.073 3.964 4.179 7.07 8.143 8.143 7.139 1.947 35.873 1.947 35.873 1.947s28.735 0 35.875-1.947c3.963-1.073 7.07-4.179 8.142-8.143 2.277-12.703 2.979-32.021-.059-44.252zm-53.162 35.933 23.837-13.807-23.837-13.807z"/></svg>