<svg clip-rule="evenodd" fill-rule="evenodd" stroke-linejoin="round" stroke-miterlimit="2" viewBox="0 0 100 200" xmlns="http://www.w3.org/2000/svg"><g fill-rule="nonzero"><path d="m50 3c-12.523 0-14.093.053-19.011.278-5.036.23-8.474 1.035-11.483 2.205-3.153 1.225-5.827 2.865-8.493 5.531-2.665 2.665-4.305 5.339-5.53 8.492-1.17 3.009-1.975 6.447-2.205 11.483-.225 4.918-.278 6.488-.278 19.011s.053 14.093.278 19.011c.23 5.036 1.035 8.474 2.205 11.483 1.225 3.153 2.865 5.827 5.53 8.493 2.666 2.665 5.34 4.305 8.493 5.53 3.009 1.17 6.447 1.975 11.483 2.205 4.918.225 6.488.278 19.011.278s14.093-.053 19.011-.278c5.036-.23 8.474-1.035 11.483-2.205 3.153-1.225 5.827-2.865 8.493-5.53 2.665-2.666 4.305-5.34 5.53-8.493 1.17-3.009 1.975-6.447 2.205-11.483.225-4.918.278-6.488.278-19.011s-.053-14.093-.278-19.011c-.23-5.036-1.035-8.474-2.205-11.483-1.225-3.153-2.865-5.827-5.53-8.492-2.666-2.666-5.34-4.306-8.493-5.531-3.009-1.17-6.447-1.975-11.483-2.205-4.918-.225-6.488-.278-19.011-.278zm0 10.288c12.252 0 13.704.047 18.542.267 4.318.198 6.665.911 8.225 1.517 2.007.78 3.44 1.712 4.944 3.217 1.505 1.504 2.437 2.937 3.217 4.944.606 1.56 1.32 3.907 1.517 8.225.22 4.838.267 6.29.267 18.542s-.047 13.704-.267 18.542c-.197 4.318-.911 6.665-1.517 8.225-.78 2.007-1.712 3.44-3.216 4.944-1.505 1.505-2.938 2.437-4.945 3.217-1.56.606-3.907 1.32-8.225 1.517-4.838.22-6.289.267-18.542.267s-13.704-.047-18.542-.267c-4.318-.197-6.665-.911-8.225-1.517-2.007-.78-3.44-1.712-4.945-3.217-1.504-1.504-2.436-2.937-3.216-4.944-.606-1.56-1.32-3.907-1.517-8.225-.22-4.838-.267-6.29-.267-18.542s.047-13.704.267-18.542c.197-4.318.911-6.665 1.517-8.225.78-2.007 1.712-3.44 3.216-4.944 1.505-1.505 2.938-2.437 4.945-3.217 1.56-.606 3.907-1.319 8.225-1.517 4.838-.22 6.29-.267 18.542-.267zm0 12.09c-13.598 0-24.622 11.024-24.622 24.622s11.024 24.622 24.622 24.622 24.622-11.024 24.622-24.622-11.024-24.622-24.622-24.622zm0 38.955c-7.916 0-14.333-6.417-14.333-14.333s6.417-14.333 14.333-14.333 14.333 6.417 14.333 14.333-6.417 14.333-14.333 14.333zm31.075-38.888c0-3.601-2.919-6.52-6.52-6.52s-6.52 2.919-6.52 6.52 2.919 6.52 6.52 6.52 6.52-2.919 6.52-6.52z" transform="matrix(.93617107 0 0 .93617107 3.191239 3.191382)"/><path d="m50 3c-12.523 0-14.093.053-19.011.278-5.036.23-8.474 1.035-11.483 2.205-3.153 1.225-5.827 2.865-8.493 5.531-2.665 2.665-4.305 5.339-5.53 8.492-1.17 3.009-1.975 6.447-2.205 11.483-.225 4.918-.278 6.488-.278 19.011s.053 14.093.278 19.011c.23 5.036 1.035 8.474 2.205 11.483 1.225 3.153 2.865 5.827 5.53 8.493 2.666 2.665 5.34 4.305 8.493 5.53 3.009 1.17 6.447 1.975 11.483 2.205 4.918.225 6.488.278 19.011.278s14.093-.053 19.011-.278c5.036-.23 8.474-1.035 11.483-2.205 3.153-1.225 5.827-2.865 8.493-5.53 2.665-2.666 4.305-5.34 5.53-8.493 1.17-3.009 1.975-6.447 2.205-11.483.225-4.918.278-6.488.278-19.011s-.053-14.093-.278-19.011c-.23-5.036-1.035-8.474-2.205-11.483-1.225-3.153-2.865-5.827-5.53-8.492-2.666-2.666-5.34-4.306-8.493-5.531-3.009-1.17-6.447-1.975-11.483-2.205-4.918-.225-6.488-.278-19.011-.278zm0 10.288c12.252 0 13.704.047 18.542.267 4.318.198 6.665.911 8.225 1.517 2.007.78 3.44 1.712 4.944 3.217 1.505 1.504 2.437 2.937 3.217 4.944.606 1.56 1.32 3.907 1.517 8.225.22 4.838.267 6.29.267 18.542s-.047 13.704-.267 18.542c-.197 4.318-.911 6.665-1.517 8.225-.78 2.007-1.712 3.44-3.216 4.944-1.505 1.505-2.938 2.437-4.945 3.217-1.56.606-3.907 1.32-8.225 1.517-4.838.22-6.289.267-18.542.267s-13.704-.047-18.542-.267c-4.318-.197-6.665-.911-8.225-1.517-2.007-.78-3.44-1.712-4.945-3.217-1.504-1.504-2.436-2.937-3.216-4.944-.606-1.56-1.32-3.907-1.517-8.225-.22-4.838-.267-6.29-.267-18.542s.047-13.704.267-18.542c.197-4.318.911-6.665 1.517-8.225.78-2.007 1.712-3.44 3.216-4.944 1.505-1.505 2.938-2.437 4.945-3.217 1.56-.606 3.907-1.319 8.225-1.517 4.838-.22 6.29-.267 18.542-.267zm0 12.09c-13.598 0-24.622 11.024-24.622 24.622s11.024 24.622 24.622 24.622 24.622-11.024 24.622-24.622-11.024-24.622-24.622-24.622zm0 38.955c-7.916 0-14.333-6.417-14.333-14.333s6.417-14.333 14.333-14.333 14.333 6.417 14.333 14.333-6.417 14.333-14.333 14.333zm31.075-38.888c0-3.601-2.919-6.52-6.52-6.52s-6.52 2.919-6.52 6.52 2.919 6.52 6.52 6.52 6.52-2.919 6.52-6.52z" fill="#7a7a8d" transform="matrix(.93617107 0 0 .93617107 3.191239 103.19141)"/></g></svg>