<svg clip-rule="evenodd" fill-rule="evenodd" stroke-linejoin="round" stroke-miterlimit="2" viewBox="0 0 100 200" xmlns="http://www.w3.org/2000/svg"><g fill-rule="nonzero"><path d="m0-48.623c6.177.001 11.129-4.901 11.137-11.023.008-6.21-4.937-11.194-11.107-11.196-6.213-.002-11.124 4.928-11.119 11.164.004 6.158 4.915 11.055 11.089 11.055m-9.643 38.887c0 9.777.013 19.554-.018 29.332-.004.993.206 1.438 1.305 1.43 5.587-.04 11.176-.035 16.764-.003 1.007.005 1.287-.379 1.286-1.345-.02-19.595-.023-39.189.005-58.783.002-1.08-.37-1.341-1.389-1.333-5.509.042-11.018.053-16.526-.007-1.187-.014-1.455.374-1.45 1.497.041 9.737.023 19.474.023 29.212m49.514-22.709c0-2.195-.053-4.391.023-6.582.038-1.114-.342-1.425-1.436-1.414-5.19.05-10.382.021-15.573.023-1.589 0-1.596.004-1.596 1.566-.001 19.441.01 38.882-.025 58.324-.003 1.225.377 1.571 1.569 1.559 5.39-.051 10.781-.019 16.172-.023 1.6-.001 1.604-.01 1.604-1.573.001-9.781-.026-19.561.023-29.341.011-2.024.14-4.073.497-6.061.743-4.135 2.648-7.476 7.075-8.577 1.332-.331 2.761-.394 4.143-.377 4.561.057 7.417 2.194 8.417 6.624.554 2.461.774 5.041.796 7.571.086 10.059.052 20.12.013 30.18-.004 1.203.367 1.59 1.575 1.578 5.391-.053 10.783-.05 16.172-.002 1.164.01 1.58-.282 1.576-1.535-.049-11.656.088-23.315-.096-34.969-.062-3.87-.588-7.798-1.452-11.574-1.556-6.791-5.507-11.75-12.452-13.698-2.387-.669-4.925-.833-7.407-1.125-4.199-.493-8.16.357-11.874 2.354-3.158 1.699-5.65 4.12-7.744 7.072m-4.285-55.783c18.171 0 36.342.053 54.513-.036 4.843-.024 8.758 3.442 9.407 7.701.071.47.114.949.114 1.424.006 36.572.007 73.143.003 109.714-.001 4.851-3.857 8.865-8.689 9.074-.32.015-.639.014-.958.014-36.263 0-72.525.002-108.787-.002-4.551 0-7.993-2.441-9.189-6.566-.251-.866-.385-1.799-.385-2.701-.018-36.453-.017-72.904-.014-109.355 0-5.191 3.906-9.19 9.113-9.254 4.391-.054 8.785-.013 13.179-.013z" transform="matrix(.64661042 0 0 .64710792 26.973335 65.725015)"/><path d="m0-48.623c6.177.001 11.129-4.901 11.137-11.023.008-6.21-4.937-11.194-11.107-11.196-6.213-.002-11.124 4.928-11.119 11.164.004 6.158 4.915 11.055 11.089 11.055m-9.643 38.887c0 9.777.013 19.554-.018 29.332-.004.993.206 1.438 1.305 1.43 5.587-.04 11.176-.035 16.764-.003 1.007.005 1.287-.379 1.286-1.345-.02-19.595-.023-39.189.005-58.783.002-1.08-.37-1.341-1.389-1.333-5.509.042-11.018.053-16.526-.007-1.187-.014-1.455.374-1.45 1.497.041 9.737.023 19.474.023 29.212m49.514-22.709c0-2.195-.053-4.391.023-6.582.038-1.114-.342-1.425-1.436-1.414-5.19.05-10.382.021-15.573.023-1.589 0-1.596.004-1.596 1.566-.001 19.441.01 38.882-.025 58.324-.003 1.225.377 1.571 1.569 1.559 5.39-.051 10.781-.019 16.172-.023 1.6-.001 1.604-.01 1.604-1.573.001-9.781-.026-19.561.023-29.341.011-2.024.14-4.073.497-6.061.743-4.135 2.648-7.476 7.075-8.577 1.332-.331 2.761-.394 4.143-.377 4.561.057 7.417 2.194 8.417 6.624.554 2.461.774 5.041.796 7.571.086 10.059.052 20.12.013 30.18-.004 1.203.367 1.59 1.575 1.578 5.391-.053 10.783-.05 16.172-.002 1.164.01 1.58-.282 1.576-1.535-.049-11.656.088-23.315-.096-34.969-.062-3.87-.588-7.798-1.452-11.574-1.556-6.791-5.507-11.75-12.452-13.698-2.387-.669-4.925-.833-7.407-1.125-4.199-.493-8.16.357-11.874 2.354-3.158 1.699-5.65 4.12-7.744 7.072m-4.285-55.783c18.171 0 36.342.053 54.513-.036 4.843-.024 8.758 3.442 9.407 7.701.071.47.114.949.114 1.424.006 36.572.007 73.143.003 109.714-.001 4.851-3.857 8.865-8.689 9.074-.32.015-.639.014-.958.014-36.263 0-72.525.002-108.787-.002-4.551 0-7.993-2.441-9.189-6.566-.251-.866-.385-1.799-.385-2.701-.018-36.453-.017-72.904-.014-109.355 0-5.191 3.906-9.19 9.113-9.254 4.391-.054 8.785-.013 13.179-.013z" fill="#7a7a8d" transform="matrix(.64661042 0 0 .64710792 26.973335 165.724695)"/></g></svg>