<?xml version="1.0" encoding="UTF-8" standalone="no"?>
<!DOCTYPE svg PUBLIC "-//W3C//DTD SVG 1.1//EN" "http://www.w3.org/Graphics/SVG/1.1/DTD/svg11.dtd">
<svg width="100%" height="100%" viewBox="0 0 24 24" version="1.1" xmlns="http://www.w3.org/2000/svg" xmlns:xlink="http://www.w3.org/1999/xlink" xml:space="preserve" xmlns:serif="http://www.serif.com/" style="fill-rule:evenodd;clip-rule:evenodd;stroke-linejoin:round;stroke-miterlimit:2;">
    <path d="M10.617,5l-1.617,0c-2.209,0 -4,1.791 -4,4l0,6c0,2.209 1.791,4 4,4l6,0c2.209,0 4,-1.791 4,-4l0,-1.617c0,-0.552 -0.448,-1 -1,-1c-0.552,0 -1,0.448 -1,1l0,1.617c0,1.105 -0.895,2 -2,2l-6,0c-1.105,0 -2,-0.895 -2,-2l0,-6c0,-1.105 0.895,-2 2,-2l1.617,0c0.552,0 1,-0.448 1,-1c0,-0.552 -0.448,-1 -1,-1Zm6.969,0l-7.137,7.136c-0.39,0.391 -0.39,1.024 0,1.415c0.391,0.39 1.024,0.39 1.415,0l7.136,-7.137l0,3.642c0,0.552 0.448,1 1,1c0.552,0 1,-0.448 1,-1l0,-6.056c0,-0.552 -0.448,-1 -1,-1l-6.056,0c-0.552,0 -1,0.448 -1,1c0,0.552 0.448,1 1,1l3.642,0Z" style="fill:#fff;"/>
</svg>
