<svg clip-rule="evenodd" fill-rule="evenodd" stroke-linejoin="round" stroke-miterlimit="2" viewBox="0 0 200 100" xmlns="http://www.w3.org/2000/svg" xmlns:xlink="http://www.w3.org/1999/xlink"><linearGradient id="a" gradientTransform="matrix(0 20.5091 -12.6205 0 66.6489 29.4909)" gradientUnits="userSpaceOnUse" x1="0" x2="1" y1="0" y2="0"><stop offset="0" stop-color="#087cff"/><stop offset="1" stop-color="#089aff"/></linearGradient><path d="m42.15 71.756-10.525 7.426c-1.201.848-1.489 2.513-.641 3.715s2.513 1.489 3.715.641l12.636-8.916v6.738c0 1.471 1.194 2.665 2.665 2.665s2.665-1.194 2.665-2.665v-6.738l12.636 8.916c1.202.848 2.867.561 3.715-.641s.56-2.867-.641-3.715l-10.525-7.426h17.85c.677 0 1.326-.246 1.805-.683.479-.438.748-1.031.748-1.65v-33.664h-56.506v33.664c0 .619.269 1.212.748 1.65.479.437 1.128.683 1.805.683zm2.509-17.713c.556-.475.719-1.266.397-1.922-.185-.345-.381-.685-.597-1.012-.404-.603-1.166-.856-1.85-.613-.817.278-1.788.622-1.788.622-1.026-.868-2.278-1.425-3.609-1.607 0 0-.395-.952-.725-1.749-.28-.675-.981-1.075-1.705-.971-.386.069-.769.15-1.147.254-.699.198-1.174.845-1.155 1.571.012.862.039 1.892.039 1.892-1.142.708-2.059 1.727-2.644 2.936 0 0-1.027.081-1.887.149-.729.057-1.326.601-1.45 1.321-.054.389-.095.779-.113 1.17-.027.726.441 1.378 1.137 1.584.824.255 1.812.548 1.812.548.32 1.304 1.005 2.491 1.975 3.421 0 0-.24 1.002-.442 1.841-.17.711.163 1.447.809 1.788.353.171.711.33 1.078.468.681.25 1.446.007 1.857-.591.497-.705 1.081-1.554 1.081-1.554 1.34.098 2.681-.187 3.865-.822 0 0 .878.538 1.614.989.623.382 1.426.293 1.95-.216.272-.283.534-.574.778-.881.449-.57.454-1.373.012-1.949-.517-.691-1.144-1.508-1.144-1.508.508-1.244.651-2.607.413-3.93 0 0 .783-.669 1.439-1.229zm26.302-6.099c.495-.478.628-1.219.332-1.839-.285-.572-.605-1.125-.962-1.654-.388-.565-1.093-.819-1.752-.63-.982.275-2.288.649-2.288.649-1.193-1.132-2.636-1.966-4.213-2.433 0 0-.329-1.318-.576-2.307-.167-.667-.742-1.153-1.427-1.207-.637-.039-1.277-.039-1.913.006-.683.054-1.256.538-1.422 1.203-.253.987-.582 2.305-.582 2.305-1.577.467-3.02 1.301-4.213 2.433 0 0-1.306-.374-2.286-.655-.661-.189-1.37.065-1.759.633-.353.532-.672 1.085-.951 1.659-.296.619-.163 1.357.33 1.833.729.712 1.706 1.656 1.706 1.656-.384 1.6-.384 3.267 0 4.866 0 0-.977.944-1.71 1.652-.495.478-.628 1.219-.332 1.84.285.571.604 1.124.962 1.653.388.565 1.093.819 1.752.63.982-.275 2.288-.649 2.288-.649 1.193 1.132 2.636 1.966 4.213 2.433 0 0 .329 1.318.576 2.307.167.667.742 1.154 1.427 1.207.637.039 1.277.039 1.913-.006.683-.053 1.256-.538 1.422-1.202.253-.988.582-2.306.582-2.306 1.577-.467 3.02-1.301 4.213-2.433 0 0 1.306.374 2.286.655.661.189 1.37-.065 1.759-.632.352-.533.672-1.086.951-1.66.296-.618.163-1.356-.33-1.832-.729-.713-1.706-1.657-1.706-1.657.384-1.599.384-3.266 0-4.866 0 0 .977-.944 1.71-1.652zm-32.496 7.304c.706 1.222.286 2.787-.936 3.493s-2.787.286-3.493-.936-.286-2.787.936-3.493 2.787-.286 3.493.936zm23.7-4.978c.971 1.682.394 3.835-1.288 4.807-1.681.971-3.835.393-4.806-1.288-.971-1.682-.394-3.836 1.288-4.807 1.681-.971 3.835-.394 4.806 1.288zm-14.83-23.66h-25.588c-1.471 0-2.665 1.194-2.665 2.665s1.194 2.665 2.665 2.665h56.506c1.471 0 2.665-1.194 2.665-2.665s-1.194-2.665-2.665-2.665h-25.588v-7.97c0-1.471-1.194-2.665-2.665-2.665s-2.665 1.194-2.665 2.665z" fill="url(#a)"/></svg>