<svg clip-rule="evenodd" fill-rule="evenodd" stroke-linejoin="round" stroke-miterlimit="2" viewBox="0 0 200 100" xmlns="http://www.w3.org/2000/svg" xmlns:xlink="http://www.w3.org/1999/xlink"><linearGradient id="a" gradientTransform="matrix(0 13.6447 -13.6447 0 68 36.3553)" gradientUnits="userSpaceOnUse" x1="0" x2="1" y1="0" y2="0"><stop offset="0" stop-color="#087cff"/><stop offset="1" stop-color="#089aff"/></linearGradient><path d="m0 0h200v100h-200z" fill="none"/><path d="m102.712 49.604c0-1.061-.421-2.078-1.172-2.828-.75-.75-1.767-1.172-2.828-1.172-11.895 0-46.958 0-58.853 0-1.061 0-2.079.422-2.829 1.172s-1.171 1.767-1.171 2.828v37.275c0 1.061.421 2.078 1.171 2.829.75.75 1.768 1.171 2.829 1.171h58.853c1.061 0 2.078-.421 2.828-1.171.751-.751 1.172-1.768 1.172-2.829 0-8.585 0-28.69 0-37.275z" fill="#089aff" fill-opacity=".4"/><path d="m93.069 40.483c0-1.06-.421-2.078-1.171-2.828s-1.768-1.172-2.829-1.172c-11.895 0-46.958 0-58.853 0-1.061 0-2.078.422-2.829 1.172-.75.75-1.171 1.768-1.171 2.828v37.275c0 1.061.421 2.079 1.171 2.829.751.75 1.768 1.171 2.829 1.171h58.853c1.061 0 2.079-.421 2.829-1.171s1.171-1.768 1.171-2.829c0-8.584 0-28.69 0-37.275z" fill="#089aff" fill-opacity=".6"/><path d="m83.427 31.363c0-1.061-.422-2.079-1.172-2.829s-1.767-1.171-2.828-1.171c-11.895 0-46.959 0-58.854 0-1.061 0-2.078.421-2.828 1.171s-1.172 1.768-1.172 2.829v37.274c0 1.061.422 2.079 1.172 2.829s1.767 1.171 2.828 1.171h58.854c1.061 0 2.078-.421 2.828-1.171s1.172-1.768 1.172-2.829c0-8.584 0-28.69 0-37.274z" fill="url(#a)"/><path d="m83.427 31.363c0-1.061-.422-2.079-1.172-2.829s-1.767-1.171-2.828-1.171c-11.895 0-46.959 0-58.854 0-1.061 0-2.078.421-2.828 1.171s-1.172 1.768-1.172 2.829v4.992h66.854z" fill="#089aff"/><g fill="#087cff"><circle cx="22.771" cy="32.197" r="2.309"/><circle cx="29.448" cy="32.197" r="2.309"/><circle cx="77.961" cy="32.197" r="2.309"/><path d="m59.062 31.874c0-.266-.105-.52-.293-.707-.187-.188-.442-.293-.707-.293-3.168 0-12.956 0-16.124 0-.265 0-.52.105-.707.293-.188.187-.293.441-.293.707v.647c0 .265.105.52.293.707.187.188.442.293.707.293h16.124c.265 0 .52-.105.707-.293.188-.187.293-.442.293-.707 0-.212 0-.435 0-.647z"/></g><path d="m52.016 40.815c-.09-.432-.452-.753-.892-.791-.748-.058-1.5-.058-2.248.002-.438.038-.8.359-.891.789-.189.892-.508 2.408-.68 3.225-.072.34-.315.619-.643.735-.282.101-.559.216-.831.343-.313.149-.682.124-.973-.066-.7-.454-1.997-1.301-2.761-1.799-.369-.241-.853-.212-1.19.072-.57.488-1.102 1.02-1.589 1.591-.283.337-.312.819-.071 1.188.496.765 1.343 2.062 1.799 2.761.189.292.214.661.065.975-.128.271-.243.548-.345.83-.117.327-.395.57-.735.641-.816.174-2.332.493-3.224.681-.432.09-.753.452-.791.892-.058.748-.058 1.5.002 2.248.038.438.359.8.789.891.892.189 2.408.508 3.225.68.34.072.619.315.735.643.101.282.216.559.343.831.149.313.124.682-.066.973-.454.7-1.301 1.997-1.799 2.761-.241.369-.212.853.072 1.19.488.57 1.02 1.102 1.591 1.589.337.283.819.312 1.188.071.765-.496 2.062-1.343 2.761-1.799.292-.189.661-.214.975-.065.271.128.548.243.83.345.327.117.57.395.641.735.174.816.493 2.332.681 3.224.09.432.452.753.892.791.748.058 1.5.058 2.248-.002.438-.038.8-.359.891-.789.189-.892.508-2.408.68-3.225.072-.34.315-.619.643-.735.282-.101.559-.216.831-.343.313-.149.682-.124.973.066.7.454 1.997 1.301 2.761 1.799.369.241.853.212 1.19-.072.57-.488 1.102-1.02 1.589-1.591.283-.337.312-.819.071-1.188-.496-.765-1.343-2.062-1.799-2.761-.189-.292-.214-.661-.065-.975.128-.271.243-.548.345-.83.117-.327.395-.57.735-.641.816-.174 2.332-.493 3.224-.681.432-.09.753-.452.791-.892.058-.748.058-1.5-.002-2.248-.038-.438-.359-.8-.789-.891-.892-.189-2.408-.508-3.225-.68-.34-.072-.619-.315-.735-.643-.101-.282-.216-.559-.343-.831-.149-.313-.124-.682.066-.973.454-.7 1.301-1.997 1.799-2.761.241-.369.212-.853-.072-1.19-.488-.57-1.02-1.102-1.591-1.589-.337-.282-.819-.312-1.188-.071-.765.496-2.062 1.343-2.761 1.799-.292.189-.661.214-.975.065-.271-.128-.548-.243-.83-.345-.327-.117-.57-.395-.641-.735-.174-.816-.493-2.332-.681-3.224zm-2.016 8.424c2.632 0 4.769 2.137 4.769 4.769s-2.137 4.769-4.769 4.769-4.769-2.137-4.769-4.769 2.137-4.769 4.769-4.769z" fill="#fff"/></svg>