<svg clip-rule="evenodd" fill-rule="evenodd" stroke-linejoin="round" stroke-miterlimit="2" viewBox="0 0 200 100" xmlns="http://www.w3.org/2000/svg"><path d="m0 0h200v100h-200z" fill="none"/><path d="m57.07 30.316h-27.508c-2.162 0-3.93 1.768-3.93 3.93v27.508c0 2.162 1.768 3.93 3.93 3.93h27.508c2.162 0 3.93-1.768 3.93-3.93v-27.508c0-2.162-1.768-3.93-3.93-3.93zm-11.789 27.508h-9.825c-1.08 0-1.965-.884-1.965-1.964 0-1.081.885-1.965 1.965-1.965h9.825c1.081 0 1.965.884 1.965 1.965 0 1.08-.884 1.964-1.965 1.964zm5.895-7.859h-15.72c-1.08 0-1.965-.884-1.965-1.965s.885-1.965 1.965-1.965h15.72c1.08 0 1.964.884 1.964 1.965s-.884 1.965-1.964 1.965zm0-7.86h-15.72c-1.08 0-1.965-.884-1.965-1.965 0-1.08.885-1.964 1.965-1.964h15.72c1.08 0 1.964.884 1.964 1.964 0 1.081-.884 1.965-1.964 1.965z" fill-rule="nonzero"/></svg>