<?xml version="1.0" encoding="UTF-8" standalone="no"?>
<!DOCTYPE svg PUBLIC "-//W3C//DTD SVG 1.1//EN" "http://www.w3.org/Graphics/SVG/1.1/DTD/svg11.dtd">
<svg width="100%" height="100%" viewBox="0 0 200 100" version="1.1" xmlns="http://www.w3.org/2000/svg" xmlns:xlink="http://www.w3.org/1999/xlink" xml:space="preserve" xmlns:serif="http://www.serif.com/" style="fill-rule:evenodd;clip-rule:evenodd;stroke-linejoin:round;stroke-miterlimit:2;">
    <path d="M42.15,71.756l-10.525,7.426c-1.201,0.848 -1.489,2.513 -0.641,3.715c0.848,1.202 2.513,1.489 3.715,0.641l12.636,-8.916l-0,6.738c-0,1.471 1.194,2.665 2.665,2.665c1.471,0 2.665,-1.194 2.665,-2.665l-0,-6.738l12.636,8.916c1.202,0.848 2.867,0.561 3.715,-0.641c0.848,-1.202 0.56,-2.867 -0.641,-3.715l-10.525,-7.426l17.85,0c0.677,0 1.326,-0.246 1.805,-0.683c0.479,-0.438 0.748,-1.031 0.748,-1.65l-0,-33.664l-56.506,0l-0,33.664c-0,0.619 0.269,1.212 0.748,1.65c0.479,0.437 1.128,0.683 1.805,0.683l17.85,0Z" style="fill:url(#_Linear1);"/>
    <path d="M50.038,64.498c-3.917,0.015 -7.574,-2.096 -9.52,-5.497c-0.352,-0.615 -1.138,-0.829 -1.754,-0.477c-0.616,0.353 -0.83,1.139 -0.477,1.754c2.404,4.202 6.922,6.81 11.762,6.791c0.709,-0.003 1.283,-0.581 1.28,-1.291c-0.003,-0.709 -0.581,-1.283 -1.291,-1.28Zm8.119,-18.197l-2.002,11.664c-0.081,0.467 -0.489,0.807 -0.963,0.8c-0.001,-0 -0.001,-0 -0.001,-0c-2.253,-0.032 -4.347,1.157 -5.474,3.109c-1.936,0.608 -6.102,-1.797 -6.765,-3.906c1.126,-1.952 1.109,-4.36 -0.045,-6.295c-0,-0.001 -0,-0.001 -0,-0.001c-0.243,-0.407 -0.154,-0.931 0.211,-1.234c2.161,-1.797 9.211,-7.659 11.084,-9.216c0.277,-0.23 0.668,-0.264 0.979,-0.084c0.001,0.001 0.001,0.001 0.001,0.001c0.209,0.121 0.362,0.319 0.424,0.553c0.063,0.233 0.03,0.481 -0.091,0.69c-1.334,2.312 -5.144,8.911 -5.144,8.911c-0.854,-0.119 -1.735,0.277 -2.192,1.07c-0.602,1.042 -0.245,2.378 0.798,2.98c1.043,0.602 2.378,0.244 2.98,-0.799c0.458,-0.792 0.361,-1.753 -0.169,-2.433c0,-0 3.81,-6.599 5.144,-8.91c0.121,-0.21 0.32,-0.362 0.553,-0.425c0.233,-0.062 0.482,-0.029 0.691,0.091c0,0 0,0.001 0.001,0.001c0.01,0.006 0.021,0.012 0.031,0.019l0.011,-0.02c2.278,1.746 4.019,4.228 4.819,7.211c1.801,6.723 -1.815,13.631 -8.166,16.082c-0.662,0.256 -1.407,-0.074 -1.662,-0.736c-0.256,-0.662 0.074,-1.407 0.736,-1.662c5.141,-1.984 8.066,-7.576 6.608,-13.018c-0.457,-1.706 -1.294,-3.209 -2.397,-4.443Zm-18.955,8.948c-0.42,-2.682 0.188,-5.336 1.563,-7.514c0.379,-0.6 0.2,-1.394 -0.4,-1.773c-0.6,-0.379 -1.395,-0.199 -1.773,0.401c-1.699,2.69 -2.449,5.97 -1.93,9.284c0.11,0.701 0.768,1.181 1.469,1.071c0.701,-0.11 1.181,-0.768 1.071,-1.469Zm4.237,-10.417c1.085,-0.816 2.342,-1.442 3.733,-1.815c0.685,-0.183 1.093,-0.889 0.909,-1.574c-0.184,-0.685 -0.889,-1.093 -1.574,-0.909c-1.72,0.461 -3.272,1.234 -4.613,2.243c-0.567,0.426 -0.682,1.233 -0.255,1.8c0.426,0.567 1.233,0.681 1.8,0.255Z" style="fill:#fff;"/>
    <path d="M47.335,26.61l-25.588,0c-1.471,0 -2.665,1.194 -2.665,2.665c-0,1.471 1.194,2.665 2.665,2.665l56.506,0c1.471,0 2.665,-1.194 2.665,-2.665c-0,-1.471 -1.194,-2.665 -2.665,-2.665l-25.588,0l-0,-7.97c-0,-1.471 -1.194,-2.665 -2.665,-2.665c-1.471,0 -2.665,1.194 -2.665,2.665l-0,7.97Z" style="fill:#4dd68c;"/>
    <defs>
        <linearGradient id="_Linear1" x1="0" y1="0" x2="1" y2="0" gradientUnits="userSpaceOnUse" gradientTransform="matrix(1.10344e-15,-18.0205,18.0205,1.10344e-15,71,53.7795)"><stop offset="0" style="stop-color:#4dd68c;stop-opacity:1"/><stop offset="1" style="stop-color:#0bbb9f;stop-opacity:1"/></linearGradient>
    </defs>
</svg>
