<svg clip-rule="evenodd" fill-rule="evenodd" stroke-linecap="round" stroke-linejoin="round" viewBox="0 0 200 100" xmlns="http://www.w3.org/2000/svg"><g fill="none"><path d="m0 0h200v100h-200z"/><g stroke="#fc123d" stroke-width="5.29"><path d="m50 48.394v32.753"/><path d="m50 18.853v10.563"/><path d="m33.276 81.147 16.724-11.8 16.724 11.8"/><path d="m21.939 29.416h56.122"/></g></g><path d="m78.061 35.855h-56.122v33.436c0 .614.267 1.204.743 1.638.475.435 1.12.679 1.792.679h51.052c.672 0 1.317-.244 1.792-.679.476-.434.743-1.024.743-1.638 0-8.031 0-33.436 0-33.436z" fill="#fc123d"/><g fill="#fff"><path d="m44.695 54.016c.552-.472.715-1.257.394-1.909-.183-.343-.378-.681-.592-1.005-.402-.6-1.158-.85-1.838-.61-.811.277-1.776.618-1.776.618-1.019-.861-2.262-1.415-3.585-1.596 0 0-.391-.945-.719-1.737-.278-.671-.975-1.068-1.694-.964-.383.068-.764.149-1.139.253-.694.196-1.166.838-1.147 1.559.012.857.039 1.88.039 1.88-1.135.703-2.045 1.714-2.626 2.916 0 0-1.02.08-1.875.148-.723.057-1.316.597-1.44 1.312-.053.386-.094.773-.112 1.162-.027.72.438 1.368 1.129 1.573.819.253 1.8.544 1.8.544.318 1.296.999 2.475 1.962 3.398 0 0-.239.995-.439 1.829-.169.705.161 1.436.803 1.775.35.17.706.328 1.071.465.676.249 1.436.007 1.844-.587.494-.7 1.074-1.544 1.074-1.544 1.331.098 2.662-.185 3.838-.816 0 0 .873.535 1.603.983.619.379 1.417.291 1.937-.215.27-.281.531-.57.773-.875.446-.567.451-1.363.012-1.936-.513-.686-1.136-1.497-1.136-1.497.504-1.236.646-2.59.41-3.903 0 0 .778-.665 1.429-1.221zm-6.152 1.196c.701 1.214.285 2.769-.929 3.47-1.214.7-2.769.284-3.47-.93s-.284-2.769.93-3.469c1.214-.701 2.768-.285 3.469.929z"/><path d="m70.819 47.958c.491-.475.624-1.21.329-1.827-.283-.567-.6-1.117-.955-1.642-.385-.561-1.086-.813-1.74-.626-.975.273-2.272.645-2.272.645-1.185-1.125-2.619-1.953-4.185-2.417 0 0-.327-1.309-.572-2.291-.166-.663-.737-1.146-1.418-1.199-.633-.039-1.267-.039-1.9.006-.678.053-1.247.534-1.412 1.195-.251.98-.578 2.289-.578 2.289-1.566.464-3 1.292-4.185 2.417 0 0-1.297-.372-2.27-.651-.657-.188-1.36.065-1.747.628-.35.529-.667 1.079-.945 1.649-.293.614-.161 1.347.329 1.82.723.708 1.694 1.645 1.694 1.645-.381 1.588-.381 3.244 0 4.833 0 0-.971.937-1.699 1.641-.491.474-.624 1.21-.329 1.827.283.567.6 1.117.955 1.642.385.561 1.086.813 1.74.626.975-.273 2.272-.645 2.272-.645 1.185 1.124 2.619 1.952 4.185 2.416 0 0 .327 1.31.572 2.292.166.663.737 1.145 1.418 1.199.633.038 1.267.038 1.9-.006.678-.053 1.247-.534 1.412-1.195.251-.98.578-2.29.578-2.29 1.566-.464 3-1.292 4.185-2.416 0 0 1.297.372 2.27.65.657.189 1.36-.064 1.747-.628.35-.528.667-1.078.945-1.648.293-.614.161-1.347-.328-1.82-.724-.708-1.695-1.645-1.695-1.645.382-1.589.382-3.245 0-4.833 0 0 .971-.937 1.699-1.641zm-8.736 2.31c.964 1.67.391 3.81-1.279 4.774-1.671.964-3.81.391-4.775-1.279-.964-1.671-.391-3.81 1.28-4.774 1.67-.965 3.809-.391 4.774 1.279z"/></g></svg>