<svg clip-rule="evenodd" fill-rule="evenodd" stroke-linejoin="round" stroke-miterlimit="2" viewBox="0 0 200 100" xmlns="http://www.w3.org/2000/svg" xmlns:xlink="http://www.w3.org/1999/xlink"><linearGradient id="a" gradientTransform="matrix(-13.0862 -44.1632 44.1632 -13.0862 37.2434 69.801)" gradientUnits="userSpaceOnUse" x1="0" x2="1" y1="0" y2="0"><stop offset="0" stop-color="#089aff"/><stop offset="1" stop-color="#089aff" stop-opacity=".68"/></linearGradient><linearGradient id="b" gradientTransform="matrix(-8.81276 -36.7676 36.7676 -8.81276 71.0179 62.4055)" gradientUnits="userSpaceOnUse" x1="0" x2="1" y1="0" y2="0"><stop offset="0" stop-color="#089aff"/><stop offset="1" stop-color="#011efb"/></linearGradient><path d="m50.585 73.761c-8.684.034-16.79-4.646-21.105-12.185-.781-1.365-2.523-1.839-3.888-1.058s-1.84 2.524-1.058 3.889c5.33 9.314 15.344 15.095 26.074 15.053 1.572-.006 2.844-1.288 2.838-2.86-.006-1.573-1.288-2.845-2.861-2.839z" fill="url(#a)"/><path d="m68.583 33.421s-5.361-2.29-2.558-7.145c.226-.391.598-.677 1.035-.794.436-.117.901-.055 1.293.171.001 0 .002.001.003.002.116.066.224.141.324.224l.04-.07c5.049 3.87 8.91 9.372 10.682 15.986 3.994 14.904-4.022 30.217-18.102 35.651-1.468.566-3.119-.165-3.685-1.633-.566-1.467.165-3.118 1.633-3.684 11.397-4.399 17.881-16.795 14.649-28.859-1.013-3.782-2.87-7.114-5.314-9.849z" fill="url(#b)"/><path d="m26.563 53.258c-.931-5.946.417-11.83 3.466-16.657.839-1.33.442-3.091-.888-3.931s-3.091-.442-3.931.888c-3.767 5.964-5.428 13.235-4.278 20.582.243 1.554 1.702 2.618 3.256 2.374 1.554-.243 2.618-1.702 2.375-3.256z" fill="url(#a)"/><path d="m35.955 30.164c2.406-1.809 5.192-3.195 8.276-4.022 1.519-.407 2.422-1.971 2.015-3.49s-1.971-2.422-3.49-2.015c-3.812 1.021-7.253 2.737-10.226 4.972-1.257.945-1.51 2.733-.565 3.99.945 1.258 2.733 1.511 3.99.565z" fill="url(#a)"/><path d="m68.583 33.421-4.439 25.856c-.178 1.037-1.084 1.789-2.136 1.774-4.995-.071-9.638 2.566-12.135 6.892-4.293 1.35-13.527-3.982-14.998-8.659 2.498-4.326 2.46-9.665-.099-13.955-.539-.903-.34-2.065.469-2.737 4.702-3.91 19.849-16.504 24.331-20.231.757-.63 1.827-.721 2.68-.228.001.001.003.001.004.002.391.226.677.598.794 1.035.117.436.056.901-.17 1.293-2.804 4.855-11.561 20.024-11.561 20.024-1.894-.264-3.846.616-4.86 2.372-1.335 2.312-.542 5.272 1.77 6.607 2.312 1.334 5.272.541 6.606-1.77 1.015-1.757.8-3.888-.375-5.395 0 0 8.758-15.17 11.561-20.025.226-.391.598-.677 1.035-.794.436-.117.901-.055 1.293.171.001 0 .002.001.003.002 1.963 1.469.227 7.766.227 7.766z" fill="#089aff"/></svg>