<svg clip-rule="evenodd" fill-rule="evenodd" stroke-linejoin="round" stroke-miterlimit="2" viewBox="0 0 200 100" xmlns="http://www.w3.org/2000/svg" xmlns:xlink="http://www.w3.org/1999/xlink"><linearGradient id="a" gradientTransform="matrix(41.9834 22.873 -22.873 41.9834 9.09739 36.4184)" gradientUnits="userSpaceOnUse" x1="0" x2="1" y1="0" y2="0"><stop offset="0" stop-color="#7a7a8d"/><stop offset="1" stop-color="#9f9fad" stop-opacity="0"/></linearGradient><linearGradient id="b" gradientTransform="matrix(0 -9.18653 9.18653 0 41.8711 55.3086)" gradientUnits="userSpaceOnUse" x1="0" x2="1" y1="0" y2="0"><stop offset="0" stop-color="#fff"/><stop offset="1" stop-color="#b3ffb3"/></linearGradient><path d="m0 0h200v100h-200z" fill="none"/><path d="m70 50c0-6.896-2.739-13.509-7.615-18.385s-11.489-7.615-18.385-7.615h-22.778c-1.779 0-3.222 1.443-3.222 3.222v45.556c0 1.779 1.443 3.222 3.222 3.222h22.778c6.896 0 13.509-2.739 18.385-7.615s7.615-11.489 7.615-18.385z" fill="#2adb6a"/><path d="m68.92 52.042-27.049-18.571v17.321l-4.462 7.076-6.225 7.301 14.764 10.663c5.81-.662 11.261-3.271 15.437-7.447 4.392-4.392 7.051-10.194 7.535-16.343z" fill="url(#a)"/><path d="m40.92 34.565c.134-.413.518-.691.951-.691s.817.278.951.691c1.285 3.954 3.416 10.513 3.416 10.513h11.055c.434 0 .818.279.951.691.134.412-.012.864-.363 1.119-3.364 2.443-8.944 6.498-8.944 6.498s2.132 6.559 3.417 10.513c.134.413-.013.864-.364 1.119-.35.254-.825.254-1.175 0-3.364-2.444-8.944-6.498-8.944-6.498s-5.58 4.054-8.944 6.498c-.35.254-.825.254-1.175 0-.351-.255-.497-.706-.364-1.119 1.285-3.954 3.417-10.513 3.417-10.513s-5.58-4.055-8.944-6.498c-.351-.255-.497-.707-.363-1.119s.518-.691.951-.691h11.055s2.131-6.559 3.416-10.513z" fill="url(#b)"/></svg>