<svg clip-rule="evenodd" fill-rule="evenodd" stroke-linejoin="round" stroke-miterlimit="2" viewBox="0 0 24 24" xmlns="http://www.w3.org/2000/svg"><path d="m11.99 2c-5.52 0-9.99 4.48-9.99 10s4.47 10 9.99 10c5.53 0 10.01-4.48 10.01-10s-4.48-10-10.01-10z" fill="#7a7a8d"/><path d="m11.78 4.75h-.06c-.539 0-.97.431-.97.97v6.72c0 .438.226.851.614 1.076-.003-.002 4.147 2.488 4.147 2.488.001.001.002.001.002.001.459.27 1.05.131 1.321-.326.282-.458.133-1.064-.337-1.334 0 0-3.747-2.227-3.747-2.227v-6.398c0-.539-.431-.97-.97-.97z" fill="#fff"/></svg>