<svg width="423" height="473" viewBox="0 0 423 473" fill="none" xmlns="http://www.w3.org/2000/svg">
<mask id="mask0_2203_1719" style="mask-type:luminance" maskUnits="userSpaceOnUse" x="268" y="148" width="100" height="104">
<path d="M313.987 148L368 185.258L322.013 251.926L268 214.668L313.987 148Z" fill="white"/>
</mask>
<g mask="url(#mask0_2203_1719)">
<path d="M295.878 209.131C295.987 208.972 295.974 208.845 295.918 208.781C295.845 208.952 295.797 209.102 295.878 209.131ZM292.376 211.739C292.447 211.691 292.517 211.638 292.584 211.583C292.46 211.602 292.359 211.65 292.376 211.739ZM294.155 196.094C294.436 195.91 294.167 195.672 294.065 195.367C294.098 195.611 294.116 195.859 294.155 196.094ZM290.658 184.079L290.689 183.825C290.584 183.679 290.472 183.541 290.351 183.41L290.658 184.079ZM294.775 178.111C294.695 177.598 294.752 177.416 294.893 177.422C294.784 177.061 294.655 176.711 294.505 176.372C294.327 176.195 294.669 177.554 294.775 178.111ZM306.182 184.321L306.414 184.272C306.414 184.272 306.278 184.309 306.204 184.336L306.182 184.321ZM315.913 186.636L315.992 186.52C315.903 186.405 315.808 186.295 315.706 186.193L315.913 186.636ZM285.177 220.513C285.162 220.374 285.203 220.219 285.177 220.513ZM335.132 229.802C334.697 229.868 334.491 229.359 334.268 228.813C334.044 228.267 333.722 227.863 333.288 228.137C333.604 228.476 333.88 228.85 334.117 229.258C334.466 229.72 334.793 230.115 335.12 229.819L335.132 229.802ZM300.174 225.261C300.239 225.379 300.327 225.47 300.44 225.536C300.379 225.416 300.294 225.318 300.186 225.244L300.174 225.261ZM306.419 221.257C306.541 221.253 306.638 221.194 306.709 221.079L306.619 221.016C306.61 221.067 306.588 221.113 306.554 221.153C306.52 221.194 306.479 221.222 306.431 221.239L306.419 221.257ZM312.056 217.538L311.92 217.444L311.841 217.559L312.056 217.538ZM330.02 179.429C330.612 178.78 331.04 178.305 331.437 177.875C330.921 178.34 330.453 178.851 330.032 179.411L330.02 179.429ZM344.675 197.512C344.675 197.512 344.713 197.538 345.008 197.466L344.675 197.512ZM361.364 194.082L360.962 194.001L360.224 193.845C359.823 193.768 359.432 193.662 359.051 193.531C358.468 193.31 358.296 193.01 358.811 192.635C357.447 192.645 356.656 192.452 355.434 192.483L356.807 191.943C355.247 191.12 353.564 190.608 351.758 190.405L353.032 189.979C352.531 189.94 352.026 189.978 351.514 190.097C351.002 190.215 350.507 190.407 350.027 190.673C348.897 191.199 347.952 191.681 347.371 191.621C347.652 191.213 347.868 190.787 348.084 190.377C347.441 190.296 346.812 190.17 346.196 190C345.576 189.833 344.905 189.711 344.243 189.606C343.902 189.552 343.546 189.504 343.214 189.484C343.041 189.463 342.864 189.454 342.686 189.458L342.352 189.476C341.883 189.521 341.434 189.677 341.006 189.943C341.056 189.757 341.172 189.379 341.438 189.316C340.641 189.261 338.445 188.412 338.502 190.201C338.66 189.004 336.777 190.105 335.816 190.643L336.05 189.787C335.841 190.155 335.587 190.489 335.289 190.787C334.989 191.085 334.661 191.333 334.302 191.531C334.189 191.453 334.32 191.02 334.432 191.019C334.289 190.921 334.171 191.074 334.008 191.263C333.845 191.45 333.575 191.682 333.391 191.463C333.537 191.25 333.738 191.09 333.894 190.897C333.496 190.844 333.387 191.147 332.615 191.816C332.297 192.001 332.04 191.953 331.993 191.765C331.945 191.575 332.121 191.24 332.527 190.828C332.165 191.142 331.779 191.416 331.372 191.649C331.2 191.753 331.182 191.713 331.17 191.667C331.158 191.619 331.192 191.539 331.264 191.418C331.454 191.228 331.669 191.089 331.907 191.001C332.365 190.338 332.116 190.296 331.952 190.131C331.787 189.965 331.664 189.724 332.185 189.275C332.378 189.218 332.563 189.137 332.742 189.032C332.662 189.392 332.534 189.739 332.359 190.073C332.813 189.785 333.094 189.523 333.409 189.309C333.815 189.052 334.234 188.822 334.662 188.621C334.29 188.83 333.908 188.927 333.515 188.912C333.189 188.87 333.062 188.6 333.269 188.43C333.362 188.401 333.456 188.379 333.549 188.362L333.617 188.409C333.684 188.312 333.658 188.268 333.56 188.187L333.75 188.071C333.75 188.071 333.836 187.947 333.921 187.823C334.539 187.831 334.548 186.834 334.734 186.387C333.943 186.259 334.262 185.684 333.445 186.111C333.5 186.031 333.504 186.218 333.439 186.539C333.476 186.564 333.435 186.691 333.461 186.749L333.37 186.686C333.298 187.001 333.191 187.397 333.07 187.849C332.787 187.419 332.572 186.958 333.166 186.531C332.798 186.252 332.451 185.949 332.126 185.619C333.407 185.197 334.396 184.118 335.111 184.115L335.13 183.828C335.141 183.7 335.163 183.572 335.195 183.443L335.244 183.373L335.53 183.218L335.304 183.14L335.473 182.46C335.631 181.813 335.801 181.146 335.96 180.513C336.101 179.985 336.16 179.46 336.135 178.936C336.139 178.84 336.129 178.748 336.104 178.66C336.078 178.572 336.04 178.492 335.988 178.423C335.935 178.353 335.873 178.295 335.799 178.25C335.725 178.205 335.644 178.175 335.558 178.16C335.528 177.749 336.427 177.221 336.861 176.802C336.92 177.039 336.701 177.487 336.895 177.543C336.881 176.58 338.567 173.685 336.876 174.829C337.596 173.785 337.978 173.619 338.181 173.55C338.384 173.481 338.492 173.438 338.894 172.436L339.337 172.246C340.911 170.123 341.663 168.631 341.76 167.941C341.858 167.251 341.448 167.152 341.132 167.077C340.372 167.598 340.044 167.736 340.057 167.458C340.067 167.36 340.093 167.264 340.133 167.172L340.176 167.11L340.099 167.123C340.05 167.134 340.001 167.135 339.953 167.125C339.861 167.114 339.785 167.075 339.725 167.008C339.665 166.939 339.633 166.856 339.628 166.758C339.676 166.882 339.709 166.931 339.484 167.258C338.549 167.473 337.659 167.855 336.812 168.404C335.773 168.991 334.638 169.749 333.591 170.461C332.543 171.174 331.513 171.86 330.536 172.453C329.585 173.029 328.595 173.469 327.568 173.771C326.315 174.33 326.235 175.188 325.796 176.163C325.625 175.942 325.45 175.73 325.26 175.52C325.011 176.096 324.793 176.681 324.606 177.274C324.146 178.118 323.365 178.089 322.533 178.232C322.426 178.228 322.32 178.236 322.212 178.253C322.104 178.27 321.998 178.297 321.892 178.336C321.787 178.373 321.684 178.421 321.583 178.478C321.483 178.534 321.387 178.599 321.296 178.673C321.204 178.747 321.119 178.829 321.04 178.918C320.961 179.006 320.888 179.1 320.824 179.2C320.76 179.301 320.704 179.405 320.656 179.514C320.608 179.622 320.569 179.732 320.54 179.846L321.079 180.113C320.469 180.514 319.62 181.938 319.294 181.362C319.307 181.488 319.497 181.971 319.102 181.946L318.803 181.622L318.031 183.452C316.855 184.219 317.013 182.007 315.528 183.435C315.11 184.138 314.915 185.936 315.363 185.931C315.44 185.859 315.525 185.803 315.617 185.76C315.708 185.717 315.802 185.692 315.898 185.683C315.992 185.675 316.084 185.685 316.171 185.712C316.258 185.738 316.337 185.782 316.405 185.841L316.102 186.506C316.577 187.334 317.241 187.935 318.095 188.311C318.154 188.411 318.185 188.524 318.19 188.649C318.194 188.774 318.17 188.898 318.118 189.02C317.378 189.383 317.755 189.838 317.709 190.355C317.548 190.491 317.387 190.628 317.218 190.759L317.068 190.656C316.355 189.412 315.478 188.324 314.434 187.392C313.808 186.824 313.143 186.312 312.434 185.855L311.921 185.501L311.093 185.087C310.51 184.789 309.899 184.562 309.285 184.322C307.49 183.697 306.927 184.353 306.428 184.817C306.322 184.738 306.258 184.628 306.233 184.488C306.22 184.361 306.271 184.305 306.367 184.293L305.62 184.457C305.844 184.245 305.892 183.562 306.176 183.861C305.437 182.803 304.076 184.162 304.114 183.091L304.229 183.053C303.207 182.922 303.25 183.278 303.055 183.692L302.196 183.725C302.277 183.146 302.364 182.568 302.459 181.99L301.893 182.811C301.757 182.718 301.5 182.54 301.752 182.192C300.897 182.529 301.641 182.612 301.043 183.009C300.916 182.452 300.399 182.33 299.912 182.085C299.784 182.044 299.669 181.982 299.567 181.898C299.464 181.812 299.381 181.71 299.317 181.59C299.253 181.469 299.21 181.338 299.19 181.196C299.171 181.053 299.175 180.908 299.201 180.76C298.769 181.387 299.785 181.736 298.885 181.847C298.943 180.908 298.653 180.812 298.348 180.85C298.242 180.888 298.135 180.906 298.028 180.902C297.921 180.898 297.822 180.874 297.729 180.83C297.637 180.785 297.557 180.724 297.492 180.643C297.425 180.564 297.377 180.471 297.346 180.367C297.486 179.407 298.304 180.479 297.459 179.01C297.248 179.751 296.916 179.458 296.449 178.861C296.086 178.278 295.637 177.785 295.099 177.382C295.279 178.106 295.106 178.195 294.789 178.042C294.575 178.051 294.37 178.026 294.172 177.969C294.06 177.951 293.948 177.942 293.832 177.944C293.764 177.897 293.753 178.058 293.692 178.147C293.631 178.235 293.638 178.371 293.609 178.494C293.424 177.988 292.298 180.2 291.675 181.153L291.545 180.986C292.18 181.919 291.955 182.86 291.943 183.766L291.551 183.848C291.257 183.572 291.078 183.218 291.016 182.786C290.971 183.108 290.885 183.427 290.864 183.764C291.16 184.164 291.327 184.631 291.365 185.167L290.611 184.646C290.634 185.407 290.761 186.13 290.995 186.817C291.081 187.176 291.173 187.526 291.233 187.908C291.278 188.302 291.275 188.706 291.223 189.115C291.61 189.055 292.062 188.609 292.54 188.417C292.839 188.284 293.127 188.269 293.403 188.374L293.668 188.765C293.278 188.927 292.752 189.125 292.555 188.846C292.653 188.914 292.977 189.137 292.847 189.439C292.571 189.36 292.309 189.25 292.063 189.108C291.892 189.889 292.682 189.26 292.745 189.733C292.179 189.956 292.409 190.22 291.967 190.359C291.869 190.292 292.099 189.863 291.837 189.774C291.86 190.07 291.83 190.368 291.747 190.669C291.665 190.969 291.535 191.253 291.358 191.517C291.66 191.321 292.1 191.168 292.289 191.506C292.662 192.417 291.747 192.164 291.687 192.879C292.145 192.908 292.033 193.732 292.826 193.26C292.93 193.529 292.603 193.811 292.445 194.054C292.991 194.328 293.726 196.086 294.216 194.989L294.2 194.835L294.275 194.887C294.625 195.096 294.93 195.363 295.188 195.686C295.446 196.007 295.645 196.372 295.786 196.777C296.07 197.595 296.541 198.251 297.201 198.744L297.023 199.001C297.887 199.361 298.671 200.242 299.602 200.102C299.851 200.273 299.662 200.886 299.35 201.128C299.857 201.217 300.248 201.069 300.323 201.799C299.477 201.881 300.005 202.179 299.623 201.798C299.718 202.047 299.667 202.234 299.735 202.345C299.802 202.457 299.969 202.507 300.712 202.446C299.688 202.719 299.799 203.042 300.285 203.065C300.448 202.956 300.598 202.829 300.737 202.684C300.972 202.741 301.157 202.869 301.294 203.069L300.52 203.175L299.734 203.298L299.686 203.368C298.838 203.71 299.399 203.784 299.554 204.125C299.707 204.467 299.588 205.01 298.588 204.765C298.954 205.317 299.336 204.601 299.892 205.102C299.703 205.21 299.507 205.278 299.306 205.305C299.103 205.333 298.91 205.319 298.724 205.263C298.526 205.207 298.321 205.204 298.106 205.254C297.913 205.278 297.776 205.313 297.726 205.37C296.462 206.025 297.862 207.239 296.69 208.049C296.768 208.063 296.842 208.086 296.912 208.118C296.982 208.151 297.048 208.192 297.107 208.24C297.167 208.289 297.22 208.344 297.266 208.408C297.313 208.471 297.352 208.539 297.382 208.613C297.414 208.687 297.436 208.765 297.449 208.847C297.464 208.929 297.469 209.013 297.466 209.098C297.462 209.184 297.45 209.27 297.428 209.356C297.408 209.441 297.379 209.525 297.341 209.607C296.63 210.251 295.566 209.583 295.766 208.938C295.901 208.743 296.045 208.725 296.124 208.807C296.245 208.485 296.414 208.08 295.9 208.129L296.059 208.448C295.492 208.592 294.647 209.641 294.451 209.036C294.202 209.816 294.647 209.641 295.127 209.332C293.96 209.975 293.851 210.826 292.777 211.626C293.046 211.59 293.45 211.698 293.319 211.856C291.816 213.051 293.251 212.906 292.582 213.957C292.435 213.995 292.296 213.993 292.161 213.952C292.027 213.91 291.916 213.835 291.829 213.725C291.754 213.673 291.701 213.637 291.631 213.706C291.581 213.762 291.538 213.824 291.503 213.892L291.295 214.322C290.315 215.017 290.389 214.023 290.56 213.436C290.383 213.859 290.153 214.253 289.87 214.616C289.587 214.98 289.264 215.297 288.901 215.568C288.244 216.038 287.632 216.567 287.06 217.155C287.141 216.827 287.258 216.506 287.41 216.196C287.168 216.698 286.903 217.19 286.615 217.671C286.964 217.52 287.314 217.383 287.644 217.259C287.223 217.725 286.99 218.111 286.655 218.129C286.746 218.401 287.128 218.298 287.484 218.283C287.839 218.267 288.179 218.306 288.286 218.733C287.549 219.319 287.857 220.29 286.758 220.706C287.293 219.769 287.036 219.867 286.658 219.996C286.279 220.127 286.005 220.264 286.053 219.84C285.937 220.144 285.792 220.436 285.617 220.715C285.473 220.811 285.419 220.694 285.406 220.569C284.637 221.683 284.871 221.844 285.218 221.939C285.278 221.94 285.334 221.949 285.392 221.964C285.447 221.98 285.5 222.002 285.549 222.03C285.599 222.058 285.644 222.093 285.685 222.133C285.726 222.173 285.762 222.218 285.791 222.269C285.822 222.319 285.846 222.372 285.864 222.43C285.883 222.487 285.894 222.547 285.899 222.61C285.904 222.673 285.902 222.735 285.895 222.799C285.886 222.864 285.872 222.927 285.85 222.99C285.318 222.987 284.75 223.875 284.896 224.131C284.901 223.366 285.815 223.381 286.179 223.803C285.811 225.128 286.58 224.837 286.61 225.405C286.603 225.166 286.614 224.926 286.64 224.683C287.17 224.579 287.144 225.146 287.642 225.635C287.32 225.974 287.107 225.266 287.078 225.598C287.624 225.661 287.677 226.167 287.825 226.661C287.973 227.155 288.219 227.703 288.907 227.511C289.085 227.948 288.197 228.444 288.42 228.781C289.242 228.591 289.422 228.767 289.643 229.011C289.863 229.255 290.216 229.406 291.134 229.074C291.121 228.674 291.086 228.532 291.224 228.379C291.603 228.08 291.992 227.801 292.393 227.541C291.955 227.731 291.51 227.887 291.06 228.005C290.608 228.154 290.153 228.275 289.696 228.369C290.422 227.996 291.126 227.573 291.807 227.099C291.423 227.182 291.046 227.304 290.675 227.466C290.297 227.61 289.99 227.684 289.857 227.619C290.881 227.021 290.686 227.159 290.837 226.585C290.829 227.115 291.42 226.87 291.969 226.557C292.254 226.402 292.532 226.241 292.787 226.13C292.899 226.064 293.015 226.03 293.135 226.024C293.254 226.02 293.364 226.045 293.464 226.1L292.643 228.145C293.479 228.37 294.592 227.74 295.585 227.107C295.848 226.95 296.111 226.779 296.374 226.608L295.793 229.273L298.559 225.57L299.169 224.686C299.267 224.639 299.356 224.573 299.436 224.491C299.538 225.071 299.935 225.124 300.261 225.361C300.184 225.151 300.561 225.007 300.891 224.738L300.929 224.764L300.996 224.667C301.073 224.606 301.141 224.534 301.201 224.453C301.259 224.372 301.306 224.285 301.342 224.192C301.377 224.099 301.398 224.005 301.406 223.908C301.414 223.813 301.408 223.721 301.387 223.632L302.363 223.992C303.829 223.608 303.38 221.679 304.688 221.186C304.524 221.972 305.223 222.024 304.542 222.912C304.975 222.689 305.399 222.575 305.262 222.208C305.653 222.399 306.19 220.864 306.747 221.105C306.817 220.775 306.654 220.205 307.134 219.963C307.197 220.034 307.234 220.12 307.245 220.222C307.134 219.963 307.794 219.426 307.158 219.105C308.141 219.535 309.019 218.94 309.825 218.336C310.211 218.02 310.617 217.743 311.044 217.505C311.238 217.395 311.439 217.329 311.647 217.308C311.809 217.332 311.948 217.398 312.067 217.506C312.472 216.893 312.986 216.417 313.609 216.077C313.535 216.313 313.547 216.44 313.466 216.397C313.737 216.65 313.933 216.171 314.257 215.637C314.581 215.104 314.922 214.674 315.172 215.408C314.971 216.796 314.541 215.677 314.563 216.292C314.116 217.472 314.249 217.472 314.465 217.529C314.681 217.587 315.056 217.624 314.687 218.257L314.562 218.261C314.44 218.438 314.455 218.528 314.526 218.602C314.641 218.688 314.769 218.75 314.91 218.788L315.171 218.877C315.287 218.946 315.398 219.023 315.503 219.106C315.715 219.295 315.873 219.526 315.98 219.801C315.877 219.829 315.788 219.885 315.71 219.967C316.945 220.114 317.906 221.221 318.673 222.011C317.86 222.206 318.081 221.838 317.52 222.521C317.865 222.876 318.494 221.627 319.156 222.344C318.966 222.878 319.037 223.711 318.415 224.338L317.844 223.553C317.208 224.667 318.529 224.56 318.653 225.09L318.231 225.347C318.601 225.766 319.072 226.004 319.642 226.059C319.886 226.093 320.115 226.164 320.33 226.273C320.647 226.484 320.917 226.749 321.14 227.066L321.269 226.62C321.989 226.529 321.966 226.788 322.023 227.14C322.08 227.494 322.052 227.89 322.597 227.824C322.457 228.301 322.333 228.789 322.217 229.296C322.681 229.465 323.157 229.603 323.646 229.708C324.153 229.807 324.64 229.955 325.107 230.155C324.564 230.942 323.404 230.495 322.476 230.324C322.84 230.714 323.239 231.058 323.675 231.36C324.12 231.667 324.56 231.788 324.691 231.5C324.477 231.456 324.154 231.585 323.976 231.15C324.357 230.872 324.763 230.717 325.197 230.687C325.657 230.74 326.053 230.919 326.386 231.22C326.376 231.854 326.523 232.421 326.828 232.92C327.096 233.287 327.429 233.573 327.826 233.78C328.705 234.167 329.482 234.703 330.155 235.387C330.634 235.144 331.122 234.94 331.621 234.779C332.211 234.55 332.765 234.233 333.282 233.823C333.716 233.478 334.09 233.069 334.404 232.601C334.687 232.185 334.87 231.738 334.952 231.257C333.304 230.42 335.045 230.589 333.316 229.046C333.204 228.419 333.211 228.215 333.337 228.276L333.287 228.347L333.374 228.302C333.802 228.019 334.174 227.668 334.492 227.246C335.063 227.079 334.995 228.259 335.434 228.509C335.508 227.726 335.673 227.631 335.943 227.674C336.214 227.717 336.531 227.87 336.696 227.293C336.006 227.181 335.51 226.043 335.546 224.96C335.367 225.378 335.159 225.781 334.921 226.172C334.122 224.604 334.446 224.278 334.735 223.748C335.024 223.216 335.296 222.594 334.509 221.139C334.763 221.432 335.027 221.744 335.285 222.078C334.959 221.292 334.678 219.846 334.266 218.492C334.161 218.114 333.981 217.793 333.722 217.528C333.463 217.262 333.154 217.079 332.793 216.98C332.952 216.749 333.406 216.397 333.607 216.705C333.535 216.176 333.391 215.681 333.173 215.22L332.812 214.501L332.622 214.147C332.552 214.021 332.491 213.901 332.457 213.903C332.102 213.659 331.787 213.115 332.324 212.95L332.76 213.108C332.654 213.035 332.21 212.728 332.35 212.655C332.409 212.634 332.467 212.631 332.524 212.644C332.675 212.748 332.893 212.899 332.952 212.862C332.849 212.76 332.768 212.639 332.712 212.5C332.669 212.353 332.716 212.203 332.883 212.253C332.957 212.397 333.04 212.533 333.135 212.662C333.341 212.686 333.4 212.648 333.43 212.525C333.453 212.444 333.468 212.364 333.474 212.283C333.474 212.283 333.572 212.141 333.633 212.052L333.822 211.778C334.246 210.98 334.778 210.264 335.416 209.628C335.898 210.784 337.465 210.337 338.241 210.115L338.287 210.29C340.441 209.167 341.405 207.222 343.116 205.662C343.332 205.73 343.559 205.756 343.796 205.739C343.918 205.732 344.04 205.716 344.162 205.692C344.355 205.639 344.544 205.57 344.73 205.483C345.678 205.071 346.609 204.603 347.522 204.081C349.585 202.858 351.697 201.779 353.859 200.845C352.996 201.098 352.515 200.505 352.857 200.154C354.123 199.723 353.037 198.974 354.985 199.116L354.741 199.262C357.109 199.054 357.905 198.077 358.927 197.387L356.192 197.431C357.194 197.207 358.163 196.829 359.097 196.3C360.032 195.771 360.889 195.115 361.669 194.332C361.729 194.099 361.49 194.091 361.376 194.064L361.364 194.082ZM334.186 187.327C334.205 187.653 334.023 187.724 333.85 187.734C333.89 187.55 333.913 187.365 333.919 187.182L333.836 187.125C333.97 187.164 334.09 187.225 334.198 187.309L334.186 187.327ZM297.197 183.826L297.16 183.8L293.575 183.69L293.379 183.684C293.127 183.355 292.987 183.009 293.39 182.844L293.722 183.282C293.627 182.695 293.307 181.69 293.56 181.291C294.321 182.155 293.756 182.249 294.314 183.117C294.259 182.506 294.158 181.91 294.013 181.329C293.885 180.627 293.944 179.977 294.347 180.359C294.398 180.995 294.241 181.369 294.358 181.959C294.587 182.189 294.851 182.371 295.149 182.504C295.225 182.557 295.246 182.363 295.392 182.346L295.559 182.539L295.912 183.045L295.663 182.664L296.19 183.366L295.915 182.863C295.781 182.497 295.719 182.106 295.731 181.692C295.81 181.368 296.095 181.617 296.349 181.78C296.605 181.942 296.864 182.018 297.166 181.547C296.782 182.104 296.86 182.379 296.924 182.594C297.076 182.893 297.161 183.221 297.179 183.578L297.307 183.862L297.197 183.826ZM296.309 192.1C296.274 192.017 296.245 191.931 296.22 191.842C295.777 191.902 295.684 191.472 295.241 192.068C295.36 191.744 295.434 191.417 295.462 191.084C295.733 191.354 296.042 191.567 296.39 191.724C296.59 192.046 296.498 192.1 296.322 192.081L296.309 192.1ZM293.232 218.58C293.573 218.568 293.652 218.649 294.024 218.657L293.663 218.956C293.348 218.895 292.991 218.897 293.244 218.562L293.232 218.58ZM293.339 219.215L293.132 219.386L292.846 219.462C293.001 219.334 293.169 219.246 293.352 219.198L293.339 219.215ZM293.682 217.782C293.818 217.875 294.09 217.868 293.992 217.995C294.199 217.695 294.095 217.232 294.203 216.64C294.409 215.93 294.786 215.319 295.332 214.81C295.205 215.349 295.198 215.762 295.407 215.735C295.713 215.451 296.342 215.168 296.685 215.494L296.163 216.348L296.421 216.749L294.03 218.714C293.451 218.522 293.096 218.148 293.694 217.764L293.682 217.782ZM300.199 208.014C300.545 208.109 300.918 208.89 301.151 208.971C300.932 209.289 300.706 209.617 300.486 209.935L300.418 209.888L300.124 210.442C299.594 211.194 298.997 211.882 298.333 212.509L298.25 212.451L298.271 212.308L299.07 211.15L298.164 211.608C298.364 210.56 297.141 210.799 298.117 210.063C298.031 210.316 298.706 209.386 299.463 209.451C299.532 208.899 299.609 208.286 300.211 207.996L300.199 208.014ZM304.067 204.954C303.97 204.947 303.872 204.949 303.773 204.96C303.472 204.961 303.22 204.97 303.622 204.647C303.792 204.721 303.947 204.82 304.087 204.942L304.067 204.954ZM303.994 204.382C304.009 204.357 304.025 204.334 304.042 204.311C303.999 204.373 304.08 204.403 304.112 204.451C304.067 204.435 304.032 204.406 304.006 204.364L303.994 204.382ZM303.078 205.563C302.998 205.679 302.926 205.785 302.899 205.937C302.857 205.862 302.809 205.789 302.758 205.722C302.896 205.635 302.99 205.594 303.09 205.546L303.078 205.563ZM302.746 206.222C302.261 207.156 301.734 208.066 301.163 208.954C301.011 208.496 301.266 208.111 301.753 207.469C302.241 206.827 302.634 206.288 302.402 205.867C302.483 206.024 302.601 206.136 302.758 206.205L302.746 206.222ZM298.093 212.356L297.829 212.109C297.936 211.96 298.066 211.846 298.222 211.765L298.148 212.276L298.093 212.356ZM303.389 205.453C303.541 205.428 303.684 205.44 303.82 205.489C303.745 205.53 303.669 205.545 303.592 205.536C303.515 205.526 303.451 205.493 303.402 205.434L303.389 205.453ZM304.472 204.334C304.444 204.364 304.411 204.384 304.373 204.396L304.472 204.334ZM306.175 201.737C306.117 201.791 306.057 201.84 305.994 201.886C305.669 201.728 305.375 201.525 305.111 201.277C305.373 201.445 305.652 201.577 305.952 201.674C306.028 201.693 306.108 201.708 306.187 201.719L306.175 201.737ZM305.63 184.958C305.667 185.056 305.666 185.161 305.627 185.27C305.257 185.336 304.908 185.304 304.58 185.173C304.928 185.048 305.278 184.977 305.63 184.958ZM296.629 194.134L297.012 194.033L297.5 194.487L298.11 195.038C297.6 194.775 297.111 194.477 296.645 194.145L296.629 194.134ZM299.696 197.319L300.509 198.141C299.755 198.848 299.837 198.003 299.71 197.33L299.696 197.319ZM304.799 194.81C304.962 194.832 305.014 194.789 305.059 194.886C304.947 194.548 304.5 194.5 304.008 194.278C303.738 194.214 303.495 194.1 303.276 193.937C303.058 193.773 302.88 193.569 302.74 193.326C303.373 193.15 303.743 194.017 303.875 193.794C304.848 193.996 304.649 193.833 304.238 193.509C303.827 193.188 303.156 192.594 303.832 192.825L304.088 193.002C304.522 193.132 303.93 192.698 303.187 192.016C302.908 191.824 302.676 191.532 302.463 191.308C302.365 191.21 302.275 191.104 302.192 190.99C302.125 190.944 301.996 190.776 302.177 190.836C302.177 190.836 302.478 191.044 302.742 191.226C301.412 189.799 302.598 189.417 303.557 189.256C303.887 190.228 303.458 189.737 304.388 190.808C304.523 190.758 304.213 190.336 303.908 189.89C303.603 189.445 303.41 188.999 303.919 188.972C304.777 189.544 305.446 190.306 305.926 191.256L305.294 191.172C305.825 191.903 305.908 191.897 306.067 191.809C306.226 191.724 306.311 191.456 306.518 191.625L306.589 192.183C306.797 192.181 306.977 192.092 307.129 191.917L307.514 192.664L307.312 192.264L307.478 192.588L308.226 194.069C307.945 193.523 308.09 193.831 308.426 194.52L308.229 194.71L308.149 194.826C308.149 194.826 308.111 194.799 308.107 194.887L308.217 195.211L308.677 196.494L308.788 196.819L308.83 196.952C308.72 197.035 308.603 197.094 308.476 197.126C308.221 197.178 307.976 197.167 307.744 197.09C307.524 197.03 307.326 196.927 307.155 196.781C306.981 196.636 306.846 196.457 306.746 196.246C306.048 195.844 305.404 195.369 304.813 194.821L304.799 194.81ZM291.136 221.232C290.521 221.316 290.083 221.145 289.74 221.272C290.09 221.2 290.429 221.068 290.754 220.875C291.078 220.681 291.369 220.44 291.628 220.148C292.021 219.788 292.46 219.565 292.945 219.479L291.563 220.613L292.973 220.28L293.229 220.262C292.597 220.79 291.905 221.117 291.151 221.242L291.136 221.232ZM295.547 220.595C295.162 221.074 294.616 221.479 294.319 221.392C294.285 221.199 294.975 220.539 295.118 220.233C294.632 220.681 294.284 220.766 294.03 220.683C293.724 220.49 293.382 220.395 293.005 220.394C293.195 220.284 293.392 220.203 293.597 220.149L296.218 219.479C296.052 219.883 295.835 220.259 295.562 220.605L295.547 220.595ZM297.034 219.924L296.689 220.168C296.629 220.217 296.574 220.27 296.522 220.328C296.429 220.427 296.332 220.521 296.229 220.608C295.999 220.811 295.759 220.997 295.509 221.168C295.735 220.372 295.914 220.273 296.1 220.166C296.284 220.06 296.391 219.937 296.337 219.418L297.847 219.036L297.776 219.366C297.537 219.567 297.303 219.744 297.072 219.951L297.034 219.924ZM329.323 178.857C329.323 178.857 329.347 178.951 329.934 177.973C329.382 179.224 328.313 180.692 329.097 179.654C328.902 179.936 328.671 180.272 328.487 180.538L328.193 180.4L328.229 180.347L328.199 180.391C328.572 179.527 328.918 179.139 329.376 178.071C329.159 178.834 328.853 179.567 328.459 180.271C329.149 179.077 329.291 178.887 329.338 178.868L329.323 178.857ZM327.952 180.377L327.681 180.19C327.813 179.982 327.919 179.764 327.998 179.536C327.952 179.699 327.893 180.011 327.873 179.944C327.956 180.016 327.974 180.184 327.967 180.388L327.952 180.377ZM327.744 180.678L327.442 180.47L327.708 180.731L327.744 180.678ZM329.456 177.213C329.277 177.925 329.011 178.611 328.658 179.272C328.474 179.669 328.305 180.06 328.129 180.525L327.985 180.426C328.336 179.303 328.841 178.242 329.501 177.244L329.456 177.213ZM330.225 178.018C331.048 177.163 329.448 179.321 328.538 180.625C329.948 178.532 329.663 178.962 330.246 178.085L330.225 178.018ZM328.765 181.617L328.189 181.05L328.772 181.608L328.765 181.617ZM330.774 179.884C330.585 180.054 330.389 180.214 330.185 180.365L329.942 180.59L329.675 180.784C329.531 180.88 329.399 180.958 329.267 181.036L328.891 180.856L328.853 180.83C328.868 180.805 328.885 180.781 328.902 180.758C329.073 180.641 329.213 180.582 328.95 180.883C329.709 180.363 330.148 179.936 330.891 179.455C331.204 179.438 331.062 179.692 330.795 179.95L330.774 179.884ZM333.567 175.835C331.646 177.927 333.13 176.081 331.753 177.545C332.022 177.365 332.3 177.209 332.588 177.077C332.824 176.993 332.913 177.106 332.571 177.535C330.953 179.028 332.428 177.163 330.802 178.924L331.663 177.836C328.794 180.867 331.932 177.446 328.909 180.62L328.878 180.664L328.84 180.638C328.816 180.666 328.796 180.694 328.779 180.727L328.613 180.612C329.366 179.611 330.17 178.656 331.024 177.747C330.713 178.197 330.609 178.348 330.098 178.896C330.492 178.438 330.769 178.133 330.973 177.933C331.176 177.735 331.116 177.823 331.132 177.848C331.15 177.872 331.037 178.083 331.39 177.765C331.531 177.64 331.743 177.447 332.042 177.158L331.514 177.745C332.762 176.388 333.619 175.453 334.337 174.669C334.216 174.926 335.264 174.004 333.94 175.44C334.099 175.209 333.57 175.718 333.204 176.055C333.302 176.042 333.431 175.95 333.558 175.88L333.567 175.835ZM330.339 181.176C330.445 181.249 330.513 181.296 330.374 181.449L330.339 181.176ZM317.371 204.736L317.369 204.657L317.467 204.724L317.371 204.736ZM314.373 209.792C314.44 209.695 314.507 209.597 314.574 209.5L314.734 209.702C314.612 209.755 314.488 209.801 314.363 209.838L314.373 209.792ZM321.452 209.756C320.808 210.094 320.247 210.229 320.077 209.538C319.951 209.947 320.181 210.002 320.361 210.047C320.541 210.093 320.631 210.155 320.074 210.593C319.83 209.864 319.586 210.008 319.192 210.259C318.797 210.508 318.152 210.846 317.867 210.323C318.481 209.546 318.972 210.028 318.503 209.209C318.416 209.347 318.309 209.464 318.181 209.562C317.801 209.821 317.523 209.499 317.379 209.112C317.234 208.725 317.271 208.267 317.075 208.132C316.619 208.536 316.32 208.291 316.192 207.798L316.095 207.456L316.596 207.085C316.902 206.801 316.931 206.389 316.955 205.95C317.194 205.606 317.45 205.278 317.724 204.966L317.905 205.091C317.981 204.673 318.048 204.237 318.11 203.81L318.424 203.87C318.383 203.822 318.333 203.787 318.273 203.766L318.175 203.698C318.183 203.611 318.195 203.523 318.211 203.436C318.509 203.55 318.815 203.644 319.13 203.718C319.05 203.832 318.755 203.824 318.494 203.801C318.914 203.999 319.305 204.529 319.609 203.943L319.131 203.862C319.109 203.717 319.144 203.58 319.236 203.451L319.469 203.468L319.657 203.194C320.052 203.061 320.447 202.981 320.845 202.957L320.882 203.581C321.053 203.334 321.254 203.121 321.456 202.895C321.395 203.812 321.506 204.68 321.786 205.497C321.731 205.576 321.623 205.619 321.511 205.685C321.612 205.698 321.715 205.7 321.819 205.69C321.902 206.024 321.914 206.372 321.857 206.734C321.666 206.445 321.481 206.148 321.315 205.825C321.43 206.669 321.604 207.491 321.841 208.289L321.901 207.782C322.07 207.989 322.176 208.285 321.255 208.719C321.6 208.605 321.958 208.473 322.322 208.333C322.304 208.643 322.356 208.926 322.479 209.185C322.115 209.457 321.748 209.648 321.443 209.802L321.452 209.756ZM322.292 208.377L322.79 208.187C322.398 208.046 321.909 207.852 322.57 207.394C322.339 207.408 322.108 207.435 321.877 207.478L321.943 206.833C322.712 207.962 323.252 206.275 323.276 207.999C323.171 207.927 323.226 208.07 323.26 208.394C323.289 208.588 323.305 208.786 323.307 208.987C323.034 209.004 322.765 209.071 322.5 209.187C322.466 208.915 322.393 208.661 322.282 208.424L322.292 208.377ZM324.814 206.464C324.692 206.641 324.515 206.688 324.313 206.771C324.336 206.605 324.39 206.446 324.473 206.295L324.814 206.464ZM327.578 202.199L328.218 201.609C328.161 201.759 328.074 201.891 327.959 202.004C327.844 202.117 327.713 202.196 327.568 202.244L327.578 202.199ZM324.897 206.874L324.855 207.613L324.259 207.202C324.256 207.11 324.269 207.028 324.273 206.94C324.49 206.906 324.705 206.885 324.919 206.876L324.897 206.874ZM321.505 217.034C321.221 216.448 320.956 215.847 320.64 215.289C320.324 214.732 320.179 214.345 319.872 213.885C319.782 213.823 319.724 213.68 319.65 213.563C320.112 213.426 320.513 213.162 320.851 212.773C320.899 212.898 321.251 212.774 321.472 212.744C321.693 212.715 321.925 212.732 321.91 213.125C323.063 212.342 321.465 212.819 321.498 212.384C321.866 212.039 322.265 211.753 322.699 211.524C323.132 211.295 323.577 211.135 324.036 211.043C324.169 211.28 324.243 211.544 324.258 211.835C323.996 212.215 323.067 212.319 322.917 212.568C323.673 212.619 324.009 213.777 324.538 214.494C324.6 214.758 324.656 214.968 324.686 215.198C324.591 215.242 324.503 215.303 324.426 215.382L324.686 215.393C324.664 215.867 324.557 216.333 324.367 216.79C323.954 215.775 323.905 217.203 324.068 215.723C323.901 216.417 323.702 216.868 323.629 217.312C323.585 217.725 323.619 218.118 323.729 218.493C323.839 218.868 324.018 219.194 324.264 219.472C323.963 219.343 323.786 219.521 323.752 219.876C322.755 219.164 322.014 218.218 321.526 217.036L321.505 217.034ZM329.906 204.744C330.027 204.544 330.159 204.353 330.302 204.17C331.043 204.08 330.506 205.196 330.441 205.322L329.906 204.744ZM328.744 207.073L328.682 207.162C328.702 207.141 328.719 207.117 328.732 207.091L328.744 207.073ZM332.758 203.318C332.75 203.653 333.038 203.654 333.48 203.66C334.045 203.019 333.346 202.419 334.192 202.127C334.293 202.548 334.368 202.978 334.415 203.417C334.554 203.071 334.677 202.722 334.784 202.367C334.848 202.176 334.917 201.963 335.008 201.751L335.142 201.427C335.142 201.427 335.216 201.321 335.234 201.294L335.337 201.273L335.426 201.257C335.474 201.333 335.498 201.418 335.499 201.515C335.5 201.612 335.478 201.705 335.432 201.797C335.408 201.841 335.38 201.882 335.347 201.921L335.295 202.158C335.258 202.311 335.233 202.465 335.223 202.618L335.449 202.29L335.544 202.266C335.684 202.248 335.824 202.213 335.96 202.161L335.646 202.374C335.927 203.129 335.32 203.284 335.16 204.127C333.906 204.349 332.682 204.758 331.489 205.353C331.208 205.76 331.155 205.932 331.201 206.093L330.507 205.341C330.98 205.167 331.415 204.905 331.81 204.553C332.205 204.203 332.528 203.791 332.779 203.32L332.758 203.318ZM322.86 220.266L323.747 220.029C323.749 220.158 323.762 220.285 323.785 220.408C323.845 220.631 323.925 220.843 324.025 221.044C323.392 221.285 322.796 221.487 322.881 220.268L322.86 220.266ZM324.568 220.87L324.496 220.572L324.692 220.851C324.658 220.853 324.624 220.86 324.59 220.872L324.568 220.87ZM325.844 221.828C326.284 222.042 326.763 222.112 327.28 222.037C327.325 222.123 327.33 222.217 327.296 222.32C327.231 222.51 327.075 222.495 327.645 223.202C326.272 222.255 326.35 222.191 326.551 222.642C326.656 222.846 326.751 223.159 326.66 223.227C326.568 223.293 326.314 223.066 325.946 222.277L326.464 223.43C326.803 224.552 326.08 222.761 325.99 222.504C326.306 223.4 326.455 223.555 326.631 224.172C326.378 224.78 325.767 223.811 325.512 223.034C325.435 222.815 325.391 222.585 325.378 222.343C325.472 222.394 325.572 222.432 325.677 222.457C325.556 222.374 325.458 222.306 325.345 222.228C325.232 222.15 325.337 222.079 325.345 222.019C325.356 221.899 325.388 221.782 325.442 221.668C325.568 221.728 325.698 221.775 325.834 221.809L325.844 221.828ZM345.922 197.367C345.014 197.602 343.956 197.812 343.329 197.9C343.784 197.856 344.226 197.882 344.654 197.979C343.86 198.032 343.676 198.009 343.175 198.042C345.013 198.006 341.023 198.241 342.727 198.19C343.192 198.145 343.872 198.144 344.213 198.118C343.008 198.253 342.819 198.331 342.849 198.483L342.818 198.527L341.944 198.406C341.73 198.442 341.765 198.506 341.779 198.645C341.772 198.72 341.746 198.789 341.702 198.853C341.658 198.917 341.602 198.966 341.535 198.999C341.799 199.181 342.59 199.923 342.37 200.161C342.157 199.937 341.957 199.695 341.755 199.439C341.926 199.998 342.171 199.594 342.241 200.347C341.955 200.424 341.736 199.999 341.652 199.588C341.73 199.462 341.76 199.332 341.744 199.196C341.562 199.188 341.38 199.196 341.193 199.22C341.191 199.113 341.177 199.008 341.154 198.907C341.068 199.629 339.466 198.837 339.399 200.031L339.249 199.797L339.018 199.937L338.975 199.999C338.356 200.385 337.758 200.807 337.178 201.265C337.028 201.162 336.802 201.149 336.641 201.078C336.713 201.16 336.726 201.26 336.679 201.377C336.606 201.571 336.492 201.736 336.337 201.873C335.984 202.191 335.855 202.088 335.685 201.867C335.541 201.644 335.43 201.403 335.351 201.14C335.519 201.12 335.686 201.087 335.853 201.043C335.791 200.831 335.69 200.649 335.55 200.493C335.41 200.337 335.241 200.222 335.046 200.147L334.918 200.059C334.918 200.059 334.844 200.165 334.808 200.218C334.711 200.343 334.622 200.472 334.539 200.607C334.35 200.881 334.23 201.216 334.094 201.512C333.955 201.809 333.83 202.087 333.706 202.316C333.567 202.572 333.389 202.798 333.174 202.992L332.87 201.673C332.722 202.276 332.558 202.867 332.375 203.471C331.947 203.463 331.39 203.092 331.816 202.473C330.694 202.73 331.357 203.462 330.318 203.516C330.19 203.491 330.183 203.422 330.23 203.323C330.022 203.624 329.852 203.95 329.672 204.244C329.68 203.91 329.08 203.665 329.649 203.406C329.426 203.484 329.213 203.595 329.011 203.734L328.83 203.61C328.442 203.193 328.223 202.677 328.173 202.061C328.362 202.061 328.525 201.809 328.641 202.188C328.552 201.951 328.452 201.72 328.339 201.497L328.696 201.157C328.655 201.078 328.663 200.997 328.72 200.912C328.62 200.954 328.529 201.017 328.451 201.102C328.373 201.187 328.316 201.283 328.279 201.391C327.71 200.345 326.908 199.557 326.377 198.486L326.05 197.831L327.073 197.961C327.795 197.625 328.469 197.294 329.1 196.959C329.38 196.957 329.372 197.355 328.922 197.554C330.065 197.833 329.342 196.945 330.208 196.563C330.927 196.472 330.894 197.036 330.268 197.347C330.953 197.128 331.71 196.868 332.526 196.687C333.341 196.505 334.244 196.293 334.589 196.179C335.037 196.04 335.48 195.993 335.919 196.038C336.358 196.083 336.76 196.217 337.125 196.44L336.822 196.701C337.827 197.067 338.277 194.834 339.143 195.692L338.934 195.849C339.5 195.943 340.075 195.992 340.66 195.994L341.467 196.017C341.605 196.01 341.74 196.012 341.874 196.023C342.396 196.057 342.907 196.252 342.492 196.919C343.194 196.32 343.308 196.477 343.403 196.582C343.497 196.687 343.629 196.738 345.052 195.932C344.727 196.327 344.348 196.649 343.919 196.899C343.544 197.135 343.244 197.36 342.803 197.629C342.684 197.705 345.372 196.792 346.083 196.761L343.897 197.432C344.729 197.21 345.619 197.014 346.539 196.827C345.669 197.088 344.764 197.352 343.812 197.555L344.585 197.45C345.142 197.259 345.703 197.101 346.267 196.98C346.628 196.94 346.771 196.975 346.735 197.027C346.698 197.08 346.366 197.255 345.943 197.368L345.922 197.367ZM285.778 219.819C285.82 219.704 285.846 219.587 285.854 219.468C285.826 219.58 285.812 219.692 285.812 219.803L285.778 219.819ZM333.317 186.57C333.317 186.57 333.264 186.534 333.302 186.43C333.224 186.469 333.149 186.518 333.078 186.576L333.327 186.748L333.317 186.57ZM294.034 195.123C294.055 195.077 294.084 195.035 294.119 194.999C294.119 194.999 294.076 195.061 294.052 195.096L294.034 195.123ZM343.49 197.634L343.993 197.485L343.522 197.603L343.49 197.634ZM293.668 220.238C293.668 220.238 293.668 220.238 293.713 220.269C294.002 220.077 293.873 220.119 293.642 220.18L293.668 220.238ZM299.504 209.519C299.49 209.749 299.451 209.978 299.386 210.208C299.619 209.95 299.813 209.732 299.459 209.488L299.504 209.519ZM298.822 210.848C298.956 210.794 299.073 210.71 299.175 210.596C299.275 210.48 299.345 210.352 299.386 210.208C299.132 210.336 298.935 210.529 298.794 210.79L298.822 210.848ZM300.188 181.152C300.399 181.297 300.595 181.433 300.806 181.578L301.274 181.901C301.261 181.5 301.264 180.981 301.747 181.119C301.383 180.372 301.355 180.573 301.259 180.874C301.215 181.029 301.127 181.156 300.997 181.254C300.807 181.384 300.559 181.356 300.161 181.095L300.188 181.152ZM296.102 178.059C296.817 178.345 295.996 177.372 295.983 177.117C295.509 177.142 295.453 177.207 296.074 178.001L296.102 178.059ZM298.496 202.156C298.762 202.208 298.725 201.922 299.087 201.558L298.496 202.156ZM298.385 204.285L298.302 204.227C298.346 204.314 298.374 204.408 298.388 204.508L298.385 204.285ZM311.698 218.686L311.144 218.004C310.868 218.323 311.259 219.258 311.652 218.655L311.698 218.686ZM321.414 228.637C321.035 228.089 320.913 227.3 320.64 227.177C320.425 227.733 320.775 228.693 321.368 228.607L321.414 228.637ZM359.603 196.585L360.017 195.985L359.489 196.299C359.516 196.382 359.538 196.467 359.557 196.555L359.603 196.585ZM334.266 204.02C334.385 203.847 334.462 203.661 334.497 203.46C334.406 203.607 334.309 203.749 334.204 203.885L334.266 204.02ZM316.459 208.283C316.684 208.168 316.903 208.145 317.118 208.215C317.282 208.066 317.437 207.908 317.581 207.739C317.509 207.584 316.775 208.083 316.414 208.251L316.459 208.283ZM330.317 203.357L330.519 203.065C330.411 203.108 330.318 203.227 330.266 203.335L330.317 203.357ZM296.118 216.46L296.228 216.301L295.974 215.943L296.118 216.46ZM333.966 204.165C333.846 204.294 333.722 204.416 333.591 204.532C333.723 204.42 333.834 204.287 333.921 204.134L333.966 204.165ZM306.739 196.11L306.777 196.266L306.89 196.344L306.739 196.11ZM333.981 203.691C334.063 203.88 334.064 204.024 333.966 204.165C334.033 204.068 334.1 203.971 334.174 203.865C334.247 203.758 334.04 203.655 333.913 203.645L333.981 203.691ZM318.061 205.316L317.895 205.201L317.837 205.527L318.061 205.316ZM317.839 208.751C318.361 208.864 318.112 208.274 318.266 208.132C317.827 208.235 317.678 208.21 317.794 208.72L317.839 208.751ZM324.212 214.53L323.473 214.504C323.502 215.189 323.708 214.47 324.189 214.515L324.212 214.53ZM307.311 195.944C307.372 196.194 307.453 196.446 307.536 196.698C307.708 196.609 307.44 195.758 307.265 195.912L307.311 195.944Z" fill="#FF789D"/>
</g>
<path d="M178.901 91.4431C178.667 91.1947 180.577 89.5386 176.539 91.405C173.505 93.0047 170.653 94.7463 167.971 96.6202C165.438 98.4899 163.113 100.453 160.977 102.516C158.901 104.506 157.024 106.566 155.341 108.683C153.78 110.749 152.385 112.854 151.151 114.985C148.718 119.197 146.918 123.449 145.754 127.728C144.512 132.112 143.755 136.465 143.485 140.788C143.291 140.331 143.186 139.847 143.199 139.335C142.603 144.982 142.873 150.485 143.999 155.846C145.13 160.847 145.969 165.617 146.59 170.039C147.216 171.62 148.585 176.421 149.156 174.712C148.878 172.647 149.904 172.123 150.61 172.102C151.806 175.864 151.717 176.866 151.387 177.602C151.06 178.343 150.596 178.78 151.386 181.288C150.15 183.325 149.492 178.345 148.025 178.703L150.942 185.839C151.736 190.087 153.801 193.975 154.35 197.714C153.976 196.084 152.87 197.574 152.659 194.737C152.859 195.125 152.885 194.819 153.082 195.2C151.426 189.435 151.288 191.746 149.558 187.656C150.423 189.789 151.358 192.193 152.209 194.574C153.17 197.308 154.279 199.917 154.862 202.074C155.654 200.813 156.554 205.341 157.798 206.263L157.799 206.554C158.285 206.409 159.719 208.845 160.201 209.582L159.252 211.059C160.22 212.802 159.731 210.319 160.685 212.053C161.054 212.661 161.551 213.697 162.161 214.89C162.764 216.092 163.479 217.45 164.087 218.779C165.303 221.444 166.141 223.965 165.615 224.522C167.41 227.461 168.684 228.028 170.241 231.167C169.748 231.064 169.185 230.372 168.942 230.329C170.559 233.687 173.027 237.177 175.191 240.723C177.453 244.24 179.884 247.632 181.542 250.781C184.631 254.715 188.235 258.379 192.354 261.774C191.159 260.607 188.429 256.851 191.082 258.76C192.901 260.234 194.545 261.816 195.987 263.498C194.937 263.379 199.51 268.616 195.759 265.05C194.987 266.799 203.548 272.889 202.014 273.586C203.173 274.282 208.289 279.466 211.016 280.966C210.838 281.731 207.726 278.455 207.305 278.689L209.92 280.901L209.507 281.127C210.926 282.803 212.786 284.211 215.061 285.345C216.758 286.091 218.301 286.944 219.694 287.916L219.423 287.915L221.612 289.51L218.194 288.128C221.43 290.811 224.231 291.531 228.081 294.349L228.106 294.85L230.685 296.388C230.253 296.131 229.971 296.128 230.118 296.375C233.234 297.386 237.754 301.298 240.626 302.234C241.987 303.439 242.015 305.186 244.873 306.112L243.25 306.632C238.067 303.027 242.25 304.688 236.488 301.067C238.784 305.022 250.056 312.888 257.101 318.226C260.668 320.58 263.919 323.13 266.869 325.858C268.447 327.181 269.768 328.48 271.093 329.445C272.042 330.245 273.193 330.89 274.545 331.379L273.24 331.303L276.755 335.508L279.879 339.825C281.299 341.588 282.63 343.405 283.828 345.242L285.399 348.045L286.175 349.418C286.402 349.879 286.57 350.357 286.778 350.823C287.531 352.685 288.467 354.431 288.925 356.198C289.509 357.927 290.241 359.531 290.624 361.069L290.033 362.954C290.965 364.918 291.419 366.991 291.387 369.182C291.388 371.865 291.01 374.574 290.244 377.318C288.736 382.898 285.993 388.213 285.753 390.744C282.513 394.533 285.459 389.355 285.193 388.906C284.103 390.296 283.357 392.288 282.073 394.197C281.517 395.137 280.869 396.062 280.137 396.966C279.456 397.746 278.632 398.46 277.654 399.112C277.258 398.98 280.74 395.172 278.93 396.833C277.912 397.551 277.175 398.354 276.721 399.249C276.224 400.231 275.375 401.082 274.174 401.801C275.911 401.098 272.308 405.937 268.641 409.136C268.944 408.849 269.302 408.592 269.71 408.355C270.244 408.249 269.803 408.774 269.046 409.496C268.291 410.223 267.111 411.085 266.351 411.739C266.408 411.546 266.542 411.357 266.749 411.186C261.774 415.455 256.286 419.395 250.278 423.017C247.252 424.926 243.961 426.65 240.686 428.416C237.291 430.063 233.887 431.746 230.291 433.203C223.115 436.219 215.704 438.784 208.073 440.906C200.542 442.978 192.948 444.649 185.277 445.916C187.121 445.438 188.937 444.888 190.74 444.388C185.994 445.606 181.212 446.442 176.4 446.907L177.028 446.766C174.268 446.82 171.506 447.187 168.731 447.862C166.378 448.512 164.076 448.72 161.835 448.483L163.059 448.259C153.394 449.256 147.929 448.5 138.508 449.342C131.321 449.102 132.282 448.578 127.439 448.097C125.259 447.997 123.049 448.219 120.812 448.773L122.798 448.876C124.78 449.516 118.236 449.26 115.15 449.425C117.006 450.394 115.2 451.863 123.444 452.959C129.865 452.717 129.137 454.493 136.458 454.226C140.895 452.876 146.712 454.828 153.663 453.2C149.939 454.316 161.632 453.044 155.592 454.418C158.549 454.427 161.534 454.137 164.544 453.567C168.201 452.906 171.841 452.46 175.47 452.241C174.599 452.542 174.803 452.711 173.526 452.999C181.053 451.436 178.707 452.823 184.339 451.862L184.057 451.052C186.187 450.414 186.894 450.886 188.802 450.349C187.266 450.579 184.037 450.739 185.689 450.096C188.13 449.365 190.591 448.716 193.084 448.152C193.167 448.459 191.259 448.997 189.966 449.357C189.966 449.357 191.472 449.075 193.035 448.831C194.191 448.566 195.334 448.441 196.474 448.452C194.377 449.235 191.587 449.786 189.743 450.637C197.756 449.274 190.404 450.784 194.42 450.646C193.158 449.878 201.276 448.735 205.497 447.301C206.05 447.563 202.531 448.217 201.528 448.774C205.209 448.608 208.777 447.824 212.234 446.429C216.145 444.858 220.126 443.416 224.174 442.095C223.559 442.476 222.903 442.801 222.177 443.059C224.269 442.263 226.391 441.547 228.555 440.912C230.357 440.468 232.007 439.791 233.497 438.89C235.82 438.018 236.201 438.169 236.87 438.165C237.542 438.167 238.557 438.046 241.976 436.406C240.624 436.465 242.666 435.562 245 434.518C247.295 433.457 249.768 432.148 249.449 431.701C251.305 430.997 253.154 430.273 254.949 429.465C256.867 428.003 256.179 427.843 256.077 427.426C255.92 426.979 256.499 426.419 260.376 423.835C267.991 419.481 261.343 425.49 266.155 423.121L267.298 421.525L271.161 419.366L270.684 419.766C272.587 418.207 276.23 415.463 276.615 415.652C276.568 416.046 274.426 417.717 274.377 418.105C275.395 417.129 276.547 416.221 277.812 415.382C279.329 414.324 280.978 413.038 282.664 411.767C284.297 410.553 285.776 409.25 287.081 407.883C288.217 406.845 288.967 405.733 289.338 404.558C291.243 402.978 294.41 399.455 294.629 400.067C295.475 398.343 296.668 396.678 298.18 395.087C299.692 393.265 300.913 391.388 301.836 389.466C302.011 389.847 303.892 387.535 304.65 385.607C302.862 388.108 303.356 386.456 303.698 384.714C304.828 382.999 305.747 381.267 306.461 379.509C307.23 377.523 307.912 375.679 308.729 375.177C308.953 373.409 308.534 372.871 308.159 372.678C307.772 372.482 307.264 372.628 306.86 372.274C307.223 371.481 307.517 370.681 307.728 369.887L308.16 368.388L308.409 366.918C308.741 365.036 309.125 363.552 309.859 364.065C309.732 365.024 309.552 366.562 309.522 367.75C309.492 368.938 309.403 369.825 310.012 369.372C310.668 367.488 310.383 367.133 310.269 366.829C309.851 366.235 309.693 365.585 309.791 364.864C310.067 365.053 310.803 362.718 311.229 363.221C311.255 361.444 310.876 359.051 310.873 356.537C310.632 360.506 309.529 354.311 309.185 356.738L310.707 360.186C310.854 360.866 310.846 361.567 310.694 362.283C310.597 362.631 310.482 362.672 310.35 362.637C310.084 362.561 309.776 362.145 309.557 363.03C309.571 361.542 309.346 360.105 308.858 358.72C308.603 357.895 308.269 357.094 307.868 356.313C306.7 354.412 305.723 352.442 304.908 350.416C304.743 348.94 304.438 347.494 304.004 346.079C304.99 348.243 306.184 347.418 305.916 346.069C305.282 345.276 304.793 344.433 304.445 343.534C304.064 342.693 303.733 341.898 303.492 341.082C303.031 339.682 302.818 338.221 302.191 336.925C302.531 337.745 302.358 338.061 302.068 338.039C301.478 337.85 300.986 337.577 300.605 337.224C295.826 331.844 299.535 334.779 298.35 332.024C296.536 329.958 295.095 327.964 293.608 326.193C292.086 324.446 290.777 322.745 289.363 321.196C287.958 319.645 286.54 318.172 285.017 316.738C283.447 315.351 281.78 313.994 279.868 312.648L282.019 316.043L284.114 316.378C285.814 319.006 281.357 317.278 279.266 316.461C279.282 315.928 274.88 312.53 277.128 313.591L272.519 310.506C272.708 311.269 275.595 313.311 273.172 312.045C272.149 310.732 268 307.258 271.326 308.999C269.104 307.259 265.882 305.276 265.813 306.015C262.109 303.323 267.448 305.499 269.46 306.509C266.65 304.267 267.875 304.015 269.022 304.505L264.859 301.571C266.013 302.052 266.415 301.796 267.557 302.274C265.268 300.066 262.273 299.35 260.826 297.168L258.992 296.951C252.382 291.158 253.217 291.654 246.733 286.602L247.212 287.821C241.237 284.697 244.651 284.427 237.794 279.562C233.99 276.777 231.47 274.991 230.886 275.972C229.398 275.15 228.499 274.051 228.209 272.674C224.914 271.045 222.269 269.011 220.272 266.574C222.171 267.916 223.697 268.984 225.329 270.304C225.946 269.327 220.471 265.376 218.791 262.687L213.279 258.754C211.043 257.004 208.597 255.101 206.768 253.772C207.106 255.595 205.355 255.685 202.038 253.277C203.05 253.408 199.652 249.052 198.575 246.846C200.003 247.537 196.713 241.685 200.287 245.758C200.898 247.127 200.413 248.112 202.053 249.627C201.416 247.066 200.449 244.605 199.17 242.237C200.522 242.984 201.57 243.903 202.335 244.989C201.421 244.341 201.561 244.888 201.375 245.113C206.141 249.826 202.119 243.319 203.551 243.703C202.207 242.486 200.333 239.456 200.668 241.124C200.45 237.693 193.858 233.331 193.442 229.715C193.18 229.651 193.725 231.622 191.968 229.709C190.837 228.367 190.299 226.848 190.347 225.16C188.849 223.589 187.643 221.904 186.742 220.08C185.109 218.122 186.294 222.979 183.857 220.293C181.475 218.73 181.138 215.557 179.602 213.253C178.984 210.05 181.623 215.954 182.627 217.016L177.995 208.97C177.765 207.636 178.176 207.811 178.76 208.646C179.558 209.763 180.222 210.926 180.754 212.142C179.787 208.644 177.349 204.542 175.9 203.878C175.153 202.15 174.561 200.37 174.138 198.551C175.411 200.386 177.165 199.698 178.766 202.668C180.84 207.732 176.648 201.262 178.259 205.639L179.439 205.671C179.929 207.524 180.823 209.241 182.126 210.81C182.41 211.971 181.65 210.695 181.137 210.021C183.007 213.473 183.701 216.504 186.368 218.653C184.785 213.686 180.041 207.016 180.397 204.504C178.518 201.488 176.647 198.464 175.032 195.343C174.555 195.485 175.039 199.108 173.315 196.562C174.152 195.044 173.485 192.059 172.529 188.184C171.631 189.971 169.433 182.417 168.954 184.627C169.725 185.528 169.84 186.557 169.311 187.711C168.08 184.028 167.92 187.552 167.214 185.527C166.304 182.093 166.533 182.099 166.799 182.114C167.064 182.13 167.315 182.163 166.718 178.73C167.215 179.361 167.971 180.51 168.91 181.916C169.858 183.319 170.908 184.99 171.762 186.747C172.276 186.329 170.534 183.103 170.733 181.384C170.695 183.733 168.992 180.204 169.247 182.066L165.773 173.646C164.526 170.672 163.592 167.462 162.751 164.156C164.937 164.762 166.47 175.071 168.469 172.385C167.427 169.234 166.524 169.451 166.138 166.808C166.392 164.95 166.239 163.159 165.674 161.452C165.249 159.255 164.63 156.797 164.295 154.553L163.963 156.665C163.312 154.468 163.043 152.197 163.168 149.849L163.482 150.311C163.304 149.693 163.085 149.081 162.949 148.458C162.994 148.146 163.061 148.065 163.133 148.057C162.355 146.04 162.972 140.509 163.186 136.467C162.147 136.555 162.687 140.527 162.548 142.493C162.292 143.05 161.848 146.91 161.175 145.174C161.184 140.069 160.316 136.575 161.651 130.706L160.959 132.581C160.948 130.219 161.489 127.827 162.565 125.418C165.093 120.453 162.54 129.098 164.201 126.087C164.196 127.227 163.99 128.38 163.593 129.542C163.272 130.702 163.198 131.687 163.746 131.909C164.409 130.85 165.064 129.8 165.849 128.778C165.837 127.508 166.212 126.23 166.964 124.948C167.599 123.728 168.275 122.618 168.628 121.773C168.116 122.367 167.651 122.974 167.235 123.593C166.292 123.157 167.92 121.47 168.469 120.628L166.396 121.764C164.895 124.537 165.55 126.483 164.098 128.551C164.403 127.002 164.574 125.467 164.608 123.946C164.728 122.162 165.334 120.374 166.408 118.596C166.76 118.497 166.643 118.79 166.454 119.178C166.242 119.594 166.139 120.011 166.132 120.427C166.769 119.355 167.294 118.276 167.718 117.187C168.265 115.79 169.134 114.446 170.326 113.154C169.811 114.087 169.375 115.031 169.027 115.975C168.924 116.711 169.119 116.883 170.235 115.823L170.381 113.991C171.574 112.617 171.509 113.28 172.007 112.732C173.874 110.905 170.597 112.896 173.513 109.943C174.103 109.556 175.35 108.729 175.108 109.208C178.561 106.012 176.464 107.575 179.661 104.504C176.421 106.998 174.906 106.537 178.383 103.694C183.752 100.101 188.117 97.7502 193.012 97.0161L195.822 95.6531C194.979 96.3187 196.031 95.9497 197.611 95.6053C199.199 95.1974 200.803 94.8594 202.413 94.5942C202.769 94.8805 200.238 95.4012 197.648 96.0211C195.081 96.7354 192.536 97.7075 192.829 98.2568C197.035 97.1262 195.314 98.0479 194.174 98.7554C198.48 97.3441 195.471 97.3707 197.351 96.3267C198.587 96.2752 199.82 96.1024 201.059 95.7993C202.715 95.5135 204.047 95.5753 202.652 96.0675C204.093 95.9003 205.508 95.6054 206.902 95.1678C208.087 94.8671 209.281 94.706 210.465 94.6902C209.929 95.0474 209.33 95.4978 209.524 95.9004C210.306 95.7069 211.073 95.6466 211.818 95.7285L214.346 95.9203C213.699 95.7547 215.984 95.2401 212.387 95.4293C213.962 95.1 215.488 95.0157 216.966 95.1764C218.898 95.3366 220.706 95.4862 220.734 95.2137C220.749 95.8596 228.217 96.2728 231.621 97.3272C232.05 96.4533 230.22 96.3035 228.307 96.1647C226.385 96.0016 224.308 96.0883 224.096 95.2641C228.054 95.4613 231.801 96.0198 235.333 96.9272C239.787 97.8703 244.418 99.2551 248.466 100.096C254.488 102.623 247.873 100.707 248.61 101.747C242.548 100.066 241.468 99.1491 235.994 98.1117L245.988 101.103C249.526 102.171 252.916 103.189 255.127 103.719C261.073 105.957 259.867 107.816 267.205 110.504C266.833 109.599 267.09 109.535 265.155 108.414C267.285 109.22 269.291 110.123 271.202 111.123C272.791 111.379 268.51 109.341 271.62 110.334C272.608 110.919 274.857 112.041 274.019 112.17L273.503 112.006C280.701 114.581 276.995 115.372 283.818 117.035C283.647 116.579 282.026 116.325 280.799 115.534C280.148 114.665 284.319 115.747 287.155 116.788C286.302 116.908 289.414 117.908 291.158 118.863C291.764 119.989 286.302 116.908 284.935 116.87L289.984 119.282L289.008 118.7L295.209 120.692C291.109 119.108 294.125 119.16 295.905 119.867C299.668 121.735 303.443 123.607 302.268 124.02C303.443 123.607 308.24 125.809 311.822 127.224C308.335 125.313 311.963 126.477 313.281 126.76L318.179 129.921C312.059 127.424 318.786 131.047 316.913 130.843C314.464 130.715 311.263 128.76 308.243 127.259C313.012 131.17 317.519 130.498 322.189 133.457C321.855 133.747 321.004 133.873 318.745 132.754C319.454 133.375 324.211 134.376 327.412 136.332C326.71 135.702 325.34 134.214 329.186 135.583L333.06 138.408C338.338 141.029 335.785 138.493 340.675 140.193L338.281 138.369C339.454 137.95 344.362 141.109 345.286 140.487C342.52 139.201 340.337 139.034 337.63 137.5C337.288 136.329 341.765 138.83 343.865 139.238C346.911 140.752 349.711 142.448 352.264 144.32C351.235 145.441 343.314 142.236 342.722 144.032C349.201 146.477 355.364 149.205 361.202 152.221C366.852 154.303 367.316 153.263 367.227 152.307C368.906 152.916 370.419 153.662 371.75 154.558L368.88 153.771C375.833 156.385 380.003 157.752 387.334 160.652C391.742 162.049 390.685 160.76 390.201 159.875C391.734 160.412 393.332 160.896 394.906 161.4L394.34 161.014C396.043 160.68 399.942 162.278 403.206 163.163C402.948 163.485 400.89 163.017 400.914 163.254C403.916 164.421 407.227 165.171 410.866 165.498C410.668 165.808 407.987 166.157 404.577 165.057C404.266 164.892 404.543 164.823 404.23 164.653C402.153 164.278 400.077 163.877 398.057 163.425C404.995 165.047 408.73 166.639 408.004 167.385C415.565 168.448 402.682 165.428 411.507 166.831C416.553 168.43 422.094 169.183 428.136 169.082C432.859 168.84 437.474 168.915 441.974 169.316C443.549 168.986 445.193 168.582 446.907 168.164C448.623 167.663 450.423 167.24 452.298 166.617C456.522 165.332 460.653 163.858 464.691 162.195C464.504 161.898 465.991 161.277 467.286 160.577C468.582 159.878 469.734 159.201 469.031 159.086C464.75 160.768 460.98 162.452 457.193 163.891C453.595 165.402 449.859 166.257 445.999 166.437C442.025 167.349 443.353 167.744 441.519 168.307C437.882 168.847 434.491 168.92 434.109 168.567C438.294 168.073 438.884 167.598 439.742 167.145C440.597 166.685 441.694 166.35 446.803 165.464C444.921 165.465 443.009 165.618 441.079 165.924C438.594 166.221 436.129 166.397 433.68 166.446C434.799 166.111 433.789 165.783 431.587 165.595C435.311 164.968 439.004 164.201 442.676 163.291C441.667 163.743 443.514 163.65 442.675 163.949C446.008 163.175 449.285 162.22 452.481 161.08C455.557 160.688 456.562 160.8 455.047 161.633C458.235 160.76 461.274 159.633 464.164 158.253C465.545 157.609 466.72 156.993 467.643 156.628C468.535 156.239 469.129 156.034 469.338 156.216C475.319 152.609 466.986 156.981 466.172 156.859L466.676 156.559C464.478 157.678 462.191 158.674 459.804 159.552C459.487 159.369 459.828 159.124 460.547 158.821C461.259 158.527 462.29 158.103 463.402 157.695C465.595 156.822 467.981 155.714 468.023 155.017C467.86 154.497 468.337 153.981 469.201 153.458C470.259 152.789 471.381 152.175 472.557 151.62C475.37 150.296 477.674 148.651 479.457 146.687C479.181 147.393 478.955 148.145 478.577 148.868L477.364 151.082C478.491 149.965 479.521 148.816 480.432 147.642C480.069 148.49 479.802 149.335 479.622 150.182C479.304 151.382 478.57 152.509 477.417 153.559C479.064 152.355 480.613 151.091 482.059 149.784C483.531 148.375 484.856 146.921 486.036 145.422C487.128 144.038 488.059 142.628 488.839 141.188C489.386 140.082 489.823 138.969 490.139 137.851C491.31 136.504 492.211 135.848 492.76 136.477C492.889 134.141 493.229 131.789 493.779 129.422L494.309 126.309C494.413 125.201 494.385 124.118 494.253 123.046C493.332 120.767 493.32 122.031 493.273 123.435C493.124 124.882 492.956 126.45 492.198 124.834C492.38 123.878 492.307 122.965 491.973 122.103C491.744 121.263 491.409 120.456 490.976 119.677C491.56 120.973 491.854 122.335 491.882 123.763C491.903 124.712 491.928 125.728 491.902 126.725L491.625 129.62C491.623 126.992 490.523 127.463 490.039 126.836C489.994 128.272 490.039 129.689 489.776 131.15C489.111 131.078 489.235 129.767 489.202 128.265C489.324 126.833 489.145 125.463 488.646 124.163C490.044 125.12 489.981 124.434 491.346 125.448C490.525 121.818 488.762 116.661 488.017 113.611C487.674 111.776 489.311 114.809 490.003 115.645C490.492 114.584 487.989 112.413 488.577 111.444C489.618 111.681 489.689 113.483 490.475 114.596C489.104 111.205 487.337 107.967 485.168 104.869C485.592 104.674 487.446 106.904 488.164 108.498C486.985 105.416 484.609 102.949 481.044 101.089C479.041 97.9419 476.756 94.3637 478.257 95.0188C476.84 93.8372 477.211 94.912 476.776 95.137C473.63 91.1935 471.726 91.54 469.743 89.254L470.412 91.3844C468.098 87.2662 468.286 91.1672 466.223 87.5432C467.505 87.7015 468.321 87.0233 468.82 86.0472C467.516 85.8887 466.662 83.4407 465.674 81.9885C465.4 83.2767 462.769 79.1515 463.465 81.8977C460.535 78.7026 460.9 76.6213 458.654 74.2987C458.874 75.2018 458.261 74.4909 457.683 73.729C457.095 72.9699 456.489 72.162 456.403 73.0281C455.103 69.2771 456.256 66.3838 457.34 67.2521C457.305 68.5432 457.431 70.6942 458.18 70.3547C457.549 68.1854 457.292 65.9449 457.416 63.6241C457.786 62.7343 458.145 61.7322 458.512 60.9243C458.972 60.1023 459.495 59.4781 460.061 59.3426C459.97 57.9196 460.435 56.5065 461.453 55.0971C461.932 54.3845 462.365 53.6653 462.731 52.9391C463.112 52.3708 463.289 51.803 463.272 51.239C463.132 51.789 462.893 52.3348 462.556 52.8764C462.321 53.3464 462.029 53.8067 461.666 54.2539C461.081 54.8834 460.555 55.5287 460.099 56.187C460.191 55.8274 460.225 55.458 460.361 55.0989L460.062 55.6561C459.907 54.6113 459.896 53.544 459.835 52.4306C458.701 53.8749 458.929 54.0505 459.159 54.3747C459.377 54.6957 459.572 55.1589 458.762 57.2377C457.176 59.0342 457.291 56.9802 457.661 54.8231C457.94 53.7503 458.216 52.6714 458.279 52.0901C458.402 51.5247 458.131 51.4365 457.304 52.4025C455.023 55.6335 456.988 55.2211 456.533 57.8712L456.848 57.1809C456.339 59.1695 456.082 61.1369 456.08 63.0893C455.437 63.4239 455.236 61.6479 455.236 61.6479C454.728 64.3005 454.52 66.9173 454.603 69.5013C454.75 72.2559 455.373 74.895 456.472 77.4188C456.492 76.8097 457.59 74.9223 459.381 77.8487C460.923 79.8534 460.074 80.4735 461.065 82.2774C459.706 81.424 458.847 80.3463 458.486 79.0382L457.322 79.5969C456.231 78.3041 454.924 77.1299 453.405 76.0805C452.802 75.5971 452.335 75.0456 452.025 74.4203C451.294 73.135 450.772 71.7734 450.446 70.3597C449.47 69.229 449.022 67.9471 449.11 66.5112C448.995 65.3123 449.038 64.1001 449.245 62.8657C449.398 61.6004 449.71 60.3279 450.184 59.0543C449.696 59.8305 449.152 60.6303 448.708 61.4342C448.558 58.9313 449.006 58.6548 449.471 58.2513C449.926 57.8506 450.499 57.2726 451.296 54.0051L453.7 51.9095C454.465 51.2671 455.29 50.6679 456.193 50.106C457.671 49.2025 458.587 49.1047 458.176 50.8337C461.304 46.8613 461.704 45.2776 465.477 41.8982C468.766 40.3713 465.459 43.435 466.963 43.4929C469.257 41.1322 472.964 38.3826 470.12 39.539C471.176 38.9245 472.293 38.3531 473.358 37.7629C474.469 37.2066 475.658 36.7422 476.78 36.2437C477.092 36.3263 474.739 37.4646 473.829 37.9202C476.381 36.7087 481.229 34.2338 482.921 33.6119C482.313 33.8348 480.49 34.4551 479.676 34.6786C480.487 34.2732 481.34 33.9229 482.225 33.6306C483.178 33.2573 484.134 32.9235 485.112 32.6172C486.384 32.3175 487.617 31.9416 488.82 31.4865C487.132 31.9175 485.422 32.2329 483.712 32.4332C482.961 32.5634 482.23 32.7212 481.492 32.9152C481.04 33.037 480.585 33.18 480.139 33.3473C479.678 33.5599 479.163 33.8022 478.594 34.1014C478.889 33.7624 479.449 32.8628 482.232 32.2665C480.102 32.6131 478.012 33.1574 475.987 33.8995C474.594 34.513 473.146 35.0075 471.633 35.3861C473.135 34.8346 474.534 34.1788 475.847 33.4127C476.907 32.8649 477.586 32.3973 477.948 32.2077C476.926 32.5407 475.928 32.9074 474.946 33.3168C473.891 33.8222 472.773 34.3875 471.698 34.9533C470.737 35.5054 469.821 36.0914 468.952 36.7174C468.298 37.1368 467.704 37.5994 467.186 38.0932C466.545 37.9125 463.917 39.7295 462.295 41.374C460.497 42.9556 459.496 44.2924 460.115 42.6569C459.765 43.4529 459.224 44.2042 458.494 44.9107C457.55 45.9389 456.626 47.1372 455.785 47.9242C455.547 47.7788 456.167 46.6374 456.979 45.2559L459.759 41.3064C460.845 40.2496 461.659 39.4501 462.316 38.8943C462.773 38.5271 463.256 38.1722 463.771 37.842C464.331 37.4912 464.178 37.7743 463.815 38.2488C462.998 39.1847 461.74 40.964 462.961 40.124C464.099 39.1194 465.457 38.1841 466.707 37.2203C468.098 36.3158 469.502 35.4144 470.991 34.5687C470.453 34.7501 471.261 34.1355 471.441 33.8648C471.531 33.7295 471.459 33.6832 470.977 33.8682C469.96 34.3014 469.039 34.8145 468.198 35.3984C468.839 34.7454 469.575 34.139 470.415 33.5824C472.696 31.9915 475.276 30.7378 478.153 29.8152C479.664 29.3426 481.191 28.9734 482.75 28.6894C484.03 28.0351 479.736 29.2465 478.423 29.6396C479.582 29.0688 480.695 28.4579 481.786 27.8196C482.151 27.5542 482.191 27.3728 481.499 27.431C480.14 27.6144 478.814 27.9164 477.517 28.3522C478.024 28.2887 473.222 30.5125 477.565 29.1986C476.656 29.5724 475.348 30.0657 473.941 30.5819C472.536 31.1043 471.188 31.779 469.967 32.2732C468.736 32.7705 467.807 33.2047 467.34 33.3445C466.866 33.4933 466.83 33.3413 467.578 32.7108C466.642 33.3299 465.51 34.089 464.318 34.9202C463.167 35.7731 462.086 36.7269 460.97 37.6439C459.222 39.211 457.624 40.8345 456.202 42.5208C455.603 42.7408 455.988 42.2393 456.633 41.5378C457.276 40.8302 458.351 39.9461 458.818 39.3455C458.14 39.9889 457.42 40.638 456.788 41.2881L455.016 43.2824C453.877 44.5992 452.834 45.9416 451.906 47.3035L454.374 45.2026C453.158 46.4882 452.166 47.8221 451.385 49.201C451.039 49.8334 450.719 50.4509 450.423 51.0476C450.171 51.6448 449.983 52.2367 449.799 52.8135L449.289 54.511L448.988 56.1868L448.663 57.8563L448.428 59.5663C447.321 58.9494 448.458 55.004 449.701 51.833C446.727 54.6887 449.204 53.8793 447.233 58.7725C446.82 59.4313 446.476 59.609 446.192 59.2872L446.177 61.2637L446.395 63.1975C446.131 64.1099 445.979 63.9049 445.926 63.5343C445.917 64.4316 446.106 65.2828 446.483 66.0847C446.582 66.3194 446.777 66.4916 447.069 66.6074C447.447 66.7787 447.427 67.3606 448.394 71.4622C448.268 70.2328 448.291 69.2569 448.141 68.5699L447.754 66.8765C447.289 65.5793 447.221 64.2172 447.551 62.7903C448.222 61.4646 448.405 62.7311 448.497 64.4179C448.605 65.9168 448.932 67.3639 449.446 68.7618C449.445 70.8627 449.269 71.9793 449.132 73.3146C449.085 74.8601 449.502 76.2871 450.39 77.5865C448.922 75.4918 449.309 78.0795 447.834 73.6018C446.534 70.9755 447.616 75.212 447.194 75.9616C447.894 77.1617 448.094 74.7843 449.317 78.3009L449.079 78.2161C449.662 79.1055 450.323 79.9443 451.009 80.7622C451.67 81.601 452.38 82.398 453.117 83.1801C455.317 88.3489 461.94 92.8506 463.113 96.3484L463.719 95.1098C466.128 97.7225 469.461 101.386 471.27 103.121C470.226 103.021 468.666 101.313 466.791 99.5769C470.179 103.557 473.93 107.353 478.035 110.969C477.508 109.046 476.762 107.203 475.77 105.426C477.386 106.271 478.354 107.411 478.674 108.867C479.074 110.509 479.856 112.016 481.011 113.391C479.849 113.956 479.257 112.494 478.648 113.984C480.536 115.383 481.691 118.46 483.173 120.333C482.234 121.807 480.826 120.074 478.553 115.835C477.908 112.159 473.678 109.563 472.583 106.618L473.075 108.476C470.961 105.986 468.636 103.598 466.105 101.321L466.363 101.345L464.069 100.595L465.312 102.005C463.063 100.856 461.081 99.5249 459.35 98.0241C463.41 102.385 465.489 101.756 468.299 103.334C471.542 107.275 470.763 109.752 473.542 111.853C473.168 112.297 473.914 114.717 472.294 113.196C471.591 112.363 470.962 111.494 470.418 110.593C469.943 109.902 469.589 109.479 469.109 109.555C469.671 110.187 470.099 110.865 470.405 111.593C470.925 112.576 471.521 113.529 472.202 114.45C473.717 114.654 476.276 116.889 478.306 119.27C480.08 121.95 480.927 124.868 480.84 128.038C480.501 125.118 478.436 122.585 477.849 123.527C478.606 124.479 478.91 125.547 478.761 126.736C478.711 127.842 478.69 128.621 479.441 128.057C479.569 128.887 479.483 129.868 479.51 130.863C479.453 131.835 479.311 132.813 479.097 133.798C478.633 135.645 477.791 137.062 477.056 137.208C477.873 134.341 478.208 131.517 478.062 128.735C478.107 129.46 477.717 130.207 477.386 129.845C477.441 129.212 477.355 128.581 477.301 127.946C477.256 127.309 477.212 126.672 477.071 126.037C476.692 128.081 476.521 130.104 476.546 132.103C476.684 131.865 476.948 131.386 476.996 131.717C476.929 132.604 476.857 133.737 476.655 134.611L475.358 134.789C475.238 136.485 474.605 138.172 473.456 139.838C472.096 141.804 470.595 143.744 468.975 145.652L469.128 145.254C467.901 146.278 466.94 147.379 466.246 148.556C465.361 149.973 463.986 151.151 462.103 152.101C463.376 151.055 462.387 151.128 461.84 150.939C460.888 151.631 459.785 152.124 458.533 152.418C457.434 152.747 456.227 152.905 454.784 153.296C458.298 152.569 452.909 154.901 455.439 154.293C455.723 154.675 454.274 155.339 452.303 156.024C451.296 156.339 450.147 156.622 449.062 156.9C447.941 157.114 446.869 157.313 445.991 157.481C444.916 157.125 447.577 156.491 449.717 155.823C451.87 155.158 453.521 154.514 450.999 154.626C447.822 155.327 447.026 156.06 449.4 155.755C448.373 155.988 447.179 156.149 445.944 156.377C444.706 156.537 443.408 156.709 442.159 156.812C439.985 157.016 437.904 156.975 435.902 156.687C433.937 157.072 431.98 157.305 430.039 157.379C428.47 157.408 426.903 157.586 425.316 157.912C426.288 157.993 427.297 157.942 428.335 157.74C429.5 157.615 430.603 157.643 431.648 157.832C430.323 158.107 428.992 158.336 427.654 158.52C423.508 158.108 419.625 157.305 416.032 156.118C417.259 156.245 418.486 156.345 419.712 156.412L419.468 156.512C420.987 156.437 425.352 157.169 425.17 156.485C421.618 156.878 419.582 155.807 415.193 155.468L415.439 155.374C407.811 154.365 404.484 150.861 398.769 150.709C400.023 151.167 401.978 152.601 400.93 152.603C399.682 151.73 395.392 150.216 395.97 149.853L397.508 150.26C393.768 148.656 391.554 147.571 390.013 147.124C388.405 147.165 389.063 148.025 385.991 147.075C379.558 143.743 390.026 147.161 385.904 144.682L378.957 142.344L378.065 141.263C369.081 136.526 360.085 134.693 349.963 130.121C350.667 129.287 358.356 132.277 360.884 133.363C358.524 131.285 352.984 130.158 349.314 127.788C345.537 125.91 341.828 125.252 341.963 125.957C336.843 124.048 339.05 123.963 338.583 123.554C336.073 123.669 330.337 120.636 326.251 119.061L326.608 118.514L319.878 116.348C321.384 117.103 319.508 116.892 319.183 117.179L317.682 116.436C322.162 120.387 332.07 121.594 336.514 125.793C334.445 125.125 336.66 126.501 334.582 125.836C333.079 125.087 332.849 124.878 332.895 124.627C331.526 124.583 328.656 123.796 331.952 125.255C330.681 126.164 324.417 122.965 319.527 121.264C316.668 119.01 324.328 122.008 326.729 122.381C324.574 121.799 322.612 121.038 320.839 120.092L322.291 119.637C315.609 117.226 319.854 119.513 317.634 119.595C314.874 119.764 312.079 117.016 310.299 116.309L312.368 116.977C307.893 114.482 305.925 114.773 301.647 112.741L300.27 111.235C304.894 114.445 308.118 113.235 310.812 115.024C303.643 110.74 314.242 114.275 317.449 114.778C314.411 113.689 311.74 112.307 309.451 110.62C303.362 109.327 299.41 105.543 293.298 104.507C290.809 103.179 296.215 105.043 293.437 103.754C288.169 101.218 282.614 98.9579 276.769 96.9609C273.862 95.6427 274.719 95.535 274.231 94.8681C268.545 92.1728 262.302 90.0647 255.497 88.538C249.369 87.1408 243.14 85.6787 233.205 83.9103C234.317 83.8755 235.392 83.8857 236.444 83.9228C234.564 83.5238 232.638 83.2061 230.649 82.9815C229.188 82.7483 227.649 82.7415 226.03 82.9823C223.572 81.9971 218.45 81.925 212.939 82.4029L208.787 82.7854C207.417 82.911 205.999 83.1664 204.679 83.3109C203.339 83.4884 202.057 83.5879 200.827 83.7122C199.666 83.8768 198.514 83.9778 197.363 84.0243C186.362 86.3628 186.328 87.9722 178.901 91.4431Z" fill="#F84E72"/>
</svg>
