<svg width="424" height="329" viewBox="0 0 424 329" fill="none" xmlns="http://www.w3.org/2000/svg">
<path d="M342.345 43.7606C342.548 43.5263 342.657 43.2564 342.665 42.951C342.345 43.0433 342.345 43.3842 342.345 43.7606ZM266.241 22.065H265.798C265.478 22.4555 265.188 22.8532 264.911 23.2722L266.241 22.065ZM405.099 108.315C405.87 108.663 406.582 109.089 407.258 109.586C406.625 108.343 406.211 107.505 404.845 108.187L405.099 108.315ZM331.409 28.634L330.013 26.0916C330.311 26.9367 330.689 27.7392 331.154 28.5133L331.409 28.634ZM421.624 151.578C422.576 151.578 422.925 152.601 424 153.191C422.939 151.941 422.133 150.556 421.587 149.022C421.042 147.495 420.788 145.918 420.832 144.292C421.435 144.448 422.096 143.887 422.227 145.066C421.086 138.156 415.375 135.124 414.931 128.271C419.502 128.86 415.469 125.636 418.674 124.152L416.363 121.048L415.28 123.037C414.168 119.933 410.717 118.385 410.622 115.41L412.969 117.05C411.952 115.289 410.876 113.521 409.794 111.781L410.019 115.438C407.003 113.272 406.117 117.547 405.194 113.393C405.899 113.982 403.835 110.637 404.816 108.187C403.043 107.349 401.234 106.575 400.696 104.16C401.299 103.046 404.249 102.52 404.656 101.774C401.488 101.994 399.366 95.7592 395.529 96.2918C396.619 96.1498 397.477 95.6314 398.094 94.7365L395.369 95.2692C394.89 93.6571 394.984 93.2239 396.256 92.4143C393.08 88.7569 394.127 96.5049 391.496 91.3277C391.94 91.484 392.034 91.0792 392.957 91.3277C389.469 86.6832 383.445 85.7174 379.223 82.6495C379.223 78.779 383.954 83.8923 383.605 80.4835C379.579 78.9921 375.408 78.3316 371.106 78.5021C369.05 78.5021 366.986 78.5021 365.017 78.7151H362.074C361.289 78.7719 360.504 78.7719 359.727 78.7151C360.075 78.7151 360.01 78.9637 360.642 79.0915C360.359 80.3272 360.134 80.7604 359.69 80.8527C359.087 80.8527 358.578 80.6326 358.172 80.2065C357.089 79.4324 356.522 78.3174 354.996 79.9224C355.665 79.1696 356.173 78.3245 356.522 77.3871C355.505 77.3871 354.335 78.0334 352.525 79.4608C351.421 80.3911 350.36 81.3712 349.357 82.408L348.434 83.3312L348.245 83.523L347.773 83.2389C347.751 83.0969 347.751 82.9548 347.773 82.8057L349.037 81.6907C350.171 79.4324 350.985 77.0675 351.479 74.5962C350.244 75.0294 350.498 73.7297 348.594 75.5549C350.527 72.7994 351.196 71.4643 351.196 70.1931C351.246 69.9019 351.246 69.6179 351.196 69.3267C351.196 68.7657 350.941 68.2117 350.81 67.6507C350.498 66.5925 350.106 65.5628 349.641 64.5544C347.867 60.3075 345.484 56.8987 346.974 51.9062C347.388 52.8366 348.819 53.8592 348.594 53.0851C347.424 50.9404 346.123 48.8738 344.692 46.8925C342.919 48.3128 343.965 48.2844 342.919 50.3013C341.124 49.8397 339.787 48.8028 338.922 47.1978C341.524 49.307 342.09 45.6497 342.476 43.8245C341.996 44.3501 341.109 44.2861 340.572 44.6909C342.061 39.67 336.575 46.2675 336.132 40.9057L337.244 40.508C335.718 39.2652 333.465 38.832 332.513 37.156C333.974 34.9545 334.671 37.9301 336.415 36.8152C334.482 34.5213 329.185 35.6363 329.316 32.1707C330.675 32.5115 331.815 33.7827 333.182 34.2159C333.45 33.1862 333.421 32.1636 333.102 31.148C332.782 30.1396 332.222 29.2803 331.409 28.5701V28.7618C330.515 27.2563 329.526 25.8075 328.458 24.4227L328.967 25.8431C327.862 26.4041 326.7 26.6242 325.464 26.5106C324.229 26.4041 323.125 25.9709 322.151 25.2252C321.184 24.5008 320.131 23.9398 318.975 23.5563L318.249 22.8106C320.051 22.0365 317.834 21.3832 319.135 19.7072C318.438 18.3792 317.013 16.6109 317.9 16.27C314.724 17.2926 314.724 12.7972 310.321 14.7218C310.51 13.7631 307.908 13.7631 309.144 11.7746C305.975 11.526 309.398 13.5145 308.737 14.5017C308.431 14.5798 308.126 14.6366 307.814 14.6579C306.767 14.0045 305.721 13.3228 304.645 12.7404C298.876 9.60148 292.735 7.53489 286.217 6.54066C288.223 6.43413 290.17 6.7253 292.052 7.40706C285.963 5.20554 281.937 3.93434 278.449 2.79097C274.932 1.57658 271.335 0.646254 267.666 0C266.655 1.79673 261.038 2.45008 254.477 3.96984L251.497 4.68001C249.404 5.23395 247.275 5.8873 245.154 6.59747C245.379 6.00093 245.8 5.59613 246.425 5.39018C243.918 6.75371 239.762 6.44833 238.97 8.99074C236.622 7.27923 233.2 9.82164 231.391 8.99074L232.72 7.90418C235.896 5.4825 240.997 3.06793 237.923 2.16602C238.555 3.13185 234.755 4.92857 230.409 7.34315C230.409 7.1585 230.409 7.03777 230.221 7.09459V7.40706C228.854 8.15274 227.43 8.99074 226.093 9.88555C225.621 10.1625 225.207 10.475 224.763 10.7875C223.804 10.8727 222.91 11.1354 222.067 11.59C219.786 12.5203 217.25 13.8199 216.327 11.313C216.225 12.641 215.731 13.8057 214.837 14.8141C213.9 15.9646 212.846 16.9943 211.669 17.9105C210.557 18.9047 209.387 19.9913 208.304 21.0139C207.316 22.1502 206.531 23.4072 205.957 24.792C205.957 24.3588 205.957 23.4569 206.306 23.2722C204.504 24.4227 202.556 25.2607 200.471 25.7862C202.506 27.8315 201.677 30.6509 201.554 33.2856L200.725 34.6776L200.217 35.544C197.237 35.2031 198.792 31.3042 195.777 30.3384C197.077 31.1125 196.765 32.8169 196.605 34.3367C196.445 35.8564 196.351 37.22 197.717 37.4401C194.541 38.5551 195.653 38.8036 192.26 38.5551C196.162 41.0975 191.751 41.0975 193.43 44.2577C189.753 46.7007 189.026 43.4197 188.677 47.7589C186.584 49.1224 186.519 45.0318 186.519 45.0318C184.746 49.0301 188.932 48.1282 190.487 49.6763C189.724 54.5765 187.311 50.9475 184.964 52.0057C184.964 55.3222 187.311 58.4185 186.613 60.5277C185.981 60.5277 185.698 60.9254 185.095 60.2436C185.436 60.9538 185.618 61.6995 185.632 62.4807C185 63.5317 184.746 64.8029 182.777 63.8442C182.777 61.1171 184.361 60.3715 181.447 59.8743C181.549 59.6542 181.694 59.4624 181.876 59.2991C182.057 59.1358 182.268 59.015 182.501 58.9369C182.733 58.8588 182.973 58.8304 183.22 58.8446C183.467 58.8659 183.7 58.9298 183.918 59.0364C181.447 58.4185 179.325 55.4713 176.913 56.4939C176.913 53.213 170.947 52.4673 173.744 49.3994C171.433 49.7686 169.181 49.5485 166.986 48.746C169.9 47.7589 168.447 46.6439 166.667 45.3088C164.893 43.9737 162.735 42.5817 164.574 40.5649C159.945 42.8587 154.902 37.4685 149.386 37.7455C149.801 37.5324 150.564 37.0992 150.847 37.4685C148.565 36.0411 148.34 34.3722 147.01 33.1294C145.266 36.382 141.081 35.6079 138.254 37.1916C136.227 32.8808 141.43 33.7188 141.647 30.2177C140.826 33.0371 135.115 31.3042 135.529 33.9958C133.691 31.2687 133.72 32.4476 133.182 29.195C131.627 33.5342 130.646 29.195 127.979 31.7019C124.811 28.8542 127.979 27.3344 123.539 27.9878C121.766 26.2834 125.734 25.3175 125.734 25.3175C121.446 24.515 123.227 28.421 122.049 30.1538C117.072 30.587 120.087 27.3983 118.561 25.4454C115.233 25.9709 112.697 29.195 110.415 28.9181C110.415 28.357 109.812 28.1369 110.415 27.4551C108.381 28.6411 106.186 29.1879 103.817 29.1027C101.23 29.1311 99.0141 30.033 97.1611 31.7943C96.8923 31.5741 96.6888 31.3042 96.558 30.9918C97.2701 32.4547 97.6771 33.9887 97.7643 35.6079C96.0203 35.8848 94.9739 38.271 93.9275 36.1689C94.9739 36.1689 94.9085 35.1463 95.2863 34.3367L93.6368 35.6363C91.4205 32.7246 95.9549 34.0881 95.577 31.7375C93.833 32.5684 92.0236 33.8111 90.345 34.8338C89.0007 35.963 87.4456 36.5737 85.6799 36.6589C84.2193 33.7472 91.7984 34.0881 87.4238 32.2275C88.9789 32.2275 90.5921 32.2275 92.0236 32.5115C87.6491 28.2008 94.814 32.3553 90.6284 27.6753C84.2847 28.1085 84.2847 30.7716 78.3842 31.5812C77.6866 33.6549 79.6268 33.9035 78.9582 35.9843C78.4859 36.4885 77.9336 36.8862 77.3014 37.1773C76.662 37.4685 76.0007 37.639 75.3031 37.6745C74.5982 37.71 73.9224 37.6177 73.2539 37.3975C72.5926 37.1702 72.004 36.8365 71.4736 36.382C69.4753 35.1747 67.6659 34.152 65.762 37.3478C65.2243 39.9186 66.6849 43.7251 61.9252 43.9169L61.4238 40.1032C56.1264 42.6101 61.4238 46.1113 55.08 47.1978C55.08 45.4934 58.2483 43.8245 57.1728 44.1015C52.3187 43.8813 55.9666 47.1978 53.6485 48.9022L51.2433 46.7007C46.4836 50.6706 43.0901 56.8987 39.1588 62.1966C38.6865 61.3302 38.7156 59.782 36.9062 60.3431C34.4864 64.0856 31.8123 67.6507 28.8838 71.0311C27.4305 72.7994 25.7156 74.5322 24.4802 76.329C23.2449 78.1257 21.559 79.894 20.3237 81.57C20.7016 82.8696 21.1812 84.1408 21.6535 85.412C21.4282 85.7742 21.094 85.9305 20.658 85.8878C20.2292 85.8452 19.9386 85.6251 19.786 85.2274C17.6278 87.6704 21.3701 86.0299 21.8497 87.7698C21.8206 88.0965 21.6898 88.3805 21.45 88.622C21.2102 88.8563 20.9196 88.9842 20.578 89.0126C20.2438 89.0339 19.9386 88.9416 19.6624 88.7427C19.3936 88.5439 19.2192 88.2811 19.1538 87.9544C19.4008 93.6571 18.8631 103.109 14.0453 106.113L13.6965 104.97C12.3958 106.298 13.2823 107.846 13.9218 109.245C14.554 110.637 15.0263 112.065 13.028 112.775V112.001C10.9352 114.841 8.58083 117.455 5.95757 119.841C4.71497 120.793 3.3343 121.467 1.80832 121.858C0.260529 122.163 -1.22914 121.993 -2.66794 121.361C-2.66794 123.378 -4.34653 123.406 -6.09052 123.434C-7.83451 123.47 -9.57851 123.434 -9.57851 126.353C-14.5271 123.967 -13.0011 122.909 -20.0134 121.24C-21.9463 121.02 -22.8692 124.677 -25.3108 125.295V122.447L-28.7043 125.544L-30.7971 122.263L-33.2024 123.158C-32.2214 123.158 -31.0151 124.308 -31.1096 125.11C-34.7865 126.566 -40.6216 124.152 -40.9704 122.696C-43.9206 123.868 -46.7474 125.387 -49.5014 126.751C-49.5014 125.92 -48.8038 125.295 -47.9464 124.649C-50.8966 126.815 -48.9928 121.545 -52.5171 124.649C-51.7541 125.11 -52.5171 126.382 -52.3281 126.971C-54.2175 126.616 -56.0995 126.637 -57.9816 127.035C-59.8636 127.426 -61.5931 128.157 -63.17 129.229V126.502C-69.957 128.15 -76.3008 132.702 -83.0224 136.388C-82.4702 136.239 -81.9324 136.267 -81.402 136.48C-80.8715 136.693 -80.4718 137.048 -80.203 137.538C-79.9268 138.028 -79.8396 138.554 -79.9414 139.101C-80.0431 139.655 -80.3047 140.116 -80.7407 140.479L-83.0515 138.341C-83.2768 140.67 -80.5154 138.128 -81.7871 141.444C-84.3232 142.559 -85.2388 139.491 -84.3522 137.787L-86.7284 140.479C-87.426 139.832 -86.9827 138.994 -87.426 137.908C-87.426 139.115 -89.2717 139.179 -90.914 139.648C-92.5635 140.109 -94.2494 140.763 -94.0895 142.744L-94.8162 142.126C-99.5032 145.812 -103.732 149.945 -107.504 154.519C-105.665 156.351 -107.787 157.622 -107.504 160.562C-112.016 163.318 -115.759 166.847 -118.731 171.165C-119.581 175.192 -117.365 173.267 -116.856 175.504C-117.997 175.035 -119.203 176.03 -120.031 176.74C-120.853 177.457 -121.521 177.947 -121.674 176.214C-122.945 179.311 -123.737 181.391 -124.435 183.65C-125.096 186.718 -125.489 189.821 -125.612 192.953C-124.464 192.3 -123.708 191.49 -123.105 192.207C-123.105 193.727 -124.849 195.304 -125.961 194.806V194.345C-125.387 199.366 -127.799 204.323 -129.507 209.841C-130.343 212.383 -130.837 214.982 -130.997 217.653C-131.055 220.032 -130.328 222.162 -128.81 224.03L-129.129 223.661C-127.829 226.139 -126.208 228.468 -124.813 230.727C-124.341 234.32 -127.102 229.115 -127.988 232.09C-126.622 233.617 -125.481 235.293 -124.566 237.111C-123.803 238.723 -123.418 240.208 -122.822 241.763C-122.131 245.051 -120.518 247.821 -117.968 250.065C-118.36 251.073 -118.527 252.117 -118.484 253.197C-118.433 254.269 -118.164 255.292 -117.684 256.264C-116.463 258.423 -114.981 260.398 -113.244 262.18C-111.406 264.076 -109.277 265.809 -107.598 267.67C-105.847 269.31 -104.51 271.221 -103.572 273.401L-102.809 271.853C-100.208 271.853 -101.632 274.175 -100.651 275.382C-100.084 274.303 -101.385 272.847 -99.8883 272.968C-92.4909 277.648 -84.7882 281.781 -76.7731 285.367C-68.1549 288.762 -59.2024 290.388 -49.9156 290.232C-43.8916 289.919 -47.692 281.397 -40.1493 284.188L-41.668 287.661C-31.0442 282.2 -20.0425 283.627 -11.7367 280.559C-12.2744 281.277 -12.2744 282.2 -13.1028 282.2C-12.645 282.74 -12.0637 283.038 -11.3588 283.102C-10.683 283.223 -10.029 283.173 -9.38957 282.946C-8.02345 282.484 -6.97705 281.802 -6.78812 280.872C-5.71265 281.241 -6.78812 282.548 -6.34485 283.535C-5.90158 284.529 -4.97872 283.847 -4.06313 283.535C-3.14027 283.23 -2.34821 282.946 -2.60252 284.124C-2.60252 284.494 -3.1766 284.622 -3.39459 284.685C-2.88593 284.373 -2.18834 284.685 -1.52707 284.934C-0.858536 285.175 -0.386215 285.275 0.093399 284.004C0.304123 284.501 0.638382 284.891 1.11072 285.175C1.48859 285.538 1.91005 285.836 2.37512 286.077C2.88379 286.262 3.29071 286.574 3.57411 287.022C3.86478 287.476 3.98105 287.966 3.93018 288.492C7.09843 288.094 5.04198 293.605 9.09676 292.554C7.06937 293.3 6.9095 295.068 7.76697 297.113C8.71162 299.322 10.2231 301.055 12.3013 302.319C10.5864 302.035 12.6501 305.415 10.4265 305.195C12.4903 308.299 15.4115 310.529 16.7703 308.639C16.7703 312.886 20.3237 314.619 23.1141 315.89C25.9045 317.161 28.317 317.964 28.2516 321.565C37.4948 324.718 47.0068 326.117 56.7877 325.776C55.9956 330.115 47.2757 324.817 46.5781 328.872C50.4657 328.908 54.2807 328.425 58.0303 327.416C59.7089 327.111 61.1985 326.706 63.037 326.486C64.8827 326.308 66.7357 326.259 68.5887 326.337C70.7469 326.77 67.5423 328.226 66.8084 329C71.0013 327.913 74.9616 327.573 78.8274 326.798C80.7603 326.465 82.6424 325.96 84.4736 325.279C86.3193 324.668 87.9979 323.773 89.5166 322.587C89.5166 322.956 89.0443 323.638 88.4048 324.199C89.7419 323.574 91.8928 323.574 91.0063 321.841L89.8654 322.836C88.245 321.962 89.1024 320.073 90.1852 318.305C91.2606 316.544 92.4015 314.683 92.1835 314.001C92.3724 316.941 94.022 316.544 95.6351 316.387C97.2556 316.231 98.8107 316.11 98.8107 320.045C99.2394 319.64 99.4937 319.143 99.5664 318.561C99.6463 317.985 99.5301 317.446 99.2176 316.941C100.584 316.636 101.376 316.941 100.838 318.987C104.769 315.642 102.073 314.747 105.91 312.51C106.419 313.284 105.91 314.065 105.91 315.208C106.179 313.724 106.768 312.375 107.676 311.153C108.584 309.939 109.718 308.973 111.077 308.263C111.273 308.824 112.065 309.165 111.077 309.818C116.156 305.728 116.374 299.556 122.435 296.24C123.859 300.487 125.036 295.594 127.79 297.76L129.628 294.443H127.347C129.628 292.185 129.628 288.464 132.266 287.221L131.787 289.919C132.928 288.307 134.134 286.823 135.209 285.083L132.041 286.695C132.739 283.194 128.459 284.096 132.041 281.646C131.758 282.484 134.105 279.352 136.735 279.416C136.735 277.555 137.019 275.482 138.792 274.644C139.874 275.134 141.335 277.74 141.967 278.017C141.684 277.42 141.589 276.795 141.677 276.142C141.764 275.489 142.018 274.906 142.44 274.395C143.348 272.932 143.74 271.356 143.617 269.651C143.675 270.922 143.958 272.144 144.474 273.309C144.474 272.194 144.249 271.043 144.184 269.836C145.077 269.836 145.201 270.361 145.521 272.35C145.775 272.165 145.898 271.76 145.964 271.76C146.596 271.235 144.089 265.561 146.945 269.651C146.72 269.651 146.945 270.212 146.436 270.333C147.555 271.668 148.972 272.549 150.687 272.968C151.487 273.223 152.257 273.543 153.005 273.926C154.153 274.423 155.207 275.063 156.174 275.851C155.796 279.629 152.017 274.644 152.053 278.017C153.732 278.692 155.454 279.253 157.22 279.693C159.087 280.126 161.028 280.403 162.895 280.78C164.77 281.149 166.637 281.333 168.381 281.767C170.111 282.179 171.804 282.704 173.454 283.35L172.342 282.605C173.548 280.403 174.565 281.333 175.801 282.605C177.036 283.876 178.627 285.708 180.589 284.898C179.674 285.055 178.845 287.32 179.194 286.823C181.643 287.746 184.165 288.08 186.773 287.81C189.593 287.81 192.732 287.164 196.285 286.695L195.304 287.874C196.918 288.577 198.611 288.946 200.376 288.989C202.251 288.989 204.148 289.266 205.703 289.458C206.589 288.151 208.304 288.307 207.193 286.511C208.174 287.299 209.264 287.867 210.47 288.229C211.683 288.591 212.911 288.705 214.169 288.584C216.414 288.407 218.529 287.796 220.512 286.759C222.54 285.893 224.509 284.962 226.478 284.345C228.68 283.748 230.86 283.833 233.011 284.586C232.059 284.898 231.042 286.354 231.805 286.106C233.956 285.026 236.15 284.032 238.148 283.009C236.877 281.213 236.811 282.143 234.973 280.964C235.569 279.281 236.702 278.067 238.366 277.335C236.056 279.757 239.638 280.439 241.535 281.149C241.062 280.623 241.222 279.785 240.837 279.231C245.757 281.397 239.696 275.105 245.124 275.446L245.371 276.561C246.803 275.262 247.595 273.28 249.404 272.563C251.337 274.36 248.293 274.516 249.179 276.405C251.592 274.828 251.555 269.743 254.92 270.489C254.346 271.76 252.856 272.563 252.195 273.742C253.125 274.218 254.121 274.416 255.174 274.338C256.228 274.26 257.18 273.919 258.03 273.309H257.805C259.389 272.783 260.98 272.286 262.622 271.725H261.133C260.966 271.164 260.886 270.589 260.9 269.999C260.915 269.41 261.024 268.834 261.22 268.281C261.416 267.72 261.7 267.208 262.063 266.739C262.434 266.271 262.862 265.866 263.356 265.532C264.366 264.971 265.18 264.218 265.805 263.26C266.423 262.308 266.786 261.264 266.873 260.135C266.241 266.058 267.891 262.372 269.569 264.659C271.03 264.474 273.057 263.856 273.217 264.659C273.217 261.562 277.279 263.238 277.148 258.651C277.977 259.205 278.863 256.911 280.317 258.835C281.777 256.108 278.638 258.31 277.977 257.351C278.26 254.588 280.825 253.381 283.238 251.521C284.524 250.647 285.65 249.617 286.631 248.424C287.649 246.997 288.15 245.42 288.121 243.68C288.768 241.45 288.862 239.199 288.405 236.927C288.099 234.86 288.099 232.793 288.405 230.727C290.468 229.86 290.817 233.425 290.817 233.425C291.9 232.658 292.721 231.693 293.288 230.514C293.847 229.328 294.087 228.092 293.985 226.792C294.53 227.595 295.351 227.346 296.623 227.006C297.219 224.932 294.08 224.499 296.332 222.418C297.452 223.334 298.353 224.413 299.028 225.678C299.254 223.043 298.265 220.096 298.331 217.461C300.111 217.276 300.169 219.634 300.903 220.841C301.252 217.745 301.601 213.122 299.377 211.73L298.331 212.873C298.789 212.859 299.217 212.958 299.61 213.186C300.009 213.406 300.307 213.718 300.518 214.116C301.819 217.063 298.774 217.369 297.822 217.212C297.822 216.594 297.822 215.941 297.822 215.323C295.003 215.508 294.654 217.155 294.843 219.321C294.843 220.408 295.097 221.587 295.228 222.702C295.351 223.774 295.206 224.804 294.777 225.798L291.609 223.007C292.147 224.499 292.721 226.111 293.23 227.567C291.987 227.907 289.771 227.567 290.054 225.678C287.329 227.197 290.439 228.277 287.518 229.271C287.104 229.271 286.98 229.271 286.951 228.902V231.565C286.406 230.791 284.284 230.663 285.454 229.612C284.72 230.173 284.146 230.869 283.747 231.7C283.34 232.531 283.151 233.404 283.173 234.32C283.173 235.812 282.984 237.047 281.269 236.955V236.522C279.081 242.161 283.427 238.475 283.681 244.177C281.145 243.744 278.573 243.183 276.037 242.565L278.006 244.731C277.563 245.172 276.64 246.003 275.848 245.108C276.008 248.204 277.083 245.569 277.752 247.742C275.906 248.417 274.496 249.582 273.501 251.244C272.396 252.671 271.19 253.601 269.286 252.266C270.107 254.525 272.454 251.364 271.379 254.681C267.128 251.897 269.41 257.997 265.667 258.154C264.592 255.739 267.411 255.057 263.829 255.057C265.515 259.268 259.331 257.813 258.088 259.673C259.105 261.037 258.342 262.059 257.013 263.146C255.356 264.162 253.83 265.355 252.449 266.704C252.035 265.681 245.248 268.813 241.535 268.998V268.444C241.782 269.133 241.782 269.815 241.527 270.503C241.28 271.185 240.837 271.718 240.205 272.101C239.129 272.904 237.64 273.493 236.528 274.303C236.186 273.614 236.063 272.89 236.15 272.123C236.23 271.363 236.521 270.688 237 270.084L234.755 270.951C234.69 271.583 234.472 272.151 234.101 272.669C233.73 273.181 233.243 273.571 232.662 273.834L232.437 271.235C230.875 271.981 229.414 272.89 228.062 273.962C226.347 275.07 224.48 275.482 222.445 275.198C222.605 277.584 227.328 280.964 222.925 283.471C222.511 282.235 221.944 280.098 222.925 279.38C222.576 279.601 221.719 280.652 220.832 280.247L222.256 277.804C220.134 277.179 221.559 279.757 219.946 279.814C219.655 278.017 218.579 278.734 218.579 277.243C218.928 276.994 220.04 277.768 220.512 276.966C219.575 276.994 218.681 276.831 217.824 276.462C216.966 276.092 216.24 275.553 215.629 274.857C215.883 275.879 215.949 277.307 214.677 277.676C211.509 278.145 213.318 275.602 211.509 274.828C210.811 276.22 208.682 274.828 208.748 277.676C207.767 277.676 207.541 276.405 207.164 275.695C205.514 277.087 199.301 275.915 201.103 278.791L201.554 279.011H201.263C199.831 279.515 198.356 279.743 196.83 279.7C195.312 279.657 193.851 279.345 192.449 278.763C189.753 277.548 186.933 276.781 183.983 276.469L184.172 275.574C180.655 275.943 176.847 274.303 173.897 275.574C173.628 275.404 173.388 275.19 173.199 274.942C173.01 274.686 172.872 274.402 172.785 274.097C172.705 273.791 172.683 273.486 172.72 273.174C172.763 272.861 172.858 272.563 173.01 272.286C170.409 272.009 169.617 273.032 166.892 270.113C169.871 269.651 166.667 268.472 169.748 270.113C167.052 268.039 167.11 266.583 162.801 267.237C164.923 265.681 161.943 263.423 160.228 263.295L161.5 265.901C160.679 265.639 159.894 265.284 159.153 264.85C158.695 264.588 158.259 264.282 157.852 263.949L156.428 262.834C157.169 262.052 157.961 261.328 158.804 260.668C156.595 257.962 153.877 255.895 150.658 254.468C148.413 253.523 146.109 252.749 143.74 252.138C142.846 253.786 141.786 255.327 140.572 256.762C139.468 257.955 138.094 258.58 136.452 258.615C136.067 260.881 137.244 260.014 138.319 259.332C139.395 258.651 140.478 258.061 140.289 260.419C138.683 261.747 136.852 262.635 134.802 263.082C133.211 263.402 131.743 263.998 130.391 264.879C129.737 265.369 129.156 265.923 128.647 266.555C128.284 266.96 128.015 267.428 127.855 267.947C127.732 268.692 127.732 269.431 127.855 270.177C128.139 271.725 128.488 273.28 126.526 274.7C126.794 274.743 127.063 274.821 127.318 274.928C127.579 275.027 127.819 275.162 128.044 275.325C128.262 275.489 128.466 275.673 128.647 275.886C128.822 276.092 128.974 276.32 129.091 276.568C129.214 276.81 129.301 277.065 129.36 277.335C129.418 277.598 129.447 277.868 129.44 278.138C129.425 278.415 129.389 278.677 129.316 278.94C129.236 279.203 129.134 279.452 128.996 279.693C126.526 281.859 122.812 279.693 123.481 277.52C123.888 276.902 124.433 276.874 124.687 277.122C125.065 276.099 125.537 274.793 123.793 274.949L124.396 275.972C122.493 276.405 119.702 279.665 119.005 277.712C118.213 280.098 119.702 279.665 121.323 278.734C117.421 280.588 117.006 283.258 113.366 285.332C114.252 285.332 115.611 285.829 115.139 286.262C109.812 289.358 114.761 289.642 111.971 292.71C109.078 292.987 109.878 289.209 107.749 292.895C105.089 293.548 105.438 290.97 105.561 289.799C104.195 293.697 99.4719 292.895 97.6989 293.577L98.6145 291.78C98.1639 292.675 97.4881 293.357 96.5871 293.825L98.7743 295.061C97.6335 295.345 96.9068 295.835 96.3691 295.061C96.3691 296.893 99.2176 297.603 98.4619 300.515C96.5871 300.515 95.2864 303.924 93.2299 301.666C97.4155 300.274 92.0527 299.492 93.8258 297.447C93.3171 297.944 92.6994 298.243 91.9873 298.349C91.6748 298.164 91.7984 297.76 91.9873 297.483C87.046 297.142 91.9873 301.353 87.9616 303.242C87.7072 301.538 85.6508 300.828 85.1712 301.445C86.7553 300.764 87.1695 303.583 86.1522 305.444C82.9839 305.231 83.6815 307.432 82.1919 307.801C82.795 307.801 83.3981 307.801 84.0013 307.801C84.0013 309.598 82.5697 309.875 80.8257 310.898C80.288 309.726 82.3517 309.534 81.4943 309.193C80.8257 310.869 79.3361 310.649 77.781 310.031C76.2332 309.414 74.6128 308.888 73.2466 310.031C71.6625 309.137 72.6435 306.935 71.3428 306.41C71.1393 306.644 70.8922 306.836 70.6016 306.971C70.3182 307.113 70.013 307.191 69.6933 307.212C69.3735 307.233 69.0683 307.191 68.7631 307.091C68.4652 306.985 68.1891 306.836 67.9565 306.623C67.4479 306.239 66.8738 306.019 66.2343 305.976C65.5876 305.934 64.9917 306.062 64.4322 306.374C65.4132 308.604 65.6675 308.05 63.1315 310.188C65.108 309.74 67.0409 309.158 68.9375 308.455C67.7967 309.598 66.5904 310.805 65.2897 311.892C67.1572 311.892 69.0974 310.28 70.2019 310.592C68.5233 312.51 68.6178 311.956 69.7005 313.689C68.2399 312.112 67.0337 312.695 65.7039 313.376C64.3668 314.058 62.9426 314.711 61.4529 313.568L61.8017 308.078C59.8688 306.658 58.0594 307.368 55.9956 307.801C54.8766 308.213 53.7212 308.384 52.5294 308.313C51.3377 308.242 50.2114 307.936 49.1505 307.397C49.5937 307.894 50.0661 308.299 50.5457 308.76C49.1795 310.749 47.3701 308.05 45.2483 308.327C46.1057 306.686 45.2483 305.664 45.2483 304.3C45.023 304.947 44.1728 304.549 43.1555 304.3C42.5233 304.137 41.9056 304.165 41.288 304.378C40.6776 304.599 40.1762 304.961 39.791 305.479C39.5149 304.457 39.2969 303.42 39.1298 302.376C37.8581 300.764 35.9543 301.261 34.3047 301.417C32.6625 301.573 30.4679 301.85 29.3634 299.933C31.7396 299.528 31.5507 297.39 34.3047 298.285C33.4545 297.39 33.0694 296.304 32.023 297.106C32.2773 296.425 31.1074 296.24 30.1845 295.743C29.269 295.253 28.2225 294.628 28.6295 293.669C27.6194 293.669 25.81 294.415 25.1778 292.895C25.3958 292.661 25.672 292.526 25.999 292.49C25.1778 292.923 23.6882 290.665 22.4819 292.867C24.066 289.515 22.6999 286.482 20.7961 283.223C18.3908 280.396 16.6977 277.207 15.7239 273.649C12.0543 270.745 7.98495 268.543 3.51598 267.052C3.95924 266.612 3.86478 266.178 4.49698 266.676C4.17725 266.356 3.80664 266.115 3.37065 265.951C2.94191 265.788 2.49864 265.717 2.04085 265.745C1.58305 265.774 1.14705 265.894 0.740128 266.1C0.333191 266.313 -0.00834656 266.597 -0.291733 266.953C-0.575134 267.301 -0.923935 267.585 -1.32361 267.805C-1.72327 268.018 -2.14473 268.16 -2.59526 268.224C-3.05306 268.281 -3.50359 268.259 -3.94686 268.153C-4.39012 268.046 -4.79705 267.862 -5.17492 267.606C-7.67464 264.197 -1.9994 266.519 -3.52539 265.127C-3.52539 262.031 -5.42199 261.839 -7.64558 262.308C-8.80824 262.557 -9.97817 262.713 -11.1626 262.77C-12.3762 262.905 -13.4298 262.571 -14.3382 261.783L-13.3862 261.406C-16.5545 259.396 -20.4567 264.076 -24.8966 264.261C-24.7731 263.963 -24.7731 263.657 -24.8966 263.359C-27.5562 266.803 -32.8536 268.756 -36.7848 270.333C-35.9637 267.762 -35.1716 268.756 -36.3779 266.555C-38.1219 267.201 -35.1353 270.241 -38.6596 271.54C-40.0839 270.489 -42.8742 269.807 -43.6372 267.329L-40.469 266.612C-42.7798 263.672 -44.7781 267.45 -46.8055 267.173V265.717C-51.725 266.86 -51.3399 270.581 -56.7971 270.702L-56.1649 271.789C-58.9844 275.446 -58.7301 270.02 -61.5858 272.506C-61.8402 271.263 -62.0945 270.02 -62.2834 268.785C-63.199 269.154 -64.8195 269.992 -66.7524 270.674C-68.6926 271.192 -70.6691 271.469 -72.682 271.512C-69.9861 269.218 -66.0912 268.905 -63.744 267.201C-65.4517 267.201 -69.3829 266.583 -70.7781 268.195C-69.957 267.975 -68.9106 267.293 -68.3365 267.975C-69.6445 269.168 -71.1633 269.957 -72.9073 270.333C-74.7094 270.482 -76.4534 270.219 -78.1392 269.559C-77.7614 269.026 -77.5724 268.437 -77.5724 267.791C-77.5724 267.144 -77.7614 266.555 -78.1392 266.029C-78.8441 265.014 -79.7597 264.218 -80.8642 263.643C-83.2114 262.336 -85.682 260.291 -85.0208 257.443C-86.6049 257.152 -87.9783 256.463 -89.1409 255.363C-90.4053 254.375 -91.459 253.211 -92.3165 251.861C-93.1376 250.469 -94.0241 249.134 -94.8525 247.707C-95.6228 246.187 -96.5602 244.774 -97.672 243.467C-99.2561 246.038 -99.5758 245.662 -100.114 245.044C-100.651 244.426 -101.225 243.496 -103.572 245.2C-104.808 243.9 -105.091 243.247 -104.873 242.906V239.81L-104.43 236.706C-103.413 234.945 -102.584 237.637 -101.509 236.927C-102.621 233.482 -99.9246 234.505 -99.445 231.877C-101.16 233.113 -102.809 231.877 -102.621 229.768C-103.093 230.911 -103.732 232.183 -104.081 233.362C-106.523 231.593 -105.665 230.017 -104.873 228.653C-104.575 228.319 -104.357 227.936 -104.219 227.517C-104.081 227.098 -104.03 226.665 -104.067 226.224C-104.11 225.784 -104.234 225.372 -104.444 224.982C-104.655 224.591 -104.931 224.25 -105.28 223.973L-103.158 225.024C-103.892 223.227 -104.43 221.381 -104.779 219.478C-105.091 218.32 -105.622 217.262 -106.377 216.317C-107.133 215.373 -108.049 214.606 -109.117 214.024C-108.456 213.498 -106.872 212.873 -106.421 214.024C-106.312 212.44 -106.494 210.892 -106.966 209.372L-107.947 204.479C-108.31 202.917 -108.376 201.347 -108.136 199.771C-108.049 198.3 -107.46 197.058 -106.363 196.049L-105.157 196.916C-105.157 195.737 -107.024 194.189 -105.157 193.258C-104.619 193.535 -103.95 194.16 -103.696 193.691C-104.001 192.953 -104.197 192.193 -104.299 191.398C-104.43 190.418 -104.147 189.573 -103.442 188.855L-102.555 190.659C-101.581 189.636 -100.964 188.436 -100.717 187.059C-100.397 185.837 -100.266 184.601 -100.302 183.344C-100.302 182.073 -100.302 180.674 -100.302 179.374C-100.172 178.039 -99.8229 176.754 -99.2561 175.532C-98.4786 176.03 -97.6284 176.314 -96.7055 176.378C-95.7826 176.441 -94.8961 176.285 -94.0604 175.902C-92.5054 175.341 -91.0593 174.588 -89.715 173.643L-89.3299 174.077C-87.0045 171.761 -85.0934 169.162 -83.5892 166.265C-82.085 163.232 -80.2175 160.434 -77.9794 157.871C-76.3299 158.133 -74.7094 157.998 -73.1253 157.466C-72.2678 157.196 -71.4321 156.862 -70.6255 156.472C-69.7317 156.131 -68.8161 155.761 -67.9296 155.357C-66.1057 154.476 -64.2309 153.702 -62.3125 153.034C-60.4958 152.353 -58.6138 151.983 -56.6663 151.919C-57.938 151.578 -57.6837 148.816 -56.6663 148.077C-54.8642 148.29 -53.2147 143.831 -52.2627 147.516H-52.8659C-50.5188 150.613 -47.6993 148.851 -45.1269 148.326L-45.8899 143.454C-43.9642 144.725 -41.8497 145.208 -39.5461 144.917C-37.3589 144.74 -35.2443 144.264 -33.2024 143.49C-29.1766 142.467 -25.3689 141.317 -23.2471 144.541C-21.5031 143.269 -19.1559 143.27 -17.2884 142.034V144.669C-11.9329 145.45 -6.65005 145.144 -1.4326 143.738L-2.69699 145.876C-0.415268 145.599 0.696518 143.426 1.55399 141.224C2.40417 139.023 3.04364 136.793 4.72224 136.083C5.54337 137.198 6.40083 138.284 7.3237 139.335C11.3785 138.014 15.2371 136.281 18.8994 134.13C20.7597 133.071 22.322 131.694 23.5937 129.996C24.8654 128.299 25.7301 126.424 26.1879 124.365C26.5658 124.649 26.8128 125.018 26.9291 125.473C27.0381 125.927 26.9945 126.36 26.791 126.786C27.3651 126.069 28.317 125.047 29.3271 123.903C30.3008 122.76 31.1801 121.553 31.9649 120.274C33.3237 117.796 33.5781 115.63 30.8167 114.976C32.4372 115.722 33.3891 114.11 33.7379 111.88C33.9923 109.586 33.9923 107.292 33.7379 104.998L36.0197 106.454C33.9269 102.548 33.1057 102.144 33.6071 98.1809C34.1812 97.5559 35.4165 97.9607 35.104 98.678C36.7173 96.6327 33.4836 95.7592 35.9906 93.0676L37.066 94.8928C38.3958 92.1373 37.4512 92.0734 36.274 89.7796C36.3176 89.1404 36.492 88.5368 36.7972 87.9757C37.1024 87.4076 37.5166 86.9247 38.0252 86.527C38.5412 86.1293 39.1152 85.8523 39.7474 85.689C40.3796 85.5257 41.0191 85.4972 41.6658 85.5967C40.554 84.6664 39.5076 82.2802 41.0336 81.1013C41.3606 81.2007 41.6295 81.3854 41.8402 81.6552C42.051 81.918 42.16 82.2234 42.1745 82.5571C43.8022 81.2007 44.7106 79.475 44.8995 77.3871C45.3137 75.7111 45.7569 74.2837 47.7843 73.6374C48.2494 73.9996 48.7799 74.1842 49.3685 74.1914C48.075 75.9597 46.658 77.6357 45.1248 79.2122C47.1521 80.455 49.2159 78.4098 50.6401 82.0955C50.4512 80.2704 50.3931 78.4453 50.4512 76.6059C50.4367 75.7253 50.6329 74.8944 51.0253 74.099C51.4249 73.3107 51.9845 72.6503 52.7039 72.1177C53.009 72.1603 53.307 72.2526 53.5904 72.3946V72.7994C54.1717 72.4088 54.506 71.8762 54.5714 71.1873C55.3998 70.9388 56.1482 70.5482 56.824 70.0085C58.4372 71.1234 59.9923 68.4887 61.2639 67.6223C59.4255 65.6977 61.2639 64.7106 58.3791 64.3058C58.6916 64.3058 58.3791 64.739 57.6452 65.4847C57.6452 65.6977 57.3327 65.8895 57.3327 66.1025V65.8895C56.5988 66.5712 55.6832 67.53 54.6368 68.6165C54.6368 66.8127 54.6368 65.0515 57.042 65.016C56.5406 63.2548 56.0901 61.3302 55.9375 60.3715C60.0868 61.6711 64.6211 60.9254 66.3361 62.4452C69.5043 58.6031 75.0851 56.0962 75.8481 50.422C76.8654 49.2431 77.9118 51.0114 78.6748 51.5654C78.1298 52.2826 77.2796 52.6519 77.1779 53.4615C79.1181 51.1322 84.4445 49.9888 84.0303 46.6084C87.8962 47.0132 83.1438 50.2018 87.5474 48.2205L87.264 49.4278C89.4585 50.0456 91.5731 49.8539 93.6078 48.8383C95.5189 47.8796 97.3065 46.7362 98.9633 45.4011C102.553 42.9865 107.022 40.7495 112.254 44.5347C111.527 44.066 111.178 43.8529 111.019 43.2635C117.086 44.5205 123.205 45.4579 129.374 46.0829C132.528 46.3882 135.536 47.2049 138.392 48.5329C141.255 49.8681 143.798 51.6293 146.022 53.8308C148.529 56.2454 149.859 54.4842 152.591 54.0155L151.799 56.8064L156.588 55.8761C159.436 56.217 160.294 58.9724 161.34 61.4864C161.471 62.1895 161.718 62.85 162.067 63.4749C162.423 64.0999 162.866 64.6467 163.404 65.1296C163.942 65.6125 164.545 65.996 165.213 66.2872C165.882 66.5712 166.579 66.7488 167.306 66.8127L167.967 64.8313C169.522 66.5357 174.311 69.0142 172.313 70.2854C172.727 70.2854 174.311 69.419 174.217 70.7541L173.199 71.8052L174.093 72.21C172.727 74.3476 171.993 77.728 168.127 75.775L169.522 72.1745C164.036 71.8975 166.354 77.3232 160.773 75.1217C161.725 73.6374 165.017 73.7866 164.167 73.3889C160.359 70.6618 161.631 75.5265 158.804 75.6188L158.041 72.5154C151.755 74.0138 145.593 75.8958 139.555 78.1612C139.715 77.167 140.667 75.9881 138.923 75.3063C134.708 76.8616 130.384 78.0405 125.952 78.843C121.388 79.8301 116.723 80.732 112.377 81.9393C111.84 83.2744 111.331 84.6024 110.859 85.9091C110.161 86.25 108.984 85.5043 109.434 84.6663C105.976 85.4759 110.161 86.2145 109.434 87.9544C107.974 89.0978 106.448 87.9544 107.051 86.6193C105.118 89.0978 102.488 92.5066 99.6609 95.5745C97.2193 98.6354 94.269 101.128 90.8174 103.046L90.9772 101.59C90.1852 102.229 89.6474 103.024 89.364 103.99C89.0734 104.949 89.0806 105.9 89.3931 106.859C89.3931 108.592 89.8364 110.204 87.5183 111.347V110.389C84.2556 114.728 81.9593 119.507 80.6368 124.741C79.7793 129.251 78.1153 133.469 75.6592 137.382C79.4669 139.335 72.8688 145.876 78.326 147.055C77.236 148.432 75.9644 149.633 74.5183 150.648C73.1449 151.891 71.9386 153.276 70.8995 154.803C70.2673 156.038 73.501 157.899 73.1885 160.406L70.4272 159.419C71.0013 160.782 71.5026 162.238 72.0476 163.694C70.7469 163.914 69.4099 164.156 68.0801 164.496C68.0801 165.462 68.0801 166.485 68.0801 167.6C68.5597 166.449 70.0493 165.583 70.776 165.988C70.4853 168.53 69.7368 170.938 68.5233 173.21C67.5423 175.625 66.4305 177.762 65.6675 177.89C66.8229 182.194 68.8285 186.078 71.6989 189.544C70.8414 189.786 69.9185 188.891 68.9375 187.897C70.4563 189.544 70.013 190.006 69.5043 190.531C69.0029 191.057 68.269 191.71 71.1539 193.635C71.1539 192.577 72.8397 193.074 73.4065 192.825C73.8425 195.069 74.8962 196.98 76.582 198.556C77.4395 199.522 78.406 200.381 79.4669 201.134C80.4551 201.866 81.5088 202.498 82.6351 203.023L80.7313 204.11C87.4238 209.528 96.1729 211.574 104.675 213.25C104.101 213.044 103.672 212.681 103.381 212.156C103.091 211.637 103.011 211.084 103.149 210.501C103.287 209.926 103.607 209.464 104.101 209.116C104.595 208.768 105.147 208.633 105.75 208.69C105.75 209.748 105.881 210.778 106.135 211.794C108.039 210.182 103.854 210.274 107.4 208.506C110.35 209.28 109.049 212.227 106.993 212.937C108.315 212.823 109.623 212.617 110.924 212.319C110.924 213.25 110.132 213.654 109.783 214.798C111.396 212.973 115.967 218.427 118.307 215.075L118.503 215.977C120.531 215.977 122.304 215.977 123.888 215.977C125.479 215.977 126.874 215.572 128.233 215.323C130.966 214.926 133.407 214.244 136.604 213.711C136.321 211.14 138.857 211.325 140.252 208.818C142.57 208.818 145.077 209.003 147.672 208.818C148.972 208.818 150.309 208.662 151.668 208.477C153.005 208.229 154.306 207.866 155.57 207.391C158.739 204.941 155.89 204.941 156.966 202.959C158.041 205.097 163.055 202.959 161.057 205.502C163.433 204.5 165.715 203.321 167.909 201.965C170.438 200.339 172.807 198.514 175.009 196.482C173.773 196.021 172.691 196.113 172.756 195.147C173.868 194.16 176.186 194.529 176.564 195.616L176.338 196.021C177.966 194.146 179.964 192.818 182.333 192.023C184.782 191.114 187.275 190.347 189.818 189.729C191.053 189.352 192.289 188.983 193.466 188.55L195.174 187.897C195.37 187.897 195.842 187.556 195.842 187.62H196.002C196.416 187.62 196.474 187.25 196.54 185.944C196.91 184.331 197.477 182.798 198.255 181.327C198.727 181.171 198.473 181.945 198.255 182.876C197.993 183.799 197.891 184.743 197.964 185.695C198.24 184.594 198.683 183.564 199.301 182.599C199.555 182.137 199.584 182.378 199.613 182.599C199.65 182.819 199.613 183.06 199.613 183.344C199.613 184.8 199.613 186.007 200.98 185.73L199.839 187.74C199.722 188.308 199.722 188.877 199.839 189.445C199.839 189.445 199.999 189.786 200.188 190.07L200.791 190.908C201.205 191.462 201.648 191.987 202.12 192.548C203.116 193.642 204.17 194.679 205.296 195.644C209.925 199.486 215.317 202 217.976 205.906L218.325 204.23C221.021 203.733 220.258 206.247 221.493 207.327C221.784 206.091 219.975 205.004 221.493 204.756C225.882 206.169 230.33 207.348 234.849 208.293C239.355 209.209 243.911 209.798 248.518 210.054C257.797 210.665 266.844 209.514 275.659 206.617C281.843 204.166 275.027 197.569 283.681 197.32L283.398 201.099C287.954 196.717 292.743 192.584 297.764 188.706C300.162 186.711 302.386 184.545 304.42 182.194C305.43 181.029 306.353 179.801 307.182 178.508L307.494 178.011V176.094C307.843 176.804 308.482 177.514 308.351 177.67C309.274 178.288 309.332 178.26 309.303 177.67C309.267 176.726 309.173 175.788 309.02 174.851C309.529 174.851 309.587 176.619 309.972 177.606C310.35 178.6 310.255 177.606 310.51 176.924C310.764 176.243 311.178 175.966 311.018 177.145C310.967 177.45 310.873 177.734 310.728 178.011C311.142 176.96 311.396 178.664 312.377 176.278C312.377 176.278 312.377 176.278 312.573 176.584L313.177 177.052C313.562 177.343 313.976 177.606 314.412 177.826C315.269 178.26 316.156 178.629 317.013 178.97C318.794 179.453 320.283 180.383 321.482 181.761C324.651 180.241 327.187 186.284 329.723 182.968C327.441 186.597 334.962 189.168 338.319 188.458C336.953 189.296 340.034 190.595 338.319 191.802C341.298 192.981 344.438 193.194 344.663 191C345.092 191.625 345.608 192.179 346.211 192.655C346.814 193.13 347.475 193.507 348.194 193.784C348.914 194.061 349.655 194.224 350.433 194.274C351.203 194.331 351.966 194.274 352.714 194.096C355.599 194.096 357.983 193.755 359.058 197.193C361.689 197.193 364.196 196.852 366.666 196.575C369.144 196.298 371.746 195.921 374.122 195.396C375.103 195.183 376.026 194.899 377.007 194.657L378.242 196.205L380.466 193.784C382.871 193.074 385.218 192.3 387.442 191.398C387.885 193.415 385.443 194.253 383.031 194.806C380.625 195.367 378.278 195.801 378.722 197.91C382.529 196.632 386.061 194.835 389.309 192.513C392.361 190.375 395.638 188.642 399.141 187.307C401.423 186.753 398.916 189.48 398.472 190.411C402.156 187.74 405.862 185.482 409.191 182.663C412.759 180.021 415.258 176.633 416.712 172.493C417.024 172.713 416.901 173.707 416.712 174.602C417.504 173.146 419.371 171.662 417.562 170.852L417.155 172.465C415.251 172.805 414.931 170.668 414.713 168.53C414.488 166.393 414.205 164.099 413.507 163.694C415.665 165.86 416.675 164.347 417.693 162.891C418.71 161.429 419.851 160.065 422.67 163.133C422.67 161.961 422.067 160.441 420.737 160.377C421.464 159.014 422.292 158.581 423.433 160.377C423.651 158.595 423.259 156.954 422.256 155.449C421.609 154.227 421.391 152.935 421.624 151.578ZM37.9235 67.2814C37.6982 66.5712 36.1795 67.7146 34.7552 68.1833C35.5255 67.3524 36.2377 66.4718 36.8771 65.5486C38.0834 65.8895 38.6502 66.692 38.1488 67.2814H37.9235ZM58.0594 68.3041V67.9632C58.321 68.3538 58.5317 68.7657 58.6916 69.206C58.2192 70.1292 57.6452 70.0085 57.1728 69.696C57.5507 69.3551 57.8341 68.8651 58.2846 68.3041H58.0594ZM187.188 98.3939C188.285 98.4933 189.273 98.8484 190.167 99.4805C189.942 100.191 189.753 100.872 189.593 101.462L189.404 101.313C187.849 99.7574 184.746 99.7929 187.406 98.3939H187.188ZM185.603 63.9649C185.603 64.1851 185.603 64.3981 185.603 64.6467H185C185.211 64.3484 185.487 64.1212 185.821 63.9649H185.603ZM180.56 101.156L182.711 100.752C183.343 100.631 183.976 100.546 184.615 100.503C185.436 100.453 186.243 100.546 187.028 100.78C188.074 101.1 188.83 101.746 189.309 102.705C189.215 103.223 189.157 103.756 189.15 104.281C188.772 101.867 187.885 102.115 186.613 103.94C185.887 105.219 185.262 106.54 184.746 107.91C184.303 109.21 183.859 110.637 183.445 112.029C182.159 109.544 180.618 107.221 178.816 105.062C179.507 104.785 180.212 104.558 180.938 104.381L185.502 103.138L182.333 103.912C181.076 104.203 179.841 104.551 178.627 104.963L178.431 104.722C178.133 103.784 177.741 102.882 177.261 102.023C178.417 101.675 179.587 101.412 180.778 101.213L180.56 101.156ZM179.986 130.316C180.052 131.126 179.943 131.907 179.674 132.674C179.449 133.043 179.071 132.674 178.562 131.651C178.78 130.998 178.976 130.288 179.129 129.634C179.289 128.981 179.478 127.901 179.703 128.335C179.964 128.995 180.132 129.677 180.212 130.38L179.986 130.316ZM179.129 121.268C178.722 120.565 178.395 119.834 178.148 119.067C178.235 118.825 178.308 118.577 178.373 118.321C178.758 119.308 179.085 120.31 179.354 121.332L179.129 121.268ZM176.375 131.31C175.612 133.171 174.914 135.024 174.028 136.821C172.662 134.158 174.594 129.698 176.724 123.619L177.799 120.31C177.726 122.589 178.279 124.713 179.449 126.687C179.361 128.178 178.954 129.585 178.242 130.905C178.024 130.344 177.799 129.663 177.545 128.86C177.545 129.762 177.799 130.628 177.93 131.431C177.683 131.779 177.363 132.049 176.978 132.241C177.327 133.476 177.734 133.356 178.119 132.674C178.308 133.633 178.497 134.499 178.686 135.309C176.811 138.313 175.517 141.551 174.82 145.009C173.919 148.042 172.669 150.932 171.077 153.681C170.285 153.517 169.588 153.176 168.985 152.658C168.985 152.317 168.985 152.196 168.759 152.381C168.338 151.87 168.033 151.301 167.844 150.677C171.383 144.512 174.304 138.078 176.593 131.367L176.375 131.31ZM167.11 171.598C167.197 171.193 167.197 170.789 167.11 170.391V171.534C166.463 171.477 165.816 171.371 165.177 171.222C164.864 171.222 164.574 171.009 164.261 170.916C164.523 170.725 164.792 170.561 165.082 170.419C166.1 169.83 167.015 169.517 167.241 170.419C168.897 169.155 170.482 167.813 171.993 166.393C172.538 166.194 173.068 165.966 173.584 165.711C172.124 167.628 170.7 169.61 169.239 171.662C168.599 171.655 167.967 171.619 167.335 171.534L167.11 171.598ZM168.759 172.152L167.844 173.459C166.005 174.446 166.383 173.175 166.608 172.244C167.4 172.273 168.2 172.223 168.985 172.095L168.759 172.152ZM169.493 156.223C168.403 157.821 167.146 159.277 165.715 160.598C166.318 158.275 167.233 156.088 168.476 154.021C169.166 154.355 169.798 154.767 170.38 155.264L170.06 155.697C168.57 155.882 167.495 155.328 167.655 155.918C168.302 156.294 168.992 156.379 169.711 156.166L169.493 156.223ZM167.212 129.322C167.408 126.857 167.735 124.415 168.193 121.979C168.825 121.979 169.268 122.163 169.457 123.158C168.796 126.879 167.938 130.316 167.11 133.512C167.219 132.042 167.328 130.628 167.43 129.265L167.212 129.322ZM165.969 153.78C166.092 153.595 166.194 153.411 166.289 153.219C166.616 153.304 166.935 153.418 167.241 153.56L164.705 156.038C164.581 156.919 164.334 157.764 163.971 158.581C163.833 158.133 163.745 157.679 163.724 157.217C164.77 156.01 165.497 154.895 166.194 153.716L165.969 153.78ZM162.801 168.836H163.244L162.357 170.142L161.878 169.858C162.387 169.517 162.67 169.148 162.99 168.779L162.801 168.836ZM151.857 91.3632C152.388 89.8506 153.02 88.3805 153.761 86.9602C154.967 88.3521 156.326 89.5736 157.852 90.6176H156.428C154.887 90.7454 153.369 90.9726 151.857 91.2993H151.545L149.161 91.1431C149.604 90.8306 150.099 90.6815 150.636 90.7028C151.181 90.717 151.661 90.8945 152.082 91.2354L151.857 91.3632ZM157.663 166.052C157.663 166.052 157.852 165.895 157.852 165.924L157.663 166.052ZM142.694 156.749C137.019 161.961 135.405 162.11 134.642 161.897C133.872 161.443 133.08 161.393 132.266 161.741C131.598 160.91 131.053 160.008 130.617 159.042C132.165 160.037 132.361 157.743 132.804 155.541C132.804 154.923 133.058 154.27 133.153 153.652V152.658L133.502 150.989C133.691 149.839 133.879 148.724 134.01 147.673C134.134 146.614 134.454 145.691 134.606 144.853C133.821 146.352 133.153 147.9 132.615 149.498L131.721 151.884L131.089 153.716C131.14 152.047 131.343 150.392 131.692 148.759C132.005 146.977 132.448 145.23 133.022 143.518C134.09 140.173 135.471 136.963 137.179 133.881C137.593 135.493 138 136.977 138.443 138.497C141.742 133.093 145.383 127.93 149.386 123.001C149.386 124.521 149.198 126.105 149.161 127.525C149.924 125.174 150.811 122.881 151.763 120.587C150.731 127.809 150.68 135.039 151.61 142.282C151.61 143.206 151.763 144.136 151.857 145.066C149.837 147.417 147.461 149.349 144.729 150.861C146.247 150.712 147.039 152.289 142.883 156.628L142.694 156.749ZM135.209 80.171C135.689 80.9806 135.623 81.9677 134.86 82.0955C135.115 81.3783 133.211 81.3499 131.881 80.9167C133.058 80.6681 134.323 80.3272 135.558 80.0218L135.209 80.171ZM131.569 111.596L132.361 111.099L132.862 110.793C136.263 109.082 139.824 107.818 143.551 107.008L142.73 107.726C138.348 112.022 134.533 116.752 131.278 121.915C128.197 127.014 125.69 132.361 123.764 137.972C123.19 139.335 122.907 140.791 122.464 142.183C122.028 143.575 121.664 144.974 121.388 146.401L120.502 150.705C120.276 152.289 120.153 154.085 119.928 155.79C118.91 157.927 118.438 157.587 118.249 155.79C118.053 153.233 118.169 150.698 118.598 148.17L119.135 144.512C119.39 143.426 119.579 142.467 119.673 141.75C119.673 140.386 119.673 140.017 118.213 141.75C116.977 146.565 116.381 151.451 116.41 156.408C116.178 160.243 116.716 163.978 118.024 167.6C117.697 167.408 117.421 167.16 117.203 166.854C116.817 166.279 116.498 165.668 116.251 165.029C114.165 164.227 112.501 162.92 111.273 161.088C109.5 158.659 108.439 155.967 108.097 152.999C107.952 150.669 107.952 148.333 108.097 145.997C108.097 144.569 107.625 144.228 106.448 145.997C106.23 146.614 106.099 147.239 105.91 147.857V146.614C106.659 139.96 109.1 133.959 113.235 128.612C117.319 123.001 122.195 118.144 127.855 114.046L130.522 112.249H130.74L131.598 111.596H131.569ZM126.649 179.034H125C121.177 178.813 117.479 178.032 113.903 176.676C113.903 176.399 113.46 175.937 112.574 175.22C114.463 176.37 116.498 177.187 118.67 177.67C120.843 178.153 123.038 178.281 125.254 178.039L125.697 178.48L126.649 179.034ZM122.275 107.228L123.699 106.362L122.594 107.349H122.275C122.456 107.356 122.573 107.278 122.623 107.108L122.275 107.228ZM129.222 99.4166H129.759L128.328 99.8214L129.222 99.4166ZM128.044 100.098C129.113 100.546 130.217 100.723 131.372 100.624C129.316 102.023 127.252 103.507 125.225 105.119C125.479 104.622 124.782 104.501 123.445 104.501H122.246C123.982 102.591 126.039 101.085 128.393 99.9776L128.044 100.098ZM119.005 98.678C119.826 97.6908 120.879 97.2079 122.18 97.215C121.003 97.8684 119.862 98.6141 118.721 99.3597C118.917 99.0899 119.128 98.8484 119.353 98.6141L119.005 98.678ZM116.469 101.156C115.865 101.646 115.262 102.144 114.696 102.669C114.819 102.2 115.081 101.81 115.473 101.504C115.873 101.199 116.316 101.043 116.817 101.029L116.469 101.156ZM112.123 103.727C112.501 103.656 112.806 103.77 113.046 104.068C112.225 104.75 111.396 105.432 110.633 106.113C111.099 105.169 111.709 104.331 112.472 103.599L112.123 103.727ZM103.214 126.936C104.123 125.331 105.111 123.782 106.194 122.291C107.291 121.034 108.497 119.891 109.812 118.847C110.75 118.08 111.731 117.37 112.763 116.709C112.537 116.993 112.283 117.27 112.094 117.547L113.206 116.404L114.376 115.658C111.171 119.351 108.315 123.285 105.816 127.468C106.194 126.041 106.673 124.706 107.116 123.314C105.59 125.075 104.188 126.921 102.902 128.86C102.974 128.136 103.2 127.454 103.563 126.815L103.214 126.936ZM101.884 129.386C102.168 129.08 102.451 128.704 102.742 128.427V128.924C100.082 132.901 98.0913 137.176 96.776 141.75L96.2092 141.38C98.5854 136.7 100.424 132.702 102.233 129.265L101.884 129.386ZM101.281 169.674C101.281 169.674 101.092 169.674 101.027 169.461C100.962 169.24 101.027 169.461 101.027 169.304C101.238 169.361 101.434 169.432 101.63 169.517L101.281 169.674ZM95.9549 157.281C96.1366 158.325 96.3763 159.362 96.6815 160.377C97.4445 162.828 98.4982 165.157 99.8571 167.351L98.4255 165.37C97.1466 163.488 96.0857 161.492 95.2573 159.383C95.795 158.581 96.0493 157.899 96.3037 157.217L95.9549 157.281ZM92.5323 165.427C94.8431 168.53 97.321 171.257 99.6609 174.233C96.8996 172.429 94.487 170.249 92.4306 167.692L91.7039 166.67L92.5904 166.329C92.6704 166.002 92.7648 165.682 92.8811 165.37L92.5323 165.427ZM160.679 182.286C160.483 181.732 160.679 180.83 159.945 180.987C159.567 181.668 157.918 184.616 155.985 184.552L156.682 182.535C149.924 183.373 148.66 189.878 143.232 192.328C142.977 191.44 142.505 190.68 141.815 190.048C141.124 189.409 140.318 188.997 139.395 188.798C137.76 188.323 136.096 188.074 134.388 188.053V187.463C127.187 188.173 122.464 192.328 115.168 193.663C114.071 192.52 112.77 191.66 111.273 191.092C109.907 190.467 108.286 190.006 106.644 189.445C103.28 188.628 100.475 186.924 98.2366 184.331C98.5854 185.354 96.3691 187.03 95.2863 186.718C95.0684 186.256 94.3998 186.1 93.7676 185.979C93.3316 185.553 92.9174 185.113 92.5323 184.644C92.6994 184.381 92.8956 184.14 93.1282 183.934L93.4188 184.275C95.1628 180.923 93.1282 180.241 92.5904 179.062C91.6094 179.595 90.6575 180.092 89.6765 180.553C89.4222 180.149 89.1969 179.751 88.9789 179.346C89.5457 177.564 89.4948 175.795 88.819 174.048C88.6737 173.004 88.7246 171.967 88.9789 170.945C89.5384 172.202 89.989 173.494 90.3378 174.822C90.3378 172.124 90.1198 170.171 90.0253 168.623L90.3378 168.253C91.1371 169.823 92.0527 171.321 93.0991 172.742C95.6642 175.788 98.5999 178.43 101.914 180.674L101.092 180.056L103.599 181.761L101.914 180.674C105.489 183.266 109.362 185.333 113.518 186.874C110.052 185.461 106.753 183.735 103.628 181.697C106.223 183.366 108.933 184.8 111.774 186.007C115.677 187.52 119.702 188.55 123.859 189.104C121.766 188.642 119.702 188.06 117.675 187.371C126.838 186.554 135.762 184.651 144.438 181.668C150.92 179.268 156.566 175.632 161.376 170.76L162.132 171.165C161.405 172.436 161.66 172.493 162.452 172.124L163.498 171.506C164.465 171.832 165.46 172.038 166.478 172.124H166.761C164.37 175.305 162.336 178.693 160.679 182.286ZM190.138 159.973C188.11 161.727 186.236 163.63 184.521 165.675C183.787 166.535 183.14 167.458 182.588 168.438C182.37 168.779 182.246 169.148 182.21 169.553C182.21 169.858 182.21 170.199 182.21 170.54C181.382 170.299 179.921 169.397 180.749 168.346C179.143 169.283 177.705 170.433 176.433 171.783C175.074 173.082 173.773 174.538 172.444 175.937C170.583 178.075 168.309 179.637 165.62 180.617C166.543 179.254 167.364 178.075 168.193 176.924C169.355 175.277 170.358 173.544 171.201 171.719C172.393 171.435 173.548 171.044 174.66 170.54C173.628 170.902 172.567 171.172 171.492 171.35C171.942 170.341 172.335 169.304 172.662 168.246C173.802 166.854 175.016 165.519 176.309 164.255L176.724 164.006C175.292 165.15 177.421 164.006 180.618 161.187C180.742 161.166 180.858 161.194 180.953 161.265C181.054 161.336 181.113 161.436 181.127 161.556C181.382 160.96 181.708 160.399 182.115 159.88L182.464 159.575C183.54 158.609 184.651 157.558 185.632 156.472C186.613 155.385 187.951 154.085 188.801 153.127L189.535 152.381L191.119 153.439L190.581 154.362L189.883 155.449L188.997 156.784C190.138 155.42 190.835 154.611 191.562 153.681C192.194 154.057 192.892 154.426 193.684 154.803C194.476 155.172 194.607 155.144 195.115 155.328C193.306 156.812 191.686 158.361 190.138 159.973ZM201.997 125.203V125.572C201.837 125.544 201.837 125.387 201.866 125.203H201.997ZM201.961 138.838C201.779 139.023 201.612 139.222 201.459 139.427C201.459 139.214 201.808 139.023 201.997 138.81C201.881 139.498 201.684 140.159 201.394 140.791C201.074 141.011 200.733 141.196 200.376 141.352V141.103C200.376 141.103 200.376 141.103 200.376 141.26C200.02 141.068 199.715 140.819 199.461 140.514C198.763 139.676 198.24 138.746 197.906 137.723C198.124 137.041 198.378 136.36 198.603 135.649C199.265 138.128 200.122 138.93 200.471 139.151C200.82 139.364 201.169 138.994 201.423 138.561C201.612 138.185 201.895 137.908 202.28 137.723C202.186 138.135 202.041 138.526 201.837 138.902L201.961 138.838ZM202.309 129.173C202.266 128.796 202.208 128.42 202.12 128.058C202.106 127.944 202.106 127.83 202.12 127.717L203.138 126.786L203.327 127.092C202.818 127.958 202.506 128.676 202.186 129.322L202.309 129.173ZM211.669 166.201V162.948C212.272 164.994 212.839 167.103 213.507 169.368C213.064 169.056 212.65 168.899 212.366 169.212C211.894 170.085 211.705 171.016 211.792 172.003V171.847C211.538 170.355 211.538 168.438 211.538 166.357L211.669 166.201ZM213.347 176.491C212.664 175.831 212.192 175.042 211.923 174.141C211.72 173.722 211.669 173.288 211.763 172.834C211.763 172.585 211.763 172.28 211.763 172.003C211.749 172.06 211.749 172.124 211.763 172.188C211.763 172.401 211.763 172.585 211.763 172.834C211.763 173.082 211.763 172.834 211.923 172.685C212.337 173.956 212.897 175.163 213.602 176.307C213.442 176.385 213.311 176.498 213.224 176.647L213.347 176.491ZM213.631 176.214C212.999 174.971 212.49 173.736 212.018 172.557C212.49 172.188 213.507 172.557 214.459 172.557C214.743 173.423 215.12 174.389 215.469 175.312C214.902 175.376 214.299 175.596 213.507 176.37L213.631 176.214ZM212.047 73.9428C212.047 73.6942 211.829 73.4812 211.727 73.2326L213.224 72.8278C214.256 72.4799 215.317 72.21 216.392 72.0253C216.552 72.2739 216.77 72.5154 216.959 72.7994C215.244 73.1261 213.565 73.5806 211.923 74.1629L212.047 73.9428ZM233.134 60.897C231.747 61.9907 230.446 63.1766 229.232 64.462C228.651 63.5317 228.15 62.5659 227.743 61.5503C227.11 59.7536 227.328 59.1003 227.902 59.1926C227.321 58.6884 226.834 58.1131 226.442 57.4598C226.1 56.8703 225.933 56.2383 225.933 55.5636C225.933 54.889 226.1 54.264 226.442 53.6746L227.997 53.8308C228.186 52.2968 228.775 50.9333 229.77 49.7402C230.86 48.4051 232.161 47.3115 233.672 46.4522C237.465 44.2861 241.491 42.6741 245.757 41.623C248.721 41.0265 251.614 41.2537 254.448 42.3048C255.552 42.8942 255.429 43.6044 255.617 44.2577C255.806 44.904 256.221 45.6213 258.313 46.2675C259.614 46.6723 261.482 47.0771 264.657 47.8157C264.243 48.9662 263.894 50.0811 263.611 51.1961C261.801 51.1961 259.992 51.5086 258.248 51.7855C255.821 52.6661 253.467 53.6959 251.178 54.8819C250.117 54.9458 249.056 55.0594 248.009 55.2227C245.837 55.5849 243.722 56.1389 241.666 56.8987C238.657 58.0634 235.772 59.4696 233.011 61.1171L233.134 60.897ZM253.939 27.3983C254.731 27.1143 255.24 27.8599 255.712 28.2008H255.523C255.022 27.8954 254.491 27.6327 253.939 27.4267V27.3983ZM250.385 134.435H249.31C249.899 131.822 250.262 129.18 250.385 126.502C250.618 129.151 250.618 131.793 250.385 134.435ZM244.739 137.751H244.485H244.776H244.739ZM244.521 133.661C244.667 128.285 245.212 122.944 246.134 117.639L248.896 117.86C249.862 121.964 249.55 125.97 247.944 129.883C247.435 131.182 246.897 132.518 246.294 133.973L244.521 133.661ZM249.564 139.861C248.976 139.811 248.394 139.726 247.82 139.612V139.335C247.82 138.966 248.038 138.589 248.169 138.22H249.753L249.564 139.861ZM249.564 136.019C249.564 136.019 249.15 136.175 249.019 136.267C249.39 135.933 249.79 135.642 250.226 135.401V136.019H249.564ZM251.621 139.953H250.197C250.197 139.456 250.545 138.93 250.705 138.405H252.1C251.904 138.902 251.715 139.427 251.592 139.953H251.621ZM252.762 135.955H251.366C251.366 135.649 251.366 135.337 251.592 135.024H253.016C252.922 135.309 252.827 135.806 252.733 135.955H252.762ZM253.147 134.591H251.715C251.904 133.661 252.064 132.731 252.195 131.836C252.762 127.866 252.667 124.365 252.827 121.979C253.779 126.069 253.685 128.178 253.968 128.455C254.251 128.739 254.796 127.681 255.901 125.7C254.818 128.619 253.888 131.58 253.11 134.591H253.147ZM268.399 153.191C266.99 154.298 265.478 155.25 263.865 156.038C261.656 157.125 259.338 157.92 256.918 158.424L257.202 157.991C257.841 156.969 258.473 155.882 259.076 154.895C262.535 154.369 265.929 153.574 269.257 152.509L268.399 153.191ZM269.853 154.611C269.671 153.673 269.846 152.807 270.398 152.012L272.585 151.294C271.597 152.416 270.747 153.531 269.824 154.646L269.853 154.611ZM280.128 184.395C278.754 184.26 277.388 184.04 276.037 183.742C277.337 182.478 278.609 181.207 279.75 179.936C279.961 180.326 280.193 180.71 280.448 181.079C279.626 182.102 278.769 183.124 277.911 184.182C278.893 183.032 279.721 182.073 280.448 181.079C280.658 181.32 280.811 181.59 280.913 181.896C281.007 182.201 281.036 182.513 281.007 182.826C280.971 183.145 280.876 183.437 280.724 183.721C280.564 183.998 280.353 184.232 280.099 184.424L280.128 184.395ZM279.176 75.9242H280.222C280.157 76.123 280.106 76.3148 280.07 76.5136C280.048 76.5704 280.048 76.6201 280.07 76.6698H279.241C279.198 76.4639 279.169 76.2579 279.147 76.052L279.176 75.9242ZM281.269 182.442C281.225 181.675 281.225 180.916 281.269 180.149C281.269 179.872 280.985 179.651 280.418 179.19C282.417 176.96 284.284 174.666 286.057 172.344C285.076 175.277 283.492 177.862 281.305 180.085C283.143 177.919 284.255 176.527 285.105 175.653C285.571 175.156 286.108 174.751 286.726 174.446C285.469 177.521 283.638 180.227 281.24 182.57L281.269 182.442ZM280.571 32.9731C282.54 32.7246 283.398 32.8169 282.38 33.4703L280.571 32.9731ZM287.612 49.4633L288.405 49.9604C288.23 50.1734 288.078 50.4149 287.961 50.6706C287.707 50.351 287.583 49.9888 287.583 49.584L287.612 49.4633ZM292.241 52.5596C290.991 52.0696 289.713 51.6577 288.405 51.3239L288.092 50.8552C288.492 50.7061 288.906 50.5782 289.327 50.4859C290.337 51.1322 291.326 51.7571 292.307 52.4673L292.241 52.5596ZM314.092 46.2107C312.624 43.6044 310.844 41.2182 308.766 39.0451C305.496 35.7002 301.637 33.2288 297.19 31.638C294.392 30.6154 291.507 30.1041 288.521 30.1041C285.534 30.1041 282.642 30.6154 279.844 31.638L278.26 32.4192C274.903 31.6735 271.51 31.1764 268.08 30.9279C265.958 29.7845 263.778 28.7476 261.547 27.8315C267.702 28.421 273.69 29.749 279.496 31.8298C270.303 26.4964 262.848 27.306 255.683 28.3286C255.29 27.1143 254.818 25.9354 254.251 24.792C253.982 24.1457 253.561 23.606 252.994 23.1728C252.427 22.7396 251.795 22.4768 251.083 22.3774C251.454 23.5066 251.723 24.6642 251.875 25.8431C251.97 26.2692 252.1 26.681 252.253 27.0858H251.846C249.935 26.7592 248.009 26.61 246.076 26.6242C244.296 27.2705 242.523 27.8599 240.808 28.5417C239.093 29.2235 237.385 29.9975 235.736 30.8355C232.35 32.5257 229.174 34.5355 226.224 36.8791C224.509 36.8791 226.442 34.7699 227.081 33.7827C227.394 33.2217 227.328 32.8524 226.224 33.0371C225.316 33.2146 224.451 33.5058 223.622 33.9035C221.668 34.8551 219.837 35.9985 218.136 37.3407C215.695 40.2595 215.695 41.3744 216.203 41.4313C217.221 41.1685 218.194 40.785 219.117 40.2879C220.229 39.8263 221.086 39.6345 220.738 40.4725C219.153 42.7664 217.758 45.1596 216.552 47.6665C215.157 49.6976 214.096 51.8849 213.376 54.2356C212.89 55.6701 212.613 57.1473 212.555 58.6671C212.504 60.3786 212.781 62.0404 213.376 63.6524C214.314 66.2233 215.665 68.5526 217.439 70.6618C217.439 71.7129 216.93 71.7768 215.978 71.0027C215.346 70.4417 214.801 69.8096 214.328 69.1065C213.987 68.6449 213.667 68.1549 213.376 67.6507C214.27 69.2628 215.266 70.811 216.363 72.3023C214.743 72.5722 213.173 72.9841 211.633 73.538L211.444 73.1048C206.749 60.7123 210.397 46.1113 219.371 35.3593C219.946 34.706 220.549 34.1236 221.115 33.4987C222.147 33.1294 222.801 32.4263 223.085 31.3966C223.782 30.7432 224.538 30.1254 225.272 29.5004L225.744 29.9052C225.744 29.5643 225.933 29.195 226.035 28.8187L226.922 28.0446C228.854 26.6171 230.882 25.3246 233.011 24.1742L234.057 24.4227C234.675 24.7068 235.329 24.8843 236.012 24.9624C236.688 25.0406 237.371 25.0122 238.039 24.8772C238.708 24.7352 239.34 24.5008 239.936 24.1599C240.532 23.8262 241.055 23.4072 241.506 22.903L240.394 21.163C242.581 21.0139 247.37 19.3095 247.057 21.5394C247.246 21.1985 247.755 19.5865 248.612 20.5807V22.0365C250 21.4542 251.417 20.95 252.856 20.5168C252.813 20.7014 252.813 20.8861 252.856 21.0707L253.176 20.4245L254.157 20.1404C256.192 21.0139 255.552 22.4697 255.298 23.7978C255.16 24.16 255.109 24.5292 255.131 24.9127C255.16 25.2962 255.261 25.6584 255.45 25.9922C255.632 26.3331 255.879 26.6171 256.192 26.8515C256.504 27.0858 256.853 27.2492 257.238 27.3344C258.633 27.2137 259.999 26.9367 261.329 26.4964C262.819 26.0348 264.214 25.4454 264.119 24.8204C263.64 24.4582 263.313 23.9895 263.146 23.4214C262.979 22.8461 262.993 22.2851 263.197 21.7241L265.544 22.1289C266.561 20.7937 267.825 19.5581 268.712 18.2229L270.747 18.5354L270.55 20.3605L271.699 18.6561L274.547 19.2172C274.402 19.5936 274.147 19.8847 273.791 20.0836C275.564 20.9784 275.884 20.0836 276.48 19.6504L278.13 20.0481C278.355 20.3321 278.13 20.5168 278.13 20.673L278.798 20.2682C279.336 20.2682 279.874 20.5807 280.382 20.7298C280.891 20.8861 280.382 21.7525 279.59 21.5394C280.775 21.9868 281.959 21.9868 283.143 21.5394C284.793 22.1076 286.413 22.7609 287.998 23.4924C291.071 24.8488 293.927 26.5603 296.558 28.634C302.582 33.0655 305.278 35.8848 307.814 37.9301C310.619 40.0393 312.85 42.6243 314.506 45.6781L314.092 46.2107ZM331.06 69.2344C329.962 67.9135 328.771 66.6849 327.477 65.5486L328.676 64.0288C329.425 64.8384 330.086 65.719 330.646 66.6636C331.525 68.1123 332.164 69.6605 332.549 71.3081C332.041 70.7186 331.568 70.1008 331.023 69.419L331.06 69.2344ZM334.228 73.9428C334.366 72.7781 334.366 71.6063 334.228 70.4417C334.533 71.7555 334.657 73.0906 334.606 74.4399L334.228 73.9428ZM338.29 150.243H337.716C336.829 149.455 336.037 148.589 335.34 147.637C335.907 146.089 336.452 144.541 336.924 143.085C337.338 144.136 337.752 145.194 338.225 146.181C338.697 147.175 339.206 148.418 339.743 149.498C339.3 149.867 338.813 150.172 338.29 150.428V150.243ZM338.733 73.9144C338.617 72.3875 338.355 70.8891 337.941 69.419C338.246 69.3693 338.552 69.3693 338.857 69.419C339.133 69.4758 339.373 69.5895 339.591 69.7599C339.692 69.838 339.772 69.9303 339.845 70.0369V70.2215C339.845 70.5624 339.845 70.5056 339.845 70.6618C340.092 73.2965 339.496 73.8221 338.733 74.099V73.9144ZM341.902 62.573C342.156 62.9139 343.231 63.7448 342.824 64.6183L340.317 63.2192C339.685 65.3 342.316 63.901 342.381 65.4847C340.506 65.7332 341.269 66.7843 339.743 66.7843C339.496 66.4434 340.288 65.3568 339.46 64.9237C339.431 66.4647 338.893 67.8069 337.847 68.9574C337.367 67.4234 336.757 65.9463 336.001 64.526C334.795 62.4523 333.305 60.5916 331.532 58.944C331.532 57.893 331.757 56.8064 331.881 55.6275V52.1264L333.211 52.4673L332.927 51.9418H331.881V50.6422C331.692 48.9662 331.532 47.2262 331.22 45.465C333.53 45.465 334.737 48.1282 336.197 49.8326C335.536 50.2303 334.817 50.4291 334.039 50.4291C333.262 50.4291 332.542 50.2303 331.881 49.8326C332.266 50.5143 332.578 51.2245 332.927 51.9062C333.581 51.8849 334.192 52.027 334.766 52.3395C335.332 52.6519 335.776 53.0851 336.103 53.6462L333.465 54.0794C334.737 56.7141 338.639 58.9724 337.847 63.3755C340.288 63.2192 343.646 58.4824 346.276 62.85C344.823 63.2548 342.635 63.8087 341.872 62.7576L341.902 62.573ZM355.665 89.531L355.032 89.318L356.457 88.48C357.612 88.0965 358.746 87.6562 359.85 87.1448L360.679 86.8963L361.18 86.6477C361.507 86.4631 361.819 86.2429 362.103 86.0015C362.779 86.0796 363.265 86.4205 363.563 87.0241C360.722 87.365 358.077 88.2598 355.635 89.7157L355.665 89.531ZM373.046 152.076L372.247 150.648C371.39 152.054 370.401 153.368 369.268 154.582C367.858 151.763 366.63 148.873 365.591 145.904C366.572 143.468 367.357 140.969 367.938 138.405C370.743 140.741 372.712 143.625 373.838 147.055C374.238 147.438 374.66 147.8 375.103 148.134C374.674 149.64 373.976 151.01 373.01 152.26L373.046 152.076ZM371.52 115.346C370.06 114.664 369.268 114.699 369.428 115.63C369.05 115.161 368.635 114.792 368.258 114.359C368.032 113.336 367.807 112.342 367.524 111.255C371.142 112.718 374.129 114.969 376.498 118.016C374.885 117.086 373.213 116.262 371.491 115.537L371.52 115.346ZM395.304 148.013C395.028 147.197 394.89 146.359 394.89 145.499C394.89 145.066 395.115 144.605 395.21 144.136C395.587 145.159 395.907 146.217 396.191 147.239C395.776 148.354 395.428 148.475 395.275 148.198L395.304 148.013ZM395.304 143.951C395.304 143.333 395.653 142.716 395.776 142.062C396.052 143.66 396.212 145.272 396.256 146.898C395.907 146.089 395.587 145.102 395.239 144.136L395.304 143.951ZM278.289 20.4245C278.071 20.6091 277.752 20.7653 277.592 20.9216L278.289 20.4245ZM69.9476 159.078L70.5871 159.291L70.2673 158.517L69.9476 159.078ZM68.1091 168.686V167.415C67.8911 167.834 67.8911 168.26 68.1091 168.686ZM319.898 18.6845C319.578 18.926 319.302 19.203 319.07 19.5225L319.898 18.6845ZM338.13 191.589C336.829 190.936 335.558 190.219 334.322 189.537C335.507 190.368 336.779 191.05 338.13 191.589ZM322.907 184.395C322.739 183.415 322.347 182.528 321.737 181.732C321.468 181.803 321.228 181.917 321.003 182.073L322.907 184.395ZM417.024 174.758C416.893 174.95 416.792 175.156 416.712 175.376C416.138 176.832 416.675 175.902 417.024 174.694V174.758ZM407.003 109.522C407.192 110.566 407.65 111.489 408.369 112.278C408.362 111.134 407.912 110.19 407.003 109.458V109.522ZM385.857 82.3086L383.859 83.7076C384.906 83.9846 385.886 84.3539 387.027 84.7303C386.686 83.8781 386.293 83.0543 385.857 82.2518V82.3086ZM90.4976 178.039L91.6748 178.196C91.2752 178.004 90.89 177.777 90.534 177.514L90.4976 178.039ZM298.963 227.41C299.014 226.892 298.919 226.395 298.68 225.926C298.716 226.338 298.716 226.75 298.68 227.162L298.963 227.41ZM298.331 228C298.215 228.405 298.069 228.795 297.888 229.179C298.142 228.802 298.294 228.39 298.331 227.936V228ZM269.795 265.901C269.664 265.532 269.482 265.191 269.257 264.879L269.795 265.901ZM298.331 228C298.425 227.73 298.491 227.446 298.52 227.162C298.251 226.927 297.931 226.835 297.568 226.885C298.142 227.197 298.367 227.538 298.331 227.936V228ZM200.217 279.104C200.362 279.196 200.464 279.324 200.536 279.473C200.471 279.38 200.42 279.274 200.376 279.167L200.217 279.104ZM215.026 275.105C214.953 274.786 214.823 274.487 214.648 274.21C214.714 274.509 214.844 274.793 215.026 275.041V275.105ZM233.454 271.448L234.057 271.199C234.086 270.745 234.086 270.29 234.057 269.836L233.454 271.448ZM256.126 258.622C255.588 258.864 257.042 261.065 257.587 262.123C257.187 261.385 257.187 260.653 257.587 259.922C257.165 259.396 256.678 258.942 256.126 258.558V258.622ZM286.406 229.022V228.184C286.392 228.447 286.392 228.703 286.406 228.958V229.022ZM124.019 278.606C124.317 278.237 124.317 277.868 124.019 277.491C123.888 278.081 123.735 278.55 124.019 278.642V278.606ZM112.065 286.106L112.792 285.708C112.348 285.765 112.029 285.857 112.065 286.141V286.106ZM302.771 212.135L303.025 213.803C303.185 213.278 303.439 212.689 302.771 212.163V212.135ZM303.119 214.641V213.803C302.931 214.18 302.865 214.485 303.119 214.677V214.641ZM295.577 232.495L296.369 233.085C296.143 232.836 295.882 232.651 295.577 232.524V232.495ZM303.25 215.451L303.534 214.798C303.381 214.776 303.243 214.727 303.119 214.641L303.25 215.451ZM293.259 237.637C294.145 236.614 296.652 235.528 296.972 233.582L296.369 233.085C297.219 234.54 292.467 235.84 293.259 237.672V237.637ZM91.4205 297.76C91.8347 297.206 91.6094 297.419 91.4205 297.795V297.76ZM150.462 274.985C150.462 275.631 150.687 276.284 150.753 276.874C151.16 276.284 151.603 275.695 152.082 275.141L150.462 274.985ZM95.003 28.4494C95.6642 29.053 96.1947 29.7561 96.5871 30.5586C96.0203 28.7903 99.9806 27.6114 95.003 28.4494ZM28.4115 294.322C28.4478 293.953 28.2879 293.705 27.9319 293.577C27.8519 293.669 27.7938 293.776 27.743 293.889C28.4115 293.854 28.4115 294.01 28.6004 294.322H28.4115ZM44.2673 303.342C44.1873 303.753 44.1873 304.165 44.2673 304.577C44.478 304.194 44.5943 303.782 44.6161 303.342H44.2673ZM81.269 308.114H80.2226C80.6877 308.249 81.1527 308.249 81.6178 308.114H81.269ZM-99.416 240.335C-100.237 243.432 -104.11 238.475 -104.524 242.878C-103.761 242.132 -99.2561 243.588 -99.416 240.335ZM301.819 199.21L304.834 200.509L304.26 198.187C303.468 197.782 301.63 197.782 301.819 199.21ZM15.7239 272.875C15.7094 273.131 15.7094 273.394 15.7239 273.649L16.516 274.267L15.7239 272.875ZM299.217 205.906C299.21 205.594 299.275 205.303 299.406 205.026C299.544 204.742 299.74 204.514 299.995 204.33C300.242 204.145 300.525 204.024 300.838 203.975C301.15 203.925 301.455 203.946 301.761 204.046C300.998 203.421 302.676 201.908 300.809 200.942C300.227 201.233 299.733 201.631 299.334 202.135C298.934 202.64 298.665 203.208 298.52 203.826C298.374 204.451 298.374 205.076 298.512 205.693C298.65 206.318 298.919 206.886 299.312 207.391C298.52 207.76 297.822 207.114 297.284 206.929C297.873 208.108 298.745 209.045 299.893 209.734C301.034 210.423 302.284 210.757 303.628 210.736C301.121 208.442 302.356 208.257 299.123 205.906H299.217ZM-43.0051 147.701L-40.7815 146.401H-41.9586L-43.0051 147.701ZM21.2102 275.787C20.5126 276.533 19.8514 277.278 19.1174 277.989C20.3891 278.983 23.5283 277.584 21.2102 275.787ZM57.805 65.4847C57.8414 65.3284 57.9068 65.1864 57.994 65.0515H57.1074L57.3908 65.9179L57.805 65.4847ZM-59.9654 268.224C-58.5121 268.224 -56.9861 269.438 -56.2594 269.033C-57.2113 267.606 -58.8609 266.739 -59.9654 268.224ZM140.347 251.18L141.11 249.66L138.16 254.837L140.347 251.18ZM174.282 48.6253C174.166 48.7318 174.071 48.8596 173.991 48.9946C174.282 49.0301 174.471 48.7815 174.282 48.6253ZM273.915 246.407C272.643 246.407 270.965 246.223 271.946 244.611C266.176 246.656 274.489 245.228 270.521 249.106C271.633 248.204 272.803 247.366 273.915 246.407ZM260.123 257.102C261.482 255.27 259.135 256.016 258.851 255.49C258.408 257.102 258.284 257.5 260.123 257.102ZM172.756 269.282C171.048 269.033 172.407 270.148 171.71 271.419L172.756 269.282ZM199.395 278.578C198.698 278.237 198 277.925 197.332 277.527C197.114 278.578 198.378 278.358 199.395 278.642V278.578ZM88.4048 324.256C88.2232 324.355 88.056 324.469 87.8962 324.597C86.6027 325.527 87.4892 325.122 88.3104 324.32L88.4048 324.256ZM134.417 283.911C135.427 283.478 136.089 282.747 136.386 281.71C135.471 282.264 134.781 283.017 134.323 283.968L134.417 283.911ZM241.477 281.028C241.673 281.262 241.927 281.404 242.232 281.461C242.232 281.461 241.76 281.241 241.382 281.085L241.477 281.028ZM136.83 279.38C136.815 280.176 136.699 280.95 136.481 281.71C137.179 281.056 137.782 280.403 136.641 279.444L136.83 279.38ZM258.059 273.188L260.755 272.534C259.767 272.676 258.808 272.911 257.87 273.245L258.059 273.188ZM10.1141 304.705C9.31476 303.256 8.62442 301.758 8.05035 300.21C8.48636 301.822 9.16942 303.313 10.1141 304.705ZM-25.4997 121.112V121.766L-24.8675 121.176L-25.4997 121.112ZM-33.3622 122.54C-33.7619 122.476 -34.0889 122.596 -34.3432 122.909L-33.3622 122.54ZM3.04364 290.757C3.52324 290.118 3.82118 289.408 3.93018 288.62C3.68311 288.591 3.44331 288.591 3.20351 288.62L3.04364 290.757ZM200.028 141.721C200.028 141.721 200.064 141.629 200.028 141.601V141.721ZM122.907 130.813C122.907 132.425 123.161 134.094 123.321 135.678L124.367 132.581L125.668 129.478C126.526 127.355 127.507 125.288 128.618 123.285C127.63 124.493 126.555 125.636 125.632 126.907L122.907 130.813ZM108.134 141.998C109.507 139.129 111.164 136.423 113.111 133.881C112.603 132.702 109.783 137.787 108.134 141.998ZM200.791 140.358C200.565 140.763 200.442 140.976 200.347 141.196C200.253 141.409 200.347 140.976 200.507 140.883C200.587 140.713 200.689 140.55 200.791 140.386V140.358ZM200.791 140.358C200.791 140.358 200.98 140.045 201.139 139.861L200.791 140.358ZM106.739 145.443C107.146 144.512 107.589 143.362 108.097 142.062C107.589 143.156 107.146 144.271 106.768 145.407L106.739 145.443ZM133.814 111.347L130.929 112.221C130.195 112.789 129.541 113.442 128.967 114.174C130.551 113.151 132.165 112.221 133.85 111.319L133.814 111.347ZM106.099 146.65C106.23 146.43 106.375 146.224 106.542 146.032L106.739 145.443C106.564 145.847 106.368 146.238 106.135 146.614L106.099 146.65ZM213.282 67.6223L212.177 65.5131C212.504 66.2375 212.868 66.9405 213.282 67.6223ZM143.522 150.897C143.777 151.11 144.278 150.897 144.976 150.74C144.511 150.598 144.046 150.598 143.58 150.74L143.522 150.897ZM175.546 168.559C180.967 165.789 185.385 161.926 188.801 156.969C184.899 161.329 180.502 165.136 175.612 168.402L175.546 168.559ZM371.68 144.512C371.397 143.987 371.142 143.454 370.757 142.772C371.142 143.27 371.455 143.859 371.746 144.356L371.68 144.512ZM374.056 148.198C374.064 147.85 374.013 147.509 373.897 147.175C373.068 146.309 372.385 145.35 371.84 144.292C372.48 145.649 373.221 146.948 374.056 148.198Z" fill="url(#paint0_linear_599_2103)"/>
<defs>
<linearGradient id="paint0_linear_599_2103" x1="146.5" y1="-2.3456e-06" x2="142.003" y2="455.162" gradientUnits="userSpaceOnUse">
<stop stop-color="#FF6969"/>
<stop offset="0.925" stop-color="#F84E72"/>
</linearGradient>
</defs>
</svg>
