<svg clip-rule="evenodd" fill-rule="evenodd" stroke-linecap="round" stroke-linejoin="round" stroke-miterlimit="1.5" viewBox="0 0 1536 512" xmlns="http://www.w3.org/2000/svg" xmlns:xlink="http://www.w3.org/1999/xlink"><radialGradient id="a" cx="0" cy="0" gradientTransform="matrix(0 -1655.27 919.593 0 500 1503.07)" gradientUnits="userSpaceOnUse" r="1"><stop offset="0" stop-color="#01b7ff"/><stop offset=".56" stop-color="#01b7ff"/><stop offset=".88" stop-color="#011efb"/><stop offset="1" stop-color="#011efb"/></radialGradient><path d="m0 0h1000v600h-1000z" fill="url(#a)" transform="scale(1.536 .853333)"/><g fill="none" stroke="#01b7ff"><circle cx="990.150106" cy="255.999275" r="565.201788" stroke-width="1.001438"/><circle cx="545.852106" cy="255.999275" r="565.201788" stroke-width="1.001438"/><g stroke-width=".21"><circle cx="344.099" cy="259.908" r="118.522" transform="matrix(0 4.76875 -4.76875 0 2007.44 -1162.77)"/><circle cx="344.099" cy="259.908" r="118.522" transform="matrix(0 4.76875 -4.76875 0 2007.44 -1607.07)"/><circle cx="344.099" cy="259.908" r="118.522" transform="matrix(-3.37201 3.37201 -3.37201 -3.37201 2647.64 129.191)"/><circle cx="344.099" cy="259.908" r="118.522" transform="matrix(-3.37201 3.37201 -3.37201 -3.37201 2961.8 -184.976)"/><circle cx="344.099" cy="259.908" r="118.522" transform="matrix(-3.37201 -3.37201 3.37201 -3.37201 894.809 2135.64)"/><circle cx="344.099" cy="259.908" r="118.522" transform="matrix(-3.37201 -3.37201 3.37201 -3.37201 1208.98 2449.8)"/></g></g></svg>