<svg clip-rule="evenodd" fill-rule="evenodd" stroke-linecap="square" stroke-miterlimit="3" viewBox="0 0 100 100" xmlns="http://www.w3.org/2000/svg"><g fill="none"><path d="m0 0h100v100h-100z"/><g stroke="#fff"><path d="m176.673 52.989c-1.678-2.553-2.64-5.523-2.64-8.691 0-9.537 8.718-17.279 19.456-17.279 10.739 0 19.457 7.742 19.457 17.279 0 9.536-8.718 17.279-19.457 17.279-4.041 0-7.797-1.097-10.908-2.973l-9.548.973z" stroke-width="1.56" transform="matrix(1.28575 0 0 1.28575 -205.2262 -12.8759)"/><path d="m174.033 44.298c0-1.856.33-3.644.941-5.32 1.762-4.834 5.861-8.739 11.111-10.662" stroke-width="2.31" transform="matrix(.865643 0 0 .865643 -123.9407 5.73377)"/></g></g><path d="m176.673 52.989c-1.678-2.553-2.64-5.523-2.64-8.691 0-9.537 8.718-17.279 19.456-17.279 10.739 0 19.457 7.742 19.457 17.279 0 9.536-8.718 17.279-19.457 17.279-4.041 0-7.797-1.097-10.908-2.973l-8.548.152z" fill="#fff" transform="matrix(-.911835 0 0 .911835 241.439 20.1218)"/></svg>