<svg clip-rule="evenodd" fill-rule="evenodd" stroke-linecap="square" stroke-miterlimit="3" viewBox="0 0 100 100" xmlns="http://www.w3.org/2000/svg"><path d="m0 0h100v100h-100z" fill="none"/><g stroke="#fff"><path d="m.093-.543c0 .02.007.036.021.05s.031.021.05.021.036-.007.05-.021.021-.03.021-.05c0-.019-.007-.036-.021-.05s-.031-.021-.05-.021-.036.007-.05.021-.021.031-.021.05zm-.057.114v.044h.067v.204h-.067v.044h.256v-.044h-.067v-.248z" fill="none" stroke-width=".01" transform="matrix(145.611 0 0 145.611 26.1197 104.656)"/><path d="m44.116 52.316h3.249v19.674h-6.463v.991h-3.249v-4.241h6.463zm18.231 19.674h-3.214v-3.25h3.214zm-21.445-23.915v.992h-3.249v-4.241h18.231v3.249zm6.158-8.018c-.675-.331-1.303-.786-1.883-1.366-1.35-1.351-2.026-2.958-2.026-4.823s.676-3.473 2.026-4.823c1.35-1.351 2.958-2.026 4.823-2.026s3.473.675 4.823 2.026c.58.58 1.036 1.207 1.366 1.883-.896-.44-1.876-.66-2.94-.66-1.865 0-3.472.676-4.823 2.026-1.35 1.35-2.025 2.958-2.025 4.823 0 1.064.219 2.044.659 2.94z" fill="#fff" fill-rule="nonzero" stroke-width="1.32" transform="matrix(1.50955 0 0 1.50955 -25.4777 -25.4777)"/></g></svg>