<svg clip-rule="evenodd" fill-rule="evenodd" stroke-linejoin="round" stroke-miterlimit="2" viewBox="0 0 461 182" xmlns="http://www.w3.org/2000/svg"><g transform="translate(0 48)"><path d="m122.365 53.564-.066-.88h-7.299l.04.99c.449 11.024 7.832 18.326 20.963 18.326 12.524 0 21.039-6.55 21.039-16.464 0-5.361-1.847-9.154-5.368-11.745-2.708-1.993-5.946-3.116-11.316-4.288-.359-.079-.732-.159-1.181-.254-.266-.056-1.22-.257-1.17-.247-9.751-2.058-12.844-3.845-12.844-9.169 0-5.506 4.472-9.012 11.973-9.012 7.299 0 11.911 4.487 12.126 11.55l.028.922h7.246l-.023-.973c-.252-11.009-7.59-18.419-19.452-18.419-11.626 0-19.302 7.042-19.302 16.16 0 5.345 1.846 9.068 5.372 11.555 2.686 1.895 5.798 2.9 11.288 4.015.257.053.525.107.844.17.198.04.421.084.84.168 5.194 1.034 7.486 1.673 9.577 2.896 2.595 1.52 3.883 3.69 3.883 7.051 0 5.837-4.874 9.164-13.409 9.164-8.17 0-13.24-4.125-13.789-11.516zm49.975-3.072v-38.492h-7.252v58.935h7.252v-11.119l7.634-7.485 13.633 18.226.284.378h9.021l-1.15-1.525-16.65-22.076 15.355-15.383 1.621-1.624h-9.857l-.277.281zm36.846 2.649h31.805l.055-.892c.01-.156.025-.415.039-.728.011-.247.021-.488.028-.715.007-.247.011-.471.011-.669 0-11.931-7.851-20.723-19.453-20.723-11.58 0-19.83 9.358-19.83 21.179 0 12.164 7.876 21.255 19.906 21.255 9.096 0 16.123-5.433 18.655-13.674l.378-1.231h-7.538l-.223.633c-1.59 4.51-5.894 7.504-11.197 7.504-6.932 0-11.765-4.793-12.636-11.939zm.22-6.312c1.224-6.399 5.9-10.646 12.265-10.646 6.561 0 11.089 4.107 12.079 10.646zm47.62-10.038h8.839v-6.464h-8.839v-11.027h-7.252v11.027h-7.328v6.464h7.328v22.776c0 7.471 3.85 11.52 10.916 11.52 1.233 0 2.297-.074 3.189-.199.552-.077.933-.157 1.143-.215l.692-.194v-6.769l-1.145.251c-.046.01-.139.029-.271.054-.224.042-.474.085-.742.124-.687.102-1.368.167-1.995.179-.065.001-.128.001-.191.001-3.096 0-4.344-1.463-4.344-5.133zm30.445 35.057c10.038 0 17.126-6.394 18.906-15.443l.223-1.135h-7.315l-.187.706c-1.524 5.775-5.663 9.104-11.627 9.104-7.444 0-12.579-5.911-12.579-14.411 0-8.566 5.127-14.486 12.579-14.486 5.964 0 10.103 3.329 11.627 9.103l.187.706h7.315l-.223-1.135c-1.78-9.048-8.868-15.443-18.906-15.443-11.661 0-19.906 9.425-19.906 21.255 0 11.766 8.256 21.179 19.906 21.179zm32.484-37.968v-21.88h-7.252v58.935h7.252v-23.84c0-6.974 4.217-11.065 10.614-11.065 6.11 0 9.179 3.561 9.179 10.305v24.6h7.252v-25.665c0-9.526-5.86-15.856-15.524-15.856-4.973 0-8.969 1.834-11.521 4.466z" fill="#fff" fill-rule="nonzero"/><path d="m20.903 2.831 27-2.831 27 2.831 20.903 27.835-47.903 55.334-47.903-55.334z" fill="#fdb300"/><g transform="translate(0 30.6663)"><path d="m19.403 0 28.5 55.334-47.903-55.334z" fill="#ea6c00"/><path d="m67.306 0 28.5 55.334-47.903-55.334z" fill="#ea6c00" transform="matrix(-1 0 0 1 143.71 0)"/><path d="m19.403 0h57l-28.5 55.334z" fill="#fdad00"/></g><path d="m47.903 0-27 2.831-1.5 27.835z" fill="#fdd231"/><path d="m76.403 0-27 2.831-1.5 27.835z" fill="#fdd231" transform="matrix(-1 0 0 1 124.306 0)"/><path d="m74.903 30.666 20.903-27.835-1.5 27.835z" fill="#fdad00" transform="matrix(-1 0 0 1 170.71 0)"/><path d="m0 30.666 20.903-27.835-1.5 27.835z" fill="#fdad00"/><path d="m47.903 0-28.5 30.666h57z" fill="#feeeb7"/></g></svg>