<svg clip-rule="evenodd" fill-rule="evenodd" stroke-linejoin="round" stroke-miterlimit="2" viewBox="0 0 100 100" xmlns="http://www.w3.org/2000/svg" xmlns:xlink="http://www.w3.org/1999/xlink"><linearGradient id="a" gradientTransform="matrix(36.2215 50.6659 -50.6659 36.2215 33.2911 32.1421)" gradientUnits="userSpaceOnUse" x1="0" x2="1" y1="0" y2="0"><stop offset="0" stop-color="#fc123d"/><stop offset="1" stop-color="#ff9ff4"/></linearGradient><linearGradient id="b"><stop offset="0" stop-color="#fc123d"/><stop offset="1" stop-color="#ff9ff4" stop-opacity="0"/></linearGradient><linearGradient id="c" gradientTransform="matrix(28.7229 18.8051 -18.8051 28.7229 48.6713 31.1949)" gradientUnits="userSpaceOnUse" x1="0" x2="1" xlink:href="#b" y1="0" y2="0"/><linearGradient id="d" gradientTransform="matrix(-7.18794 67.8301 -67.8301 -7.18794 24.0445 -3.73424)" gradientUnits="userSpaceOnUse" x1="0" x2="1" xlink:href="#b" y1="0" y2="0"/><path d="m0 0h100v100h-100z" fill="none"/><g fill="url(#a)"><path d="m45.036 77.71-10.801-27.292c-.393-.994-1.52-1.482-2.515-1.089-.995.394-1.483 1.521-1.089 2.516l10.8 27.292c.394.994 1.521 1.482 2.516 1.088.994-.393 1.482-1.52 1.089-2.515z"/><path d="m31.552 48.875-11.167 4.361c-1.246.486-1.862 1.892-1.376 3.138.487 1.245 1.893 1.862 3.138 1.375l11.167-4.361c1.246-.486 1.862-1.892 1.376-3.138-.487-1.245-1.893-1.862-3.138-1.375z"/><path d="m21.266 50.29c2.434 1.223 4.409 4.547 4.409 7.418 0 2.872-1.975 4.21-4.409 2.987s-4.409-4.547-4.409-7.418c0-2.872 1.975-4.21 4.409-2.987z"/><path d="m32.433 45.929c2.434 1.223 4.41 4.547 4.41 7.418 0 2.872-1.976 4.21-4.41 2.987-2.433-1.223-4.409-4.547-4.409-7.418 0-2.872 1.976-4.21 4.409-2.987z"/><path d="m41.701 70.895c2.433 1.223 4.409 4.547 4.409 7.418 0 2.872-1.976 4.21-4.409 2.987-2.434-1.223-4.41-4.547-4.41-7.418 0-2.872 1.976-4.21 4.41-2.987z"/><path d="m73.819 29.552c.343-.198.554-.563.554-.959s-.211-.761-.554-.959c-1.438-.831-3.494-2.018-4.845-2.798-.857-.494-1.912-.494-2.769 0-2.894 1.671-9.571 5.526-12.689 7.326-.343.198-.554.564-.554.959 0 .396.211.762.554.96 1.438.83 3.494 2.017 4.845 2.797.857.495 1.912.495 2.769 0 2.893-1.67 9.57-5.525 12.689-7.326z"/><path d="m63.114 23.851c.428-.247.692-.704.692-1.199s-.264-.952-.692-1.199c-3.168-1.829-9.123-5.267-11.815-6.821-.857-.495-1.912-.495-2.769 0-2.77 1.599-9.011 5.202-12.274 7.086-.428.247-.692.704-.692 1.199s.264.952.692 1.199c3.168 1.829 9.123 5.267 11.815 6.821.857.495 1.912.495 2.769 0 2.771-1.599 9.011-5.202 12.274-7.086z"/><path d="m54.758 39.798c.343-.198.554-.563.554-.959s-.211-.761-.554-.959c-4.625-2.67-17.591-10.156-21.863-12.623-.857-.494-1.912-.494-2.769 0-.817.472-1.857 1.073-2.718 1.57-.343.198-.554.563-.554.959s.211.761.554.959c4.625 2.671 17.591 10.156 21.863 12.623.856.494 1.912.494 2.768 0 .818-.472 1.858-1.073 2.719-1.57z"/><path d="m69.862 67.006v-12.006c0-1.338 1.085-2.423 2.422-2.423s2.423 1.085 2.423 2.423v12.206c0 1.608-.858 3.093-2.25 3.897-2.847 1.644-10.571 6.103-10.571 6.103-1.158.668-2.641.271-3.309-.887-.669-1.158-.271-2.641.887-3.309z"/><path d="m72.545 52.885-5.05 7.368c-.756 1.103-2.265 1.385-3.368.629s-1.385-2.265-.629-3.368l7.517-10.966 8.201 4.438c1.176.636 1.614 2.108.978 3.284s-2.108 1.614-3.284.977z"/></g><path d="m48.792 54.24c-.074-2.606 1.306-5.038 3.582-6.31 7.664-4.284 25.241-14.108 33.516-18.733.929-.52 2.064-.508 2.982.031.918.538 1.482 1.523 1.482 2.587v37.442c0 2.501-1.334 4.812-3.5 6.062-7.364 4.252-24.442 14.112-32.499 18.763-.915.528-2.04.536-2.962.021-.923-.515-1.506-1.477-1.536-2.533-.264-9.231-.819-28.721-1.065-37.33z" fill="url(#c)"/><path d="m48.781 53.841c-.068-2.392-1.354-4.584-3.409-5.811-6.977-4.165-23.239-13.873-31.188-18.619-.927-.554-2.08-.566-3.019-.033s-1.519 1.529-1.519 2.609v37.27c0 2.501 1.334 4.812 3.5 6.062 7.275 4.2 24.03 13.874 32.202 18.592.942.543 2.103.535 3.037-.022s1.493-1.575 1.462-2.662c-.271-9.511-.83-29.096-1.066-37.386z" fill="url(#d)"/><path d="m43.809 4.455c-7.749 4.474-22.408 12.937-30.157 17.411-3.831 2.212-6.191 6.299-6.191 10.723v34.822c0 4.424 2.36 8.511 6.191 10.723 7.749 4.474 22.408 12.937 30.157 17.411 3.831 2.212 8.551 2.212 12.382 0 7.749-4.474 22.408-12.937 30.157-17.411 3.831-2.212 6.191-6.299 6.191-10.723v-34.822c0-4.424-2.36-8.511-6.191-10.723-7.749-4.474-22.408-12.937-30.157-17.411-3.831-2.212-8.551-2.212-12.382 0zm2.185 3.784c2.479-1.431 5.533-1.431 8.012 0 7.749 4.474 22.408 12.937 30.157 17.411 2.479 1.432 4.006 4.076 4.006 6.939v34.822c0 2.863-1.527 5.507-4.006 6.939-7.749 4.474-22.408 12.937-30.157 17.411-2.479 1.431-5.533 1.431-8.012 0-7.749-4.474-22.408-12.937-30.157-17.411-2.479-1.432-4.006-4.076-4.006-6.939v-34.822c0-2.863 1.527-5.507 4.006-6.939 7.749-4.474 22.408-12.937 30.157-17.411z" fill="url(#a)"/></svg>