<svg clip-rule="evenodd" fill-rule="evenodd" stroke-linejoin="round" stroke-miterlimit="2" viewBox="0 0 100 100" xmlns="http://www.w3.org/2000/svg"><path d="m0 0h100v100h-100z" fill="none"/><path d="m46.26 78.731v15.269c0 2.064 1.676 3.74 3.74 3.74s3.74-1.676 3.74-3.74v-15.269c0-2.064-1.676-3.74-3.74-3.74s-3.74 1.676-3.74 3.74z"/><path d="m46.26 6v14.922c0 2.063 1.676 3.739 3.74 3.739s3.74-1.676 3.74-3.739v-14.922c0-2.064-1.676-3.74-3.74-3.74s-3.74 1.676-3.74 3.74z"/><path d="m28.531 97.056 21.469-15.149s21.469 15.149 21.469 15.149c1.686 1.189 4.021.786 5.211-.9s.787-4.022-.899-5.212l-23.625-16.669c-1.293-.913-3.019-.913-4.312 0l-23.625 16.669c-1.686 1.19-2.089 3.526-.899 5.212s3.525 2.089 5.211.9z"/><path d="m10.36 24.661h79.28c2.064 0 3.74-1.676 3.74-3.739 0-2.064-1.676-3.74-3.74-3.74h-79.28c-2.064 0-3.74 1.676-3.74 3.74 0 2.063 1.676 3.739 3.74 3.739z"/><path d="m89.64 30.019h-79.28v47.232c0 .868.377 1.701 1.049 2.315.671.614 1.582.959 2.532.959h72.118c.95 0 1.861-.345 2.532-.959.672-.614 1.049-1.447 1.049-2.315 0-11.345 0-47.232 0-47.232zm-47.133 25.654c.779-.666 1.008-1.776.556-2.696-.259-.486-.534-.962-.837-1.421-.567-.846-1.636-1.2-2.596-.86-1.146.39-2.508.872-2.508.872-1.44-1.217-3.197-1.999-5.065-2.255 0 0-.553-1.335-1.016-2.453-.393-.948-1.378-1.508-2.393-1.363-.541.097-1.079.211-1.609.358-.98.277-1.647 1.184-1.621 2.202.017 1.211.055 2.656.055 2.656-1.602.993-2.889 2.422-3.709 4.12 0 0-1.441.113-2.648.208-1.022.081-1.86.844-2.035 1.854-.075.545-.133 1.092-.158 1.641-.038 1.018.618 1.933 1.595 2.222 1.156.358 2.542.769 2.542.769.45 1.831 1.411 3.496 2.772 4.801 0 0-.338 1.405-.62 2.582-.239.998.228 2.03 1.134 2.509.495.24.998.464 1.513.657.956.351 2.028.01 2.605-.83.698-.989 1.517-2.18 1.517-2.18 1.88.138 3.761-.262 5.423-1.153 0 0 1.232.755 2.264 1.388.874.536 2.001.41 2.736-.304.381-.397.75-.806 1.092-1.235.63-.801.637-1.927.017-2.735-.726-.969-1.605-2.116-1.605-2.116.712-1.746.913-3.658.579-5.513 0 0 1.099-.939 2.02-1.725zm36.903-8.557c.694-.671.881-1.71.465-2.581-.399-.802-.848-1.578-1.349-2.32-.544-.793-1.534-1.149-2.459-.884-1.377.385-3.209.91-3.209.91-1.674-1.588-3.7-2.758-5.912-3.413 0 0-.462-1.85-.808-3.237-.234-.936-1.04-1.618-2.003-1.694-.894-.054-1.79-.054-2.684.009-.958.075-1.761.754-1.994 1.687-.355 1.385-.817 3.235-.817 3.235-2.212.655-4.238 1.825-5.911 3.413 0 0-1.833-.525-3.208-.918-.928-.266-1.921.091-2.468.887-.494.747-.942 1.523-1.334 2.328-.415.868-.228 1.903.463 2.571 1.023 1 2.394 2.325 2.394 2.325-.539 2.243-.539 4.583 0 6.826 0 0-1.371 1.325-2.399 2.319-.694.67-.882 1.71-.466 2.58.4.802.848 1.579 1.349 2.321.545.792 1.535 1.148 2.459.883 1.377-.385 3.21-.91 3.21-.91 1.673 1.588 3.699 2.758 5.911 3.413 0 0 .462 1.85.808 3.237.234.936 1.041 1.619 2.003 1.694.894.054 1.79.054 2.684-.009.958-.075 1.762-.754 1.994-1.687.355-1.385.817-3.235.817-3.235 2.212-.655 4.238-1.825 5.912-3.413 0 0 1.832.525 3.207.919.928.265 1.922-.092 2.468-.888.494-.746.943-1.523 1.334-2.328.415-.868.228-1.903-.463-2.571-1.023-1-2.394-2.325-2.394-2.325.539-2.243.539-4.583 0-6.826 0 0 1.371-1.325 2.4-2.318zm-45.594 10.247c.99 1.715.401 3.911-1.313 4.901-1.715.99-3.911.402-4.902-1.313-.99-1.715-.401-3.911 1.314-4.901s3.911-.402 4.901 1.313zm33.253-6.984c1.362 2.359.552 5.381-1.807 6.744-2.36 1.362-5.382.552-6.745-1.807-1.362-2.36-.552-5.382 1.808-6.745 2.359-1.362 5.381-.552 6.744 1.808z"/></svg>