<svg clip-rule="evenodd" fill-rule="evenodd" stroke-linejoin="round" stroke-miterlimit="2" viewBox="0 0 800 400" xmlns="http://www.w3.org/2000/svg" xmlns:xlink="http://www.w3.org/1999/xlink"><linearGradient id="a" gradientTransform="matrix(295 397 -397 295 413 200)" gradientUnits="userSpaceOnUse" x1="0" x2="1" y1="0" y2="0"><stop offset="0" stop-color="#cef2ff"/><stop offset="1" stop-color="#e4e4e6"/></linearGradient><linearGradient id="b" gradientTransform="matrix(0 127.4 -127.4 0 400 163.6)" gradientUnits="userSpaceOnUse" x1="0" x2="1" y1="0" y2="0"><stop offset="0" stop-color="#7a7a8d"/><stop offset="1" stop-color="#089aff"/></linearGradient><path d="m0 0h800v400h-800z" fill="none"/><path d="m0 0h800v400h-800z" fill="url(#a)"/><path d="m399.909 109c-50.232 0-90.909 40.768-90.909 91s40.677 91 90.909 91c50.323 0 91.091-40.768 91.091-91s-40.768-91-91.091-91zm63.063 54.6h-26.845c-2.912-11.375-7.098-22.295-12.558-32.396 16.744 5.733 30.667 17.381 39.403 32.396zm-62.972-36.036c7.553 10.92 13.468 23.023 17.381 36.036h-34.762c3.913-13.013 9.828-25.116 17.381-36.036zm-70.434 90.636c-1.456-5.824-2.366-11.921-2.366-18.2s.91-12.376 2.366-18.2h30.758c-.728 6.006-1.274 12.012-1.274 18.2s.546 12.194 1.274 18.2zm7.462 18.2h26.845c2.912 11.375 7.098 22.295 12.558 32.396-16.744-5.733-30.667-17.29-39.403-32.396zm26.845-72.8h-26.845c8.736-15.106 22.659-26.663 39.403-32.396-5.46 10.101-9.646 21.021-12.558 32.396zm36.127 108.836c-7.553-10.92-13.468-23.023-17.381-36.036h34.762c-3.913 13.013-9.828 25.116-17.381 36.036zm21.294-54.236h-42.588c-.819-6.006-1.456-12.012-1.456-18.2s.637-12.285 1.456-18.2h42.588c.819 5.915 1.456 12.012 1.456 18.2s-.637 12.194-1.456 18.2zm2.275 50.596c5.46-10.101 9.646-21.021 12.558-32.396h26.845c-8.736 15.015-22.659 26.663-39.403 32.396zm16.107-50.596c.728-6.006 1.274-12.012 1.274-18.2s-.546-12.194-1.274-18.2h30.758c1.456 5.824 2.366 11.921 2.366 18.2s-.91 12.376-2.366 18.2z" fill="url(#b)" fill-rule="nonzero"/></svg>