<svg clip-rule="evenodd" fill-rule="evenodd" stroke-linejoin="round" stroke-miterlimit="2" viewBox="0 0 667 417" xmlns="http://www.w3.org/2000/svg" xmlns:xlink="http://www.w3.org/1999/xlink"><clipPath id="a"><path clip-rule="evenodd" d="m210 0h160v100h-160z"/></clipPath><g transform="matrix(4.16667 0 0 4.16667 -875 0)"><path d="m210 0h160v100h-160z" fill="#fff"/><g clip-path="url(#a)" fill-rule="nonzero"><path d="m-140.487 390.542-81.71-515.519 1629.287-152.037c-116.17 258.79-400.13 397.507-686.447 347.52-447.79-78.18-714.148 151.971-861.13 320.036z" fill="#ffe299" transform="matrix(.129163 0 0 .129163 214.511 17.2731)"/><path d="m-156.487 361.765-81.71-515.52 1629.287-152.037c-116.17 258.791-400.133 397.508-686.447 347.52-447.79-78.18-714.148 151.971-861.13 320.037z" fill="#8eb5f4" transform="matrix(.129163 0 0 .129163 212.511 15.2731)"/><g transform="matrix(.316412 0 0 .316412 106.939 -24.918)"><path d="m455.244 225.762 11.036 23.932 11.036-23.932h10.106v40.238h-7.378v-30.566l-11.408 26.164h-4.774l-11.78-27.032v31.434h-7.316v-40.238zm55.553 9.3c2.026 0 3.927.331 5.704.992 1.778.62 3.307 1.591 4.588 2.914 2.852 2.893 4.278 6.903 4.278 12.028 0 5.043-1.426 9.011-4.278 11.904-2.562 2.645-5.993 3.968-10.292 3.968-4.298 0-7.77-1.323-10.416-3.968-2.852-2.852-4.278-6.82-4.278-11.904 0-5.167 1.426-9.176 4.278-12.028 2.604-2.604 6.076-3.906 10.416-3.906zm7.254 15.872c0-3.183-.62-5.559-1.86-7.13-1.24-1.612-2.976-2.418-5.208-2.418-2.19 0-3.988.806-5.394 2.418-1.405 1.571-2.108 3.947-2.108 7.13s.62 5.58 1.86 7.192c1.282 1.571 3.018 2.356 5.208 2.356 2.191 0 3.989-.785 5.394-2.356 1.406-1.612 2.108-4.009 2.108-7.192zm33.01 14.322c-2.728 1.075-4.878 1.612-6.448 1.612-1.571 0-2.956-.186-4.154-.558-1.158-.372-2.191-.93-3.1-1.674-1.902-1.695-2.852-4.03-2.852-7.006v-16.864h-4.216v-4.898h4.216v-7.936h7.316v7.936h8.184v4.898h-8.184v16.616c0 2.48 1.178 3.72 3.534 3.72 1.198 0 2.748-.331 4.65-.992zm8.093-29.45h7.316v30.194h-7.316zm-.868-9.672c0-1.323.392-2.356 1.178-3.1.785-.785 1.901-1.178 3.348-1.178 1.405 0 2.5.393 3.286 1.178.826.744 1.24 1.777 1.24 3.1s-.414 2.377-1.24 3.162c-.786.744-1.881 1.116-3.286 1.116-1.447 0-2.563-.372-3.348-1.116-.786-.785-1.178-1.839-1.178-3.162zm24.001 9.734 6.882 22.878 6.944-22.878h8.432l-11.222 30.132h-8.246l-11.222-30.132zm38.661 12.524c2.397 0 5.166.393 8.308 1.178v-2.976c0-2.108-.434-3.658-1.302-4.65-.827-1.033-2.212-1.55-4.154-1.55-1.902 0-3.369.393-4.402 1.178-1.034.744-1.55 1.819-1.55 3.224h-7.998c0-3.431 1.198-5.911 3.596-7.44 2.438-1.529 5.828-2.294 10.168-2.294 6.2 0 10.209 2.17 12.028 6.51.62 1.488.93 3.245.93 5.27v19.158h-6.386l-.558-4.03c-1.943 3.265-4.919 4.898-8.928 4.898-3.886 0-6.903-.951-9.052-2.852-1.984-1.819-2.976-4.113-2.976-6.882 0-2.811 1.095-4.96 3.286-6.448 2.19-1.529 5.187-2.294 8.99-2.294zm8.308 5.828c-2.439-.661-4.712-.992-6.82-.992-3.968 0-5.952 1.323-5.952 3.968 0 1.116.454 2.087 1.364 2.914.909.785 2.356 1.178 4.34 1.178 2.025 0 3.678-.661 4.96-1.984 1.322-1.364 2.025-3.059 2.108-5.084zm34.967 11.036c-2.728 1.075-4.878 1.612-6.448 1.612-1.571 0-2.956-.186-4.154-.558-1.158-.372-2.191-.93-3.1-1.674-1.902-1.695-2.852-4.03-2.852-7.006v-16.864h-4.216v-4.898h4.216v-7.936h7.316v7.936h8.184v4.898h-8.184v16.616c0 2.48 1.178 3.72 3.534 3.72 1.198 0 2.748-.331 4.65-.992zm19.315-30.194c2.025 0 3.926.331 5.704.992 1.777.62 3.306 1.591 4.588 2.914 2.852 2.893 4.278 6.903 4.278 12.028 0 5.043-1.426 9.011-4.278 11.904-2.563 2.645-5.994 3.968-10.292 3.968-4.299 0-7.771-1.323-10.416-3.968-2.852-2.852-4.278-6.82-4.278-11.904 0-5.167 1.426-9.176 4.278-12.028 2.604-2.604 6.076-3.906 10.416-3.906zm7.254 15.872c0-3.183-.62-5.559-1.86-7.13-1.24-1.612-2.976-2.418-5.208-2.418-2.191 0-3.989.806-5.394 2.418-1.406 1.571-2.108 3.947-2.108 7.13s.62 5.58 1.86 7.192c1.281 1.571 3.017 2.356 5.208 2.356 2.19 0 3.988-.785 5.394-2.356 1.405-1.612 2.108-4.009 2.108-7.192zm23.337-9.114c1.819-4.34 4.547-6.51 8.184-6.51.703 0 1.591.145 2.666.434l-.124 7.316c-1.157-.248-2.294-.372-3.41-.372-4.877 0-7.316 3.369-7.316 10.106v13.206h-7.316v-30.194h7.316z" fill="#6e9de8"/><path d="m556.055 224.664c-.416 2.916 1.577 6.318 4.48 6.998 2.488.583 3.726.296 4.481 0 1.49-.583 3.984-2.333 3.984-5.832s-2.484-6.415-3.48-7.581c-1.89-2.213-3.984-4.666-5.478-5.249.166.389.797 3.966 0 5.832-.996 2.333-3.654 3.499-3.987 5.832z" fill="#ffcf24"/><path d="m559.03 228.139c-.224 1.535.849 3.325 2.412 3.683 1.34.307 2.006.156 2.413 0 .802-.307 2.145-1.228 2.145-3.069 0-1.842-1.338-3.377-1.874-3.991-1.017-1.164-2.145-2.455-2.949-2.762.089.205.429 2.087 0 3.069-.537 1.228-1.968 1.842-2.147 3.07z" fill="#ffe299"/></g></g></g></svg>