<svg clip-rule="evenodd" fill-rule="evenodd" stroke-linecap="round" stroke-linejoin="round" stroke-miterlimit="1.5" viewBox="0 0 244 250" xmlns="http://www.w3.org/2000/svg" xmlns:xlink="http://www.w3.org/1999/xlink"><linearGradient id="a" gradientTransform="matrix(0 -37.8363 37.8363 0 194.523 175.215)" gradientUnits="userSpaceOnUse" x1="0" x2="1" y1="0" y2="0"><stop offset="0" stop-color="#f0f0f0"/><stop offset="1" stop-color="#e3e3e8"/></linearGradient><linearGradient id="b" gradientTransform="matrix(-84.1312 42.3914 -42.3914 -84.1312 238.555 158.05)" gradientUnits="userSpaceOnUse" x1="0" x2="1" y1="0" y2="0"><stop offset="0" stop-color="#e3e3e8" stop-opacity="0"/><stop offset="1" stop-color="#c2c4d1"/></linearGradient><path d="m0 0h243.086v250h-243.086z" fill="url(#a)"/><path d="m238.555 158.05-18.769 4.655c5.686 4.247 8.162 8.298 7.504 11.396-.652 3.068-3.892 5.559-8.904 7.392 0 0-8.392 3.07-8.392 3.07-.011.004-4.789 1.457-9.821 2.243-1.052.165-2.115.298-3.109.405l-67.284 20.876c-5.192 1.765-12.329 2.778-20.975 2.53-11.589-.333-27.992-3.435-41.93-8.943-13.939-5.507-21.457-11.859-21.884-16.274-.318-3.294 2.622-5.966 7.46-7.87l57.427-24.731c1.364-1.642 3.487-3.11 6.383-4.382.305-.134.625-.263.958-.387l.168-.062 8.393-3.069c5.858-2.143 14.142-3.356 24.25-3.066 12.313.354 29.038 3.335 44.353 8.565l24.589-6.089c3.85-.857 8.438-1.214 13.331-.679 1.913.209 4.126.641 6.252 1.3z" fill="url(#b)"/><path d="m149.125 68.773c11.841-13.17 23.195-25.798 23.264-25.867 1.7-1.7 5.987-.174 9.567 3.406 3.487 3.487 5.025 7.643 3.533 9.429l-.001.001c-.016.02-9.653 10.737-21.077 23.44 15.891 12.775 24.294 26.965 19.557 35.17l-5.2 9.006c-1.401 2.426-3.829 4.119-7.047 5.11l-46.931 66.543c-4.83 8.365-25.049 5.746-45.124-5.845-20.076-11.59-32.453-27.791-27.624-36.156 0 0 34.162-73.915 34.162-73.915-.751-3.282-.499-6.232.902-8.658l5.2-9.007c6.082-10.534 31.536-7.243 56.819 7.343z" fill="#fff" stroke="#fff" stroke-width="16"/><path d="m97.166 158.854c20.075 11.591 32.453 27.792 27.624 36.157-4.83 8.365-25.049 5.746-45.124-5.845-20.076-11.59-32.453-27.791-27.624-36.156s25.049-5.746 45.124 5.844z" fill="#01b7ff"/><path d="m90.968 68.787-38.926 84.223 72.748 42.001 53.476-75.823z" fill="#01b7ff"/><path d="m98.28 156.925c17.453 10.076 28.214 24.161 24.015 31.433-4.198 7.272-21.776 4.995-39.229-5.081-17.453-10.077-28.214-24.161-24.015-31.433 4.198-7.272 21.776-4.995 39.229 5.081z" fill="#fc593d"/><path d="m80.217 107.007-21.166 44.837 63.244 36.514 40.863-58.948z" fill="#fc593d"/><path d="m131.002 102.075c22.913 6.139 37.361 18.318 32.245 27.18s-27.872 11.072-50.785 4.932c-22.913-6.139-37.362-18.318-32.245-27.18 5.116-8.862 27.872-11.072 50.785-4.932z" fill="#ffcc45"/><path d="m104.16 118.763 20.358-22.62 13.619 12.257-14.41 16.011c-1.723 1.713-6.733 2.053-11.775.702-5.351-1.434-8.772-4.245-7.792-6.35z" fill="#00007d"/><path d="m155.575 85.388c13.809 10.195 22.933 21.69 24.324 30.494l2.389 1.38-3.52 6.096c-5.757 9.972-28.874 7.555-52.772-5.104zm-11.61-7.585-29.928 33.253c-20.549-13.979-32.356-31.223-26.931-40.619 0 0 3.52-6.097 3.52-6.097l2.389 1.38c10.473-4.026 30.768.431 50.947 12.081z" fill="#fff"/><path d="m93.015 65.72c10.473-4.026 30.768.431 50.947 12.081 20.18 11.651 34.187 26.999 35.937 38.081l2.389 1.38-3.52 6.096c-6.085 10.54-31.561 7.24-56.856-7.364s-40.891-35.018-34.806-45.557c0 0 3.52-6.097 3.52-6.097z" fill="#fff"/><path d="m94.695 62.81c10.473-4.026 30.768.431 50.947 12.081 20.18 11.651 34.187 26.999 35.937 38.081l2.389 1.38-3.52 6.096c-6.085 10.54-31.561 7.24-56.856-7.364s-40.891-35.018-34.806-45.557c0 0 3.52-6.097 3.52-6.097z" fill="#01b7ff"/><path d="m149.162 68.795c25.295 14.604 40.891 35.017 34.806 45.557-6.085 10.539-31.562 7.239-56.856-7.365-25.295-14.604-40.891-35.017-34.806-45.557 6.085-10.539 31.561-7.239 56.856 7.365z" fill="#01b7ff"/><path d="m103.587 98.63c8.255-.232 17.821.874 27.415 3.445 20.697 5.546 34.488 16.02 33.191 24.524-11-.315-25.832-4.988-40.601-13.515-7.672-4.429-14.452-9.393-20.005-14.454z" fill="#ffcc45"/><path d="m138.046 84.299c7.437 4.294 12.289 9.834 10.828 12.365s-8.685 1.099-16.122-3.195c-7.438-4.294-12.29-9.835-10.829-12.365 1.461-2.531 8.686-1.099 16.123 3.195z" fill="#fff"/><path d="m123.309 85.785c3.528-.402 7.948.594 12.139 3.014 4.19 2.419 7.263 5.749 8.679 9.005-3.063-.405-7.185-1.916-11.375-4.335-4.191-2.419-7.56-5.234-9.443-7.684z" fill="#01b7ff"/><g fill="#00007d"><path d="m94.434 156.393c2.871 1.657 3.857 5.334 2.199 8.205s-5.334 3.856-8.205 2.199c-2.871-1.658-3.857-5.335-2.199-8.206s5.334-3.856 8.205-2.198z"/><path d="m75.121 154.726c2.871 1.658 3.857 5.335 2.199 8.206s-5.334 3.856-8.205 2.198c-2.872-1.657-3.857-5.334-2.199-8.205s5.334-3.856 8.205-2.199z"/><path d="m121.751 164.465c2.871 1.658 3.856 5.334 2.198 8.205-1.657 2.871-5.334 3.857-8.205 2.199s-3.856-5.334-2.199-8.205c1.658-2.872 5.335-3.857 8.206-2.199z"/><path d="m109.034 177.047c2.871 1.657 3.856 5.334 2.199 8.205-1.658 2.871-5.335 3.856-8.206 2.199-2.871-1.658-3.856-5.335-2.198-8.206 1.657-2.871 5.334-3.856 8.205-2.198z"/><path d="m94.815 171.131c2.507 1.447 3.368 4.658 1.92 7.166-1.448 2.507-4.659 3.367-7.166 1.92-2.507-1.448-3.368-4.659-1.92-7.166 1.447-2.508 4.658-3.368 7.166-1.92z"/><path d="m85.136 145.603c2.507 1.448 3.368 4.659 1.92 7.166-1.448 2.508-4.658 3.368-7.166 1.92-2.507-1.447-3.368-4.658-1.92-7.166 1.448-2.507 4.659-3.367 7.166-1.92z"/><path d="m120.44 179.699c1.618.934 2.173 3.006 1.239 4.624s-3.006 2.173-4.624 1.239-2.173-3.006-1.239-4.624 3.006-2.173 4.624-1.239z"/><path d="m105.452 165.479c1.536.886 2.063 2.853 1.176 4.388-.886 1.536-2.853 2.062-4.388 1.176-1.536-.887-2.063-2.853-1.176-4.388.886-1.536 2.853-2.063 4.388-1.176z"/><path d="m70.512 144.9c1.535.887 2.062 2.853 1.175 4.389-.886 1.535-2.852 2.062-4.388 1.176-1.535-.887-2.062-2.853-1.176-4.389.887-1.535 2.853-2.062 4.389-1.176z"/><path d="m81.337 168.676c1.536.886 2.063 2.853 1.176 4.388-.886 1.536-2.853 2.063-4.388 1.176-1.536-.886-2.063-2.853-1.176-4.388.886-1.536 2.853-2.063 4.388-1.176z"/></g><path d="m128.663 133c9.56 3.698 13.21 13.823 8.145 22.594-5.064 8.772-16.937 12.89-26.497 9.192-9.56-3.699-13.21-13.823-8.146-22.595 5.065-8.771 16.938-12.89 26.498-9.191z" fill="#fff"/><path d="m129.061 91.091c13.412-14.919 43.216-48.073 43.328-48.185 1.7-1.7 5.987-.174 9.567 3.406 3.487 3.487 5.025 7.643 3.533 9.429l-.001.001c-.024.029-20.823 23.158-37.542 41.75-2.544 1.25-8.79-.326-15.194-4.023-1.319-.761-2.556-1.562-3.691-2.378z" fill="#00007d"/><path d="m114.482 107.294 14.581-16.201c1.135.816 2.371 1.615 3.689 2.376 6.415 3.704 12.673 5.278 15.208 4.016l-17.404 19.338c-2.314-1.15-4.64-2.397-6.964-3.739-3.2-1.847-6.245-3.788-9.11-5.79z" fill="#00f"/><g fill="#00007d"><path d="m111.726 144.098 3.74-5.732c.323-.495.851-.873 1.466-1.051s1.267-.141 1.814.102c2.873 1.28 7.732 3.443 7.732 3.443 1.329.591 2.439 1.395 3.311 2.342.015.017.03.033.045.05.955 1.061 1.625 2.316 1.977 3.652.585 2.301.193 4.856-1.324 7.181-2.097 3.213-5.823 5.186-9.666 5.481l.001.001c-2.012.154-4.055-.151-5.913-.978l-1.337-.595-.002-.001h.003c.224-1.49 1.979-3.518 8.976-7.339l.642-.317-14.156 5.637s-.913-.407-1.858-.828c-.547-.243-.943-.673-1.102-1.196-.158-.522-.065-1.093.258-1.588 1.906-2.922 5.382-8.247 5.393-8.264zm17.665 1.785c-.223-.425-.617-.988-.617-.988-5.326.264-10.652.528-15.978.792 0 0-3.139 4.808-4.484 6.87-.159.244-.205.526-.127.783.078.258.274.47.543.59.268.119.483.215.483.215l20.274-8.073c-.025-.052-.05-.103-.076-.155l-.009-.016zm.625 1.736-2.145.854c-4.574 2.118-8.142 6.796-7.975 9.485 3.511.022 7.047-1.67 8.959-4.6 1.211-1.855 1.562-3.886 1.161-5.739zm-2.805-4.289c-.505-.38-1.072-.715-1.697-.993-2.84-1.264-5.68-2.529-7.144-3.181-.562-.25-1.286-.04-1.618.468-.988 1.514-2.849 4.366-2.849 4.366z"/><path d="m115.845 147.566c.991.441 1.32 1.527.735 2.424s-1.865 1.267-2.856.826-1.32-1.528-.735-2.425 1.865-1.267 2.856-.825z"/></g></svg>