<svg width="370" height="489" viewBox="0 0 370 489" fill="none" xmlns="http://www.w3.org/2000/svg">
<path d="M206.029 250.129C333.552 278.762 301.508 359.286 269.546 395.968C269.546 395.968 248.104 429.321 229.7 446.379C115.765 551.983 -127.714 302.407 -116.784 250.953C-105.853 199.498 -99.8589 123.069 -67.5973 82.7713C-9.13865 9.75037 115.718 31.6411 111.155 140.086C109.064 189.791 46.6239 214.338 206.029 250.129Z" fill="url(#paint0_linear_2202_2551)"/>
<path fill-rule="evenodd" clip-rule="evenodd" d="M33.2863 404.294C29.615 403.767 29.615 403.767 29.7044 406.922C31.0605 405.921 32.1725 405.112 33.2863 404.294ZM39.9626 410.601C38.3682 411.964 37.6269 412.436 37.1183 413.093C36.6219 413.736 36.3522 414.563 36.0474 415.189C38.8236 418.628 38.8236 418.628 41.9496 419.286C41.3334 416.601 40.7671 414.122 39.9626 410.601ZM46.9799 404.226C47.9963 409.843 48.9587 415.542 50.0665 421.214C50.6197 424.062 51.4569 426.861 52.1027 429.692C52.3935 430.992 52.6397 432.324 52.7175 433.653C52.8235 435.319 52.2789 436.748 50.5441 437.41C49.0917 437.962 47.8389 437.405 46.9004 436.388C44.7755 434.082 42.7318 431.703 40.7149 429.3C37.9963 426.043 35.1628 422.937 31.4319 420.636C24.9368 424.998 22.5206 433.312 15.1357 436.135C13.4807 434.81 14.0317 433.413 14.5609 432.315C17.8988 425.338 17.4296 417.494 20.2735 410.665C17.9923 407.791 15.7841 406.255 12.7333 405.554C9.56857 404.831 8.59883 402.676 9.40467 399.48C10.4061 395.477 12.093 394.349 16.1728 394.992C17.2795 395.162 18.3616 395.528 19.4673 395.587C24.4958 395.842 27.0231 394.39 28.7 389.642C30.3262 385.059 32.3346 380.53 30.8395 375.331C30.1154 372.809 32.9011 369.956 35.4706 369.903C38.0683 369.852 40.6847 372.141 40.6588 374.914C40.6287 380.161 42.1993 384.999 43.4988 389.569C45.5643 391.234 47.2823 390.277 48.984 389.905C52.0317 389.237 55.0563 388.406 58.1312 387.896C59.398 387.68 60.8119 387.979 62.0897 388.306C63.582 388.696 64.4143 391.086 63.3455 392.186C61.9677 393.584 60.3695 394.866 58.6558 395.818C54.5391 398.105 50.4953 400.428 46.9799 404.226Z" fill="#FF6969"/>
<path fill-rule="evenodd" clip-rule="evenodd" d="M106.933 383.47C108.785 378.936 110.588 374.526 112.562 369.713C111.04 369.328 109.58 368.988 108.133 368.592C106.02 368.021 104.656 366.656 103.925 364.6C102.377 360.284 105.101 358.179 108.404 358.824C112.793 359.678 117.236 360.234 121.495 360.894C125.673 357.502 129.744 354.37 133.582 350.99C135.228 349.549 136.713 348.51 138.943 349.371C141.556 350.363 142.799 352.417 142.973 355.029C143.066 356.324 142.619 357.658 142.333 358.959C141.773 361.545 140.583 364.039 141.282 367.111C142.545 367.744 143.948 368.395 145.287 369.135C146.854 370.001 148.448 370.845 149.9 371.887C151.501 373.043 152.005 374.826 151.255 375.927C150.352 377.27 149.027 377.147 147.659 376.945C146.767 376.805 145.869 376.622 144.991 376.663C140.281 376.847 138.679 377.955 138.087 382.232C137.813 384.227 137.49 386.241 136.861 388.141C136.169 390.238 135.227 392.286 134.168 394.24C133.432 395.601 131.193 395.952 130.067 394.829C128.821 393.594 127.739 392.122 126.877 390.596C125.57 388.284 124.512 385.834 123.213 383.181C121.387 383.586 119.753 383.616 118.464 384.29C114.442 386.393 110.773 385.668 106.933 383.47Z" fill="#F84E72"/>
<path fill-rule="evenodd" clip-rule="evenodd" d="M114.503 454.579C113.033 451.423 111.131 449.943 109.035 448.566C107.566 447.598 106.17 446.43 104.999 445.118C103.72 443.689 104.277 441.623 105.937 440.509C107.546 439.427 109.199 439.458 111.072 439.808C113.92 440.333 116.832 440.568 119.731 440.792C121.451 440.925 122.816 440.079 123.507 438.503C124.666 435.884 126.104 433.373 125.66 430.219C125.392 428.338 126.815 426.908 128.694 426.407C130.109 426.018 131.578 426.316 132.159 427.701C133.174 430.128 134.516 432.463 133.905 435.378C133.466 437.48 132.697 439.745 134.261 442.22C136.039 442.306 138.043 442.238 139.987 442.538C142.186 442.874 144.415 443.324 146.471 444.126C147.614 444.569 148.618 445.708 149.346 446.762C150.402 448.267 149.527 450.539 147.771 451.173C146.951 451.473 146.045 451.636 145.173 451.666C144.058 451.699 142.902 451.288 141.831 451.476C134.323 452.804 133.439 453.248 134.134 460.237C134.641 465.34 134.953 470.471 135.398 475.585C135.527 477.043 135.351 478.34 133.855 478.91C132.48 479.445 131.081 479.058 130.195 477.949C129.089 476.556 128.196 474.99 127.312 473.439C124.988 469.403 122.616 465.407 120.221 461.506C117.671 462.099 116.806 463.664 115.949 465.206C114.973 466.962 114.124 468.797 113.069 470.51C112.25 471.851 110.421 472.168 108.894 471.45C107.429 470.765 106.899 469.366 107.314 468.11C108.145 465.589 109.234 463.135 110.484 460.786C111.628 458.643 113.118 456.694 114.503 454.579Z" fill="#FF75A4"/>
<mask id="mask0_2202_2551" style="mask-type:luminance" maskUnits="userSpaceOnUse" x="-4" y="247" width="114" height="101">
<path d="M16.8892 247.257L109.268 271.423L89.286 347.808L-3.09282 323.642L16.8892 247.257Z" fill="white"/>
</mask>
<g mask="url(#mask0_2202_2551)">
<path fill-rule="evenodd" clip-rule="evenodd" d="M57.163 279.771C57.5284 279.724 58.0528 279.8 58.2176 279.591C58.4063 279.353 58.2874 278.866 58.3034 278.483C57.8245 278.567 57.3455 278.652 56.8718 278.741C56.9709 279.081 57.0662 279.422 57.163 279.771ZM28.3823 281.507C28.9397 282.819 29.044 283.548 29.4634 283.938C29.8747 284.311 30.6942 284.596 31.1588 284.43C31.663 284.262 32.245 283.535 32.2669 283.031C32.2781 282.604 31.6118 281.981 31.1123 281.759C30.5502 281.506 29.8254 281.613 28.3823 281.507ZM56.4251 309.765C52.9401 309.674 49.9396 309.625 47.2295 311.365C49.2521 317.554 49.8222 318.447 54.3504 322.303C55.6639 318.137 56.7904 314.264 56.4251 309.765ZM41.8885 300.609C47.4775 299.729 52.8666 298.709 57.973 297.147C59.1817 294.756 59.2928 292.659 58.0755 290.315C57.0091 289.784 55.8132 289.216 54.6359 288.601C50.6287 286.506 46.9877 286.578 43.8031 290.193C42.6296 291.521 41.1865 292.604 39.9702 293.885C39.559 294.33 39.4352 295.063 39.0614 295.934C39.9017 297.317 40.7988 298.792 41.8885 300.609ZM72.6182 307.362C71.0297 313.521 69.7075 319.145 68.1062 324.696C66.5695 330.038 64.2731 335.101 61.9114 339.869C58.8584 340.579 57.0289 339.225 55.8112 337.291C51.1463 329.919 45.0296 323.515 41.1614 315.612C38.9188 311.02 37.9578 310.594 32.5593 311.576C28.3944 312.337 24.3394 313.732 20.2548 314.892C17.8054 315.586 15.3872 315.541 12.9508 314.885C10.7488 314.286 9.91299 312.019 11.3078 310.155C12.1032 309.084 13.0759 308.139 14.0521 307.232C16.0169 305.381 17.8963 303.634 17.9194 300.548C17.9306 299.378 19.0565 298.17 19.8088 297.078C21.0595 295.257 22.4235 293.511 23.8834 291.534C21.0096 286.667 19.1346 281.362 15.2342 277.212C12.5969 274.425 11.83 271.139 12.5386 267.031C22.7261 267.373 31.5152 272.38 41.2853 274.664C42.7219 273.321 44.1202 271.939 45.6021 270.634C48.9441 267.68 52.3156 264.737 55.7125 261.846C61.5969 256.827 72.3627 260.308 72.569 269.292C72.6536 273.068 72.9167 276.855 73.0195 280.636C73.0707 282.62 72.9416 284.612 72.8988 286.72C74.3481 287.645 75.5909 288.604 76.969 289.281C82.9937 292.259 89.0542 295.162 95.1076 298.08C95.7074 298.376 96.3644 298.577 96.9541 298.886C98.5736 299.743 100.129 300.719 100.189 302.805C100.248 304.39 98.2284 305.855 95.6924 306.026C94.3514 306.111 93.008 305.921 91.6629 305.886C85.3843 305.736 79.1614 306.24 72.6182 307.362Z" fill="#FF6969"/>
</g>
<defs>
<linearGradient id="paint0_linear_2202_2551" x1="242.931" y1="168.723" x2="-135.999" y2="322.269" gradientUnits="userSpaceOnUse">
<stop stop-color="#FFF5E0" stop-opacity="0.94"/>
<stop offset="1" stop-color="#FF75A4"/>
</linearGradient>
</defs>
</svg>
