<svg width="308" height="242" viewBox="0 0 308 242" fill="none" xmlns="http://www.w3.org/2000/svg">
<path fill-rule="evenodd" clip-rule="evenodd" d="M33.2863 186.294C29.615 185.767 29.615 185.767 29.7044 188.922C31.0605 187.921 32.1725 187.112 33.2863 186.294ZM39.9626 192.601C38.3682 193.964 37.6269 194.436 37.1183 195.093C36.6219 195.737 36.3522 196.563 36.0474 197.189C38.8236 200.628 38.8236 200.628 41.9496 201.287C41.3334 198.601 40.7671 196.122 39.9626 192.601ZM46.9799 186.227C47.9963 191.843 48.9587 197.542 50.0665 203.214C50.6197 206.063 51.4569 208.861 52.1027 211.692C52.3935 212.992 52.6397 214.325 52.7175 215.654C52.8235 217.319 52.2789 218.749 50.5441 219.41C49.0917 219.963 47.8389 219.405 46.9004 218.389C44.7755 216.083 42.7318 213.703 40.7149 211.3C37.9963 208.044 35.1628 204.937 31.4319 202.636C24.9368 206.998 22.5206 215.312 15.1357 218.135C13.4807 216.81 14.0317 215.414 14.5609 214.315C17.8988 207.339 17.4296 199.494 20.2735 192.665C17.9923 189.791 15.7841 188.256 12.7333 187.555C9.56857 186.832 8.59883 184.677 9.40467 181.48C10.4061 177.477 12.093 176.349 16.1728 176.992C17.2795 177.162 18.3616 177.528 19.4673 177.587C24.4958 177.842 27.0231 176.39 28.7 171.642C30.3262 167.059 32.3346 162.53 30.8395 157.331C30.1154 154.809 32.9011 151.956 35.4706 151.903C38.0683 151.852 40.6847 154.141 40.6588 156.914C40.6287 162.162 42.1993 167 43.4988 171.569C45.5643 173.234 47.2823 172.277 48.984 171.905C52.0317 171.237 55.0563 170.406 58.1312 169.896C59.398 169.68 60.8119 169.979 62.0897 170.306C63.582 170.697 64.4143 173.086 63.3455 174.187C61.9677 175.584 60.3695 176.867 58.6558 177.818C54.5391 180.105 50.4953 182.428 46.9799 186.227Z" fill="#FF6969"/>
<path fill-rule="evenodd" clip-rule="evenodd" d="M106.933 165.47C108.785 160.936 110.588 156.527 112.562 151.714C111.04 151.329 109.58 150.988 108.133 150.592C106.02 150.021 104.656 148.656 103.925 146.6C102.377 142.284 105.101 140.18 108.404 140.824C112.793 141.678 117.236 142.234 121.495 142.895C125.673 139.503 129.744 136.37 133.582 132.99C135.228 131.55 136.713 130.511 138.943 131.371C141.556 132.363 142.799 134.417 142.973 137.029C143.066 138.324 142.619 139.658 142.333 140.96C141.773 143.545 140.583 146.039 141.282 149.111C142.545 149.744 143.948 150.395 145.287 151.135C146.854 152.002 148.448 152.846 149.9 153.887C151.501 155.044 152.005 156.826 151.255 157.927C150.352 159.27 149.027 159.147 147.659 158.945C146.767 158.806 145.869 158.622 144.991 158.664C140.281 158.848 138.679 159.955 138.087 164.232C137.813 166.227 137.49 168.241 136.861 170.141C136.169 172.238 135.227 174.287 134.168 176.241C133.432 177.601 131.193 177.953 130.067 176.83C128.821 175.594 127.739 174.122 126.877 172.596C125.57 170.285 124.512 167.834 123.213 165.182C121.387 165.586 119.753 165.616 118.464 166.291C114.442 168.393 110.773 167.668 106.933 165.47Z" fill="#F84E72"/>
<path fill-rule="evenodd" clip-rule="evenodd" d="M114.503 236.579C113.033 233.424 111.131 231.943 109.035 230.566C107.566 229.598 106.17 228.43 104.999 227.119C103.72 225.689 104.277 223.624 105.937 222.509C107.546 221.427 109.199 221.458 111.072 221.808C113.92 222.334 116.832 222.568 119.731 222.792C121.451 222.925 122.816 222.079 123.507 220.503C124.666 217.884 126.104 215.373 125.66 212.219C125.392 210.338 126.815 208.908 128.694 208.407C130.109 208.018 131.578 208.316 132.159 209.701C133.174 212.128 134.516 214.463 133.905 217.379C133.466 219.48 132.697 221.745 134.261 224.221C136.039 224.306 138.043 224.239 139.987 224.539C142.186 224.874 144.415 225.324 146.471 226.126C147.614 226.569 148.618 227.708 149.346 228.762C150.402 230.267 149.527 232.539 147.771 233.173C146.951 233.474 146.045 233.636 145.173 233.666C144.058 233.699 142.902 233.289 141.831 233.476C134.323 234.804 133.439 235.249 134.134 242.237C134.641 247.34 134.953 252.472 135.398 257.585C135.527 259.044 135.351 260.34 133.855 260.91C132.48 261.446 131.081 261.058 130.195 259.949C129.089 258.556 128.196 256.99 127.312 255.44C124.988 251.403 122.616 247.408 120.221 243.506C117.671 244.099 116.806 245.665 115.949 247.206C114.973 248.963 114.124 250.797 113.069 252.51C112.25 253.851 110.421 254.169 108.894 253.451C107.429 252.765 106.899 251.366 107.314 250.11C108.145 247.59 109.234 245.135 110.484 242.786C111.628 240.643 113.118 238.694 114.503 236.579Z" fill="#FF75A4"/>
<mask id="mask0_150_638" style="mask-type:luminance" maskUnits="userSpaceOnUse" x="-4" y="29" width="114" height="101">
<path d="M16.8892 29.2571L109.268 53.4229L89.286 129.808L-3.09282 105.642L16.8892 29.2571Z" fill="white"/>
</mask>
<g mask="url(#mask0_150_638)">
<path fill-rule="evenodd" clip-rule="evenodd" d="M57.163 61.7709C57.5284 61.7243 58.0528 61.8001 58.2176 61.5913C58.4063 61.3531 58.2874 60.8665 58.3034 60.483C57.8245 60.5677 57.3455 60.6524 56.8718 60.7417C56.9709 61.081 57.0662 61.4225 57.163 61.7709ZM28.3823 63.5075C28.9397 64.8196 29.044 65.5479 29.4634 65.9387C29.8747 66.3112 30.6942 66.5966 31.1588 66.4307C31.663 66.2621 32.245 65.5356 32.2669 65.0309C32.2781 64.6042 31.6118 63.9808 31.1123 63.7597C30.5502 63.506 29.8254 63.6136 28.3823 63.5075ZM56.4251 91.765C52.9401 91.6739 49.9396 91.6256 47.2295 93.3655C49.2521 99.5547 49.8222 100.447 54.3504 104.303C55.6639 100.137 56.7904 96.2639 56.4251 91.765ZM41.8885 82.6091C47.4775 81.729 52.8666 80.7093 57.973 79.1472C59.1817 76.7561 59.2928 74.6594 58.0755 72.3153C57.0091 71.7844 55.8132 71.2163 54.6359 70.6015C50.6287 68.5064 46.9877 68.5781 43.8031 72.1936C42.6296 73.5214 41.1865 74.6041 39.9702 75.8851C39.559 76.3299 39.4352 77.0632 39.0614 77.9347C39.9017 79.3175 40.7988 80.7927 41.8885 82.6091ZM72.6182 89.362C71.0297 95.5209 69.7075 101.145 68.1062 106.697C66.5695 112.039 64.2731 117.101 61.9114 121.869C58.8584 122.579 57.0289 121.225 55.8112 119.291C51.1463 111.92 45.0296 105.515 41.1614 97.6126C38.9188 93.02 37.9578 92.5941 32.5593 93.5758C28.3944 94.3375 24.3394 95.732 20.2548 96.8926C17.8054 97.5861 15.3872 97.5415 12.9508 96.8848C10.7488 96.2861 9.91299 94.0193 11.3078 92.155C12.1032 91.0837 13.0759 90.1396 14.0521 89.232C16.0169 87.3811 17.8963 85.6339 17.9194 82.5482C17.9306 81.3784 19.0565 80.1707 19.8088 79.0785C21.0595 77.2573 22.4235 75.511 23.8834 73.5345C21.0096 68.6669 19.1346 63.3627 15.2342 59.2119C12.5969 56.4253 11.83 53.1395 12.5386 49.0313C22.7261 49.3734 31.5152 54.3799 41.2853 56.6643C42.7219 55.3214 44.1202 53.9395 45.6021 52.6343C48.9441 49.6802 52.3156 46.7371 55.7125 43.8458C61.5969 38.827 72.3627 42.3087 72.569 51.2922C72.6536 55.0683 72.9167 58.8556 73.0195 62.6365C73.0707 64.6206 72.9416 66.6125 72.8988 68.7206C74.3481 69.6457 75.5909 70.604 76.969 71.2811C82.9937 74.2592 89.0542 77.1627 95.1076 80.0805C95.7074 80.3763 96.3644 80.5773 96.9541 80.8866C98.5736 81.7432 100.129 82.7188 100.189 84.8053C100.248 86.3907 98.2284 87.8557 95.6924 88.0258C94.3514 88.1112 93.008 87.9212 91.6629 87.886C85.3843 87.7361 79.1614 88.2404 72.6182 89.362Z" fill="#FF6969"/>
</g>
</svg>
