<svg width="486" height="347" viewBox="0 0 486 347" fill="none" xmlns="http://www.w3.org/2000/svg">
<path fill-rule="evenodd" clip-rule="evenodd" d="M117.958 200.292C114.084 199.566 114.084 199.566 114.037 202.92C115.522 201.918 116.739 201.11 117.958 200.292ZM124.762 207.29C123.008 208.665 122.199 209.133 121.629 209.807C121.073 210.468 120.75 211.333 120.398 211.984C123.19 215.761 123.19 215.761 126.479 216.601C125.946 213.722 125.457 211.064 124.762 207.29ZM132.5 200.839C133.326 206.848 134.09 212.942 135.01 219.014C135.469 222.064 136.231 225.072 136.789 228.108C137.039 229.501 137.24 230.927 137.263 232.342C137.3 234.115 136.657 235.608 134.785 236.231C133.218 236.753 131.913 236.104 130.963 234.983C128.811 232.438 126.749 229.819 124.716 227.177C121.976 223.597 119.109 220.17 115.251 217.559C108.158 221.896 105.217 230.614 97.2486 233.279C95.5513 231.797 96.1994 230.339 96.8109 229.197C100.67 221.94 100.526 213.59 103.854 206.468C101.562 203.314 99.2871 201.583 96.0796 200.701C92.7522 199.791 91.8199 197.459 92.82 194.101C94.064 189.897 95.9061 188.775 100.209 189.642C101.376 189.873 102.508 190.31 103.68 190.422C109.007 190.92 111.756 189.493 113.751 184.528C115.685 179.735 118.022 175.017 116.669 169.429C116.014 166.719 119.101 163.816 121.831 163.876C124.592 163.939 127.266 166.488 127.114 169.431C126.845 175.001 128.293 180.209 129.467 185.119C131.585 186.98 133.452 186.041 135.275 185.724C138.541 185.152 141.79 184.406 145.078 184.004C146.433 183.832 147.921 184.213 149.262 184.618C150.829 185.1 151.605 187.675 150.42 188.795C148.895 190.216 147.14 191.506 145.277 192.438C140.803 194.68 136.405 196.964 132.5 200.839Z" fill="#FF6969"/>
<path fill-rule="evenodd" clip-rule="evenodd" d="M197.093 181.509C199.264 176.779 201.378 172.179 203.691 167.158C202.093 166.68 200.557 166.253 199.039 165.767C196.821 165.065 195.435 163.554 194.752 161.338C193.303 156.686 196.29 154.575 199.768 155.408C204.39 156.513 209.081 157.304 213.574 158.198C218.163 154.785 222.627 151.644 226.855 148.228C228.667 146.773 230.291 145.737 232.62 146.751C235.349 147.923 236.576 150.16 236.643 152.941C236.683 154.32 236.148 155.716 235.786 157.085C235.075 159.804 233.698 162.399 234.302 165.692C235.614 166.421 237.074 167.176 238.463 168.023C240.087 169.013 241.741 169.981 243.236 171.153C244.883 172.453 245.338 174.368 244.492 175.503C243.473 176.888 242.071 176.698 240.628 176.422C239.687 176.233 238.742 175.998 237.808 176.002C232.799 175.985 231.048 177.088 230.226 181.602C229.845 183.709 229.411 185.832 228.658 187.821C227.828 190.016 226.735 192.148 225.522 194.175C224.679 195.587 222.286 195.858 221.141 194.615C219.875 193.247 218.792 191.636 217.946 189.976C216.664 187.463 215.65 184.813 214.391 181.939C212.434 182.286 210.698 182.243 209.299 182.901C204.934 184.952 201.071 184.017 197.093 181.509Z" fill="#F84E72"/>
<path fill-rule="evenodd" clip-rule="evenodd" d="M431.092 188.145C429.675 184.728 427.721 183.07 425.559 181.514C424.042 180.419 422.613 179.116 421.429 177.671C420.136 176.095 420.82 173.927 422.634 172.819C424.39 171.743 426.144 171.85 428.117 172.307C431.117 172.994 434.198 173.374 437.266 173.743C439.086 173.962 440.574 173.126 441.379 171.483C442.728 168.755 444.367 166.154 444.039 162.785C443.839 160.776 445.415 159.322 447.433 158.875C448.952 158.525 450.499 158.908 451.053 160.405C452.021 163.028 453.34 165.568 452.56 168.636C451.998 170.847 451.08 173.217 452.629 175.916C454.512 176.087 456.643 176.106 458.694 176.512C461.013 176.968 463.36 177.547 465.506 178.491C466.699 179.013 467.714 180.267 468.44 181.42C469.493 183.065 468.461 185.438 466.568 186.032C465.683 186.314 464.714 186.446 463.788 186.438C462.602 186.423 461.393 185.934 460.248 186.085C452.217 187.156 451.258 187.588 451.68 195.039C451.988 200.48 452.087 205.942 452.328 211.392C452.399 212.946 452.154 214.315 450.539 214.852C449.056 215.359 447.588 214.884 446.698 213.666C445.586 212.137 444.709 210.434 443.84 208.749C441.555 204.358 439.217 200.008 436.85 195.758C434.116 196.272 433.127 197.895 432.147 199.493C431.032 201.314 430.047 203.224 428.85 204.995C427.92 206.381 425.964 206.636 424.375 205.805C422.851 205.01 422.35 203.501 422.848 202.187C423.844 199.548 425.111 196.991 426.544 194.553C427.856 192.329 429.527 190.328 431.092 188.145Z" fill="#FF75A4"/>
<path fill-rule="evenodd" clip-rule="evenodd" d="M201.918 257.351C200.5 253.934 198.547 252.276 196.384 250.72C194.867 249.625 193.439 248.322 192.255 246.877C190.961 245.301 191.645 243.133 193.459 242.025C195.215 240.949 196.969 241.056 198.942 241.513C201.942 242.199 205.024 242.58 208.091 242.949C209.911 243.168 211.399 242.331 212.204 240.689C213.553 237.961 215.193 235.36 214.864 231.991C214.664 229.982 216.24 228.528 218.258 228.08C219.777 227.731 221.324 228.114 221.878 229.611C222.846 232.234 224.165 234.774 223.385 237.841C222.823 240.053 221.905 242.423 223.454 245.122C225.337 245.293 227.469 245.312 229.519 245.718C231.839 246.174 234.185 246.752 236.331 247.697C237.525 248.218 238.539 249.473 239.265 250.626C240.318 252.271 239.286 254.643 237.393 255.237C236.509 255.519 235.539 255.651 234.613 255.644C233.427 255.628 232.218 255.14 231.073 255.291C223.042 256.362 222.083 256.794 222.505 264.245C222.813 269.686 222.912 275.148 223.153 280.597C223.224 282.152 222.979 283.521 221.365 284.058C219.881 284.565 218.413 284.09 217.523 282.872C216.411 281.343 215.534 279.64 214.665 277.954C212.38 273.564 210.042 269.214 207.675 264.964C204.941 265.478 203.953 267.101 202.973 268.699C201.857 270.52 200.872 272.43 199.675 274.201C198.746 275.587 196.789 275.842 195.2 275.01C193.676 274.216 193.176 272.707 193.673 271.393C194.669 268.754 195.936 266.197 197.37 263.759C198.681 261.535 200.352 259.534 201.918 257.351Z" fill="#FF75A4"/>
<path fill-rule="evenodd" clip-rule="evenodd" d="M49.9569 156.829C50.8313 159.607 51.7496 162.042 52.2919 164.553C52.5127 165.551 52.2445 167.19 51.565 167.692C50.8546 168.205 49.2723 168.008 48.2759 167.599C46.0881 166.7 44.033 165.481 41.694 164.262C40.04 165.665 38.5676 167.143 36.8614 168.289C35.1551 169.435 33.5682 171.119 30.9657 170.661C28.4378 167.607 32.1098 164.278 30.3238 160.64C29.7368 160.44 28.5916 160.2 27.6212 159.656C26.6288 159.094 25.6355 158.352 24.9367 157.457C23.6431 155.805 24.1676 153.508 26.0115 152.638C27.7174 151.831 29.5212 151.248 31.6122 150.426C32.0578 146.964 32.4688 143.473 32.9851 140.004C33.5569 136.075 34.7732 134.582 37.2905 134.491C39.5776 134.398 41.059 135.657 42.2887 138.796C42.4622 139.228 42.4769 139.735 42.6433 140.173C44.5793 145.389 44.9269 145.623 50.3001 145.709C52.2078 145.742 54.1132 145.759 56.0194 145.909C56.7006 145.956 57.3553 146.335 57.9945 146.553C59.4153 148.726 58.1538 150.293 56.7444 151.54C54.6407 153.404 52.3144 155.012 49.9569 156.829Z" fill="#FF75A4"/>
<mask id="mask0_150_1493" style="mask-type:luminance" maskUnits="userSpaceOnUse" x="82" y="32" width="123" height="111">
<path d="M107.645 32.8186L204.635 62.6502L179.968 142.849L82.9776 113.017L107.645 32.8186Z" fill="white"/>
</mask>
<g mask="url(#mask0_150_1493)">
<path fill-rule="evenodd" clip-rule="evenodd" d="M148.935 69.1595C149.325 69.1265 149.879 69.2307 150.063 69.0164C150.274 68.772 150.17 68.25 150.204 67.8436C149.692 67.9118 149.18 67.9801 148.673 68.0535C148.763 68.4183 148.848 68.7852 148.935 69.1595ZM118.299 69.7029C118.832 71.1212 118.91 71.8992 119.337 72.333C119.757 72.7471 120.614 73.0872 121.115 72.932C121.658 72.7758 122.309 72.0307 122.355 71.4959C122.386 71.0433 121.707 70.3513 121.187 70.094C120.601 69.7992 119.827 69.8808 118.299 69.7029ZM146.797 100.972C143.101 100.718 139.917 100.531 136.961 102.256C138.829 108.918 139.394 109.891 144.027 114.19C145.61 109.826 146.981 105.765 146.797 100.972ZM131.776 90.594C137.75 89.9121 143.518 89.0729 149.01 87.6451C150.402 85.161 150.614 82.9399 149.428 80.3961C148.32 79.7842 147.075 79.127 145.853 78.421C141.693 76.0156 137.824 75.9272 134.28 79.622C132.974 80.9787 131.393 82.0631 130.043 83.3682C129.587 83.8219 129.422 84.5949 128.986 85.5032C129.816 87.0094 130.701 88.6163 131.776 90.594ZM164.098 99.1523C162.133 105.62 160.475 111.531 158.524 117.353C156.651 122.956 153.985 128.227 151.262 133.182C147.988 133.798 146.107 132.278 144.901 130.17C140.281 122.132 134.076 115.056 130.326 106.491C128.153 101.513 127.152 101.018 121.376 101.816C116.919 102.437 112.551 103.734 108.162 104.782C105.53 105.408 102.964 105.251 100.407 104.444C98.0962 103.708 97.3112 101.264 98.8764 99.3475C99.7693 98.2461 100.845 97.2876 101.922 96.368C104.092 94.4917 106.166 92.7215 106.33 89.4464C106.395 88.2049 107.645 86.9735 108.493 85.8478C109.903 83.9707 111.43 82.1782 113.07 80.1456C110.238 74.8477 108.487 69.1313 104.534 64.548C101.859 61.4702 101.194 57.9469 102.132 53.6171C112.933 54.4407 122.038 60.1533 132.308 63.0202C133.894 61.6593 135.441 60.2552 137.074 58.9364C140.755 55.9509 144.468 52.9785 148.205 50.0622C154.68 44.9994 165.953 49.1825 165.766 58.7299C165.685 62.743 165.793 66.776 165.732 70.795C165.696 72.9038 165.469 75.0128 165.329 77.2492C166.826 78.2969 168.102 79.3705 169.534 80.1517C175.797 83.5859 182.1 86.9424 188.395 90.3139C189.019 90.6551 189.707 90.8981 190.319 91.2532C192 92.2358 193.608 93.3419 193.577 95.56C193.568 97.2458 191.357 98.7101 188.657 98.7761C187.23 98.8062 185.812 98.5438 184.385 98.4456C177.726 98.0028 171.096 98.2571 164.098 99.1523Z" fill="#FF6969"/>
</g>
<path fill-rule="evenodd" clip-rule="evenodd" d="M312.706 180.71C313.317 180.344 313.917 180.167 313.948 179.921C314.023 179.303 313.852 178.645 313.774 178.004C313.324 178.318 312.65 178.531 312.482 178.956C312.297 179.404 312.601 180.039 312.706 180.71ZM314.048 202.404C312.603 204.1 311.448 204.84 311.409 205.633C311.333 207.211 311.914 208.794 314.561 209.062C314.408 207.079 314.278 205.354 314.048 202.404ZM314.235 191.109C308.158 189.516 306.631 190.786 306.95 196.839C309.606 195.4 311.863 193.82 314.235 191.109ZM305.658 207.985C301.4 210.185 298.626 212.67 296.702 216.111C295.891 217.559 294.801 218.844 293.913 220.249C292.895 221.866 291.301 222.389 289.599 222.224C287.029 221.962 284.489 221.392 281.42 220.866C284.664 212.491 287.8 204.381 290.892 196.4C289.323 193.784 286.808 193.819 284.538 193.336C280.983 192.586 278.639 190.422 277.288 187.119C275.759 183.37 278.327 179.732 282.433 179.939C283.845 180.011 285.233 180.484 286.644 180.722C288.758 181.081 290.871 181.55 293 181.681C296.606 181.903 297.468 181.271 298.879 177.822C300.676 173.427 302.494 169.033 304.188 164.591C305.806 160.349 308.913 157.566 312.751 155.424C314.19 154.622 315.675 153.907 317.133 153.131C321.632 150.746 326.558 152.537 328.084 157.318C328.647 159.094 328.764 161.057 328.787 162.944C328.833 166.747 328.617 170.546 328.63 174.349C328.64 176.186 328.924 178.021 329.083 179.918C332.295 180.866 335.091 180.437 337.904 180.012C340.047 179.691 342.162 179.655 344.163 180.785C346.158 181.911 346.394 184.918 344.434 186.116C343.439 186.727 342.289 187.112 341.165 187.467C339.574 187.976 337.901 188.236 336.35 188.828C330.76 190.957 327.411 194.307 327.727 201.024C328.077 208.359 327.385 215.744 327.019 223.106C326.915 225.218 326.605 227.359 326.018 229.39C325.263 232.015 322.471 233.078 320.371 231.476C317.548 229.347 314.744 227.158 313.324 223.626C311.643 219.438 309.616 215.385 307.681 211.303C307.202 210.285 306.502 209.353 305.658 207.985Z" fill="#FF6969"/>
<mask id="mask1_150_1493" style="mask-type:luminance" maskUnits="userSpaceOnUse" x="242" y="67" width="53" height="58">
<path d="M246.015 67.8414L294.502 71.2307L290.772 124.586L242.285 121.196L246.015 67.8414Z" fill="white"/>
</mask>
<g mask="url(#mask1_150_1493)">
<path fill-rule="evenodd" clip-rule="evenodd" d="M266.464 97.7815C266.762 97.9688 267.062 98.1563 267.36 98.3436C267.475 98.1719 267.7 97.9645 267.666 97.8389C267.548 97.5177 267.324 97.2357 267.141 96.9399C266.918 97.2206 266.694 97.5013 266.464 97.7815ZM258.573 93.8272C256.334 93.9937 254.248 94.1308 252.158 94.3177C249.83 94.5245 247.967 93.512 246.405 91.9711C244.968 90.5621 244.768 87.6848 245.813 86.0132C246.787 84.4498 248.899 83.3255 250.751 84.1175C253.726 85.4042 256.695 85.685 259.815 85.3304C260.737 85.2284 261.638 84.9018 262.583 84.6649C264.272 81.8963 265.077 78.9892 265.209 75.8521C265.26 74.687 265.398 73.4879 265.72 72.3684C266.159 70.8576 268.241 69.6446 269.626 69.8946C271.14 70.1569 272.764 71.8054 272.807 73.2967C272.841 74.4777 272.474 75.6674 272.573 76.8296C272.796 79.3756 273.207 81.9082 273.504 84.2063C277.098 86.2355 280.479 85.5462 283.767 85.553C285.661 85.5456 287.573 85.2264 289.456 85.378C291.202 85.5233 292.598 86.5232 293.059 88.3401C293.464 89.9466 292.532 91.0068 291.348 91.9363C287.427 95.005 283.555 98.1471 279.603 101.18C277.772 102.584 276.854 104.301 276.792 106.624C276.726 109.23 276.471 111.829 276.233 114.423C276.124 115.551 275.843 116.666 275.639 117.807C270.273 119.204 269.431 114.091 266.548 112.061C263.618 112.326 262.019 114.425 260.486 116.525C259.795 117.472 259.394 118.623 258.844 119.67C258.258 120.784 257.415 121.618 256.051 121.413C254.498 121.181 253.328 120.29 253.257 118.68C253.19 117.054 253.216 115.338 253.671 113.798C254.997 109.256 256.497 104.763 258.064 100.298C258.697 98.5105 259.604 96.8492 258.573 93.8272Z" fill="#F84E72"/>
</g>
<mask id="mask2_150_1493" style="mask-type:luminance" maskUnits="userSpaceOnUse" x="363" y="111" width="41" height="37">
<path d="M366.243 111.021L403.319 113.612L400.948 147.541L363.872 144.949L366.243 111.021Z" fill="white"/>
</mask>
<g mask="url(#mask2_150_1493)">
<path fill-rule="evenodd" clip-rule="evenodd" d="M392.076 125.289C394.256 126.67 396.505 127.986 398.628 129.48C399.761 130.275 400.789 131.292 401.654 132.378C402.552 133.49 401.482 135.606 400.09 135.558C397.751 135.475 395.415 135.268 392.69 135.084C392.234 136.304 391.754 137.579 391.301 138.863C390.837 140.199 390.627 141.666 389.926 142.859C387.633 146.757 385.533 147.759 382.54 143.624C381.435 142.099 380.269 140.622 379.289 139.348C372.327 141.029 370.792 140.865 365.762 137.83C367.548 135.454 369.318 133.104 371.365 130.377C369.701 128.729 368.076 127.371 366.78 125.748C366.137 124.921 365.735 123.594 365.858 122.561C366.036 121.055 367.305 120.002 368.839 119.992C371.193 119.947 373.556 120.249 376.161 120.424C377.74 118.524 379.155 116.665 380.734 114.954C383.913 111.51 388.91 112.402 390.389 116.801C391.206 119.242 391.419 121.88 392.076 125.289Z" fill="#F84E72"/>
</g>
</svg>
