<svg clip-rule="evenodd" fill-rule="evenodd" stroke-linecap="round" stroke-linejoin="round" stroke-miterlimit="1.5" viewBox="0 0 667 417" xmlns="http://www.w3.org/2000/svg" xmlns:xlink="http://www.w3.org/1999/xlink"><radialGradient id="a" cx="0" cy="0" gradientTransform="matrix(675.426 0 0 422.142 333.5 343)" gradientUnits="userSpaceOnUse" r="1"><stop offset="0" stop-color="#01b7ff"/><stop offset=".61" stop-color="#0194fe"/><stop offset=".8" stop-color="#0175fd"/><stop offset="1" stop-color="#011efb"/></radialGradient><path d="m.001 0h666.667v416.667h-666.667z" fill="none"/><path d="m-15.378-9.416h696.798v435.499h-696.798z" fill="url(#a)"/><g fill="none" stroke="#01b7ff" stroke-width="2.33"><circle cx="486.854" cy="208.333" r="325"/><circle cx="179.814" cy="208.333" r="325"/><path d="m658.334 361.853c0 179.372-145.627 325-325 325-179.372 0-325-145.628-325-325 0-179.373 145.628-325 325-325 179.373 0 325 145.627 325 325z"/><path d="m658.334 54.811c0 179.372-145.627 325-325 325-179.372 0-325-145.628-325-325s145.628-325 325-325c179.373 0 325 145.628 325 325z"/><path d="m454.59 546.699c-126.835 126.835-332.784 126.835-459.619 0-126.836-126.836-126.836-332.784 0-459.62 126.835-126.835 332.784-126.835 459.619 0 126.835 126.836 126.835 332.784 0 459.62z"/><path d="m671.699 329.588c-126.836 126.835-332.784 126.835-459.62 0-126.835-126.835-126.835-332.784 0-459.619 126.836-126.836 332.784-126.836 459.62 0 126.835 126.835 126.835 332.784 0 459.619z"/><path d="m-5.03 329.589c-126.835-126.835-126.835-332.784 0-459.619 126.836-126.835 332.784-126.835 459.62 0 126.835 126.835 126.835 332.784 0 459.619-126.836 126.836-332.784 126.836-459.62 0z"/><path d="m212.079 546.698c-126.835-126.836-126.835-332.784 0-459.619 126.835-126.836 332.784-126.836 459.619 0 126.836 126.835 126.836 332.783 0 459.619-126.835 126.835-332.784 126.835-459.619 0z"/></g><path d="m333.555 296.697c-1.215.017-2.157-.35-2.827-1.098-.67-.749-1.015-1.855-1.034-3.318l-.074-5.487 2.488-.033.071 5.251c.011.836.19 1.474.535 1.914.346.439.885.654 1.616.644.693-.009 1.261-.265 1.705-.768.444-.502.66-1.198.648-2.086l-.068-5.016 2.508-.034.131 9.719-2.214.03-.218-1.643c-.293.579-.721 1.042-1.285 1.389-.563.347-1.224.526-1.982.536zm-12.329-.907c-.906-.13-1.682-.466-2.33-1.008-.648-.541-1.124-1.224-1.429-2.046-.304-.823-.386-1.719-.247-2.689.14-.97.471-1.803.993-2.5.523-.697 1.171-1.211 1.944-1.542.774-.331 1.613-.431 2.518-.301.725.104 1.339.331 1.843.68.504.35.889.795 1.154 1.334l.814-5.664 2.483.357-2.007 13.966-2.211-.317-.074-1.417c-.372.382-.836.698-1.393.948-.558.25-1.244.317-2.058.199zm25.73-.224c-.98.162-1.878.093-2.696-.209-.819-.301-1.507-.796-2.064-1.485-.558-.689-.919-1.523-1.081-2.502-.163-.98-.091-1.886.215-2.718.305-.832.797-1.522 1.474-2.072.677-.549 1.505-.905 2.484-1.067 1.225-.204 2.309-.056 3.252.443.944.499 1.625 1.29 2.043 2.373l-2.61.433c-.206-.443-.521-.764-.945-.966-.424-.201-.894-.259-1.409-.173-.684.113-1.221.467-1.612 1.062s-.511 1.349-.359 2.265c.151.915.508 1.59 1.071 2.027.562.436 1.185.598 1.868.485.516-.086.942-.289 1.28-.61.337-.321.531-.73.58-1.229l2.61-.433c-.052 1.122-.443 2.08-1.171 2.877-.729.796-1.706 1.295-2.93 1.499zm-24.894-1.873c.801.115 1.496-.059 2.084-.522s.942-1.115 1.063-1.956c.121-.84-.035-1.565-.469-2.176-.434-.61-1.051-.972-1.853-1.088-.789-.113-1.48.058-2.074.514-.593.456-.95 1.104-1.071 1.945-.121.84.038 1.569.478 2.187.439.617 1.053.983 1.842 1.096zm-12.63-.585c-.899-.276-1.645-.731-2.236-1.364-.591-.632-.984-1.378-1.177-2.238-.194-.859-.143-1.769.152-2.731.296-.961.769-1.742 1.418-2.342s1.396-.996 2.241-1.187c.844-.191 1.716-.149 2.616.128.886.273 1.625.725 2.216 1.358.592.633.984 1.379 1.178 2.238s.143 1.77-.153 2.731c-.296.962-.765 1.744-1.408 2.345-.643.602-1.39.998-2.241 1.187-.851.19-1.72.148-2.606-.125zm48.722-.483c-.976.291-1.83.286-2.56-.015-.73-.3-1.276-1.058-1.638-2.272l-1.208-4.057-1.596.475-.599-2.01 1.597-.475-.462-2.582 2.122-.632.744 2.498 2.517-.749.598 2.009-2.517.75 1.214 4.075c.134.451.323.732.568.844.244.111.604.096 1.08-.046l1.165-.347.609 2.047zm4.171-1.469-3.606-9.027 2.33-.93 3.606 9.026zm-52.254-.127c.624.192 1.24.125 1.846-.201s1.051-.951 1.335-1.875c.284-.925.267-1.692-.051-2.302-.318-.611-.783-1.01-1.395-1.198-.637-.196-1.255-.13-1.855.199-.6.328-1.042.954-1.326 1.878s-.27 1.69.042 2.299c.312.608.78 1.008 1.404 1.2zm-12.347-2.744 3.942-8.885 2.042.906-.524 1.762c.577-.43 1.218-.692 1.925-.786.706-.094 1.435.026 2.188.359l-1.073 2.419-.645-.286c-.502-.223-.984-.344-1.447-.364-.463-.019-.89.113-1.28.397-.391.284-.737.767-1.039 1.447l-1.796 4.049zm72.058-.41-7.681-6.942 2.324-1.222 5.606 5.354-1.236-7.653 2.325-1.223 1.35 10.272zm7.554-4.32-5.391-8.088 2.087-1.391 5.391 8.088zm-90.219-1.381 7.108-11.733 4.341 2.63c.939.569 1.62 1.196 2.045 1.881s.623 1.393.593 2.123c-.03.731-.252 1.436-.664 2.118-.393.648-.899 1.155-1.518 1.521s-1.335.528-2.149.485c-.815-.043-1.702-.355-2.663-.937l-2.196-1.33-2.752 4.542zm72.207-1.911c-.424.169-.824.181-1.199.035-.375-.145-.64-.412-.795-.8-.155-.389-.146-.762.028-1.119.174-.358.473-.622.897-.792.425-.169.824-.184 1.196-.045.372.14.636.404.791.792s.147.765-.024 1.128c-.171.364-.469.631-.894.801zm-66.254-3.075 2.062 1.249c.748.454 1.387.616 1.917.486.529-.13.966-.48 1.312-1.05.352-.581.463-1.136.333-1.666-.13-.529-.57-1.02-1.318-1.474l-2.062-1.249zm92.211.546c-.796.636-1.589.951-2.379.946-.79-.006-1.58-.504-2.37-1.494l-2.639-3.31-1.302 1.039-1.308-1.639 1.302-1.039-1.395-2.221 1.731-1.381 1.625 2.038 2.053-1.638 1.308 1.64-2.053 1.637 2.651 3.325c.294.367.575.557.843.569.268.011.596-.138.984-.447l.95-.758 1.332 1.67zm-110.545-5.966c-.717-.706-1.219-1.444-1.506-2.213-.288-.769-.358-1.521-.211-2.257s.514-1.401 1.101-1.997c.623-.633 1.364-1.031 2.222-1.194.858-.164 1.787-.055 2.788.325.041-.6.144-1.105.307-1.512.163-.408.405-.775.726-1.1.44-.447.944-.735 1.511-.864.568-.129 1.159-.092 1.775.112.616.203 1.212.589 1.789 1.157.587.578.979 1.175 1.178 1.793.198.617.223 1.211.075 1.78s-.451 1.068-.91 1.497l-1.703-1.678c.339-.345.493-.702.463-1.071-.031-.369-.185-.691-.465-.966-.316-.312-.657-.474-1.022-.485s-.685.123-.96.402c-.229.233-.388.544-.478.932-.089.389-.146.884-.169 1.484l.068 5.404c.507-.124 1.074-.289 1.701-.497l.912-.312 1.829 1.802-1.424.468c-1.115.387-2.115.657-3.001.812l.061 4.434-2.136-2.105-.016-2.161c-.906-.03-1.723-.211-2.45-.543-.728-.332-1.413-.814-2.055-1.447zm117.805 5.333-1.995-5.068-.409.423-9.15-3.592 1.894-1.958 6.809 2.799-2.939-6.798 1.854-1.915 5.79 14.193zm-20.39-3.585c-.38.254-.769.348-1.166.283-.396-.066-.711-.272-.943-.62s-.299-.715-.203-1.101.334-.705.714-.959c.381-.254.768-.351 1.161-.291s.706.264.937.612c.232.348.302.717.21 1.109-.093.391-.329.713-.71.967zm-96.19-6.621c-.45.456-.658 1.007-.625 1.654.032.646.332 1.249.9 1.808.81.798 1.797 1.202 2.961 1.212l-.066-5.099c-.676-.263-1.28-.354-1.81-.271-.531.082-.984.314-1.36.696zm58.082-21.02c-13.14.051-25.404-7.029-31.932-18.436-1.182-2.065-3.818-2.783-5.883-1.601-2.066 1.182-2.783 3.819-1.601 5.884 8.065 14.093 23.216 22.839 39.45 22.776 2.379-.009 4.303-1.949 4.294-4.328-.009-2.38-1.949-4.304-4.328-4.295zm27.23-61.034-6.716 39.121c-.27 1.568-1.64 2.706-3.231 2.684h-.001c-7.558-.108-14.582 3.881-18.361 10.427-6.494 2.042-20.465-6.025-22.69-13.101 3.779-6.545 3.721-14.623-.15-21.114-.001 0-.001-.001-.001-.001-.815-1.367-.514-3.123.709-4.14 7.247-6.025 30.893-25.687 37.176-30.911.928-.771 2.239-.883 3.284-.28.001.001.002.001.003.002.701.405 1.213 1.072 1.422 1.854.21.782.1 1.615-.305 2.317-4.476 7.753-17.254 29.885-17.254 29.885-2.864-.4-5.819.931-7.353 3.589-2.019 3.497-.819 7.976 2.679 9.996 3.497 2.019 7.976.819 9.995-2.679 1.534-2.657 1.21-5.881-.568-8.162 0 0 12.778-22.132 17.254-29.885.405-.702 1.072-1.213 1.854-1.423.782-.209 1.616-.1 2.317.305.001.001.002.001.002.002.036.02.07.041.105.063l.037-.066c7.64 5.855 13.48 14.179 16.162 24.187 6.042 22.549-6.085 45.718-27.389 53.939-2.22.857-4.718-.25-5.575-2.47-.856-2.22.251-4.718 2.471-5.575 17.243-6.654 27.054-25.41 22.164-43.663-1.533-5.721-4.342-10.762-8.04-14.901zm-63.576 30.014c-1.408-8.997.632-17.9 5.244-25.202 1.27-2.012.668-4.677-1.344-5.948-2.011-1.271-4.677-.669-5.947 1.343-5.699 9.023-8.212 20.024-6.472 31.14.368 2.351 2.575 3.961 4.926 3.593s3.961-2.575 3.593-4.926zm14.21-34.941c3.641-2.737 7.855-4.835 12.521-6.086 2.299-.615 3.665-2.982 3.049-5.28-.616-2.299-2.982-3.665-5.28-3.049-5.767 1.545-10.974 4.14-15.472 7.523-1.902 1.43-2.285 4.135-.855 6.037s4.135 2.285 6.037.855zm-32.188-26.164-8.072-11.091 2.408-1.753 8.654 4.463-1.635-9.572 2.409-1.753 8.072 11.091-2.028 1.477-5.57-7.653 1.327 8.317-1.6 1.165-7.507-3.82 5.57 7.653zm104.161-1.921c-.675-.536-1.182-1.117-1.519-1.743s-.505-1.255-.503-1.888c.001-.632.174-1.229.519-1.789l1.98 1.571c-.174.346-.208.731-.104 1.156.105.425.373.808.802 1.149.43.341.814.504 1.152.488.337-.016.595-.136.774-.361.26-.328.293-.664.1-1.009s-.501-.777-.924-1.296c-.27-.331-.534-.682-.79-1.052-.257-.371-.463-.747-.619-1.129-.155-.382-.221-.767-.196-1.156s.184-.767.476-1.136c.536-.675 1.255-1.03 2.158-1.064.903-.035 1.84.334 2.813 1.105.9.715 1.453 1.495 1.657 2.341.205.846.066 1.678-.416 2.496l-1.858-1.474c.334-.652.133-1.27-.604-1.855-.369-.292-.71-.446-1.023-.461s-.555.085-.726.3c-.178.225-.172.522.019.89.192.369.488.804.89 1.307.435.545.816 1.068 1.144 1.57.327.501.508 1.003.543 1.506s-.163 1.026-.594 1.568c-.363.479-.823.806-1.379.982s-1.16.18-1.812.014c-.651-.167-1.305-.51-1.96-1.03zm-8.723-6.075c-.74-.443-1.318-.953-1.734-1.53-.416-.576-.664-1.178-.745-1.806-.082-.627.012-1.241.281-1.842l2.168 1.3c-.127.365-.111.752.048 1.159.159.408.474.753.945 1.035s.873.393 1.205.333c.333-.059.573-.212.721-.459.215-.358.204-.696-.033-1.013-.236-.317-.598-.705-1.084-1.164-.312-.293-.619-.607-.922-.94-.303-.334-.556-.68-.76-1.038-.204-.359-.319-.732-.345-1.121s.082-.785.323-1.188c.444-.74 1.11-1.186 2.001-1.338.89-.151 1.868.092 2.933.73.986.59 1.636 1.292 1.949 2.104s.284 1.655-.088 2.529l-2.034-1.219c.246-.69-.034-1.277-.841-1.76-.404-.242-.762-.35-1.074-.324-.313.026-.54.157-.681.392-.147.247-.102.54.135.881.238.34.589.733 1.053 1.179.502.483.948.952 1.339 1.407.39.455.635.929.735 1.423s-.028 1.038-.384 1.632c-.298.522-.711.906-1.239 1.153-.529.247-1.127.33-1.795.25s-1.36-.335-2.077-.765zm-80.735-1.895-4.538-8.595 2.218-1.172 4.538 8.596zm4.891-2.612-3.551-9.048 2.061-.809.784 1.461c.07-.645.307-1.23.712-1.753.405-.524.966-.927 1.684-1.208 1.119-.44 2.127-.428 3.024.034s1.613 1.374 2.147 2.736l2.005 5.108-2.336.916-1.918-4.889c-.305-.778-.697-1.312-1.176-1.601-.478-.29-1.052-.303-1.721-.041-.657.258-1.104.7-1.342 1.327-.239.627-.196 1.354.129 2.181l1.833 4.67zm65.732-.662c-.902-.382-1.621-.914-2.155-1.595-.534-.68-.852-1.454-.953-2.32s.042-1.756.43-2.67c.393-.926.938-1.667 1.635-2.223s1.476-.888 2.339-.998c.862-.109 1.763.035 2.701.433.878.372 1.572.894 2.082 1.564.511.671.814 1.42.909 2.248.096.829-.03 1.652-.376 2.47-.057.132-.118.269-.185.411-.068.141-.141.288-.219.439l-6.801-2.885c-.248.718-.237 1.369.034 1.952s.719 1.007 1.344 1.272c.469.199.908.261 1.316.186s.761-.248 1.06-.519l2.346.995c-.408.494-.906.89-1.493 1.187-.588.297-1.223.457-1.907.479-.683.022-1.386-.119-2.107-.426zm-16.155-5.325 2.402-9.418 2.146.547-.217 1.643c.433-.482.967-.818 1.602-1.007.635-.188 1.325-.187 2.072.003 1.165.297 1.977.895 2.435 1.794s.507 2.057.145 3.475l-1.356 5.317-2.431-.62 1.298-5.089c.207-.81.201-1.472-.019-1.987-.219-.514-.677-.86-1.373-1.038-.684-.174-1.305-.076-1.865.293-.559.37-.949.985-1.168 1.846l-1.24 4.861zm-33.628.936c-.892.198-1.738.159-2.536-.119-.797-.277-1.484-.747-2.06-1.409-.575-.661-.969-1.47-1.182-2.427-.213-.956-.198-1.853.044-2.69s.667-1.547 1.273-2.13 1.356-.974 2.249-1.173c.714-.159 1.368-.164 1.964-.015.595.149 1.112.428 1.551.839l-1.242-5.585 2.448-.545 3.064 13.773-2.18.485-.57-1.298c-.213.488-.535.948-.968 1.379s-1.051.736-1.855.915zm52.984-3.108c-.565-.24-1.132-.292-1.7-.157s-1.05.502-1.446 1.1l4.456 1.89c.214-.604.196-1.165-.053-1.682-.248-.517-.668-.901-1.257-1.151zm-24.774 1.447 1.953-13.974 2.484.347-1.952 13.974zm-19.249-.116-.699-7.591-1.327.122-.193-2.088 1.327-.122-.104-1.132c-.108-1.171.111-2.031.658-2.579.546-.549 1.327-.871 2.341-.964l1.074-.099.196 2.127-.683.063c-.43.04-.728.152-.894.338-.167.186-.231.481-.194.884l.104 1.132 2.088-.192.192 2.088-2.088.192.7 7.591zm10.597-.253c-1.214-.035-2.14-.441-2.778-1.218-.637-.776-.935-1.896-.893-3.358l.159-5.485 2.488.072-.152 5.249c-.024.836.127 1.481.454 1.935.326.454.855.691 1.587.712.692.02 1.27-.211 1.735-.694.465-.484.711-1.169.736-2.057l.145-5.015 2.508.073-.281 9.716-2.214-.064-.148-1.652c-.317.566-.765 1.011-1.343 1.334s-1.245.474-2.003.452zm-19.518-.228c.791-.176 1.379-.584 1.765-1.226.386-.641.487-1.376.303-2.205-.185-.829-.588-1.452-1.209-1.869-.622-.417-1.328-.538-2.118-.362-.778.173-1.364.578-1.758 1.214s-.498 1.369-.314 2.198.591 1.454 1.22 1.877c.63.422 1.333.546 2.111.373zm-25.013-.594c-.405.213-.801.267-1.189.162-.388-.106-.68-.343-.875-.713s-.225-.742-.09-1.116.404-.668.809-.881c.404-.213.799-.27 1.184-.171.385.1.675.335.87.704.195.37.227.745.095 1.125-.132.379-.4.676-.804.89z" fill="#fff"/></svg>