<svg clip-rule="evenodd" fill-rule="evenodd" height="1000" stroke-linejoin="round" stroke-miterlimit="2" width="1000" xmlns="http://www.w3.org/2000/svg" xmlns:xlink="http://www.w3.org/1999/xlink"><linearGradient id="a" gradientTransform="matrix(0 307.809 -307.809 0 387.991 599.191)" gradientUnits="userSpaceOnUse" x1="0" x2="1" y1="0" y2="0"><stop offset="0" stop-color="#fff"/><stop offset="1" stop-color="#fff" stop-opacity="0"/></linearGradient><clipPath id="b"><path clip-rule="evenodd" d="m0 0h1000v1000h-1000z"/></clipPath><path d="m0 0h1000v1000h-1000z" fill="none"/><g clip-path="url(#b)"><path d="m59.086 1119v-154.086c0-40.113 8.638-68.502 24.72-90.178 16.169-21.793 39.731-36.764 68.946-50.297 40.279-18.658 91.115-34.442 148.679-59.954 36.483-16.168 58.072-30.797 71.007-48.027 19.363-25.792 19.562-57.778 19.562-111.458 0-2.153-1.154-4.141-3.023-5.209-4.985-2.849-10.147-8.629-14.845-15.393-7.399-10.653-13.534-23.835-15.223-33.437-.537-3.056-3.316-5.198-6.407-4.94-9.769.814-16.765-4.018-22.565-11.807-6.838-9.182-12.038-22.175-17.316-36.313-5.134-13.75-7.895-27.963-6.646-38.76.937-8.105 4.214-14.141 12.025-14.141 1.813 0 3.529-.82 4.668-2.23 1.139-1.411 1.579-3.261 1.197-5.033-20.507-95.214-4.294-164.364 31.35-209.651 35.336-44.897 89.602-66.086 144.785-66.086s109.449 21.189 144.785 66.086c35.644 45.287 51.857 114.437 31.35 209.651-.382 1.772.058 3.622 1.197 5.033 1.139 1.41 2.855 2.23 4.668 2.23 7.811 0 11.088 6.036 12.025 14.141 1.249 10.797-1.512 25.01-6.646 38.76-5.278 14.138-10.478 27.131-17.316 36.313-5.8 7.789-12.796 12.621-22.565 11.807-3.091-.258-5.87 1.884-6.407 4.94-1.689 9.602-7.824 22.784-15.223 33.437-4.698 6.764-9.86 12.544-14.845 15.393-1.869 1.068-3.023 3.056-3.023 5.209 0 53.68.199 85.666 19.562 111.458 12.935 17.23 34.524 31.859 71.007 48.027 57.564 25.512 108.4 41.296 148.679 59.954 29.215 13.533 52.777 28.504 68.946 50.297 16.082 21.676 24.72 50.065 24.72 90.178v154.086c0 3.311 2.688 6 6 6 3.311 0 6-2.689 6-6v-154.086c0-43.339-9.707-73.908-27.083-97.328-17.289-23.303-42.299-39.565-73.539-54.036-40.329-18.681-91.225-34.492-148.861-60.035-33.917-15.032-54.248-28.243-66.273-44.262-17.684-23.557-17.189-52.828-17.159-101.01 5.314-3.862 10.806-9.918 15.725-17 7.208-10.377 13.237-22.916 16.042-33.176 11.612-.622 20.548-6.784 27.921-16.685 7.412-9.953 13.212-23.959 18.934-39.283 7.126-19.087 9.752-39.02 5.784-51.881-2.556-8.285-7.504-14.124-15.22-16.289 19.407-96.521 1.591-166.813-34.97-213.265-37.664-47.853-95.398-70.664-154.215-70.664v12-12c-58.817 0-116.551 22.811-154.215 70.664-36.561 46.452-54.377 116.744-34.97 213.265-7.716 2.165-12.664 8.004-15.22 16.289-3.968 12.861-1.342 32.794 5.784 51.881 5.722 15.324 11.522 29.33 18.934 39.283 7.373 9.901 16.309 16.063 27.921 16.685 2.804 10.26 8.834 22.799 16.042 33.176 4.918 7.082 10.411 13.138 15.725 17 .03 48.182.525 77.453-17.159 101.01-12.025 16.019-32.356 29.23-66.273 44.262-57.636 25.543-108.532 41.354-148.861 60.035-31.24 14.471-56.25 30.733-73.539 54.036-17.376 23.42-27.083 53.989-27.083 97.328v154.086c0 3.311 2.689 6 6 6 3.312 0 6-2.689 6-6z" fill="url(#a)"/></g></svg>