<svg width="247" height="183" viewBox="0 0 247 183" fill="none" xmlns="http://www.w3.org/2000/svg">
<mask id="mask0_597_1475" style="mask-type:luminance" maskUnits="userSpaceOnUse" x="4" y="0" width="75" height="83">
<path d="M4.03906 0H78.0861V82.0127H4.03906V0Z" fill="white"/>
</mask>
<g mask="url(#mask0_597_1475)">
<path d="M56.8346 53.1227L56.3497 53.1035C57.0081 52.2355 57.8621 50.9528 58.2588 50.2881C58.3387 50.5655 57.931 51.167 57.5453 51.84C58.5976 50.5188 59.4185 49.063 60.008 47.4809C59.2422 48.1126 59.1954 48.2445 58.5232 48.879C58.7822 47.5303 59.6361 47.8297 60.3165 46.3327C60.6636 46.5058 60.3138 46.926 60.851 46.7914C60.9722 46.3822 61.1402 45.9921 61.3551 45.6213C61.5672 45.2258 61.7435 44.8138 61.884 44.388C62.4046 44.2315 62.3165 45.0253 61.4267 46.4508C60.4405 47.3298 60.1485 48.8268 59.2863 49.5135C59.4791 49.3871 59.6637 49.2553 59.8455 49.1207C59.2119 50.2359 58.6913 50.8154 58.2037 51.8098L58.1844 51.7411L58.1734 52.4113L58.5177 51.9279C58.3745 52.6201 58.1293 53.2738 57.785 53.8918C58.851 52.3866 58.413 51.9059 58.6499 51.0105C59.0466 50.4968 59.5012 50.0436 60.0163 49.6508C60.4295 49.3377 60.7187 48.9339 60.8868 48.445C61.0879 48.4725 61.7573 47.8105 61.4873 48.5137C61.0631 49.3322 60.5094 49.736 60.6747 49.9585C61.2008 49.1482 61.1264 49.5464 61.906 48.2939C61.771 47.8709 62.1319 46.7942 62.4542 45.7614C62.9087 44.7176 63.4817 43.748 64.1787 42.8471C63.6305 43.7947 63.3302 44.8989 63.6856 44.7946C63.7241 44.0667 65.0602 43.1053 64.4762 43.1328C65.1539 42.045 66.2034 40.1635 66.6414 40.2432C66.1703 41.3748 65.366 42.273 64.928 43.2097C65.0795 42.9707 65.3081 42.7812 65.3081 42.9762C65.0492 43.4129 64.7572 43.8277 64.4817 44.2534C65.107 43.7178 65.6001 43.0806 65.9582 42.3417C65.8839 42.4049 65.7351 42.5312 65.7847 42.3994L66.3797 41.3584L66.7351 41.5067C67.0711 40.8172 67.4596 40.1608 67.9003 39.5345C68.4457 38.6967 68.9003 37.8123 69.2667 36.8839L69.2529 37.0817C70.0793 35.6808 69.4264 35.2056 70.1179 33.6015C70.0573 34.1344 70.3024 33.9943 70.5035 33.9888C70.7046 33.1153 71.2143 32.8407 71.655 32.0716C71.0379 32.9121 71.5641 31.2778 71.1536 31.9013C70.7845 31.7886 71.509 30.1461 71.9222 29.3221C72.5999 29.0117 71.0159 32.0441 72.0379 30.9756C72.4539 30.1488 72.2886 29.8247 71.9443 30.3823C72.206 29.8687 72.5365 29.2177 72.8478 28.6052C73.0985 28.064 73.4098 27.5586 73.7789 27.0889C73.9387 25.6661 74.3602 25.2349 74.1921 24.2378C73.9662 24.9382 74.2692 25.103 73.7486 25.8941L73.7872 24.8229C74.2197 23.5649 74.8753 22.6722 75.2306 21.8179L75.0516 22.782L75.013 22.7188C75.0351 23.1199 74.5309 24.2625 74.8285 24.2241C74.8092 23.2847 75.3519 22.7381 75.5171 21.5762L75.5557 21.6366C75.9441 19.6205 77.1645 18.4806 76.9 17.0001C76.7981 17.4066 76.3133 17.9972 76.2554 17.7472C76.5584 17.4121 76.8807 16.0277 77.0598 16.1184L77.0019 16.5908C77.2939 15.7778 77.4813 14.94 77.5639 14.0803C77.3683 13.682 77.1314 14.0171 77.1149 13.0777C77.3022 11.9488 77.4124 12.1795 77.5419 12.5229C77.6713 12.869 77.787 13.3167 77.9551 12.5174C77.933 11.762 77.8642 11.0122 77.7512 10.265L77.9523 9.74591C77.9496 7.89184 77.4289 6.19709 76.3821 4.6644C76.1039 4.23865 75.7871 3.84312 75.4317 3.48055C75.2472 3.29102 75.0654 3.1015 74.867 2.92021L74.2197 2.42305C73.7596 2.09344 73.2748 1.80777 72.7624 1.56606C72.2335 1.34082 71.6908 1.1513 71.1371 0.994733C71.1481 0.791473 72.0104 0.882116 73.0048 1.26117C73.9304 1.65945 74.7431 2.22528 75.4345 2.95592C74.8891 2.13189 74.1618 1.52211 73.2555 1.12932C72.2748 0.689842 71.2583 0.357484 70.2088 0.134997C69.4402 0.00864575 68.6854 0.0580878 67.9444 0.288816C67.4513 0.450874 67.253 0.640401 67.3962 0.720057C66.9472 0.895849 66.4816 0.983746 65.9968 0.983746C65.8536 0.942544 65.8921 0.81894 65.7709 0.824434C65.3109 1.20898 64.7985 1.50563 64.2365 1.71713C63.5974 2.00005 62.9749 2.31867 62.3743 2.673L62.2201 2.48897L60.7187 3.59042C61.1512 3.3954 60.873 3.7772 60.9446 3.90355L60.5176 4.09857C61.4873 3.87883 62.3661 3.46682 63.1512 2.85978C64.0602 2.19781 65.074 1.84348 66.1979 1.79679C65.6001 2.0797 66.4679 1.93412 65.8811 2.21704C65.3715 2.36537 65.2751 2.3791 65.1897 2.31318C64.9665 2.60433 64.2999 3.06304 65.2723 2.65652C65.3357 2.89549 64.8701 3.17841 64.2778 3.50802C63.6828 3.84037 62.9831 4.23316 62.4239 4.60947C61.3358 4.81547 63.1842 3.68381 63.5837 3.21961C63.1512 3.58493 62.6746 3.87608 62.1512 4.09308L62.1457 3.68106C60.5865 4.71384 61.8454 4.2002 61.6388 4.70835C61.446 5.05719 61.154 5.27418 60.7628 5.35384C60.4157 5.46371 60.0769 5.60105 59.7491 5.76036L60.1843 5.40603C58.8731 5.99109 58.7849 6.48276 57.6693 7.11726L57.0081 7.19966C58.5563 6.63108 58.4406 5.73839 59.3359 5.41701C57.1073 6.31246 59.3882 4.50509 59.8951 3.84587C59.1981 4.35951 58.4351 4.73582 57.6031 4.97479C57.0384 5.52414 56.4076 5.98285 55.7134 6.35091C55.0082 6.69975 54.4187 7.18593 53.9366 7.80669C53.2534 8.22146 54.3581 7.18043 53.6666 7.66936C52.3086 8.56755 51.0717 9.60582 49.9505 10.7842C49.2839 11.3116 49.2894 11.0891 49.0056 11.122C48.2756 11.6522 47.6007 12.2427 46.9782 12.8937C46.4437 13.4293 45.9424 13.9924 45.4741 14.5857C45.0085 15.1598 44.5402 15.7448 43.981 16.3711C43.4218 16.9946 42.824 17.7143 42.0279 18.4943L42.3199 17.8736C41.6588 18.5383 41.0555 19.0794 40.9756 19.6205C40.3558 19.8677 39.7938 20.7027 39.2043 21.5625C38.7525 22.4332 38.1327 23.1638 37.3476 23.7544C36.8848 24.2488 36.5543 24.8201 36.3559 25.4656C36.2182 26.0122 36.0088 26.5314 35.7306 27.023C35.6066 26.9434 35.6425 26.405 35.1383 27.0368C34.4992 28.1327 33.9263 29.2314 33.3202 30.2972C33.2927 30.3439 33.2651 30.3933 33.2431 30.4427L33.2128 30.5169L33.1494 30.6625L33.0172 30.9619L32.7445 31.5662C32.5599 32.0688 32.3395 32.6374 32.1109 33.412C32.1247 33.2417 32.155 33.0522 32.1687 32.967C32.0999 33.1483 32.0448 33.3351 32.0035 33.5246L31.9566 33.7224C31.9484 33.7443 31.9373 33.8158 31.9318 33.8048L31.9181 33.7993L31.8519 33.78C31.7886 33.7581 31.739 33.7196 31.7032 33.6619C31.5489 33.3598 31.4801 33.0412 31.4966 32.7033C31.4139 32.7171 31.2128 32.3078 31.0448 32.8077C31.0145 33.2087 30.8961 33.585 30.6922 33.9311C30.1964 32.7995 30.9346 32.6923 30.706 31.9892C31.0972 31.4288 31.0779 32.1924 31.4332 31.742C31.2652 31.5717 31.1219 31.3849 30.998 31.1789C31.0035 31.1157 31.0035 31.0498 30.998 30.9838C30.998 30.9811 30.9759 30.8465 30.9622 30.7751L30.9126 30.5169C30.8437 30.1736 30.7501 29.8384 30.6674 29.5088C30.4856 28.8771 30.3699 28.2371 30.3176 27.5806C30.3864 28.1272 30.7253 27.6713 30.739 28.6052C30.6867 28.4733 30.6757 28.5722 30.6206 28.4431C30.6867 28.976 30.8382 29.4869 31.0806 29.9675C31.1605 30.1021 31.2349 30.2422 31.2955 30.3878C31.3368 30.4839 31.3836 30.602 31.4332 30.7504L31.4718 30.8602L31.4883 30.8822C31.4801 30.8712 31.4745 30.8602 31.469 30.8493L31.425 30.6899L31.2432 30.0335C31.1192 29.5857 30.9925 29.1243 30.8685 28.6683C30.6316 27.7537 30.4085 26.8582 30.29 26.1358C30.0421 26.5259 29.8658 25.0234 29.56 24.6773L29.571 24.5812C29.4333 24.6169 29.1082 23.7681 28.9953 23.5099L29.3176 23.0512C29.1027 22.4469 29.1551 23.2792 28.943 22.6776C28.6207 21.8289 27.7061 18.736 28.0642 18.3927C27.7199 17.3544 27.4003 17.1182 27.1166 16.0223C27.2488 16.0744 27.3728 16.3216 27.4389 16.3464C27.1303 15.1763 26.7116 13.91 26.3012 12.641C25.8549 11.3033 25.4141 9.98762 25.0285 8.83124C24.2489 7.14198 23.136 5.71092 21.687 4.54355C22.1801 4.97204 23.1029 6.39486 22.2627 5.69718C21.7779 5.35933 21.2187 4.60947 20.4611 4.07385C20.6182 4.05462 20.2022 3.63711 19.913 3.37343C19.6182 3.12347 19.4997 2.96416 20.3069 3.47231C20.2766 3.12896 19.4088 2.51644 18.4998 2.09893C17.599 1.66494 16.6569 1.44245 16.7368 1.21173C16.4888 1.21173 15.6376 1.01121 14.6624 0.991986C13.7672 0.950784 12.9132 1.11284 12.0923 1.47542C11.9408 1.40675 12.3292 1.25293 12.7782 1.14031C13.095 1.1046 13.4035 1.02769 13.701 0.906836C13.2217 0.964518 12.7507 1.05791 12.2879 1.18975L12.2521 1.05241C11.2741 1.22271 10.4339 1.6567 9.72873 2.35713C9.24665 2.83231 8.97393 3.28828 8.47533 3.83213V3.74973C8.26872 4.01067 8.05661 4.26887 7.87204 4.53805C8.0208 4.15076 8.19159 3.77171 8.38167 3.40089C8.13099 3.67282 7.90234 3.96123 7.69574 4.26612C7.53045 4.55179 7.38996 4.82371 7.25223 5.09839C7.00706 5.65598 6.79219 6.22456 6.48366 6.95795L6.3046 7.04859C6.22471 7.35897 6.13656 7.66386 6.06769 7.9715C6.098 7.81494 6.0732 7.74627 5.99883 7.82867C5.99883 8.7763 5.36524 10.5974 5.56358 11.4159C5.40656 11.968 4.8749 12.3938 5.09803 13.1958L4.65727 13.0008C4.65176 12.5311 4.75369 12.0916 4.9658 11.6741C5.16414 11.2264 5.27158 10.7567 5.29086 10.265C4.67105 11.4297 4.31844 12.6712 4.23304 13.9869C4.09531 15.5361 4.07603 17.1979 4.04297 18.5465C4.14765 19.6342 4.18346 21.0653 4.19999 22.3425C4.20274 22.9221 4.24131 23.4989 4.31569 24.0757C4.36527 24.474 4.50576 24.8393 4.73441 25.1717L4.43414 24.9657L4.51127 28.6244C4.77022 30.1543 4.99059 31.709 5.20822 33.173C5.43686 34.5079 5.7812 35.8126 6.244 37.0844L6.14758 37.7738C6.92441 39.3615 7.55525 41.0068 8.04008 42.7098C8.73702 44.5473 9.45601 46.2668 10.1474 46.8601C10.3954 48.2198 9.66812 46.5964 9.47529 46.5168C9.68741 47.5193 10.9491 48.8405 10.8912 49.8953C10.7507 49.9502 10.2384 48.6263 10.3926 49.2553C10.4147 50.0354 11.0317 50.1288 11.0593 51.0132C11.1199 50.788 11.3843 51.0379 11.6928 51.4829C12.062 51.9938 12.3953 52.5294 12.6956 53.0843C12.6432 52.9854 12.6129 52.8838 12.6019 52.7739C12.7204 52.5239 13.0647 53.3672 13.3071 53.8067C13.2438 53.7792 13.1942 53.7353 13.1584 53.6748C16.3566 59.5749 19.9846 65.203 24.0368 70.5564L23.1112 69.7186C23.8384 70.4932 24.5051 71.3173 25.1111 72.1907L25.0009 72.1028C25.8604 73.7124 26.6565 73.3059 27.1937 74.6601L26.9816 74.4898C27.684 75.2973 28.213 75.9675 28.7639 76.624C29.3341 77.3436 29.9815 77.9891 30.706 78.5605C31.2652 79.2581 31.7858 79.9833 32.2624 80.7414C32.6315 81.1177 33.075 81.3512 33.5902 81.4473L33.2569 81.1287C33.0447 80.604 34.1549 81.6258 34.7444 81.9884C34.6232 81.3484 35.2182 81.0325 34.0667 79.4834C32.9346 78.6676 33.469 78.1292 32.2789 77.1349C31.2735 76.8987 30.9759 75.2863 29.6261 74.6353C30.4222 74.91 28.5793 73.3032 29.7446 73.8992C29.5545 73.2977 27.5022 71.8886 27.0146 70.8366C27.1965 70.919 27.235 70.8283 27.4444 70.9931C26.2488 69.9878 26.932 70.0428 26.2213 69.1528L25.9513 69.4275C25.5822 69.161 25.7089 68.8891 25.4114 68.6199C25.5684 68.8974 25.8384 69.5209 25.5023 69.3478C25.0918 69.021 24.7144 68.6611 24.3701 68.2684C24.4803 68.1722 24.7833 68.4441 24.9844 68.6282C24.9844 68.6282 24.2406 67.6339 24.3288 67.4581C24.6759 67.7959 25.056 68.0926 25.4665 68.348C24.5464 67.0103 25.4803 68.1695 25.2296 67.3674C25.1221 67.5899 24.866 67.3454 24.5574 66.9664L24.0726 66.3401C23.9321 66.1314 23.7778 65.9309 23.6153 65.7386C23.7117 65.5546 24.0092 66.211 24.2517 66.2989C23.9238 64.4833 22.7118 64.3432 21.6126 62.4947C21.6815 62.5002 21.8716 62.6869 21.968 62.7831C21.2848 62.0277 21.3041 61.1845 20.7311 60.7752C20.2931 59.9155 21.0699 60.3632 20.2821 59.1107C20.1994 59.4128 19.9901 59.0337 19.7449 58.6025C19.4915 58.1795 19.2656 57.6714 19.0342 57.7785L18.7505 56.6386C18.037 55.8805 18.1499 57.2731 17.1692 55.5564C16.4751 53.8946 17.9709 55.3339 17.7037 54.3011C17.5494 54.2159 17.4117 54.1225 17.2712 54.0319L17.0728 53.1584L17.15 53.2683C16.8497 52.8343 16.5164 51.9389 16.6458 51.8757C16.7836 51.9059 17.0232 52.4168 17.161 52.4415C16.8084 51.8125 16.5522 51.1478 16.3924 50.4474C16.1032 49.6371 15.8773 48.8048 15.3511 48.5301C15.2823 48.0083 14.8938 47.0387 15.1611 47.0771C14.8498 46.7063 14.6459 46.2833 14.5495 45.8081C14.4421 45.2917 14.2713 44.7973 14.0371 44.3249C14.1721 44.3716 14.1363 43.7013 13.8884 43.2399C13.9903 43.9348 13.7369 43.564 13.4173 43.1712C13.4421 42.5257 12.7093 40.9518 13.0482 40.581C12.5964 39.7268 12.4173 40.136 12.0895 40.0097C12.1584 39.356 11.6075 37.4909 12.1308 37.7162C12.2162 38.2298 12.4311 39.3752 12.668 39.084C12.5716 38.0897 12.4339 38.7022 12.1777 37.9277C12.2741 37.9661 12.3044 37.3289 12.4697 37.447C12.2631 36.8674 12.1391 36.2714 12.0978 35.6561C12.1143 36.7465 11.6515 35.0573 11.6047 35.722L12.1308 36.6587C12.4449 37.8617 11.9518 36.969 11.9573 37.4525C11.3705 35.3375 11.0482 35.8539 10.4009 33.8597C10.4009 33.4614 10.3678 32.761 10.3541 32.544C10.5001 33.2225 10.8967 33.0137 10.8885 32.6182C10.3761 31.5332 10.8113 30.5389 10.7507 29.5995C10.7673 30.4208 10.4394 30.0362 10.2962 29.7506C9.76178 27.8251 10.3348 28.9622 10.4036 28.0888C10.2907 26.7813 10.2466 25.4711 10.2659 24.1609C10.3265 23.0018 10.2934 21.8454 10.1695 20.6945L9.81412 21.8564L10.1833 22.2299C9.92431 23.1391 9.37061 22.0898 9.12269 21.5789C9.24389 21.4416 9.13921 19.9309 9.35684 20.5324C9.29348 20.0435 9.2191 19.5546 9.16952 19.0629C9.00423 19.2799 9.10616 20.233 8.91608 19.5436C8.99872 19.0574 9.17227 17.5522 9.33756 18.5026C9.37888 17.7307 9.29348 16.7337 9.07586 16.8957C9.10065 15.6405 9.53039 17.0468 9.65435 17.6044C9.71495 16.6183 10.0235 16.7584 10.1144 17.0578L10.1227 15.6926C10.2108 15.9948 10.3568 16.003 10.445 16.3024C10.6185 15.4344 10.2191 14.7148 10.5937 14.0803L10.3237 13.7424C10.478 13.0695 10.6681 12.4048 10.8967 11.7538C11.0538 11.3308 11.1557 10.8886 11.4807 10.0618L11.1667 10.2678C11.1639 10.0041 11.219 9.75415 11.332 9.51518C11.4036 9.3696 11.5028 9.25149 11.635 9.1581C11.7562 9.06471 11.8719 8.93836 12.0207 8.80102C12.1005 8.71587 12.1722 8.62523 12.2355 8.52635C12.3264 8.41648 12.4063 8.29562 12.4752 8.16927C12.8223 7.56498 13.084 7.35073 12.8361 7.06782C13.106 6.76842 13.2823 6.91949 13.4752 7.01013C13.6019 6.80962 13.7727 6.6558 13.9875 6.55417C14.2658 6.41958 14.5412 6.42782 14.8112 6.57615C14.5027 6.62009 14.2052 6.697 13.9159 6.80962C13.9793 6.98541 14.1804 6.96344 14.4724 6.98816C14.8057 6.99365 15.1115 7.08704 15.3924 7.26284C15.8167 7.25734 16.2299 7.32052 16.6321 7.45236C17.1885 7.62816 17.7147 7.86163 18.216 8.15553C18.1417 7.67485 18.5466 7.40017 19.4116 8.02644C19.2739 8.03468 19.4391 8.33133 19.6485 8.72961C19.8689 9.13063 20.0507 9.54814 20.1939 9.98487C19.8579 9.77887 20.4198 11.6219 19.6843 10.342C19.5907 9.92445 19.7614 9.59758 19.3648 9.17183C19.4584 9.93818 19.5989 10.6963 19.789 11.4434C19.4832 11.2264 19.2518 10.9462 19.0976 10.6029C19.3042 10.7897 19.2987 10.6249 19.3593 10.5507C18.3373 9.20754 19.0783 11.1001 18.7036 11.0039C18.9708 11.3473 19.3124 12.2867 19.3179 11.7758C19.351 12.4432 19.5521 13.0558 19.9157 13.6161C20.2959 14.2506 20.5135 14.9318 20.5713 15.6679C20.6402 15.6981 20.6071 15.0114 20.979 15.7256C21.2132 16.2392 21.271 16.7721 21.1553 17.3242C21.5024 17.8955 21.7559 18.5053 21.9156 19.1563C22.2682 19.8732 22.1911 18.1977 22.7338 19.1865C23.304 19.7963 23.2792 20.862 23.6181 21.6833C23.6566 22.771 23.1553 20.7137 22.9156 20.3264C23.2434 21.2713 23.5712 22.2162 23.8825 23.1666C23.9293 24.0648 23.4307 22.8782 23.2434 22.0157C23.3343 23.227 23.9321 24.6553 24.3095 24.9218C24.4555 25.5233 24.5657 26.1331 24.6428 26.7456C24.3067 26.1056 23.8164 26.2732 23.4528 25.2376C23.0341 23.4879 24.0092 25.7705 23.7007 24.2653L23.3619 24.2186C23.271 23.5868 23.0809 22.988 22.7944 22.4195C22.7669 22.0184 22.9266 22.4716 23.0396 22.7134C22.6787 21.4938 22.563 20.4693 21.9432 19.648C22.1553 21.3702 23.2131 23.7571 23.0478 24.5757C23.4776 25.6387 23.8935 26.7099 24.304 27.7811C24.45 27.7482 24.3921 26.5368 24.8329 27.4268C24.5602 27.902 24.6373 28.921 24.8577 30.223C25.1497 29.6572 25.6648 32.2034 25.8384 31.4893C25.629 31.1569 25.6125 30.8163 25.786 30.4647C26.0863 31.709 26.1882 30.5526 26.359 31.2365C26.4086 31.5277 26.4417 31.742 26.4609 31.9068C26.5023 32.1567 26.5215 32.327 26.5298 32.4369C26.5463 32.6594 26.5105 32.6511 26.472 32.6429C26.3921 32.6319 26.3149 32.5687 26.6097 34.5079C26.4527 34.1646 26.1827 33.5136 25.8494 32.6401L25.7254 32.3023C25.6896 32.2007 25.6511 32.1018 25.607 32.0056C25.5464 31.8711 25.4803 31.7337 25.4169 31.5936C25.2929 31.3107 25.1662 31.0168 25.056 30.7147C24.9789 30.7778 25.056 31.0855 25.1359 31.448C25.1772 31.6321 25.2186 31.8271 25.2461 32.0139C25.2626 32.1457 25.2792 32.2721 25.2929 32.3902C25.3122 32.5495 25.3232 32.6978 25.326 32.8324C25.2819 32.099 25.4279 32.3325 25.5601 32.5742C25.6951 32.8159 25.8163 33.0824 25.7447 32.5275C26.1497 34.052 26.5904 35.711 27.056 37.447C27.2516 38.2655 27.4554 39.106 27.6593 39.9548C27.8438 40.8172 28.0146 41.7017 28.1716 42.6109C27.9154 42.946 27.5959 41.3996 27.2598 40.1031C26.9237 38.8341 26.5959 37.6695 26.4141 38.7407C26.5271 39.3587 26.6979 39.963 26.9265 40.5481C27.1276 41.0562 27.246 41.5836 27.2846 42.1302C27.3011 43.4184 27.4306 44.6929 27.673 45.9592C27.9099 47.3985 28.1992 48.868 28.4085 50.3238L28.3397 48.5082C28.505 49.1427 28.6151 49.7827 28.6757 50.4336C28.7722 51.3016 28.8713 52.1971 28.9512 52.8893L28.8658 52.8343L29.0917 53.6611C29.111 53.8067 29.111 53.9522 29.0972 54.0978C29.1909 54.3917 29.257 54.6884 29.2983 54.9933C29.3148 55.0922 29.3341 55.2295 29.3534 55.3146L29.4168 55.5618C29.4581 55.7404 29.5022 55.9272 29.5462 56.1222C30.0586 54.6692 30.6619 53.0211 31.1825 51.3428C31.2101 50.8209 30.9925 51.4417 30.706 52.3481C30.4222 53.2546 30.0641 54.4714 29.852 55.0317C29.7639 55.1663 29.6867 55.3064 29.6206 55.4492C29.5407 54.6774 29.4553 53.8671 29.6427 53.7023C29.6895 53.8369 29.7336 53.9522 29.7749 54.0456C30.739 51.1176 31.447 48.1621 32.6095 45.0308L32.2128 45.8575C32.3891 45.1049 32.6123 44.3661 32.8795 43.6437C33.1301 42.9762 33.4029 42.2236 33.6949 41.5094C34.2568 40.3997 34.1053 41.048 33.8684 41.9132C33.7527 42.339 33.6177 42.8114 33.5599 43.0971C33.4993 43.4047 33.513 43.4624 33.6976 43.1135C33.48 43.987 33.2128 44.8467 32.896 45.69C32.6123 46.4096 32.4194 47.1568 32.3202 47.9231C32.5792 47.599 32.8574 47.2172 33.1494 46.7777C33.3147 46.1267 33.4855 45.5774 33.659 45.0775C33.8354 44.5803 34.0034 44.2177 34.1824 43.8332C34.524 43.1437 34.8298 42.4378 35.0998 41.7182L34.5213 42.7372C34.6177 41.9599 34.8794 41.243 35.3119 40.5865C35.1411 40.6442 34.9675 40.6799 34.7885 40.6936C34.4497 41.5122 34.1604 42.3472 33.918 43.1987C33.7417 43.8936 33.4827 44.5556 33.1412 45.1873C33.7472 43.2371 33.94 42.4763 34.1604 41.5863C34.4524 40.4135 34.8326 39.2708 35.2926 38.1556C35.4469 38.238 35.064 38.9055 34.9813 39.4741C35.2788 38.8204 35.524 38.1501 35.7168 37.458C35.9758 36.7575 36.3008 36.0901 36.6892 35.4556C36.3311 36.4005 35.6755 38.1007 36.4275 37.1695L36.6424 35.9775C37.0501 35.3018 36.995 35.7083 37.1576 35.4144C37.7443 34.4091 36.7691 35.3732 37.6617 33.824C37.8407 33.6262 38.1851 33.1208 38.13 33.3983L38.2181 33.2307L38.276 33.1318L38.3696 32.9698C38.4247 32.8736 38.466 32.7967 38.4991 32.7335C38.5432 32.6429 38.579 32.5495 38.601 32.4506C38.6561 32.143 38.7525 31.8463 38.893 31.5634C38.3145 32.522 37.8352 32.2995 38.3917 31.2613C39.2649 29.8577 39.7029 28.7837 40.6864 28.075L40.915 27.3307C40.8985 27.902 41.634 26.5561 41.9921 26.1688C42.1904 26.2072 41.8158 26.7017 41.4549 27.229C41.0913 27.7564 40.7828 28.3497 41.0169 28.509C41.6643 27.6438 41.5486 28.1382 41.4852 28.5145C42.0885 27.5202 41.3861 27.9185 41.4935 27.3636C41.6147 27.446 42.7221 25.7925 42.5623 26.5341C43.1766 25.7568 42.9673 25.3777 43.4879 24.8503C43.5292 25.0261 43.5926 25.2349 43.7827 25.2981C43.7414 25.1552 44.4548 24.529 44.576 24.3971C44.4163 24.485 44.5595 23.9384 44.0912 24.6663C44.0086 24.323 45.3722 23.0952 45.1628 22.9798C45.4438 23.1034 46.4603 21.6476 47.1627 21.0626C46.5429 20.6121 46.2482 22.4991 45.5732 22.3041C46.0939 21.5515 46.6724 20.8428 47.3087 20.1808C48.0993 19.4063 48.8321 18.5822 49.5042 17.706C50.8678 16.6815 49.7053 17.9203 50.1544 17.8928C49.1131 19.0464 48.6971 19.1838 47.8349 20.2138C48.5043 19.648 49.1379 19.0409 49.7356 18.3982C50.3004 17.8543 50.8238 17.2748 51.3113 16.6595C52.4766 15.5443 53.1598 16.0937 54.5234 14.7175C54.1735 14.6873 54.1707 14.6159 53.6418 14.9235C54.0468 14.5308 54.4848 14.1819 54.9586 13.8743C55.1404 13.5447 54.1487 14.2424 54.6886 13.6683C54.9641 13.5254 55.5068 13.1711 55.504 13.3799L55.4131 13.4733C56.7933 12.2098 56.8208 13.1409 57.8731 11.8719C57.6996 11.8444 57.4902 12.1466 57.1321 12.3141C56.7712 12.3279 57.4324 11.545 58.0191 11.0753C57.9998 11.2896 58.5811 10.7485 59.0466 10.5095C59.4901 10.5562 57.9998 11.2896 57.8896 11.589L59.11 10.8446L58.8345 10.971C59.2202 10.6194 59.5921 10.2376 59.9998 9.90522C59.1238 10.5535 59.3662 9.87775 59.7628 9.60308C60.7325 9.10042 61.7049 8.59776 61.7463 8.93836C61.7242 8.76806 62.008 8.51536 62.3964 8.23794C62.7958 7.98249 63.3027 7.70506 63.7131 7.45511C62.7297 7.83691 63.4707 7.27932 63.6966 7.04859L65.2392 6.60911C63.804 7.44412 65.6717 6.697 65.4183 7.07056C65.1428 7.57871 64.1842 7.8836 63.3908 8.24068C65.1456 8.00446 65.3935 6.81237 66.7433 6.56516C66.7957 6.7025 66.7599 6.88928 66.2062 7.09803C66.4568 7.09528 67.2337 6.33718 68.027 6.32344C67.8149 6.27675 67.275 6.1092 68.0381 5.79332C68.3769 5.82628 68.7047 5.90319 69.0242 6.0213C69.5008 6.06525 69.5614 6.00482 69.6468 5.88396C69.7267 5.77959 69.7956 5.59281 70.2253 5.66972C70.0766 5.51315 69.9113 5.38405 69.7239 5.27418C69.8975 4.93633 70.9305 5.645 71.082 5.41427C70.8479 5.27418 70.5917 5.19727 70.3162 5.18903C70.049 5.16157 69.7845 5.11762 69.5201 5.05719C69.4127 4.87865 69.6275 4.84569 69.925 4.87316C70.2143 4.94182 70.5035 4.99401 70.7983 5.03247C71.0214 5.16981 71.2363 5.32362 71.4374 5.49118C71.5586 5.63675 71.6385 5.73564 71.7074 5.82628C71.7845 5.92242 71.8423 6.02954 71.8809 6.14491C71.9608 6.3207 72.0324 6.49649 72.093 6.67778C71.8919 6.82061 71.5173 6.61735 71.1895 6.52121C71.0297 6.48825 70.8727 6.4855 70.7129 6.51022C70.5586 6.56241 70.4539 6.6613 70.3933 6.81237C70.8286 7.05134 71.1509 7.39468 71.3603 7.84515C71.6302 8.36429 71.7514 8.91913 71.7184 9.50419C71.8809 10.0755 72.0104 10.3694 72.1839 10.4683C72.3657 10.5535 72.5283 10.526 72.6715 10.3859C72.7404 10.7869 72.7183 11.1825 72.6026 11.5725L72.4456 10.9407C72.6495 12.446 72.5503 13.932 72.1509 15.396C71.947 16.4288 72.3492 16.1294 72.677 15.9371L72.3657 17.0962L72.4869 16.9424C72.7266 17.2967 72.2914 18.2828 72.0379 19.0409C71.9002 18.997 72.0159 18.5218 71.9167 18.5355C71.7321 18.9036 71.5834 19.2854 71.4732 19.6809C71.3492 20.038 71.2638 20.4061 71.2143 20.7824C71.0738 20.7329 70.9388 20.1754 71.3052 19.409C71.3658 19.3348 71.4043 19.3953 71.4649 19.3239L71.7156 17.912C71.3988 19.5326 70.7129 20.3319 70.3933 20.1754C70.0104 21.7712 71.184 19.0409 70.6523 20.917C69.1758 23.1061 69.0931 25.5398 67.6717 26.4874C67.3824 27.9597 66.9527 29.3907 66.3825 30.7806C66.6469 30.9042 65.9417 31.9452 66.3466 31.937C67.4954 30.5032 67.2089 28.6821 68.2887 27.6026C68.4871 26.8225 68.151 26.9736 68.1427 26.5835C68.3824 25.9216 68.6606 25.3173 68.8617 25.3008C68.4072 26.8829 69.3796 25.9875 68.5614 27.9075C68.9113 27.7701 69.465 26.1605 69.8011 25.4821C69.8452 25.7375 70.0738 25.5865 70.363 25.1717C70.3823 25.7568 70.1206 26.9544 70.0738 27.6191C70.0325 27.3609 69.8066 27.707 69.8011 27.5065L69.2942 29.6874C68.859 30.234 68.589 30.3136 68.5918 29.9181C68.0463 31.0003 67.4761 33.011 67.0849 32.8297C66.4651 34.269 67.5339 32.4946 67.7047 32.4259L67.6662 32.555C67.8948 32.0523 68.1345 31.5524 68.3576 31.0415C68.9085 31.0965 67.4265 32.6951 67.7488 33.1401C68.4623 33.78 66.4761 35.1369 66.0436 36.2164L66.0822 34.7249L65.6662 35.8236C65.7434 35.1095 65.3715 34.92 65.5808 33.8844C64.8343 35.299 63.6057 37.2135 63.209 38.1611C62.8151 38.3974 62.5396 38.444 62.4322 38.1831C61.9942 39.7652 61.0438 40.2404 60.3055 41.3886C59.7546 42.7537 61.3606 40.3228 61.0851 41.3886C60.7022 41.8006 60.424 42.2703 60.2504 42.8004C60.3689 42.3554 61.4074 41.1716 62.019 40.2899C61.6085 40.9766 61.9336 41.0645 61.9391 41.3281L62.6636 40.1965C62.9694 40.4766 61.8785 41.6523 61.7104 42.2758C61.6113 41.7539 61.4873 41.9324 61.3854 41.4133C60.8482 42.5999 60.1458 43.6794 59.278 44.6545C58.8373 45.0555 59.3992 44.1546 59.4681 43.8304C59.1293 43.9266 58.9722 44.877 58.5893 44.8962C58.4957 44.6215 58.9722 44.3029 59.121 43.9211C58.4847 44.844 57.818 45.7477 57.1707 46.6596C57.0494 46.5772 57.4764 45.8575 57.818 45.4483C57.1018 46.2036 56.6583 47.0963 56.4875 48.1209C55.6969 48.9724 54.752 49.9228 54.8071 49.4778C54.5729 49.9612 54.887 49.7525 55.0082 49.8349C54.0495 51.0517 54.3195 51.4719 53.7713 52.2245L54.4187 51.8263C53.2727 52.8508 54.5592 52.3784 53.573 53.3068C53.4848 52.9607 53.1763 52.8316 52.7989 52.8233C52.8815 53.1667 52.1873 53.694 51.8127 54.128C52.2617 54.0292 51.2232 55.2432 52.0358 54.7021C51.3582 55.8722 50.6695 56.1085 50.3196 57.0918C50.7935 56.6798 49.7852 58.1575 50.2866 57.8829C49.4381 58.8689 48.5952 59.3112 48.6034 58.8442C48.9175 58.5256 49.485 58.0724 49.2756 57.957L47.7522 59.7507C47.2702 60.094 46.6834 60.5774 46.3859 60.4291C46.138 61.2257 44.6725 61.8492 44.5926 62.5688C44.8928 62.0387 45.3253 61.6569 45.89 61.4207L45.6807 61.7283C45.7275 61.6816 45.7743 61.6404 45.8239 61.602L45.5264 62.7281C46.3639 62.1733 45.3804 62.3436 46.3446 61.352C47.5594 60.8384 45.0388 63.8708 46.1352 63.1923C46.9699 62.5633 46.4823 62.3436 46.9258 61.5992L46.766 61.7503C47.1489 61.2339 47.5456 60.7285 47.9203 60.2039C48.1159 60.2588 47.8266 60.7862 47.8266 60.7862C48.3941 60.1544 48.9946 59.5584 49.6282 58.9953C50.3059 58.413 50.9395 57.7867 51.5262 57.111C51.3582 57.2072 50.6254 57.2291 51.2673 56.3145C51.675 55.6113 51.9835 55.7486 52.4408 55.2542C52.2369 55.6031 52.2424 56.0727 51.7438 56.3557L52.0661 56.5672C51.2067 58.3059 52.1543 57.8114 50.54 59.8248C50.6612 60.0858 49.5621 61.6212 48.507 62.5688L49.1654 62.2447C48.5125 63.6263 48.6888 62.176 47.6944 63.7994C46.7936 64.0164 45.4025 64.6097 45.8212 63.5714C45.1187 64.2526 44.4603 64.9695 43.8405 65.7249C43.0361 65.9336 43.7827 65.1535 43.397 64.9503C42.8213 65.5765 42.1767 66.4582 42.791 66.1863C42.3695 66.5269 41.9205 66.8373 41.488 67.1614C41.3943 67.1257 41.8241 66.7357 41.9976 66.5901C41.4109 67.057 40.9315 67.6146 40.5569 68.2656C40.6974 68.0651 40.8682 67.9003 41.072 67.7657C40.6285 68.2793 40.2373 68.8259 39.8985 69.411C40.488 68.587 40.8709 68.8781 41.4549 67.9827C41.4687 68.1365 41.4384 68.2821 41.364 68.4194C41.2896 68.554 41.185 68.6584 41.0472 68.7326C41.8461 68.337 42.4521 67.7272 42.9094 67.6888C42.4769 67.9058 42.1767 68.2409 42.0059 68.6941C42.6505 68.2107 43.2097 67.6421 43.6863 66.9911C44.0609 67.2521 45.3226 65.3485 45.1931 66.005C45.4741 65.5738 45.8294 65.2222 46.2619 64.9448C46.3749 65.1178 45.5429 66.0874 45.3143 66.6368C43.6422 68.587 45.1077 66.3566 44.576 66.6697C44.1188 67.1284 43.6725 67.5981 43.1932 68.0349C43.3832 67.9525 42.8406 68.8012 43.7634 67.925C43.3392 68.8177 42.7028 69.5181 41.8544 70.0263C41.7745 70.2845 42.3034 69.7736 42.4742 69.628C42.3998 69.878 41.8103 71.081 43.0554 70.0537C42.7001 70.3476 43.4824 69.3671 42.7634 69.8038C43.2014 69.3314 44.6256 68.3041 44.2951 68.9578C44.8267 68.3755 45.7303 67.1916 46.1545 66.7109C46.4382 66.7329 45.8239 67.1587 45.6642 67.4553L47.1903 65.7908L46.5622 66.0764C47.8679 65.0437 48.1599 63.8598 48.9561 62.7996C49.1021 63.1841 48.3693 64.0026 47.9037 64.7635C48.8018 64.4723 48.1131 64.2031 49.1131 63.2555C49.2894 63.1676 49.3885 63.1951 49.4078 63.3379L49.923 62.3216C50.1681 62.1156 50.1075 62.3024 50.0304 62.4205C50.978 60.7477 49.6117 62.0991 51.1516 60.1132C50.0084 61.113 50.4959 61.2421 49.6199 62.1678C48.9313 62.5304 50.2342 60.7642 50.3555 60.3852C51.2259 59.5254 51.7686 59.8056 52.5344 58.424C51.9725 59.3743 52.7851 58.6932 51.7659 59.8633C51.3334 60.6379 52.1956 59.6298 52.4793 59.6325C52.6942 59.2755 52.0138 59.5941 52.7879 58.7536L52.8017 58.8223L53.6804 57.1275C54.9751 55.9382 55.752 53.7902 56.8346 53.1227Z" fill="#FFF5E0"/>
</g>
<mask id="mask1_597_1475" style="mask-type:luminance" maskUnits="userSpaceOnUse" x="55" y="50" width="126" height="133">
<path d="M55.5195 50.3701H180.342V183H55.5195V50.3701Z" fill="white"/>
</mask>
<g mask="url(#mask1_597_1475)">
<path d="M179.225 110.381C179.33 109.769 179.398 109.153 179.431 108.535C179.492 107.879 179.448 107.335 179.566 107.371L179.679 108.129C179.685 106.745 179.597 105.368 179.415 103.998C179.082 103.44 178.993 104.058 178.622 102.567C178.332 100.721 178.542 101.053 178.798 101.55C179.051 102.045 179.341 102.699 179.189 101.399C178.856 100.257 178.459 99.1387 177.994 98.0428C177.991 97.7681 177.969 97.4989 177.941 97.227C177.142 94.8153 175.914 92.6454 174.258 90.7172C173.859 90.2338 173.434 89.7723 172.988 89.3356C172.564 88.8714 172.054 88.4539 171.567 88.0144C171.079 87.5721 170.509 87.1821 169.963 86.7454C169.377 86.3581 168.787 85.9351 168.129 85.5588C168.192 85.3528 169.184 85.8032 170.269 86.5009C170.806 86.8662 171.322 87.2618 171.812 87.6875C172.266 88.0995 172.68 88.4758 172.928 88.745C172.277 87.8358 171.487 87.0612 170.564 86.4295C170.079 86.0449 169.498 85.7263 168.964 85.3555C168.41 85.0039 167.818 84.6963 167.272 84.3255C166.76 84.0783 166.234 83.864 165.696 83.68C165.275 83.5481 164.845 83.452 164.404 83.3943C163.688 83.2845 163.314 83.3476 163.473 83.4932C162.743 83.419 162.03 83.279 161.327 83.073C161.135 82.9713 161.256 82.8779 161.077 82.8257C160.688 82.9109 160.297 82.9603 159.903 82.9796C159.388 82.996 158.782 83.0482 158.132 83.0949C156.856 83.1938 155.6 83.4108 154.363 83.7514L154.209 83.5454C153.138 83.9107 152.091 84.342 151.072 84.8364C151.884 84.5672 151.234 85.0232 151.289 85.1605L150.504 85.4489C152.096 85.1468 153.763 84.4683 155.6 84.0096C157.443 83.4575 159.3 83.4163 161.165 83.8915C160.091 83.875 161.506 84.1277 160.435 84.1305C159.559 84.081 159.383 84.0453 159.289 83.9519C158.76 84.1579 157.402 84.3969 159.212 84.2953C159.192 84.4216 158.953 84.5177 158.57 84.5947L157.077 84.8501C155.812 85.0506 154.578 85.3747 153.375 85.8225C152.432 85.9488 152.854 85.6879 153.644 85.339C154.438 84.9902 155.625 84.6249 156.113 84.4299C155.666 84.5315 155.228 84.6633 154.799 84.8254C154.273 85.0012 153.738 85.1468 153.195 85.2649L153.402 84.8171C151.821 85.4077 151.667 85.6 151.782 85.6494C151.906 85.7126 152.333 85.6906 152.044 85.9818C151.377 86.7097 149.336 87.0365 148.565 87.4815L149.394 86.9871C147.072 87.9182 146.78 88.5527 144.865 89.6212L143.829 89.9014C146.383 88.8027 146.512 87.7479 148.044 87.1711C144.234 88.7752 148.43 86.0504 149.601 85.2621C148.27 85.9461 146.906 86.5558 145.51 87.0915C143.455 88.7752 140.832 89.7201 139.097 91.5247C137.954 92.2224 139.923 90.6458 138.747 91.4341C137.667 92.1565 136.549 92.8954 135.469 93.7221C134.4 94.5599 133.317 95.4114 132.29 96.3316C131.163 97.1968 131.251 96.9139 130.841 97.0347C130.152 97.5429 129.513 98.0153 128.937 98.4878C128.362 98.9602 127.841 99.4217 127.345 99.8666C126.849 100.312 126.381 100.743 125.932 101.174L124.629 102.493L121.91 105.267C121.414 105.767 120.888 106.289 120.31 106.841L118.453 108.648L119.084 107.728C117.954 108.816 116.938 109.7 116.615 110.466C115.417 111.348 114.395 112.395 113.544 113.611C112.605 114.924 111.519 116.103 110.293 117.152C108.084 119.621 108.453 120.11 106.952 122.217C106.836 122.132 107.101 121.344 106.227 122.368C105.974 122.728 105.726 123.085 105.478 123.442C105.866 120.448 106.214 117.58 106.72 115.01C106.778 114.078 107.068 111.321 106.685 112.123C106.484 113.257 106.134 113.361 105.944 113.26C106.313 108.884 106.734 111.197 107.062 108.288C107.685 107.439 107.128 110.161 107.555 110.225L107.85 105.989C108.326 103.643 108.359 101.24 108.844 99.2047C108.674 100.117 109.175 99.548 108.795 101.059C108.8 100.823 108.748 100.974 108.753 100.74C108.26 104.256 108.742 102.685 108.439 105.833C108.69 103.061 109.048 99.3036 109.431 96.8644C109.034 97.3616 109.519 94.8566 109.384 94.1451L109.434 93.9941C109.291 93.9803 109.357 92.4449 109.362 91.9752L109.853 91.4066C109.913 90.3244 109.607 91.6895 109.668 90.6101C109.734 89.0774 110.211 83.6251 110.687 83.279C110.811 81.4249 110.613 80.8783 110.83 78.9611C110.897 79.1918 110.949 79.4253 110.985 79.6642C111.53 75.1046 111.483 70.5505 110.853 65.9991C110.01 62.5409 108.395 59.6816 106.679 58.0582C107.101 58.6048 107.486 59.1789 107.839 59.7749C108.101 60.3298 108.153 60.5935 107.61 59.9013C107.203 59.4701 106.822 59.0141 106.473 58.5334C106.01 57.9841 105.519 57.4594 104.999 56.965C105.445 57.0199 102.28 54.3419 104.654 56.1684C104.429 55.7647 104.131 55.4268 103.759 55.1521C103.17 54.7127 102.561 54.3089 101.927 53.9408C101.252 53.6002 100.619 53.2294 100.128 53.0124C99.6408 52.7954 99.346 52.6032 99.4011 52.496C99.2221 52.4741 98.8557 52.3065 98.3543 52.1747C97.8557 52.0456 97.2442 51.8478 96.5968 51.6912C95.9467 51.5676 95.269 51.4275 94.6547 51.3506C94.1368 51.3012 93.6189 51.282 93.0983 51.293C92.7788 51.0375 95.3351 51.4138 95.3517 51.3314C94.7263 51.227 94.0983 51.1529 93.4674 51.1117L93.484 50.9661C92.2223 50.7518 90.9634 50.7766 89.7127 51.0375C88.8312 51.1886 88.1618 51.466 87.1233 51.6281L87.1977 51.5594C86.7266 51.6281 86.2666 51.7791 85.8038 51.8863C86.3244 51.6363 86.8588 51.4138 87.4043 51.2188C86.8864 51.2902 86.3823 51.4056 85.8864 51.5621C85.4429 51.6802 85.0104 51.8258 84.5834 51.9961L83.2694 52.5208C82.8011 52.7075 82.3025 52.9547 81.7213 53.1882L81.4375 53.1635C80.9775 53.386 80.5395 53.6716 80.1015 53.9189C80.3246 53.7898 80.377 53.6991 80.2117 53.7403C79.6194 54.199 78.6553 54.8225 77.7104 55.4625C77.2504 55.7976 76.7903 56.13 76.3936 56.4431C76.0686 56.7205 75.7656 57.0199 75.4846 57.3441C75.0741 57.6105 74.6582 57.8083 74.2312 58.0665C73.7298 58.3439 73.3249 58.7284 73.0219 59.2146L72.8841 58.7119C73.4075 58.1461 74.0025 57.6737 74.6719 57.2919C75.3744 56.8854 76.0273 56.4129 76.6333 55.8745C74.6582 56.8249 72.9199 58.0994 71.4241 59.698C69.5481 61.629 67.9063 63.7413 66.4987 66.0348C65.5951 67.7131 64.3362 69.8638 63.3996 71.8634C62.4602 73.8658 61.7771 75.6704 61.8156 76.5302L61.6999 76.0632C61.2674 77.0164 60.8928 77.9832 60.5099 78.9473L59.9341 80.4004L59.4162 81.8699C57.9315 86.9459 56.634 92.2636 56.4714 96.2959L56.0803 97.3561C56.1409 98.6993 56.1326 100.04 56.0555 101.383C56.0224 102.943 55.9315 104.66 55.9425 106.333C55.904 108.003 55.9976 109.631 56.0803 111.005C56.1436 112.084 56.3337 113.139 56.6505 114.172C56.5816 115.336 56.5073 115.169 56.386 114.677C56.3227 114.196 56.2263 113.724 56.0968 113.257C56.0968 113.749 56.1271 114.238 56.185 114.727C56.2648 115.259 56.3502 115.828 56.4329 116.391C56.6174 117.413 56.6698 118.44 56.5899 119.473C56.4356 119.487 56.2456 117.078 56.2456 118.174C56.094 119.44 56.6808 119.929 56.5128 121.36C56.7139 120.715 57.3667 123.535 57.7193 125.587C57.6835 125.406 57.6698 125.222 57.678 125.038C57.8433 124.708 58.0389 126.244 58.2014 127.082C58.1381 126.994 58.0967 126.895 58.0775 126.788C60.3088 138.025 63.6558 148.918 68.1157 159.474C67.7713 158.87 67.427 158.265 67.1019 157.65C67.8788 159.079 68.9366 161.737 69.2947 162.589L69.1735 162.386C70.0605 165.308 71.0302 165.261 71.6142 167.561L71.369 167.17C73.0411 170.39 73.6637 172.521 75.6802 175.471C76.9501 177.965 76.6223 177.803 77.4735 179.564C77.8784 180.314 78.4184 180.951 79.0905 181.473L78.6856 180.808C78.4349 179.954 79.7957 182.118 80.523 183.028C80.3963 182.094 81.1621 182.127 79.7544 179.196C78.3991 177.243 79.0657 176.913 77.6608 174.647C76.4074 173.606 76.0906 171.145 74.5177 169.233C75.4515 170.203 73.3359 166.58 74.6912 168.269C74.4708 167.272 72.0301 163.822 71.5563 161.93C71.7629 162.174 71.807 162.072 72.0439 162.46C70.7106 160.147 71.4902 160.705 70.6913 158.908L70.3718 159.131C69.9476 158.485 70.1018 158.167 69.7658 157.571C69.9421 158.081 70.2368 159.191 69.8512 158.705C69.3773 157.947 68.9586 157.159 68.6005 156.34C68.7327 156.271 69.0578 156.884 69.2782 157.293C69.2782 157.293 68.4876 155.304 68.5978 155.101C68.9669 155.829 69.3801 156.53 69.8374 157.205C68.8677 154.577 69.8649 156.95 69.6198 155.574C69.3443 156.101 68.5069 153.412 67.8898 152.033C68 151.824 68.325 152.997 68.5867 153.302C68.4435 152.055 68.0826 150.874 67.5069 149.759C66.8347 148.479 66.2976 147.147 65.8926 145.759C66.0386 145.974 66.1571 146.199 66.248 146.438C65.9725 145.732 65.7549 145.007 65.5979 144.263C65.5042 143.661 65.3169 143.087 65.0414 142.543C64.653 140.925 65.4078 142.117 64.7219 139.653C64.4739 140.499 64.0084 136.731 63.5428 136.78L63.3583 134.808C62.7081 133.179 62.642 135.451 61.8735 132.136C61.4355 129.065 62.7054 132.262 62.6172 130.444L62.2151 129.754L62.1297 128.241L62.193 128.46C61.9258 127.592 61.7798 125.95 61.912 125.925C62.047 126.054 62.1958 127.018 62.3252 127.136C61.8294 125.7 62.1269 121.231 61.2922 119.756C61.3335 118.869 61.1738 117.064 61.441 117.278C61.2371 116.487 61.1545 115.682 61.193 114.864C61.2234 113.96 61.1903 113.057 61.0911 112.156C61.2123 112.307 61.339 111.189 61.2674 110.299C61.1407 111.488 61.0195 110.747 60.8432 109.936C60.9506 109.12 61.0085 108.302 61.0223 107.481C60.9975 106.791 61.1132 106.129 61.3666 105.489C61.2123 103.849 60.9313 104.429 60.6641 104.053C60.8212 103.534 60.9479 102.44 61.0856 101.556C61.2426 100.671 61.4327 100.001 61.6173 100.317C61.441 101.196 61.2289 103.187 61.5539 102.833C61.8514 101.155 61.4575 102.086 61.5649 100.688C61.6338 100.801 61.9451 99.7705 62.0443 100.053C62.0966 98.9987 62.2371 97.9576 62.4657 96.9304C61.9974 98.7185 62.3225 95.7218 61.9837 96.7903C62.0112 97.3918 62.0112 97.9851 62.0635 98.5867C61.8542 100.718 61.7688 99.0042 61.5704 99.8007C61.6889 98.6691 61.7192 97.5374 61.6641 96.403C61.5704 95.3153 61.6063 94.233 61.7715 93.1536L62.4106 91.0001C62.1737 92.1702 62.642 92.0246 62.8541 91.3846C62.912 90.4672 63.1076 89.5828 63.4409 88.7285C63.7494 87.9347 64.1241 87.2123 64.3665 86.4377C63.9065 87.7672 63.8376 86.9871 63.8706 86.4625C64.1764 84.7787 64.3582 84.482 64.4629 84.4189C64.5814 84.3557 64.6805 84.537 64.9918 83.8585C66.5372 78.8429 68.2644 75.9918 69.9173 72.2782C69.493 72.7808 69.0881 73.3027 68.6914 73.8356L68.7272 74.5717C67.843 75.8407 68.1019 73.9729 68.2975 73.083C68.4848 72.9237 69.6473 70.6494 69.3388 71.6409C69.6776 70.8856 70.0578 70.1549 70.4352 69.4216C70.0991 69.6468 69.3636 71.0806 69.7961 69.9874C70.2947 69.3282 71.7381 67.2571 71.0605 68.7074C71.7602 67.6197 72.6417 66.2298 72.3084 66.3315C73.559 64.6669 72.5205 66.7682 72.1348 67.6114C73.0935 66.2875 73.245 66.6748 73.0246 67.1143C73.4626 66.51 73.8979 65.903 74.3689 65.3371C74.1375 65.7711 74.2477 65.8618 74.0246 66.293C75.0383 65.2602 75.424 64.2137 76.5066 63.571L76.6856 62.9722C77.6278 62.1839 78.6222 61.4642 79.6607 60.8132C80.0216 60.6045 80.3687 60.393 80.8122 60.11C81.0354 59.9727 81.2943 59.8436 81.5891 59.6761C81.9141 59.481 82.2529 59.3052 82.6 59.1487C82.3907 59.1569 82.1841 59.1762 81.9775 59.2036C82.3714 58.9152 82.7929 58.668 83.2364 58.4647C83.5311 58.3549 83.8314 58.2835 84.1427 58.2477C84.4457 58.2093 84.7542 58.1214 85.2253 58.0527C85.6936 57.9841 86.2721 57.7835 87.1343 57.6023L87.823 57.4155L88.4511 57.2946C88.8423 57.226 89.1783 57.1216 89.4455 57.0776C89.9827 56.9733 90.2417 56.8469 90.1039 56.6739C90.3463 56.6327 90.5915 56.6079 90.8394 56.6052C91.0075 56.6134 91.1755 56.6354 91.3408 56.6739C91.619 56.7425 91.8118 56.8359 92.0708 56.9128C92.3573 56.8634 92.6438 56.8359 92.933 56.8304C93.3049 56.8057 93.6796 56.803 94.0514 56.8249C94.4426 56.8661 94.8503 56.9211 95.2442 56.998C95.6161 57.0941 95.977 57.226 96.3213 57.3935C95.371 57.1875 94.5859 57.1243 93.6906 57.009C94.2277 57.3193 94.8062 57.5116 95.4233 57.5885C95.8503 57.7314 96.3351 57.8385 96.7621 58.0143C97.1478 58.1736 97.5252 58.3521 97.8915 58.5526L98.9328 58.918C99.3818 59.0745 99.8446 59.3519 100.382 59.5909C101.351 60.1458 102.238 60.8105 103.046 61.5823C102.803 60.7418 103.294 60.6676 104.555 61.9833C104.379 61.9311 104.671 62.4558 104.963 63.1864C105.285 63.9171 105.528 64.6697 105.685 65.4525C105.34 64.9416 105.897 68.2047 105.142 65.7684C105.026 65.0487 105.211 64.612 104.698 63.7413C104.751 64.3785 105.092 65.9277 105.2 67.606C105.062 67.4247 104.963 67.2242 104.902 67.0044C104.754 66.6418 104.621 66.2738 104.511 65.9002C104.74 66.3012 104.729 66.0321 104.798 65.9442C104.506 65.2547 104.34 64.9718 104.241 64.9224C104.139 64.8702 104.148 65.0295 104.164 65.2657C104.189 65.7464 104.285 66.51 104.087 66.3452C104.387 67.0456 104.63 68.7321 104.69 67.9054C104.652 69.0013 104.737 70.0835 104.949 71.1575C105.153 72.3359 105.147 73.5142 104.935 74.6926C104.985 74.7777 105.211 73.69 105.293 75.0002C105.318 75.9067 105.164 76.7829 104.825 77.6234C104.897 78.7633 104.867 79.8977 104.734 81.0321C104.754 82.4027 105.395 79.6285 105.47 81.5485C105.734 82.8697 105.247 84.5892 105.211 86.1164C104.778 87.9155 105.203 84.2788 105.147 83.5124L104.814 88.6846C104.47 90.1816 104.525 87.9677 104.723 86.4542C104.285 88.4841 104.225 91.1484 104.453 91.7884C104.247 93.0684 104.244 93.7606 103.974 94.9554C103.949 93.7304 103.418 93.7469 103.53 91.8489C103.902 88.7478 103.811 93.019 104.178 90.3848L103.889 90.1266C104.073 89.0472 104.159 87.9594 104.139 86.8635C104.288 86.1933 104.238 87.0255 104.238 87.4842C104.437 85.2813 104.762 83.5481 104.552 81.8561C104.004 84.7897 103.949 89.2889 103.448 90.5469C103.384 92.5246 103.307 94.505 103.219 96.4826C103.365 96.5019 103.842 94.4802 103.856 96.1695C103.415 96.8122 103.029 98.529 102.679 100.79C103.194 100.004 102.561 104.459 103.032 103.363C102.977 102.748 103.109 102.177 103.429 101.647C103.161 103.847 103.759 101.993 103.621 103.204C102.996 107.203 103.393 103.023 102.704 106.934C102.588 105.193 102.572 103.448 102.652 101.704C102.453 101.831 102.387 103.888 102.062 104.778C102.448 103.517 102.318 105.728 102.553 104.682C102.28 107.876 102.164 111.634 101.641 115.487C101.156 114.798 102.192 108.942 101.299 110.049C101.112 111.944 101.401 111.98 101.12 113.482C100.569 114.707 100.379 117.91 99.9521 120.473L100.324 119.371C100.189 120.687 99.9658 121.989 99.6518 123.275L99.627 122.967L99.5389 124.099C99.492 124.269 99.47 124.305 99.4452 124.299C99.4121 125.557 98.6656 128.65 98.3185 131.007C98.6105 131.059 98.7703 128.688 99.0127 127.573C99.1394 127.282 99.6518 125.134 99.6601 126.219C99.1256 129.133 99.0843 131.226 98.4177 134.517L98.7124 133.484C98.7069 133.701 98.6904 133.918 98.6601 134.132C98.3185 134.729 97.9742 135.333 97.6326 135.943C97.8061 134.943 98.0926 133.902 97.8722 133.635L97.1119 135.347C97.0596 136.118 96.9191 136.874 96.6905 137.613L91.63 155.629L95.8916 149.435L96.2111 146.523L97.1836 145.158L97.1092 147.668L97.1395 147.622L97.2772 145.026L101.44 139.181C101.999 138.398 101.875 138.78 101.666 139.305L100.01 143.449L100.845 142.238L101.891 139.434C101.993 139.165 102.076 138.926 102.181 138.656L102.475 138.766C102.335 139.038 102.211 139.299 102.095 139.546L100.856 142.222L102.53 139.791C102.916 139.272 103.272 138.731 103.597 138.173L102.872 139.057C102.71 138.711 103.445 137.92 103.748 137.489L102.968 137.912C102.933 137.967 102.902 138.019 102.869 138.071C102.955 137.624 103.043 137.179 103.131 136.714C103.233 136.528 103.343 136.333 103.47 136.113C103.704 136.069 103.183 136.734 103.114 137.121C103.814 136.135 104.183 134.871 105.349 133.286C104.847 134.3 104.037 135.926 105.01 134.841L105.274 133.77C105.798 133.034 105.715 133.421 105.922 133.113C106.665 132.067 105.445 133.16 106.649 131.52C106.875 131.309 107.315 130.792 107.216 131.081C108.536 129.164 107.72 130.073 108.858 128.205C108.282 128.996 107.886 129.337 107.77 129.271C107.654 129.202 107.803 128.708 108.382 127.87C110.081 125.552 111.076 123.838 112.621 122.538L113.26 121.404C112.99 122.247 114.5 120.069 115.122 119.402C115.593 119.402 112.368 122.72 112.844 123.093C114.065 121.662 113.695 122.42 113.434 122.981C114.679 121.377 113.585 122.14 113.974 121.294C114.084 121.382 116.219 118.646 115.687 119.772C116.844 118.487 116.761 118.017 117.654 117.1C117.635 117.339 117.626 117.627 117.844 117.66C118.012 117.372 118.221 117.116 118.472 116.897L119.279 116.13C119.026 116.3 119.464 115.487 118.516 116.652C118.563 116.191 120.918 114.059 120.69 113.958C121.023 114.059 123.009 111.689 124.232 110.681C123.566 110.227 122.37 112.96 121.541 112.892C122.819 111.186 126.565 107.89 128.926 105.423C131.26 103.624 129.111 105.638 129.755 105.459C127.824 107.36 127.127 107.602 125.535 109.324C127.466 107.634 130.607 104.838 131.918 103.468C132.695 102.803 133.554 102.265 134.491 101.853C135.532 101.331 136.496 100.691 137.381 99.9381C136.854 99.9545 136.392 100.13 135.989 100.468C136.664 99.8639 137.571 99.3118 138.358 98.7377C138.752 98.2543 137.028 99.4739 138.044 98.5647C138.496 98.29 139.43 97.65 139.35 97.9219L139.177 98.0675C141.73 96.0679 141.424 97.2133 143.493 95.3098C143.24 95.3345 142.802 95.7712 142.204 96.0953C141.934 96.164 142.116 95.8948 142.499 95.5213C142.975 95.0845 143.477 94.6753 144.003 94.2935C143.898 94.5599 144.973 93.7139 145.766 93.2772C146.424 93.1893 143.898 94.5599 143.62 94.9637L145.744 93.6617L145.278 93.9062C145.992 93.3376 146.708 92.8102 147.433 92.2883C145.873 93.3046 146.482 92.4394 147.176 91.9944C148.818 91.1017 150.504 90.3629 150.441 90.7447C150.493 90.3491 152.562 89.4042 154.047 88.8824C152.375 89.3493 153.744 88.6818 154.206 88.4484C154.639 88.3687 155.069 88.2973 155.498 88.2533C155.928 88.1929 156.358 88.1654 156.782 88.1462C156.429 88.1929 156.093 88.2891 155.771 88.4374C155.697 88.4896 155.84 88.4951 156.038 88.4896C156.443 88.4951 157.088 88.4896 156.804 88.6461C156.129 89.0664 154.57 89.2889 153.217 89.7503C154.286 89.5993 155.325 89.3273 156.336 88.9428C157.239 88.572 158.179 88.4181 159.151 88.4813C159.151 88.6379 158.964 88.7862 157.986 88.8411C158.438 88.8109 158.884 88.756 159.327 88.6763C159.647 88.6599 160.005 88.6269 160.372 88.6434C160.743 88.6626 161.11 88.7203 161.471 88.8192C161.294 88.7203 160.997 88.6022 160.933 88.4923C160.865 88.4017 161.052 88.2616 161.809 88.3605C162.129 88.4703 162.438 88.6049 162.732 88.7642C163.027 88.9263 163.33 89.0417 163.606 89.2284C163.936 89.3905 164.278 89.5251 164.633 89.6295C164.757 89.6871 164.889 89.7009 165.024 89.6707C165.14 89.635 165.258 89.624 165.38 89.6377C165.696 89.6871 165.988 89.797 166.258 89.9701C165.944 89.6597 165.614 89.3685 165.261 89.1021C165.765 89.1625 166.206 89.3603 166.583 89.6981L167.352 90.2008C167.559 90.3409 167.721 90.4178 167.79 90.3601C166.793 89.5361 166.038 89.396 164.917 88.7093C164.617 88.1572 166.515 89.3136 167.228 89.6679C167.784 90.1047 168.123 90.4755 168.399 90.7227C168.66 90.9974 168.82 91.2034 168.969 91.3846C169.357 91.8873 169.716 92.4119 170.041 92.9585C169.851 93.1591 169.198 92.5905 168.523 92.1647C168.231 91.9697 167.922 91.8076 167.594 91.6758C167.327 91.6071 167.145 91.6319 167.11 91.8241C168.206 92.7196 169.162 93.7469 169.98 94.9005C170.699 95.9141 171.261 97.0073 171.666 98.1829C172.696 100.287 172.947 100.018 173.145 99.559C173.327 100.029 173.445 100.389 173.534 100.707C173.602 101.031 173.647 101.317 173.691 101.641C173.534 101.287 173.401 100.93 173.228 100.586C173.677 101.803 174.027 103.047 174.277 104.319C174.399 104.937 174.478 105.558 174.517 106.187C174.569 106.849 174.644 107.563 174.663 108.365C174.685 110.186 175.027 109.469 175.291 109.024L175.275 111.04L175.352 110.738C175.732 111.214 175.357 113.01 175.167 114.345C175.021 114.326 175.098 113.502 174.999 113.565C174.781 114.743 174.36 116.482 174.294 117.468C174.153 117.432 174.018 116.564 174.432 115.21C174.501 115.073 174.536 115.152 174.602 115.015C174.674 114.221 174.693 113.425 174.743 112.634C174.721 113.716 174.528 114.762 174.159 115.781C173.883 116.479 173.622 116.814 173.459 116.743C173.032 119.44 174.302 114.663 173.713 117.863C173.264 118.808 172.864 119.772 172.514 120.758C172.17 121.698 171.771 122.569 171.451 123.406C171.151 124.189 170.779 124.934 170.333 125.639C169.986 126.252 169.548 126.788 169.016 127.246C168.592 128.145 168.165 129.155 167.614 130.265C167.311 130.806 166.983 131.372 166.619 131.965C166.247 132.605 165.834 133.218 165.38 133.803C165.611 133.979 164.173 135.522 164.644 135.511C165.162 134.989 165.633 134.429 166.06 133.83C166.451 133.259 166.809 132.668 167.129 132.059C167.457 131.474 167.779 130.911 168.126 130.386C168.432 129.845 168.795 129.342 169.217 128.886C169.79 127.661 169.341 127.93 169.512 127.34C170.03 126.279 170.553 125.299 170.787 125.238C170.25 126.507 170.322 126.757 170.333 127.082C170.341 127.315 170.302 127.54 170.211 127.757C169.972 128.301 169.696 128.826 169.385 129.331C169.853 128.842 170.244 128.298 170.558 127.7C170.994 126.867 171.459 125.933 171.776 125.373C171.727 125.766 172.054 125.497 172.517 124.785C172.322 125.703 171.597 127.664 171.236 128.708C171.311 128.315 170.886 128.875 170.977 128.57L170.189 130.301C169.925 130.878 169.671 131.471 169.357 132.02C168.545 132.885 168.195 133.017 168.415 132.418C168.101 132.833 167.765 133.344 167.424 133.866C167.085 134.388 166.691 134.891 166.36 135.355C165.68 136.278 165.123 136.97 164.953 136.833C163.239 138.898 165.718 136.363 165.92 136.22L165.793 136.415L167.517 134.141C168.129 134.204 165.426 136.627 165.523 137.291C165.92 138.222 162.663 140.181 161.33 141.648L162.468 139.541L161.173 141.068C161.402 140.692 161.573 140.291 161.686 139.865C161.878 139.316 162.137 138.799 162.46 138.313C162.019 138.832 161.476 139.354 160.92 139.89L159.242 141.502C158.091 142.499 157.063 143.449 156.438 144.062C155.768 144.326 155.405 144.353 155.485 143.993C153.689 146.064 152.072 146.46 150.196 147.811C149.245 148.602 149.804 148.325 150.441 148.006C151.08 147.688 151.76 147.276 151.138 147.96C150.377 148.361 149.672 148.844 149.028 149.413C149.562 149.025 150.118 148.666 150.691 148.336C151.529 147.822 152.457 147.196 153.226 146.702C152.127 147.509 152.443 147.679 152.218 148.017L154.093 146.696C154.215 147.094 151.87 148.438 151.105 149.198C151.457 148.523 151.151 148.734 151.482 148.037C150.598 148.759 149.678 149.429 148.722 150.05C147.826 150.635 146.893 151.151 145.92 151.602C145.006 151.997 146.535 151.011 146.934 150.646C146.416 150.671 145.339 151.808 144.854 151.742C145 151.396 145.871 151.088 146.419 150.673C144.783 151.668 143.086 152.571 141.394 153.478C141.334 153.36 142.554 152.613 143.367 152.209C141.791 152.904 140.375 153.838 139.116 155.008C137.29 155.782 135.16 156.609 135.667 156.118C134.89 156.598 135.494 156.45 135.568 156.579C133.125 157.658 133.089 158.268 131.637 158.944L132.855 158.677C130.378 159.513 132.496 159.337 130.317 160.103C130.543 159.691 130.271 159.46 129.794 159.348C129.571 159.765 128.133 160.128 127.229 160.532C127.907 160.537 125.384 161.633 126.965 161.24C124.948 162.375 123.814 162.446 122.406 163.446C123.425 163.103 120.692 164.501 121.624 164.319C119.582 165.223 118.037 165.52 118.475 165.001C119.194 164.718 120.376 164.344 120.202 164.16L116.489 165.819C115.508 166.086 114.288 166.544 114.007 166.311C112.96 167.162 110.376 167.632 109.643 168.439C110.505 167.893 111.439 167.53 112.445 167.352L111.891 167.665C111.976 167.626 112.073 167.591 112.2 167.547L110.819 168.772C112.456 168.291 110.943 168.313 113.136 167.352C115.238 166.995 109.175 169.98 111.277 169.404C112.957 168.843 112.467 168.505 113.723 167.742L113.37 167.885L116.31 166.363C116.522 166.465 115.662 166.997 115.662 166.997C119.332 165.407 120.012 165.432 123.987 163.789C123.673 163.85 122.684 163.682 124.403 162.836C125.61 162.163 125.891 162.402 126.951 161.971C126.364 162.446 125.709 162.795 124.984 163.012L125.207 163.331C122.436 165.039 124.133 164.701 120.166 166.558C120.095 166.893 117.238 168.277 115.031 169.148L116.188 168.92C114.144 170.34 115.599 168.736 112.902 170.376C111.505 170.434 109.09 170.887 110.519 169.777C108.45 170.601 107.858 171.137 106.059 172.008C104.773 172.161 106.417 171.337 106.032 171.063C104.729 171.736 103.148 172.691 104.23 172.436L101.677 173.526C101.569 173.48 102.459 173.035 102.811 172.867C101.652 173.381 100.58 174.035 99.5912 174.826C99.9245 174.587 100.283 174.389 100.66 174.23C99.7014 174.828 98.7786 175.482 97.8943 176.191C99.2744 175.213 99.6325 175.554 101.059 174.491C100.974 174.658 100.814 175.001 99.9796 175.383C101.368 174.903 102.654 174.238 103.321 174.208C102.58 174.436 101.927 174.815 101.365 175.348C102.588 174.801 103.767 174.166 104.9 173.447C105.236 173.785 108.404 171.741 107.734 172.477C108.45 172.024 109.213 171.67 110.023 171.414C110.04 171.634 108.139 172.609 107.423 173.222C103.685 175.26 107.34 172.878 106.384 173.172C105.409 173.65 104.434 174.125 103.478 174.631C103.8 174.546 102.464 175.507 104.343 174.532C103.126 175.548 101.778 176.342 100.299 176.916C100.024 177.215 101.084 176.625 101.42 176.457C101.15 176.757 99.5967 178.144 101.952 176.974C101.277 177.309 102.98 176.18 101.707 176.674C102.616 176.133 105.277 175.037 104.376 175.773C105.478 175.114 107.591 173.922 108.522 173.411C108.888 173.472 107.74 173.878 107.304 174.199C108.398 173.623 109.511 173.076 110.624 172.518L109.558 172.752C112.106 171.758 113.483 170.549 115.445 169.502C115.312 169.961 113.646 170.733 112.406 171.494C113.855 171.346 113.139 170.906 115.268 170.049C115.577 169.986 115.687 170.038 115.593 170.2L117.139 169.173C117.566 169.03 117.461 169.143 117.296 169.25C119.838 167.723 116.963 168.832 120.72 167.033C118.315 167.863 118.838 168.118 116.869 168.937C115.626 169.178 118.916 167.525 119.425 167.138C121.356 166.404 121.803 166.822 124.081 165.514C122.461 166.41 124.15 165.863 121.756 166.907C120.489 167.657 122.53 166.753 122.896 166.83C123.502 166.495 122.318 166.651 124.103 165.945L124.056 166.025L126.786 164.399C129.563 163.407 132.656 161.292 134.664 160.814L134.072 160.663L136.849 159.282C137.785 158.796 138.656 158.326 139.226 157.996C139.055 158.331 137.959 158.919 136.81 159.57C139.411 158.37 141.849 156.906 144.13 155.178C142.581 155.755 142.369 155.851 140.923 156.425C141.529 155.851 142.232 155.447 143.031 155.211C143.962 154.901 144.824 154.458 145.617 153.884C145.879 154.176 145.041 154.59 145.835 154.563C146.716 153.766 148.386 152.766 149.388 151.885C150.179 151.811 149.314 152.758 146.865 154.294C144.821 155.123 143.003 156.807 141.259 157.362L142.334 157.054C140.469 158.2 139.257 158.716 137.673 159.719L137.714 159.633C137.496 159.892 137.273 160.142 137.047 160.391C137.35 160.249 137.653 160.098 137.954 159.944C137.072 160.696 136.127 161.367 135.127 161.949C137.923 160.554 137.852 159.9 139.014 158.933C139.998 158.466 141.003 158.059 142.036 157.716C142.862 157.469 143.617 157.079 144.295 156.546C144.515 156.628 145.981 156.005 144.967 156.779C143.661 157.664 142.559 157.939 142.554 158.252C144.003 157.452 143.535 157.922 145.7 156.62C146.011 156.159 146.386 155.755 146.824 155.409C147.397 154.895 148.094 154.272 148.788 153.689C149.165 153.401 149.578 153.113 150.003 152.813C150.421 152.503 150.854 152.195 151.281 151.901C152.135 151.311 152.981 150.794 153.603 150.369C152.096 151.522 150.672 152.813 151.218 152.764C151.752 152.239 152.353 151.811 153.025 151.478C153.653 151.11 154.074 150.811 153.713 150.789C154.603 150.121 155.829 149.275 156.812 148.509C157.796 147.745 158.636 147.196 158.865 147.276C158.11 147.984 157.319 148.649 156.493 149.27C155.675 149.849 154.881 150.391 154.19 150.965C154.592 150.676 155.041 150.47 154.868 150.723C154.154 151.242 153.443 151.767 152.697 152.236C153.587 151.767 153.956 151.588 154.363 151.346C155.016 150.943 155.642 150.495 156.237 150.006C156.085 150.075 155.788 150.217 155.967 150.055C156.479 149.674 157.113 149.176 157.6 148.753L157.903 148.995C158.584 148.303 159.749 147.495 160.964 146.424C161.575 145.897 162.239 145.347 162.873 144.735C163.493 144.109 164.11 143.449 164.68 142.766L164.512 143.048C165.261 142.359 165.856 141.554 166.297 140.64C166.49 140.277 166.683 139.909 166.947 139.48C167.212 139.055 167.542 138.566 167.991 137.942C167.583 138.753 167.955 138.533 168.198 138.519C168.534 137.959 168.936 137.448 169.399 136.986C169.884 136.539 170.33 136.058 170.743 135.542C169.536 136.896 171.101 134.308 170.258 135.314C169.884 135.146 171.738 132.605 172.545 131.191C173.002 130.897 172.423 132.02 171.919 132.979C171.366 133.902 170.919 134.682 171.823 133.806C172.156 133.418 172.393 132.982 172.539 132.493C172.558 132.314 172.385 132.424 172.052 132.894C172.603 132.031 173.283 130.941 173.955 129.919C174.467 129.004 175.029 128.12 175.644 127.268C175.743 126.974 175.837 126.702 175.919 126.45C176.002 126.194 176.068 125.95 176.137 125.727C176.283 125.282 176.412 124.895 176.528 124.535C176.792 123.84 176.941 123.123 176.977 122.382C176.564 123.629 176.812 123.813 176.018 125.277L176.374 123.472L176.702 122.67C176.798 122.404 176.892 122.146 176.985 121.893C177.175 121.387 177.368 120.912 177.558 120.456C177.746 120.003 177.941 119.572 178.084 119.146C178.23 118.72 178.346 118.303 178.448 117.899C178.36 118.476 178.31 119.069 178.186 119.638L178.159 119.542C178.109 120.22 177.335 122.332 177.666 122.179C177.825 120.566 178.578 119.481 178.768 117.372L178.803 117.465C179.134 115.658 179.401 114.087 179.69 112.675C179.828 112.005 179.889 111.329 179.88 110.648C179.889 110.021 179.82 109.406 179.668 108.799C179.663 109.472 179.343 110.804 179.225 110.381ZM97.6326 135.624C97.605 135.797 97.583 135.954 97.5637 136.105C97.5031 136.215 97.4425 136.322 97.3792 136.431C97.437 136.154 97.5196 135.885 97.6326 135.624ZM97.4177 137.78L97.3571 139.84L96.718 142.027L97.1891 137.731C97.2221 137.423 97.2579 137.135 97.2993 136.852L97.4701 136.915C97.4398 137.258 97.426 137.533 97.4177 137.78ZM97.5307 137.08C97.5307 137.036 97.5362 136.986 97.5362 136.942L97.572 136.953C97.561 136.989 97.5472 137.03 97.5307 137.08ZM98.0182 137.56C97.9824 137.69 97.9494 137.802 97.9246 137.885L97.6133 138.956L97.6739 137.832C97.6877 137.552 97.7125 137.231 97.7152 137.006L98.1036 137.151C98.0761 137.288 98.0485 137.42 98.021 137.56H98.0182Z" fill="#FFF5E0"/>
</g>
<mask id="mask2_597_1475" style="mask-type:luminance" maskUnits="userSpaceOnUse" x="0" y="92" width="21" height="16">
<path d="M0 92.5603H20.9635V107.327H0V92.5603Z" fill="white"/>
</mask>
<g mask="url(#mask2_597_1475)">
<path d="M6.82651 102.608C6.90089 102.482 6.93394 102.229 7.113 102.086C6.95323 102.421 6.93945 102.608 7.00281 102.721C7.17085 102.353 7.33613 102.501 7.45459 102.193C7.30583 102.342 7.45459 102.037 7.46561 102.006C7.57029 102.039 7.6667 101.693 7.72731 101.704C7.85127 101.877 7.58957 101.921 7.68323 102.144C7.50693 102.342 7.30583 102.517 7.08545 102.666C7.00006 102.825 7.19013 102.699 7.12678 102.896C7.17911 102.682 7.35542 102.589 7.35817 102.484C7.5758 102.416 7.94217 102.149 8.15153 102.166C7.82372 102.666 7.65017 102.394 7.34164 103.034C7.46561 103.001 7.61712 102.751 7.65568 102.828C7.52621 103.166 7.82097 102.973 7.93116 103.028L7.97523 102.844C8.09093 102.743 8.10746 102.883 8.14052 102.94L8.08817 103.001L8.1901 102.932C8.1901 102.951 8.18184 102.971 8.17082 102.987C8.31682 102.858 8.35814 103.089 8.5124 103.056C8.6584 102.803 8.41874 102.987 8.38844 102.932C8.38844 102.789 8.43527 102.666 8.52618 102.559C8.65014 102.627 8.91184 102.38 9.04682 102.471V102.369C9.19558 102.221 9.20384 102.342 9.27546 102.369C9.29475 102.613 8.98346 102.666 8.96969 102.852C8.79063 103.047 8.85674 102.748 8.65565 103.061L8.52893 103.451C8.71625 103.278 8.5978 103.635 8.67218 103.613L8.71625 103.432C8.88429 103.166 8.80716 103.396 8.80716 103.446L9.00825 103.034C8.98071 102.927 8.72727 103.245 8.81267 102.984C9.01101 102.932 9.17078 102.594 9.32505 102.671C9.23965 102.83 9.26169 102.712 9.17905 102.82C9.16527 102.957 9.40769 102.668 9.41595 102.841C9.24516 102.938 9.13222 103.08 9.07988 103.27L9.30026 102.993C9.31127 103.061 9.22588 103.171 9.2369 103.19C9.25618 103.278 9.40493 102.872 9.4435 102.998C9.42973 103.075 9.39942 103.144 9.3581 103.21C9.44901 103.278 9.46278 103.141 9.63909 103.047C9.55645 103.001 9.8209 102.545 9.93384 102.545C10.0275 102.666 10.2561 102.462 10.1184 102.885L10.2864 102.723C10.0854 102.984 10.3057 102.866 10.314 102.935C10.146 103.253 10.1404 102.82 9.84294 103.322C9.89528 103.418 9.76856 103.553 9.66388 103.671C9.77682 103.671 9.90629 103.333 10.0633 103.152C9.98894 103.278 10.1873 103.275 9.97792 103.517C10.0385 103.58 10.2396 103.267 10.2589 103.358C10.179 103.476 10.0743 103.633 9.98618 103.789C10.0551 103.69 10.0495 103.861 10.0551 103.877C10.0771 103.806 10.2341 103.627 10.1212 103.679C10.2782 103.446 10.2754 103.756 10.3911 103.55C10.2341 103.836 10.4931 103.687 10.4931 103.844C10.8732 103.182 10.2203 104.023 10.5178 103.468C10.7382 103.297 10.8291 103.622 11.1377 103.416C11.1872 103.613 10.9917 103.666 10.8732 103.924C10.6969 103.962 10.7823 103.753 10.6143 103.811C10.6556 103.99 10.8732 104.025 11.0715 103.869C11.2093 103.91 10.8154 104.602 11.055 104.52C11.1597 104.297 11.1928 104.251 11.1928 104.146C11.2754 104.091 11.2754 104.196 11.3167 104.218C11.4214 104.099 11.3498 104.017 11.4737 103.935C11.4903 104.028 11.4682 104.11 11.4104 104.182L11.3883 104.196C11.639 104.083 11.1845 104.767 11.5426 104.429C11.5949 104.316 11.4903 104.437 11.5013 104.352C11.5867 104.179 11.7106 104.045 11.8787 103.951C11.785 104.089 11.909 104.006 11.92 104.075C11.8015 104.333 11.7823 104.089 11.6666 104.242L11.752 104.341V104.292L12.0026 104.124C11.8759 104.157 12.1404 103.803 12.1927 103.795C12.2423 103.888 12.2946 103.981 12.1239 104.248C12.2919 103.981 12.3856 104.05 12.4902 104.031C12.4709 103.893 12.6142 103.795 12.6886 103.72L12.6445 104.058C12.4792 104.064 12.5288 104.314 12.3911 104.481C12.19 104.742 12.2037 104.555 12.1624 104.481C11.9916 105.055 12.4957 104.311 12.4627 104.616C12.3883 104.739 12.2946 104.88 12.2616 104.825C12.2313 104.921 12.504 104.641 12.4902 104.825C12.5233 104.726 12.628 104.451 12.7685 104.388L12.6803 104.753C12.7492 104.885 12.9117 104.446 13.088 104.355L13.1541 104.105C13.3222 103.841 13.2781 104.176 13.4571 103.88C13.4048 103.839 13.2368 104.05 13.2285 103.929C13.3773 103.627 13.3965 103.819 13.5205 103.682C13.5728 103.883 13.5398 103.877 13.4957 104.165C13.2313 104.621 13.0136 104.638 12.6858 105.239C12.8511 105.231 13.1128 105.187 13.0908 105.407C13.2753 105.338 13.4764 104.97 13.6142 104.701C13.6885 104.679 13.683 104.731 13.6775 104.814L13.537 104.929C13.7574 104.86 13.9254 104.75 14.0577 104.844C14.1844 104.811 14.3111 104.522 14.4158 104.297H14.5315L14.5535 104.231C14.7436 103.954 14.7601 104.094 14.8125 104.138C14.7381 104.264 14.6885 104.275 14.6444 104.352C14.6334 104.49 14.7271 104.503 14.8428 104.399C14.7684 104.525 14.5673 104.786 14.559 104.665C14.57 104.632 14.6004 104.586 14.6114 104.553L14.413 104.657C14.6196 104.572 14.5039 104.932 14.3249 105.228C14.5315 105.143 14.4103 104.863 14.6196 104.83C14.4571 105.525 15.0659 104.869 14.672 105.77C14.8593 105.643 15.132 105.412 15.278 105.47C15.4268 105.22 15.424 105.426 15.5921 105.108C15.6582 104.707 15.0714 105.454 15.2422 104.932C15.1155 105.014 15.0108 105.237 14.9061 105.358C14.8428 105.347 14.8125 105.292 14.8951 105.132C15.1045 105.044 15.2863 104.542 15.4405 104.619C15.548 104.393 15.3799 104.402 15.3607 104.314C15.4461 104.204 15.5011 104.08 15.5314 103.946C15.6885 103.764 15.8758 103.641 16.0245 103.49C15.9391 103.597 15.9281 103.682 15.8758 103.742L16.2422 103.476C16.1981 103.66 16.1182 103.825 15.997 103.97C16.0383 104.097 16.3827 103.844 16.1623 104.22C16.3055 104.226 16.2587 103.976 16.311 103.866L16.3331 103.852L16.1926 103.814C16.4378 103.369 16.2615 103.995 16.5287 103.591C17.0107 102.811 16.5452 103.935 16.7022 103.863L16.2697 104.377L16.4267 104.3C16.2477 104.495 16.0273 104.871 15.8179 105.061C15.9226 105.146 15.9805 105.412 16.1155 105.349C16.0356 105.555 15.9336 105.753 15.8097 105.937C16.1347 105.643 15.8785 106.223 15.9722 106.291C16.2008 106.14 16.0411 105.94 16.278 105.704C16.2256 105.866 16.3468 105.783 16.413 105.745C16.3193 105.83 16.3221 105.572 16.3028 105.432C16.3524 105.476 16.5094 105.19 16.5948 105.086L16.5342 104.97C16.7463 104.627 16.6692 105.011 16.8179 104.86C16.6058 105.154 16.6168 105.173 16.4019 105.467C16.559 105.388 16.6829 105.462 16.6389 105.695C16.6058 105.844 16.5149 105.833 16.4405 105.901C16.3331 106.124 16.5975 105.822 16.457 106.094C16.3331 106.278 16.3964 106.083 16.3331 106.124L16.5176 106.363C16.4433 106.486 16.3606 106.489 16.3524 106.421C16.3386 106.607 16.4322 106.569 16.7683 106.195C16.7931 106.404 16.749 106.599 16.6306 106.775C16.7132 106.72 16.7573 106.588 16.8317 106.462C16.9005 106.596 17.176 106.157 17.2504 106.187L17.3358 105.926C17.3 106.231 17.5865 105.555 17.5755 105.794C17.4074 106.047 17.2559 106.308 17.1209 106.58C17.2779 106.349 17.2146 106.596 17.2559 106.621C17.3716 106.363 17.4735 106.448 17.5507 106.168C17.7573 106.03 17.6113 106.385 17.8619 106.116C17.8619 106.014 18.0933 105.912 18.1567 105.715C18.2614 105.75 18.1539 106.077 17.9749 106.324C17.9529 106.286 17.9666 106.151 17.8509 106.355L18.0465 106.404C18.03 106.591 17.9721 106.767 17.8757 106.926C18.1154 106.64 17.9033 107.242 18.1677 106.887C17.9666 107.093 18.1154 106.745 18.1154 106.692L18.1732 106.654C18.1705 106.654 18.1705 106.643 18.1705 106.632L18.5258 106.19C18.5699 105.956 18.3275 106.5 18.2338 106.434C18.4156 105.932 18.8289 105.863 18.906 105.528C18.9198 105.341 18.6746 105.783 18.5176 105.912L18.5286 105.932L18.2779 106.047C18.3303 105.948 18.3991 105.863 18.479 105.786C18.3137 105.69 18.4294 105.434 18.2862 105.272C18.2641 105.341 18.0217 105.833 17.895 105.863C17.771 105.945 17.9281 105.662 17.895 105.605C17.9584 105.564 18.1374 105.316 18.0713 105.514L18.2641 105.182C18.6305 104.863 18.7462 104.506 18.9969 104.495C19.1457 104.259 19.3523 104.209 19.4101 104.338L19.49 104.094C19.8343 103.737 19.3109 104.443 19.647 104.171C19.479 104.652 19.2503 105.102 18.9556 105.522C18.9859 105.682 19.1539 105.467 19.2366 105.517C19.1071 105.772 18.9556 106.019 18.782 106.25C18.9583 106.201 19.0685 106.085 19.1071 105.907L19.1374 106.118C19.0961 106.195 19.0547 106.173 19.0437 106.154C19.0437 106.258 19.2311 106.132 19.3357 106.014C19.3137 106.028 19.2503 106.069 19.2724 106.003C19.4074 105.923 19.5258 105.83 19.6305 105.717C19.4514 105.857 19.6856 105.448 19.4735 105.638C19.5368 105.547 19.6635 105.36 19.6746 105.432C19.7379 105.184 19.6553 105.187 19.771 104.932C19.7159 105.143 19.9032 104.899 19.9363 104.869C19.9307 104.772 19.8013 104.786 19.7104 104.869C19.9418 104.459 19.4927 104.833 19.7985 104.451C19.7021 104.588 19.6305 104.561 19.6525 104.446C19.7572 104.273 19.9032 104.229 20.0602 104.047C20.3522 103.957 19.8812 104.344 19.8481 104.495L20.0024 104.544C20.0217 104.476 20.2228 104.295 20.1208 104.264C20.3109 104.036 20.4982 103.913 20.4541 104.146C20.5395 104.039 20.4762 104.028 20.4652 104.009C20.5506 103.902 20.8866 103.528 20.815 103.394C20.8343 103.432 20.647 103.556 20.6249 103.723C20.5533 103.745 20.534 103.503 20.7131 103.308C20.6194 103.344 20.4211 103.449 20.3467 103.473C20.4431 103.281 20.4294 103.418 20.5037 103.344L20.2861 103.361L20.2117 103.589C20.1814 103.377 19.8233 103.817 19.647 103.91C19.8481 103.597 19.9418 103.613 20.0988 103.484C20.2668 103.064 19.9418 103.663 19.8784 103.553C19.9115 103.468 19.9528 103.388 20.0079 103.314L19.7655 103.55C19.7737 103.498 19.7985 103.457 19.8398 103.424C19.5038 103.701 19.5754 103.883 19.3137 103.926C19.3247 104.149 19.5341 103.753 19.6057 103.836C19.5203 104.097 19.2614 104.193 19.1567 104.311C19.1154 104.185 19.3881 103.696 19.1291 103.893C19.2944 103.784 19.3082 103.597 19.4211 103.649C19.5781 103.52 19.4735 103.487 19.5699 103.295C19.5065 103.336 19.3908 103.644 19.3385 103.55L19.3715 103.503L19.0355 103.775C19.0162 103.534 18.5369 104.003 18.6746 103.58L18.4955 103.929C18.4019 103.913 18.2889 103.861 18.1953 103.896C18.2559 103.781 18.3495 103.712 18.4763 103.685C18.3743 103.547 18.1319 103.679 17.8812 103.899C17.8399 104.05 17.8096 104.207 17.7958 104.366C17.4267 104.786 17.8619 104.014 17.6085 104.179C17.7435 103.99 17.8619 103.789 17.9694 103.583C17.7903 103.778 17.7407 103.685 17.5699 103.847C17.7325 103.512 17.9418 103.27 18.0741 103.308C17.9997 103.641 18.3881 103.207 18.3027 103.52L18.3771 103.289C18.5231 103.245 18.5424 103.333 18.7104 103.223L18.6773 103.27L18.9087 102.962L18.8674 102.94C18.9914 102.781 19.1346 102.644 19.2972 102.526C19.1429 102.501 18.8261 103.017 18.5947 103.273C18.4928 103.185 18.7875 102.581 18.5479 102.817C18.6333 102.657 18.6663 102.457 18.8013 102.342C18.917 102.289 18.8399 102.52 18.9776 102.3C18.906 102.273 19.0107 102.152 18.8867 102.133C18.7021 102.391 18.4873 102.627 18.2476 102.836C18.0796 102.949 17.9859 102.88 17.9776 102.756C18.0713 102.773 18.311 102.537 18.4184 102.314C18.198 102.589 18.4101 101.984 18.1898 102.413C18.1181 102.333 17.9611 102.256 18.1622 101.891C18.3247 101.809 18.2779 102.075 18.3936 102.039C18.3798 102.02 18.4129 101.919 18.4735 101.839L18.5561 101.941C18.5782 101.721 18.6636 101.614 18.5396 101.594C18.5286 101.636 18.5121 101.674 18.4873 101.707C18.4542 101.702 18.4349 101.663 18.4019 101.66L18.592 101.328C18.4267 101.441 18.5231 100.938 18.2421 101.1L18.2944 101.04C18.2256 100.905 17.8344 101.548 17.6664 101.556C17.7793 101.424 17.8702 101.279 17.9418 101.119C17.7848 101.248 17.9115 100.96 17.9033 100.836C17.8592 101.07 17.6526 101.158 17.6388 101.292C17.4487 101.625 17.3248 101.553 17.2862 101.476C17.4956 101.029 17.6168 101.358 17.7793 100.869C17.738 100.792 17.581 101.026 17.5782 101.128C17.468 100.968 17.4543 100.798 17.5314 100.622C17.2504 100.886 17.3138 100.691 17.008 101.07C17.0713 101.081 17.2504 100.781 17.2146 100.982L16.9639 101.251C16.862 101.218 16.9474 100.908 16.9061 100.831L17.0521 100.732L17.019 100.779C17.1264 100.658 17.165 100.787 17.2972 100.548C17.0658 100.803 17.1815 100.496 16.9832 100.652L17.0162 100.606C16.7325 100.765 17.0521 99.9903 16.6113 100.537C16.6416 100.542 16.5562 100.803 16.4736 100.911C16.5259 100.746 16.413 100.746 16.5176 100.573L16.581 100.531C16.5287 100.438 16.4984 100.38 16.435 100.422C16.3413 100.592 16.2284 100.746 16.0907 100.883C16.0301 100.666 16.435 100.422 16.4515 100.183L16.1898 100.328L16.2752 100.122C16.1953 99.8173 15.6692 100.369 15.4653 100.249C15.6554 99.9189 15.8841 99.8695 15.9474 99.8805C16.0548 99.5536 15.727 99.897 15.7628 99.6415C15.7105 99.5481 15.4819 99.8036 15.3854 99.9958C15.2174 100.054 15.4295 99.7596 15.4543 99.6964C15.2119 100.034 15.1623 99.8338 15.0411 99.8667L15.1541 99.6607L14.8841 99.8393C14.9034 99.8777 14.7684 100.045 14.694 100.169L14.6747 100.133C14.4654 100.751 15.1733 99.9052 14.9282 100.606C14.8455 100.661 14.8317 100.798 14.7491 100.853C14.7298 100.814 14.7408 100.784 14.7822 100.702C14.6665 100.856 14.5315 100.971 14.6031 100.998C14.3497 101.424 14.278 101.24 14.1017 101.331C14.1871 101.018 14.4158 100.968 14.5728 100.787C14.5205 100.798 14.3827 100.965 14.3965 100.828L14.5976 100.518C14.3662 100.617 14.3965 100.776 14.1871 101.067C13.9117 101.454 14.0825 100.982 14.0329 100.99L14.1155 100.935C14.0962 100.743 13.8759 101.07 13.8042 100.99L13.9089 100.713C13.8345 101.097 14.3084 100.35 14.2753 100.551C14.2891 100.155 14.6968 99.9134 14.9061 99.6717C14.8014 99.6882 14.7601 99.614 14.8262 99.419C14.4819 99.7734 14.705 99.1389 14.3166 99.5756C14.2946 99.4877 14.4957 99.3806 14.4433 99.3394C14.3607 99.2405 14.2147 99.2322 13.9971 99.3504C13.9447 99.3091 14.0411 99.1691 14.1017 99.0235C13.9392 98.6719 13.3828 99.3696 13.1899 99.0125L13.3359 98.8642C13.2946 98.79 13.2753 98.6994 13.1073 98.9136C13.3525 98.3148 12.639 99.0949 12.8842 98.4467C12.8153 98.2626 12.5288 98.7323 12.3718 98.7598C12.4462 98.6334 12.6142 98.4137 12.5949 98.3286C12.1734 98.2983 11.7657 98.2104 11.3718 98.0621C11.3966 98.0264 11.4297 97.9962 11.4655 97.9715C11.2506 97.782 10.6969 98.1747 10.595 97.8808C10.4297 97.944 10.3112 98.0566 10.2396 98.2214C10.2699 98.2764 10.1101 98.5593 10.0055 98.7323C9.68316 98.8697 10.1542 98.2764 9.98894 98.2846C10.2011 97.8341 10.2314 98.0456 10.4517 97.6693L10.1184 97.8396C10.0991 97.6474 9.85946 97.8314 9.89252 97.5787C9.90354 97.6474 10.0936 97.2656 10.0606 97.4688C10.0385 97.4798 10.0275 97.5128 10.0082 97.5292C10.1322 97.6501 10.2066 97.3699 10.3939 97.3507C10.2148 97.3892 9.9972 97.4056 9.94762 97.2601C9.79886 97.5622 9.7906 97.337 9.65561 97.5045L9.66663 97.4716C9.60878 97.5622 9.53165 97.6309 9.43524 97.6776L9.62531 97.2958C9.55369 97.3177 9.53165 97.488 9.45727 97.51C9.34433 97.5595 9.09365 97.4688 9.30577 97.0705C9.2121 97.0568 9.0661 97.2573 9.01652 97.1612C9.07712 97.0678 9.11844 97.0403 9.15425 96.9936C9.03029 96.8206 8.75206 96.8233 8.72176 96.5129C8.50414 96.5102 8.31682 96.5816 8.1598 96.7299C8.21214 96.7217 8.26172 96.8673 8.0744 97.0431C7.94768 97.1804 7.9284 97.0898 7.83474 97.1255C7.9587 96.9387 7.80444 96.8618 7.99176 96.7904C8.21214 96.3536 7.71078 96.7354 7.9587 96.3179C7.85953 96.4333 7.7521 96.2685 7.55927 96.4608C7.65568 96.2685 7.71629 96.3839 7.79066 96.2548L7.68598 96.2712L7.76036 96.1476C7.69149 95.9636 7.36368 96.4608 7.23696 96.491L7.27002 96.4443L7.17636 96.48L7.43806 96.1778C7.32512 96.1778 7.10198 96.4525 6.967 96.4635L7.0221 96.3509L6.89538 96.4333C6.92568 96.4086 6.94496 96.3784 6.95874 96.3426C6.71908 96.6283 6.66673 96.4305 6.45738 96.6723C6.44636 96.6036 6.65021 96.1861 6.43809 96.4278L6.68326 96.0378C6.83753 96.0625 6.56481 96.3454 6.78243 96.2767C6.98628 95.7081 6.675 95.6065 6.4684 95.5378C6.16538 95.7109 6.17089 95.1451 5.76318 95.6972L5.9202 95.4664L5.78798 95.1176C5.51801 95.0901 5.40782 94.7797 5.05246 95.0132L5.12684 94.7852C4.56212 95.3621 4.39133 94.733 3.80182 95.4802C3.81284 95.2412 4.01393 95.1863 4.10759 95.0489C4.07729 94.9418 3.64755 95.4033 3.79631 94.9967C3.87069 94.8731 3.96435 94.9391 3.96435 94.8347C4.04974 94.5737 3.75774 95.0242 3.8514 94.7303C3.74948 94.961 3.57869 95.1176 3.33902 95.1973C3.34729 95.2165 3.34729 95.2165 3.33902 95.2494C3.24261 95.4417 3.20129 95.3648 3.14895 95.373C3.16548 95.3511 3.182 95.3318 3.20129 95.3126C2.90929 95.3676 2.62555 95.3401 2.34732 95.233C2.06909 95.1258 1.84045 94.9555 1.66139 94.7193L1.84872 94.593C1.70272 94.6891 1.64211 94.5243 1.63385 94.4556L1.65313 94.4419C1.7523 93.9942 1.29777 94.7276 1.45754 94.2359L1.50162 94.2084C1.3446 94.1315 1.49611 93.6728 1.22615 93.8019C1.19585 93.5904 1.32256 93.4036 1.3446 93.1811C1.27573 93.1509 1.10494 93.3652 1.07188 93.4119L1.09392 93.4503C0.997505 93.692 0.914863 93.5931 0.810184 93.6618C0.565013 94.0848 0.369427 94.5298 0.226182 94.9967C0.39422 94.9391 -0.00797017 95.6148 0.13803 95.6203C0.474107 95.1918 0.0912002 96.0597 0.438296 95.7027C0.19588 95.9911 0.454824 95.9471 0.162823 96.2438C0.0553882 96.5184 0.537466 96.0982 0.438296 96.4443C0.396975 96.5047 0.350144 96.5596 0.300559 96.6118C0.518182 96.4937 0.245465 96.8783 0.328106 96.925L0.518183 96.5954C0.611844 96.5075 0.485126 96.7437 0.548485 96.7025C0.565013 96.5706 0.614598 96.4525 0.69724 96.3481C0.779881 96.2932 0.876297 96.2053 0.917618 96.23C0.873543 96.3097 0.815694 96.3756 0.738561 96.4251C0.738561 96.4251 0.807429 96.5047 0.724787 96.664C0.631127 96.7519 0.587051 96.7272 0.449314 96.8947C0.509919 97.0596 0.396975 97.0046 0.300559 97.2985C0.512673 96.9057 0.4989 97.1941 0.614598 97.1447C0.529202 97.304 0.54022 97.1667 0.457579 97.2738C0.179351 98.0209 0.705505 97.2628 0.777127 97.499C0.74958 97.5347 0.719278 97.565 0.680712 97.5869C0.818448 97.5238 0.655919 97.911 0.834976 97.716C0.865279 97.8232 0.59256 98.1583 0.705504 98.2104C0.906599 97.7984 0.788146 98.3615 1.04158 97.9358L0.975468 98.2352C1.18483 98.0456 1.37766 97.5073 1.54294 97.5512C1.58151 97.782 1.12147 98.2407 1.06637 98.5071L1.23441 98.2956L1.20136 98.4961L1.18207 98.5098C1.26471 98.4549 1.29502 98.562 1.22064 98.6884C1.15728 98.7818 1.11596 98.7571 1.0526 98.8504C1.24268 98.6746 0.961694 99.5756 1.40521 98.9768C1.3749 99.1114 1.45479 99.1526 1.32532 99.3504C1.52366 99.0894 1.44102 99.5371 1.59804 99.3861C1.53468 99.4794 1.4906 99.6607 1.57324 99.6085C1.58702 99.4712 1.68068 99.3833 1.8074 99.2487C1.73302 99.4794 1.96166 99.3778 1.7826 99.7267C1.96166 99.5371 2.11042 99.3256 2.23438 99.0949C2.16 99.3229 2.32528 99.3696 2.07185 99.7404C2.06083 99.6717 2.02226 99.5426 1.88453 99.8146C1.87351 99.9986 1.97819 99.7239 2.06083 99.7212C2.014 99.7898 1.96166 99.9821 1.88453 100.089C1.94513 100.067 1.99196 100.1 2.00298 100.196C2.02777 99.9739 2.21234 99.9546 2.25917 99.7706L2.01675 100.007C1.91483 99.9739 2.12419 99.7843 2.14623 99.6635C2.35283 99.68 2.55393 99.2652 2.81563 99.1691C2.80185 99.2487 2.79634 99.3284 2.80185 99.408C2.73849 99.3998 2.5374 99.7624 2.52638 99.8475C2.78808 99.5976 2.56495 100.128 2.59525 100.238C2.58423 100.114 2.75227 99.9024 2.82664 99.8283C3.09661 99.6992 2.80461 99.9958 2.77155 100.196C3.01948 100.287 2.89 100.836 3.21231 100.699L3.31974 100.32L3.11314 100.614C3.25363 100.29 3.44646 99.9986 3.69163 99.7431C3.63929 99.8558 3.78529 99.8612 3.63929 100.01L3.82661 99.9409C3.88997 99.7953 3.78529 99.8146 3.92027 99.6992C3.90099 99.8173 3.96986 99.9491 3.79355 100.092C3.84314 100.133 3.98088 100.07 4.07454 99.8805C4.17646 99.9134 3.83212 100.271 3.71642 100.372C3.77978 100.435 3.60899 100.699 3.53736 100.773L3.66133 100.792C3.5897 100.867 3.51533 100.993 3.44095 101.07C3.44095 101.224 3.69163 100.905 3.59521 101.199L3.77427 100.952C3.83212 101.27 3.7908 101.295 3.94506 101.427L4.03046 101.221C4.36654 100.946 3.94506 101.586 4.20401 101.542C4.37205 101.485 4.48499 101.432 4.65578 101.117C4.77975 101.034 4.68333 101.226 4.64201 101.355C4.78801 101.207 5.07175 100.943 5.02767 101.177C4.94778 101.237 4.85963 101.287 4.76597 101.325C4.59793 101.641 4.87892 101.482 4.8679 101.669C5.00563 101.553 5.3913 101.273 5.64198 101.056C5.77145 100.735 5.96152 100.457 6.21221 100.218C6.08273 100.405 6.2122 100.477 6.18466 100.647C6.04692 100.812 6.04692 101.171 5.87888 101.18C5.90092 101.064 6.03866 100.792 5.93398 100.861C5.84858 101.086 5.79349 101.32 5.77145 101.559C5.70809 101.652 5.59239 101.754 5.55107 101.729C5.61167 101.663 5.65575 101.592 5.68881 101.512C5.41333 101.649 5.46016 101.976 5.29764 102.199C5.37477 102.158 5.43262 102.251 5.49873 102.05C5.29488 102.567 5.88439 101.921 5.7439 102.347C5.77696 102.303 5.81828 102.119 5.945 102.037C6.05794 102.037 5.9202 102.256 5.89817 102.375C6.0056 102.251 6.19017 102.234 6.13783 102.292C6.26455 102.21 6.3527 101.792 6.55379 101.636C6.79345 101.347 6.70806 101.66 6.82375 101.611C6.76866 101.877 6.65572 101.721 6.56206 101.809L6.86232 101.789C6.82926 101.993 6.65572 102.083 6.60889 102.009C6.57858 102.259 6.79621 102.141 6.97527 101.894C6.99455 101.984 7.05791 101.941 7.04413 102.078C6.9064 102.193 6.6447 102.652 6.52073 102.682C6.40779 102.575 6.77141 102.361 6.70255 102.229L6.53175 102.493C6.57583 102.311 6.41881 102.493 6.35545 102.482C6.36647 102.397 6.41881 102.388 6.46013 102.361C6.35821 102.328 6.36923 102.141 6.11579 102.407C6.09375 102.732 6.47941 102.504 6.34994 102.844L6.82651 102.608Z" fill="#FFF5E0"/>
</g>
<path d="M25.2825 123.203C25.4615 123.431 25.1282 123.239 25.0759 123.231L25.0456 123.168C25.0456 123.17 25.0373 123.17 25.0235 123.168L24.6379 122.753C24.4092 122.681 24.9188 122.994 24.8362 123.08C24.3624 122.832 24.3541 122.407 24.0318 122.289C23.8473 122.25 24.255 122.552 24.3596 122.725L24.3789 122.72L24.456 122.986C24.3651 122.918 24.2908 122.841 24.2274 122.75C24.1062 122.904 23.8693 122.75 23.6875 122.871C23.7508 122.904 24.2026 123.217 24.2136 123.346C24.2742 123.486 24.018 123.283 23.9547 123.305C23.9244 123.236 23.7095 123.022 23.8941 123.115L23.5966 122.879C23.3376 122.464 22.9988 122.297 23.0208 122.05C22.8087 121.866 22.7894 121.66 22.9217 121.621L22.6903 121.508C22.3845 121.118 23.0126 121.734 22.7867 121.371C23.2412 121.602 23.6572 121.89 24.0318 122.236C24.1943 122.228 24.0043 122.03 24.0649 121.956C24.4285 122.162 24.401 122.256 24.737 122.503C24.7095 122.322 24.6103 122.198 24.4395 122.135H24.6544C24.7288 122.187 24.6985 122.225 24.6792 122.234C24.7811 122.247 24.6847 122.044 24.5773 121.926C24.5883 121.948 24.6213 122.017 24.558 121.986C24.4974 121.844 24.4202 121.714 24.3211 121.599C24.4395 121.791 24.0594 121.511 24.2219 121.742C24.1365 121.668 23.9685 121.519 24.0401 121.519C23.8004 121.423 23.7949 121.503 23.558 121.357C23.7591 121.44 23.5415 121.223 23.5139 121.187C23.4175 121.179 23.4148 121.305 23.4891 121.407C23.1117 121.124 23.4258 121.613 23.0869 121.264C23.2137 121.377 23.1751 121.443 23.0622 121.401C22.9051 121.272 22.8803 121.127 22.7178 120.948C22.6627 120.654 22.9905 121.165 23.131 121.217L23.1999 121.08C23.1365 121.05 22.9768 120.83 22.9354 120.923C22.7343 120.709 22.6324 120.511 22.8583 120.588C22.7619 120.489 22.7454 120.55 22.7261 120.555C22.6297 120.459 22.2936 120.086 22.1586 120.135C22.1972 120.121 22.2963 120.316 22.4616 120.363C22.4754 120.437 22.2357 120.418 22.0622 120.218C22.087 120.311 22.1696 120.517 22.1834 120.591C22.0071 120.47 22.1393 120.503 22.076 120.421L22.0677 120.632L22.2826 120.739C22.0732 120.734 22.4644 121.143 22.5332 121.33C22.368 121.195 22.2468 121.028 22.1669 120.83C21.7757 120.602 22.3266 121.009 22.2082 121.053C22.1283 121.009 22.0567 120.954 21.9906 120.893L22.1917 121.162C22.1448 121.146 22.1063 121.116 22.0787 121.072C22.3046 121.437 22.4919 121.396 22.5057 121.657C22.7261 121.682 22.368 121.415 22.4534 121.36C22.6985 121.481 22.7591 121.75 22.8638 121.871C22.7316 121.89 22.2908 121.547 22.4479 121.833C22.3625 121.654 22.1806 121.61 22.2468 121.508C22.1393 121.338 22.0925 121.432 21.9189 121.308C21.952 121.377 22.2385 121.539 22.1393 121.574L22.098 121.536L22.3184 121.904C22.076 121.879 22.4671 122.426 22.0705 122.217L22.3872 122.453C22.3569 122.541 22.2881 122.643 22.3074 122.739C22.2054 122.662 22.1503 122.558 22.1448 122.429C21.9933 122.503 22.087 122.758 22.2578 123.047C22.401 123.115 22.5498 123.173 22.704 123.214C23.0566 123.648 22.368 123.088 22.4892 123.365C22.3239 123.2 22.1503 123.049 21.9658 122.907C22.1283 123.113 22.0264 123.148 22.1559 123.343C21.8556 123.126 21.6545 122.876 21.7123 122.753C22.0264 122.887 21.66 122.431 21.9548 122.571L21.7399 122.456C21.7178 122.308 21.8088 122.305 21.7261 122.124L21.7674 122.162L21.503 121.888L21.4727 121.923C21.3377 121.778 21.222 121.616 21.1283 121.44C21.0843 121.583 21.5415 121.981 21.7564 122.25C21.6545 122.333 21.1118 121.937 21.3046 122.212C21.1614 122.099 20.9741 122.03 20.8804 121.877C20.8474 121.758 21.0595 121.874 20.8666 121.701C20.8281 121.764 20.7289 121.643 20.6903 121.756C20.9162 121.984 21.1118 122.234 21.2798 122.506C21.3625 122.687 21.2798 122.764 21.1559 122.747C21.1889 122.662 20.9989 122.385 20.7978 122.239C21.0292 122.506 20.4782 122.179 20.8584 122.475C20.7675 122.528 20.6655 122.659 20.346 122.393C20.2937 122.223 20.5416 122.324 20.5278 122.203C20.5058 122.214 20.4121 122.162 20.3487 122.088L20.4589 122.033C20.2468 121.964 20.1587 121.863 20.1174 121.975C20.1477 121.992 20.2083 122.025 20.2165 122.047C20.2083 122.074 20.1669 122.085 20.1587 122.116L19.8694 121.866C19.9493 122.047 19.4838 121.844 19.594 122.14L19.5444 122.08C19.4066 122.116 19.9576 122.629 19.9383 122.786C19.8281 122.651 19.7041 122.53 19.5637 122.429C19.6628 122.604 19.4066 122.42 19.2882 122.401C19.503 122.495 19.5526 122.712 19.6793 122.753C19.9631 123.008 19.8749 123.11 19.795 123.132C19.4039 122.827 19.7372 122.788 19.2964 122.525C19.2193 122.547 19.4121 122.747 19.5113 122.772C19.3323 122.841 19.167 122.813 19.0182 122.695C19.2193 123.022 19.043 122.915 19.3488 123.291C19.3708 123.236 19.1201 122.997 19.3047 123.077L19.5113 123.376C19.459 123.467 19.1752 123.308 19.0981 123.327L19.043 123.154L19.0816 123.195C18.9852 123.066 19.1146 123.06 18.9135 122.885C19.1119 123.159 18.8392 122.975 18.9521 123.2L18.9135 123.159C19.0127 123.464 18.3378 122.967 18.7758 123.522C18.7868 123.494 19.0182 123.64 19.1036 123.744C18.9576 123.654 18.9328 123.761 18.7923 123.618L18.7648 123.549C18.6656 123.574 18.605 123.588 18.6326 123.656C18.7758 123.788 18.897 123.937 18.9989 124.101C18.7813 124.101 18.6326 123.656 18.4094 123.582L18.4921 123.862L18.3103 123.725C18.0045 123.714 18.4149 124.351 18.2524 124.513C17.9824 124.244 17.9852 124.016 18.0072 123.961C17.7235 123.772 17.9769 124.17 17.7455 124.066C17.6436 124.088 17.8337 124.373 17.9935 124.516C18.01 124.689 17.7813 124.409 17.7262 124.371C17.9907 124.692 17.7951 124.681 17.7951 124.807L17.6298 124.643L17.7345 124.945C17.7758 124.939 17.8998 125.112 17.999 125.219L17.9576 125.228C18.5031 125.601 17.864 124.695 18.4673 125.123C18.5003 125.217 18.627 125.266 18.6601 125.362C18.6188 125.37 18.5912 125.351 18.5224 125.288C18.6408 125.439 18.7179 125.601 18.762 125.541C19.1036 125.898 18.9108 125.917 18.9521 126.109C18.6766 125.939 18.6876 125.708 18.5527 125.511C18.5499 125.563 18.6766 125.738 18.5472 125.689L18.302 125.414C18.3378 125.656 18.4976 125.675 18.7235 125.955C19.021 126.324 18.6133 126.03 18.6078 126.079L18.5775 125.986C18.3901 125.947 18.6408 126.249 18.5444 126.293L18.3103 126.112C18.6546 126.296 18.0678 125.631 18.2496 125.722C17.8778 125.593 17.7538 125.142 17.5775 124.879C17.5665 124.978 17.4866 124.994 17.3185 124.879C17.5665 125.305 17.0265 124.903 17.3378 125.398C17.2497 125.387 17.2001 125.173 17.1478 125.206C17.0321 125.252 16.9907 125.384 17.0458 125.623C16.9935 125.659 16.8861 125.527 16.7704 125.423C16.404 125.464 16.8998 126.192 16.5114 126.255L16.415 126.071C16.3324 126.085 16.2414 126.071 16.3957 126.299C15.9136 125.873 16.4288 126.791 15.8971 126.346C15.7098 126.346 16.0624 126.771 16.0348 126.925C15.9412 126.812 15.7924 126.579 15.7043 126.571C15.5473 126.939 15.3379 127.277 15.079 127.584C15.0542 127.546 15.0376 127.507 15.0294 127.463C14.7897 127.593 14.955 128.235 14.6547 128.216C14.6547 128.392 14.7153 128.543 14.8393 128.669C14.9027 128.664 15.1065 128.916 15.2277 129.079C15.2387 129.427 14.8613 128.768 14.809 128.922C14.4757 128.554 14.6795 128.609 14.4096 128.263L14.4481 128.631C14.2691 128.573 14.349 128.864 14.1341 128.735C14.2029 128.754 13.922 128.43 14.0928 128.54C14.0983 128.562 14.1231 128.587 14.1286 128.609C14.2828 128.543 14.0569 128.364 14.101 128.189C14.0762 128.362 14.0156 128.57 13.8641 128.554C14.0873 128.809 13.8779 128.724 13.9798 128.914L13.955 128.892C14.0129 128.977 14.0459 129.076 14.0542 129.18L13.7787 128.853C13.7705 128.927 13.9165 129.018 13.9082 129.09C13.9082 129.213 13.7346 129.4 13.4564 129.046C13.4096 129.122 13.5336 129.337 13.4289 129.342C13.3683 129.246 13.36 129.199 13.3297 129.153C13.1286 129.186 13.0294 129.444 12.7347 129.331C12.6465 129.524 12.6383 129.721 12.7071 129.919C12.7209 129.87 12.8724 129.889 12.9523 130.133C13.0212 130.304 12.9358 130.282 12.9275 130.381C12.8146 130.188 12.6823 130.29 12.6934 130.095C12.3931 129.708 12.5336 130.32 12.2636 129.914C12.3215 130.054 12.1341 130.078 12.2251 130.331C12.0956 130.161 12.2223 130.158 12.1397 130.037L12.1121 130.136L12.0322 130.015C11.8421 129.996 12.1479 130.507 12.1231 130.633L12.0956 130.587L12.0873 130.683L11.9303 130.317C11.8835 130.416 12.0322 130.729 11.9854 130.856L11.9083 130.757L11.9275 130.905C11.9165 130.869 11.9 130.836 11.8724 130.806C12.0212 131.152 11.8256 131.103 11.9468 131.4C11.878 131.375 11.6025 131.007 11.7237 131.303L11.484 130.908C11.5749 130.784 11.7044 131.155 11.7402 130.933C11.327 130.49 11.1066 130.71 10.9579 130.858C10.9799 131.21 10.4896 130.927 10.7816 131.548L10.6521 131.298L10.2912 131.24C10.1452 131.457 9.8312 131.397 9.86701 131.82L9.70723 131.641C9.93588 132.419 9.31331 132.232 9.6604 133.119C9.46206 132.987 9.5144 132.789 9.44278 132.638C9.33535 132.608 9.51716 133.212 9.24719 132.875C9.17832 132.748 9.2775 132.702 9.1921 132.649C9.01304 132.443 9.24995 132.924 9.04885 132.691C9.1921 132.897 9.23893 133.125 9.18659 133.369C9.20587 133.369 9.20587 133.369 9.23066 133.396C9.34361 133.578 9.25821 133.575 9.23893 133.622C9.22791 133.597 9.21965 133.572 9.21414 133.545C9.1067 133.822 8.93591 134.047 8.69625 134.223C8.45659 134.399 8.18938 134.498 7.89462 134.517V134.295C7.89462 134.468 7.72383 134.426 7.66047 134.394V134.369C7.34092 134.036 7.69904 134.822 7.38224 134.413V134.363C7.23349 134.448 6.94149 134.067 6.90016 134.363C6.71284 134.267 6.6302 134.058 6.46492 133.913C6.40156 133.954 6.4842 134.215 6.50348 134.267L6.5448 134.273C6.68805 134.49 6.56133 134.501 6.55858 134.627C6.76243 135.069 7.01586 135.481 7.31888 135.866C7.36571 135.693 7.69353 136.407 7.78443 136.289C7.62466 135.77 8.12877 136.572 8.0296 136.083C8.13153 136.443 8.24723 136.201 8.32436 136.613C8.49515 136.855 8.42353 136.217 8.66044 136.489C8.68798 136.555 8.71002 136.624 8.72379 136.695C8.75134 136.445 8.91938 136.888 9.01029 136.844L8.83949 136.5C8.82021 136.371 8.94693 136.607 8.94968 136.533C8.845 136.448 8.77338 136.341 8.73481 136.215C8.73481 136.113 8.71553 135.987 8.75961 135.965C8.80368 136.044 8.82572 136.129 8.82297 136.223C8.82297 136.223 8.93315 136.206 9.01855 136.36C9.0158 136.481 9.02682 136.599 9.05987 136.717C9.23617 136.756 9.12323 136.822 9.31882 137.061C9.10395 136.668 9.34636 136.833 9.3684 136.706C9.45655 136.866 9.34636 136.783 9.38768 136.912C9.87252 137.55 9.52818 136.693 9.77059 136.756C9.78712 136.797 9.79538 136.838 9.79263 136.882C9.81467 136.731 10.0598 137.074 9.99372 136.813C10.1067 136.844 10.2389 137.256 10.3546 137.184C10.1067 136.794 10.5337 137.192 10.3105 136.753L10.5364 136.964C10.4923 136.684 10.1287 136.239 10.2637 136.121C10.4896 136.206 10.6273 136.844 10.8312 137.025L10.7403 136.769L10.9 136.901V136.929C10.9 136.827 11.0102 136.852 11.0791 136.981C11.1259 137.085 11.0791 137.11 11.1287 137.212C11.0791 136.956 11.7237 137.651 11.4427 136.959C11.5474 137.052 11.63 137.003 11.732 137.214C11.6108 136.907 11.9661 137.201 11.922 136.989C11.9689 137.091 12.1094 137.217 12.1066 137.118C11.9909 137.041 11.9689 136.912 11.9165 136.737C12.0818 136.915 12.1231 136.662 12.3352 136.992C12.2636 136.739 12.1589 136.503 12.0185 136.281C12.1837 136.459 12.3187 136.333 12.5115 136.737C12.4427 136.715 12.3049 136.687 12.473 136.943C12.6355 137.044 12.4454 136.816 12.4895 136.742C12.5749 136.849 12.652 136.962 12.7237 137.077C12.7402 137.011 12.7925 136.984 12.8889 137.014C12.7016 136.89 12.787 136.709 12.6438 136.585L12.7264 136.918C12.6355 136.995 12.5804 136.715 12.4868 136.64C12.6162 136.459 12.349 136.08 12.4069 135.803C12.4702 135.849 12.5391 135.891 12.6135 135.926C12.5722 135.976 12.7925 136.33 12.8614 136.377C12.776 136.022 13.1369 136.473 13.2553 136.495C13.1396 136.448 13.0349 136.195 13.0074 136.094C13.0377 135.789 13.1451 136.193 13.3159 136.314C13.5336 136.132 13.9716 136.5 14.0211 136.14L13.7291 135.874L13.8862 136.198C13.663 135.921 13.4977 135.616 13.3931 135.275C13.4702 135.377 13.5501 135.245 13.6107 135.446L13.641 135.24C13.5391 135.116 13.5032 135.22 13.4674 135.042C13.5611 135.11 13.7209 135.108 13.7594 135.336C13.8283 135.305 13.8366 135.152 13.7099 134.981C13.7952 134.902 13.944 135.377 13.9798 135.531C14.068 135.5 14.225 135.772 14.2553 135.877L14.3379 135.77C14.3682 135.869 14.4454 135.992 14.4757 136.091C14.6217 136.162 14.4564 135.789 14.6795 136.006L14.5418 135.731C14.8696 135.814 14.8751 135.863 15.0762 135.775L14.9219 135.608C14.842 135.179 15.2222 135.844 15.3159 135.583C15.3682 135.352 15.3104 135.152 15.1451 134.981C15.1285 134.83 15.2608 134.998 15.3627 135.091C15.2966 134.893 15.1891 134.517 15.3847 134.654C15.4013 134.756 15.404 134.86 15.3957 134.962C15.6079 135.251 15.5968 134.918 15.7676 135.006C15.7263 134.83 15.6519 134.352 15.5665 134.028C15.3296 133.778 15.1561 133.487 15.0514 133.157C15.1671 133.353 15.2911 133.267 15.4398 133.358C15.5307 133.55 15.8696 133.701 15.7979 133.858C15.696 133.789 15.5087 133.55 15.5225 133.677C15.6933 133.85 15.8888 133.995 16.101 134.111C16.1588 134.207 16.2001 134.355 16.1561 134.385C16.1257 134.306 16.0789 134.234 16.0183 134.171C16.0183 134.484 16.3461 134.572 16.4811 134.811C16.4811 134.723 16.5968 134.707 16.437 134.564C16.8337 134.962 16.4976 134.146 16.8365 134.443C16.8089 134.396 16.6547 134.286 16.6354 134.133C16.6905 134.025 16.8337 134.24 16.9329 134.303C16.8695 134.157 16.9329 133.971 16.9687 134.042C16.9467 133.891 16.5913 133.649 16.5334 133.402C16.3709 133.064 16.6271 133.262 16.6326 133.136C16.8613 133.289 16.6629 133.336 16.7015 133.46L16.8172 133.166C16.9935 133.273 17.0018 133.476 16.9108 133.487C17.1367 133.613 17.123 133.358 16.9687 133.097C17.0624 133.114 17.0513 133.037 17.1753 133.097C17.2249 133.27 17.5444 133.69 17.5141 133.822C17.3626 133.891 17.3241 133.462 17.1643 133.479L17.3406 133.74C17.1863 133.63 17.2882 133.847 17.2497 133.902C17.1725 133.861 17.1891 133.808 17.1781 133.756C17.0982 133.844 16.9274 133.762 17.0651 134.1C17.3654 134.245 17.3241 133.789 17.5913 134.036L17.583 133.501C17.4976 133.385 17.269 133.259 17.2111 133.037C17.4618 133.311 17.6381 133.394 17.7731 133.372C17.4949 133.078 17.7015 132.968 17.4618 132.748C17.5417 132.94 17.3158 132.691 17.291 132.669C17.3654 132.581 17.0789 132.364 17.1147 132.306C17.3323 132.251 17.2635 132.517 17.5141 132.509C17.6298 132.751 17.7097 133.006 17.7565 133.273C17.8695 133.41 17.8337 133.182 17.9935 133.314C17.8116 133.188 17.8006 132.982 17.7015 132.943C17.7318 132.707 17.6326 132.259 17.7318 132.067C18.0733 132.556 17.74 132.63 18.2221 133.152C18.2469 133.017 18.0678 132.789 18.1587 132.776C18.4342 133.017 18.3709 132.666 18.47 132.575L18.313 132.471C18.2634 132.325 18.4067 132.355 18.4755 132.344L18.5113 132.413L18.4893 132.29C18.5058 132.298 18.5224 132.309 18.5334 132.325C18.47 132.144 18.7069 132.177 18.74 132.015C18.5554 131.79 18.6381 132.084 18.5719 132.094C18.5169 132.056 18.3516 132.026 18.2689 131.836C18.3874 131.74 18.2496 131.402 18.3874 131.301L18.291 131.268C18.2056 131.075 18.324 131.106 18.3791 131.045C18.6215 131.106 18.5527 131.427 18.7262 131.501C18.8419 131.737 18.5775 131.578 18.8006 131.875L19.1284 132.127C19.0347 131.886 19.335 132.116 19.3433 132.037L19.1835 131.938C18.9934 131.688 19.1835 131.834 19.2358 131.85L18.9135 131.52C18.7978 131.515 19.0072 131.867 18.7868 131.696C18.8144 131.485 18.5499 131.221 18.6876 131.097C18.8061 131.229 18.7014 131.172 18.773 131.287C18.8998 131.342 18.7152 131.015 18.886 131.062C18.9108 131.259 19.0044 131.416 19.1697 131.529L18.9907 131.227C19.0595 131.238 19.1339 131.353 19.156 131.35C19.2496 131.358 18.9135 131.084 19.0513 131.086C19.1201 131.122 19.178 131.172 19.2221 131.235C19.324 131.166 19.1973 131.111 19.1752 130.911C19.0981 130.977 18.7565 130.573 18.8006 130.466C18.9493 130.413 18.8364 130.128 19.1973 130.397L19.1009 130.183C19.2799 130.457 19.2441 130.205 19.313 130.216C19.5609 130.479 19.1422 130.356 19.5196 130.798C19.6325 130.776 19.7152 130.941 19.7923 131.081C19.8391 130.968 19.5526 130.738 19.4342 130.532C19.5306 130.641 19.5995 130.446 19.7592 130.727C19.8419 130.683 19.6105 130.392 19.7041 130.4C19.8061 130.537 19.9135 130.669 20.0292 130.795C19.9548 130.699 20.1174 130.757 20.1366 130.754C20.0788 130.713 19.9603 130.504 19.9686 130.63C19.7978 130.408 20.0981 130.501 19.941 130.328C20.1614 130.565 20.1118 130.265 20.2634 130.312C19.751 129.746 20.3405 130.633 19.9052 130.18C19.8171 129.914 20.1669 129.919 20.0733 129.554C20.2826 129.562 20.2689 129.771 20.4782 129.958C20.4562 130.144 20.2799 130.001 20.2771 130.18C20.4644 130.191 20.5801 129.99 20.4948 129.749C20.5774 129.625 21.1256 130.202 21.1256 129.941C20.9438 129.776 20.908 129.73 20.806 129.702C20.7812 129.603 20.8804 129.633 20.919 129.598C20.8363 129.46 20.7317 129.513 20.6931 129.364C20.7868 129.372 20.8611 129.414 20.9135 129.493L20.9217 129.518C20.8914 129.241 21.4148 129.872 21.2 129.427C21.1091 129.345 21.1917 129.482 21.1118 129.447C20.9686 129.318 20.8777 129.155 20.8391 128.966C20.9465 129.098 20.9024 128.949 20.9768 128.96C21.1917 129.144 20.9465 129.098 21.0595 129.252L21.1834 129.197L21.1338 129.183L21.0512 128.892C21.0402 129.024 20.7757 128.669 20.7868 128.614C20.8942 128.59 21.0044 128.565 21.2137 128.801C21.0071 128.565 21.1008 128.493 21.1146 128.384C20.9713 128.367 20.9217 128.2 20.8694 128.109L21.1862 128.238C21.1449 128.406 21.4038 128.419 21.5278 128.598C21.7234 128.862 21.5443 128.804 21.4534 128.826C21.9713 129.142 21.39 128.45 21.6793 128.557C21.7785 128.661 21.8886 128.79 21.8253 128.809C21.9107 128.864 21.7151 128.521 21.8942 128.579C21.806 128.524 21.5663 128.348 21.5443 128.2L21.8776 128.373C22.0319 128.331 21.6435 128.068 21.6021 127.87L21.3763 127.744C21.1641 127.513 21.4837 127.639 21.2385 127.389C21.1834 127.43 21.3432 127.647 21.222 127.628C20.9658 127.406 21.1614 127.436 21.065 127.277C21.2716 127.277 21.2578 127.307 21.5278 127.42C21.9024 127.788 21.8556 128.01 22.3542 128.48C22.3983 128.312 22.4313 128.04 22.6434 128.114C22.6269 127.908 22.3211 127.626 22.0925 127.425C22.0925 127.348 22.1421 127.362 22.222 127.389L22.2991 127.554C22.2936 127.318 22.2247 127.126 22.3514 127.01C22.3514 126.878 22.1008 126.689 21.9079 126.532L21.9355 126.42L21.8776 126.384C21.649 126.134 21.7922 126.148 21.8473 126.107C21.9548 126.205 21.9492 126.26 22.0181 126.318C22.1476 126.359 22.1862 126.269 22.1145 126.134C22.222 126.233 22.4286 126.488 22.3046 126.472C22.2743 126.453 22.2357 126.414 22.2082 126.395L22.2605 126.615C22.2275 126.389 22.5553 126.582 22.806 126.821C22.7729 126.595 22.4644 126.659 22.4837 126.444C23.1365 126.749 22.6352 126.008 23.4368 126.582C23.3597 126.367 23.1916 126.046 23.2825 125.912C23.0677 125.714 23.2715 125.755 22.9933 125.524C22.6104 125.381 23.2192 126.118 22.7399 125.846C22.7922 125.983 22.9878 126.137 23.0842 126.266C23.0594 126.326 22.996 126.346 22.8583 126.227C22.8225 126.005 22.368 125.722 22.4809 125.582C22.2826 125.434 22.2495 125.598 22.1559 125.598C22.0677 125.491 21.9603 125.409 21.8335 125.354C21.6958 125.159 21.6132 124.95 21.4975 124.774C21.5856 124.879 21.6655 124.909 21.7123 124.975L21.5305 124.56C21.7013 124.643 21.8446 124.758 21.963 124.906C22.0952 124.89 21.9189 124.5 22.2412 124.794C22.2771 124.651 22.0236 124.651 21.9245 124.577L21.9162 124.552L21.8501 124.678C21.4644 124.349 22.0429 124.643 21.7013 124.302C21.0319 123.67 22.0457 124.357 21.9988 124.187L22.4203 124.711L22.3762 124.544C22.5305 124.755 22.8583 125.046 22.996 125.294C23.1035 125.206 23.3845 125.195 23.3486 125.046C23.5387 125.164 23.7123 125.302 23.8693 125.461C23.6489 125.082 24.1751 125.439 24.2632 125.357C24.1613 125.101 23.9244 125.23 23.7398 124.947C23.8913 125.03 23.8362 124.89 23.8087 124.821C23.8776 124.931 23.6186 124.882 23.4726 124.876C23.5277 124.835 23.277 124.626 23.1889 124.522L23.0622 124.563C22.7619 124.291 23.131 124.437 23.0126 124.263L23.5305 124.78C23.4864 124.612 23.58 124.5 23.8059 124.579C23.9492 124.637 23.9161 124.728 23.974 124.816C24.1778 124.958 23.9271 124.643 24.1696 124.827C24.3321 124.986 24.1475 124.89 24.1778 124.958L24.4533 124.807C24.5635 124.901 24.5497 124.986 24.4781 124.986C24.6627 125.027 24.6461 124.925 24.3348 124.527C24.5497 124.533 24.7315 124.61 24.8885 124.755C24.85 124.662 24.726 124.599 24.6103 124.505C24.7591 124.453 24.3707 124.112 24.4147 124.041L24.1696 123.917C24.4671 123.997 23.8417 123.607 24.0787 123.656C24.3018 123.862 24.5387 124.052 24.7866 124.231C24.5773 124.036 24.8197 124.137 24.8555 124.099C24.6158 123.945 24.7233 123.854 24.456 123.736C24.3541 123.508 24.6847 123.709 24.456 123.415C24.3541 123.401 24.288 123.154 24.1034 123.063C24.153 122.964 24.4616 123.115 24.6819 123.33C24.6406 123.346 24.5056 123.316 24.693 123.459L24.7728 123.266C24.9574 123.308 25.1227 123.387 25.2687 123.505C25.0235 123.222 25.5938 123.514 25.2825 123.203Z" fill="#FFF5E0"/>
<path d="M208.179 125.013C208.143 125.011 208.105 125.013 208.066 125.022C208.105 125.027 208.143 125.024 208.179 125.013Z" fill="#FFF5E0"/>
</svg>
