<svg width="94" height="100" viewBox="0 0 94 100" fill="none" xmlns="http://www.w3.org/2000/svg">
<mask id="mask0_597_1761" style="mask-type:luminance" maskUnits="userSpaceOnUse" x="0" y="0" width="94" height="100">
<path d="M94 0H-0.00190735V99.8818H94V0Z" fill="white"/>
</mask>
<g mask="url(#mask0_597_1761)">
<path d="M0.838524 45.1936C0.759697 44.7323 0.707832 44.269 0.682938 43.8036C0.637299 43.3092 0.670486 42.8996 0.581284 42.9265L0.496231 43.4974C0.492081 42.4549 0.558464 41.4185 0.695381 40.3863C0.946404 39.9664 1.01279 40.4318 1.29285 39.3086C1.51068 37.9185 1.35301 38.1688 1.16008 38.5432C0.969223 38.9156 0.751396 39.4079 0.865494 38.4295C1.11652 37.569 1.41525 36.7271 1.76585 35.9017C1.76792 35.6949 1.78452 35.4921 1.80527 35.2873C2.40688 33.4712 3.33214 31.837 4.57893 30.3849C4.87975 30.0208 5.19923 29.6733 5.5353 29.3444C5.85478 28.9948 6.23858 28.6804 6.60577 28.3494C6.97297 28.0164 7.4024 27.7227 7.81316 27.3938C8.25504 27.1021 8.69899 26.7836 9.19481 26.5002C9.14709 26.345 8.40025 26.6843 7.58289 27.2097C7.17834 27.4848 6.79041 27.7827 6.42113 28.1033C6.07883 28.4136 5.76765 28.697 5.58094 28.8997C6.07053 28.215 6.66593 27.6317 7.36091 27.1559C7.72603 26.8663 8.16376 26.6263 8.56622 26.3471C8.9832 26.0823 9.42923 25.8506 9.83999 25.5714C10.2259 25.3852 10.6221 25.2239 11.0266 25.0853C11.344 24.986 11.6677 24.9136 11.9996 24.8702C12.539 24.7874 12.8211 24.835 12.7008 24.9446C13.2505 24.8888 13.7879 24.7833 14.3169 24.6281C14.4621 24.5516 14.3708 24.4813 14.5056 24.442C14.7982 24.5061 15.0927 24.5433 15.3894 24.5578C15.7773 24.5702 16.2337 24.6095 16.7233 24.6447C17.6839 24.7191 18.6299 24.8826 19.5613 25.1391L19.6775 24.9839C20.4845 25.259 21.2728 25.5838 22.0404 25.9561C21.4284 25.7534 21.918 26.0968 21.8765 26.2002L22.4678 26.4174C21.2687 26.1899 20.0136 25.679 18.6299 25.3335C17.242 24.9177 15.8437 24.8867 14.4393 25.2446C15.2483 25.2321 14.182 25.4225 14.989 25.4245C15.6487 25.3873 15.7815 25.3604 15.852 25.2901C16.2503 25.4452 17.2731 25.6252 15.9101 25.5486C15.9246 25.6438 16.1051 25.7162 16.3935 25.7741L17.5179 25.9665C18.4701 26.1175 19.3995 26.3616 20.3061 26.6987C21.0156 26.7939 20.6982 26.5974 20.1028 26.3347C19.5053 26.072 18.6112 25.7969 18.244 25.65C18.5801 25.7265 18.9099 25.8258 19.2335 25.9479C19.6298 26.0802 20.0322 26.1899 20.4409 26.2788L20.2853 25.9417C21.4761 26.3864 21.5923 26.5312 21.5052 26.5684C21.4118 26.616 21.0903 26.5995 21.3081 26.8187C21.8101 27.3669 23.3474 27.613 23.9282 27.9481L23.3038 27.5758C25.0527 28.277 25.2726 28.7549 26.7144 29.5595L27.4944 29.7705C25.5713 28.9431 25.4738 28.1488 24.3203 27.7144C27.1894 28.9224 24.0299 26.8704 23.1482 26.2768C24.1502 26.7918 25.1771 27.251 26.2289 27.6544C27.7765 28.9224 29.7515 29.634 31.0585 30.993C31.9194 31.5185 30.4361 30.3311 31.3219 30.9248C32.1352 31.4688 32.9774 32.0253 33.7906 32.6479C34.5956 33.2788 35.4109 33.92 36.1847 34.613C37.0332 35.2646 36.9668 35.0515 37.2759 35.1426C37.7945 35.5252 38.2758 35.881 38.7094 36.2368C39.143 36.5926 39.5351 36.9401 39.9085 37.2752C40.2819 37.6103 40.6346 37.9351 40.9727 38.2599L41.954 39.2528L44.0016 41.342C44.375 41.7185 44.7712 42.1115 45.2069 42.5273L46.6051 43.8884L46.1301 43.1954C46.9806 44.0145 47.7461 44.6806 47.9888 45.2577C48.8913 45.9217 49.6609 46.7099 50.302 47.6262C51.0094 48.615 51.8268 49.5024 52.7499 50.2926C54.4137 52.1522 54.1357 52.5204 55.2664 54.107C55.3535 54.0429 55.1543 53.4492 55.812 54.2208C56.0028 54.4917 56.1895 54.7607 56.3762 55.0296C56.0837 52.7748 55.8223 50.6153 55.4406 48.6791C55.3971 47.9779 55.1792 45.9011 55.4676 46.5051C55.619 47.3594 55.8825 47.438 56.0257 47.3615C55.7477 44.0663 55.4303 45.808 55.1834 43.6174C54.7145 42.9782 55.1336 45.0281 54.812 45.0757L54.5901 41.886C54.2312 40.1195 54.2063 38.3095 53.8411 36.7767C53.9698 37.4635 53.5922 37.0353 53.8785 38.173C53.8743 37.9951 53.9138 38.1088 53.9096 37.933C54.281 40.5808 53.9179 39.3976 54.1461 41.7681C53.9573 39.6809 53.6876 36.8512 53.3993 35.0143C53.698 35.3887 53.3329 33.5022 53.4345 32.9664L53.3972 32.8527C53.5051 32.8423 53.4553 31.686 53.4511 31.3323L53.0819 30.9041C53.0362 30.0891 53.2665 31.1172 53.2209 30.3042C53.1711 29.15 52.8122 25.0439 52.4533 24.7833C52.3599 23.387 52.5093 22.9754 52.3454 21.5315C52.2956 21.7053 52.2562 21.8811 52.2292 22.0611C51.8185 18.6273 51.8537 15.1976 52.3288 11.77C52.9636 9.16574 54.1793 7.01239 55.4717 5.78988C55.1543 6.20152 54.8639 6.63384 54.5984 7.08272C54.4013 7.50056 54.3619 7.69914 54.7705 7.17787C55.0776 6.85311 55.3639 6.50973 55.6273 6.14773C55.9759 5.73403 56.3451 5.33893 56.7372 4.96659C56.4011 5.00797 58.7848 2.99113 56.9965 4.36672C57.1666 4.06264 57.3907 3.80821 57.6708 3.60135C58.1147 3.27039 58.5732 2.96631 59.0503 2.68912C59.5586 2.43262 60.0357 2.15337 60.405 1.98996C60.7722 1.82654 60.9942 1.68174 60.9527 1.60107C61.0875 1.58452 61.3635 1.45834 61.741 1.35905C62.1165 1.26183 62.5771 1.11289 63.0646 0.994985C63.5542 0.9019 64.0645 0.796405 64.5271 0.738485C64.9172 0.701252 65.3072 0.686772 65.6993 0.695046C65.9399 0.502671 64.0147 0.786061 64.0023 0.724005C64.4732 0.6454 64.9462 0.589549 65.4213 0.558522L65.4088 0.448889C66.359 0.287542 67.307 0.306159 68.2489 0.502671C68.9127 0.616441 69.4169 0.825365 70.199 0.947408L70.1429 0.895695C70.4977 0.947408 70.8441 1.06118 71.1927 1.14185C70.8006 0.953614 70.3981 0.786062 69.9874 0.639195C70.3774 0.692977 70.757 0.779856 71.1304 0.897763C71.4644 0.986711 71.7901 1.09634 72.1117 1.22459L73.1013 1.61969C73.4539 1.76035 73.8294 1.94652 74.2671 2.12234L74.4808 2.10373C74.8273 2.27128 75.1571 2.48641 75.487 2.67258C75.3189 2.57535 75.2795 2.50709 75.404 2.53812C75.85 2.88357 76.5761 3.35313 77.2877 3.8351C77.6341 4.08746 77.9806 4.33776 78.2793 4.57357C78.5241 4.78249 78.7523 5.00797 78.9639 5.25205C79.273 5.4527 79.5863 5.60164 79.9078 5.79608C80.2854 6.005 80.5904 6.2946 80.8186 6.66073L80.9223 6.28219C80.5281 5.85607 80.08 5.50028 79.5759 5.21275C79.0469 4.90661 78.5552 4.55082 78.0988 4.14538C79.5863 4.8611 80.8953 5.8209 82.0218 7.0248C83.4346 8.47899 84.671 10.0697 85.7311 11.7969C86.4115 13.0608 87.3596 14.6805 88.065 16.1864C88.7724 17.6944 89.2869 19.0534 89.2578 19.7009L89.345 19.3492C89.6707 20.067 89.9528 20.7951 90.2412 21.5212L90.6747 22.6154L91.0648 23.7221C92.1829 27.5448 93.1601 31.5495 93.2825 34.5861L93.577 35.3846C93.5314 36.3961 93.5376 37.4055 93.5957 38.4171C93.6206 39.592 93.6891 40.8848 93.6808 42.1446C93.7098 43.4023 93.6393 44.6289 93.577 45.6632C93.5293 46.4761 93.3862 47.2704 93.1476 48.0482C93.1995 48.9253 93.2555 48.7991 93.3468 48.4288C93.3945 48.0668 93.4671 47.711 93.5646 47.3594C93.5646 47.7297 93.5418 48.0979 93.4982 48.4661C93.438 48.8674 93.3737 49.2955 93.3115 49.7196C93.1725 50.4891 93.1331 51.2627 93.1932 52.0405C93.3094 52.0509 93.4526 50.2367 93.4526 51.0621C93.5667 52.0157 93.1248 52.3839 93.2513 53.4616C93.0999 52.9755 92.6082 55.0999 92.3427 56.6451C92.3697 56.5086 92.38 56.37 92.3738 56.2314C92.2493 55.9832 92.102 57.1395 91.9796 57.7704C92.0274 57.7042 92.0585 57.6297 92.073 57.549C90.3926 66.0115 87.872 74.2153 84.5133 82.1648C84.7727 81.7097 85.032 81.2546 85.2768 80.7912C84.6917 81.8669 83.8951 83.8692 83.6254 84.5105L83.7167 84.3574C83.0487 86.5583 82.3185 86.5232 81.8787 88.2546L82.0633 87.9608C80.804 90.3852 80.3352 91.9903 78.8166 94.212C77.8603 96.0902 78.1071 95.9682 77.4661 97.2941C77.1611 97.8588 76.7545 98.3387 76.2483 98.7317L76.5533 98.2312C76.7421 97.5878 75.7173 99.2178 75.1696 99.9025C75.265 99.1992 74.6883 99.2241 75.7484 97.0169C76.7691 95.5462 76.267 95.298 77.325 93.5914C78.2689 92.8074 78.5075 90.954 79.6921 89.5143C78.9888 90.2445 80.5821 87.5161 79.5614 88.7882C79.7274 88.0374 81.5654 85.4393 81.9222 84.014C81.7666 84.1981 81.7334 84.1216 81.555 84.4133C82.5591 82.6715 81.972 83.0915 82.5736 81.7386L82.8143 81.9062C83.1338 81.4201 83.0176 81.1801 83.2707 80.7313C83.1379 81.116 82.9159 81.9517 83.2064 81.5856C83.5632 81.0146 83.8785 80.421 84.1482 79.8045C84.0486 79.7528 83.8038 80.2141 83.6379 80.5223C83.6379 80.5223 84.2333 79.0247 84.1503 78.8716C83.8723 79.4198 83.5611 79.9473 83.2167 80.4561C83.947 78.4765 83.196 80.2638 83.3806 79.2274C83.5881 79.6246 84.2188 77.5995 84.6835 76.5611C84.6005 76.4039 84.3557 77.2871 84.1586 77.5167C84.2665 76.5776 84.5382 75.6881 84.9718 74.8483C85.478 73.8844 85.8825 72.8811 86.1875 71.8365C86.0775 71.9978 85.9883 72.1675 85.9199 72.3474C86.1273 71.8158 86.2912 71.2697 86.4095 70.7091C86.48 70.2561 86.6211 69.8238 86.8285 69.4142C87.121 68.1959 86.5526 69.0936 87.0692 67.2381C87.2559 67.8752 87.6065 65.0372 87.9571 65.0744L88.0961 63.5892C88.5857 62.3626 88.6355 64.0732 89.2143 61.5765C89.5441 59.2639 88.5877 61.6717 88.6541 60.3023L88.957 59.7831L89.0213 58.6433L88.9736 58.8088C89.1748 58.1551 89.2848 56.9181 89.1852 56.8995C89.0836 56.9967 88.9715 57.7228 88.874 57.8118C89.2475 56.7299 89.0234 53.3644 89.652 52.2536C89.6209 51.5854 89.7412 50.2264 89.54 50.3877C89.6935 49.792 89.7557 49.1859 89.7267 48.5695C89.7039 47.8889 89.7288 47.2084 89.8034 46.5299C89.7122 46.6437 89.6167 45.8018 89.6707 45.1316C89.7661 46.0272 89.8574 45.4687 89.9901 44.8585C89.9092 44.2442 89.8657 43.6277 89.8553 43.0092C89.874 42.49 89.7868 41.9915 89.596 41.5095C89.7122 40.2746 89.9238 40.7111 90.125 40.4277C90.0067 40.0367 89.9113 39.2135 89.8076 38.5474C89.6893 37.8813 89.5462 37.3766 89.4072 37.6145C89.54 38.2764 89.6997 39.7761 89.4549 39.5093C89.2309 38.2454 89.5275 38.9466 89.4466 37.8937C89.3947 37.9785 89.1603 37.2028 89.0856 37.4159C89.0462 36.6216 88.9404 35.8376 88.7682 35.0639C89.1209 36.4106 88.8761 34.1538 89.1313 34.9585C89.1105 35.4115 89.1105 35.8583 89.0711 36.3113C89.2288 37.9165 89.2931 36.6257 89.4425 37.2256C89.3533 36.3733 89.3304 35.5211 89.3719 34.6668C89.4425 33.8476 89.4155 33.0326 89.291 32.2197L88.8097 30.598C88.9881 31.4792 88.6355 31.3695 88.4757 30.8876C88.4322 30.1967 88.2849 29.5306 88.0338 28.8873C87.8015 28.2895 87.5194 27.7454 87.3368 27.1621C87.6832 28.1633 87.7351 27.5758 87.7102 27.1807C87.4799 25.9127 87.343 25.6893 87.2642 25.6417C87.175 25.5941 87.1003 25.7307 86.8659 25.2197C85.7021 21.4426 84.4013 19.2954 83.1566 16.4987C83.4761 16.8773 83.781 17.2703 84.0798 17.6716L84.0528 18.226C84.7187 19.1816 84.5237 17.775 84.3764 17.1048C84.2353 16.9848 83.3599 15.2721 83.5922 16.0188C83.3371 15.45 83.0508 14.8998 82.7666 14.3475C83.0197 14.5171 83.5736 15.5969 83.2479 14.7736C82.8724 14.2771 81.7853 12.7174 82.2956 13.8096C81.7687 12.9905 81.1049 11.9438 81.3559 12.0203C80.414 10.7668 81.1961 12.3492 81.4866 12.9843C80.7646 11.9872 80.6505 12.2789 80.8165 12.6099C80.4866 12.1548 80.1589 11.6976 79.8041 11.2715C79.9784 11.5984 79.8954 11.6666 80.0634 11.9914C79.3 11.2136 79.0096 10.4255 78.1943 9.94145L78.0594 9.49051C77.3499 8.89683 76.601 8.35487 75.8189 7.86463C75.5471 7.70742 75.2858 7.54814 74.9517 7.33508C74.7837 7.23165 74.5887 7.13443 74.3667 7.00825C74.1219 6.86138 73.8668 6.729 73.6054 6.61109C73.763 6.61729 73.9186 6.63177 74.0742 6.65246C73.7776 6.43526 73.4601 6.24909 73.1261 6.09602C72.9042 6.01328 72.678 5.9595 72.4436 5.93261C72.2154 5.90365 71.9831 5.83745 71.6283 5.78574C71.2757 5.73403 70.84 5.58302 70.1907 5.4465L69.672 5.30584L69.199 5.21482C68.9044 5.16311 68.6513 5.0845 68.4501 5.0514C68.0456 4.9728 67.8506 4.87765 67.9543 4.74733C67.7717 4.7163 67.5871 4.69768 67.4004 4.69561C67.2738 4.70182 67.1473 4.71837 67.0228 4.74733C66.8133 4.79904 66.6681 4.86937 66.4731 4.92729C66.2573 4.89006 66.0416 4.86937 65.8237 4.86524C65.5437 4.84662 65.2615 4.84455 64.9815 4.8611C64.6869 4.89213 64.3799 4.9335 64.0832 4.99142C63.8031 5.06382 63.5314 5.16311 63.272 5.28929C63.9878 5.13415 64.579 5.08657 65.2532 4.99969C64.8487 5.23344 64.413 5.37823 63.9483 5.43615C63.6268 5.54372 63.2617 5.62439 62.9401 5.75678C62.6497 5.87675 62.3655 6.01121 62.0896 6.16221L61.3054 6.43733C60.9672 6.55524 60.6187 6.76416 60.2142 6.94412C59.4839 7.36197 58.8159 7.86256 58.2081 8.44382C58.3906 7.81085 58.0214 7.75499 57.0712 8.74583C57.204 8.70653 56.9841 9.10162 56.7642 9.65185C56.5215 10.2021 56.3389 10.7689 56.2207 11.3584C56.48 10.9737 56.0609 13.4311 56.6293 11.5963C56.7165 11.0543 56.5775 10.7254 56.9633 10.0697C56.9239 10.5496 56.6667 11.7163 56.5858 12.9801C56.6895 12.8436 56.7642 12.6926 56.8098 12.5271C56.9219 12.2541 57.0214 11.9769 57.1044 11.6956C56.9322 11.9976 56.9405 11.7949 56.8887 11.7287C57.1086 11.2095 57.233 10.9964 57.3077 10.9592C57.3845 10.9199 57.3783 11.0398 57.3658 11.2177C57.3471 11.5797 57.2745 12.1548 57.4239 12.0307C57.1978 12.5582 57.0152 13.8282 56.9696 13.2056C56.9986 14.031 56.9343 14.846 56.7746 15.6548C56.621 16.5422 56.6252 17.4296 56.7849 18.317C56.7476 18.3811 56.5775 17.562 56.5152 18.5487C56.4966 19.2313 56.6127 19.8912 56.8679 20.5241C56.814 21.3826 56.8368 22.2369 56.9364 23.0912C56.9219 24.1234 56.4385 22.0342 56.3825 23.4801C56.1833 24.4751 56.5505 25.77 56.5775 26.9201C56.9032 28.275 56.5837 25.5362 56.6252 24.9591L56.8762 28.8542C57.1355 29.9815 57.094 28.3143 56.9447 27.1745C57.2745 28.7032 57.3202 30.7097 57.148 31.1916C57.3036 32.1556 57.3056 32.6768 57.5089 33.5767C57.5276 32.6541 57.928 32.6665 57.843 31.2371C57.5629 28.9017 57.6313 32.1183 57.3554 30.1346L57.5733 29.9402C57.4343 29.1272 57.37 28.3081 57.3845 27.4827C57.2725 26.978 57.3098 27.6048 57.3098 27.9502C57.1604 26.2912 56.9156 24.986 57.0733 23.7118C57.4861 25.921 57.5276 29.3093 57.9052 30.2566C57.9529 31.746 58.011 33.2374 58.0774 34.7268C57.9674 34.7413 57.6085 33.2188 57.5982 34.491C57.9301 34.975 58.2205 36.2678 58.484 37.9703C58.096 37.3787 58.5732 40.7338 58.2184 39.9085C58.2599 39.4451 58.1604 39.0149 57.9197 38.6156C58.1209 40.2725 57.6708 38.8763 57.7745 39.7885C58.2454 42.8003 57.9467 39.652 58.4653 42.5976C58.5524 41.2861 58.5649 39.9726 58.5047 38.6591C58.6541 38.7542 58.7039 40.3036 58.9487 40.9738C58.6582 40.0243 58.7558 41.6895 58.5794 40.9014C58.7848 43.3071 58.8719 46.1369 59.2661 49.039C59.6312 48.5198 58.8512 44.1097 59.5233 44.9433C59.6644 46.3706 59.4466 46.3975 59.6582 47.529C60.0731 48.4516 60.2162 50.8635 60.5378 52.7935L60.2577 51.964C60.3594 52.9548 60.5274 53.9353 60.7639 54.9034L60.7826 54.6717L60.849 55.5239C60.8842 55.6522 60.9008 55.6791 60.9195 55.6749C60.9444 56.6223 61.5066 58.9515 61.768 60.7263C61.5481 60.7656 61.4278 58.9805 61.2452 58.1407C61.1498 57.9214 60.7639 56.3038 60.7577 57.1209C61.1602 59.3156 61.1913 60.8918 61.6933 63.3699L61.4713 62.5922C61.4755 62.7556 61.4879 62.919 61.5108 63.0803C61.768 63.5292 62.0273 63.9843 62.2846 64.4435C62.1539 63.6906 61.9381 62.9066 62.1041 62.7059L62.6766 63.9946C62.7161 64.5759 62.8219 65.1448 62.9941 65.7012L66.805 79.2688L63.5957 74.6042L63.355 72.4116L62.6227 71.3835L62.6787 73.2741L62.6559 73.239L62.5522 71.2842L59.4175 66.8823C58.9964 66.2928 59.0898 66.5803 59.2474 66.9754L60.4942 70.0969L59.8656 69.1846L59.0773 67.0726C59.0005 66.8699 58.9383 66.69 58.8595 66.4872L58.6375 66.57C58.7433 66.7748 58.8367 66.9713 58.9238 67.1574L59.8573 69.1722L58.596 67.3416C58.3056 66.9506 58.038 66.5431 57.7932 66.1232L58.3388 66.7892C58.4612 66.5286 57.9073 65.9329 57.6791 65.6081L58.2662 65.9267C58.2931 65.968 58.3159 66.0073 58.3408 66.0466C58.2765 65.7095 58.2101 65.3744 58.1438 65.0248C58.067 64.8841 57.984 64.7373 57.8886 64.5718C57.7123 64.5387 58.1043 65.0393 58.1562 65.3309C57.6293 64.5883 57.3513 63.6368 56.4738 62.4432C56.8513 63.2065 57.4612 64.4311 56.7289 63.614L56.5298 62.8073C56.1356 62.2529 56.1978 62.5446 56.0422 62.3129C55.4821 61.5248 56.4011 62.3481 55.4946 61.1132C55.3245 60.9539 54.9925 60.565 55.0672 60.7822C54.0735 59.3383 54.6876 60.023 53.8308 58.6164C54.2644 59.2122 54.5631 59.4687 54.6502 59.419C54.7374 59.3673 54.6253 58.995 54.1897 58.3641C52.9097 56.6182 52.1608 55.3274 50.9969 54.349L50.5156 53.4947C50.719 54.1297 49.5821 52.4894 49.1133 51.9867C48.7585 51.9867 51.1878 54.4855 50.8289 54.7669C49.9099 53.6891 50.1879 54.2601 50.385 54.682C49.4473 53.474 50.2709 54.0491 49.9783 53.412C49.8954 53.4781 48.2876 51.4179 48.688 52.266C47.8167 51.2979 47.8789 50.9442 47.2067 50.2533C47.2213 50.4333 47.2275 50.6504 47.0636 50.6753C46.9371 50.4581 46.7794 50.2657 46.5906 50.1002L45.9828 49.5231C46.1736 49.6513 45.8438 49.039 46.5574 49.9161C46.5221 49.5686 44.7484 47.9634 44.9206 47.8869C44.6696 47.9634 43.1738 46.1782 42.2527 45.4191C42.7548 45.0778 43.6551 47.136 44.2796 47.0843C43.317 45.7997 40.4956 43.3174 38.7177 41.4599C36.9606 40.105 38.5787 41.6212 38.0933 41.4868C39.5475 42.9182 40.0724 43.1003 41.2715 44.3972C39.8172 43.1251 37.4522 41.0193 36.4647 39.9871C35.8797 39.4865 35.2325 39.0811 34.5271 38.7708C33.7429 38.3778 33.0168 37.8958 32.3509 37.329C32.7471 37.3414 33.0957 37.4738 33.3986 37.7282C32.8903 37.2732 32.2078 36.8574 31.6144 36.4251C31.3178 36.061 32.6165 36.9794 31.8509 36.2947C31.5107 36.0879 30.8074 35.6059 30.8676 35.8107L30.9983 35.9203C29.0752 34.4144 29.3055 35.277 27.7475 33.8435C27.9383 33.8621 28.2682 34.191 28.7184 34.4351C28.9217 34.4868 28.7848 34.2841 28.4964 34.0028C28.1375 33.6739 27.7599 33.3657 27.3637 33.0781C27.4425 33.2788 26.6335 32.6417 26.036 32.3128C25.5402 32.2466 27.4425 33.2788 27.6521 33.5829L26.0526 32.6024L26.4032 32.7865C25.8659 32.3583 25.3265 31.9611 24.7809 31.5681C25.9551 32.3335 25.4966 31.6819 24.9738 31.3468C23.7374 30.6745 22.4678 30.1181 22.5155 30.4056C22.4761 30.1077 20.9181 29.3961 19.7999 29.0031C21.0591 29.3548 20.0281 28.8521 19.6796 28.6763C19.3539 28.6163 19.0302 28.5625 18.7066 28.5294C18.383 28.4839 18.0593 28.4632 17.7399 28.4487C18.0054 28.4839 18.2585 28.5563 18.5012 28.668C18.5572 28.7073 18.4494 28.7114 18.3 28.7073C17.995 28.7114 17.5096 28.7073 17.7233 28.8252C18.2315 29.1417 19.4057 29.3093 20.4243 29.6568C19.6194 29.543 18.8373 29.3382 18.0759 29.0486C17.3955 28.7694 16.6881 28.6535 15.9558 28.7011C15.9558 28.819 16.0968 28.9307 16.8333 28.9721C16.4931 28.9493 16.157 28.908 15.823 28.848C15.5823 28.8356 15.3126 28.8107 15.0367 28.8231C14.7567 28.8376 14.4808 28.8811 14.209 28.9555C14.3418 28.8811 14.5658 28.7921 14.6135 28.7094C14.6654 28.6411 14.5243 28.5356 13.9538 28.6101C13.7132 28.6928 13.4808 28.7942 13.2588 28.9142C13.0369 29.0362 12.8087 29.1231 12.6012 29.2637C12.3523 29.3858 12.095 29.4871 11.8274 29.5658C11.7341 29.6092 11.6345 29.6195 11.5328 29.5968C11.4457 29.5699 11.3565 29.5616 11.2652 29.572C11.0266 29.6092 10.8067 29.6919 10.6034 29.8223C10.8399 29.5885 11.0889 29.3692 11.3544 29.1686C10.9748 29.2141 10.6428 29.363 10.3586 29.6175L9.77983 29.996C9.62424 30.1015 9.50184 30.1594 9.44997 30.116C10.201 29.4954 10.7694 29.3899 11.6137 28.8728C11.8399 28.457 10.4105 29.3279 9.87318 29.5947C9.45412 29.9236 9.19895 30.2029 8.9915 30.389C8.79442 30.5959 8.6741 30.751 8.56207 30.8876C8.26956 31.2661 7.99986 31.6612 7.75507 32.0728C7.89822 32.2238 8.38988 31.7956 8.89815 31.475C9.11805 31.3282 9.3504 31.2061 9.59727 31.1068C9.7985 31.0551 9.93542 31.0737 9.96239 31.2185C9.13672 31.8929 8.41685 32.6665 7.80071 33.5353C7.25925 34.2986 6.83604 35.1219 6.53109 36.0072C5.7552 37.5917 5.56642 37.389 5.41705 37.0435C5.28014 37.3973 5.19093 37.6682 5.12454 37.9082C5.07268 38.1523 5.03949 38.3674 5.00629 38.6115C5.12454 38.3447 5.22412 38.0758 5.35482 37.8172C5.01667 38.7336 4.7532 39.6706 4.56441 40.6283C4.47314 41.0938 4.41297 41.5613 4.38393 42.035C4.34451 42.5335 4.2885 43.0713 4.27398 43.6753C4.25739 45.0468 4.00014 44.5069 3.80098 44.1718L3.81343 45.6901L3.75534 45.4625C3.46906 45.8204 3.75119 47.1732 3.89433 48.1785C4.00429 48.1641 3.9462 47.5435 4.02088 47.5911C4.18478 48.4785 4.50218 49.7879 4.55197 50.5305C4.65777 50.5036 4.75942 49.8499 4.44824 48.8301C4.39638 48.7267 4.36941 48.7867 4.31962 48.6833C4.26568 48.0854 4.25116 47.4856 4.21381 46.8898C4.23042 47.7048 4.37563 48.493 4.65362 49.2604C4.86108 49.7858 5.05816 50.0382 5.18056 49.9844C5.50211 52.0157 4.54575 48.4185 4.9897 50.8283C5.32785 51.5399 5.62866 52.266 5.89213 53.0086C6.15144 53.716 6.45226 54.3718 6.6929 55.0027C6.91903 55.5922 7.19909 56.1528 7.53517 56.6844C7.79656 57.1457 8.12641 57.549 8.5268 57.8945C8.84628 58.5709 9.16784 59.3321 9.58275 60.1678C9.81094 60.5753 10.0578 61.0015 10.3317 61.4483C10.6117 61.9302 10.9229 62.3915 11.2652 62.8321C11.0909 62.9645 12.1739 64.127 11.8191 64.1188C11.4291 63.7257 11.0743 63.3037 10.7528 62.8528C10.4582 62.4225 10.1885 61.9778 9.94787 61.5186C9.701 61.078 9.45827 60.6539 9.19688 60.2588C8.96661 59.8513 8.69276 59.4728 8.37536 59.1294C7.94386 58.2068 8.28201 58.4096 8.15338 57.9648C7.76337 57.1664 7.3692 56.4279 7.19287 56.3824C7.5974 57.3381 7.54346 57.5263 7.53517 57.7704C7.52895 57.9462 7.55799 58.1158 7.62645 58.2792C7.80693 58.6888 8.01439 59.0839 8.24881 59.4645C7.89614 59.0963 7.60155 58.6868 7.36505 58.2358C7.03728 57.609 6.68668 56.9057 6.4481 56.4837C6.48545 56.7796 6.23858 56.5768 5.89005 56.0411C6.03735 56.732 6.58295 58.2089 6.85471 58.995C6.79871 58.6992 7.11819 59.1211 7.04972 58.8915L7.64304 60.1947C7.8422 60.6291 8.03306 61.0759 8.26955 61.4896C8.88155 62.1412 9.14502 62.2405 8.97905 61.7896C9.21555 62.1019 9.46864 62.4867 9.72589 62.8797C9.98106 63.2727 10.2777 63.6513 10.5267 64.0008C11.0391 64.6959 11.4581 65.2172 11.5868 65.1137C12.8771 66.6693 11.01 64.76 10.8586 64.6524L10.954 64.7993L9.65536 63.0865C9.19481 63.1341 11.2299 64.9586 11.1573 65.4592C10.8586 66.1604 13.3107 67.6353 14.3148 68.7399L13.458 67.1533L14.433 68.3034C14.2608 68.02 14.1322 67.718 14.0472 67.3974C13.902 66.9837 13.7069 66.5948 13.4642 66.2287C13.7962 66.6196 14.2048 67.0126 14.6239 67.416L15.8873 68.6303C16.7545 69.3811 17.5283 70.0969 17.9992 70.5581C18.5033 70.7567 18.7771 70.7774 18.717 70.5064C20.0696 72.0661 21.2873 72.364 22.7001 73.3817C23.4158 73.9774 22.9947 73.7685 22.5155 73.5286C22.0342 73.2886 21.5218 72.9783 21.9906 73.4934C22.5632 73.7954 23.0943 74.1595 23.5797 74.5877C23.1773 74.296 22.7582 74.025 22.3267 73.7768C21.696 73.39 20.9969 72.9184 20.4181 72.546C21.2459 73.1542 21.0073 73.2824 21.1774 73.5368L19.7646 72.5419C19.6733 72.8418 21.4388 73.8533 22.0155 74.4263C21.75 73.9175 21.9802 74.0767 21.7313 73.5513C22.3972 74.0954 23.0901 74.6001 23.81 75.0676C24.4842 75.5082 25.1875 75.8971 25.9198 76.2363C26.6086 76.5342 25.4572 75.7916 25.1564 75.5164C25.5464 75.5351 26.3575 76.3914 26.7227 76.3418C26.6127 76.0812 25.9572 75.8495 25.5443 75.5371C26.7766 76.2859 28.0545 76.9665 29.3283 77.6491C29.3739 77.5602 28.4549 76.9975 27.8429 76.6935C29.0296 77.2168 30.0959 77.9201 31.0439 78.8013C32.4194 79.3846 34.023 80.0073 33.6413 79.637C34.2263 79.999 33.772 79.8873 33.716 79.9845C35.5561 80.7974 35.5831 81.2567 36.6763 81.7655L35.7594 81.5649C37.6244 82.1937 36.0291 82.0613 37.67 82.6385C37.4999 82.3282 37.7053 82.1544 38.0642 82.0696C38.2323 82.384 39.3152 82.6571 39.9956 82.9611C39.4853 82.9653 41.3856 83.7906 40.1948 83.4948C41.7133 84.3491 42.5681 84.4029 43.6282 85.1559C42.8606 84.8973 44.9185 85.9502 44.2173 85.8137C45.7546 86.4942 46.9184 86.7176 46.5885 86.3267C46.0471 86.1136 45.1571 85.8323 45.2878 85.6937L48.0843 86.9431C48.8228 87.1437 49.7418 87.4892 49.9534 87.3134C50.7418 87.9546 52.6877 88.3083 53.2395 88.9165C52.5902 88.5049 51.8869 88.2318 51.1297 88.0973L51.5467 88.3332C51.4824 88.3042 51.4098 88.2773 51.3144 88.2442L52.3537 89.1668C51.1214 88.8048 52.2603 88.8213 50.609 88.0973C49.0261 87.8284 53.5922 90.0769 52.0093 89.6425C50.7439 89.2206 51.1131 88.9661 50.1671 88.3911L50.4327 88.4986L48.2191 87.3527C48.0594 87.4292 48.7066 87.8305 48.7066 87.8305C45.9433 86.6328 45.4309 86.6514 42.4374 85.4144C42.6739 85.4599 43.4186 85.3338 42.1241 84.6967C41.2155 84.1899 41.0038 84.3698 40.2051 84.0451C40.647 84.4029 41.1408 84.6656 41.6864 84.829L41.5183 85.069C43.6053 86.3556 42.3274 86.1012 45.3148 87.4995C45.3687 87.7519 47.52 88.7944 49.1817 89.4502L48.3104 89.2785C49.8497 90.3479 48.7544 89.1399 50.7853 90.3748C51.8371 90.4183 53.6565 90.7596 52.5798 89.9239C54.1378 90.5444 54.5838 90.9478 55.9385 91.6035C56.9073 91.7194 55.6688 91.0988 55.9593 90.892C56.9405 91.3987 58.1313 92.1186 57.316 91.9262L59.2391 92.7474C59.32 92.7123 58.65 92.3772 58.3844 92.251C59.2578 92.6378 60.0648 93.1301 60.8096 93.7259C60.5585 93.5459 60.2888 93.397 60.0046 93.277C60.7266 93.7279 61.4215 94.2202 62.0875 94.7539C61.0481 94.0175 60.7784 94.274 59.7038 93.4735C59.7681 93.5997 59.8885 93.8582 60.517 94.1458C59.4715 93.7838 58.5027 93.2832 58.0006 93.2604C58.5587 93.4321 59.0503 93.7176 59.4735 94.1189C58.5524 93.7072 57.6645 93.2294 56.8119 92.6875C56.5588 92.9419 54.1731 91.4029 54.6772 91.9573C54.1378 91.6159 53.5632 91.3491 52.9532 91.1567C52.9408 91.3222 54.3722 92.0565 54.9116 92.5178C57.7268 94.0527 54.9739 92.2593 55.6937 92.4806C56.4281 92.8405 57.1625 93.1984 57.8824 93.579C57.6396 93.5149 58.6458 94.2389 57.231 93.5045C58.1479 94.2699 59.1624 94.8677 60.2764 95.3C60.4839 95.5255 59.6852 95.0808 59.4321 94.9546C59.6354 95.18 60.8054 96.2247 59.0317 95.3435C59.5399 95.5958 58.2579 94.7457 59.2163 95.118C58.5317 94.7105 56.5277 93.8851 57.2061 94.4395C56.3762 93.9431 54.7851 93.0453 54.0839 92.6606C53.808 92.7061 54.673 93.0122 55.0008 93.2542C54.1772 92.8198 53.3391 92.4082 52.501 91.9883L53.3038 92.1641C51.3849 91.4153 50.3476 90.5051 48.8705 89.717C48.9701 90.0625 50.2252 90.6437 51.1588 91.2167C50.0675 91.105 50.6069 90.774 49.0033 90.1287C48.771 90.0811 48.688 90.1204 48.7585 90.2424L47.5947 89.4688C47.2731 89.3612 47.352 89.446 47.4764 89.5267C45.5616 88.3766 47.7275 89.2123 44.8978 87.8574C46.7089 88.4821 46.3147 88.6745 47.798 89.2909C48.7336 89.4729 46.2566 88.2277 45.8728 87.936C44.4186 87.3837 44.0825 87.6981 42.3668 86.7135C43.5867 87.3878 42.315 86.9762 44.1177 87.7622C45.072 88.327 43.5348 87.6464 43.2589 87.7043C42.8025 87.452 43.6945 87.5699 42.3502 87.0383L42.3855 87.0982L40.3296 85.8737C38.2385 85.1269 35.9088 83.5341 34.3964 83.1742L34.8424 83.0604L32.7513 82.02C32.046 81.6538 31.3904 81.3001 30.961 81.0519C31.0896 81.3042 31.9153 81.7469 32.7803 82.2372C30.822 81.3332 28.986 80.2307 27.2683 78.9296C28.4342 79.3639 28.5939 79.4363 29.683 79.8687C29.2266 79.4363 28.6976 79.1323 28.096 78.9544C27.3948 78.7206 26.7455 78.3876 26.148 77.9553C25.9509 78.1745 26.5816 78.4869 25.9841 78.4662C25.3203 77.8663 24.0631 77.1134 23.308 76.4494C22.7126 76.3935 23.364 77.1072 25.2082 78.2635C26.7476 78.8882 28.1168 80.1562 29.4299 80.574L28.6209 80.3424C30.0253 81.2049 30.9381 81.5938 32.131 82.3489L32.0999 82.2847C32.2638 82.4792 32.4318 82.6674 32.6019 82.8557C32.3737 82.7481 32.1455 82.6343 31.9194 82.5185C32.5833 83.0853 33.2948 83.59 34.0479 84.0285C31.9422 82.9777 31.9962 82.4854 31.1207 81.7572C30.3801 81.4056 29.6229 81.0995 28.8449 80.8409C28.2226 80.6547 27.6541 80.361 27.1438 79.9597C26.9778 80.0217 25.8742 79.5522 26.6376 80.1355C27.6209 80.8016 28.4508 81.0084 28.4549 81.2442C27.3637 80.6423 27.7164 80.996 26.0858 80.0155C25.8513 79.668 25.5692 79.3639 25.2394 79.1033C24.8079 78.7165 24.283 78.2469 23.7602 77.8084C23.476 77.5912 23.1648 77.374 22.8453 77.1485C22.53 76.9148 22.2043 76.6831 21.8827 76.4618C21.2396 76.017 20.6027 75.6281 20.1339 75.3075C21.2687 76.1763 22.3412 77.1485 21.9305 77.1113C21.528 76.7162 21.0757 76.3935 20.5695 76.1432C20.0966 75.866 19.7792 75.6406 20.0509 75.624C19.3808 75.1214 18.4577 74.4842 17.717 73.9071C16.9764 73.3321 16.3437 72.9184 16.1715 72.9783C16.7399 73.512 17.3353 74.0126 17.9577 74.4801C18.5738 74.9166 19.1713 75.3241 19.692 75.7564C19.3891 75.5392 19.051 75.3841 19.1817 75.5744C19.719 75.9653 20.2542 76.3604 20.8164 76.7141C20.1463 76.3604 19.8684 76.226 19.5613 76.0439C19.0697 75.7398 18.5987 75.4027 18.1506 75.0345C18.2647 75.0862 18.4888 75.1938 18.3539 75.0717C17.9681 74.7842 17.4909 74.4098 17.1237 74.0912L16.8955 74.2732C16.3831 73.752 15.5056 73.1438 14.5907 72.3371C14.1302 71.9399 13.6302 71.5262 13.153 71.0649C12.6863 70.5933 12.2216 70.0969 11.7921 69.5818L11.9187 69.7948C11.3544 69.2756 10.9063 68.6696 10.5744 67.9807C10.4292 67.7077 10.2839 67.4305 10.0848 67.1078C9.88563 66.7872 9.63669 66.419 9.29853 65.9494C9.60557 66.5596 9.3255 66.3942 9.14294 66.3838C8.88985 65.9618 8.58697 65.5771 8.23844 65.2296C7.87332 64.8924 7.53724 64.5304 7.22606 64.1415C8.13471 65.1613 6.95637 63.2127 7.59118 63.9698C7.87332 63.8436 6.47715 61.9302 5.86931 60.8649C5.52493 60.6436 5.96059 61.4896 6.34023 62.2116C6.75721 62.9066 7.09329 63.4941 6.41283 62.8342C6.16182 62.5425 5.98341 62.2136 5.87346 61.8454C5.85893 61.711 5.98963 61.7937 6.24065 62.1474C5.82574 61.4979 5.31332 60.6767 4.80714 59.9072C4.42127 59.2184 3.99806 58.5523 3.53544 57.911C3.46075 57.6897 3.39022 57.4849 3.32799 57.2946C3.26575 57.1022 3.21596 56.9181 3.16409 56.7506C3.05415 56.4155 2.95664 56.1238 2.86951 55.8528C2.67036 55.3295 2.55833 54.7896 2.53136 54.2311C2.84254 55.1702 2.65583 55.3088 3.2533 56.4114L2.98569 55.0523L2.73882 54.4483C2.66621 54.2477 2.59567 54.0532 2.52513 53.8629C2.38199 53.4823 2.23677 53.1244 2.09363 52.7811C1.95256 52.4397 1.80527 52.115 1.69739 51.7944C1.58744 51.4737 1.50031 51.1593 1.42355 50.8552C1.48994 51.2896 1.52728 51.7364 1.62064 52.1646L1.64138 52.0922C1.67872 52.6032 2.26167 54.1939 2.01272 54.078C1.8924 52.8638 1.32605 52.0467 1.1829 50.4581L1.15594 50.5284C0.90699 49.1673 0.705757 47.9841 0.48793 46.9209C0.384201 46.4161 0.338562 45.9073 0.344788 45.3943C0.338562 44.9226 0.390427 44.4593 0.504524 44.0021C0.508675 44.5089 0.749321 45.5122 0.838524 45.1936ZM62.2846 64.2036C62.3053 64.3339 62.3219 64.4518 62.3364 64.5656C62.3821 64.6483 62.4277 64.729 62.4754 64.8117C62.4319 64.6028 62.3696 64.4001 62.2846 64.2036ZM62.4464 65.8274L62.492 67.3788L62.9733 69.0253L62.6186 65.7901C62.5937 65.5585 62.5667 65.3413 62.5356 65.1282L62.407 65.1758C62.4298 65.4343 62.4401 65.6412 62.4464 65.8274ZM62.3613 65.2999C62.3613 65.2668 62.3572 65.2296 62.3572 65.1965L62.3302 65.2047C62.3385 65.2316 62.3489 65.2627 62.3613 65.2999ZM61.9941 65.6619C62.0211 65.7591 62.046 65.8439 62.0647 65.906L62.2991 66.7127L62.2534 65.8667C62.2431 65.6557 62.2244 65.4137 62.2223 65.244L61.9298 65.3537C61.9506 65.4571 61.9713 65.5564 61.992 65.6619H61.9941Z" fill="#FFF5E0"/>
</g>
</svg>
