<svg width="449" height="657" viewBox="0 0 449 657" fill="none" xmlns="http://www.w3.org/2000/svg">
<mask id="mask0_597_1530" style="mask-type:luminance" maskUnits="userSpaceOnUse" x="-320" y="164" width="524" height="493">
<path d="M39.0078 164.54L203.278 449.065L-155.618 656.273L-319.888 371.748L39.0078 164.54Z" fill="white"/>
</mask>
<g mask="url(#mask0_597_1530)">
<path d="M67.0979 524.913C67.3342 525.104 66.1107 526.923 69.0109 524.574C71.1526 522.628 73.1195 520.581 74.9249 518.439C76.6102 516.325 78.1095 514.159 79.4375 511.931C80.7314 509.778 81.8513 507.594 82.8034 505.389C83.6668 503.248 84.389 501.099 84.976 498.951C86.1316 494.708 86.7694 490.527 86.888 486.423C87.0506 482.211 86.8267 478.103 86.2164 474.1C86.4599 474.488 86.6379 474.914 86.7253 475.386C86.1236 470.119 84.8512 465.12 82.9153 460.387C81.0443 455.985 79.4533 451.748 78.1045 447.796C77.2963 446.447 75.2712 442.266 75.1387 443.922C75.7584 445.769 75.0312 446.412 74.4658 446.543C72.7799 443.287 72.6595 442.354 72.7845 441.628C72.9065 440.897 73.1967 440.423 72.0786 438.251C72.6859 436.189 74.1712 440.647 75.2861 440.086L71.5649 434.011C70.1099 430.246 67.6984 427.011 66.5389 423.673C67.1528 425.107 67.7601 423.567 68.4737 426.132C68.2384 425.809 68.2762 426.093 68.0439 425.775C70.485 430.794 70.1536 428.655 72.3334 432.128C71.2262 430.311 70.0114 428.257 68.8686 426.211C67.5687 423.858 66.1738 421.644 65.2905 419.761C64.8927 421.041 63.2991 417.035 62.1187 416.388L62.0621 416.121C61.6977 416.332 60.0735 414.327 59.5434 413.728L60.0263 412.225C58.9111 410.782 59.7812 412.979 58.6793 411.542C58.2652 411.043 57.6651 410.172 56.9443 409.176C56.2276 408.17 55.3902 407.04 54.6455 405.918C53.1531 403.67 51.9939 401.494 52.3118 400.9C50.2998 398.492 49.1638 398.174 47.306 395.545C47.7236 395.562 48.3103 396.107 48.5145 396.107C46.5659 393.287 43.9061 390.482 41.4801 387.576C38.9812 384.712 36.3696 381.99 34.4281 379.367C31.1821 376.253 27.5718 373.467 23.5973 371.01C24.7853 371.89 27.708 374.899 25.2013 373.57C23.4508 372.507 21.822 371.319 20.3354 370.006C21.206 369.949 16.5122 365.876 20.2223 368.548C20.5096 366.824 12.435 362.601 13.5395 361.72C12.4706 361.266 7.34954 357.328 4.86149 356.385C4.85858 355.656 7.99764 358.164 8.29201 357.883L5.7578 356.271L6.04789 355.999C4.58191 354.688 2.81175 353.693 0.758013 353.014C-0.754134 352.6 -2.1622 352.063 -3.47221 351.393L-3.25385 351.351L-5.32546 350.237L-2.30263 350.962C-5.42788 349.016 -7.82633 348.801 -11.4722 346.829L-11.5888 346.374L-13.9645 345.373C-13.5669 345.54 -13.3382 345.499 -13.5042 345.295C-16.2128 344.862 -20.609 341.995 -23.1056 341.592C-24.4349 340.704 -24.7924 339.109 -27.2757 338.713L-26.0662 337.979C-21.1935 340.461 -24.8869 339.601 -19.5434 342.006C-22.1537 338.747 -32.7566 333.326 -39.464 329.553C-42.7929 327.961 -45.9047 326.14 -48.8078 324.108C-50.335 323.146 -51.6494 322.166 -52.9036 321.491C-53.8229 320.909 -54.875 320.501 -56.0599 320.266L-54.9919 320.13L-58.6344 316.834L-61.9823 313.375C-63.4655 311.984 -64.888 310.53 -66.2066 309.038L-68.0116 306.719L-68.9005 305.584C-69.1719 305.198 -69.3996 304.786 -69.6565 304.392C-70.6208 302.806 -71.7111 301.355 -72.4191 299.809C-73.2219 298.317 -74.1198 296.964 -74.7236 295.615L-74.6082 293.796C-75.7365 292.144 -76.5 290.317 -76.8942 288.304C-77.4094 285.847 -77.6229 283.305 -77.5307 280.671C-77.3841 275.319 -76.189 270.017 -76.4808 267.66C-74.5926 263.675 -75.9771 268.886 -75.6765 269.255C-75.0635 267.809 -74.8439 265.866 -74.1733 263.913C-73.9045 262.965 -73.5593 262.014 -73.142 261.071C-72.7421 260.249 -72.2138 259.463 -71.5499 258.711C-71.2052 258.77 -73.2851 262.809 -72.1422 261.001C-71.4586 260.182 -71.018 259.33 -70.8233 258.438C-70.6108 257.46 -70.0887 256.546 -69.2571 255.697C-70.5242 256.616 -68.5445 251.612 -66.1985 248.101C-66.3881 248.412 -66.628 248.704 -66.912 248.986C-67.3224 249.167 -67.0671 248.616 -66.5946 247.836C-66.1251 247.05 -65.3379 246.073 -64.8499 245.353C-64.859 245.54 -64.9312 245.734 -65.0652 245.923C-61.8689 241.225 -58.1962 236.746 -54.043 232.477C-51.967 230.249 -49.6422 228.148 -47.3386 226.011C-44.9147 223.964 -42.4912 221.883 -39.8684 219.98C-34.6562 216.08 -29.1684 212.557 -23.4182 209.404C-17.7392 206.313 -11.9316 203.579 -5.9853 201.203C-7.38143 201.933 -8.7414 202.725 -10.1006 203.468C-6.50436 201.6 -2.80627 200.078 0.98764 198.889L0.507365 199.118C2.72399 198.631 4.88223 197.858 6.99236 196.8C8.76575 195.832 10.5832 195.276 12.4373 195.138L11.4921 195.538C19.0995 193.093 23.6543 192.92 31.0938 190.656C36.9386 189.737 36.2642 190.37 40.2642 190.044C42.0418 189.79 43.7828 189.237 45.4812 188.374L43.859 188.594C42.1372 188.322 47.4664 187.521 49.9248 186.88C48.2411 186.287 49.4174 184.655 42.5557 184.957C37.4208 186.196 37.6681 184.453 31.8125 185.858C28.4906 187.797 23.423 186.931 18.1264 189.523C20.918 187.911 11.727 190.928 16.3368 188.712C13.9493 189.172 11.5966 189.911 9.27698 190.91C6.45294 192.095 3.60112 193.08 0.715487 193.856C1.36068 193.442 1.1635 193.319 2.13863 192.853C-3.63518 195.477 -2.00795 193.835 -6.36824 195.608L-5.98515 196.305C-7.58138 197.227 -8.2428 196.906 -9.67916 197.701C-8.48343 197.247 -5.90916 196.588 -7.11841 197.44C-8.94787 198.496 -10.8092 199.48 -12.7127 200.391C-12.8385 200.123 -11.4021 199.328 -10.428 198.794C-10.428 198.794 -11.5893 199.29 -12.8039 199.762C-13.6855 200.188 -14.5837 200.484 -15.5056 200.654C-13.9641 199.604 -11.8186 198.658 -10.4934 197.586C-16.6979 200.104 -11.0553 197.556 -14.2688 198.319C-13.1037 198.822 -19.4341 201.155 -22.5659 203.137C-23.0618 202.985 -20.3476 201.828 -19.6457 201.159C-22.5833 201.895 -25.3119 203.178 -27.8345 205.003C-30.6889 207.062 -33.6241 209.014 -36.6371 210.865C-36.2143 210.419 -35.7468 210.017 -35.2109 209.665C-36.7464 210.726 -38.321 211.718 -39.9452 212.642C-41.3139 213.335 -42.5153 214.217 -43.5453 215.277C-45.2527 216.444 -45.5888 216.367 -46.1281 216.476C-46.6704 216.581 -47.466 216.852 -49.9106 218.897C-48.8313 218.628 -50.3052 219.779 -51.9883 221.105C-53.6375 222.44 -55.3816 224.031 -55.0385 224.39C-56.4008 225.329 -57.7541 226.285 -59.0476 227.31C-60.3148 228.953 -59.7294 228.99 -59.567 229.356C-59.3544 229.741 -59.7147 230.346 -62.3474 233.327C-67.6574 238.521 -63.4453 231.964 -66.8737 234.896L-67.4898 236.539L-70.1927 239.129L-69.8844 238.687C-71.121 240.417 -73.5346 243.508 -73.8816 243.395C-73.9191 243.027 -72.5111 241.157 -72.5456 240.794C-73.1803 241.849 -73.9361 242.863 -74.7954 243.832C-75.8174 245.041 -76.9008 246.481 -78.0181 247.912C-79.1025 249.283 -80.0464 250.711 -80.8371 252.169C-81.5545 253.3 -81.947 254.438 -82.0207 255.573C-83.2555 257.323 -85.1356 261.052 -85.4295 260.526C-85.7816 262.239 -86.4247 263.953 -87.3399 265.65C-88.211 267.558 -88.8366 269.471 -89.2124 271.379C-89.427 271.057 -90.5011 273.472 -90.7435 275.359C-89.7804 272.785 -89.8624 274.377 -89.8039 276.027C-90.3877 277.776 -90.7968 279.508 -91.0356 281.232C-91.2758 283.173 -91.4724 284.97 -92.0358 285.56C-91.8773 287.214 -91.4363 287.642 -91.0966 287.759C-90.7467 287.877 -90.3646 287.663 -89.9715 287.923C-90.1119 288.707 -90.1964 289.486 -90.2137 290.247L-90.2757 291.689L-90.1944 293.075C-90.1018 294.851 -90.1274 296.271 -90.8172 295.918C-90.8989 295.019 -91.0485 293.582 -91.252 292.489C-91.4555 291.396 -91.5538 290.569 -91.9581 291.081C-92.1263 292.91 -91.8285 293.19 -91.6778 293.451C-91.2273 293.929 -90.9753 294.5 -90.9158 295.175C-91.1748 295.046 -91.3209 297.301 -91.7614 296.909C-91.4416 298.54 -90.6768 300.672 -90.1933 302.974C-90.7593 299.301 -88.6818 304.801 -88.8697 302.523L-90.758 299.606C-91.0074 299.006 -91.1355 298.363 -91.1495 297.682C-91.138 297.349 -91.0536 297.293 -90.9403 297.304C-90.7106 297.332 -90.3826 297.664 -90.3754 296.818C-90.102 298.184 -89.6446 299.464 -88.9856 300.656C-88.6213 301.371 -88.1988 302.053 -87.7252 302.704C-86.4189 304.26 -85.2524 305.91 -84.2067 307.637C-83.7913 308.963 -83.2678 310.24 -82.6465 311.467C-83.8567 309.641 -84.6619 310.586 -84.1866 311.779C-83.5239 312.405 -82.9674 313.1 -82.5142 313.868C-82.0457 314.578 -81.6262 315.255 -81.2753 315.963C-80.6352 317.173 -80.1833 318.478 -79.4288 319.566C-79.8604 318.869 -79.781 318.551 -79.5433 318.525C-79.0308 318.605 -78.5816 318.777 -78.2061 319.041C-73.3199 323.212 -76.8749 321.111 -75.3901 323.447C-73.5306 325.052 -71.9856 326.65 -70.4465 328.037C-68.8843 329.396 -67.5015 330.747 -66.0636 331.942C-64.633 333.14 -63.2064 334.265 -61.7026 335.338C-60.1702 336.359 -58.5648 337.339 -56.7647 338.268L-59.1506 335.499L-60.905 335.524C-62.7808 333.386 -58.8535 334.263 -57.0092 334.68C-56.92 335.171 -52.7168 337.587 -54.7344 336.971L-50.424 339.067C-50.7229 338.398 -53.4439 336.984 -51.2462 337.761C-50.1691 338.802 -46.1554 341.327 -49.1728 340.258C-47.0465 341.5 -44.0669 342.806 -44.153 342.119C-40.648 343.998 -45.3727 342.851 -47.1903 342.244C-44.493 343.852 -45.4335 344.277 -46.4527 344.01L-42.5312 346.038C-43.5547 345.781 -43.8298 346.078 -44.843 345.822C-42.5726 347.482 -40.0189 347.663 -38.4333 349.433L-36.9121 349.341C-30.4683 353.601 -31.237 353.279 -25.0376 356.88L-25.6577 355.839C-20.2374 357.754 -22.9406 358.543 -16.4755 361.913C-12.8726 363.861 -10.4965 365.099 -10.2136 364.107C-8.85575 364.624 -7.91923 365.489 -7.42157 366.704C-4.45112 367.675 -1.92662 369.119 0.151888 371.036C-1.6379 370.107 -3.07376 369.371 -4.64344 368.419C-4.95424 369.413 0.220678 372.165 2.09151 374.361L7.29258 377.091C9.43223 378.34 11.7703 379.696 13.5013 380.624C12.879 379.007 14.2744 378.647 17.4121 380.328C16.5706 380.369 20.1477 383.821 21.439 385.67C20.1547 385.264 23.9306 390.103 20.2665 386.938C19.511 385.781 19.7132 384.802 18.0999 383.674C19.1044 385.919 20.3567 388.02 21.8422 389.987C20.6084 389.517 19.5864 388.841 18.7614 387.967C19.623 388.416 19.4047 387.937 19.5116 387.701C14.7632 384.139 19.2557 389.463 18.0268 389.338C19.3445 390.24 21.4368 392.719 20.8473 391.244C21.6802 394.353 27.8352 397.304 28.8641 400.551C29.0877 400.568 28.2699 398.848 30.0541 400.323C31.224 401.373 31.9493 402.679 32.2342 404.233C33.7442 405.435 35.0403 406.788 36.117 408.316C37.8095 409.85 35.9228 405.589 38.4033 407.664C40.6254 408.718 41.5047 411.571 43.1858 413.439C44.2985 416.275 41.0378 411.284 40.0241 410.471L45.3036 417.107C45.745 418.293 45.3792 418.198 44.7481 417.525C43.8905 416.629 43.1319 415.669 42.4693 414.639C43.9201 417.69 46.6731 421.061 47.9701 421.44C48.9034 422.905 49.723 424.442 50.4127 426.041C49.034 424.562 47.7506 425.469 45.8892 423.003C43.245 418.692 47.8674 423.955 45.7292 420.201L44.7703 420.358C44.0201 418.739 42.9698 417.307 41.6181 416.076C41.1658 415.057 42.0241 416.106 42.5666 416.642C40.3968 413.776 39.2556 411.109 36.6915 409.563C38.9211 413.863 44.0269 419.222 44.2217 421.579C46.3153 424.044 48.4046 426.518 50.3061 429.122C50.6633 428.915 49.5786 425.673 51.4578 427.733C51.0737 429.256 52.1835 431.885 53.6979 435.282C54.08 433.503 57.3012 440.076 57.2643 437.975C56.4696 437.272 56.1789 436.348 56.3847 435.206C58.0842 438.385 57.5373 435.132 58.495 436.875C59.8878 439.877 59.7016 439.908 59.4845 439.935C59.2674 439.963 59.0588 439.973 60.198 443.023C59.6767 442.524 58.8465 441.591 57.8193 440.452C56.785 439.316 55.618 437.952 54.5921 436.478C54.2577 436.942 56.2808 439.621 56.4503 441.228C56.0305 439.07 58.0811 442.033 57.5184 440.368L61.9353 447.53C63.511 450.057 64.8803 452.85 66.1922 455.745C64.3126 455.536 61.1 446.336 60.0016 449.113C61.4463 451.834 62.1336 451.493 62.9516 453.852C63.1025 455.595 63.569 457.211 64.3525 458.686C65.1162 460.631 66.087 462.784 66.7868 464.787L66.6501 462.8C67.5969 464.709 68.2487 466.747 68.5981 468.917L68.2563 468.544C68.5181 469.082 68.8121 469.608 69.0417 470.157C69.0649 470.45 69.0265 470.535 68.9694 470.554C69.9842 472.278 70.5462 477.442 71.1484 481.179C71.9694 480.934 70.7731 477.381 70.5079 475.558C70.6075 475.007 70.2261 471.401 71.1022 472.884C72.0733 477.563 73.4435 480.626 73.4912 486.213L73.6904 484.386C74.1514 486.548 74.1731 488.825 73.7672 491.202C72.6788 496.151 73.0819 487.827 72.3191 490.848C72.1045 489.803 72.0495 488.715 72.1468 487.587C72.184 486.474 72.0551 485.56 71.5699 485.444C71.2383 486.519 70.9108 487.584 70.4731 488.644C70.7261 489.806 70.6684 491.036 70.3075 492.33C70.0292 493.548 69.6968 494.672 69.5732 495.502C69.873 494.876 70.1317 494.247 70.3491 493.614C71.1932 493.864 70.2031 495.667 69.9212 496.525L71.376 495.157C72.0555 492.378 71.1545 490.7 71.93 488.575C71.98 490.042 72.1369 491.475 72.4005 492.875C72.6457 494.528 72.4996 496.261 71.9738 498.061C71.7084 498.207 71.747 497.92 71.8253 497.534C71.9165 497.12 71.9197 496.721 71.8452 496.34C71.5372 497.422 71.3201 498.494 71.1866 499.559C71.0133 500.925 70.5697 502.294 69.8557 503.667C70.0923 502.73 70.2629 501.797 70.3631 500.876C70.3049 500.186 70.115 500.059 69.4169 501.207L69.651 502.908C68.9513 504.356 68.8764 503.738 68.5804 504.319C67.4236 506.288 69.6862 503.945 67.8996 507.113C67.4974 507.561 66.6497 508.516 66.7532 508.039C64.58 511.513 65.9719 509.749 63.9818 513.069C66.1174 510.271 67.4279 510.453 65.168 513.609C61.5244 517.751 58.4533 520.595 54.6439 522.043L52.6383 523.737C53.1907 522.994 52.413 523.498 51.2042 524.064C50.0005 524.689 48.7711 525.253 47.5231 525.751C47.1807 525.545 49.1229 524.667 51.0945 523.689C53.0283 522.628 54.8955 521.334 54.554 520.878C51.3773 522.58 52.5886 521.463 53.3735 520.634C50.1697 522.609 52.5918 522.108 51.2751 523.362C50.288 523.605 49.326 523.959 48.3848 524.432C47.1033 524.957 46.0165 525.111 47.0476 524.439C45.9169 524.821 44.832 525.315 43.7915 525.936C42.8927 526.4 41.9599 526.736 41.0075 526.938C41.372 526.526 41.769 526.019 41.535 525.681C40.9411 525.982 40.3337 526.159 39.7171 526.202L37.6408 526.426C38.194 526.476 36.4496 527.309 39.3151 526.566C38.1076 527.117 36.8923 527.436 35.6693 527.523C34.08 527.682 32.592 527.832 32.622 528.086C32.4859 527.496 26.3808 528.301 23.4327 527.874C23.2538 528.742 24.7595 528.59 26.3294 528.414C27.9115 528.259 29.5708 527.85 29.8998 528.572C26.6686 529.018 23.5381 529.1 20.5143 528.828C16.7396 528.67 12.7377 528.135 9.31033 528.006C3.96688 526.645 9.67146 527.352 8.87789 526.516C14.0913 527.096 15.1383 527.765 19.7539 527.848L11.1171 526.691C8.05738 526.273 5.12734 525.878 3.24143 525.742C-1.98532 524.634 -1.36829 522.74 -7.80426 521.44C-7.3305 522.21 -7.52604 522.309 -5.74945 523.029C-7.62294 522.629 -9.41419 522.119 -11.1481 521.506C-12.4793 521.523 -8.63431 522.712 -11.3339 522.295C-12.2431 521.915 -14.2732 521.244 -13.6213 520.993L-13.1736 521.061C-19.4747 519.843 -16.6362 518.531 -22.4606 518.088C-22.2346 518.479 -20.8785 518.455 -19.7365 518.985C-19.0449 519.678 -22.6177 519.348 -25.1055 518.843C-24.4403 518.598 -27.1429 518.175 -28.7326 517.577C-29.4379 516.641 -24.4403 518.598 -23.3303 518.416L-27.8662 517.007L-26.9674 517.385L-32.352 516.542C-28.7403 517.345 -31.184 517.774 -32.7557 517.409C-36.15 516.293 -39.5546 515.177 -38.6852 514.612C-39.5546 515.177 -43.8473 513.919 -47.0083 513.191C-43.8289 514.389 -46.9793 513.898 -48.0969 513.847L-52.6545 511.727C-47.2382 513.045 -53.3598 510.791 -51.8095 510.682C-49.8088 510.411 -46.8516 511.695 -44.1276 512.592C-48.7245 509.764 -52.2328 511.094 -56.5679 509.123C-56.3534 508.804 -55.6912 508.554 -53.6538 509.222C-54.3451 508.765 -58.3755 508.601 -61.3327 507.317C-60.6457 507.783 -59.2556 508.928 -62.6212 508.283L-66.2876 506.309C-71.0491 504.745 -68.5032 506.663 -72.7746 505.88L-70.4932 507.172C-71.3596 507.742 -75.9245 505.626 -76.5508 506.342C-74.0729 507.082 -72.2798 506.889 -69.8016 507.865C-69.3008 508.884 -73.3924 507.301 -75.1653 507.26C-77.9129 506.356 -80.4973 505.246 -82.9156 503.936C-82.3004 502.746 -75.2948 504.427 -75.162 502.688C-80.8575 501.475 -86.3532 499.951 -91.6416 498.114C-96.5995 497.101 -96.7747 498.127 -96.5201 498.989C-97.9908 498.697 -99.355 498.253 -100.601 497.644L-98.1341 497.91C-104.245 496.617 -107.872 496.025 -114.343 494.53C-118.167 493.948 -117.067 494.962 -116.507 495.696C-117.847 495.446 -119.229 495.257 -120.596 495.044L-120.065 495.308C-121.375 495.883 -124.827 495.038 -127.631 494.743C-127.484 494.408 -125.734 494.511 -125.798 494.298C-128.445 493.704 -131.26 493.541 -134.258 493.818C-134.158 493.503 -132.061 492.758 -129.1 493.226C-128.817 493.327 -129.028 493.435 -128.742 493.541C-126.995 493.555 -125.243 493.594 -123.526 493.688C-129.435 493.301 -132.754 492.434 -132.311 491.636C-138.615 491.86 -127.642 492.586 -135.031 492.699C-139.409 492.033 -144.024 492.221 -148.88 493.271C-152.644 494.241 -156.382 494.903 -160.09 495.248C-161.297 495.799 -162.546 496.43 -163.849 497.085C-165.138 497.815 -166.509 498.488 -167.903 499.356C-171.064 501.202 -174.115 503.207 -177.055 505.37C-176.847 505.612 -177.928 506.417 -178.839 507.263C-179.75 508.109 -180.549 508.911 -179.96 508.905C-176.829 506.687 -174.109 504.546 -171.329 502.628C-168.716 500.674 -165.865 499.3 -162.786 498.523C-159.754 497.058 -160.901 496.907 -159.529 496.101C-156.698 495.029 -153.976 494.425 -153.6 494.688C-156.882 495.804 -157.267 496.332 -157.873 496.883C-158.475 497.44 -159.295 497.92 -163.248 499.541C-161.729 499.242 -160.216 498.8 -158.718 498.213C-156.77 497.548 -154.814 496.996 -152.848 496.564C-153.686 497.048 -152.808 497.188 -150.996 497.011C-153.881 498.176 -156.713 499.463 -159.502 500.878C-158.774 500.305 -160.247 500.682 -159.626 500.275C-162.168 501.513 -164.629 502.906 -166.989 504.457C-169.396 505.304 -170.229 505.36 -169.165 504.357C-171.57 505.662 -173.806 507.175 -175.873 508.897C-176.864 509.706 -177.694 510.456 -178.369 510.937C-179.015 511.435 -179.455 511.716 -179.658 511.583C-183.792 515.835 -177.907 510.51 -177.226 510.492L-177.576 510.847C-176.017 509.474 -174.362 508.199 -172.605 507.017C-172.314 507.134 -172.542 507.412 -173.064 507.804C-173.582 508.187 -174.333 508.738 -175.152 509.288C-176.754 510.435 -178.467 511.828 -178.367 512.473C-178.136 512.924 -178.422 513.472 -179.019 514.088C-179.744 514.868 -180.532 515.608 -181.374 516.303C-183.391 517.961 -184.934 519.833 -185.996 521.915C-185.909 521.224 -185.871 520.5 -185.705 519.777L-185.15 517.558C-185.845 518.759 -186.456 519.975 -186.966 521.195C-186.835 520.361 -186.782 519.544 -186.799 518.74C-186.773 517.59 -186.397 516.441 -185.668 515.297C-186.765 516.661 -187.773 518.063 -188.689 519.49C-189.607 521.014 -190.398 522.556 -191.062 524.116C-191.678 525.557 -192.159 526.996 -192.512 528.439C-192.742 529.538 -192.881 530.627 -192.922 531.701C-193.608 533.121 -194.209 533.864 -194.773 533.376C-194.43 535.536 -194.253 537.744 -194.243 539.999L-194.074 542.935C-193.945 543.967 -193.715 544.954 -193.403 545.915C-192.224 547.857 -192.456 546.697 -192.688 545.404C-192.845 544.055 -193.009 542.592 -192.088 543.952C-192.052 544.856 -191.818 545.682 -191.383 546.418C-191.038 547.151 -190.612 547.838 -190.114 548.482C-190.833 547.388 -191.332 546.187 -191.628 544.883C-191.827 544.017 -192.041 543.09 -192.211 542.173L-192.543 539.477C-192.038 541.884 -191.241 541.278 -190.73 541.776C-190.969 540.453 -191.276 539.163 -191.344 537.783C-190.794 537.743 -190.643 538.964 -190.328 540.334C-190.152 541.666 -189.746 542.892 -189.094 544.004C-190.405 543.349 -190.223 543.967 -191.519 543.255C-190.16 546.45 -187.749 550.895 -186.564 553.571C-185.935 555.198 -187.837 552.678 -188.556 552.022C-188.747 553.071 -186.312 554.664 -186.6 555.645C-187.486 555.592 -187.888 553.953 -188.735 553.058C-186.98 555.947 -184.933 558.634 -182.589 561.128C-182.894 561.374 -184.818 559.625 -185.702 558.278C-184.16 560.915 -181.771 562.798 -178.538 563.937C-176.318 566.503 -173.789 569.419 -175.125 569.056C-173.755 569.914 -174.261 568.989 -173.953 568.713C-170.659 571.828 -169.189 571.209 -167.15 572.989L-168.099 571.143C-165.443 574.549 -166.342 571.005 -163.982 573.998C-165.047 574.056 -165.576 574.807 -165.791 575.78C-164.709 575.719 -163.551 577.826 -162.475 579C-162.501 577.776 -159.588 581.139 -160.675 578.733C-157.699 581.196 -157.595 583.16 -155.337 584.932C-155.688 584.14 -155.057 584.694 -154.445 585.3C-153.825 585.903 -153.181 586.547 -153.277 585.74C-151.51 588.97 -151.886 591.803 -152.926 591.179C-153.146 589.991 -153.659 588.04 -154.199 588.47C-153.274 590.357 -152.637 592.369 -152.293 594.515C-152.42 595.388 -152.518 596.363 -152.66 597.162C-152.873 597.987 -153.175 598.642 -153.606 598.856C-153.26 600.145 -153.364 601.513 -153.915 602.965C-154.165 603.694 -154.377 604.422 -154.533 605.145C-154.732 605.726 -154.765 606.274 -154.643 606.788C-154.636 606.262 -154.548 605.724 -154.379 605.174C-154.28 604.707 -154.133 604.239 -153.926 603.772C-153.574 603.102 -153.273 602.428 -153.032 601.752C-153.037 602.096 -152.994 602.44 -153.035 602.791L-152.9 602.233C-152.575 603.166 -152.362 604.142 -152.099 605.152C-151.46 603.649 -151.678 603.524 -151.926 603.264C-152.163 603.004 -152.41 602.611 -152.155 600.578C-151.219 598.681 -150.919 600.581 -150.803 602.616C-150.823 603.643 -150.839 604.675 -150.778 605.217C-150.769 605.755 -150.534 605.793 -150.051 604.777C-148.83 601.455 -150.337 602.145 -150.478 599.645L-150.599 600.327C-150.57 598.425 -150.74 596.582 -151.112 594.793C-150.657 594.385 -150.154 595.98 -150.154 595.98C-150.253 593.469 -150.587 591.039 -151.149 588.685C-151.796 586.185 -152.804 583.866 -154.174 581.728C-154.074 582.289 -154.598 584.192 -156.604 581.795C-158.233 580.203 -157.667 579.501 -158.812 578.005C-157.552 578.572 -156.652 579.423 -156.11 580.564L-155.278 579.868C-154.15 580.879 -152.871 581.748 -151.444 582.469C-150.864 582.816 -150.382 583.247 -150.012 583.771C-149.175 584.832 -148.493 585.997 -147.96 587.24C-146.956 588.122 -146.348 589.225 -146.144 590.554C-145.822 591.634 -145.624 592.751 -145.554 593.915C-145.435 595.098 -145.443 596.314 -145.581 597.555C-145.336 596.767 -145.051 595.948 -144.846 595.141C-144.246 597.41 -144.554 597.735 -144.852 598.178C-145.143 598.617 -145.494 599.237 -145.51 602.357L-147.049 604.657C-147.543 605.367 -148.094 606.047 -148.715 606.704C-149.734 607.766 -150.454 608.001 -150.454 606.352C-152.216 610.486 -152.236 612.001 -154.633 615.694C-156.994 617.614 -154.913 614.283 -156.137 614.468C-157.536 616.994 -159.999 620.1 -157.926 618.59C-158.661 619.321 -159.452 620.021 -160.199 620.731C-160.989 621.416 -161.859 622.03 -162.669 622.664C-162.937 622.638 -161.256 621.223 -160.609 620.661C-162.436 622.175 -165.873 625.21 -167.12 626.048C-166.671 625.747 -165.319 624.89 -164.705 624.557C-165.282 625.056 -165.903 625.512 -166.561 625.92C-167.258 626.413 -167.966 626.871 -168.696 627.306C-169.665 627.782 -170.588 628.322 -171.472 628.929C-170.192 628.267 -168.873 627.707 -167.532 627.253C-166.95 627.015 -166.391 626.754 -165.832 626.46C-165.491 626.276 -165.151 626.073 -164.824 625.85C-164.493 625.582 -164.124 625.278 -163.722 624.914C-163.894 625.271 -164.174 626.184 -166.306 627.171C-164.653 626.516 -163.071 625.687 -161.579 624.686C-160.573 623.903 -159.5 623.221 -158.351 622.635C-159.458 623.378 -160.46 624.2 -161.373 625.11C-162.124 625.78 -162.582 626.315 -162.837 626.546C-162.077 626.079 -161.342 625.585 -160.628 625.055C-159.874 624.425 -159.08 623.73 -158.321 623.041C-157.651 622.383 -157.024 621.701 -156.444 620.99C-155.996 620.503 -155.605 619.985 -155.282 619.45C-154.73 619.514 -152.958 617.433 -151.964 615.67C-150.817 613.936 -150.265 612.553 -150.451 614.15C-150.321 613.365 -150.029 612.591 -149.576 611.828C-149.011 610.737 -148.495 609.493 -147.967 608.638C-147.747 608.734 -148.029 609.878 -148.42 611.272L-149.906 615.33C-150.579 616.47 -151.083 617.332 -151.506 617.945C-151.804 618.354 -152.127 618.755 -152.478 619.139C-152.863 619.549 -152.794 619.266 -152.592 618.774C-152.112 617.787 -151.438 615.958 -152.263 616.921C-152.988 618.021 -153.904 619.093 -154.728 620.174C-155.678 621.223 -156.637 622.271 -157.677 623.282C-157.278 623.03 -157.812 623.721 -157.905 623.998C-157.951 624.136 -157.885 624.167 -157.531 623.921C-156.794 623.363 -156.148 622.747 -155.582 622.079C-155.975 622.779 -156.452 623.451 -157.023 624.094C-158.558 625.913 -160.4 627.47 -162.545 628.771C-163.673 629.443 -164.834 630.023 -166.038 630.53C-166.945 631.332 -163.712 629.542 -162.728 628.974C-163.555 629.681 -164.335 630.417 -165.093 631.174C-165.337 631.475 -165.335 631.648 -164.787 631.485C-163.726 631.101 -162.714 630.615 -161.751 630.01C-162.148 630.149 -158.7 627.351 -161.952 629.242C-161.29 628.756 -160.329 628.097 -159.293 627.401C-158.259 626.7 -157.301 625.868 -156.411 625.222C-155.513 624.572 -154.846 624.027 -154.496 623.825C-154.142 623.613 -154.084 623.747 -154.567 624.443C-153.93 623.728 -153.162 622.853 -152.36 621.903C-151.595 620.939 -150.905 619.894 -150.181 618.877C-149.07 617.165 -148.092 615.424 -147.268 613.654C-146.827 613.358 -147.041 613.878 -147.428 614.623C-147.811 615.373 -148.508 616.353 -148.77 616.977C-148.346 616.281 -147.89 615.572 -147.505 614.876L-146.457 612.769C-145.791 611.382 -145.206 609.987 -144.719 608.593L-146.307 610.908C-145.573 609.538 -145.028 608.159 -144.662 606.772C-144.504 606.138 -144.364 605.521 -144.24 604.928C-144.151 604.341 -144.112 603.769 -144.074 603.211L-143.989 601.576L-144.067 599.993L-144.124 598.412L-144.263 596.808C-143.251 597.198 -143.412 600.992 -143.808 604.094C-141.955 601.007 -143.799 602.141 -143.146 597.346C-142.939 596.677 -142.695 596.46 -142.405 596.71L-142.772 594.897L-143.318 593.16C-143.28 592.282 -143.118 592.446 -143.004 592.777C-143.169 591.953 -143.485 591.204 -143.943 590.529C-144.068 590.329 -144.258 590.203 -144.516 590.143C-144.853 590.046 -144.949 589.51 -146.515 585.905C-146.178 587.012 -146.009 587.909 -145.757 588.515L-145.12 590.005C-144.496 591.119 -144.18 592.356 -144.173 593.716C-144.46 595.036 -144.851 593.905 -145.248 592.375C-145.623 591.019 -146.164 589.745 -146.847 588.546C-147.249 586.621 -147.321 585.57 -147.466 584.325C-147.724 582.902 -148.334 581.661 -149.299 580.611C-147.713 582.298 -148.522 579.988 -146.473 583.857C-144.921 586.057 -146.606 582.347 -146.41 581.594C-147.204 580.605 -146.91 582.815 -148.57 579.787L-148.363 579.827C-149.003 579.104 -149.697 578.441 -150.407 577.8C-151.102 577.136 -151.827 576.519 -152.572 575.919C-155.338 571.533 -161.545 568.458 -163.161 565.44L-163.413 566.67C-165.857 564.658 -169.249 561.83 -171.041 560.527C-170.179 560.454 -168.593 561.771 -166.748 563.065C-170.244 559.955 -173.998 557.072 -178.003 554.41C-177.209 556.088 -176.254 557.658 -175.114 559.129C-176.579 558.611 -177.579 557.72 -178.116 556.437C-178.753 554.996 -179.673 553.739 -180.868 552.662C-180.039 551.961 -179.281 553.207 -179.075 551.745C-180.867 550.762 -182.389 548.127 -183.944 546.646C-183.468 545.146 -182 546.511 -179.354 550.034C-178.129 553.3 -174.218 555.008 -172.77 557.532L-173.523 555.908C-171.34 557.854 -169.007 559.673 -166.528 561.358L-166.741 561.377L-164.746 561.7L-166.02 560.606C-163.985 561.302 -162.131 562.208 -160.446 563.308C-164.558 559.957 -166.115 560.862 -168.684 559.862C-172.056 556.765 -171.902 554.373 -174.548 552.888C-174.331 552.422 -175.396 550.324 -173.798 551.46C-173.071 552.112 -172.397 552.808 -171.786 553.548C-171.269 554.105 -170.903 554.437 -170.531 554.291C-171.105 553.801 -171.58 553.248 -171.966 552.629C-172.574 551.811 -173.238 551.033 -173.964 550.297C-175.225 550.35 -177.719 548.708 -179.813 546.849C-181.758 544.674 -183.001 542.135 -183.538 539.218C-182.705 541.839 -180.553 543.832 -180.26 542.877C-181.053 542.124 -181.503 541.194 -181.611 540.081C-181.783 539.06 -181.915 538.343 -182.413 538.978C-182.675 538.239 -182.793 537.327 -183.006 536.42C-183.147 535.52 -183.22 534.602 -183.236 533.665C-183.215 531.9 -182.808 530.468 -182.242 530.218C-182.352 532.974 -182.081 535.614 -181.43 538.139C-181.605 537.482 -181.433 536.736 -181.097 537.015C-181.02 537.604 -180.83 538.169 -180.665 538.741C-180.507 539.318 -180.349 539.895 -180.113 540.454C-180.199 538.521 -180.449 536.641 -180.852 534.814C-180.918 535.054 -181.039 535.534 -181.142 535.239C-181.257 534.415 -181.416 533.366 -181.421 532.534L-180.409 532.165C-180.637 530.592 -180.45 528.947 -179.842 527.239C-179.121 525.222 -178.282 523.208 -177.34 521.203L-177.388 521.592C-176.594 520.459 -176.03 519.298 -175.695 518.11C-175.253 516.672 -174.369 515.375 -173.031 514.207C-173.859 515.366 -173.074 515.143 -172.597 515.229C-171.961 514.445 -171.166 513.819 -170.212 513.351C-169.388 512.876 -168.445 512.54 -167.355 511.952C-170.051 513.175 -166.15 510.185 -168.075 511.143C-168.378 510.838 -167.336 510 -165.876 509.06C-165.124 508.612 -164.252 508.171 -163.429 507.744C-162.566 507.371 -161.739 507.019 -161.063 506.726C-160.127 506.882 -162.153 507.884 -163.752 508.835C-165.361 509.785 -166.57 510.636 -164.556 510.135C-162.127 508.99 -161.625 508.192 -163.483 508.847C-162.699 508.471 -161.766 508.134 -160.813 507.73C-159.845 507.387 -158.831 507.024 -157.843 506.732C-156.128 506.201 -154.44 505.908 -152.77 505.855C-151.259 505.191 -149.724 504.667 -148.172 504.293C-146.912 504.018 -145.682 503.607 -144.464 503.057C-145.264 503.136 -146.068 503.342 -146.867 503.692C-147.782 503.991 -148.678 504.14 -149.557 504.132C-148.541 503.671 -147.511 503.25 -146.467 502.87C-143.042 502.59 -139.756 502.711 -136.629 503.229C-137.643 503.307 -138.653 503.41 -139.654 503.543L-139.477 503.412C-140.688 503.722 -144.35 503.742 -144.073 504.34C-141.282 503.418 -139.434 504.076 -135.827 503.691L-136.007 503.817C-129.66 503.533 -126.304 506.215 -121.663 505.449C-122.763 505.228 -124.615 504.224 -123.77 504.056C-122.596 504.659 -118.844 505.366 -119.241 505.79L-120.56 505.661C-117.235 506.538 -115.24 507.181 -113.911 507.346C-112.622 507.054 -113.318 506.371 -110.657 506.755C-104.828 508.788 -113.929 507.315 -110.128 508.933L-104.075 509.974L-103.147 510.823C-94.9913 513.74 -87.3812 513.993 -78.3378 516.578C-78.7457 517.454 -85.5228 515.933 -87.7708 515.338C-85.4685 516.869 -80.7828 517.023 -77.3671 518.613C-73.9595 519.734 -70.8409 519.75 -71.0848 519.125C-66.5879 520.063 -68.3527 520.491 -67.8973 520.791C-65.894 520.289 -60.6845 522.158 -57.086 522.954L-57.2692 523.512L-51.4235 524.43C-52.7834 523.976 -51.23 523.873 -51.0228 523.558L-49.669 524.001C-54.0408 521.091 -62.2669 521.555 -66.6567 518.412C-64.8598 518.697 -66.9109 517.787 -65.1067 518.067C-63.7499 518.515 -63.5243 518.67 -63.5136 518.908C-62.4007 518.731 -59.9339 518.998 -62.8728 518.183C-62.0218 517.149 -56.3542 519.088 -52.0829 519.871C-49.3444 521.483 -56.0996 519.949 -58.108 519.989C-56.258 520.18 -54.5287 520.566 -52.9172 521.152L-54.0015 521.799C-48.1481 522.949 -52.0111 521.527 -50.2359 521.1C-48.0414 520.508 -45.2596 522.582 -43.6879 522.948L-45.4848 522.664C-41.3963 524.241 -39.8643 523.663 -36.0223 524.847L-34.6231 526.008C-38.9689 523.8 -41.3386 525.418 -43.8554 524.207C-37.25 526.996 -46.4789 525.436 -49.1632 525.483C-46.5033 526 -44.0828 526.843 -41.9132 528.025C-36.7519 528.245 -32.8381 531.086 -27.708 531.067C-25.4451 531.889 -30.1641 531.038 -27.676 531.779C-22.9391 533.267 -18.0243 534.458 -12.9253 535.361C-10.3269 536.108 -10.9981 536.343 -10.4763 536.876C-5.37236 538.445 0.0695513 539.387 5.85246 539.707C11.065 540.017 16.3708 540.369 24.726 540.416C23.8354 540.624 22.9662 540.785 22.1098 540.917C23.7039 540.985 25.3187 540.971 26.9661 540.862C28.19 540.844 29.4328 540.606 30.6929 540.129C32.8648 540.642 37.0118 539.897 41.3668 538.586L44.643 537.578C45.7244 537.246 46.8201 536.787 47.8572 536.446C48.9042 536.071 49.9199 535.777 50.8885 535.468C51.7934 535.134 52.7036 534.859 53.6234 534.634C62.0512 530.749 61.7702 529.269 67.0979 524.913Z" fill="#FFF5E0"/>
</g>
</svg>
