<svg width="595" height="400" viewBox="0 0 595 400" fill="none" xmlns="http://www.w3.org/2000/svg">
<mask id="mask0_597_1508" style="mask-type:luminance" maskUnits="userSpaceOnUse" x="284" y="18" width="436" height="356">
<path d="M284.914 346.594L306.361 18.754L719.895 45.807L698.448 373.647L284.914 346.594Z" fill="white"/>
</mask>
<g mask="url(#mask0_597_1508)">
<path d="M461.731 31.3272C461.64 31.0375 463.668 30.2041 459.952 30.5466C457.09 30.9753 454.317 31.5849 451.626 32.3629C449.051 33.1846 446.601 34.1535 444.259 35.2683C441.987 36.3393 439.843 37.5335 437.826 38.8386C435.919 40.1388 434.125 41.5249 432.444 42.9848C429.126 45.8713 426.273 48.9936 423.895 52.3401C421.42 55.7527 419.324 59.2928 417.608 62.9604C417.621 62.5023 417.71 62.0492 417.899 61.6087C415.474 66.3228 413.756 71.1857 412.736 76.1971C411.847 80.8969 410.816 85.3037 409.742 89.3393C409.665 90.9102 409.027 95.5117 410.057 94.2084C410.568 92.3278 411.529 92.1975 412.072 92.4021C411.665 96.0466 411.248 96.8887 410.74 97.4231C410.233 97.9635 409.728 98.1962 409.451 100.624C407.801 102.001 409.042 97.469 407.804 97.3155L407.524 104.434C406.642 108.374 406.85 112.403 405.96 115.822C406.246 114.289 404.886 115.233 405.717 112.703C405.734 113.102 405.86 112.845 405.876 113.239C406.635 107.709 405.722 109.672 405.838 105.574C405.75 107.699 405.619 110.082 405.432 112.419C405.207 115.097 405.137 117.713 404.825 119.769C405.867 118.926 404.967 123.142 405.589 124.336L405.488 124.589C405.908 124.616 406.145 127.186 406.253 127.978L405.017 128.96C405.142 130.779 405.639 128.469 405.757 130.276C405.825 130.921 405.84 131.978 405.886 133.207C405.923 134.441 405.992 135.847 405.988 137.193C405.98 139.891 405.735 142.345 405.141 142.662C405.477 145.782 406.244 146.677 406.329 149.895C405.991 149.65 405.806 148.871 405.636 148.757C405.69 152.184 406.343 155.995 406.747 159.758C407.234 163.528 407.893 167.242 408.051 170.501C409.021 174.894 410.475 179.216 412.415 183.466C411.916 182.075 411.157 177.95 412.503 180.447C413.369 182.303 414.063 184.196 414.57 186.113C413.814 185.677 415.455 191.672 413.854 187.389C412.657 188.663 417.026 196.659 415.618 196.779C416.255 197.75 418.326 203.869 419.871 206.035C419.468 206.643 418.251 202.814 417.85 202.884L419.062 205.632L418.67 205.697C419.161 207.601 420.08 209.412 421.411 211.118C422.438 212.302 423.311 213.53 424.028 214.815L423.823 214.729L424.927 216.806L422.816 214.524C424.334 217.878 426.209 219.39 428.145 223.055L427.989 223.497L429.409 225.649C429.171 225.289 428.958 225.197 428.983 225.458C430.995 227.323 433.057 232.149 434.91 233.87C435.522 235.348 434.933 236.873 436.778 238.582L435.365 238.519C432.691 233.749 435.285 236.516 432.177 231.548C432.538 235.708 438.344 246.105 441.825 252.968C443.709 256.141 445.285 259.384 446.57 262.686C447.306 264.334 447.854 265.88 448.523 267.137C448.964 268.132 449.612 269.056 450.467 269.909L449.503 269.429L450.701 274.193L451.564 278.929C452.024 280.91 452.4 282.909 452.667 284.882L452.88 287.813L452.988 289.251C453 289.723 452.961 290.191 452.955 290.662C452.876 292.516 452.977 294.328 452.707 296.007C452.546 297.693 452.541 299.317 452.294 300.774L451.187 302.223C451.208 304.223 450.828 306.167 450.037 308.06C449.101 310.389 447.867 312.621 446.327 314.761C443.232 319.129 439.293 322.874 438.226 324.996C434.443 327.261 438.488 323.697 438.444 323.223C437.13 324.086 435.869 325.579 434.227 326.83C433.476 327.469 432.661 328.068 431.79 328.621C431.001 329.083 430.125 329.442 429.156 329.698C428.901 329.458 432.875 327.255 430.92 328.123C429.897 328.425 429.057 328.889 428.4 329.522C427.679 330.218 426.738 330.688 425.575 330.931C427.139 330.871 422.713 333.932 418.812 335.549C419.142 335.395 419.504 335.286 419.897 335.209C420.339 335.287 419.82 335.603 418.994 335.99C418.167 336.382 416.97 336.757 416.164 337.085C416.275 336.935 416.444 336.813 416.66 336.731C411.392 338.862 405.85 340.546 400.025 341.789C397.061 342.489 393.962 342.944 390.859 343.442C387.707 343.797 384.535 344.181 381.297 344.307C374.797 344.655 368.276 344.536 361.743 343.964C355.304 343.38 348.956 342.427 342.692 341.1C344.258 341.269 345.829 341.365 347.372 341.502C343.344 341.058 339.423 340.27 335.608 339.151L336.135 339.228C334.021 338.401 331.797 337.845 329.455 337.553C327.442 337.373 325.623 336.825 324.004 335.91L325.012 336.103C317.328 333.91 313.444 331.524 306.001 329.274C300.63 326.791 301.543 326.64 298.035 324.689C296.416 323.913 294.661 323.406 292.77 323.179L294.241 323.898C295.522 325.08 290.645 322.787 288.245 321.954C289.315 323.382 287.431 324.086 293.304 327.646C298.262 329.468 297.089 330.78 302.738 332.864C306.577 333.097 310.31 336.632 316.154 337.419C312.938 337.209 322.256 339.805 317.192 339.087C319.433 340.031 321.8 340.723 324.283 341.181C327.29 341.765 330.209 342.529 333.039 343.487C332.272 343.473 332.368 343.685 331.299 343.53C337.557 344.556 335.292 345.017 339.903 345.965L339.971 345.172C341.811 345.293 342.182 345.927 343.818 346.064C342.572 345.777 340.065 344.895 341.544 344.859C343.652 344.997 345.746 345.212 347.835 345.512C347.791 345.805 346.155 345.668 345.048 345.571C345.048 345.571 346.29 345.803 347.562 346.086C348.531 346.222 349.442 346.474 350.304 346.845C348.439 346.862 346.129 346.457 344.432 346.611C350.989 347.964 344.882 346.949 347.978 348.099C347.289 347.034 353.849 348.61 357.554 348.702C357.882 349.104 354.982 348.558 354.027 348.725C356.878 349.744 359.86 350.193 362.971 350.077C366.488 349.95 370.013 349.958 373.547 350.092C372.948 350.228 372.335 350.303 371.695 350.297C373.561 350.268 375.421 350.317 377.285 350.451C378.808 350.636 380.297 350.57 381.742 350.26C383.81 350.238 384.047 350.489 384.556 350.698C385.065 350.912 385.877 351.128 389.046 350.786C387.999 350.41 389.864 350.272 392 350.104C394.113 349.91 396.447 349.555 396.361 349.067C398.016 349.042 399.672 349 401.317 348.866C403.283 348.203 402.817 347.847 402.885 347.453C402.922 347.014 403.558 346.712 407.403 345.695C414.704 344.325 407.559 347.438 412.039 346.904L413.463 345.88L417.15 345.228L416.648 345.425C418.637 344.673 422.361 343.443 422.587 343.73C422.413 344.057 420.204 344.83 420.031 345.151C421.145 344.626 422.336 344.203 423.589 343.874C425.111 343.436 426.811 342.841 428.535 342.271C430.198 341.734 431.777 341.071 433.244 340.297C434.469 339.755 435.428 339.027 436.119 338.124C438.118 337.355 441.753 335.299 441.705 335.899C442.949 334.671 444.436 333.602 446.14 332.699C447.924 331.597 449.507 330.354 450.879 328.976C450.879 329.363 453.114 327.951 454.363 326.517C452.132 328.122 453.085 326.844 453.953 325.44C455.41 324.309 456.712 323.096 457.868 321.795C459.146 320.315 460.308 318.93 461.104 318.752C461.891 317.288 461.762 316.688 461.544 316.402C461.319 316.11 460.882 316.075 460.7 315.64C461.252 315.067 461.755 314.466 462.192 313.842L463.045 312.678L463.747 311.48C464.657 309.952 465.467 308.785 465.844 309.462C465.413 310.255 464.739 311.533 464.301 312.555C463.863 313.577 463.485 314.319 464.106 314.118C465.262 312.69 465.17 312.292 465.19 311.991C465.08 311.344 465.188 310.729 465.513 310.135C465.657 310.386 467.031 308.592 467.18 309.163C467.82 307.629 468.368 305.431 469.245 303.248C467.675 306.617 469.003 300.889 467.894 302.888L467.844 306.362C467.717 307 467.467 307.606 467.101 308.18C466.906 308.451 466.804 308.45 466.716 308.378C466.541 308.227 466.453 307.769 465.977 308.468C466.508 307.181 466.839 305.862 466.953 304.505C467.047 303.708 467.074 302.907 467.043 302.101C466.821 300.082 466.767 298.062 466.857 296.045C467.248 294.712 467.522 293.359 467.687 291.994C467.679 294.185 468.873 293.846 469.141 292.59C468.938 291.701 468.861 290.814 468.91 289.924C468.916 289.073 468.942 288.278 469.044 287.493C469.184 286.132 469.533 284.796 469.51 283.472C469.481 284.292 469.239 284.511 469.027 284.401C468.645 284.05 468.367 283.657 468.201 283.23C466.455 277.047 468.244 280.769 468.307 278.002C467.652 275.634 467.256 273.447 466.746 271.439C466.202 269.441 465.803 267.549 465.271 265.757C464.747 263.966 464.185 262.238 463.531 260.511C462.824 258.81 462.033 257.104 461.052 255.331L461.498 258.959L462.971 259.913C463.343 262.733 460.565 259.822 459.263 258.451C459.461 257.993 457.308 253.649 458.643 255.282L456.224 251.145C456.1 251.867 457.578 254.554 456.182 252.688C455.864 251.224 453.929 246.895 455.845 249.46C454.766 247.246 453.014 244.504 452.704 245.124C450.833 241.614 454.125 245.193 455.299 246.707C453.95 243.871 454.968 244.04 455.667 244.829L453.533 240.964C454.241 241.747 454.635 241.652 455.335 242.428C454.369 239.787 452.346 238.217 452.011 235.865L450.695 235.096C447.702 227.975 448.163 228.669 445.008 222.232L444.946 223.441C441.502 218.838 444.188 219.684 440.684 213.29C438.771 209.669 437.482 207.32 436.696 207.987C435.854 206.803 435.556 205.564 435.817 204.277C433.886 201.82 432.589 199.217 431.925 196.469C432.898 198.235 433.683 199.645 434.459 201.308C435.27 200.654 432.495 195.492 432.16 192.626L429.351 187.467C428.265 185.24 427.075 182.813 426.151 181.08C425.77 182.77 424.41 182.295 422.734 179.154C423.457 179.588 422.4 174.73 422.353 172.475C423.195 173.527 422.744 167.405 424.033 172.072C424.018 173.454 423.306 174.156 424.021 175.99C424.433 173.565 424.559 171.122 424.416 168.661C425.181 169.738 425.655 170.868 425.856 172.052C425.388 171.2 425.304 171.72 425.084 171.857C427.054 177.456 426.276 170.534 427.228 171.321C426.633 169.839 426.27 166.615 425.941 168.169C426.975 165.121 423.497 159.248 424.445 155.977C424.268 155.839 423.993 157.723 423.328 155.506C422.939 153.983 423.061 152.493 423.688 151.043C423.099 149.205 422.773 147.36 422.727 145.491C422.172 143.275 421.374 147.866 420.463 144.764C419.201 142.652 420.055 139.792 419.695 137.305C420.345 134.328 420.284 140.29 420.675 141.529L419.971 133.078C420.262 131.847 420.514 132.129 420.665 133.039C420.881 134.261 420.978 135.481 420.957 136.705C421.445 133.362 421.029 129.029 420.16 127.994C420.198 126.258 420.37 124.524 420.685 122.812C421.01 124.807 422.581 124.765 422.759 127.85C422.563 132.903 421.643 125.96 421.336 130.269L422.22 130.671C421.945 132.434 422.023 134.208 422.463 135.982C422.273 137.081 422.142 135.732 421.989 134.985C422.201 138.574 421.669 141.425 422.942 144.135C423.476 139.321 422.207 132.029 423.355 129.96C422.983 126.748 422.62 123.53 422.485 120.309C422.073 120.282 421.174 123.58 420.756 120.824C421.921 119.771 422.459 116.968 423.087 113.302C421.781 114.569 422.753 107.314 421.617 109.082C421.887 110.108 421.615 111.038 420.81 111.873C421.163 108.285 419.811 111.294 419.982 109.313C420.491 106.043 420.663 106.121 420.859 106.218C421.056 106.316 421.234 106.424 421.981 103.255C422.137 103.959 422.31 105.196 422.531 106.714C422.76 108.233 422.973 110.016 423.007 111.811C423.543 111.611 423.349 108.259 424.1 106.829C423.251 108.856 423.191 105.254 422.735 106.951L423.04 98.5417C423.134 95.5651 423.546 92.4825 424.063 89.3463C425.51 90.564 423.071 99.999 425.527 98.2999C425.837 95.2348 425.076 95.1366 425.707 92.7204C426.549 91.1875 427.059 89.5845 427.227 87.923C427.672 85.8811 428.061 83.5516 428.592 81.4972L427.601 83.2257C427.875 81.1122 428.465 79.0556 429.38 77.0564L429.457 77.5566C429.538 76.9641 429.585 76.3634 429.699 75.7792C429.843 75.5229 429.922 75.4737 429.98 75.4896C430.094 73.4924 432.495 68.8854 434.07 65.4441C433.251 65.1913 432.272 68.8105 431.48 70.4735C431.091 70.8767 429.405 74.0874 429.501 72.3668C431.292 67.9373 431.854 64.629 434.918 59.9567L433.738 61.3648C434.555 59.311 435.802 57.406 437.46 55.6548C441.114 52.1442 436.155 58.842 438.467 56.7532C438.065 57.7413 437.507 58.6769 436.799 59.5605C436.15 60.466 435.75 61.2972 436.088 61.6635C436.961 60.9538 437.825 60.2495 438.778 59.6114C439.213 58.5047 439.944 57.514 440.963 56.6387C441.871 55.7803 442.772 55.0302 443.336 54.4089C442.739 54.7623 442.174 55.142 441.642 55.548C441.079 54.8711 442.904 53.9217 443.615 53.3644L441.645 53.6945C439.536 55.6276 439.353 57.5237 437.528 58.8594C438.302 57.6118 438.967 56.333 439.525 55.0231C440.24 53.512 441.324 52.1519 442.761 50.9477C443.063 50.9735 442.871 51.1904 442.592 51.468C442.286 51.7619 442.062 52.0915 441.912 52.45C442.769 51.7211 443.545 50.9507 444.247 50.1393C445.15 49.0994 446.28 48.2072 447.636 47.4627C446.919 48.1101 446.259 48.7915 445.664 49.5013C445.329 50.1074 445.417 50.3184 446.634 49.752L447.385 48.207C448.771 47.392 448.49 47.9472 449.059 47.6282C451.115 46.6336 447.932 47.325 451.177 45.6836C451.76 45.5346 452.996 45.2109 452.645 45.5502C456.381 43.8685 454.244 44.562 457.743 42.907C454.413 44.0477 453.425 43.1679 457.056 41.7993C462.387 40.3789 466.521 39.7195 470.493 40.6314L473.101 40.3372C472.229 40.6484 473.156 40.6608 474.476 40.8618C475.824 41.0104 477.159 41.2245 478.474 41.5038C478.644 41.8651 476.541 41.5162 474.358 41.2345C472.161 41.0425 469.89 41.0811 469.92 41.6506C473.507 42 471.879 42.2558 470.766 42.5091C474.527 42.6464 472.235 41.7175 474.027 41.406C474.982 41.7524 475.979 41.9926 477.025 42.1215C478.381 42.3974 479.371 42.8727 478.14 42.8586C479.292 43.1695 480.469 43.3612 481.68 43.4222C482.684 43.5363 483.647 43.7744 484.551 44.1354C484.019 44.2757 483.407 44.4772 483.414 44.8882C484.075 44.9677 484.678 45.1581 485.215 45.4649L487.066 46.4314C486.634 46.0831 488.547 46.3592 485.751 45.3853C487.062 45.5978 488.249 46.0076 489.315 46.6147C490.725 47.3651 492.045 48.0674 492.161 47.8395C491.947 48.4051 497.47 51.1273 499.685 53.1198C500.316 52.497 498.979 51.7876 497.576 51.0618C496.174 50.3119 494.568 49.7298 494.695 48.9471C497.63 50.3709 500.278 52.0416 502.642 53.9473C505.693 56.1756 508.723 58.8435 511.501 60.8548C515.189 64.9543 510.838 61.1978 511.033 62.3337C507.02 58.9555 506.521 57.8179 502.73 55.1848L509.269 60.9442C511.581 62.9914 513.798 64.9478 515.29 66.1082C519.021 69.9328 517.456 71.1649 522.086 75.8211C522.119 74.9177 522.337 74.944 521.26 73.3579C522.595 74.7314 523.802 76.1508 524.903 77.6236C526.019 78.3488 523.483 75.2242 525.496 77.0707C526.041 77.8913 527.356 79.5774 526.674 79.4242L526.34 79.1185C530.903 83.6316 527.814 83.1457 532.411 86.7493C532.441 86.2983 531.299 85.5655 530.644 84.4902C530.454 83.5298 533.241 85.7892 535.03 87.5908C534.341 87.425 536.353 89.2775 537.342 90.6585C537.409 91.8282 534.341 87.425 533.317 86.9595L536.306 90.651L535.768 89.837L539.778 93.5289C537.22 90.8558 539.491 91.8557 540.595 93.0329C542.797 95.8458 545.008 98.6653 543.972 98.6518C545.008 98.6653 547.879 102.096 550.103 104.457C548.125 101.695 550.472 103.853 551.373 104.516L553.985 108.811C550.214 104.706 554.052 109.981 552.702 109.21C550.888 108.324 549.142 105.614 547.375 103.355C549.627 108.26 553.283 109.103 555.793 113.15C555.438 113.295 554.748 113.136 553.424 111.449C553.746 112.213 557.006 114.588 558.752 117.298C558.439 116.529 557.92 114.804 560.36 117.21L562.312 120.888C565.403 124.834 564.351 121.825 567.468 124.848L566.289 122.507C567.326 122.514 569.946 126.81 570.865 126.562C569.215 124.57 567.617 123.735 566.098 121.547C566.248 120.421 568.771 124.01 570.223 125.029C572.005 127.307 573.538 129.665 574.821 132.098C573.648 132.746 568.757 127.457 567.68 128.829C571.742 133.002 575.466 137.321 578.843 141.787C582.403 145.383 583.119 144.626 583.386 143.768C584.447 144.828 585.334 145.955 586.032 147.154L584.129 145.562C588.492 150.032 591.179 152.538 595.729 157.377C598.586 159.985 598.234 158.531 598.176 157.609C599.152 158.561 600.196 159.486 601.214 160.422L600.919 159.908C602.328 160.157 604.729 162.778 606.897 164.58C606.589 164.777 605.19 163.72 605.126 163.933C606.996 165.897 609.247 167.596 611.894 169.031C611.636 169.237 609.479 168.692 607.275 166.658C607.097 166.417 607.332 166.444 607.154 166.197C605.708 165.215 604.273 164.209 602.898 163.177C607.596 166.781 609.874 169.346 609.063 169.763C614.429 173.079 605.708 166.38 611.915 170.391C615.186 173.376 619.127 175.784 623.748 177.608C627.417 178.892 630.894 180.418 634.168 182.19C635.479 182.402 636.868 182.572 638.315 182.751C639.792 182.86 641.306 183.061 642.947 183.114C646.601 183.335 650.252 183.363 653.898 183.197C653.859 182.88 655.205 182.811 656.432 182.614C657.66 182.416 658.771 182.193 658.277 181.871C654.441 181.976 650.991 182.246 647.614 182.297C644.355 182.47 641.221 182.029 638.229 180.964C634.895 180.498 635.764 181.262 634.176 181.17C631.226 180.488 628.627 179.479 628.461 179.051C631.81 179.946 632.424 179.721 633.233 179.599C634.043 179.471 634.992 179.527 639.179 180.374C637.75 179.779 636.246 179.307 634.675 178.962C632.685 178.434 630.752 177.806 628.877 177.074C629.843 177.137 629.191 176.533 627.586 175.673C630.631 176.307 633.702 176.81 636.807 177.182C635.883 177.254 637.317 177.759 636.576 177.752C639.376 178.135 642.196 178.343 645.02 178.365C647.492 178.998 648.216 179.414 646.774 179.657C649.499 179.908 652.199 179.891 654.875 179.608C656.148 179.486 657.255 179.323 658.083 179.298C658.896 179.243 659.419 179.253 659.514 179.476C665.313 178.238 657.461 179.396 656.886 179.033L657.373 178.932C655.314 179.208 653.23 179.349 651.113 179.355C650.936 179.096 651.28 178.992 651.932 178.956C652.575 178.926 653.505 178.884 654.492 178.882C656.461 178.818 658.659 178.611 658.934 178.019C658.992 177.516 659.535 177.219 660.373 177.039C661.41 176.793 662.476 176.615 663.562 176.505C666.16 176.246 668.483 175.547 670.523 174.406C670.067 174.932 669.633 175.513 669.093 176.021L667.399 177.559C668.645 176.946 669.827 176.275 670.929 175.544C670.357 176.164 669.86 176.814 669.427 177.492C668.767 178.433 667.815 179.18 666.574 179.727C668.244 179.202 669.861 178.595 671.415 177.918C673.025 177.16 674.539 176.317 675.958 175.39C677.271 174.533 678.47 173.604 679.565 172.6C680.367 171.814 681.087 170.985 681.718 170.115C683.077 169.316 683.99 169.032 684.188 169.751C685.102 167.764 686.181 165.83 687.426 163.949L688.916 161.414C689.382 160.484 689.739 159.535 690.014 158.563C690.112 156.293 689.661 157.387 689.135 158.59C688.516 159.8 687.84 161.108 687.829 159.465C688.301 158.693 688.566 157.877 688.613 157.022C688.733 156.221 688.761 155.414 688.704 154.601C688.694 155.911 688.442 157.186 687.964 158.435C687.648 159.266 687.312 160.156 686.944 161.013L685.722 163.439C686.639 161.156 685.64 161.218 685.491 160.52C684.955 161.752 684.494 162.996 683.784 164.182C683.305 163.909 683.857 162.81 684.356 161.496C684.95 160.291 685.293 159.045 685.368 157.758C686.095 159.031 686.287 158.416 686.969 159.729C687.613 156.317 688.078 151.281 688.579 148.398C688.96 146.696 689.142 149.848 689.375 150.793C690.117 150.026 688.976 147.349 689.761 146.694C690.468 147.229 689.892 148.816 690.1 150.031C690.245 146.653 690.035 143.282 689.471 139.906C689.862 139.871 690.49 142.394 690.477 144.006C690.659 140.956 689.719 138.063 687.663 135.32C687.242 131.953 686.759 128.124 687.669 129.167C687.006 127.693 686.912 128.744 686.504 128.801C685.494 124.382 683.928 124.08 683.222 121.468L682.986 123.529C682.669 119.222 681.448 122.668 681.148 118.869C682.066 119.412 682.922 119.081 683.642 118.392C682.708 117.842 682.916 115.446 682.673 113.872C682.015 114.904 681.46 110.49 681.028 113.094C679.921 109.393 680.926 107.702 680.033 104.975C679.884 105.828 679.668 105.017 679.495 104.173C679.314 103.327 679.137 102.434 678.769 103.159C679.093 99.4909 680.979 97.344 681.498 98.4406C681.02 99.5506 680.364 101.458 681.051 101.4C681.331 99.3173 681.919 97.2907 682.824 95.3151C683.415 94.6594 684.038 93.9031 684.599 93.318C685.235 92.7497 685.85 92.3733 686.327 92.4347C686.756 91.1706 687.602 90.0908 688.867 89.1893C689.48 88.7222 690.06 88.2349 690.591 87.7202C691.08 87.3476 691.412 86.9104 691.596 86.4153C691.298 86.8486 690.926 87.2469 690.48 87.6103C690.138 87.9441 689.755 88.2512 689.324 88.5249C688.66 88.8859 688.035 89.2798 687.459 89.707C687.654 89.424 687.81 89.1141 688.038 88.8453L687.616 89.2343C687.864 88.2784 688.229 87.3482 688.572 86.3623C687.206 87.2572 687.318 87.4818 687.379 87.836C687.432 88.1837 687.418 88.6477 686.077 90.1963C684.245 91.2539 685.051 89.5073 686.085 87.7514C686.672 86.9083 687.259 86.0591 687.51 85.5743C687.801 85.1224 687.626 84.96 686.66 85.5369C683.8 87.6201 685.436 87.8841 684.164 90.041L684.644 89.541C683.563 91.1067 682.681 92.7336 681.997 94.4277C681.392 94.515 681.86 92.9093 681.86 92.9093C680.547 95.0514 679.475 97.2577 678.635 99.5274C677.784 101.965 677.334 104.454 677.286 106.993C677.515 106.47 679.008 105.179 679.344 108.287C679.814 110.515 678.953 110.785 679.074 112.665C678.341 111.494 678.066 110.286 678.249 109.036L677.17 109.153C676.794 107.685 676.213 106.252 675.427 104.86C675.138 104.25 674.977 103.623 674.959 102.982C674.854 101.635 674.933 100.288 675.181 98.9572C674.835 97.6666 674.942 96.4117 675.511 95.193C675.843 94.1158 676.299 93.0768 676.888 92.0708C677.446 91.0204 678.127 90.0144 678.932 89.0587C678.291 89.5783 677.599 90.1006 676.98 90.6579C677.741 88.4374 678.178 88.3391 678.672 88.136C679.157 87.9322 679.794 87.6116 681.54 85.0268L684.098 83.9684C684.903 83.6527 685.738 83.3934 686.62 83.1915C688.058 82.8749 688.786 83.0796 687.87 84.4507C691.632 81.9917 692.49 80.7436 696.534 79.0036C699.564 78.7187 695.983 80.3321 697.104 80.8583C699.671 79.5348 703.444 78.3204 700.882 78.4245C701.899 78.2254 702.945 78.0825 703.961 77.9074C704.998 77.776 706.063 77.7491 707.088 77.6712C707.296 77.8418 705.113 78.0854 704.262 78.1928C706.623 77.9488 711.167 77.3343 712.669 77.3299C712.129 77.3308 710.529 77.2925 709.833 77.2289C710.59 77.1335 711.36 77.0993 712.134 77.1258C712.987 77.1031 713.83 77.116 714.679 77.1594C715.749 77.3019 716.816 77.3657 717.888 77.3513C716.456 77.1912 715.048 76.924 713.681 76.5568C713.065 76.4319 712.455 76.3377 711.827 76.2725C711.441 76.2352 711.046 76.2153 710.65 76.2196C710.225 76.2583 709.75 76.3057 709.213 76.3853C709.556 76.1842 710.295 75.5805 712.616 75.9437C710.878 75.5703 709.102 75.3817 707.305 75.3849C706.034 75.4769 704.762 75.448 703.482 75.2978C704.815 75.2945 706.105 75.1675 707.37 74.9182C708.366 74.778 709.044 74.587 709.385 74.5368C708.493 74.5026 707.607 74.505 706.719 74.5495C705.742 74.6547 704.696 74.7915 703.682 74.9426C702.76 75.1178 701.86 75.3367 700.982 75.6053C700.339 75.7625 699.726 75.976 699.161 76.2409C698.737 75.8811 696.108 76.6268 694.302 77.5412C692.385 78.3457 691.158 79.1892 692.199 77.9652C691.655 78.5455 690.983 79.0268 690.182 79.4092C689.106 80.0029 687.986 80.7508 687.073 81.1681C686.943 80.9664 687.813 80.1719 688.912 79.2295L692.402 76.6802C693.595 76.1062 694.492 75.6698 695.185 75.3951C695.66 75.2209 696.151 75.0658 696.656 74.9419C697.205 74.8147 696.989 75.012 696.548 75.3091C695.601 75.8631 694.025 77.0098 695.245 76.667C696.459 76.1547 697.817 75.7726 699.102 75.3313C700.474 74.9864 701.854 74.6479 703.28 74.385C702.809 74.3722 703.636 74.0943 703.867 73.9162C703.983 73.8271 703.945 73.7643 703.514 73.7723C702.591 73.8267 701.712 73.9805 700.87 74.2213C701.586 73.8575 702.355 73.5637 703.188 73.3464C705.474 72.6869 707.871 72.415 710.377 72.5246C711.688 72.5922 712.976 72.755 714.259 73.002C715.459 72.8389 711.777 72.5316 710.643 72.4574C711.722 72.3288 712.78 72.1504 713.831 71.9414C714.201 71.8268 714.295 71.682 713.749 71.5134C712.654 71.2425 711.542 71.0853 710.406 71.0532C710.812 71.1583 706.391 71.5694 710.146 71.803C709.325 71.8399 708.16 71.8543 706.912 71.8571C705.663 71.866 704.404 72.0252 703.305 72.068C702.197 72.1102 701.34 72.193 700.937 72.1667C700.525 72.1458 700.551 72.0025 701.339 71.6918C700.413 71.9331 699.288 72.2339 698.093 72.5784C696.921 72.9546 695.768 73.4407 694.6 73.8835C692.726 74.6908 690.946 75.5948 689.277 76.6087C688.746 76.6101 689.213 76.2966 689.948 75.8918C690.684 75.481 691.808 75.0534 692.372 74.6797C691.633 75.0238 690.86 75.3597 690.153 75.7241L688.111 76.8947C686.787 77.6775 685.526 78.5128 684.346 79.4017L686.953 78.3586C685.581 79.09 684.362 79.9341 683.287 80.8843C682.803 81.3236 682.345 81.7585 681.912 82.183C681.512 82.6218 681.162 83.0759 680.821 83.5185L679.841 84.8311L679.027 86.1907L678.196 87.5373L677.421 88.9478C676.796 88.0615 679.037 84.9959 681.09 82.6364C677.835 84.1745 679.997 84.2556 676.791 87.88C676.247 88.3215 675.924 88.3668 675.822 87.9978L675.119 89.7089L674.609 91.4567C674.09 92.1655 674.046 91.9392 674.135 91.6009C673.815 92.3769 673.661 93.176 673.667 93.9915C673.66 94.2265 673.747 94.4375 673.929 94.6305C674.156 94.899 673.937 95.398 673.237 99.2648C673.571 98.1576 673.93 97.3176 674.056 96.6737L674.355 95.0811C674.455 93.8075 674.879 92.6036 675.628 91.4691C676.601 90.5304 676.297 91.688 675.778 93.1816C675.336 94.5173 675.078 95.8771 674.98 97.2534C674.245 99.0771 673.721 99.9909 673.151 101.107C672.575 102.434 672.392 103.804 672.612 105.214C672.23 102.93 671.62 105.3 672.065 100.945C671.996 98.2538 671.337 102.274 670.755 102.792C670.866 104.055 671.849 102.054 671.548 105.494L671.397 105.346C671.529 106.302 671.737 107.24 671.972 108.167C672.18 109.104 672.441 110.021 672.727 110.933C672.59 116.117 676.044 122.121 675.711 125.529L676.604 124.646C677.519 127.676 678.768 131.912 679.535 133.991C678.778 133.573 678.19 131.597 677.375 129.496C678.554 134.024 680.074 138.507 681.926 142.945C682.198 141.109 682.276 139.273 682.145 137.416C683.075 138.661 683.412 139.957 683.146 141.322C682.876 142.874 682.943 144.43 683.338 145.99C682.259 146.113 682.321 144.655 681.338 145.756C682.282 147.569 682.083 150.606 682.553 152.701C681.325 153.684 680.862 151.733 680.619 147.334C681.414 143.938 679.111 140.346 679.309 137.442L679.033 139.211C678.299 136.38 677.369 133.572 676.244 130.793L676.431 130.896L674.952 129.519L675.403 131.137C674.098 129.427 673.059 127.644 672.269 125.793C673.827 130.864 675.625 130.976 677.206 133.235C678.29 137.683 676.833 139.587 678.208 142.291C677.768 142.558 677.489 144.895 676.791 143.062C676.549 142.116 676.375 141.163 676.277 140.209C676.158 139.458 676.037 138.979 675.647 138.893C675.852 139.619 675.94 140.343 675.917 141.073C675.969 142.09 676.088 143.106 676.283 144.122C677.362 144.778 678.523 147.529 679.231 150.238C679.641 153.127 679.264 155.928 678.09 158.653C678.854 156.01 678.171 153.157 677.396 153.789C677.639 154.855 677.496 155.879 676.967 156.864C676.543 157.809 676.255 158.478 677.022 158.227C676.829 158.987 676.42 159.811 676.093 160.684C675.71 161.51 675.261 162.314 674.754 163.102C673.757 164.558 672.622 165.523 672.014 165.416C673.636 163.186 674.877 160.84 675.738 158.378C675.519 159.022 674.962 159.547 674.837 159.128C675.1 158.596 675.256 158.02 675.436 157.453C675.625 156.885 675.814 156.318 675.929 155.722C674.927 157.377 674.09 159.079 673.411 160.822C673.598 160.659 673.966 160.327 673.887 160.63C673.526 161.379 673.075 162.34 672.617 163.034L671.571 162.779C670.886 164.213 669.817 165.478 668.363 166.56C666.643 167.836 664.826 169.046 662.93 170.19L663.185 169.893C661.896 170.394 660.782 171.046 659.844 171.848C658.677 172.798 657.222 173.385 655.461 173.614C656.793 173.109 656.016 172.859 655.667 172.522C654.703 172.822 653.694 172.901 652.641 172.759C651.692 172.697 650.721 172.452 649.489 172.336C652.409 172.817 647.505 173.136 649.638 173.408C649.72 173.83 648.388 173.948 646.652 173.919C645.778 173.874 644.807 173.756 643.886 173.654C642.961 173.485 642.078 173.318 641.353 173.186C640.662 172.537 642.903 172.829 644.76 172.926C646.626 173.03 648.104 172.994 646.151 172.292C643.495 171.895 642.635 172.28 644.543 172.767C643.682 172.644 642.72 172.406 641.703 172.213C640.708 171.96 639.662 171.699 638.678 171.393C636.958 170.882 635.392 170.188 633.974 169.304C632.348 169.016 630.781 168.6 629.282 168.049C628.082 167.578 626.83 167.237 625.512 167.017C626.221 167.396 627.004 167.671 627.863 167.823C628.791 168.083 629.618 168.457 630.345 168.952C629.243 168.771 628.153 168.549 627.074 168.285C624.071 166.615 621.405 164.69 619.092 162.522C619.979 163.021 620.876 163.496 621.783 163.942L621.563 163.951C622.742 164.367 625.798 166.384 625.9 165.733C623.066 164.949 621.896 163.375 618.683 161.692L618.902 161.688C613.467 158.398 612.166 154.304 607.882 152.363C608.673 153.157 609.656 155.021 608.859 154.691C608.218 153.538 605.491 150.866 606.057 150.734L607.081 151.574C604.804 148.998 603.503 147.355 602.489 146.479C601.255 146.006 601.454 146.961 599.454 145.164C595.737 140.235 602.487 146.515 600.225 143.059L595.77 138.83L595.47 137.609C590.308 130.654 584.121 126.216 578.036 119.043C578.862 118.541 583.653 123.57 585.192 125.313C584.127 122.762 580.317 120.031 578.36 116.812C576.149 113.986 573.564 112.241 573.42 112.896C570.202 109.618 571.907 110.243 571.695 109.74C569.75 109.045 566.457 104.597 563.906 101.936L564.369 101.574L560.017 97.564C560.896 98.6963 559.547 97.9197 559.2 98.0661L558.32 96.9458C560.34 101.794 567.437 105.977 569.342 111.029C568.006 109.794 569.206 111.69 567.861 110.455C566.982 109.329 566.881 109.075 567.004 108.871C565.98 108.4 564.077 106.808 566.068 109.118C564.786 109.505 561.15 104.745 558.033 101.721C556.652 98.8594 561.417 103.887 563.109 104.97C561.677 103.783 560.454 102.502 559.439 101.119L560.7 101.183C556.471 96.9758 558.894 100.304 557.181 99.6729C555.027 98.9463 553.866 95.6762 552.762 94.4991L554.098 95.7337C551.575 92.1511 549.979 91.781 547.442 88.6624L546.924 86.9198C549.311 91.1698 552.181 91.1401 553.6 93.5456C549.657 87.5575 556.465 93.9805 558.723 95.4325C556.798 93.5253 555.254 91.48 554.106 89.2916C549.937 86.2414 548.26 81.7058 543.984 78.8719C542.559 76.9311 546.01 80.2604 544.353 78.2621C541.24 74.3934 537.815 70.6732 534.077 67.0896C532.331 65.0251 533.019 65.203 532.882 64.4694C529.509 60.3301 525.507 56.5239 520.877 53.045C516.714 49.8925 512.498 46.652 505.576 41.9725C506.432 42.2942 507.244 42.6432 508.03 43.0086C506.742 42.0669 505.391 41.1816 503.961 40.3574C502.933 39.6924 501.768 39.1995 500.455 38.8962C498.934 37.2631 495.072 35.5794 490.722 34.2503L487.438 33.2686C486.354 32.9441 485.188 32.7169 484.136 32.4247C483.058 32.1548 482.05 31.8353 481.073 31.554C480.134 31.3296 479.225 31.0527 478.335 30.7288C469.169 29.2778 468.581 30.6643 461.731 31.3272Z" fill="#FFF5E0"/>
</g>
</svg>
