<svg width="341" height="73" viewBox="0 0 341 73" fill="none" xmlns="http://www.w3.org/2000/svg">
<path d="M30.7457 14.3636H39.9716V42.7017C39.9716 45.8835 39.2116 48.6676 37.6918 51.054C36.1861 53.4403 34.0767 55.3011 31.3636 56.6364C28.6506 57.9574 25.4901 58.6179 21.8821 58.6179C18.2599 58.6179 15.0923 57.9574 12.3793 56.6364C9.66619 55.3011 7.55682 53.4403 6.05114 51.054C4.54545 48.6676 3.79261 45.8835 3.79261 42.7017V14.3636H13.0185V41.9134C13.0185 43.5753 13.3807 45.0526 14.1051 46.3452C14.8438 47.6378 15.8807 48.6534 17.2159 49.392C18.5511 50.1307 20.1065 50.5 21.8821 50.5C23.6719 50.5 25.2273 50.1307 26.5483 49.392C27.8835 48.6534 28.9134 47.6378 29.6378 46.3452C30.3764 45.0526 30.7457 43.5753 30.7457 41.9134V14.3636ZM86.0636 29.6406H76.7312C76.5607 28.4332 76.2127 27.3608 75.6871 26.4233C75.1616 25.4716 74.4869 24.6619 73.663 23.9943C72.8391 23.3267 71.8874 22.8153 70.8079 22.4602C69.7425 22.1051 68.5849 21.9276 67.3349 21.9276C65.0763 21.9276 63.109 22.4886 61.4329 23.6108C59.7567 24.7187 58.457 26.3381 57.5337 28.4688C56.6104 30.5852 56.1488 33.1562 56.1488 36.1818C56.1488 39.2926 56.6104 41.9062 57.5337 44.0227C58.4712 46.1392 59.7781 47.7372 61.4542 48.8168C63.1303 49.8963 65.0692 50.4361 67.271 50.4361C68.5067 50.4361 69.6502 50.2727 70.7014 49.946C71.7667 49.6193 72.7113 49.1435 73.5352 48.5185C74.359 47.8793 75.0408 47.1051 75.5806 46.196C76.1346 45.2869 76.5181 44.25 76.7312 43.0852L86.0636 43.1278C85.8221 45.1307 85.2184 47.0625 84.2525 48.9233C83.3008 50.7699 82.0153 52.4247 80.396 53.8878C78.7908 55.3366 76.8732 56.4872 74.6431 57.3395C72.4272 58.1776 69.9201 58.5966 67.1218 58.5966C63.2298 58.5966 59.7496 57.7159 56.6815 55.9545C53.6275 54.1932 51.2127 51.6435 49.4371 48.3054C47.6758 44.9673 46.7951 40.9261 46.7951 36.1818C46.7951 31.4233 47.69 27.375 49.4798 24.0369C51.2695 20.6989 53.6985 18.1562 56.7667 16.4091C59.8349 14.6477 63.2866 13.767 67.1218 13.767C69.6502 13.767 71.994 14.1222 74.1531 14.8324C76.3263 15.5426 78.2511 16.5795 79.9272 17.9432C81.6033 19.2926 82.967 20.9474 84.0181 22.9077C85.0835 24.8679 85.7653 27.1122 86.0636 29.6406ZM101.905 14.3636V58H92.6793V14.3636H101.905Z" fill="#2B64A5"/>
<path d="M132.034 24.7273C132.034 26.2614 131.757 27.5871 131.203 28.7045C130.649 29.822 129.889 30.6837 128.923 31.2898C127.957 31.8958 126.854 32.1989 125.614 32.1989C124.373 32.1989 123.27 31.8958 122.304 31.2898C121.338 30.6837 120.578 29.822 120.024 28.7045C119.47 27.5871 119.193 26.2614 119.193 24.7273C119.193 23.1932 119.47 21.8674 120.024 20.75C120.578 19.6326 121.338 18.7708 122.304 18.1648C123.27 17.5587 124.373 17.2557 125.614 17.2557C126.854 17.2557 127.957 17.5587 128.923 18.1648C129.889 18.7708 130.649 19.6326 131.203 20.75C131.757 21.8674 132.034 23.1932 132.034 24.7273ZM130.33 24.7273C130.33 23.4678 130.119 22.4048 129.697 21.5384C129.281 20.6719 128.715 20.0161 128 19.571C127.29 19.1259 126.494 18.9034 125.614 18.9034C124.733 18.9034 123.935 19.1259 123.22 19.571C122.51 20.0161 121.944 20.6719 121.523 21.5384C121.106 22.4048 120.898 23.4678 120.898 24.7273C120.898 25.9867 121.106 27.0497 121.523 27.9162C121.944 28.7827 122.51 29.4384 123.22 29.8835C123.935 30.3286 124.733 30.5511 125.614 30.5511C126.494 30.5511 127.29 30.3286 128 29.8835C128.715 29.4384 129.281 28.7827 129.697 27.9162C130.119 27.0497 130.33 25.9867 130.33 24.7273ZM139.626 21.0909V22.5114H133.746V21.0909H139.626ZM135.507 32V19.5852C135.507 18.9602 135.654 18.4394 135.947 18.0227C136.241 17.6061 136.622 17.2936 137.091 17.0852C137.56 16.8769 138.054 16.7727 138.575 16.7727C138.987 16.7727 139.323 16.8059 139.584 16.8722C139.844 16.9384 140.038 17 140.166 17.0568L139.683 18.5057C139.598 18.4773 139.48 18.4418 139.328 18.3991C139.181 18.3565 138.987 18.3352 138.746 18.3352C138.192 18.3352 137.792 18.4749 137.545 18.7543C137.304 19.0336 137.183 19.4432 137.183 19.983V32H135.507ZM146.833 21.0909V22.5114H140.953V21.0909H146.833ZM142.714 32V19.5852C142.714 18.9602 142.861 18.4394 143.154 18.0227C143.448 17.6061 143.829 17.2936 144.298 17.0852C144.767 16.8769 145.261 16.7727 145.782 16.7727C146.194 16.7727 146.53 16.8059 146.791 16.8722C147.051 16.9384 147.245 17 147.373 17.0568L146.89 18.5057C146.805 18.4773 146.687 18.4418 146.535 18.3991C146.388 18.3565 146.194 18.3352 145.953 18.3352C145.399 18.3352 144.999 18.4749 144.752 18.7543C144.511 19.0336 144.39 19.4432 144.39 19.983V32H142.714ZM149.183 32V21.0909H150.859V32H149.183ZM150.035 19.2727C149.708 19.2727 149.426 19.1615 149.19 18.9389C148.958 18.7164 148.842 18.4489 148.842 18.1364C148.842 17.8239 148.958 17.5563 149.19 17.3338C149.426 17.1113 149.708 17 150.035 17C150.362 17 150.641 17.1113 150.873 17.3338C151.11 17.5563 151.228 17.8239 151.228 18.1364C151.228 18.4489 151.11 18.7164 150.873 18.9389C150.641 19.1615 150.362 19.2727 150.035 19.2727ZM158.36 32.2273C157.338 32.2273 156.457 31.9858 155.718 31.5028C154.98 31.0199 154.412 30.3546 154.014 29.5071C153.616 28.6596 153.417 27.6913 153.417 26.6023C153.417 25.4943 153.621 24.5166 154.028 23.669C154.44 22.8168 155.013 22.1515 155.747 21.6733C156.485 21.1903 157.347 20.9489 158.332 20.9489C159.099 20.9489 159.79 21.0909 160.406 21.375C161.021 21.6591 161.526 22.0568 161.919 22.5682C162.312 23.0795 162.556 23.6761 162.65 24.358H160.974C160.846 23.8608 160.562 23.4205 160.122 23.0369C159.686 22.6487 159.099 22.4545 158.36 22.4545C157.707 22.4545 157.134 22.625 156.642 22.9659C156.154 23.3021 155.773 23.7779 155.498 24.3935C155.228 25.0043 155.093 25.7216 155.093 26.5455C155.093 27.3883 155.226 28.1222 155.491 28.7472C155.761 29.3722 156.14 29.8575 156.627 30.2031C157.12 30.5488 157.698 30.7216 158.36 30.7216C158.796 30.7216 159.191 30.6458 159.547 30.4943C159.902 30.3428 160.202 30.125 160.449 29.8409C160.695 29.5568 160.87 29.2159 160.974 28.8182H162.65C162.556 29.4621 162.321 30.0421 161.947 30.5582C161.578 31.0696 161.088 31.4768 160.477 31.7798C159.871 32.0781 159.165 32.2273 158.36 32.2273ZM169.674 32.2273C168.623 32.2273 167.717 31.9953 166.954 31.5312C166.197 31.0625 165.612 30.4091 165.2 29.571C164.793 28.7282 164.589 27.7481 164.589 26.6307C164.589 25.5133 164.793 24.5284 165.2 23.6761C165.612 22.8191 166.185 22.1515 166.919 21.6733C167.657 21.1903 168.519 20.9489 169.504 20.9489C170.072 20.9489 170.633 21.0436 171.187 21.233C171.741 21.4223 172.245 21.7301 172.7 22.1562C173.154 22.5777 173.517 23.1364 173.787 23.8324C174.056 24.5284 174.191 25.3854 174.191 26.4034V27.1136H165.782V25.6648H172.487C172.487 25.0492 172.364 24.5 172.118 24.017C171.876 23.5341 171.53 23.1529 171.081 22.8736C170.636 22.5942 170.11 22.4545 169.504 22.4545C168.836 22.4545 168.259 22.6203 167.771 22.9517C167.288 23.2784 166.916 23.7045 166.656 24.2301C166.395 24.7557 166.265 25.3191 166.265 25.9205V26.8864C166.265 27.7102 166.407 28.4086 166.691 28.9815C166.98 29.5497 167.38 29.983 167.892 30.2812C168.403 30.5748 168.997 30.7216 169.674 30.7216C170.115 30.7216 170.512 30.66 170.868 30.5369C171.227 30.4091 171.538 30.2197 171.798 29.9688C172.058 29.7131 172.26 29.3958 172.402 29.017L174.021 29.4716C173.85 30.0208 173.564 30.5038 173.162 30.9205C172.759 31.3324 172.262 31.6544 171.67 31.8864C171.078 32.1136 170.413 32.2273 169.674 32.2273ZM186.798 32.2273C185.813 32.2273 184.949 31.9929 184.206 31.5241C183.467 31.0554 182.889 30.3996 182.473 29.5568C182.061 28.714 181.855 27.7292 181.855 26.6023C181.855 25.4659 182.061 24.474 182.473 23.6264C182.889 22.7789 183.467 22.1207 184.206 21.652C184.949 21.1832 185.813 20.9489 186.798 20.9489C187.783 20.9489 188.645 21.1832 189.383 21.652C190.127 22.1207 190.704 22.7789 191.116 23.6264C191.533 24.474 191.741 25.4659 191.741 26.6023C191.741 27.7292 191.533 28.714 191.116 29.5568C190.704 30.3996 190.127 31.0554 189.383 31.5241C188.645 31.9929 187.783 32.2273 186.798 32.2273ZM186.798 30.7216C187.546 30.7216 188.162 30.5298 188.645 30.1463C189.127 29.7628 189.485 29.2585 189.717 28.6335C189.949 28.0085 190.065 27.3314 190.065 26.6023C190.065 25.8731 189.949 25.1937 189.717 24.5639C189.485 23.9342 189.127 23.4252 188.645 23.0369C188.162 22.6487 187.546 22.4545 186.798 22.4545C186.05 22.4545 185.434 22.6487 184.951 23.0369C184.468 23.4252 184.111 23.9342 183.879 24.5639C183.647 25.1937 183.531 25.8731 183.531 26.6023C183.531 27.3314 183.647 28.0085 183.879 28.6335C184.111 29.2585 184.468 29.7628 184.951 30.1463C185.434 30.5298 186.05 30.7216 186.798 30.7216ZM199.158 21.0909V22.5114H193.277V21.0909H199.158ZM195.038 32V19.5852C195.038 18.9602 195.185 18.4394 195.479 18.0227C195.772 17.6061 196.153 17.2936 196.622 17.0852C197.091 16.8769 197.586 16.7727 198.107 16.7727C198.518 16.7727 198.855 16.8059 199.115 16.8722C199.375 16.9384 199.57 17 199.697 17.0568L199.214 18.5057C199.129 18.4773 199.011 18.4418 198.859 18.3991C198.713 18.3565 198.518 18.3352 198.277 18.3352C197.723 18.3352 197.323 18.4749 197.077 18.7543C196.835 19.0336 196.714 19.4432 196.714 19.983V32H195.038ZM211.848 32H207.359V17.4545H212.047C213.458 17.4545 214.665 17.7457 215.669 18.3281C216.672 18.9058 217.442 19.7367 217.977 20.821C218.512 21.9006 218.779 23.1932 218.779 24.6989C218.779 26.214 218.51 27.5185 217.97 28.6122C217.43 29.7012 216.644 30.5393 215.612 31.1264C214.58 31.7088 213.325 32 211.848 32ZM209.12 30.4375H211.734C212.937 30.4375 213.933 30.2055 214.724 29.7415C215.515 29.2775 216.104 28.617 216.493 27.7599C216.881 26.9029 217.075 25.8826 217.075 24.6989C217.075 23.5246 216.883 22.5137 216.5 21.6662C216.116 20.8139 215.543 20.1605 214.781 19.706C214.019 19.2467 213.069 19.017 211.933 19.017H209.12V30.4375ZM224.717 32.2557C224.026 32.2557 223.398 32.1255 222.835 31.8651C222.271 31.5999 221.824 31.2188 221.493 30.7216C221.161 30.2197 220.995 29.6136 220.995 28.9034C220.995 28.2784 221.118 27.7718 221.365 27.3835C221.611 26.9905 221.94 26.6828 222.352 26.4602C222.764 26.2377 223.218 26.072 223.716 25.9631C224.217 25.8494 224.722 25.7595 225.228 25.6932C225.891 25.608 226.429 25.544 226.841 25.5014C227.257 25.4541 227.56 25.3759 227.75 25.267C227.944 25.1581 228.041 24.9687 228.041 24.6989V24.642C228.041 23.9413 227.849 23.3968 227.466 23.0085C227.087 22.6203 226.511 22.4261 225.74 22.4261C224.94 22.4261 224.312 22.6013 223.858 22.9517C223.403 23.3021 223.083 23.6761 222.899 24.0739L221.308 23.5057C221.592 22.8428 221.971 22.3267 222.444 21.9574C222.922 21.5833 223.443 21.3229 224.007 21.1761C224.575 21.0246 225.134 20.9489 225.683 20.9489C226.033 20.9489 226.436 20.9915 226.89 21.0767C227.35 21.1572 227.792 21.3253 228.218 21.581C228.649 21.8366 229.007 22.2225 229.291 22.7386C229.575 23.2547 229.717 23.946 229.717 24.8125V32H228.041V30.5227H227.956C227.842 30.7595 227.653 31.0128 227.387 31.2827C227.122 31.5526 226.77 31.7822 226.329 31.9716C225.889 32.161 225.351 32.2557 224.717 32.2557ZM224.973 30.75C225.636 30.75 226.194 30.6198 226.649 30.3594C227.108 30.099 227.454 29.7628 227.686 29.3509C227.922 28.9389 228.041 28.5057 228.041 28.0511V26.517C227.97 26.6023 227.814 26.6804 227.572 26.7514C227.335 26.8177 227.061 26.8769 226.748 26.929C226.44 26.9763 226.14 27.0189 225.846 27.0568C225.557 27.09 225.323 27.1184 225.143 27.142C224.708 27.1989 224.3 27.2912 223.922 27.419C223.547 27.5421 223.244 27.7292 223.012 27.9801C222.785 28.2263 222.672 28.5625 222.672 28.9886C222.672 29.571 222.887 30.0114 223.318 30.3097C223.753 30.6032 224.305 30.75 224.973 30.75ZM237.521 21.0909V22.5114H231.867V21.0909H237.521ZM233.515 18.4773H235.191V28.875C235.191 29.3485 235.26 29.7036 235.397 29.9403C235.539 30.1723 235.719 30.3286 235.937 30.4091C236.159 30.4848 236.394 30.5227 236.64 30.5227C236.825 30.5227 236.976 30.5133 237.094 30.4943C237.213 30.4706 237.308 30.4517 237.379 30.4375L237.719 31.9432C237.606 31.9858 237.447 32.0284 237.244 32.071C237.04 32.1184 236.782 32.142 236.469 32.142C235.996 32.142 235.532 32.0402 235.077 31.8366C234.628 31.633 234.254 31.3229 233.955 30.9062C233.662 30.4896 233.515 29.964 233.515 29.3295V18.4773ZM243.252 32.2557C242.561 32.2557 241.933 32.1255 241.37 31.8651C240.807 31.5999 240.359 31.2188 240.028 30.7216C239.696 30.2197 239.531 29.6136 239.531 28.9034C239.531 28.2784 239.654 27.7718 239.9 27.3835C240.146 26.9905 240.475 26.6828 240.887 26.4602C241.299 26.2377 241.754 26.072 242.251 25.9631C242.753 25.8494 243.257 25.7595 243.763 25.6932C244.426 25.608 244.964 25.544 245.376 25.5014C245.792 25.4541 246.095 25.3759 246.285 25.267C246.479 25.1581 246.576 24.9687 246.576 24.6989V24.642C246.576 23.9413 246.384 23.3968 246.001 23.0085C245.622 22.6203 245.047 22.4261 244.275 22.4261C243.475 22.4261 242.847 22.6013 242.393 22.9517C241.938 23.3021 241.619 23.6761 241.434 24.0739L239.843 23.5057C240.127 22.8428 240.506 22.3267 240.979 21.9574C241.458 21.5833 241.978 21.3229 242.542 21.1761C243.11 21.0246 243.669 20.9489 244.218 20.9489C244.568 20.9489 244.971 20.9915 245.425 21.0767C245.885 21.1572 246.327 21.3253 246.754 21.581C247.184 21.8366 247.542 22.2225 247.826 22.7386C248.11 23.2547 248.252 23.946 248.252 24.8125V32H246.576V30.5227H246.491C246.377 30.7595 246.188 31.0128 245.923 31.2827C245.657 31.5526 245.305 31.7822 244.864 31.9716C244.424 32.161 243.887 32.2557 243.252 32.2557ZM243.508 30.75C244.171 30.75 244.729 30.6198 245.184 30.3594C245.643 30.099 245.989 29.7628 246.221 29.3509C246.458 28.9389 246.576 28.5057 246.576 28.0511V26.517C246.505 26.6023 246.349 26.6804 246.107 26.7514C245.871 26.8177 245.596 26.8769 245.283 26.929C244.976 26.9763 244.675 27.0189 244.381 27.0568C244.093 27.09 243.858 27.1184 243.678 27.142C243.243 27.1989 242.835 27.2912 242.457 27.419C242.083 27.5421 241.78 27.7292 241.548 27.9801C241.32 28.2263 241.207 28.5625 241.207 28.9886C241.207 29.571 241.422 30.0114 241.853 30.3097C242.289 30.6032 242.84 30.75 243.508 30.75ZM260.147 32.2557C259.455 32.2557 258.828 32.1255 258.265 31.8651C257.701 31.5999 257.254 31.2188 256.922 30.7216C256.591 30.2197 256.425 29.6136 256.425 28.9034C256.425 28.2784 256.548 27.7718 256.794 27.3835C257.041 26.9905 257.37 26.6828 257.782 26.4602C258.194 26.2377 258.648 26.072 259.145 25.9631C259.647 25.8494 260.151 25.7595 260.658 25.6932C261.321 25.608 261.858 25.544 262.27 25.5014C262.687 25.4541 262.99 25.3759 263.179 25.267C263.373 25.1581 263.471 24.9687 263.471 24.6989V24.642C263.471 23.9413 263.279 23.3968 262.895 23.0085C262.516 22.6203 261.941 22.4261 261.169 22.4261C260.369 22.4261 259.742 22.6013 259.287 22.9517C258.833 23.3021 258.513 23.6761 258.328 24.0739L256.738 23.5057C257.022 22.8428 257.4 22.3267 257.874 21.9574C258.352 21.5833 258.873 21.3229 259.436 21.1761C260.005 21.0246 260.563 20.9489 261.113 20.9489C261.463 20.9489 261.865 20.9915 262.32 21.0767C262.779 21.1572 263.222 21.3253 263.648 21.581C264.079 21.8366 264.436 22.2225 264.721 22.7386C265.005 23.2547 265.147 23.946 265.147 24.8125V32H263.471V30.5227H263.385C263.272 30.7595 263.082 31.0128 262.817 31.2827C262.552 31.5526 262.199 31.7822 261.759 31.9716C261.319 32.161 260.781 32.2557 260.147 32.2557ZM260.402 30.75C261.065 30.75 261.624 30.6198 262.078 30.3594C262.538 30.099 262.883 29.7628 263.115 29.3509C263.352 28.9389 263.471 28.5057 263.471 28.0511V26.517C263.4 26.6023 263.243 26.6804 263.002 26.7514C262.765 26.8177 262.49 26.8769 262.178 26.929C261.87 26.9763 261.569 27.0189 261.276 27.0568C260.987 27.09 260.753 27.1184 260.573 27.142C260.137 27.1989 259.73 27.2912 259.351 27.419C258.977 27.5421 258.674 27.7292 258.442 27.9801C258.215 28.2263 258.101 28.5625 258.101 28.9886C258.101 29.571 258.317 30.0114 258.748 30.3097C259.183 30.6032 259.735 30.75 260.402 30.75ZM269.882 25.4375V32H268.206V21.0909H269.825V22.7955H269.967C270.223 22.2415 270.611 21.7964 271.132 21.4602C271.653 21.1193 272.325 20.9489 273.149 20.9489C273.888 20.9489 274.534 21.1004 275.088 21.4034C275.642 21.7017 276.073 22.1562 276.381 22.767C276.688 23.3731 276.842 24.1402 276.842 25.0682V32H275.166V25.1818C275.166 24.3248 274.944 23.6572 274.499 23.179C274.054 22.696 273.443 22.4545 272.666 22.4545C272.131 22.4545 271.653 22.5705 271.232 22.8026C270.815 23.0346 270.486 23.3731 270.244 23.8182C270.003 24.2633 269.882 24.803 269.882 25.4375ZM284.025 32.2273C283.115 32.2273 282.313 31.9976 281.617 31.5384C280.921 31.0743 280.376 30.4209 279.983 29.5781C279.59 28.7306 279.394 27.7292 279.394 26.5739C279.394 25.428 279.59 24.4337 279.983 23.5909C280.376 22.7481 280.923 22.0971 281.624 21.6378C282.325 21.1785 283.134 20.9489 284.053 20.9489C284.763 20.9489 285.324 21.0672 285.736 21.304C286.153 21.536 286.47 21.8011 286.688 22.0994C286.91 22.393 287.083 22.6345 287.206 22.8239H287.348V17.4545H289.025V32H287.405V30.3239H287.206C287.083 30.5227 286.908 30.7737 286.681 31.0767C286.453 31.375 286.129 31.6425 285.708 31.8793C285.286 32.1113 284.725 32.2273 284.025 32.2273ZM284.252 30.7216C284.924 30.7216 285.492 30.5464 285.956 30.196C286.42 29.8409 286.773 29.3509 287.015 28.7259C287.256 28.0961 287.377 27.3693 287.377 26.5455C287.377 25.7311 287.258 25.0185 287.022 24.4077C286.785 23.7921 286.435 23.3139 285.971 22.973C285.507 22.6274 284.934 22.4545 284.252 22.4545C283.542 22.4545 282.95 22.6368 282.476 23.0014C282.007 23.3613 281.655 23.8513 281.418 24.4716C281.186 25.0871 281.07 25.7784 281.07 26.5455C281.07 27.322 281.188 28.0275 281.425 28.6619C281.667 29.2917 282.022 29.7936 282.49 30.1676C282.964 30.5369 283.551 30.7216 284.252 30.7216Z" fill="#2B64A5"/>
<path d="M121.523 43.4545V58H119.761V43.4545H121.523ZM126.503 51.4375V58H124.827V47.0909H126.446V48.7955H126.588C126.844 48.2415 127.232 47.7964 127.753 47.4602C128.274 47.1193 128.946 46.9489 129.77 46.9489C130.509 46.9489 131.155 47.1004 131.709 47.4034C132.263 47.7017 132.694 48.1562 133.002 48.767C133.31 49.3731 133.463 50.1402 133.463 51.0682V58H131.787V51.1818C131.787 50.3248 131.565 49.6572 131.12 49.179C130.675 48.696 130.064 48.4545 129.287 48.4545C128.752 48.4545 128.274 48.5705 127.853 48.8026C127.436 49.0346 127.107 49.3731 126.865 49.8182C126.624 50.2633 126.503 50.803 126.503 51.4375ZM141.384 47.0909V48.5114H135.504V47.0909H141.384ZM137.265 58V45.5852C137.265 44.9602 137.412 44.4394 137.705 44.0227C137.999 43.6061 138.38 43.2936 138.849 43.0852C139.317 42.8769 139.812 42.7727 140.333 42.7727C140.745 42.7727 141.081 42.8059 141.342 42.8722C141.602 42.9384 141.796 43 141.924 43.0568L141.441 44.5057C141.356 44.4773 141.237 44.4418 141.086 44.3991C140.939 44.3565 140.745 44.3352 140.504 44.3352C139.95 44.3352 139.549 44.4749 139.303 44.7543C139.062 45.0336 138.941 45.4432 138.941 45.983V58H137.265ZM147.716 58.2273C146.731 58.2273 145.867 57.9929 145.124 57.5241C144.385 57.0554 143.807 56.3996 143.391 55.5568C142.979 54.714 142.773 53.7292 142.773 52.6023C142.773 51.4659 142.979 50.474 143.391 49.6264C143.807 48.7789 144.385 48.1207 145.124 47.652C145.867 47.1832 146.731 46.9489 147.716 46.9489C148.701 46.9489 149.563 47.1832 150.301 47.652C151.045 48.1207 151.622 48.7789 152.034 49.6264C152.451 50.474 152.659 51.4659 152.659 52.6023C152.659 53.7292 152.451 54.714 152.034 55.5568C151.622 56.3996 151.045 57.0554 150.301 57.5241C149.563 57.9929 148.701 58.2273 147.716 58.2273ZM147.716 56.7216C148.464 56.7216 149.08 56.5298 149.562 56.1463C150.045 55.7628 150.403 55.2585 150.635 54.6335C150.867 54.0085 150.983 53.3314 150.983 52.6023C150.983 51.8731 150.867 51.1937 150.635 50.5639C150.403 49.9342 150.045 49.4252 149.562 49.0369C149.08 48.6487 148.464 48.4545 147.716 48.4545C146.968 48.4545 146.352 48.6487 145.869 49.0369C145.386 49.4252 145.029 49.9342 144.797 50.5639C144.565 51.1937 144.449 51.8731 144.449 52.6023C144.449 53.3314 144.565 54.0085 144.797 54.6335C145.029 55.2585 145.386 55.7628 145.869 56.1463C146.352 56.5298 146.968 56.7216 147.716 56.7216ZM155.218 58V47.0909H156.837V48.7386H156.951C157.15 48.1989 157.509 47.7609 158.03 47.4247C158.551 47.0885 159.138 46.9205 159.792 46.9205C159.915 46.9205 160.069 46.9228 160.253 46.9276C160.438 46.9323 160.578 46.9394 160.672 46.9489V48.6534C160.615 48.6392 160.485 48.6179 160.282 48.5895C160.083 48.5563 159.872 48.5398 159.65 48.5398C159.119 48.5398 158.646 48.651 158.229 48.8736C157.817 49.0914 157.49 49.3944 157.249 49.7827C157.012 50.1662 156.894 50.6042 156.894 51.0966V58H155.218ZM162.659 58V47.0909H164.278V48.7955H164.42C164.648 48.2131 165.015 47.7609 165.521 47.4389C166.028 47.1122 166.636 46.9489 167.347 46.9489C168.066 46.9489 168.665 47.1122 169.143 47.4389C169.626 47.7609 170.003 48.2131 170.273 48.7955H170.386C170.666 48.232 171.085 47.7846 171.643 47.4531C172.202 47.117 172.872 46.9489 173.653 46.9489C174.629 46.9489 175.427 47.2543 176.047 47.8651C176.667 48.4711 176.977 49.4157 176.977 50.6989V58H175.301V50.6989C175.301 49.8939 175.081 49.3187 174.641 48.973C174.2 48.6274 173.682 48.4545 173.085 48.4545C172.318 48.4545 171.724 48.6866 171.303 49.1506C170.881 49.6098 170.67 50.1922 170.67 50.8977V58H168.966V50.5284C168.966 49.9081 168.765 49.4086 168.362 49.0298C167.96 48.6463 167.441 48.4545 166.807 48.4545C166.371 48.4545 165.964 48.5705 165.585 48.8026C165.211 49.0346 164.908 49.3565 164.676 49.7685C164.449 50.1757 164.335 50.6468 164.335 51.1818V58H162.659ZM183.252 58.2557C182.561 58.2557 181.933 58.1255 181.37 57.8651C180.807 57.5999 180.359 57.2188 180.028 56.7216C179.696 56.2197 179.531 55.6136 179.531 54.9034C179.531 54.2784 179.654 53.7718 179.9 53.3835C180.146 52.9905 180.475 52.6828 180.887 52.4602C181.299 52.2377 181.754 52.072 182.251 51.9631C182.753 51.8494 183.257 51.7595 183.763 51.6932C184.426 51.608 184.964 51.544 185.376 51.5014C185.792 51.4541 186.095 51.3759 186.285 51.267C186.479 51.1581 186.576 50.9687 186.576 50.6989V50.642C186.576 49.9413 186.384 49.3968 186.001 49.0085C185.622 48.6203 185.047 48.4261 184.275 48.4261C183.475 48.4261 182.847 48.6013 182.393 48.9517C181.938 49.3021 181.619 49.6761 181.434 50.0739L179.843 49.5057C180.127 48.8428 180.506 48.3267 180.979 47.9574C181.458 47.5833 181.978 47.3229 182.542 47.1761C183.11 47.0246 183.669 46.9489 184.218 46.9489C184.568 46.9489 184.971 46.9915 185.425 47.0767C185.885 47.1572 186.327 47.3253 186.754 47.581C187.184 47.8366 187.542 48.2225 187.826 48.7386C188.11 49.2547 188.252 49.946 188.252 50.8125V58H186.576V56.5227H186.491C186.377 56.7595 186.188 57.0128 185.923 57.2827C185.657 57.5526 185.305 57.7822 184.864 57.9716C184.424 58.161 183.887 58.2557 183.252 58.2557ZM183.508 56.75C184.171 56.75 184.729 56.6198 185.184 56.3594C185.643 56.099 185.989 55.7628 186.221 55.3509C186.458 54.9389 186.576 54.5057 186.576 54.0511V52.517C186.505 52.6023 186.349 52.6804 186.107 52.7514C185.871 52.8177 185.596 52.8769 185.283 52.929C184.976 52.9763 184.675 53.0189 184.381 53.0568C184.093 53.09 183.858 53.1184 183.678 53.142C183.243 53.1989 182.835 53.2912 182.457 53.419C182.083 53.5421 181.78 53.7292 181.548 53.9801C181.32 54.2263 181.207 54.5625 181.207 54.9886C181.207 55.571 181.422 56.0114 181.853 56.3097C182.289 56.6032 182.84 56.75 183.508 56.75ZM196.056 47.0909V48.5114H190.402V47.0909H196.056ZM192.05 44.4773H193.726V54.875C193.726 55.3485 193.795 55.7036 193.932 55.9403C194.074 56.1723 194.254 56.3286 194.472 56.4091C194.694 56.4848 194.929 56.5227 195.175 56.5227C195.36 56.5227 195.511 56.5133 195.63 56.4943C195.748 56.4706 195.843 56.4517 195.914 56.4375L196.255 57.9432C196.141 57.9858 195.982 58.0284 195.779 58.071C195.575 58.1184 195.317 58.142 195.005 58.142C194.531 58.142 194.067 58.0402 193.613 57.8366C193.163 57.633 192.789 57.3229 192.49 56.9062C192.197 56.4896 192.05 55.964 192.05 55.3295V44.4773ZM198.577 58V47.0909H200.253V58H198.577ZM199.429 45.2727C199.103 45.2727 198.821 45.1615 198.584 44.9389C198.352 44.7164 198.236 44.4489 198.236 44.1364C198.236 43.8239 198.352 43.5563 198.584 43.3338C198.821 43.1113 199.103 43 199.429 43C199.756 43 200.035 43.1113 200.267 43.3338C200.504 43.5563 200.623 43.8239 200.623 44.1364C200.623 44.4489 200.504 44.7164 200.267 44.9389C200.035 45.1615 199.756 45.2727 199.429 45.2727ZM207.755 58.2273C206.77 58.2273 205.906 57.9929 205.163 57.5241C204.424 57.0554 203.846 56.3996 203.43 55.5568C203.018 54.714 202.812 53.7292 202.812 52.6023C202.812 51.4659 203.018 50.474 203.43 49.6264C203.846 48.7789 204.424 48.1207 205.163 47.652C205.906 47.1832 206.77 46.9489 207.755 46.9489C208.74 46.9489 209.602 47.1832 210.34 47.652C211.084 48.1207 211.661 48.7789 212.073 49.6264C212.49 50.474 212.698 51.4659 212.698 52.6023C212.698 53.7292 212.49 54.714 212.073 55.5568C211.661 56.3996 211.084 57.0554 210.34 57.5241C209.602 57.9929 208.74 58.2273 207.755 58.2273ZM207.755 56.7216C208.503 56.7216 209.119 56.5298 209.602 56.1463C210.085 55.7628 210.442 55.2585 210.674 54.6335C210.906 54.0085 211.022 53.3314 211.022 52.6023C211.022 51.8731 210.906 51.1937 210.674 50.5639C210.442 49.9342 210.085 49.4252 209.602 49.0369C209.119 48.6487 208.503 48.4545 207.755 48.4545C207.007 48.4545 206.391 48.6487 205.908 49.0369C205.425 49.4252 205.068 49.9342 204.836 50.5639C204.604 51.1937 204.488 51.8731 204.488 52.6023C204.488 53.3314 204.604 54.0085 204.836 54.6335C205.068 55.2585 205.425 55.7628 205.908 56.1463C206.391 56.5298 207.007 56.7216 207.755 56.7216ZM216.933 51.4375V58H215.257V47.0909H216.876V48.7955H217.018C217.274 48.2415 217.662 47.7964 218.183 47.4602C218.704 47.1193 219.376 46.9489 220.2 46.9489C220.939 46.9489 221.585 47.1004 222.139 47.4034C222.693 47.7017 223.124 48.1562 223.431 48.767C223.739 49.3731 223.893 50.1402 223.893 51.0682V58H222.217V51.1818C222.217 50.3248 221.994 49.6572 221.549 49.179C221.104 48.696 220.493 48.4545 219.717 48.4545C219.182 48.4545 218.704 48.5705 218.282 48.8026C217.866 49.0346 217.537 49.3731 217.295 49.8182C217.054 50.2633 216.933 50.803 216.933 51.4375ZM232.013 45.017V43.4545H242.922V45.017H238.348V58H236.587V45.017H232.013ZM248.405 58.2273C247.354 58.2273 246.447 57.9953 245.685 57.5312C244.927 57.0625 244.342 56.4091 243.93 55.571C243.523 54.7282 243.32 53.7481 243.32 52.6307C243.32 51.5133 243.523 50.5284 243.93 49.6761C244.342 48.8191 244.915 48.1515 245.649 47.6733C246.388 47.1903 247.25 46.9489 248.234 46.9489C248.803 46.9489 249.364 47.0436 249.918 47.233C250.472 47.4223 250.976 47.7301 251.43 48.1562C251.885 48.5777 252.247 49.1364 252.517 49.8324C252.787 50.5284 252.922 51.3854 252.922 52.4034V53.1136H244.513V51.6648H251.217C251.217 51.0492 251.094 50.5 250.848 50.017C250.607 49.5341 250.261 49.1529 249.811 48.8736C249.366 48.5942 248.84 48.4545 248.234 48.4545C247.567 48.4545 246.989 48.6203 246.501 48.9517C246.018 49.2784 245.647 49.7045 245.386 50.2301C245.126 50.7557 244.996 51.3191 244.996 51.9205V52.8864C244.996 53.7102 245.138 54.4086 245.422 54.9815C245.711 55.5497 246.111 55.983 246.622 56.2812C247.134 56.5748 247.728 56.7216 248.405 56.7216C248.845 56.7216 249.243 56.66 249.598 56.5369C249.958 56.4091 250.268 56.2197 250.528 55.9688C250.789 55.7131 250.99 55.3958 251.132 55.017L252.751 55.4716C252.581 56.0208 252.295 56.5038 251.892 56.9205C251.49 57.3324 250.992 57.6544 250.401 57.8864C249.809 58.1136 249.143 58.2273 248.405 58.2273ZM259.903 58.2273C258.881 58.2273 258 57.9858 257.261 57.5028C256.523 57.0199 255.955 56.3546 255.557 55.5071C255.159 54.6596 254.96 53.6913 254.96 52.6023C254.96 51.4943 255.164 50.5166 255.571 49.669C255.983 48.8168 256.556 48.1515 257.29 47.6733C258.028 47.1903 258.89 46.9489 259.875 46.9489C260.642 46.9489 261.333 47.0909 261.949 47.375C262.564 47.6591 263.069 48.0568 263.462 48.5682C263.855 49.0795 264.098 49.6761 264.193 50.358H262.517C262.389 49.8608 262.105 49.4205 261.665 49.0369C261.229 48.6487 260.642 48.4545 259.903 48.4545C259.25 48.4545 258.677 48.625 258.185 48.9659C257.697 49.3021 257.316 49.7779 257.041 50.3935C256.771 51.0043 256.636 51.7216 256.636 52.5455C256.636 53.3883 256.769 54.1222 257.034 54.7472C257.304 55.3722 257.683 55.8575 258.17 56.2031C258.663 56.5488 259.241 56.7216 259.903 56.7216C260.339 56.7216 260.734 56.6458 261.089 56.4943C261.445 56.3428 261.745 56.125 261.991 55.8409C262.238 55.5568 262.413 55.2159 262.517 54.8182H264.193C264.098 55.4621 263.864 56.0421 263.49 56.5582C263.121 57.0696 262.631 57.4768 262.02 57.7798C261.414 58.0781 260.708 58.2273 259.903 58.2273ZM268.32 51.4375V58H266.643V43.4545H268.32V48.7955H268.462C268.717 48.232 269.101 47.7846 269.612 47.4531C270.128 47.117 270.815 46.9489 271.672 46.9489C272.415 46.9489 273.066 47.098 273.625 47.3963C274.184 47.6899 274.617 48.142 274.925 48.7528C275.237 49.3589 275.393 50.1307 275.393 51.0682V58H273.717V51.1818C273.717 50.3153 273.492 49.6454 273.043 49.1719C272.598 48.6937 271.98 48.4545 271.189 48.4545C270.64 48.4545 270.147 48.5705 269.712 48.8026C269.281 49.0346 268.94 49.3731 268.689 49.8182C268.443 50.2633 268.32 50.803 268.32 51.4375ZM280.136 51.4375V58H278.46V47.0909H280.079V48.7955H280.221C280.477 48.2415 280.865 47.7964 281.386 47.4602C281.907 47.1193 282.579 46.9489 283.403 46.9489C284.142 46.9489 284.788 47.1004 285.342 47.4034C285.896 47.7017 286.327 48.1562 286.635 48.767C286.942 49.3731 287.096 50.1402 287.096 51.0682V58H285.42V51.1818C285.42 50.3248 285.198 49.6572 284.752 49.179C284.307 48.696 283.697 48.4545 282.92 48.4545C282.385 48.4545 281.907 48.5705 281.485 48.8026C281.069 49.0346 280.74 49.3731 280.498 49.8182C280.257 50.2633 280.136 50.803 280.136 51.4375ZM294.591 58.2273C293.606 58.2273 292.742 57.9929 291.999 57.5241C291.26 57.0554 290.682 56.3996 290.266 55.5568C289.854 54.714 289.648 53.7292 289.648 52.6023C289.648 51.4659 289.854 50.474 290.266 49.6264C290.682 48.7789 291.26 48.1207 291.999 47.652C292.742 47.1832 293.606 46.9489 294.591 46.9489C295.576 46.9489 296.438 47.1832 297.176 47.652C297.92 48.1207 298.497 48.7789 298.909 49.6264C299.326 50.474 299.534 51.4659 299.534 52.6023C299.534 53.7292 299.326 54.714 298.909 55.5568C298.497 56.3996 297.92 57.0554 297.176 57.5241C296.438 57.9929 295.576 58.2273 294.591 58.2273ZM294.591 56.7216C295.339 56.7216 295.955 56.5298 296.438 56.1463C296.92 55.7628 297.278 55.2585 297.51 54.6335C297.742 54.0085 297.858 53.3314 297.858 52.6023C297.858 51.8731 297.742 51.1937 297.51 50.5639C297.278 49.9342 296.92 49.4252 296.438 49.0369C295.955 48.6487 295.339 48.4545 294.591 48.4545C293.843 48.4545 293.227 48.6487 292.744 49.0369C292.261 49.4252 291.904 49.9342 291.672 50.5639C291.44 51.1937 291.324 51.8731 291.324 52.6023C291.324 53.3314 291.44 54.0085 291.672 54.6335C291.904 55.2585 292.261 55.7628 292.744 56.1463C293.227 56.5298 293.843 56.7216 294.591 56.7216ZM303.769 43.4545V58H302.093V43.4545H303.769ZM311.271 58.2273C310.286 58.2273 309.422 57.9929 308.678 57.5241C307.94 57.0554 307.362 56.3996 306.945 55.5568C306.533 54.714 306.327 53.7292 306.327 52.6023C306.327 51.4659 306.533 50.474 306.945 49.6264C307.362 48.7789 307.94 48.1207 308.678 47.652C309.422 47.1832 310.286 46.9489 311.271 46.9489C312.255 46.9489 313.117 47.1832 313.856 47.652C314.599 48.1207 315.177 48.7789 315.589 49.6264C316.005 50.474 316.214 51.4659 316.214 52.6023C316.214 53.7292 316.005 54.714 315.589 55.5568C315.177 56.3996 314.599 57.0554 313.856 57.5241C313.117 57.9929 312.255 58.2273 311.271 58.2273ZM311.271 56.7216C312.019 56.7216 312.634 56.5298 313.117 56.1463C313.6 55.7628 313.958 55.2585 314.19 54.6335C314.422 54.0085 314.538 53.3314 314.538 52.6023C314.538 51.8731 314.422 51.1937 314.19 50.5639C313.958 49.9342 313.6 49.4252 313.117 49.0369C312.634 48.6487 312.019 48.4545 311.271 48.4545C310.522 48.4545 309.907 48.6487 309.424 49.0369C308.941 49.4252 308.584 49.9342 308.352 50.5639C308.12 51.1937 308.004 51.8731 308.004 52.6023C308.004 53.3314 308.12 54.0085 308.352 54.6335C308.584 55.2585 308.941 55.7628 309.424 56.1463C309.907 56.5298 310.522 56.7216 311.271 56.7216ZM323.176 62.3182C322.366 62.3182 321.67 62.214 321.088 62.0057C320.505 61.8021 320.02 61.5322 319.632 61.196C319.248 60.8646 318.943 60.5095 318.716 60.1307L320.051 59.1932C320.202 59.392 320.394 59.6193 320.626 59.875C320.858 60.1354 321.175 60.3603 321.578 60.5497C321.985 60.7438 322.518 60.8409 323.176 60.8409C324.056 60.8409 324.783 60.6278 325.356 60.2017C325.929 59.7756 326.216 59.108 326.216 58.1989V55.983H326.074C325.95 56.1818 325.775 56.428 325.548 56.7216C325.325 57.0104 325.003 57.2685 324.582 57.4957C324.165 57.7183 323.602 57.8295 322.892 57.8295C322.011 57.8295 321.22 57.6212 320.52 57.2045C319.824 56.7879 319.272 56.1818 318.865 55.3864C318.462 54.5909 318.261 53.625 318.261 52.4886C318.261 51.3712 318.458 50.3982 318.85 49.5696C319.243 48.7363 319.79 48.0923 320.491 47.6378C321.192 47.1785 322.002 46.9489 322.92 46.9489C323.63 46.9489 324.194 47.0672 324.61 47.304C325.032 47.536 325.354 47.8011 325.576 48.0994C325.804 48.393 325.979 48.6345 326.102 48.8239H326.272V47.0909H327.892V58.3125C327.892 59.25 327.679 60.0123 327.252 60.5994C326.831 61.1913 326.263 61.6245 325.548 61.8991C324.838 62.1785 324.047 62.3182 323.176 62.3182ZM323.119 56.3239C323.791 56.3239 324.359 56.17 324.824 55.8622C325.288 55.5545 325.64 55.1117 325.882 54.5341C326.123 53.9564 326.244 53.2652 326.244 52.4602C326.244 51.6742 326.126 50.9806 325.889 50.3793C325.652 49.7779 325.302 49.3068 324.838 48.9659C324.374 48.625 323.801 48.4545 323.119 48.4545C322.409 48.4545 321.817 48.6345 321.343 48.9943C320.875 49.3542 320.522 49.8371 320.285 50.4432C320.053 51.0492 319.937 51.7216 319.937 52.4602C319.937 53.2178 320.056 53.8878 320.292 54.4702C320.534 55.0478 320.889 55.5024 321.358 55.8338C321.831 56.1605 322.418 56.3239 323.119 56.3239ZM332.039 62.0909C331.755 62.0909 331.502 62.0672 331.279 62.0199C331.057 61.9773 330.903 61.9347 330.818 61.892L331.244 60.4148C331.651 60.5189 332.011 60.5568 332.324 60.5284C332.636 60.5 332.913 60.3603 333.154 60.1094C333.401 59.8632 333.626 59.4631 333.829 58.9091L334.142 58.0568L330.108 47.0909H331.926L334.937 55.7841H335.051L338.062 47.0909H339.88L335.25 59.5909C335.041 60.1544 334.783 60.6207 334.475 60.9901C334.168 61.3641 333.81 61.6411 333.403 61.821C333.001 62.0009 332.546 62.0909 332.039 62.0909Z" fill="#2B64A5"/>
</svg>
