<svg width="311" height="524" viewBox="0 0 311 524" fill="none" xmlns="http://www.w3.org/2000/svg">
<mask id="mask0_597_1519" style="mask-type:luminance" maskUnits="userSpaceOnUse" x="0" y="-127" width="483" height="450">
<path d="M482.637 166.729L129.652 322.775L0.00215257 29.5005L352.987 -126.546L482.637 166.729Z" fill="white"/>
</mask>
<g mask="url(#mask0_597_1519)">
<path d="M83.4721 211.334C83.2021 211.546 81.5502 210.61 83.3314 212.941C84.8764 214.65 86.5775 216.205 88.4244 217.617C90.2734 218.929 92.229 220.079 94.2967 221.08C96.2916 222.057 98.3673 222.884 100.511 223.566C102.607 224.178 104.751 224.668 106.929 225.044C111.234 225.782 115.608 226.084 120.036 225.949C124.572 225.845 129.096 225.419 133.609 224.67C133.122 224.899 132.612 225.075 132.076 225.176C137.961 224.362 143.733 222.993 149.393 221.074C154.675 219.23 159.704 217.634 164.359 216.259C166.04 215.495 171.124 213.532 169.359 213.515C167.186 214.148 166.682 213.567 166.689 213.093C170.678 211.472 171.723 211.316 172.479 211.381C173.241 211.443 173.679 211.662 176.338 210.587C178.417 210.984 173.176 212.504 173.488 213.42L181.082 209.906C185.562 208.452 189.72 206.216 193.657 205.038C191.935 205.642 193.447 206.07 190.469 206.824C190.883 206.606 190.564 206.654 190.971 206.438C184.866 208.803 187.28 208.398 182.925 210.451C185.194 209.405 187.75 208.254 190.279 207.165C193.182 205.924 195.96 204.611 198.242 203.751C196.956 203.487 201.734 201.901 202.752 200.86L203.057 200.797C202.925 200.499 205.537 199.003 206.329 198.517L207.834 198.842C209.7 197.81 207.08 198.676 208.935 197.657C209.587 197.276 210.694 196.716 211.968 196.045C213.252 195.378 214.704 194.601 216.121 193.903C218.962 192.505 221.636 191.394 222.197 191.63C225.35 189.781 225.998 188.797 229.35 187.066C229.221 187.422 228.472 187.952 228.417 188.126C232.001 186.307 235.759 183.884 239.563 181.654C243.341 179.364 246.995 176.987 250.362 175.185C254.611 172.246 258.6 169.016 262.329 165.495C261.057 166.555 257.009 169.214 259.12 167.006C260.741 165.456 262.467 164.003 264.289 162.663C264.119 163.4 269.797 159.174 265.904 162.483C267.702 162.628 274.441 155.519 275.105 156.408C275.883 155.473 281.527 150.892 283.214 148.722C284.007 148.677 280.445 151.491 280.673 151.725L283.099 149.477L283.318 149.708C285.132 148.386 286.686 146.824 287.97 145.038C288.823 143.729 289.781 142.501 290.858 141.348L290.846 141.531L292.609 139.706L291.016 142.318C293.963 139.548 294.836 137.497 297.95 134.283L298.475 134.158L300.195 132.08C299.908 132.428 299.892 132.62 300.157 132.467C301.349 130.139 305.636 126.235 306.738 124.089C308.058 122.908 309.887 122.512 310.979 120.378L311.454 121.364C307.459 125.65 309.377 122.46 305.341 127.142C309.578 124.735 318.292 115.407 324.18 109.487C326.796 106.564 329.604 103.814 332.585 101.228C334.038 99.8742 335.453 98.7002 336.52 97.5949C337.398 96.7797 338.122 95.8615 338.692 94.8405L338.556 95.7408L343.108 92.4539L347.759 89.4082C349.666 88.0669 351.624 86.7738 353.598 85.5666L356.598 83.8985L358.069 83.0773C358.561 82.8243 359.069 82.6071 359.566 82.366C361.546 81.4548 363.414 80.4443 365.283 79.7533C367.118 78.9848 368.827 78.1436 370.454 77.5525L372.401 77.5461C374.497 76.4916 376.686 75.7374 378.979 75.2864C381.787 74.7071 384.606 74.3793 387.445 74.3063C393.222 74.1233 398.667 74.8347 401.307 74.451C405.134 75.8276 399.84 74.9498 399.359 75.2267C400.767 75.6648 402.82 75.7398 404.764 76.1978C405.723 76.3718 406.665 76.6107 407.579 76.9113C408.366 77.2041 409.079 77.6082 409.719 78.1296C409.564 78.4261 405.728 76.8896 407.388 77.7575C408.096 78.2917 408.906 78.6174 409.823 78.7317C410.83 78.8562 411.684 79.2476 412.385 79.9059C411.723 78.8813 416.635 80.277 419.827 82.0701C419.539 81.9267 419.286 81.7396 419.055 81.5142C418.967 81.1757 419.498 81.3611 420.221 81.718C420.95 82.072 421.801 82.6853 422.454 83.0589C422.254 83.0619 422.062 83.0117 421.892 82.9085C426.147 85.3565 430.037 88.222 433.572 91.5083C435.441 93.1455 437.105 95.0016 438.814 96.8376C440.393 98.7811 442.01 100.722 443.381 102.843C446.231 107.051 448.6 111.515 450.495 116.224C452.343 120.875 453.768 125.656 454.766 130.576C454.345 129.431 453.846 128.32 453.401 127.207C454.473 130.158 455.143 133.215 455.425 136.373L455.304 135.977C455.243 137.834 455.509 139.625 456.097 141.359C456.677 142.811 456.797 144.324 456.453 145.893L456.271 145.112C456.902 151.441 455.878 155.304 456.357 161.5C455.799 166.417 455.291 165.88 454.581 169.263C454.384 170.76 454.521 172.209 455.006 173.603L455.199 172.236C455.953 170.757 455.406 175.242 455.447 177.296C456.54 175.83 458.001 176.736 459.499 170.919C459.52 166.624 461.348 166.734 461.381 161.835C460.158 159.122 462.448 154.763 461.042 150.408C462.05 152.689 461.218 145.047 462.399 148.84C462.535 146.836 462.358 144.878 461.89 142.963C461.354 140.629 461.042 138.261 460.968 135.852C461.246 136.377 461.432 136.202 461.679 137.004C460.364 132.245 461.716 133.535 460.95 129.929L460.09 130.295C459.513 128.99 460.038 128.409 459.557 127.234C459.732 128.224 459.762 130.376 459.159 129.396C458.498 127.901 457.924 126.375 457.44 124.809C457.765 124.686 458.246 125.862 458.568 126.66C458.568 126.66 458.338 125.701 458.148 124.695C457.921 123.97 457.838 123.223 457.898 122.449C458.629 123.699 459.087 125.469 459.898 126.535C458.814 121.403 460.081 126.055 460.107 123.366C459.25 124.386 458.4 119.137 457.079 116.588C457.377 116.158 457.911 118.399 458.452 118.957C458.434 116.502 457.766 114.255 456.454 112.215C454.977 109.906 453.637 107.523 452.427 105.067C452.799 105.401 453.112 105.775 453.351 106.211C452.607 104.966 451.948 103.684 451.376 102.356C450.987 101.232 450.349 100.261 449.47 99.4461C448.657 98.0613 448.831 97.771 448.855 97.3188C448.886 96.8636 448.803 96.2027 447.232 94.2415C447.236 95.1439 446.378 93.9566 445.385 92.6016C444.373 91.276 443.108 89.8844 442.627 90.1967C441.968 89.0923 441.29 87.9965 440.52 86.9555C439.072 85.9724 438.875 86.4724 438.435 86.6315C437.96 86.8344 437.398 86.5628 434.859 84.4954C430.627 80.2787 436.633 83.4835 434.359 80.7368L432.737 80.3073L430.642 78.1578L431.04 78.3945C429.49 77.4424 426.773 75.5677 426.988 75.2662C427.397 75.2132 429.055 76.3029 429.459 76.2527C428.481 75.7737 427.58 75.1893 426.756 74.5143C425.714 73.7148 424.437 72.8762 423.179 72.0084C421.979 71.1651 420.677 70.4446 419.303 69.8561C418.265 69.311 417.132 69.0427 415.918 69.0452C414.346 68.0958 410.793 66.7115 411.443 66.4313C409.675 66.2304 407.983 65.7821 406.382 65.1014C404.54 64.4704 402.628 64.0484 400.655 63.8385C401.061 63.6375 398.722 62.863 396.736 62.7653C399.277 63.4364 397.569 63.4582 395.76 63.6028C394.014 63.2069 392.241 62.9586 390.43 62.8547C388.385 62.762 386.484 62.6981 385.993 62.253C384.152 62.4829 383.571 62.8825 383.353 63.178C383.132 63.4824 383.262 63.7949 382.875 64.1442C382.06 64.0699 381.236 64.0428 380.413 64.0719L378.863 64.1021L377.335 64.2508C375.379 64.4317 373.843 64.4916 374.41 63.8847C375.409 63.7635 377.011 63.5538 378.253 63.3179C379.496 63.082 380.42 62.9508 379.972 62.6365C378.028 62.5986 377.644 62.868 377.321 63.0111C376.682 63.4216 375.994 63.6687 375.244 63.7581C375.453 63.5305 373.041 63.5359 373.585 63.1387C371.727 63.5045 369.206 64.2774 366.575 64.821C370.718 64.1284 364.187 66.2113 366.713 65.9206L370.386 64.1471C371.105 63.9005 371.838 63.7546 372.581 63.7036C372.941 63.6942 372.979 63.7628 372.937 63.8598C372.846 64.0566 372.397 64.3547 373.315 64.3121C371.757 64.6232 370.244 65.0858 368.773 65.7147C367.899 66.0655 367.046 66.464 366.211 66.9042C364.173 68.1044 362.068 69.1913 359.913 70.1797C358.362 70.6092 356.834 71.1278 355.335 71.7267C357.642 70.5926 356.83 69.9621 355.406 70.4349C354.549 71.0345 353.646 71.5477 352.69 71.9771C351.793 72.4164 350.947 72.812 350.083 73.1512C348.598 73.765 347.059 74.2243 345.676 74.9285C346.549 74.5214 346.872 74.5706 346.837 74.7712C346.614 75.2117 346.307 75.6035 345.921 75.938C340.087 80.3328 343.317 77.189 340.382 78.5859C338.143 80.2594 335.994 81.6651 334.077 83.0536C332.184 84.4601 330.347 85.7137 328.666 87.0051C326.982 88.2905 325.38 89.5683 323.814 90.9087C322.295 92.2706 320.803 93.692 319.314 95.2761L322.959 93.0881L323.399 91.5977C326.222 89.8796 324.223 93.2697 323.278 94.862C322.721 94.9661 318.976 98.6791 320.183 96.9281L316.757 100.714C317.564 100.421 319.825 98.0262 318.396 99.9396C316.978 100.915 313.165 104.474 315.13 101.846C313.213 103.726 311 106.335 311.771 106.222C308.795 109.31 311.3 105.227 312.443 103.646C309.977 106.032 309.766 105.257 310.328 104.375L307.079 107.826C307.631 106.941 307.381 106.724 307.93 105.848C305.521 107.874 304.644 110.056 302.298 111.506L301.993 112.794C295.647 118.519 296.201 117.847 290.637 123.325L291.933 122.738C288.409 127.458 288.272 125.204 282.887 130.896C279.81 134.071 277.833 136.163 278.835 136.347C277.911 137.531 276.722 138.377 275.268 138.87C273.423 141.452 271.181 143.681 268.545 145.559C270.03 143.984 271.213 142.72 272.665 141.331C271.668 141.124 267.299 145.683 264.413 147.4L260.061 151.979C258.135 153.871 256.038 155.937 254.568 157.462C256.491 156.84 256.511 158.006 253.849 160.771C254.029 160.057 249.324 163.298 246.97 164.502C247.754 163.387 241.488 166.876 245.904 163.578C247.363 162.869 248.374 162.985 250.029 161.548C247.322 162.531 244.704 163.717 242.171 165.093C243.01 164.017 244.018 163.109 245.186 162.357C244.469 163.116 245.048 162.903 245.276 162.98C250.412 158.737 243.429 162.864 243.893 161.811C242.561 162.984 239.31 164.905 241.07 164.319C237.469 165.206 232.622 170.61 228.82 171.672C228.742 171.863 230.829 171.068 228.751 172.67C227.298 173.726 225.685 174.417 223.92 174.749C222.212 176.102 220.397 177.282 218.449 178.285C216.331 179.813 221.464 177.964 218.549 180.192C216.811 182.142 213.476 183.054 210.998 184.591C207.619 185.7 213.913 182.641 215.066 181.732L206.448 186.603C205.042 187.046 205.242 186.73 206.141 186.154C207.344 185.374 208.589 184.673 209.885 184.051C206.182 185.46 201.785 187.995 201.029 189.119C199.188 189.997 197.299 190.783 195.378 191.461C197.352 190.203 196.707 189.164 199.884 187.44C205.273 184.943 198.322 189.177 202.972 187.143L203.056 186.336C205.016 185.605 206.852 184.63 208.549 183.41C209.777 182.966 208.409 183.757 207.682 184.249C211.375 182.239 214.577 181.115 216.94 178.846C211.673 180.989 204.489 185.639 201.875 185.94C198.639 187.862 195.393 189.781 192.057 191.547C192.186 191.839 195.999 190.731 193.26 192.447C191.707 192.208 188.554 193.303 184.458 194.786C186.29 195.008 178.289 198.126 180.582 197.973C181.558 197.257 182.64 196.957 183.826 197.066C179.918 198.694 183.599 198.042 181.45 198.957C177.817 200.314 177.833 200.157 177.86 199.974C177.887 199.791 177.933 199.614 174.314 200.758C174.996 200.286 176.231 199.527 177.742 198.588C179.252 197.643 181.046 196.572 182.921 195.615C182.505 195.357 179.054 197.232 177.263 197.468C179.72 196.987 175.954 198.901 177.914 198.327L168.953 202.495C165.787 203.98 162.387 205.305 158.891 206.587C159.618 204.977 170.474 201.716 167.748 200.941C164.406 202.326 164.593 202.891 161.811 203.722C159.877 203.951 157.996 204.441 156.185 205.192C153.867 205.953 151.269 206.902 148.905 207.612L151.101 207.382C148.774 208.297 146.386 208.968 143.933 209.39L144.43 209.078C143.776 209.332 143.126 209.612 142.468 209.839C142.144 209.875 142.062 209.847 142.056 209.8C139.912 210.762 134.149 211.537 129.928 212.264C129.975 212.948 134.155 211.726 136.207 211.396C136.78 211.449 140.801 210.917 138.955 211.748C133.612 212.842 129.917 214.183 123.832 214.545L125.765 214.61C123.292 215.126 120.812 215.275 118.336 215.067C113.247 214.426 122.187 214.29 119.106 213.815C120.299 213.573 121.497 213.463 122.696 213.481C123.897 213.449 124.924 213.287 125.18 212.867C124.1 212.647 123.029 212.43 121.994 212.119C120.663 212.401 119.342 212.422 118.032 212.19C116.782 212.023 115.649 211.805 114.78 211.748C115.38 211.967 115.995 212.15 116.625 212.299C116.129 213.031 114.433 212.293 113.575 212.102L114.675 213.261C117.514 213.679 119.578 212.816 121.68 213.354C120.073 213.48 118.473 213.696 116.882 214.001C115.02 214.304 113.175 214.28 111.359 213.936C111.271 213.719 111.572 213.735 111.971 213.78C112.397 213.833 112.829 213.813 113.264 213.728C112.17 213.528 111.063 213.405 109.941 213.353C108.502 213.284 107.132 212.986 105.83 212.457C106.785 212.605 107.754 212.696 108.728 212.728C109.494 212.639 109.682 212.47 108.621 211.943L106.709 212.24C105.322 211.728 106.013 211.629 105.46 211.41C103.628 210.54 105.572 212.329 102.606 210.992C102.226 210.676 101.413 210.01 101.904 210.07C98.7069 208.422 100.253 209.504 97.175 208.003C99.6479 209.658 99.1005 210.783 96.2726 209.043C92.7408 206.182 90.4669 203.735 89.9074 200.578L88.6007 198.97C89.2615 199.397 88.9201 198.765 88.627 197.77C88.2679 196.782 87.9825 195.769 87.7737 194.736C88.0886 194.433 88.5255 196.035 89.0638 197.655C89.7019 199.238 90.6109 200.752 91.1983 200.435C90.1944 197.831 91.0857 198.797 91.7775 199.417C90.4841 196.806 90.3836 198.837 89.371 197.79C89.3699 196.964 89.2416 196.167 88.9772 195.393C88.7487 194.334 88.8703 193.419 89.326 194.257C89.2124 193.317 88.9642 192.423 88.5656 191.574C88.3015 190.836 88.1837 190.062 88.2178 189.264C88.5688 189.55 89.0147 189.859 89.4443 189.64C89.2751 189.153 89.2448 188.646 89.3623 188.125L89.6709 186.372C89.47 186.845 89.0289 185.41 89.0734 187.804C88.796 186.808 88.7729 185.793 89.0041 184.758C89.2542 183.416 89.4879 182.159 89.2039 182.2C89.8806 182.05 90.6318 176.905 91.8807 174.373C90.9843 174.271 90.7494 175.543 90.5225 176.868C90.2698 178.204 90.2718 179.591 89.4001 179.913C89.7755 177.191 90.5199 174.533 91.6205 171.946C92.7976 168.727 94.4447 165.294 95.4978 162.372C98.3995 157.75 96.1122 162.641 97.232 161.918C95.2135 166.385 94.2079 167.314 92.8884 171.243L96.4454 163.833C97.7145 161.207 98.9245 158.692 99.5741 157.081C102.17 152.573 104.064 152.989 107.191 147.441C106.228 147.888 106.173 147.727 104.916 149.28C105.85 147.663 106.882 146.111 108.01 144.601C108.346 143.47 106.029 146.808 107.202 144.489C107.856 143.694 109.127 141.929 109.226 142.469L109.032 142.853C112.034 137.425 112.704 139.763 114.737 134.785C114.251 135 113.917 136.152 113.036 137.153C112.099 137.781 113.409 134.724 114.62 132.579C114.71 133.131 115.888 130.809 116.962 129.422C118.167 128.769 114.71 133.131 114.611 134.064L117.351 130.126L116.7 130.912L119.05 126.285C117.217 129.403 117.4 127.349 118.216 125.992C120.332 123.041 122.452 120.082 122.834 120.789C122.452 120.082 124.962 116.359 126.596 113.629C124.447 116.402 125.82 113.695 126.172 112.742L129.69 108.744C126.815 113.426 130.895 108.09 130.601 109.403C130.363 111.088 128.18 113.677 126.479 116.045C130.777 111.973 130.266 109.066 133.562 105.267C133.852 105.431 133.947 105.979 132.679 107.75C133.36 107.136 134.611 103.699 136.794 101.111C136.104 101.722 134.489 102.97 136.087 100.071L139.208 96.8396C142.177 92.7008 139.414 94.9759 141.402 91.2988L139.391 93.313C139.002 92.609 142.518 88.6056 141.906 88.1142C140.442 90.2638 140.174 91.7775 138.453 93.941C137.212 94.4254 140.022 90.8551 140.538 89.3452C142.253 86.9568 144.147 84.6953 146.215 82.5636C147.345 83.0182 143.652 89.0722 145.508 89.0851C148.343 84.1721 151.462 79.4113 154.867 74.8086C157.288 70.5344 156.219 70.4445 155.214 70.7105C155.923 69.4431 156.769 68.2576 157.763 67.1631L156.817 69.276C159.849 64.0051 161.458 60.8873 164.807 55.2986C166.458 52.0128 165.063 53.0068 164.116 53.5251C164.744 52.3719 165.318 51.1852 165.913 50.0108L165.485 50.4777C165.208 49.3968 167.046 46.4126 168.113 44.0115C168.438 44.117 167.861 45.6112 168.109 45.5439C169.46 43.2595 170.386 40.8563 170.883 38.3225C171.199 38.3893 171.45 40.1297 170.153 42.6752C169.968 42.9209 169.907 42.7484 169.715 42.997C169.235 44.4838 168.726 45.9761 168.167 47.4411C170.161 42.3943 171.987 39.5223 172.736 39.853C174.172 34.505 170.461 43.8779 172.306 37.6012C174.195 33.8397 175.22 29.9263 175.371 25.8578C175.32 22.7123 175.595 19.5717 176.207 16.439C175.929 15.4438 175.576 14.418 175.211 13.3475C174.761 12.2935 174.394 11.1668 173.823 10.0311C172.658 7.44887 171.291 4.97007 169.723 2.59476C169.405 2.78527 168.818 1.91265 168.141 1.18665C167.464 0.460621 166.804 -0.173431 166.654 0.327235C168.232 2.86243 169.834 5.05188 171.178 7.30549C172.606 9.41542 173.341 11.7605 173.365 14.3346C174.15 16.8284 174.621 15.8444 175.131 16.9644C175.542 19.3106 175.474 21.5904 175.088 21.9249C174.749 19.1982 174.277 18.9012 173.839 18.4184C173.395 17.9384 173.091 17.2682 172.381 14.0005C172.302 15.2744 172.38 16.5358 172.619 17.7759C172.824 19.3942 172.902 21.0255 172.849 22.6725C172.546 21.9876 172.16 22.7421 171.87 24.2732C171.372 21.8872 170.727 19.5523 169.931 17.2625C170.36 17.8487 170.343 16.6178 170.62 17.1219C169.951 15.0322 169.092 13.0195 168.035 11.1015C167.756 9.1034 167.916 8.39876 168.724 9.24505C167.946 7.275 166.896 5.46065 165.575 3.802C164.96 3.00589 164.365 2.34323 164.023 1.79674C163.653 1.27648 163.464 0.918653 163.663 0.7382C160.143 -2.53304 164.364 2.1657 164.201 2.74313L163.909 2.46659C164.986 3.71334 165.932 5.04689 166.748 6.47317C166.543 6.72749 166.302 6.54934 166.015 6.12792C165.737 5.70961 165.337 5.10309 164.958 4.43772C164.137 3.14155 163.08 1.76494 162.352 1.8872C161.801 2.10972 161.281 1.89782 160.771 1.42576C160.116 0.85389 159.521 0.226703 158.99 -0.449796C157.725 -2.06917 156.101 -3.27377 154.122 -4.05769C154.849 -4.02318 155.626 -4.03229 156.367 -3.93249L158.632 -3.58804C157.511 -4.11066 156.353 -4.55987 155.163 -4.92377C156.034 -4.86046 156.908 -4.86221 157.786 -4.92305C159.028 -4.96665 160.178 -4.71285 161.227 -4.15874C160.037 -5.01372 158.781 -5.78983 157.474 -6.48678C156.061 -7.17942 154.596 -7.76338 153.078 -8.23865C151.676 -8.67967 150.239 -9.00581 148.766 -9.22304C147.632 -9.35536 146.485 -9.41091 145.329 -9.38379C143.969 -9.88629 143.321 -10.3545 144.002 -10.8621C141.562 -10.4459 139.116 -10.1688 136.662 -10.0308L133.426 -9.71822C132.27 -9.54908 131.136 -9.2968 130.008 -8.97639C127.584 -7.86175 128.906 -8.12603 130.373 -8.39701C131.881 -8.60823 133.516 -8.83232 131.792 -7.97054C130.799 -7.88772 129.84 -7.6417 128.923 -7.22939C128.035 -6.89356 127.175 -6.49222 126.342 -6.03132C127.723 -6.70591 129.161 -7.1992 130.657 -7.52597C131.652 -7.74484 132.716 -7.98041 133.759 -8.17786L136.777 -8.61503C134.025 -8.04666 134.472 -7.40396 133.795 -6.94073C135.296 -7.22007 136.781 -7.55589 138.299 -7.69299C138.195 -7.22712 136.828 -7.0286 135.255 -6.68227C133.761 -6.45604 132.32 -6.03971 130.938 -5.42135C131.999 -6.57406 131.278 -6.38365 132.398 -7.52661C128.564 -6.1875 123.09 -3.88177 119.866 -2.7199C117.93 -2.09205 121.176 -3.85413 122.08 -4.5033C120.99 -4.60537 118.611 -2.44279 117.622 -2.6321C117.915 -3.38803 119.804 -3.82432 121.002 -4.59631C117.394 -2.93725 113.929 -1.04237 110.594 1.09409C110.409 0.848753 112.822 -0.887319 114.521 -1.71692C111.244 -0.254077 108.561 1.8862 106.462 4.70081C103.083 6.73603 99.2398 9.05423 99.9896 7.89686C98.6923 9.11115 99.8331 8.62821 100.05 8.87404C95.7882 11.8546 96.0696 13.0688 93.5922 14.9044L95.8507 13.9915C91.4415 16.4462 95.5327 15.4777 91.6514 17.6563C91.8718 16.7544 91.1968 16.3479 90.1964 16.2205C89.9748 17.1373 87.3761 18.2434 85.8139 19.2259C87.1505 19.1334 82.7205 21.8038 85.6246 20.7407C82.1553 23.4136 79.9924 23.615 77.4656 25.6363C78.4202 25.2926 77.65 25.861 76.8278 26.4167C76.0081 26.9784 75.1368 27.563 76.0395 27.4345C72.0579 29.1234 69.0788 28.9666 70.0339 28.046C71.3837 27.791 73.6405 27.2419 73.3172 26.8081C71.0197 27.7027 68.6636 28.3598 66.2398 28.7763C65.3242 28.7182 64.2906 28.691 63.4606 28.6165C62.6199 28.4826 61.9889 28.2632 61.8712 27.9094C60.3779 28.2776 58.9186 28.2677 57.4869 27.8824C56.7615 27.7118 56.0272 27.5736 55.2827 27.4827C54.7042 27.3468 54.1174 27.3499 53.5263 27.4831C54.096 27.459 54.6571 27.5029 55.2095 27.6147C55.6916 27.6722 56.1608 27.7709 56.6135 27.9196C57.2473 28.1806 57.9003 28.3974 58.57 28.5642C58.1974 28.5793 57.8122 28.6357 57.4422 28.6213L58.0126 28.7038C56.9124 29.0335 55.7948 29.2712 54.6269 29.5526C56.0902 30.0093 56.2837 29.817 56.6329 29.5914C56.9781 29.3747 57.4713 29.1424 59.6127 29.2424C61.4253 29.9292 59.2803 30.2936 57.0383 30.5086C55.9273 30.5512 54.8098 30.5967 54.2041 30.6794C53.6175 30.718 53.5136 30.9205 54.4894 31.2723C57.7739 32.1201 57.4262 30.8783 60.1807 30.6147L59.4714 30.5509C61.5312 30.4662 63.5795 30.2158 65.6229 29.7966C65.9458 30.1594 64.0783 30.6788 64.0783 30.6788C66.833 30.4507 69.5631 30.027 72.2713 29.4136C75.1607 28.7201 77.9497 27.7292 80.6382 26.441C80.0015 26.5587 78.0729 26.2223 81.2123 24.3787C83.3764 22.9023 83.9893 23.3434 85.9197 22.2835C84.9684 23.3875 83.8037 24.2015 82.4192 24.7281L82.9542 25.3958C81.5545 26.4133 80.2698 27.5508 79.1065 28.8056C78.5748 29.3183 77.9777 29.7532 77.31 30.0982C75.9334 30.8705 74.486 31.5175 72.9924 32.0425C71.7672 32.9472 70.4064 33.5275 68.9072 33.7772C67.6474 34.1135 66.3804 34.346 65.0973 34.4718C63.7794 34.6415 62.4608 34.7047 61.148 34.6584C61.9396 34.8211 62.7535 35.0167 63.576 35.1443C60.9498 35.7856 60.6796 35.5419 60.277 35.314C59.8771 35.0921 59.2965 34.829 55.9105 34.9944L53.8196 33.8184C53.1799 33.439 52.5879 33.0101 52.0383 32.5197C51.1557 31.7137 51.0923 31.1151 52.8846 31.0206C48.8602 29.7594 47.2197 29.8296 43.8435 28.0042C42.3857 26.1069 45.4513 27.685 45.5761 26.6544C43.2031 25.6102 40.4833 23.694 41.5723 25.3699C40.9742 24.7871 40.4237 24.1546 39.8515 23.5603C39.3166 22.9281 38.8813 22.2235 38.4073 21.5715C38.5072 21.3422 39.5982 22.6898 40.0363 23.2081C38.877 21.7412 36.4935 18.9928 35.9148 17.9813C36.1222 18.3453 36.6936 19.4455 36.8927 19.9484C36.503 19.487 36.1728 18.9851 35.9047 18.4486C35.5546 17.8842 35.246 17.3086 34.9671 16.7128C34.7078 15.9161 34.3669 15.1625 33.9419 14.4462C34.3209 15.4961 34.5781 16.5857 34.7148 17.7001C34.819 18.1809 34.953 18.6414 35.1245 19.0996C35.2327 19.3793 35.363 19.6564 35.5191 19.922C35.7219 20.1883 35.9535 20.4846 36.2424 20.8055C35.9002 20.6791 34.9826 20.4938 34.4771 18.7379C34.7491 20.1058 35.2296 21.4028 35.9199 22.6142C36.5026 23.4246 36.9584 24.2982 37.2901 25.2409C36.7769 24.3428 36.1501 23.5377 35.4044 22.8136C34.8763 22.214 34.4158 21.8551 34.2328 21.6512C34.5378 22.2711 34.879 22.8678 35.2655 23.4446C35.7495 24.0494 36.2935 24.6847 36.8399 25.2904C37.3767 25.8221 37.951 26.3158 38.5691 26.7688C38.9802 27.1211 39.439 27.4237 39.9339 27.6678C39.7174 28.1408 41.507 29.5284 43.159 30.2719C44.7378 31.1475 46.0943 31.5375 44.4088 31.471C45.227 31.5364 45.9904 31.7401 46.6987 32.082C47.7346 32.4998 48.9494 32.867 49.7373 33.2664C49.5749 33.4592 48.4067 33.285 46.9953 33.0331L42.9801 32.0029C41.9203 31.496 41.1182 31.1172 40.5645 30.7924C40.1996 30.5621 39.8488 30.3113 39.5252 30.0343C39.1819 29.7304 39.4716 29.7732 39.9528 29.9164C40.8975 30.2678 42.7062 30.7356 41.8792 30.0901C40.8762 29.5367 39.9552 28.8189 38.9997 28.1804C38.1123 27.4335 37.2288 26.6778 36.4071 25.852C36.574 26.1769 35.9652 25.7625 35.6896 25.6993C35.5518 25.6676 35.5002 25.726 35.6733 26.0126C36.0833 26.6074 36.5811 27.1207 37.1563 27.5642C36.5002 27.2704 35.8969 26.9035 35.3502 26.4545C33.7824 25.2537 32.5803 23.7772 31.7373 22.0281C31.3072 21.1076 30.9859 20.1531 30.7552 19.1586C30.125 18.4333 31.2096 21.0795 31.5651 21.8836C31.0171 21.2216 30.4252 20.6004 29.8035 19.9994C29.5414 19.8091 29.3533 19.8211 29.3846 20.2771C29.5186 21.1578 29.7781 21.99 30.1789 22.774C30.134 22.445 32.2568 25.2161 31.0668 22.5595C31.4193 23.0943 31.8798 23.8733 32.3601 24.7147C32.8469 25.5533 33.4955 26.3203 33.9608 27.0402C34.4287 27.7661 34.8436 28.3018 34.9699 28.5877C35.1054 28.8767 34.9448 28.9335 34.3168 28.5632C34.9248 29.0633 35.6711 29.6662 36.4903 30.2937C37.3338 30.8891 38.2861 31.4151 39.1982 31.9731C40.7639 32.8189 42.395 33.5502 44.0994 34.1496C44.3041 34.5077 43.7956 34.3551 43.0889 34.0694C42.3757 33.7866 41.4961 33.2499 40.8874 33.0633C41.532 33.3835 42.1806 33.7304 42.8341 34.0183L44.8459 34.7879C46.1756 35.2752 47.5361 35.6919 48.9221 36.0262L46.8284 34.8086C48.1222 35.3545 49.4759 35.7386 50.8859 35.9697C51.533 36.0681 52.1658 36.1515 52.7777 36.2228C53.392 36.2645 54.0034 36.2647 54.5993 36.2647L56.3544 36.2436L58.0956 36.0861L59.8291 35.9463L61.609 35.7363C60.916 36.6193 56.8349 36.7004 53.5689 36.5422C56.431 37.9399 55.6896 36.4378 60.7271 36.7171C61.3991 36.8543 61.5703 37.0492 61.2214 37.3102L63.2895 36.8944L65.3229 36.3301C66.2666 36.3116 66.0455 36.4592 65.6555 36.5747C66.5942 36.3875 67.4933 36.0755 68.3487 35.6475C68.5986 35.5299 68.7871 35.3612 68.9207 35.1383C69.1163 34.8454 69.7244 34.7332 74.0588 33.1944C72.7666 33.5449 71.7461 33.7398 71.0207 33.9893L69.2317 34.6164C67.854 35.2111 66.4255 35.5507 64.9461 35.6352C63.5871 35.467 64.9205 35.0697 66.69 34.6435C68.2635 34.2469 69.7922 33.7135 71.2772 33.0642C73.4762 32.6118 74.6373 32.4901 76.0291 32.2949C77.6448 31.9936 79.1562 31.4038 80.5542 30.5223C78.299 31.9679 81.0241 31.1476 76.2743 33.1121C73.47 34.5583 77.9504 32.9123 78.7171 33.0361C80.003 32.3039 77.5231 32.6811 81.2561 31.0949L81.1573 31.2739C82.1131 30.6876 83.0192 30.0591 83.9046 29.4186C84.8108 28.7901 85.6752 28.1374 86.5254 27.4696C92.0294 24.8656 97.0238 19.4109 100.735 17.8629L99.4645 17.7197C102.302 15.5255 106.279 12.4786 108.172 10.8797C108.022 11.6082 106.168 13.0331 104.271 14.6763C108.581 11.5248 112.715 8.16665 116.675 4.60767C114.64 5.37902 112.679 6.28165 110.777 7.33601C111.73 6.0604 112.964 5.15874 114.502 4.62847C116.237 4.00354 117.848 3.14895 119.337 2.07067C119.879 2.73551 118.323 3.45186 119.857 3.5428C121.402 1.96243 124.671 0.517232 126.696 -0.890319C128.198 -0.572049 126.324 0.75491 121.79 3.20776C117.915 4.43683 115.017 7.8608 111.888 9.23707L113.854 8.50317C111.157 10.4716 108.559 12.5599 106.067 14.7652L106.104 14.5853L105.221 16.2998L106.75 15.154C105.451 16.9245 103.973 18.5532 102.328 20.0492C107.066 16.3599 106.496 15.0881 108.267 12.8455C112.532 9.79988 115.09 9.79368 117.409 7.45864C117.858 7.61624 120.422 6.58947 118.761 8.0143C117.859 8.66942 116.923 9.28263 115.957 9.84508C115.213 10.3162 114.755 10.6466 114.814 10.9552C115.499 10.4388 116.228 10.003 117.003 9.63882C118.054 9.07467 119.077 8.46571 120.07 7.80602C120.347 6.73629 122.797 4.52151 125.375 2.63409C128.256 0.854749 131.347 -0.34756 134.661 -0.972624C131.589 -0.113203 128.85 1.83099 129.811 2.02579C130.84 1.30749 131.971 0.871713 133.209 0.715648C134.365 0.511023 135.179 0.357502 134.621 -0.0294808C135.495 -0.29455 136.518 -0.447884 137.56 -0.680843C138.576 -0.852068 139.593 -0.967067 140.615 -1.03464C142.528 -1.11849 143.976 -0.854305 144.097 -0.38804C141.131 -0.322853 138.189 0.0592445 135.271 0.758258C136.032 0.571398 136.797 0.674528 136.405 0.976332C135.745 1.07596 135.08 1.27018 134.414 1.44364C133.745 1.61116 133.076 1.77868 132.405 2.01126C134.529 1.827 136.639 1.50643 138.732 1.05841C138.489 1.01633 137.999 0.940969 138.347 0.836695C139.273 0.690781 140.456 0.495432 141.362 0.443868L141.493 1.28302C143.263 0.998808 145.002 1.06323 146.696 1.48197C148.696 1.97922 150.662 2.57658 152.591 3.26213L152.18 3.24416C153.2 3.85403 154.312 4.26702 155.514 4.48315C156.959 4.7769 158.133 5.45413 159.047 6.5239C158.007 5.88714 158.041 6.54144 157.82 6.95232C158.504 7.4477 158.972 8.08778 159.226 8.87256C159.524 9.5456 159.638 10.3283 159.986 11.221C159.375 8.99905 161.586 12.1442 161.057 10.5625C161.469 10.2876 162.103 11.1254 162.736 12.3123C163.023 12.926 163.27 13.6426 163.514 14.3178C163.69 15.0305 163.852 15.7133 163.991 16.2715C163.573 17.0759 163.022 15.411 162.415 14.1062C161.811 12.7925 161.207 11.8132 161.216 13.4966C161.814 15.4965 162.547 15.8772 162.33 14.3357C162.53 14.9806 162.648 15.7545 162.833 16.5412C162.948 17.3447 163.073 18.1867 163.127 19.0099C163.248 20.4377 163.116 21.8557 162.729 23.2729C163.048 24.5202 163.209 25.7947 163.203 27.0933C163.167 28.1489 163.286 29.1713 163.56 30.1753C163.687 29.4998 163.676 28.8281 163.508 28.1688C163.427 27.4073 163.504 26.654 163.746 25.9062C163.977 26.744 164.16 27.5957 164.296 28.4616C163.688 31.3576 162.682 34.159 161.286 36.848C161.471 35.9899 161.628 35.1373 161.75 34.293L161.845 34.4364C161.831 33.4244 162.784 30.3117 162.06 30.5819C162.32 32.9022 161.112 34.5113 160.57 37.5562L160.482 37.4099C159.1 42.7913 155.291 45.7993 154.888 49.7013C155.421 48.7537 157.005 47.1207 156.963 47.83C155.995 48.8629 154.228 52.0936 153.873 51.7807L154.364 50.652C152.525 53.5297 151.295 55.2627 150.762 56.4025C150.736 57.482 151.664 56.8509 150.539 59.1357C146.776 64.2094 150.801 56.3854 148.03 59.7106L145.286 64.9178L144.117 65.7554C138.775 72.8585 136.473 79.3444 131.256 87.1832C130.413 86.8866 133.87 81.0362 135.115 79.0904C132.839 81.1362 131.424 85.1296 128.786 88.1255C126.66 91.0876 125.813 93.7405 126.556 93.4972C124.339 97.375 124.345 95.8989 123.897 96.3034C123.909 97.9781 120.491 102.515 118.668 105.621L118.11 105.497L115.556 110.521C116.411 109.339 116.11 110.654 116.396 110.812L115.555 111.988C119.881 108.104 121.567 101.135 126.152 97.2216C125.364 98.766 126.9 96.9695 126.115 98.5198C125.266 99.6994 125.038 99.9001 124.777 99.9228C124.672 100.859 123.726 102.972 125.394 100.426C126.291 101.09 122.675 106.021 120.687 109.698C118.205 112.12 121.67 106.287 122.162 104.582C121.462 106.166 120.582 107.658 119.516 109.063L119.101 108.178C116.293 113.221 118.867 109.855 118.858 111.34C118.918 113.172 115.922 115.656 115.106 117.014L115.894 115.47C113.091 119.037 113.312 120.306 111.002 123.642L109.367 124.898C112.924 121.076 111.796 119.154 113.783 116.944C108.993 122.721 113.145 114.784 113.809 112.504C112.539 114.795 110.979 116.902 109.116 118.815C107.502 123.217 103.373 126.708 102.028 131.069C100.531 133.041 102.713 128.979 101.245 131.137C98.3664 135.251 95.7636 139.499 93.4239 143.887C91.9202 146.139 91.8441 145.582 91.1252 146.056C88.0613 150.487 85.5884 155.168 83.7 160.104C81.9761 164.554 80.1799 169.087 77.905 176.194C77.916 175.449 77.9725 174.719 78.0564 173.998C77.5584 175.358 77.1437 176.73 76.8238 178.125C76.5173 179.164 76.4445 180.207 76.6275 181.252C75.4914 183.128 75.1973 186.611 75.4624 190.239L75.6856 192.967C75.7586 193.868 75.9654 194.773 76.0602 195.636C76.1889 196.504 76.2383 197.351 76.3159 198.157C76.4387 198.907 76.4952 199.665 76.4948 200.435C78.4731 207.378 80.1561 207.054 83.4721 211.334Z" fill="#FFF5E0"/>
</g>
</svg>
