<svg width="1920" height="1920" viewBox="0 0 1920 1920" stroke="#fff5e0" xmlns="http://www.w3.org/2000/svg"
    fill="#fff5e0">
    <path id="bg-t"
        d="M347.465 957.221C347.77 947.472 347.988 937.724 348.381 927.976C348.883 915.479 349.58 902.983 350.082 890.487C350.322 884.49 351.696 878.863 354.007 873.302C357.562 864.753 351.652 855.965 342.449 856.117C339.025 856.183 335.602 857.077 332.2 857.796C323.368 859.65 314.536 861.591 305.726 863.51C303.676 863.946 301.648 864.404 299.641 864.993C284.202 869.529 268.391 871.885 252.384 872.822C244.098 873.324 235.898 874.633 227.459 874.48C217.689 874.305 207.963 873.869 198.411 872.343C180.071 869.398 165.111 852.366 167.619 831.605C169.342 817.451 173.769 804.431 182.317 793.026C195.532 775.405 211.016 760.03 228.113 746.072C246.235 731.264 265.491 718.223 285.379 706.01C289.523 703.459 293.731 700.994 298.071 698.792C318.243 688.542 338.066 677.572 358.892 668.74C385.17 657.596 411.666 646.975 439.209 639.168C451.923 635.569 464.266 630.706 476.958 627.042C490.675 623.073 504.501 619.366 518.457 616.444C529.317 614.175 540.483 613.281 551.517 611.82C557.384 611.057 563.272 609.879 569.16 609.77C583.4 609.508 597.706 609.116 611.902 610.076C620.124 610.621 628.214 613.478 636.239 615.746C640.296 616.88 643.283 619.671 645.486 623.618C652.748 636.703 653.598 650.072 648.168 663.898C643.392 676.068 635.52 686.121 626.361 695.237C622.675 698.901 618.837 702.39 615.282 706.163C605.273 716.827 592.799 724.613 582.222 734.645C571.646 744.698 560.153 753.792 549.075 763.301C548.29 763.977 547.483 764.653 546.763 765.416C540.505 772.068 533.483 777.716 525.152 781.642C521.183 783.517 519.526 786.723 520.376 791.041C523.342 806.089 523.735 821.442 526.046 836.577C528.118 850.12 527.006 863.707 527.071 877.293C527.115 885.275 526.352 893.257 525.915 901.239C524.542 925.926 523.626 950.656 521.576 975.278C519.94 995.058 517.018 1014.71 510.716 1033.7C506.987 1044.93 503.803 1056.3 498.983 1067.18C494.164 1078.08 488.232 1088.29 480.752 1097.49C471.113 1109.31 460.733 1120.52 448.041 1129.16C442.022 1133.26 435.633 1136.77 429.308 1140.37C427.847 1141.2 425.994 1141.74 424.293 1141.76C411.492 1141.98 399.389 1140.54 390.142 1129.86C382.335 1120.83 375.553 1111.32 370.537 1100.46C362.316 1082.6 357.54 1063.82 353.876 1044.58C348.686 1017.39 348.054 989.955 347.901 962.433C347.901 960.688 347.901 958.944 347.901 957.221C347.77 957.221 347.639 957.221 347.509 957.221H347.465Z"
        fill="url(#paint6_linear_316_6)" opacity="0" />
    <animate dur="2s" attributeName="opacity" xlink:href="#bg-t" fill="freeze" begin="3.25s" from="0" to="1" />


    <path id="bg-r"
        d="M580.827 924.748C581.873 899.101 586.867 874.174 593.301 849.531C596.899 835.748 601.02 822.096 606.189 808.728C613.233 790.54 623.635 774.75 636.806 760.64C641.299 755.821 646.118 751.263 651.178 747.032C655.801 743.172 669.3 737.458 675.449 735.953C688.643 732.704 701.706 729.018 715.51 729.258C731.909 729.542 748.243 730 763.726 736.259C769.505 738.592 775.218 741.209 780.714 744.175C788.63 748.471 792.49 755.93 794.213 764.37C795.216 769.255 793.537 774.074 791.4 778.48C787.954 785.502 782.633 790.998 776.222 795.381C774.87 796.297 773.081 796.733 771.446 797.06C770.116 797.344 768.654 796.973 767.281 797.169C764.118 797.605 761.829 799.721 761.436 802.316C761.044 805.02 762.352 808.422 765.034 809.251C780.409 814.093 789.372 826.109 798.051 838.409C803.045 845.497 807.995 852.693 812.182 860.283C821.712 877.489 824.721 896.157 823.544 915.676C823.26 920.495 821.799 924.704 818.528 927.954C809.827 936.568 800.711 944.55 787.998 946.949C773.975 949.588 760.477 948.563 747.087 943.394C730.317 936.939 719.13 924.355 709.142 910.311C705.893 905.753 703.472 900.693 703.908 894.805C703.952 894.129 703.864 893.409 703.734 892.733C703.036 889.288 700.768 887.172 697.388 886.823C694.356 886.496 692.306 887.63 690.845 890.88C688.141 896.921 685.742 903.092 682.995 909.112C675.536 925.62 668.1 942.173 657.175 956.763C652.377 963.153 647.23 969.39 641.56 974.973C634.517 981.908 625.728 986.4 616.351 989.344C605.796 992.659 596.921 986.902 592.45 979.225C587.652 971.004 584.294 962.324 583.356 952.815C582.44 943.46 581.655 934.104 580.827 924.726V924.748ZM747.676 781.184C750.031 775.688 747.196 772.591 744.186 769.473C736.946 761.971 719.827 764.479 714.419 773.638C713.656 774.947 715.03 777.498 716.709 777.455C719.457 777.367 722.204 777.127 724.909 776.669C730.448 775.71 735.267 776.277 738.386 781.751C738.865 782.601 739.716 783.604 740.588 783.844C742.158 784.302 744.099 784.804 745.429 784.215C746.672 783.67 747.305 781.751 747.719 781.162L747.676 781.184Z"
        fill="url(#paint0_linear_316_6)" opacity="0" />
    <animate dur="1.8s" attributeName="opacity" xlink:href="#bg-r" fill="freeze" begin="3.75s" from="0" to="1" />

    <path id="bg-u1"
        d="M896.73 728.102C897.079 733.707 896.708 739.072 894.418 744.437C892.848 748.122 893.655 752.026 897.209 754.73C900.284 757.064 903.599 757.413 906.979 755.559C910.076 753.88 911.122 751.001 910.926 747.643C910.839 746.269 910.795 744.764 910.228 743.543C907.612 737.829 908.375 731.962 909.203 726.096C910.272 718.507 911.384 710.939 912.758 703.393C914.154 695.739 917.556 688.891 921.917 682.501C928.765 672.469 940.388 669.176 951.27 674.432C963.351 680.277 972.096 689.632 977.396 701.823C984.832 718.986 987.449 737.24 987.95 755.821C988.016 758.59 987.754 761.404 987.274 764.13C985.486 774.074 983.567 783.975 983.72 794.16C983.763 796.537 983 798.979 982.433 801.335C979.576 812.871 974.888 823.645 969.087 834.025C961.541 847.525 951.75 859.105 940.541 869.66C926.933 882.462 910.534 888.852 892.281 888.939C877.386 889.004 863.604 883.988 851.828 874.24C842.036 866.127 834.055 856.444 828.058 845.387C822.257 834.723 817.198 823.645 813.709 811.868C809.195 796.668 806.294 781.511 809.151 765.591C809.936 761.186 810.285 756.518 809.74 752.091C807.886 736.368 812.095 721.865 817.416 707.384C821.363 696.589 827.404 687.495 836.367 680.451C840.445 677.245 844.806 674.236 849.429 671.924C856.822 668.238 864.215 668.195 870.735 674.214C870.997 674.454 871.28 674.65 871.564 674.846C887.025 685.402 895.007 700.144 896.097 718.746C896.272 721.865 896.49 725.005 896.708 728.124L896.73 728.102Z"
        fill="url(#paint4_linear_316_6)" opacity="0" />
    <animate dur="2s" attributeName="opacity" xlink:href="#bg-u1" fill="freeze" begin="4s" from="0" to="1" />


    <path id="bg-e"
        d="M1039.46 842.88C1031.22 842.4 1022.97 842.269 1015.3 837.82C1005.88 832.368 1000.51 824.386 997.851 814.223C995.801 806.372 995.496 798.565 997.175 790.474C998.723 783.016 999.596 775.296 999.705 767.684C999.857 754.687 1001.78 742.016 1005.24 729.563C1009.19 715.497 1013.23 701.431 1017.74 687.539C1020.62 678.641 1024.98 670.201 1027.68 661.238C1030.23 652.754 1033.83 644.969 1038.72 637.707C1040.44 635.155 1042.49 632.582 1044.95 630.815C1060.13 620.042 1076.49 611.711 1094.89 608.004C1107.37 605.496 1119.19 608.069 1130.4 613.478C1138.55 617.425 1141.56 628.111 1136.96 635.962C1135.22 638.906 1132.75 641.48 1130.37 643.987C1128.22 646.256 1125.49 648 1123.46 650.334C1120.56 653.67 1117.12 655.502 1112.75 656.135C1108.96 656.68 1105.3 657.705 1102.61 660.932C1099.3 664.945 1100.91 670.659 1106.1 671.248C1109.42 671.619 1113.23 671.248 1116.24 669.874C1123.2 666.712 1130.42 666.603 1137.72 666.712C1140.1 666.755 1142.59 667.213 1144.81 668.086C1150.13 670.157 1153.03 674.039 1153.38 679.993C1153.77 686.579 1151.79 692.315 1148.5 697.81C1144.09 705.16 1137.51 710.328 1130.96 715.519C1125.71 719.684 1120.13 722.977 1113.06 723.021C1110.33 723.021 1107.46 723.697 1104.93 724.722C1102.81 725.594 1100.67 727.121 1099.28 728.909C1097.27 731.461 1098.45 735.364 1101.26 737.044C1104.36 738.876 1107.63 739.879 1111.23 738.745C1113.89 737.916 1116.55 737.109 1119.14 736.106C1127.21 732.965 1135.43 732.835 1143.74 734.819C1145.42 735.212 1147.21 735.561 1148.69 736.368C1157.68 741.384 1159.49 744.48 1157.57 755.057C1156.78 759.397 1154.71 763.715 1152.38 767.51C1144.11 780.922 1134.15 793.004 1121.94 803.014C1104.9 817.015 1086.48 828.748 1065.76 836.686C1057.28 839.935 1048.77 842.989 1039.46 842.858V842.88Z"
        fill="url(#paint5_linear_316_6)" opacity="0" />
    <animate dur="2s" attributeName="opacity" xlink:href="#bg-e" fill="freeze" begin="4.25s" from="0" to="1" />

    <path id="bg-2"
        d="M1726.13 737.872C1725.61 736.411 1722.58 729.171 1721.53 727.862C1718.61 724.242 1715.73 720.578 1712.74 717.002C1712.22 716.391 1711.24 716.151 1710.45 715.759C1709.8 715.453 1708.82 715.388 1708.49 714.908C1705.07 709.674 1699.05 708.824 1694.03 706.294C1691.39 704.964 1688.45 704.484 1686.05 702.368C1684.59 701.082 1682.15 700.842 1680.12 700.275C1672.79 698.29 1665.36 696.676 1658.16 694.299C1653.14 692.642 1647.82 694.059 1643 692.184C1637.33 689.959 1631.6 691.988 1625.88 691.53C1619.91 691.05 1613.89 692.053 1607.96 692.271C1600.22 692.576 1592.63 693.82 1585.02 694.626C1575.36 695.673 1565.67 697.658 1556.56 701.627C1552.98 703.197 1549.1 704.091 1545.41 705.422C1542.8 706.359 1540.68 708.082 1537.45 707.951C1535.01 707.842 1532.33 709.609 1530.02 710.961C1526.77 712.858 1523.78 715.214 1520.62 717.307C1516.52 720.033 1512.62 723.13 1508.21 725.245C1503.46 727.513 1498.11 728.08 1493.19 725.66C1491.48 724.831 1490.29 722.694 1489.19 720.949C1486.21 716.129 1487.25 710.721 1491.57 706.839C1492.16 706.294 1492.16 705.116 1492.49 704.048C1494.73 703.393 1497 702.325 1498.42 699.904C1498.86 699.163 1499.66 698.552 1500.4 698.05C1506.99 693.536 1513.18 688.673 1517.68 681.89C1519.49 679.143 1521.75 676.678 1523.98 674.236C1525.16 672.927 1526.66 671.924 1528.38 670.463C1527.79 668.304 1529.26 666.995 1531.17 665.403C1533.77 663.266 1537.26 661.739 1538.26 657.967C1538.33 657.727 1538.72 657.574 1538.96 657.4C1543.67 653.91 1546.74 648.829 1551.15 644.969C1553.53 642.875 1555.01 639.844 1557.95 637.968C1559.68 636.856 1560.37 634.217 1561.7 632.407C1562.84 630.837 1564.3 629.507 1565.48 627.958C1566.5 626.606 1569.77 626.65 1568.25 623.662C1568.2 623.597 1568.36 623.357 1568.49 623.291C1574.07 619.649 1576.23 613.347 1580.02 608.309C1582.71 604.732 1584.47 600.502 1586.78 596.642C1588.57 593.654 1590.67 590.841 1592.45 587.831C1593.19 586.588 1593.5 585.083 1593.98 583.709C1594.22 583.011 1594.24 581.965 1594.72 581.659C1597.45 580.002 1597.47 577.101 1598.38 574.55C1600.33 569.098 1602.48 563.733 1604.43 558.281C1605.12 556.34 1605.43 554.29 1605.89 552.262C1605.95 551.978 1605.89 551.607 1606.02 551.389C1610.99 544.105 1610.38 534.968 1614.06 527.16C1615.63 523.845 1615.2 519.593 1615.57 515.754C1615.92 512.134 1616.25 508.514 1616.42 504.894C1616.59 501.208 1616.59 497.501 1616.66 493.815C1616.73 490.151 1616.79 486.488 1616.75 482.824C1616.75 481.995 1616.35 481.188 1616.14 480.381C1615.9 479.509 1615.35 478.615 1615.42 477.764C1616.14 468.365 1612.8 459.772 1609.59 451.311C1608.18 447.603 1606.61 443.351 1602.72 440.908C1602.05 440.472 1601.48 439.403 1601.37 438.575C1600.91 434.911 1598.47 432.861 1595.75 430.898C1594.33 429.895 1592.78 428.739 1591.97 427.3C1589.23 422.327 1584.25 419.754 1580.48 415.938C1575.94 411.336 1570.38 408.414 1565.48 404.488C1565 404.118 1564.23 403.965 1563.95 403.507C1561.77 399.756 1557.89 398.884 1554.25 397.466C1552.72 396.877 1551.56 395.438 1550.1 394.653C1545.68 392.254 1541.1 390.16 1536.76 387.63C1530.37 383.901 1523.17 382.266 1516.54 379.147C1510.94 376.508 1505.11 374.371 1499.36 372.081C1498.38 371.689 1497.26 371.645 1496.24 371.405C1489.98 369.987 1483.72 368.526 1477.46 367.152C1475.39 366.694 1473.3 366.324 1471.18 366.018C1464.51 365.037 1457.77 364.383 1451.14 363.14C1446.54 362.289 1441.98 362.791 1437.42 362.638C1432.3 362.442 1427.13 362.376 1422.03 362.769C1415.86 363.249 1409.71 364.208 1403.58 365.037C1398.58 365.713 1378.02 368.635 1369.89 369.813C1369.01 370.293 1368.1 370.751 1367.12 371.1C1358.68 374.175 1350.54 378.187 1342.41 381.917C1337.74 384.054 1333.23 386.54 1328.69 388.961C1325.6 390.618 1321.98 391.578 1319.77 394.762C1319.14 395.7 1317.9 396.332 1316.81 396.812C1311.44 399.167 1307.32 403.289 1302.83 406.8C1299.08 409.722 1295.76 413.255 1292.51 416.766C1288.63 420.954 1285.1 425.446 1281.26 429.677C1278.97 432.228 1277.34 435.151 1275.61 438.073C1273.65 441.41 1271.49 444.616 1269.53 447.952C1267.09 452.118 1264.51 456.218 1262.46 460.579C1259.34 467.165 1256.42 473.882 1253.83 480.687C1252.13 485.136 1251.17 489.868 1249.92 494.491C1248.72 498.984 1247.26 503.455 1246.5 508.034C1245.54 513.704 1245.19 519.462 1244.58 525.176C1244.49 525.939 1244.49 526.702 1244.47 527.466C1244.06 534.88 1243.23 542.273 1244.99 549.688C1245.47 551.716 1245.78 553.788 1245.54 555.86C1244.93 561.05 1247.94 565.368 1248 570.537C1248.05 574.244 1250.66 577.886 1252 581.616C1255.18 590.492 1260.85 597.95 1265.69 605.888C1266.54 607.284 1267.91 608.418 1269.24 609.443C1270.97 610.773 1272.67 611.886 1272.95 614.394C1273.06 615.244 1274.24 616.029 1275.05 616.705C1279.58 620.478 1284.14 624.251 1288.76 627.915C1289.79 628.722 1291.16 629.049 1292.34 629.703C1298.25 632.974 1304.46 635.722 1310.92 637.532C1315.13 638.71 1319.36 640.978 1324.05 639.713C1324.46 639.604 1324.98 639.713 1325.4 639.866C1332.84 642.592 1340.6 640.651 1348.19 641.087C1352.75 641.349 1357.46 639.713 1362.3 639.822C1364.89 639.888 1367.55 638.514 1370.13 637.598C1375.71 635.613 1381.31 633.694 1386.77 631.382C1389.47 630.226 1391.85 628.264 1394.38 626.693C1400.53 622.833 1406.78 619.104 1412.8 615.07C1415.55 613.216 1418.19 611.013 1420.39 608.549C1423.42 605.169 1425.74 601.178 1428.81 597.863C1431.8 594.657 1431.95 590.339 1433.91 586.741C1436.22 582.51 1437.79 577.821 1439.41 573.219C1440.46 570.253 1442.53 568.4 1444.99 566.786C1446.71 565.652 1448.44 565.848 1450.2 566.742C1452.06 567.702 1452.21 569.294 1451.99 571.06C1451.14 577.69 1450.46 584.363 1448.2 590.732C1447.7 592.149 1447.8 593.763 1447.39 595.224C1443.75 607.459 1436.88 617.621 1427.85 626.606C1421.2 633.214 1413.28 637.99 1405.91 643.573C1404.84 644.38 1403.4 644.685 1402.18 645.34C1395.07 649.025 1387.92 652.645 1380.92 656.527C1379.11 657.53 1377.1 659.122 1376.38 660.911C1373.75 667.606 1367.95 671.619 1363.56 676.809C1360.95 679.906 1357.7 682.501 1355.23 685.707C1351.98 689.959 1347.9 693.318 1344.24 697.113C1341.38 700.079 1338.31 702.848 1335.65 705.967C1331.48 710.808 1327.67 715.933 1323.55 720.796C1319.25 725.856 1314.65 730.654 1310.46 735.801C1308.21 738.548 1306.67 741.842 1304.57 744.742C1303.18 746.661 1300.91 748.079 1299.95 750.15C1298.95 752.31 1297.59 753.836 1295.96 755.45C1293.93 757.434 1292.88 760.422 1291.18 762.734C1290.07 764.26 1288.92 765.743 1288 767.379C1283.77 775.034 1280.41 783.147 1277.14 791.259C1276.24 793.484 1275.96 795.948 1275.42 798.282C1275.29 798.87 1275.33 799.634 1274.98 800.026C1272.8 802.403 1273.08 805.173 1273.08 808.139C1273.08 812.806 1272.36 817.538 1273.98 822.053C1276.11 827.963 1277.34 834.243 1281.09 839.521C1284.73 844.624 1288.85 849.095 1293.89 852.955C1299.12 856.946 1304.66 860.304 1310.4 863.358C1314.19 865.386 1318.29 866.781 1322.56 867.741C1326.01 868.504 1329.48 869.224 1332.7 871.056C1334.41 872.016 1336.98 871.274 1339.12 871.579C1345.07 872.43 1351 873.52 1356.98 874.349C1360.81 874.894 1364.7 875.374 1368.58 875.483C1376.52 875.701 1384.48 875.745 1392.41 875.679C1397.87 875.636 1403.34 875.199 1408.79 875.025C1413.92 874.851 1419.04 874.894 1424.14 874.654C1426.5 874.545 1428.81 873.956 1431.17 873.76C1438.8 873.106 1446.37 872.103 1453.95 871.078C1459.3 870.358 1464.66 868.984 1470.2 869.398C1473.14 869.617 1476.18 869.006 1479.14 868.635C1484.18 868.025 1489.22 867.305 1494.25 866.607C1495.76 866.389 1497.26 865.844 1498.75 865.887C1504.42 866.04 1509.87 864.819 1515.32 863.554C1518.68 862.791 1522.12 861.024 1525.33 861.417C1530.06 861.984 1534.36 860.675 1538.81 860.043C1548.69 858.603 1558.5 856.771 1568.33 854.983C1574.59 853.849 1580.79 852.453 1586.87 850.403C1591.3 848.899 1596.1 848.528 1600.57 847.154C1604.84 845.845 1609.29 845.06 1613.41 843.141C1616.16 841.876 1619.3 841.44 1622.16 840.415C1626.12 838.976 1630.14 837.667 1634.21 836.577C1639.27 835.225 1643.83 832.979 1648.24 830.231C1650.37 828.9 1652.95 828.137 1655.39 827.396C1661.26 825.629 1666.23 822.205 1671.53 819.305C1676.76 816.448 1681.28 812.806 1685.68 808.837C1689.34 805.522 1693.62 802.905 1697.09 799.285C1698.7 797.584 1700.86 796.406 1702.69 794.879C1703.19 794.465 1703.39 793.658 1703.74 793.026C1704.09 792.371 1704.26 791.455 1704.81 791.107C1710.76 787.137 1714.12 781.031 1718.11 775.383C1721.49 770.607 1723.86 765.351 1725.59 759.942C1726.87 755.908 1728.4 751.612 1726.98 747.01C1726.09 744.11 1727.27 740.882 1726.2 737.851L1726.13 737.872Z"
        fill="url(#paint7_angular_316_6)" opacity="0" />
    <animate dur="2s" attributeName="opacity" xlink:href="#bg-2" fill="freeze" begin="4.5s" from="0" to="1" />

    <path id="bg-y"
        d="M755.265 1174.43C755.265 1174.43 755.308 1174.43 755.352 1174.43C759.081 1174.06 762.374 1171.55 763.421 1167.93C763.421 1167.93 763.421 1167.89 763.421 1167.87C767.041 1155.15 771.031 1142.5 774.019 1129.62C777.595 1114.24 782.895 1099.5 789.372 1085.24C793.668 1075.79 798.618 1066.42 804.68 1058.04C813.098 1046.46 823.413 1036.52 836.519 1030C838.765 1028.88 840.946 1027.68 843.127 1026.44C861.86 1015.65 881.726 1014.47 902.487 1018.94C924.512 1023.69 943.616 1034.14 960.386 1048.73C967.647 1055.05 974.888 1061.68 980.514 1069.8C986.249 1078.08 992.639 1085.91 998.505 1094.11C1007.51 1106.72 1013.36 1120.63 1017.26 1135.7C1023.67 1160.43 1026.24 1185.58 1028.42 1210.92C1029.82 1227.03 1029.1 1242.95 1027.68 1258.92C1026.94 1267.2 1025.2 1275.4 1023.85 1283.65C1018.87 1314.31 1011.22 1344.3 999.923 1373.24C994.994 1385.84 988.932 1398.03 982.891 1410.18C970.461 1435.17 955.828 1458.86 937.837 1480.23C919.235 1502.34 900.153 1524.06 879.589 1544.39C876.143 1547.79 872.065 1550.58 868.227 1553.59C866.592 1554.88 864.629 1555.82 863.146 1557.23C849.451 1570.36 832.877 1579.37 817.045 1589.44C796.066 1602.79 773.583 1613.11 750.205 1621.07C732.803 1626.98 715.662 1633.91 697.431 1637.38C687.552 1639.25 678.001 1642.81 668.144 1644.92C647.688 1649.31 626.993 1651.99 605.992 1651.84C595.874 1651.75 585.842 1651.01 575.942 1648.59C563.73 1645.62 551.605 1642.59 540.221 1637.05C523.233 1628.79 514.728 1615.16 513.856 1596.42C513.267 1583.86 514.379 1571.54 516.8 1559.13C519.809 1543.65 524.433 1528.73 530.321 1514.23C533.439 1506.55 537.91 1499.31 542.555 1492.42C552.128 1478.22 563.381 1465.29 575.44 1453.23C591.992 1436.68 610.528 1422.5 631.442 1411.66C641.648 1406.39 651.548 1400.39 662.06 1395.76C679.222 1388.2 696.406 1380.46 715.335 1378.03C718.061 1377.69 720.765 1376.73 723.339 1375.7C726.61 1374.41 727.504 1370.55 725.018 1367.96C722.619 1365.47 719.849 1363.34 717.145 1361.15C705.478 1351.76 694.356 1341.75 684.063 1330.82C671.349 1317.32 660.489 1302.49 650.523 1286.9C642.825 1274.86 635.629 1262.6 629.37 1249.74C618.205 1226.68 611.357 1202.37 606.799 1177.24C603.572 1159.41 601.129 1141.5 599.712 1123.47C599.123 1115.9 599.821 1108.16 600.737 1100.59C601.653 1093.02 603.048 1085.41 605.229 1078.13C606.908 1072.54 609.852 1067.27 612.753 1062.12C614.999 1058.13 618.51 1055.03 622.959 1053.53C625.161 1052.78 627.756 1052.24 630.003 1052.65C634.429 1053.46 639.053 1054.33 643.043 1056.32C656.695 1063.08 670.041 1070.34 680.487 1081.94C684.63 1086.57 689.123 1090.84 693.637 1095.14C716.949 1117.36 734.918 1143.55 750.925 1171.23C751.23 1171.77 751.601 1172.27 752.081 1172.97C752.8 1174 754.022 1174.56 755.265 1174.43Z"
        fill="url(#paint2_linear_316_6)" opacity="0" />
    <animate dur="2s" attributeName="opacity" xlink:href="#bg-y" fill="freeze" begin="4.75s" from="0" to="1" />

    <path id="bg-o"
        d="M1170.83 1320.24C1157.35 1321.07 1144.81 1318.11 1132.18 1313.22C1109.92 1304.61 1091.36 1291.02 1074.72 1274.34C1068.44 1268.05 1064.71 1260.05 1060.85 1252.33C1052.57 1235.8 1046.13 1218.55 1044.02 1199.97C1043.14 1192.36 1041.99 1184.79 1041.16 1177.2C1038.94 1157.14 1041.29 1137.34 1047.88 1118.49C1055.73 1096.01 1067.33 1075.33 1083.92 1057.84C1085.12 1056.58 1086.39 1055.36 1087.5 1054.03C1100.45 1038.24 1117.86 1029.86 1136.96 1024.48C1146.12 1021.9 1155.48 1021.34 1164.92 1022.86C1166.99 1023.19 1169.04 1023.58 1171.13 1023.76C1191.7 1025.48 1209.43 1034.31 1224.95 1047.14C1236.45 1056.64 1246.26 1067.96 1254.37 1080.81C1267.57 1101.7 1275.9 1124.45 1282.05 1148.13C1282.92 1151.45 1282.83 1155.02 1283.11 1158.47C1283.81 1167.5 1283.79 1176.63 1285.36 1185.51C1286.67 1192.95 1286.71 1200.14 1284.79 1207.21C1282.18 1216.94 1280.69 1226.95 1277.05 1236.45C1272.41 1248.56 1266.61 1259.77 1258.6 1270.13C1251.32 1279.55 1243.36 1288.16 1234.7 1296.25C1219.33 1310.65 1201.25 1318.54 1180.16 1319.44C1177.04 1319.57 1173.92 1319.96 1170.81 1320.24H1170.83ZM1186.92 1168.63C1187.49 1159.95 1185.48 1152.6 1182.69 1145.45C1180.1 1138.8 1174.91 1134.09 1169.87 1129.31C1169.41 1128.87 1167.91 1129.31 1167.03 1129.68C1166.55 1129.9 1166.03 1130.88 1166.14 1131.4C1166.55 1133.41 1166.99 1135.44 1167.82 1137.29C1171.33 1145.32 1174.1 1153.52 1174.47 1162.35C1174.82 1170.38 1172.51 1177.33 1166.34 1182.92C1161.43 1187.36 1156.65 1191.73 1150.05 1193.8C1145.77 1195.15 1143.68 1200.78 1145.01 1205.01C1145.88 1207.73 1149.09 1209.04 1153.97 1208.65C1155.02 1208.56 1156.09 1208.5 1157.07 1208.21C1165.57 1205.66 1173.1 1201.69 1178.37 1194.1C1183.89 1186.14 1186.94 1177.46 1186.88 1168.61L1186.92 1168.63Z"
        fill="url(#paint1_linear_316_6)" opacity="0" />
    <animate dur="2s" attributeName="opacity" xlink:href="#bg-o" fill="freeze" begin="5s" from="0" to="1" />


    <path id="bg-u2"
        d="M1532.18 1116.9C1532.02 1155.52 1523.52 1192.18 1504.61 1226.1C1500.21 1233.99 1495.61 1241.93 1489.96 1248.93C1475.41 1266.94 1458.62 1282.86 1437.95 1293.48C1415.01 1305.28 1390.93 1307.55 1366.22 1297.74C1346.97 1290.1 1332.49 1277.19 1321.91 1259.66C1313.75 1246.14 1307.69 1231.74 1303.85 1216.39C1301.45 1206.86 1299.86 1197.33 1300.43 1187.43C1301.02 1177.31 1300.19 1167.28 1298.23 1157.27C1297.25 1152.23 1297.27 1146.84 1297.77 1141.7C1299.67 1122.16 1304.31 1103.14 1311.7 1085.04C1319.71 1065.46 1331.96 1048.68 1347.9 1034.53C1360.38 1023.45 1374.71 1022.3 1390.04 1024.8C1393.46 1025.37 1396.88 1026.24 1400.18 1027.31C1407.35 1029.65 1413.41 1033.51 1416.92 1040.55C1421.74 1050.19 1427.09 1059.63 1425.97 1071.08C1425.82 1072.72 1426.74 1074.44 1427.07 1076.12C1428.24 1082.12 1428.2 1087.74 1423.99 1092.91C1420.85 1096.77 1419.78 1101.68 1419.41 1106.59C1419.04 1111.75 1421.35 1115.11 1425.65 1116.05C1431.45 1117.29 1436.01 1115.53 1438.27 1111.27C1440.19 1107.65 1440.67 1103.69 1439.3 1100.11C1436.81 1093.65 1438.51 1087.96 1440.61 1081.9C1444.05 1071.95 1448.11 1062.45 1454.37 1053.88C1463.4 1041.51 1475.89 1038.17 1490.2 1039.66C1502.54 1040.92 1511.15 1048.21 1517.98 1058.06C1526.99 1071.06 1530.83 1085.76 1532.07 1101.24C1532.48 1106.43 1532.13 1111.69 1532.13 1116.92L1532.18 1116.9Z"
        fill="url(#paint3_linear_316_6)" opacity="0" />
    <animate dur="2s" attributeName="opacity" xlink:href="#bg-u2" fill="freeze" begin="5.25s" from="0" to="1" />





    <path id="t" class="word"
        d="M677.128 643.857C676.322 632.298 672.985 621.154 666.944 609.792C662.278 601.025 656.215 591.517 643.414 589.772C642.629 589.663 641.648 589.205 640.623 588.725C639.838 588.354 639.053 587.984 638.246 587.7C625.183 582.968 614.17 580.765 603.572 580.721C578.013 580.612 553.349 582.575 530.168 586.544L527.311 587.024C522.121 587.896 516.756 588.791 511.501 590.034C507.663 590.928 503.825 592.04 500.139 593.109C497.217 593.959 494.295 594.788 491.351 595.551C487.404 596.554 483.456 597.492 479.487 598.408C474.733 599.52 469.805 600.698 464.985 601.963C462.107 602.726 459.272 603.664 456.524 604.58C453.624 605.539 450.876 606.477 448.063 607.197C434.302 610.73 420.825 615.637 407.806 620.391C401.526 622.681 395.027 625.058 388.594 627.217C383.011 629.114 377.494 631.317 372.151 633.454C369.796 634.392 367.441 635.351 365.085 636.267C344.107 644.424 328.536 651.751 314.601 660.038C307.165 664.466 299.467 668.805 292.03 672.993C288.105 675.195 284.202 677.42 280.298 679.644L278.379 680.734C275.413 682.414 272.36 684.137 269.46 686.078C261.304 691.508 253.082 697.091 245.123 702.521L239.235 706.534C237.381 707.799 235.484 709.02 233.608 710.263C229.072 713.207 224.405 716.26 220.109 719.793C212.499 726.074 205.062 732.791 197.888 739.29C195.641 741.318 193.373 743.368 191.105 745.396C188.009 748.166 185.13 751.066 182.71 753.531C171.152 765.373 161.186 778.676 152.746 790.212C142.802 803.843 137.023 818.062 135.126 833.676C133.904 843.686 135.387 852.868 139.487 860.959C146.553 874.872 157.631 885.144 173.354 892.319C180.289 895.481 187.485 896.79 194.442 898.033C196.056 898.316 197.648 898.622 199.261 898.927C207.81 900.584 216.62 900.89 225.169 901.195L227.786 901.282C236.552 901.609 245.253 900.541 253.649 899.494C256.593 899.123 259.537 898.774 262.503 898.469C274.017 897.291 285.881 895.329 297.788 892.602C302.891 891.447 307.993 890.204 313.096 888.982C318.483 887.696 323.847 886.387 329.256 885.166C329.823 885.035 330.412 884.861 331 884.686C332.113 884.359 332.919 884.141 333.617 884.119C333.661 885.689 333.704 887.172 333.552 888.568C333.05 893.366 332.505 898.164 331.96 902.962C330.979 911.532 329.954 920.386 329.278 929.153C328.078 944.964 327.228 961.495 326.704 978.331C326.334 990.609 326.617 1002.67 327.01 1013.86C327.38 1024.98 328.863 1035.99 330.259 1045.3C332.963 1063.32 336.169 1077.71 340.356 1090.6C343.278 1099.61 346.963 1110.16 352.328 1120.11C357.54 1129.77 364.518 1138.93 374.288 1148.94C382.662 1157.53 391.734 1162.61 401.962 1164.47C406.738 1165.34 412.299 1166.12 418.121 1166.12C423.464 1166.12 429.069 1165.45 434.52 1163.57C442.371 1160.85 450.527 1156.79 459.403 1151.14C474.035 1141.85 485.921 1129.79 496.606 1118.17C502.516 1111.71 507.096 1104.36 511.523 1097.23C512.94 1094.94 514.358 1092.65 515.84 1090.4C524.934 1076.4 530.299 1061.27 533.962 1049.64C536.885 1040.35 538.935 1030.71 540.897 1021.38C541.508 1018.52 542.097 1015.67 542.729 1012.83L543.383 1009.87C544.844 1003.37 546.349 996.65 546.981 989.846C547.897 980.098 548.377 970.175 548.835 960.579C548.988 957.439 549.14 954.32 549.293 951.18C549.446 948.257 549.511 945.357 549.598 942.435C549.664 940.145 549.707 937.833 549.817 935.543C549.991 931.269 550.209 926.994 550.427 922.698C550.841 914.564 551.256 906.167 551.452 897.88C551.736 884.926 551.714 871.754 551.692 859.018V854.94C551.692 851.058 551.736 847.154 551.779 843.272C551.954 830.558 552.128 817.386 550.122 804.366C549.86 802.6 549.925 800.659 550.013 798.609C550.013 798.085 550.056 797.584 550.078 797.06C550.907 796.428 551.692 795.817 552.433 795.228C554.767 793.418 556.773 791.87 558.779 790.191C563.359 786.352 567.938 782.492 572.518 778.632C578.559 773.529 584.599 768.426 590.684 763.366C591.687 762.538 592.908 761.796 594.195 761.033C594.98 760.575 595.765 760.095 596.506 759.594L597.858 758.721C599.472 757.674 601.151 756.584 602.743 755.341C622.392 739.988 637.962 724.831 650.371 709.02C651.766 707.253 653.227 705.531 654.689 703.808C658.025 699.904 661.471 695.87 664.022 691.246C669.125 682.043 673.116 671.64 675.929 660.3C677.194 655.197 677.586 649.941 677.15 643.791L677.128 643.857ZM517.171 791.717C518.828 800.179 519.7 808.946 520.529 817.429C521.161 823.885 521.816 830.558 522.819 837.1C524.302 846.74 524.105 856.684 523.931 866.302C523.866 869.965 523.8 873.651 523.8 877.315C523.822 882.941 523.429 888.742 523.059 894.325C522.906 896.572 522.753 898.796 522.644 901.042C522.23 908.283 521.881 915.545 521.51 922.785C520.638 939.927 519.744 957.635 518.305 974.995C516.386 998.09 512.984 1016.43 507.597 1032.68C506.681 1035.45 505.787 1038.22 504.915 1040.99C502.276 1049.25 499.55 1057.8 495.996 1065.85C490.936 1077.25 485.114 1086.94 478.223 1095.42C477.241 1096.62 476.216 1097.86 475.148 1099.15C467.646 1108.07 457.963 1118.45 446.209 1126.45C441.215 1129.86 435.807 1132.93 430.573 1135.9L427.695 1137.53C426.691 1138.1 425.361 1138.47 424.249 1138.49C411.034 1138.73 400.61 1136.96 392.628 1127.72C383.992 1117.73 377.908 1108.64 373.525 1099.11C366.547 1083.93 361.465 1066.92 357.104 1043.97C351.892 1016.67 351.325 988.712 351.194 962.411C351.194 961.212 351.194 960.012 351.194 958.813V953.928H350.889L351.063 948.301C351.259 941.562 351.456 934.823 351.717 928.063C351.957 921.935 352.263 915.785 352.546 909.657C352.851 903.289 353.157 896.942 353.397 890.574C353.615 885.209 354.814 879.954 357.082 874.523C359.197 869.464 358.696 863.859 355.752 859.541C352.83 855.245 347.77 852.693 342.449 852.824C339.331 852.89 336.321 853.544 333.421 854.176L331.589 854.569C324.022 856.139 316.477 857.796 308.931 859.454L305.071 860.304C302.934 860.762 300.862 861.242 298.769 861.853C284.55 866.018 269.329 868.548 252.232 869.573C249.179 869.747 246.126 870.053 243.182 870.336C238.079 870.816 232.78 871.318 227.568 871.252C218.997 871.099 208.879 870.751 199 869.159C183.298 866.629 168.513 852.061 170.934 832.041C172.7 817.407 177.301 805.282 184.999 795.032C197.255 778.676 212.062 763.497 230.25 748.646C246.584 735.299 264.662 722.628 287.146 708.824C292.096 705.77 295.934 703.59 299.598 701.736C304.679 699.141 309.76 696.524 314.841 693.885C329.561 686.252 344.761 678.357 360.222 671.793C385.301 661.172 412.32 650.246 440.147 642.352C446.733 640.476 453.297 638.252 459.643 636.115C465.618 634.086 471.789 631.993 477.917 630.226C489.104 626.999 503.912 622.877 519.177 619.693C526.744 618.101 534.682 617.185 542.337 616.291C545.564 615.92 548.792 615.549 551.997 615.113C553.611 614.895 555.225 614.655 556.838 614.415C561.135 613.783 565.191 613.172 569.269 613.085L573.172 613.02C585.864 612.78 598.971 612.518 611.728 613.39C617.965 613.805 624.42 615.702 630.635 617.556C632.227 618.014 633.819 618.494 635.389 618.93C638.377 619.78 640.754 621.83 642.651 625.254C649.433 637.489 650.262 649.745 645.159 662.743C641.103 673.102 634.408 682.697 624.093 692.947C622.784 694.256 621.454 695.521 620.124 696.807C617.725 699.097 615.261 701.474 612.927 703.96C607.475 709.783 601.042 714.886 594.849 719.815C589.877 723.762 584.752 727.819 580.02 732.333C572.758 739.224 564.907 745.811 557.296 752.179C553.851 755.057 550.405 757.958 546.981 760.88L546.763 761.076C545.978 761.731 545.193 762.429 544.43 763.236C537.822 770.258 531.084 775.317 523.822 778.741C518.501 781.249 516.102 785.982 517.214 791.717H517.171Z"
        stroke="#F84E72" />
    <animate dur="3s" attributeName="stroke" xlink:href="#t" fill="freeze" from="#F84E72" to="#fff5e0" />
    <animate dur="1.8s" attributeName="fill" xlink:href="#t" fill="freeze" begin="1.75s" from="#fff5e0" to="#F84E72" />


    <path id="rue" class="word"
        d="M1171.77 729.716C1168.93 727.012 1165.81 724.635 1162.58 722.258C1161.12 721.167 1159.6 720.229 1158.09 719.335C1166.25 710.481 1171.5 699.403 1174.14 685.467C1177.28 668.849 1172.64 657.203 1159.05 647.782C1159.25 647.39 1159.44 646.997 1159.64 646.626C1160.91 644.118 1162.21 641.545 1162.74 638.601C1166.58 617.621 1157.74 600.545 1137.85 590.557C1130.81 587.024 1122.5 585.258 1112.95 585.41C1098.3 585.607 1086.52 586.98 1075.94 589.75C1071.04 591.037 1065.93 592.847 1060.74 595.159C1053.26 598.473 1046.87 603.359 1040.72 608.091C1038.35 609.923 1035.88 611.798 1033.44 613.543C1028.51 617.032 1024.94 621.198 1021.8 625.189C1017.89 630.161 1014.99 636.027 1012.96 643.115C1010.02 653.431 1004.79 662.459 999.246 672.011C997.327 675.326 995.365 678.706 993.489 682.174C988.517 665.643 968.171 651.686 949.242 651.686C948.828 651.686 948.413 651.686 947.999 651.686C928.939 652.318 912.78 659.319 900.023 672.513C899.477 673.08 899.063 673.669 898.692 674.17C898.322 674.694 898.103 674.999 897.929 675.152C897.755 675.064 897.602 674.977 897.558 674.934C891.3 668.064 883.623 662.983 876.296 658.359C858.697 647.281 836.258 650.574 822.933 666.21C811.048 680.168 801.824 696.676 795.521 715.323C795.041 716.74 794.431 718.136 793.711 719.706C793.624 719.662 793.559 719.619 793.471 719.575C791.269 718.354 789.284 717.242 787.343 716.042C778.729 710.765 769.592 707.82 760.171 707.341C743.14 706.447 726.544 706.185 710.843 706.599C693.768 707.035 676.889 710.001 660.707 715.388C653.184 717.896 647.078 720.796 642.062 724.264C632.379 730.937 623.766 740.184 615.719 752.506C604.313 769.974 594.718 788.577 587.151 807.79C582.419 819.828 578.624 829.991 575.506 840.502C571.035 855.507 567.241 870.598 563.424 886.016C558.147 907.367 556.228 929.35 557.754 951.289C558.779 966.162 563.599 979.094 572.06 989.715C580.238 1000.01 590.727 1005.4 603.223 1005.74C603.943 1005.74 604.64 1005.77 605.338 1005.77C619.818 1005.77 632.947 1001.43 644.395 992.856C659.464 981.581 671.873 967.056 682.319 948.41C686.288 941.322 689.842 934.06 693.615 926.384C694.444 924.683 695.294 922.96 696.166 921.215C700.092 930.069 706.285 936.917 711.911 942.478C719.457 949.958 728.18 955.105 736.488 959.729C760.433 973.054 785.686 973.751 811.571 961.8C821.319 957.308 829.933 949.937 837.173 939.905C843.65 930.92 846.725 921.041 846.093 911.292C845.853 907.759 845.831 903.899 845.984 899.145C845.984 898.491 846.071 897.815 846.136 897.095C850.716 902.351 856.386 905.273 861.423 907.476C879.676 915.414 899.696 915.785 920.892 908.566C941.871 901.435 959.273 889.004 972.685 871.645L973.754 870.271C978.944 863.554 984.308 856.597 988.081 848.506C988.604 847.416 988.953 846.761 989.324 846.413C998.854 857.426 1012.03 863.292 1029.49 864.339C1046.31 865.342 1062.53 863.314 1079.08 858.145C1100.28 851.516 1119.08 840.481 1136.55 824.386C1141.1 820.199 1145.66 815.139 1150.9 808.488C1156.17 801.793 1162.3 793.811 1167.64 785.436C1174.64 774.445 1178.42 761.927 1178.85 748.231C1179.09 740.598 1176.74 734.383 1171.83 729.694L1171.77 729.716ZM820.294 912.23C820.033 916.614 818.702 919.95 816.238 922.371C808.235 930.287 799.403 938.204 787.409 940.472C773.714 943.045 760.913 941.933 748.264 937.07C731.625 930.68 720.918 917.944 711.824 905.142C708.313 900.192 706.874 896.07 707.179 891.774C707.245 890.88 707.179 889.942 706.939 888.808C705.958 883.988 702.512 880.804 697.715 880.281C693.157 879.779 689.842 881.807 687.836 886.256C686.549 889.135 685.328 892.036 684.107 894.936C682.755 898.12 681.424 901.326 679.985 904.488L679.614 905.295C672.462 921.106 665.069 937.462 654.536 951.529C649.171 958.682 644.177 964.505 639.249 969.368C633.143 975.365 625.336 979.814 615.348 982.933C605.949 985.877 598.643 980.119 595.263 974.297C590.248 965.682 587.413 957.482 586.606 949.217C585.973 942.718 585.406 936.197 584.817 929.698L584.076 921.39C584.992 899.254 588.808 876.334 596.441 847.089C600.519 831.474 604.575 818.629 609.22 806.656C615.871 789.471 625.685 774.074 639.184 759.615C643.523 754.948 648.277 750.478 653.249 746.29C657.153 743.041 670.063 737.393 676.213 735.888L680.356 734.863C692.263 731.897 703.559 729.018 715.422 729.28C730.273 729.542 747.109 729.825 762.483 736.04C768.654 738.527 774.084 741.078 779.122 743.804C785.315 747.163 789.197 753.051 790.963 761.774C791.639 765.089 790.854 768.797 788.412 773.791C785.446 779.853 780.845 784.957 774.324 789.427C773.387 790.06 771.664 790.409 770.748 790.605C770.443 790.67 769.897 790.649 769.33 790.605C768.567 790.561 767.717 790.54 766.779 790.67C762.221 791.303 758.776 794.487 758.165 798.587C757.554 802.687 759.582 807.746 764.031 809.12C777.879 813.482 786.078 823.884 795.347 837.057C800.101 843.796 805.073 851.014 809.304 858.625C817.917 874.196 821.494 891.73 820.273 912.23H820.294ZM984.068 763.519L983.72 765.504C982.04 774.772 980.318 784.368 980.47 794.203C980.492 795.752 980.056 797.496 979.576 799.328L979.271 800.528C976.719 810.865 972.467 821.289 966.252 832.412C959.448 844.581 950.311 855.964 938.316 867.261C925.428 879.387 909.945 885.558 892.281 885.646C878.128 885.755 865.196 881.022 853.922 871.71C844.501 863.925 836.759 854.525 830.937 843.817C824.525 832.041 819.924 821.289 816.849 810.93C812.989 797.933 809.456 782.449 812.378 766.18C813.316 760.967 813.534 756.104 813.011 751.699C811.332 737.436 814.777 724.111 820.513 708.497C824.46 697.723 830.304 689.392 838.417 683.003C842.931 679.448 847.03 676.765 850.912 674.825C853.834 673.363 856.582 672.622 859.134 672.622C862.557 672.622 865.676 673.93 868.554 676.569C868.925 676.918 869.339 677.223 869.754 677.507C884.256 687.408 891.801 700.951 892.848 718.877C892.957 720.927 893.11 722.977 893.24 725.027L893.458 728.277C893.829 734.339 893.197 738.919 891.409 743.128C889.184 748.384 890.645 753.814 895.225 757.304C899.346 760.444 904.079 760.837 908.549 758.394C912.496 756.257 914.503 752.353 914.197 747.403V747.076C914.088 745.614 914.001 743.804 913.216 742.125C910.948 737.175 911.711 731.744 912.475 726.51C913.565 718.856 914.655 711.353 916.007 703.939C917.185 697.505 919.998 691.094 924.643 684.311C930.618 675.566 940.541 672.818 949.874 677.354C961.105 682.785 969.37 691.442 974.43 703.088C980.863 717.94 984.134 734.71 984.701 755.864C984.766 758.241 984.548 760.815 984.068 763.497V763.519ZM1154.34 754.49C1153.73 757.849 1152.14 761.643 1149.59 765.809C1141.1 779.614 1131.09 791.281 1119.86 800.506C1101.48 815.619 1083.4 826.458 1064.6 833.633C1055.95 836.948 1048.07 839.587 1039.61 839.608C1039.61 839.608 1039.61 839.608 1039.59 839.608L1037.78 839.499C1030.37 839.085 1023.37 838.692 1016.95 834.985C1008.82 830.274 1003.61 823.208 1001.03 813.373C999.072 805.827 998.854 798.565 1000.4 791.107C1002.04 783.299 1002.91 775.426 1003 767.684C1003.15 755.275 1004.98 742.736 1008.43 730.414C1012.16 717.111 1016.23 702.848 1020.88 688.52C1022.19 684.464 1023.89 680.364 1025.5 676.417C1027.4 671.815 1029.36 667.061 1030.82 662.154C1033.33 653.823 1036.8 646.408 1041.44 639.517C1043.34 636.682 1045.11 634.719 1046.87 633.476C1063.38 621.765 1079.32 614.481 1095.57 611.188C1106.32 609.029 1117.27 610.73 1129 616.4C1131.99 617.839 1134.28 620.609 1135.3 623.967C1136.37 627.479 1135.96 631.23 1134.17 634.261C1132.66 636.813 1130.4 639.211 1128.22 641.523L1128.04 641.698C1127.17 642.614 1126.17 643.464 1125.1 644.358C1123.72 645.514 1122.31 646.692 1121.04 648.153C1118.66 650.879 1115.96 652.34 1112.32 652.863C1108.48 653.409 1103.64 654.586 1100.13 658.817C1097.66 661.783 1096.97 665.665 1098.32 668.98C1099.56 672.033 1102.33 674.083 1105.78 674.476C1109.96 674.934 1114.28 674.345 1117.62 672.818C1123.85 669.983 1130.4 669.83 1137.7 669.961C1139.73 669.983 1141.82 670.397 1143.66 671.117C1147.86 672.753 1149.87 675.544 1150.15 680.189C1150.48 685.489 1149.06 690.548 1145.73 696.131C1141.74 702.805 1135.76 707.559 1129.42 712.597L1128.96 712.967C1124.77 716.304 1119.6 719.706 1113.06 719.75C1110.01 719.75 1106.78 720.448 1103.7 721.691C1100.98 722.803 1098.43 724.7 1096.7 726.903C1095.26 728.757 1094.72 731.09 1095.16 733.511C1095.64 736.128 1097.29 738.505 1099.58 739.857C1104.01 742.496 1108.13 743.15 1112.21 741.863L1113.43 741.471C1115.68 740.751 1118.01 740.031 1120.3 739.137C1122.04 738.461 1123.83 737.916 1125.64 737.523C1128.37 736.935 1131.14 736.695 1134.02 736.76C1136.9 736.826 1139.86 737.24 1142.96 737.981L1143.7 738.156C1144.99 738.461 1146.21 738.745 1147.08 739.225C1155.06 743.673 1155.95 745.527 1154.32 754.49H1154.34Z"
        stroke="#F84E72" fill="#fff5e0" />
    <animate dur="3s" attributeName="stroke" xlink:href="#rue" fill="freeze" begin="0.5s" from="#F84E72" to="#fff5e0" />
    <animate dur="1.8s" attributeName="fill" xlink:href="#rue" fill="freeze" begin="2.5s" from="#fff5e0" to="#F84E72" />


    <path id="rcenter" class="word"
        d="M728.834 758.721C721.201 759.615 714.746 763.366 711.584 768.731C710.603 770.389 710.712 772.591 711.824 774.51C712.958 776.43 714.834 777.585 716.774 777.476C719.827 777.389 722.728 777.106 725.432 776.648C730.797 775.732 733.522 776.648 735.507 780.115C736.009 780.987 737.404 783.081 739.65 783.735C741.002 784.128 742.485 784.499 743.968 784.499C744.906 784.499 745.822 784.346 746.716 783.953C748.722 783.081 749.725 781.075 750.271 780.028C750.336 779.919 750.38 779.81 750.423 779.723L750.707 779.221C753.956 771.632 749.507 767.008 746.563 763.955C742.616 759.855 735.987 757.892 728.878 758.721H728.834ZM744.753 776.451C744.644 776.648 744.535 776.866 744.404 777.106C744.295 777.324 744.099 777.716 743.946 777.956C743.598 777.956 742.943 777.847 741.678 777.498C741.569 777.389 741.373 777.171 741.199 776.866C736.75 769.015 729.423 769.298 724.32 770.171C722.357 770.519 720.242 770.738 718.017 770.847C720.394 767.881 724.669 765.765 729.597 765.176C734.7 764.588 739.258 765.809 741.809 768.448C744.928 771.697 746.018 773.246 744.732 776.408L744.753 776.451Z"
        stroke="#F84E72" fill="#fff5e0" />
    <animate dur="3s" attributeName="stroke" xlink:href="#rcenter" fill="freeze" begin="2.25s" from="#F84E72"
        to="#fff5e0" />
    <animate dur="1.8s" attributeName="fill" xlink:href="#rcenter" fill="freeze" begin="2.75s" from="#fff5e0"
        to="#F84E72" />

    <path id="rcenterBold" class="word"
        d="M745.866 764.064C741.831 759.877 735.245 757.871 728.223 758.699C720.918 759.55 714.703 763.214 711.606 768.491C710.625 770.149 710.734 772.351 711.846 774.27C712.98 776.19 714.855 777.345 716.796 777.236C719.849 777.149 722.75 776.866 725.454 776.408C730.818 775.47 733.544 776.408 735.529 779.875C736.031 780.748 737.426 782.841 739.672 783.495C741.024 783.888 742.507 784.259 743.99 784.259C744.928 784.259 745.844 784.106 746.738 783.713C748.744 782.841 749.747 780.835 750.292 779.788C750.358 779.679 750.402 779.57 750.445 779.483L750.707 778.981C752.888 773.922 749.464 767.772 745.887 764.042L745.866 764.064Z"
        fill="#fff5e0" />
    <animate dur="1.8s" attributeName="fill" xlink:href="#rcenterBold" fill="freeze" begin="2.75s" from="#fff5e0"
        to="#F84E72" />

    <path id="top2" class="word"
        d="M1346.07 663.855C1342.45 663.353 1339.05 663.353 1335.63 664.138C1334.32 664.444 1332.9 664.531 1331.57 664.378C1327.21 663.92 1322.85 663.288 1318.51 662.764C1308.39 661.521 1298.4 659.864 1289.42 654.499C1286.19 652.58 1282.44 651.555 1279.17 649.701C1274.22 646.888 1269.46 643.704 1264.62 640.673C1264.36 640.52 1264.1 640.345 1263.9 640.127C1261.02 636.813 1258.49 633.127 1255.2 630.314C1251.89 627.479 1249.73 623.64 1246.3 620.98C1246.06 620.805 1245.74 620.587 1245.69 620.347C1244.54 613.87 1238.54 610.315 1236.21 604.514C1234.75 600.894 1233.24 597.23 1231.21 593.916C1229.1 590.513 1228.84 586.697 1227.61 583.164C1225.13 576.076 1224.34 568.749 1222.71 561.574C1220.96 553.963 1221.86 546.482 1221.55 538.959C1221.38 534.575 1221.68 530.148 1221.9 525.764C1222.12 521.381 1222.42 517.019 1222.9 512.658C1223.1 510.891 1223.95 509.212 1224.34 507.445C1225.7 501.383 1227 495.32 1228.29 489.257C1229.45 483.849 1231.43 478.811 1234.07 473.926C1236.03 470.306 1237.62 466.337 1238.58 462.346C1240.13 455.912 1243.8 450.591 1246.78 444.899C1247.68 443.176 1248.44 441.366 1249.51 439.752C1251.82 436.285 1254.28 432.926 1256.68 429.524C1259.69 425.228 1262.88 421.106 1265.49 416.483C1267.74 412.557 1271.75 409.657 1275 406.298C1276.05 405.208 1277.31 404.27 1278.12 403.049C1280.08 400.083 1282.83 398.011 1285.58 395.896C1286.76 394.98 1287.63 393.65 1288.83 392.799C1295.83 387.87 1302.39 382.331 1310.2 378.471C1313.21 376.988 1316.07 374.829 1319.03 373.019C1324 369.987 1329.46 368.221 1334.69 365.866C1339.75 363.598 1344.83 361.439 1350.08 359.65C1352.09 358.974 1354.14 358.364 1356.19 357.797C1358.24 357.208 1360.42 356.946 1362.38 356.117C1366.33 354.46 1370.19 355.049 1373.94 356.379C1377.61 357.666 1378.37 362.355 1375.4 365.517C1373.11 367.959 1370.5 369.922 1367.16 371.122C1361.16 373.302 1355.34 375.963 1349.54 378.645C1342.67 381.829 1335.76 384.97 1329.19 388.721C1326.01 390.553 1322.11 391.447 1319.79 394.784C1319.16 395.721 1317.92 396.354 1316.83 396.834C1311.46 399.189 1307.34 403.311 1302.85 406.822C1299.1 409.744 1295.78 413.277 1292.54 416.788C1288.65 420.975 1285.12 425.468 1281.28 429.699C1278.99 432.25 1277.36 435.173 1275.63 438.095C1273.67 441.432 1271.51 444.637 1269.55 447.974C1267.11 452.14 1264.53 456.239 1262.48 460.601C1259.37 467.187 1256.44 473.904 1253.85 480.708C1252.15 485.157 1251.19 489.89 1249.95 494.513C1248.75 499.006 1247.28 503.476 1246.52 508.056C1245.56 513.726 1245.21 519.484 1244.6 525.197C1244.52 525.961 1244.54 526.724 1244.49 527.487C1244.1 534.401 1243.36 541.292 1244.69 548.183C1245.23 551.019 1245.61 553.963 1245.5 556.841C1245.32 561.617 1247.98 565.717 1248.03 570.581C1248.07 574.288 1250.69 577.93 1252.02 581.659C1255.2 590.535 1260.87 597.994 1265.71 605.932C1266.56 607.328 1267.94 608.462 1269.27 609.487C1270.99 610.817 1272.69 611.929 1272.97 614.437C1273.08 615.288 1274.26 616.073 1275.07 616.749C1279.6 620.522 1284.16 624.295 1288.78 627.958C1289.81 628.765 1291.18 629.092 1292.36 629.747C1298.27 633.018 1304.49 635.766 1310.94 637.576C1315.15 638.754 1319.38 641.022 1324.07 639.757C1324.48 639.648 1325.01 639.757 1325.42 639.909C1332.86 642.635 1340.62 640.694 1348.21 641.131C1352.77 641.392 1357.48 639.757 1362.32 639.866C1364.91 639.931 1367.57 638.557 1370.15 637.641C1375.73 635.657 1381.33 633.738 1386.79 631.426C1389.49 630.27 1391.87 628.307 1394.4 626.737C1400.55 622.877 1406.81 619.148 1412.82 615.113C1415.57 613.26 1418.21 611.057 1420.41 608.593C1423.45 605.212 1425.76 601.221 1428.83 597.906C1431.82 594.701 1431.97 590.383 1433.93 586.784C1436.25 582.553 1437.82 577.865 1439.43 573.263C1440.48 570.297 1442.55 568.443 1445.01 566.83C1446.74 565.696 1448.46 565.892 1450.22 566.786C1452.08 567.746 1452.23 569.338 1452.01 571.104C1451.16 577.734 1450.49 584.407 1448.22 590.775C1447.72 592.193 1447.83 593.806 1447.41 595.268C1443.77 607.502 1436.9 617.665 1427.87 626.65C1421.22 633.258 1413.3 638.034 1405.93 643.617C1404.87 644.424 1403.43 644.729 1402.2 645.383C1395.1 649.069 1387.94 652.689 1380.94 656.571C1379.13 657.574 1377.13 659.166 1376.41 660.954C1373.77 667.65 1367.97 671.662 1363.58 676.853C1360.97 679.949 1357.72 682.545 1355.25 685.75C1352 690.003 1347.93 693.362 1344.26 697.156C1341.41 700.122 1338.33 702.892 1335.67 706.01C1331.5 710.852 1327.69 715.977 1323.57 720.84C1319.27 725.9 1314.67 730.697 1310.48 735.844C1308.24 738.592 1306.69 741.885 1304.59 744.786C1303.2 746.705 1300.93 748.122 1299.97 750.194C1298.97 752.353 1297.62 753.88 1295.98 755.494C1294.3 757.151 1293.28 759.506 1292.01 761.578C1289.63 765.46 1286.97 769.189 1284.99 773.246C1282.11 779.134 1279.6 785.218 1277.16 791.303C1276.27 793.527 1275.98 795.992 1275.44 798.325C1275.31 798.914 1275.35 799.677 1275 800.07C1272.82 802.447 1273.1 805.217 1273.1 808.182C1273.1 812.849 1272.38 817.582 1274 822.096C1276.14 828.006 1277.36 834.287 1281.11 839.565C1284.75 844.668 1288.87 849.139 1293.91 852.999C1299.14 856.99 1304.68 860.348 1310.42 863.401C1314.21 865.429 1318.31 866.825 1322.59 867.785C1326.03 868.548 1329.5 869.268 1332.73 871.1C1334.43 872.059 1337 871.318 1339.14 871.623C1345.09 872.473 1351.02 873.564 1357 874.393C1360.84 874.938 1364.72 875.418 1368.6 875.527C1376.54 875.745 1384.5 875.788 1392.43 875.723C1397.89 875.679 1403.36 875.243 1408.81 875.069C1413.94 874.894 1419.04 874.938 1424.16 874.698C1426.52 874.589 1428.83 874 1431.19 873.804C1438.82 873.15 1446.39 872.146 1453.98 871.121C1459.32 870.402 1464.68 869.028 1470.22 869.442C1473.17 869.66 1476.2 869.05 1479.16 868.679C1484.2 868.068 1489.24 867.349 1494.28 866.651C1495.78 866.433 1497.29 865.887 1498.77 865.931C1504.44 866.084 1509.89 864.862 1515.34 863.598C1518.7 862.834 1522.15 861.068 1525.35 861.46C1530.08 862.027 1534.38 860.719 1538.83 860.086C1548.71 858.647 1558.52 856.815 1568.36 855.027C1574.61 853.893 1580.81 852.497 1586.89 850.447C1591.32 848.942 1596.12 848.571 1600.59 847.198C1604.86 845.889 1609.31 845.104 1613.43 843.185C1615.87 842.051 1618.64 841.593 1621.24 840.764C1625.6 839.39 1629.9 837.776 1634.3 836.577C1639.34 835.225 1643.88 833 1648.26 830.253C1650.4 828.922 1652.97 828.159 1655.41 827.417C1661.28 825.651 1666.25 822.227 1671.55 819.327C1676.78 816.47 1681.3 812.828 1685.7 808.859C1689.37 805.544 1693.64 802.927 1697.11 799.306C1698.72 797.605 1700.88 796.428 1702.71 794.901C1703.21 794.487 1703.41 793.68 1703.76 793.048C1704.11 792.393 1704.28 791.477 1704.83 791.128C1710.78 787.159 1714.14 781.053 1718.13 775.405C1721.51 770.629 1723.89 765.373 1725.61 759.964C1726.9 755.93 1728.42 751.633 1727.01 747.032C1726.11 744.131 1727.29 740.904 1726.22 737.872C1725.7 736.411 1722.67 729.171 1721.62 727.862C1718.7 724.242 1715.82 720.578 1712.83 717.002C1712.31 716.391 1711.33 716.151 1710.54 715.759C1709.89 715.453 1708.91 715.388 1708.58 714.908C1705.15 709.674 1699.14 708.824 1694.12 706.294C1691.48 704.964 1688.54 704.484 1686.14 702.368C1684.68 701.082 1682.23 700.842 1680.21 700.275C1672.88 698.29 1665.44 696.676 1658.25 694.299C1653.23 692.642 1647.91 694.059 1643.09 692.184C1637.42 689.959 1631.68 691.988 1625.97 691.53C1620 691.05 1613.98 692.053 1608.05 692.271C1600.3 692.576 1592.71 693.82 1585.1 694.626C1575.44 695.673 1565.76 697.658 1556.65 701.627C1553.07 703.197 1549.19 704.091 1545.5 705.422C1542.88 706.359 1540.77 708.082 1537.54 707.951C1535.1 707.842 1532.42 709.609 1530.11 710.961C1526.86 712.858 1523.87 715.214 1520.71 717.307C1516.61 720.033 1512.7 723.13 1508.3 725.245C1503.54 727.513 1498.2 728.08 1493.27 725.66C1491.57 724.831 1490.37 722.694 1489.28 720.949C1486.29 716.129 1487.34 710.721 1491.66 706.839C1492.25 706.294 1492.25 705.116 1492.57 704.048C1494.82 703.393 1497.09 702.325 1498.51 699.904C1498.94 699.163 1499.75 698.552 1500.49 698.05C1507.08 693.536 1513.27 688.673 1517.76 681.89C1519.57 679.143 1521.84 676.678 1524.06 674.236C1525.24 672.927 1526.75 671.924 1528.47 670.463C1527.88 668.304 1529.34 666.995 1531.26 665.403C1533.86 663.266 1537.35 661.739 1538.35 657.967C1538.41 657.727 1538.81 657.574 1539.05 657.4C1543.76 653.91 1546.83 648.829 1551.24 644.969C1553.61 642.875 1555.1 639.844 1558.04 637.968C1559.76 636.856 1560.46 634.217 1561.79 632.407C1562.93 630.837 1564.39 629.507 1565.56 627.958C1566.59 626.606 1569.86 626.65 1568.33 623.662C1568.29 623.597 1568.44 623.357 1568.57 623.291C1574.16 619.649 1576.32 613.347 1580.11 608.309C1582.79 604.732 1584.56 600.502 1586.87 596.642C1588.66 593.654 1590.75 590.841 1592.54 587.831C1593.28 586.588 1593.59 585.083 1594.07 583.709C1594.31 583.011 1594.33 581.965 1594.81 581.659C1597.53 580.002 1597.56 577.101 1598.47 574.55C1600.41 569.098 1602.57 563.733 1604.51 558.281C1605.21 556.34 1605.52 554.29 1605.97 552.262C1606.04 551.978 1605.97 551.607 1606.1 551.389C1611.08 544.105 1610.47 534.968 1614.15 527.16C1615.72 523.845 1615.29 519.593 1615.66 515.754C1616.01 512.134 1616.33 508.514 1616.51 504.894C1616.68 501.208 1616.68 497.501 1616.75 493.815C1616.81 490.151 1616.88 486.488 1616.83 482.824C1616.83 481.995 1616.44 481.188 1616.22 480.381C1615.98 479.509 1615.44 478.615 1615.5 477.764C1616.22 468.365 1612.89 459.772 1609.68 451.311C1608.26 447.603 1606.69 443.351 1602.81 440.908C1602.14 440.472 1601.57 439.403 1601.46 438.575C1601 434.911 1598.56 432.861 1595.83 430.898C1594.42 429.895 1592.87 428.739 1592.06 427.3C1589.31 422.327 1584.34 419.754 1580.57 415.938C1576.03 411.336 1570.47 408.414 1565.56 404.488C1565.08 404.118 1564.32 403.965 1564.04 403.507C1561.86 399.756 1557.98 398.884 1554.33 397.466C1552.81 396.877 1551.65 395.438 1550.19 394.653C1545.76 392.254 1541.18 390.16 1536.84 387.63C1530.45 383.901 1523.26 382.266 1516.63 379.147C1511.02 376.508 1505.2 374.371 1499.44 372.081C1498.46 371.689 1497.35 371.645 1496.33 371.405C1490.07 369.987 1483.81 368.526 1477.55 367.152C1475.39 366.673 1473.21 366.302 1471.03 365.975C1464.4 365.015 1457.73 364.317 1451.16 363.118C1446.6 362.289 1442.07 362.791 1437.51 362.616C1432.39 362.42 1427.22 362.355 1422.11 362.747C1415.94 363.227 1409.79 364.186 1403.67 365.015C1398.1 365.778 1392.57 366.651 1387.03 367.48C1386.13 365.997 1385.43 365.015 1384.93 363.925C1383.82 361.482 1384.32 360.196 1386.13 358.211C1389.03 355.027 1392.94 353.828 1396.71 352.41C1403.99 349.662 1411.6 348.179 1419.35 347.263C1426.13 346.478 1432.84 344.995 1439.63 344.624C1446.67 344.232 1453.8 344.494 1460.87 344.995C1468.7 345.54 1476.63 346.086 1484.27 347.743C1492.64 349.553 1501.36 350.098 1509.3 353.762C1509.82 354.002 1510.46 354.024 1511.07 354.089C1513.88 354.373 1516.43 355.114 1519.05 356.488C1522.36 358.233 1526.22 358.952 1529.84 360.108C1536.63 362.311 1543.08 365.255 1549.51 368.308C1552.5 369.726 1555.6 370.925 1558.65 372.256C1559.04 372.43 1559.48 372.67 1559.72 373.019C1561.75 375.985 1565.06 376.661 1568.05 378.078C1571.23 379.605 1574.05 381.96 1576.99 383.988C1578.21 384.817 1579.46 385.624 1580.61 386.518C1586.17 390.814 1592.56 393.977 1597.51 399.145C1599.78 401.522 1602.59 403.354 1604.97 405.622C1606.24 406.822 1607 408.501 1608.15 409.831C1614.04 416.745 1621.5 422.371 1625.84 430.593C1629.83 438.139 1634.45 445.313 1636.11 453.993C1637.14 459.314 1639.12 464.483 1639.91 469.892C1640.17 471.811 1640.06 473.773 1640.12 475.714C1640.17 476.739 1639.95 477.939 1640.39 478.789C1642.63 483.325 1641.87 487.971 1641.08 492.616C1640.95 493.335 1640.91 494.077 1640.91 494.818C1640.91 499.834 1641 504.85 1640.95 509.866C1640.95 511.698 1640.65 513.508 1640.54 515.34C1640.32 518.502 1640.32 521.643 1638.99 524.652C1638.34 526.135 1638.21 527.88 1637.92 529.515C1636.66 537.236 1636.24 545.087 1632.86 552.414C1631.42 555.533 1631.07 559.131 1630.2 562.512C1629.9 563.689 1629.68 564.998 1629 565.957C1625.56 570.973 1624.88 577.014 1622.61 582.444C1621.15 585.912 1619.45 589.314 1617.55 592.585C1615.05 596.881 1613.19 601.439 1611.14 605.954C1608.63 611.493 1605.01 616.509 1601.74 621.699C1599.52 625.254 1597.03 628.634 1594.87 632.255C1592.8 635.744 1589.86 638.71 1587.33 641.916C1583.95 646.19 1579.89 649.919 1577.14 654.695C1576.77 655.35 1576.25 655.96 1575.7 656.484C1573.42 658.664 1570.97 660.671 1568.81 662.961C1566.11 665.883 1563.62 669.023 1560.75 672.426C1564.47 673.494 1567.37 673.865 1570.19 672.12C1570.67 671.815 1571.28 671.575 1571.82 671.597C1577.28 671.859 1582.53 670.441 1587.87 669.765C1595.66 668.784 1603.55 668.565 1611.38 667.715C1616.27 667.192 1621.33 668.129 1626.3 668.369C1627.82 668.435 1629.37 668.5 1630.88 668.369C1637.27 667.715 1643.59 669.351 1649.85 669.307C1657.03 669.263 1663.28 673.102 1670.33 672.6C1677.55 675.828 1685.79 676.046 1692.68 680.364C1694.93 681.76 1697.78 682.13 1700.25 683.243C1704.89 685.358 1709.82 686.972 1713.72 690.483C1714.03 690.766 1714.49 690.984 1714.9 691.072C1718.33 691.835 1721.23 693.492 1723.47 696.175C1724.98 697.963 1726.7 699.293 1729.01 700.013C1729.88 700.297 1730.47 701.431 1731.26 702.107C1737.73 707.777 1742.42 714.734 1746.37 722.367C1748.03 725.572 1748.35 728.822 1749.25 732.05C1750.19 735.408 1751.17 738.679 1751.47 742.169C1752.21 750.587 1751.76 758.917 1749.16 767.008C1747.68 771.61 1746.09 776.19 1744.15 780.595C1742.95 783.321 1741.03 785.763 1739.33 788.271C1736.62 792.262 1733.81 796.188 1731.08 800.157C1729.82 801.989 1729.05 804.868 1727.35 805.587C1723.04 807.376 1722.19 812.784 1717.63 814.071C1716.71 814.332 1715.8 815.205 1715.23 816.034C1711.89 820.744 1707.33 823.928 1702.56 826.981C1699.38 829.009 1696.26 831.256 1693.51 833.829C1692.18 835.072 1691.04 835.857 1689.26 835.988C1688.43 836.054 1687.56 836.664 1686.86 837.209C1682.87 840.263 1678.44 842.509 1673.77 844.319C1673.21 844.537 1672.66 844.799 1672.12 845.082C1667.56 847.285 1662.98 849.444 1658.44 851.734C1651.01 855.485 1642.81 857.273 1635.3 860.697C1631.18 862.594 1626.87 863.052 1622.87 864.601C1616.9 866.912 1610.6 867.632 1604.53 869.377C1599.98 870.685 1595.44 872.081 1590.82 873.062C1583.69 874.589 1576.49 875.788 1569.34 877.14C1564.43 878.056 1559.55 879.103 1554.62 879.823C1547.12 880.913 1539.57 881.589 1532.09 882.811C1524.94 883.966 1517.5 883.727 1510.72 886.867C1509.96 887.216 1508.91 887.063 1508.01 887.041C1507.25 887.02 1506.34 886.474 1505.79 886.758C1501.8 888.786 1497.53 887.347 1493.43 887.892C1489.26 888.437 1485.03 888.372 1480.84 888.699C1479.66 888.786 1478.53 889.309 1477.35 889.593C1476.35 889.855 1475.35 890.182 1474.32 890.291C1467.39 891.054 1460.45 892.188 1453.5 892.341C1449.55 892.428 1445.73 892.624 1441.83 893.235C1436.57 894.064 1431.23 894.435 1425.93 894.805C1419.72 895.241 1413.5 895.459 1407.29 895.765C1406.83 895.787 1406.37 895.721 1405.91 895.765C1399.61 896.092 1393.29 896.506 1386.98 896.703C1384.43 896.768 1381.88 896.332 1379.31 896.135C1378.85 896.092 1378.37 896.026 1377.95 896.135C1373 897.466 1368.1 896.135 1363.19 895.874C1358.15 895.634 1353.16 894.565 1348.14 894.543C1339.25 894.5 1330.96 891.599 1322.46 889.68C1318.03 888.677 1313.54 887.761 1309.22 886.365C1305.18 885.057 1301.24 883.378 1297.44 881.48C1293.82 879.67 1290.64 876.813 1286.89 875.505C1284.6 874.698 1283.11 873.215 1281.3 872.037C1279.28 870.751 1277.77 868.679 1275.83 867.24C1270.88 863.576 1266.28 859.585 1262.72 854.503C1262.14 853.675 1261.39 852.759 1261.31 851.821C1261.13 849.684 1260.78 847.895 1258.47 847.089C1258.01 846.936 1257.66 846.26 1257.45 845.736C1256.05 842.422 1254.59 839.15 1253.41 835.77C1252.56 833.349 1252.06 830.776 1251.45 828.268C1250.99 826.349 1250.56 824.408 1250.16 822.467C1249.99 821.616 1249.84 820.744 1249.81 819.872C1249.79 818.367 1250.1 816.84 1249.88 815.379C1248.46 806.634 1249.66 798.26 1252.93 790.06C1254.33 786.549 1255.03 782.776 1256.49 779.308C1258.23 775.208 1260.43 771.283 1262.51 767.314C1263.99 764.479 1265.56 761.709 1267.15 758.939C1272.69 749.344 1279.17 740.38 1286.08 731.722C1289.24 727.753 1292.23 723.61 1295.11 719.401C1296.02 718.049 1297.49 717.045 1298.64 715.846C1302.41 711.921 1306.78 708.366 1309.7 703.895C1311.97 700.427 1314.78 697.462 1317.64 694.932C1321.78 691.268 1324.77 686.492 1329.5 683.417C1331.46 682.13 1332.73 679.797 1334.32 677.921C1336.87 674.934 1339.31 671.837 1342.06 669.045C1343.56 667.519 1346.53 667.41 1346.29 663.768L1346.07 663.855Z"
        stroke="#F84E72" />
    <animate dur="3s" attributeName="stroke" xlink:href="#top2" fill="freeze" begin="1s" from="#F84E72" to="#fff5e0" />
    <animate dur="1.8s" attributeName="fill" xlink:href="#top2" fill="freeze" begin="3s" from="#fff5e0" to="#F84E72" />


    <path id="yo" class="word"
        d="M1552.55 1122.92L1552.5 1122C1552.13 1113.02 1551.74 1103.75 1550.93 1094.61C1549.45 1077.89 1543.3 1062.73 1536.89 1048.86C1530.76 1035.62 1521.47 1025.37 1509.28 1018.41C1492.9 1009.06 1476.48 1009.43 1460.47 1019.48C1453.26 1024.02 1446.58 1029.8 1440.11 1037.17C1439.82 1037.48 1439.56 1037.82 1439.3 1038.17C1439.19 1038.33 1439.04 1038.5 1438.91 1038.67C1438.25 1037.15 1437.64 1035.71 1437.34 1034.29C1433.63 1017.78 1422.25 1006.31 1403.54 1000.18C1382.71 993.379 1362.38 996.825 1343.11 1010.43C1331.61 1018.55 1321.45 1028.69 1312.9 1040.59C1299.36 1059.48 1291.25 1075.6 1286.91 1092.37C1286.01 1090.88 1285.16 1089.44 1284.36 1087.98C1283.25 1086 1282.2 1083.97 1281.13 1081.96C1279.3 1078.45 1277.4 1074.83 1275.26 1071.39C1251.62 1033 1221.09 1011.07 1181.93 1004.33C1155.95 999.856 1133.32 1002.8 1112.75 1013.31C1096.92 1021.4 1082.09 1032.61 1068.7 1046.61C1066.61 1048.79 1064.82 1051.21 1063.1 1053.53L1062.62 1054.18C1059.46 1058.43 1056.47 1062.69 1054.22 1065.89C1053.24 1067.31 1052.24 1068.68 1051.21 1070.08C1048.23 1074.18 1045.15 1078.43 1042.8 1083.08C1040.09 1088.4 1037.98 1094.05 1035.95 1099.48C1035.05 1101.83 1034.18 1104.21 1033.24 1106.54C1033.14 1106.83 1033.03 1107.13 1032.92 1107.44C1032.09 1105.39 1031.3 1103.31 1030.52 1101.22C1028.58 1096.14 1026.59 1090.91 1024 1085.96C1009.74 1058.78 990.545 1036.52 966.906 1019.77C956.94 1012.7 946.647 1005.4 934.391 1001.3C931.098 1000.18 927.805 999.027 924.512 997.893C919.322 996.083 913.979 994.208 908.615 992.528C901.68 990.369 895.268 989.366 889.097 989.475C882.075 989.606 873.897 989.846 865.698 991.285C840.205 995.734 819.357 1007.18 803.743 1025.28C794.758 1035.71 786.624 1047.35 778.86 1060.9C767.629 1080.5 759.517 1102.46 754.741 1126.19L754.414 1127.87C754.022 1129.92 753.607 1132.01 753.018 1134.22C751.296 1131.34 749.704 1128.74 748.177 1126.26C744.492 1120.26 741.33 1115.07 737.492 1107.98C723.164 1083.45 701.945 1060.53 680.705 1046.66C673.094 1041.68 663.891 1036.1 653.293 1032.33C638.355 1027.01 623.177 1028.03 608.217 1035.36C596.528 1041.1 587.805 1052.22 584.883 1065.13C582.658 1074.94 581.917 1083.34 581.154 1092.21C580.827 1095.83 580.521 1099.56 580.063 1103.58C577.577 1126.13 580.87 1149.98 584.796 1174.45C586.257 1183.66 588.525 1192.82 590.684 1201.67C591.403 1204.57 592.101 1207.47 592.799 1210.39C593.54 1213.56 594.435 1216.7 595.307 1219.73C596.048 1222.32 596.79 1224.94 597.444 1227.56C599.712 1236.72 603.419 1245.33 607.017 1253.66C608.042 1256.02 609.046 1258.39 610.049 1260.75C615.152 1273.03 621.17 1284.43 627.953 1294.68C642.389 1316.53 656.978 1334.88 672.549 1350.8C675.427 1353.74 678.219 1356.84 681.163 1360.13C681.621 1360.65 682.079 1361.15 682.558 1361.68C681.752 1362.03 681.01 1362.31 680.269 1362.53C662.299 1367.48 645.486 1375.61 629.239 1383.49C626.164 1384.97 623.09 1386.47 619.993 1387.94C611.423 1392.01 603.027 1397.07 595.002 1402.96C577.795 1415.61 562.399 1427.23 548.312 1441.34C538.302 1451.38 530.255 1460.84 523.691 1470.33C512.678 1486.25 503.955 1502.93 497.762 1519.92C492.637 1533.96 489.693 1545.04 488.189 1555.79C485.179 1577.21 486.597 1595.92 492.507 1613.02C496.105 1623.42 501.687 1636.55 513.049 1646.02C532.763 1662.44 550.165 1669.96 569.465 1670.44C570.512 1670.46 572.3 1670.7 573.281 1670.94C586.322 1674.13 599.668 1674.61 612.557 1675.06C617.136 1675.24 621.868 1675.41 626.491 1675.7C627.822 1675.78 629.174 1675.83 630.504 1675.83C635.891 1675.83 641.408 1675.19 647.754 1674.26C656.39 1672.97 665.178 1671.49 674.599 1669.72C689.406 1666.93 703.843 1664.01 717.908 1658.75C725.345 1655.98 732.956 1653.3 740.327 1650.7C747.479 1648.2 754.872 1645.58 762.178 1642.87C770.617 1639.73 779.362 1636.48 787.518 1632.23C804.768 1623.25 823.108 1613.59 840.728 1603.01C849.473 1597.78 857.716 1591.52 865.698 1585.5C868.205 1583.6 870.713 1581.7 873.221 1579.85C875.642 1578.06 877.823 1576.01 879.938 1574.05C881.137 1572.91 882.359 1571.78 883.602 1570.71C901.702 1555.12 920.238 1536.82 940.301 1514.77C954.825 1498.83 968.607 1480.82 982.411 1459.73C995.648 1439.49 1007.51 1417.83 1018.68 1393.52C1028.97 1371.08 1036.28 1350.66 1041.01 1331.08C1041.64 1328.49 1042.27 1325.91 1042.93 1323.34C1046.22 1310.12 1049.62 1296.47 1050.41 1282.36C1050.6 1278.72 1051.08 1274.97 1051.65 1270.65C1069.25 1296.1 1087.68 1313.42 1109.59 1325.13C1119.78 1330.58 1131.33 1336.75 1144.05 1339.46C1167.82 1344.54 1191.94 1342.68 1217.8 1333.81C1234.31 1328.14 1247.66 1317.21 1259.61 1306.24C1261.98 1304.06 1264.29 1301.68 1266.45 1299.15C1280.08 1283.28 1289.44 1268.95 1295.89 1254.05C1296.18 1253.38 1296.55 1252.7 1296.94 1252C1299.3 1255.52 1301.08 1259.24 1302.96 1263.13C1303.9 1265.09 1304.83 1267.03 1305.86 1268.95C1306.78 1270.69 1307.69 1272.48 1308.61 1274.25C1312.16 1281.18 1315.85 1288.38 1320.62 1294.75C1332.2 1310.28 1347.71 1320.57 1366.72 1325.35C1388.27 1330.75 1410.25 1329.01 1432.1 1320.18C1446.84 1314.22 1459.95 1305 1471.07 1296.84C1483.55 1287.68 1494.43 1277.41 1503.41 1266.31C1515.28 1251.63 1525.85 1234.97 1535.78 1215.32C1541.18 1204.61 1545.15 1192.71 1547.6 1179.91C1551.72 1158.34 1553.29 1140.28 1552.57 1123.03L1552.55 1122.92ZM1024.43 1258.63C1024.3 1260.07 1024.15 1261.51 1023.95 1262.95C1023.41 1267.27 1022.62 1271.63 1021.88 1275.86C1021.45 1278.28 1021.03 1280.7 1020.64 1283.12C1015.38 1315.53 1007.62 1344.62 996.891 1372.06C992.072 1384.42 985.988 1396.64 980.143 1408.44L979.991 1408.74C966.644 1435.63 952.033 1458.33 935.372 1478.13C920.195 1496.19 899.87 1519.77 877.321 1542.08C874.966 1544.41 872.305 1546.44 869.47 1548.58C868.402 1549.38 867.311 1550.21 866.265 1551.04C865.676 1551.5 865.022 1551.91 864.389 1552.33C863.299 1553.05 862.056 1553.83 860.944 1554.9C858.283 1557.45 855.47 1559.87 852.591 1562.16C843.912 1569.05 834.404 1574.92 825.114 1580.63C821.843 1582.64 818.593 1584.65 815.366 1586.72C795.63 1599.26 773.387 1609.79 749.224 1618.01C745.364 1619.32 741.504 1620.7 737.644 1622.05C724.472 1626.71 710.843 1631.53 696.886 1634.2C691.434 1635.22 686.07 1636.77 680.901 1638.25C676.518 1639.49 672.004 1640.8 667.533 1641.76C645.333 1646.5 625.183 1648.7 606.102 1648.59C594.565 1648.5 585.254 1647.5 576.792 1645.45C565.67 1642.74 553.044 1639.67 541.726 1634.15C526.046 1626.52 518.021 1614.13 517.192 1596.31C516.647 1584.58 517.585 1572.63 520.093 1559.79C522.928 1545.22 527.42 1530.3 533.439 1515.49C536.601 1507.71 541.246 1500.4 545.368 1494.27C554.025 1481.41 564.667 1468.76 577.839 1455.58C594.936 1438.51 613.494 1424.73 633.034 1414.61C636.545 1412.8 640.012 1410.9 643.479 1409C649.956 1405.47 656.673 1401.81 663.455 1398.8L664.742 1398.23C681.01 1391.03 697.846 1383.62 715.837 1381.33C718.955 1380.93 721.921 1379.87 724.647 1378.8C727.22 1377.77 729.074 1375.64 729.641 1373.04C730.208 1370.42 729.423 1367.76 727.482 1365.76C725.258 1363.42 722.75 1361.44 720.329 1359.5L719.282 1358.67C706.874 1348.66 696.145 1338.84 686.527 1328.64C675.1 1316.51 664.567 1302.71 653.38 1285.2C644.592 1271.44 637.94 1259.72 632.423 1248.36C631.18 1245.79 629.959 1243.17 628.803 1240.49C620.647 1221.82 614.519 1200.84 610.136 1176.7C606.799 1158.34 604.444 1140.37 603.092 1123.25C602.503 1115.81 603.223 1108.18 604.095 1101C605.098 1092.76 606.516 1085.58 608.479 1079.09C610.07 1073.76 612.949 1068.68 615.719 1063.75C617.659 1060.31 620.56 1057.87 624.114 1056.67C625.75 1056.12 627.255 1055.84 628.476 1055.84C628.869 1055.84 629.217 1055.86 629.545 1055.93C634.168 1056.75 638.268 1057.58 641.713 1059.31C654.558 1065.67 667.969 1072.83 678.175 1084.19C682.449 1088.94 687.051 1093.33 691.5 1097.56C696.559 1102.38 701.444 1107.44 706.22 1112.84C720.569 1129.05 733.959 1148.28 748.199 1172.93L748.308 1173.1C748.308 1173.1 748.352 1173.15 748.352 1173.17C748.679 1173.69 749.028 1174.21 749.507 1174.89C750.903 1176.87 753.236 1177.96 755.679 1177.72V1177.55C755.679 1177.55 755.701 1177.55 755.744 1177.55V1177.7C756.028 1177.68 756.268 1177.62 756.529 1177.57C756.813 1177.57 757.096 1177.57 757.402 1177.55H757.489C761.131 1177.18 764.293 1174.87 765.689 1171.55C766.146 1170.48 766.452 1169.66 766.67 1168.83C767.629 1165.45 768.611 1162.09 769.614 1158.71C772.318 1149.5 775.109 1139.97 777.312 1130.42C780.212 1117.93 784.378 1105.39 789.982 1092.3C790.789 1090.43 791.618 1088.55 792.468 1086.65C797.331 1075.92 802.238 1067.22 807.45 1060.03C816.478 1047.59 826.51 1038.76 838.111 1032.98C840.27 1031.91 842.495 1030.71 844.893 1029.32C861.402 1019.81 880.047 1017.48 901.92 1022.19C922.266 1026.57 941.26 1036.36 958.358 1051.24C965.271 1057.26 972.467 1063.8 977.941 1071.69C981.168 1076.36 984.657 1080.94 988.016 1085.37C990.654 1088.86 993.402 1092.45 995.975 1096.05C1004.15 1107.48 1010.11 1120.72 1014.23 1136.57C1020.64 1161.3 1023.21 1187.02 1025.31 1211.24C1026.48 1225.01 1026.27 1239.62 1024.56 1258.68L1024.43 1258.63ZM1276.24 1235.3C1271.34 1248.08 1265.47 1258.83 1258.28 1268.14C1251.28 1277.19 1243.58 1285.61 1234.75 1293.88C1219.61 1308.03 1202.47 1315.31 1182.3 1316.16C1180.07 1316.25 1177.85 1316.47 1175.71 1316.69C1174.75 1316.77 1173.79 1316.88 1172.83 1316.97C1161.32 1317.67 1149.48 1315.51 1135.63 1310.17C1115.61 1302.42 1097.21 1289.95 1079.3 1272.02C1073.87 1266.59 1070.34 1259.48 1066.89 1252.59L1066.02 1250.85C1056.6 1232.07 1051.37 1215.78 1049.51 1199.58C1049.1 1195.91 1048.62 1192.25 1048.12 1188.59C1047.59 1184.66 1047.07 1180.73 1046.63 1176.81C1044.48 1157.42 1046.68 1138.16 1053.2 1119.54C1054.22 1116.6 1055.31 1113.72 1056.45 1110.88C1056.75 1110.12 1057.1 1109.38 1057.43 1108.61C1058.28 1106.59 1059.13 1104.54 1060.05 1102.57C1060.46 1101.68 1060.92 1100.83 1061.33 1099.93C1062.2 1098.12 1063.06 1096.31 1063.99 1094.57C1064.49 1093.63 1065.02 1092.74 1065.54 1091.8C1066.44 1090.16 1067.33 1088.51 1068.29 1086.91C1068.88 1085.93 1069.51 1084.97 1070.12 1084.01C1071.04 1082.53 1071.95 1081.05 1072.91 1079.61C1073.59 1078.61 1074.33 1077.62 1075.03 1076.64C1075.97 1075.31 1076.88 1073.96 1077.86 1072.67C1078.65 1071.63 1079.48 1070.65 1080.28 1069.64C1081.22 1068.44 1082.16 1067.24 1083.14 1066.09C1084.03 1065.02 1084.99 1064.02 1085.93 1062.99C1086.91 1061.9 1087.85 1060.81 1088.85 1059.74L1089.57 1058.98C1090.47 1058.06 1091.4 1057.1 1092.28 1056.06C1092.84 1055.36 1093.45 1054.68 1094.04 1054.01C1094.37 1053.64 1094.7 1053.29 1095.05 1052.92C1095.44 1052.5 1095.81 1052.09 1096.2 1051.67C1096.53 1051.32 1096.88 1051 1097.23 1050.65C1097.64 1050.23 1098.06 1049.82 1098.49 1049.43C1098.82 1049.12 1099.15 1048.82 1099.5 1048.51C1099.95 1048.1 1100.43 1047.66 1100.89 1047.27C1101.2 1046.98 1101.52 1046.72 1101.85 1046.46C1102.37 1046.02 1102.88 1045.61 1103.42 1045.2C1103.73 1044.96 1104.03 1044.72 1104.34 1044.48C1104.9 1044.04 1105.49 1043.6 1106.06 1043.19C1106.34 1042.97 1106.63 1042.77 1106.93 1042.58C1107.56 1042.14 1108.2 1041.71 1108.83 1041.29C1109.09 1041.12 1109.37 1040.92 1109.66 1040.75C1110.33 1040.31 1111.01 1039.9 1111.71 1039.46C1111.97 1039.31 1112.23 1039.13 1112.49 1038.98C1113.21 1038.57 1113.95 1038.13 1114.7 1037.74C1114.96 1037.58 1115.22 1037.45 1115.48 1037.3C1116.24 1036.89 1117.01 1036.49 1117.79 1036.1C1118.05 1035.97 1118.34 1035.82 1118.6 1035.69C1119.38 1035.29 1120.19 1034.92 1121 1034.55C1121.28 1034.42 1121.56 1034.29 1121.87 1034.16C1122.68 1033.79 1123.48 1033.44 1124.31 1033.11C1124.64 1032.98 1124.94 1032.85 1125.25 1032.72C1126.06 1032.39 1126.91 1032.07 1127.74 1031.74C1128.08 1031.61 1128.43 1031.48 1128.78 1031.33C1129.59 1031.02 1130.44 1030.74 1131.27 1030.43C1131.66 1030.3 1132.05 1030.15 1132.45 1030.02C1133.3 1029.73 1134.15 1029.45 1135.02 1029.19C1135.43 1029.06 1135.83 1028.93 1136.24 1028.8C1137.53 1028.4 1138.81 1028.01 1140.14 1027.64C1145.66 1026.09 1151.24 1025.31 1156.85 1025.31C1158.53 1025.31 1160.23 1025.39 1161.91 1025.52C1162.45 1025.57 1163 1025.66 1163.54 1025.72C1164.77 1025.85 1166.01 1025.98 1167.23 1026.2C1167.27 1026.2 1167.32 1026.2 1167.34 1026.2L1167.84 1026.29C1169.54 1026.57 1171.33 1026.88 1173.14 1027.03C1173.88 1027.09 1174.62 1027.18 1175.36 1027.27C1175.89 1027.33 1176.43 1027.38 1176.96 1027.44C1177.54 1027.51 1178.11 1027.62 1178.68 1027.71C1179.25 1027.79 1179.79 1027.88 1180.36 1027.97C1180.9 1028.05 1181.45 1028.16 1181.99 1028.27C1182.56 1028.38 1183.15 1028.49 1183.72 1028.62C1184.24 1028.73 1184.76 1028.86 1185.29 1028.99C1185.87 1029.12 1186.46 1029.25 1187.03 1029.41C1187.55 1029.54 1188.06 1029.69 1188.58 1029.82C1189.17 1029.97 1189.76 1030.15 1190.35 1030.32C1190.85 1030.47 1191.35 1030.65 1191.87 1030.8C1192.46 1031 1193.05 1031.17 1193.62 1031.37C1194.12 1031.54 1194.62 1031.74 1195.12 1031.91C1195.71 1032.13 1196.28 1032.33 1196.87 1032.57C1197.37 1032.76 1197.87 1032.98 1198.35 1033.18C1198.92 1033.42 1199.5 1033.66 1200.07 1033.9C1200.57 1034.12 1201.07 1034.36 1201.55 1034.57C1202.12 1034.84 1202.69 1035.1 1203.26 1035.36C1203.76 1035.6 1204.26 1035.86 1204.74 1036.12C1205.31 1036.41 1205.87 1036.69 1206.42 1036.97C1206.92 1037.24 1207.42 1037.54 1207.92 1037.82C1208.47 1038.13 1209.01 1038.43 1209.56 1038.74C1210.06 1039.02 1210.56 1039.35 1211.06 1039.66C1211.61 1039.98 1212.15 1040.31 1212.7 1040.66C1213.2 1040.96 1213.7 1041.31 1214.18 1041.64C1214.73 1041.99 1215.27 1042.34 1215.82 1042.71C1216.34 1043.06 1216.86 1043.45 1217.39 1043.8C1217.91 1044.17 1218.41 1044.52 1218.93 1044.89C1219.5 1045.3 1220.09 1045.76 1220.66 1046.18C1221.12 1046.53 1221.57 1046.85 1222.03 1047.2C1223.06 1048.01 1224.08 1048.82 1225.11 1049.67C1236.16 1058.8 1245.82 1069.88 1253.85 1082.55C1265.45 1100.94 1274.13 1122.03 1281.13 1148.96C1281.67 1151.07 1281.81 1153.39 1281.91 1155.85C1281.96 1156.81 1282.02 1157.77 1282.09 1158.73C1282.31 1161.54 1282.46 1164.38 1282.61 1167.19C1282.94 1173.38 1283.27 1179.8 1284.38 1186.08C1285.71 1193.58 1285.56 1200.21 1283.88 1206.36C1282.94 1209.8 1282.15 1213.32 1281.39 1216.72C1279.93 1223.2 1278.53 1229.3 1276.24 1235.3ZM1528.97 1111.91C1528.93 1113.56 1528.91 1115.22 1528.91 1116.88C1528.91 1118.04 1528.86 1119.19 1528.84 1120.35C1528.82 1121.63 1528.82 1122.94 1528.78 1124.23C1528.78 1124.77 1528.71 1125.32 1528.69 1125.84C1528.62 1127.74 1528.54 1129.62 1528.43 1131.49C1528.43 1131.73 1528.38 1131.97 1528.36 1132.21C1526.18 1165.69 1517.26 1196.65 1501.73 1224.48C1497.53 1232.01 1492.97 1239.94 1487.38 1246.84C1484.33 1250.61 1481.28 1254.18 1478.18 1257.54C1464.81 1272.15 1451.08 1282.99 1436.42 1290.52C1430.69 1293.46 1424.93 1295.77 1419.17 1297.41C1411.97 1299.46 1404.76 1300.51 1397.56 1300.53C1390.36 1300.55 1383.17 1299.55 1375.99 1297.54C1373.14 1296.73 1370.26 1295.77 1367.4 1294.64C1349.21 1287.42 1335.23 1275.4 1324.68 1257.91C1316.68 1244.65 1310.72 1230.39 1306.99 1215.54C1306.64 1214.17 1306.32 1212.81 1306.03 1211.51C1303.98 1202.35 1303.24 1194.82 1303.68 1187.56C1304.11 1179.99 1303.81 1172.38 1302.74 1164.53C1302.39 1161.91 1301.96 1159.27 1301.43 1156.57C1300.63 1152.38 1300.47 1147.45 1301.02 1141.94C1302.89 1122.62 1307.49 1103.86 1314.74 1086.2C1322.37 1067.55 1334.25 1050.95 1350.08 1036.89C1357.7 1030.13 1366.44 1026.9 1377.63 1026.9C1381.31 1026.9 1385.26 1027.25 1389.51 1027.95C1392.54 1028.45 1395.79 1029.25 1399.17 1030.34C1406.54 1032.72 1411.25 1036.41 1414 1041.92L1415.14 1044.19C1419.52 1052.87 1423.66 1061.07 1422.73 1070.69C1422.55 1072.41 1423.05 1073.98 1423.45 1075.23C1423.6 1075.71 1423.75 1076.21 1423.86 1076.69C1425.1 1083.05 1424.4 1087.15 1421.46 1090.8C1418.34 1094.64 1416.64 1099.56 1416.16 1106.3C1415.68 1112.98 1419.06 1117.93 1424.97 1119.19C1432.12 1120.74 1438.19 1118.34 1441.15 1112.76C1443.6 1108.18 1444.03 1103.25 1442.35 1098.89C1440.3 1093.59 1441.63 1088.92 1443.7 1082.92C1446.43 1075.03 1450.42 1064.8 1457.03 1055.77C1464.57 1045.44 1475.02 1041.34 1489.89 1042.86C1499.92 1043.89 1508.01 1049.3 1515.34 1059.87C1523.08 1071.04 1527.51 1084.65 1528.86 1101.44C1529.12 1104.84 1529.06 1108.24 1528.99 1111.86L1528.97 1111.91Z"
        stroke="#F84E72" />
    <animate dur="3s" attributeName="stroke" xlink:href="#yo" fill="freeze" begin="1.25s" from="#F84E72" to="#fff5e0" />
    <animate dur="1.8s" attributeName="fill" xlink:href="#yo" fill="freeze" begin="3.25s" from="#fff5e0" to="#F84E72" />

    <path id="oCenter"
        d="M1175.1 1127.61L1174.38 1126.93C1174.16 1126.72 1173.92 1126.54 1173.66 1126.41C1173.58 1126.37 1173.49 1126.32 1173.4 1126.3C1173.23 1126.21 1173.05 1126.15 1172.88 1126.08C1172.77 1126.06 1172.66 1126.04 1172.57 1126C1172.4 1125.95 1172.25 1125.93 1172.07 1125.91C1171.96 1125.91 1171.85 1125.91 1171.74 1125.89C1171.57 1125.89 1171.42 1125.89 1171.24 1125.89C1171.13 1125.89 1171.02 1125.89 1170.91 1125.89C1170.74 1125.89 1170.59 1125.93 1170.41 1125.95C1170.3 1125.95 1170.2 1125.97 1170.11 1126C1169.93 1126.04 1169.76 1126.08 1169.61 1126.13C1169.52 1126.15 1169.43 1126.17 1169.34 1126.19C1169.15 1126.26 1168.95 1126.32 1168.76 1126.39C1168.71 1126.39 1168.67 1126.41 1168.65 1126.43C1167.08 1125.62 1164.87 1125.28 1162.1 1125.49C1161.06 1125.58 1159.99 1125.65 1159.01 1125.93C1150.5 1128.48 1142.98 1132.45 1137.7 1140.04C1132.18 1148 1129.13 1156.68 1129.2 1165.53C1128.63 1174.21 1130.64 1181.56 1133.43 1188.72C1135.56 1194.21 1139.49 1198.4 1143.63 1202.37C1143.63 1202.91 1143.68 1203.48 1143.76 1204.03C1143.76 1204.16 1143.81 1204.29 1143.83 1204.4C1143.92 1204.94 1144.03 1205.49 1144.2 1205.99C1144.79 1207.86 1146.99 1211.99 1154.65 1211.99C1155.24 1211.99 1155.89 1211.96 1156.54 1211.9H1156.81C1157.87 1211.79 1159.07 1211.7 1160.32 1211.33C1171 1208.13 1178.31 1203.24 1183.37 1195.96C1189.43 1187.21 1192.5 1178.03 1192.44 1168.67C1193.07 1158.77 1190.54 1150.75 1187.99 1144.21C1185.26 1137.18 1180.1 1132.3 1175.08 1127.57L1175.1 1127.61ZM1166.36 1180.6C1161.67 1184.86 1157.24 1188.87 1151.38 1190.7C1150.83 1190.88 1150.33 1191.12 1149.83 1191.38C1149.61 1191.49 1149.39 1191.62 1149.17 1191.75C1148.98 1191.88 1148.78 1192.01 1148.58 1192.16C1148 1192.6 1147.45 1193.08 1146.95 1193.64C1144.09 1186.64 1141.98 1179.45 1141.65 1171.81C1141.3 1163.79 1143.61 1156.83 1149.78 1151.25C1154.69 1146.8 1159.47 1142.44 1166.07 1140.37C1166.62 1140.19 1167.1 1139.97 1167.58 1139.67C1168.52 1141.87 1169.34 1143.97 1170.06 1145.99C1170.06 1145.99 1170.06 1145.99 1170.06 1146.02C1170.41 1147.02 1170.74 1147.98 1171.02 1148.94C1171.02 1148.98 1171.05 1149.03 1171.07 1149.07C1171.35 1149.98 1171.61 1150.9 1171.83 1151.77C1171.85 1151.88 1171.87 1151.99 1171.92 1152.1C1172.14 1152.93 1172.33 1153.74 1172.49 1154.52C1172.53 1154.72 1172.55 1154.94 1172.59 1155.13C1172.72 1155.83 1172.86 1156.53 1172.96 1157.2C1173.03 1157.57 1173.05 1157.92 1173.1 1158.29C1173.16 1158.82 1173.25 1159.34 1173.29 1159.86C1173.38 1160.74 1173.44 1161.63 1173.49 1162.5C1173.82 1170 1171.5 1175.89 1166.34 1180.58L1166.36 1180.6Z"
        fill="#fff5e0" />

    <animate dur="1.8s" attributeName="fill" xlink:href="#oCenter" fill="freeze" begin="3.75s" from="#fff5e0"
        to="#F84E72" />


    <defs>
        <linearGradient id="paint0_linear_316_6" x1="943.252" y1="344.435" x2="943.252" y2="1675.83"
            gradientUnits="userSpaceOnUse">
            <stop offset="0.00166656" stop-color="#F84E72" />
            <stop offset="0.0466666" stop-color="#FF75A4" />
            <stop offset="0.331667" stop-color="#FFF2E0" />
        </linearGradient>
        <linearGradient id="paint1_linear_316_6" x1="943.252" y1="344.435" x2="943.252" y2="1675.83"
            gradientUnits="userSpaceOnUse">
            <stop offset="0.631667" stop-color="#FFF5E0" />
            <stop offset="0.9999" stop-color="#FF7674" />
            <stop offset="1" stop-color="#FF6969" />
        </linearGradient>
        <linearGradient id="paint2_linear_316_6" x1="943.252" y1="344.435" x2="943.252" y2="1675.83"
            gradientUnits="userSpaceOnUse">
            <stop offset="0.631667" stop-color="#FFF5E0" />
            <stop offset="0.9999" stop-color="#FF7674" />
            <stop offset="1" stop-color="#FF6969" />
        </linearGradient>
        <linearGradient id="paint3_linear_316_6" x1="943.252" y1="344.435" x2="943.252" y2="1675.83"
            gradientUnits="userSpaceOnUse">
            <stop offset="0.631667" stop-color="#FFF5E0" />
            <stop offset="0.9999" stop-color="#FF7674" />
            <stop offset="1" stop-color="#FF6969" />
        </linearGradient>
        <linearGradient id="paint4_linear_316_6" x1="943.252" y1="344.435" x2="943.252" y2="1675.83"
            gradientUnits="userSpaceOnUse">
            <stop offset="0.00166656" stop-color="#F84E72" />
            <stop offset="0.0466666" stop-color="#FF75A4" />
            <stop offset="0.331667" stop-color="#FFF2E0" />
        </linearGradient>
        <linearGradient id="paint5_linear_316_6" x1="943.252" y1="344.435" x2="943.252" y2="1675.83"
            gradientUnits="userSpaceOnUse">
            <stop offset="0.00166656" stop-color="#F84E72" />
            <stop offset="0.0466666" stop-color="#FF75A4" />
            <stop offset="0.331667" stop-color="#FFF2E0" />
        </linearGradient>
        <linearGradient id="paint6_linear_316_6" x1="943.252" y1="344.435" x2="943.252" y2="1675.83"
            gradientUnits="userSpaceOnUse">
            <stop offset="0.00166656" stop-color="#F84E72" />
            <stop offset="0.0466666" stop-color="#FF75A4" />
            <stop offset="0.331667" stop-color="#FFF2E0" />
        </linearGradient>
        <radialGradient id="paint7_angular_316_6" cx="0" cy="0" r="1" gradientUnits="userSpaceOnUse"
            gradientTransform="translate(943.252 1010.13) rotate(90) scale(665.696 808.541)">
            <stop offset="0.185" stop-color="#FF005C" />
            <stop offset="0.711667" stop-color="#FFF5E0" />
        </radialGradient>
    </defs>
</svg>