<svg clip-rule="evenodd" fill-rule="evenodd" stroke-linecap="round" stroke-linejoin="round" stroke-miterlimit="1.5" viewBox="0 0 250 250" xmlns="http://www.w3.org/2000/svg" xmlns:xlink="http://www.w3.org/1999/xlink"><linearGradient id="a" gradientTransform="matrix(0 -37.8363 38.9125 0 200.056 175.215)" gradientUnits="userSpaceOnUse" x1="0" x2="1" y1="0" y2="0"><stop offset="0" stop-color="#f0f0f0"/><stop offset="1" stop-color="#e3e3e8"/></linearGradient><linearGradient id="b" gradientTransform="matrix(5.4499 62.8791 -81.4734 0 174.55 140.851)" gradientUnits="userSpaceOnUse" x1="0" x2="1" y1="0" y2=".066892"><stop offset="0" stop-color="#e3e3e8" stop-opacity="0"/><stop offset="1" stop-color="#c2c4d1"/></linearGradient><linearGradient id="c" gradientUnits="userSpaceOnUse" x1="63.6966" x2="186.3036" y1="115.994" y2="115.994"><stop offset="0" stop-color="#f0f"/><stop offset=".56" stop-color="#ff677f"/><stop offset="1" stop-color="#ff9447"/></linearGradient><clipPath id="d"><path clip-rule="evenodd" d="m0 0h250v250h-250z"/></clipPath><path d="m0 0h250v250h-250z" fill="none"/><g clip-path="url(#d)"><path d="m0 0h250v250h-250z" fill="url(#a)"/><path d="m140.98 125h-1.313c-16.534.167-35.073 4.904-47.514 12.397-18.312 11.03-22.801 27.285-10.459 36.839.009.007.019.014.028.021 12.358 9.405 25.848 18.749 38.273 28.123 2.384 1.8 7.518 1.8 11.466 0l61.457-28.011.57-.263c27.291-12.751 31.486-34.752 11.28-44.122-11.479-5.323-29.56-6.346-46.334-2.897-5.233-1.324-11.178-2.023-17.454-2.087z" fill="url(#b)"/><path d="m106.642 66.296c6.425.115 12.785 1.595 18.5 4.44 13.349-6.664 30.518-5.576 43.042 2.93 20.413 13.866 24.909 46.423 6.617 65.292l-.368.372-49.291 49.292c-16.49-16.49-33.032-32.927-49.469-49.47-13.868-14.139-16.047-38.191-4.676-54.513 7.731-11.097 20.769-18.095 34.622-18.343.512-.003.511-.003 1.023 0z" fill="#fff" stroke="#fff" stroke-width="16.22"/><path d="m106.642 66.296c6.425.115 12.785 1.595 18.5 4.44 13.349-6.664 30.518-5.576 43.042 2.93 20.413 13.866 24.909 46.423 6.617 65.292l-.368.372-49.291 49.292c-16.49-16.49-33.032-32.927-49.469-49.47-13.868-14.139-16.047-38.191-4.676-54.513 7.731-11.097 20.769-18.095 34.622-18.343.512-.003.511-.003 1.023 0z" fill="url(#c)"/><path d="m120.5 161.003-32.863-32.863c-10.35-10.35-10.35-27.156 0-37.505 10.349-10.349 27.155-10.349 37.504 0l.121-.121c10.36-10.228 27.075-10.188 37.384.121 10.349 10.349 10.349 27.155 0 37.505l-13.979 13.979" style="fill:none;stroke:#ffb6ff;stroke-opacity:.68;stroke-width:3.98;stroke-linecap:square;stroke-linejoin:miter;stroke-miterlimit:2"/><g fill="#fff"><path d="m146.687 146.849-19.09-5.115-2.917-10.887 7.971-7.97 10.886 2.918 5.144 19.196c-3.129-3.171-6.211-6.39-9.395-9.502.702-1.516.428-3.374-.821-4.622-1.6-1.6-4.197-1.6-5.796-.001s-1.599 4.197 0 5.796c1.266 1.267 3.157 1.53 4.684.793 3.091 3.151 6.154 6.333 9.334 9.394z"/><path d="m132.288 118.892-2.898-2.898-11.593 11.592 2.898 2.898z"/><circle cx="87.637" cy="90.635" r="3.978"/><circle cx="125.142" cy="90.635" r="3.978"/><circle cx="162.646" cy="90.635" r="3.978"/><circle cx="87.637" cy="128.14" r="3.978"/><circle cx="162.646" cy="128.14" r="3.978"/><path d="m131.773 172.276h-13.265v-13.265h13.265zm-9.281-9.281v5.296h5.297v-5.296z"/></g></g></svg>