<svg clip-rule="evenodd" fill-rule="evenodd" stroke-linecap="round" stroke-linejoin="round" stroke-miterlimit="1.5" viewBox="0 0 250 250" xmlns="http://www.w3.org/2000/svg" xmlns:xlink="http://www.w3.org/1999/xlink"><linearGradient id="a" gradientTransform="matrix(0 -37.8363 38.9125 0 200.056 175.215)" gradientUnits="userSpaceOnUse" x1="0" x2="1" y1="0" y2="0"><stop offset="0" stop-color="#f0f0f0"/><stop offset="1" stop-color="#e3e3e8"/></linearGradient><linearGradient id="b" gradientTransform="matrix(24.7946 -62.1453 91.0518 0 146.594 200.627)" gradientUnits="userSpaceOnUse" x1="0" x2="1" y1="0" y2="-.272313"><stop offset="0" stop-color="#c2c4d1"/><stop offset="1" stop-color="#e3e3e8" stop-opacity="0"/></linearGradient><clipPath id="c"><path clip-rule="evenodd" d="m0 0h250v250h-250z"/></clipPath><path d="m0 0h250v250h-250z" fill="none"/><g clip-path="url(#c)"><path d="m0 0h250v250h-250z" fill="url(#a)"/><path d="m107.642 161.603c-2.693-.089-5.53.113-8.414.614-7.206 1.253-14.113 4.273-19.202 8.395-.054.044-.107.087-.16.131-2.486 2.013-3.879 4.4-3.875 6.636.005 2.236 1.408 4.137 3.9 5.285 9.615 4.429 37.653 17.346 47.268 21.775 2.492 1.148 5.87 1.45 9.39.838s6.893-2.088 9.379-4.101c.053-.043.107-.087.161-.13 5.088-4.123 7.941-9.01 7.932-13.587-.004-1.832-.466-3.554-1.347-5.111l.54-.18c8.143-2.803 23.875-8.218 32.019-11.021 6.176-2.126 10.996-6.03 12.643-10.243 4.314-11.032 17.46-44.647 20.555-52.562.93-2.379-.073-4.571-2.631-5.749-2.558-1.179-6.283-1.165-9.772.036-11.604 3.994-60.893 20.959-77.069 26.527-6.176 2.126-10.996 6.03-12.643 10.243l-8.54 21.837z" fill="url(#b)"/><path d="m130.551 164.527c4.022 2.359 6.965 6.198 8.198 10.7 1.252 4.574.636 9.458-1.713 13.578-.037.064-.073.128-.109.191-.587 1.029-1.559 1.784-2.703 2.097-1.143.313-2.364.159-3.394-.428-11.382-6.49-44.574-25.415-55.956-31.904-1.03-.587-1.785-1.56-2.098-2.703-.313-1.144-.159-2.365.429-3.395.036-.063.072-.126.108-.19 2.349-4.12 6.238-7.138 10.812-8.39s9.458-.636 13.578 1.713l32.656 18.619c.032.019.064.037.096.056zm-32.308-61.96c-.017-3.194 1.671-6.155 4.428-7.767 13.955-8.157 56.475-33.014 66.486-38.866.439-.257.981-.259 1.422-.008.442.252.715.72.718 1.228.063 11.596.329 60.848.417 77.011.017 3.195-1.671 6.155-4.429 7.767-7.025 4.107-20.596 12.041-27.622 16.147-2.757 1.612-6.165 1.631-8.94.049-7.069-4.031-20.726-11.817-27.795-15.848-2.775-1.582-4.494-4.524-4.512-7.718-.044-8.138-.129-23.858-.173-31.995z" fill="#fff" stroke="#fff" stroke-width="16.67"/><path d="m98.233 100.699c-.011-2.038 1.066-3.927 2.825-4.956 12.879-7.528 65.118-38.066 65.118-38.066l5.14 2.93s.297 54.897.395 73.004c.019 3.537-1.851 6.816-4.905 8.601-7.757 4.535-22.556 13.186-28.756 16.81-1.759 1.029-3.933 1.041-5.704.031-6.859-3.911-24.181-13.787-31.041-17.698-1.77-1.01-2.868-2.887-2.879-4.925-.042-7.896-.15-27.835-.193-35.731z" fill="#ffcc45"/><path d="m74.874 158.761c-1.03-.587-1.785-1.56-2.098-2.703-.313-1.144-.159-2.365.429-3.395.036-.063.072-.126.108-.19 2.349-4.12 6.238-7.138 10.812-8.39s9.458-.636 13.578 1.713c9.92 5.656 22.735 12.963 32.656 18.619 4.12 2.349 7.138 6.238 8.39 10.812s.636 9.458-1.713 13.578c-.037.064-.073.128-.109.191-.587 1.029-1.559 1.784-2.703 2.097-1.143.313-2.364.159-3.394-.428-11.382-6.49-44.574-25.415-55.956-31.904z" fill="#01b7ff"/><path d="m117.749 157.226 12.61 7.189c4.12 2.349 7.138 6.238 8.39 10.812s.636 9.458-1.713 13.578c-.037.064-.073.128-.109.191-.587 1.029-1.559 1.784-2.703 2.097-1.143.313-2.364.159-3.394-.428l-24.23-13.815z"/><path d="m171.714 134.165c.017 3.195-1.671 6.155-4.429 7.767-7.025 4.107-20.596 12.041-27.622 16.147-2.757 1.612-6.165 1.631-8.94.049l-14.069-8.022s40.672-71.037 51.829-90.523c1.773-3.098 2.834 1.154 2.834 1.154z" fill="#fc593d"/><path d="m126.607 113.593c2.634-4.621 8.524-6.233 13.145-3.599 4.62 2.635 6.233 8.525 3.598 13.145-2.634 4.621-8.524 6.233-13.145 3.599-4.62-2.634-6.233-8.525-3.598-13.145z"/><path d="m166.272 57.723c1.021-.333 2.148-.227 3.102.317s1.619 1.46 1.853 2.508l-35.184 61.709-4.955-2.826z"/><g fill="#fff"><path d="m121.831 89.316c2.2.143 3.985 2.371 3.548 4.542-.211 1.044-.886 1.966-1.806 2.527l-14.174 8.286c-1.63.912-3.832.493-4.952-.998-1.246-1.66-.807-4.331.996-5.48.041-.026.083-.051.124-.076l14.175-8.286c.51-.285 1.073-.469 1.653-.51.282-.019.347-.007.436-.005z"/><path d="m133.809 82.38c1.768.04 3.392 1.42 3.686 3.167.254 1.516-.51 3.134-1.853 3.919-1.314.742-2.589 1.701-3.97 1.811-1.988.159-3.944-1.511-4.088-3.512-.101-1.416.663-2.842 1.895-3.563 1.38-.778 2.73-1.786 4.21-1.822.06-.001.06-.001.12 0z"/></g></g></svg>