<svg width="2482" height="1920" viewBox="0 0 2482 1920" fill="none" xmlns="http://www.w3.org/2000/svg">
<path d="M0 1797.26L2481.04 1795.7" stroke="white" stroke-opacity="0.2"/>
<path d="M125.463 1919.59L122.327 -0.000210341" stroke="white" stroke-opacity="0.2"/>
<path d="M250.927 1919.59L247.79 -0.000210341" stroke="white" stroke-opacity="0.2"/>
<path d="M376.39 1919.59L373.254 -0.000210341" stroke="white" stroke-opacity="0.2"/>
<path d="M501.854 1919.59L498.717 -0.000210341" stroke="white" stroke-opacity="0.2"/>
<path d="M627.317 1919.59L624.181 -0.000210341" stroke="white" stroke-opacity="0.2"/>
<path d="M752.781 1919.59L749.644 -0.000210341" stroke="white" stroke-opacity="0.2"/>
<path d="M878.244 1919.59L875.108 -0.000210341" stroke="white" stroke-opacity="0.2"/>
<path d="M1003.71 1919.59L1000.57 -0.000190925" stroke="white" stroke-opacity="0.2"/>
<path d="M1129.17 1919.59L1126.03 -0.000210341" stroke="white" stroke-opacity="0.2"/>
<path d="M1756.49 1919.59L1753.35 -0.000210341" stroke="white" stroke-opacity="0.2"/>
<path d="M1881.95 1919.59L1878.82 -0.000210341" stroke="white" stroke-opacity="0.2"/>
<path d="M2007.42 1919.59L2004.28 -0.000210341" stroke="white" stroke-opacity="0.2"/>
<path d="M2132.88 1919.59L2129.74 -0.000210341" stroke="white" stroke-opacity="0.2"/>
<path d="M2258.34 1919.59L2255.21 -0.000210341" stroke="white" stroke-opacity="0.2"/>
<path d="M1254.63 1919.59L1251.5 -0.000210341" stroke="white" stroke-opacity="0.2"/>
<path d="M1380.1 1919.59L1376.96 -0.000210341" stroke="white" stroke-opacity="0.2"/>
<path d="M1505.56 1919.59L1502.42 -0.000210341" stroke="white" stroke-opacity="0.2"/>
<path d="M1631.02 1919.59L1627.89 -0.000210341" stroke="white" stroke-opacity="0.2"/>
<path d="M0 1674.94L2481.04 1673.37" stroke="white" stroke-opacity="0.2"/>
<path d="M0 1552.61L2481.04 1551.04" stroke="white" stroke-opacity="0.2"/>
<path d="M0 1430.28L2481.04 1428.71" stroke="white" stroke-opacity="0.2"/>
<path d="M3 819L2334 819" stroke="white" stroke-opacity="0.2"/>
<path d="M0 696.322L2481.04 694.753" stroke="white" stroke-opacity="0.2"/>
<path d="M0 573.995L2481.04 572.426" stroke="white" stroke-opacity="0.2"/>
<path d="M0 451.668L2481.04 450.1" stroke="white" stroke-opacity="0.2"/>
<path d="M0 329.341L2481.04 327.773" stroke="white" stroke-opacity="0.2"/>
<path d="M0 207.015L2481.04 205.446" stroke="white" stroke-opacity="0.2"/>
<path d="M0 84.688L2481.04 83.1197" stroke="white" stroke-opacity="0.2"/>
<path d="M0 1307.96L2481.04 1306.39" stroke="white" stroke-opacity="0.2"/>
<path d="M0 1186L2334 1186" stroke="white" stroke-opacity="0.2"/>
<path d="M0 940.976L2481.04 939.408" stroke="white" stroke-opacity="0.2"/>
<path d="M0 1065.57L2481.04 1064" stroke="white" stroke-opacity="0.2"/>
</svg>
