<svg width="938" height="2106" viewBox="0 0 938 2106" fill="none" xmlns="http://www.w3.org/2000/svg">
<path d="M-779 106.498L938 103.836" stroke="white" stroke-opacity="0.2"/>
<path d="M-779 212.996L938 210.334" stroke="white" stroke-opacity="0.2"/>
<path d="M-779 319.494L938 316.832" stroke="white" stroke-opacity="0.2"/>
<path d="M-779 425.992L938 423.33" stroke="white" stroke-opacity="0.2"/>
<path d="M-779 532.49L938 529.828" stroke="white" stroke-opacity="0.2"/>
<path d="M-779 638.989L938 636.326" stroke="white" stroke-opacity="0.2"/>
<path d="M-779 745.487L938 742.824" stroke="white" stroke-opacity="0.2"/>
<path d="M-779 851.985L938 849.322" stroke="white" stroke-opacity="0.2"/>
<path d="M-779 958.483L938 955.82" stroke="white" stroke-opacity="0.2"/>
<path d="M-779 1490.97L938 1488.31" stroke="white" stroke-opacity="0.2"/>
<path d="M-779 1597.47L938 1594.81" stroke="white" stroke-opacity="0.2"/>
<path d="M-779 1703.97L938 1701.31" stroke="white" stroke-opacity="0.2"/>
<path d="M-779 1810.47L938 1807.81" stroke="white" stroke-opacity="0.2"/>
<path d="M-779 1916.97L938 1914.3" stroke="white" stroke-opacity="0.2"/>
<path d="M-779 1064.98L938 1062.32" stroke="white" stroke-opacity="0.2"/>
<path d="M-779 1171.48L938 1168.82" stroke="white" stroke-opacity="0.2"/>
<path d="M-779 1277.98L938 1275.31" stroke="white" stroke-opacity="0.2"/>
<path d="M-779 1384.48L938 1381.81" stroke="white" stroke-opacity="0.2"/>
<path d="M205.436 2.54663V1981.19" stroke="white" stroke-opacity="0.2"/>
<path d="M315.166 0L316.569 2106" stroke="white" stroke-opacity="0.2"/>
<path d="M424.584 0L425.987 2106" stroke="white" stroke-opacity="0.2"/>
<path d="M534 0L535.403 2106" stroke="white" stroke-opacity="0.2"/>
<path d="M643.416 0L644.819 2106" stroke="white" stroke-opacity="0.2"/>
<path d="M752.834 0L754.237 2106" stroke="white" stroke-opacity="0.2"/>
<path d="M862.25 0L863.653 2106" stroke="white" stroke-opacity="0.2"/>
<path d="M96.334 0L97.7368 2106" stroke="white" stroke-opacity="0.2"/>
</svg>
