<svg width="1728" height="1287" viewBox="0 0 1728 1287" fill="none" xmlns="http://www.w3.org/2000/svg">
<path d="M2024.18 851.39C2010.49 855.89 1996.97 860.307 1983.39 864.698C1978.99 865.153 1974.64 865.57 1970.3 866.02C1992.91 857.199 2012.01 850.523 2024.18 851.39ZM2007.03 839.646C2014.45 839.52 2032.21 833.61 2052.02 826.579L2050.53 821.54C2035.93 826.58 2020.46 831.66 2003.68 836.646C2003.37 837.321 2003.36 837.816 2003.47 838.251C1960.08 846.996 1917.54 857.732 1874.54 860.65C1897.46 863.109 1824.21 880.866 1803.94 879.385C1860.73 870.851 1828.81 868.221 1856.97 861.645C1786.91 881.973 1734.22 877.702 1680.98 882.586C1729.1 874.521 1758.79 870.014 1785.82 866.258C1812.79 862.295 1837.19 859.225 1874.81 854.472C1892.07 849.24 1909.82 844.286 1928.01 839.287C1931.94 840.231 1928.36 843.273 1945.53 840.506C1935.82 827.892 1796.49 856.614 1733.85 857.575C1759.01 852.267 1763.72 848.515 1786.94 843.488C1882 843.275 1946.33 819.979 2044.68 802.245L2043.21 797.385C2017.99 802.074 1992.55 806.735 1982.44 805.854C2037.75 798.181 2049.64 788.262 2000.42 800.958C1996.73 798.224 2024.23 794.157 2041.13 790.543L2040.42 788.227C2037.91 788.618 2035.49 788.967 2033.26 789.331C2035.52 788.635 2037.84 787.95 2040.14 787.266L2039.66 785.684C2039.66 785.684 2039.66 785.684 2039.72 785.678L2040.2 787.26C2040.73 787.057 2041.31 786.914 2041.88 786.723L2041.48 785.495C2043.79 785.305 2046.01 785.109 2048.14 784.937L2063.23 834.734C2061.07 835.271 2058.94 835.771 2056.82 836.304L2056.75 835.998C2056.15 836.093 2055.56 836.154 2054.98 836.264L2055.15 836.708L2055.09 836.714L2054.98 836.264C2025.03 840.272 1995.7 843.803 2007.03 839.646ZM1965.29 796.269C1993.07 791.266 2012.69 788.525 2028.45 786.795C2023.48 788.661 2018.18 790.792 2012.59 793.235C1999.05 796.219 1989.97 799.006 1964.9 802.459L1965.29 796.269ZM1465.33 969.017C1423.06 979.099 1448.34 980.356 1407.47 990.836C1420.4 981.319 1431.35 972.816 1441.05 964.986C1455.05 961.953 1471.32 958.323 1489.23 954.243C1480.59 959.804 1473.13 964.286 1465.33 969.017ZM1369.05 997.303C1368.99 997.309 1369 997.342 1368.94 997.348C1368.94 997.348 1368.99 997.309 1369.05 997.303ZM1083.18 1150.82C1067.98 1157.36 1045.71 1169.47 1016.21 1184.56C1046.35 1166.29 1014.61 1178.04 1001.41 1188.8C1001.52 1188.39 1000.29 1188.52 997.023 1189.44C993.251 1191.19 989.838 1192.8 986.325 1194.38C1002.8 1184.91 1027.93 1171.18 1048.79 1161.08C1071.71 1149.42 1089.52 1142.33 1083.18 1150.82ZM972.714 1219.12C970.335 1220.59 963.272 1224.17 951.347 1229.88C938.991 1235.23 921.769 1242.67 899.339 1252.31L778.632 1059.97C779.102 1059.74 779.778 1059.39 780.441 1059.1C772.94 1058.84 791.993 1049.04 812.443 1038.79C826.762 1038.84 785.657 1058.69 800.145 1058.65C793.816 1060.92 787.929 1063.26 782.525 1065.48L896.127 1246.49C932.82 1233.29 954.716 1219.63 987.422 1201.92C985.637 1203.01 984.418 1203.85 984.506 1204.12C992.747 1200.46 999.552 1197.63 1005.75 1195.09C990.328 1205.36 963.587 1219.39 932.206 1233.67C964.076 1222.01 977.322 1215.89 972.714 1219.12ZM839.83 1012.67C871.259 1000.01 899.679 989.018 927.06 978.682C913.461 985.019 901.923 990.83 895.969 995.189C912.258 991.162 917.597 992.505 929.167 992.164C917.221 998.232 905.41 1004.07 893.862 1009.78C868.952 1020.69 849.965 1028.26 847.317 1026.36C872.567 1014.17 910.48 998.617 914.894 993.51C902.812 996.74 872.902 1010.14 846.036 1022.39C819.442 1035.16 795.543 1046.28 794.188 1043.12C888.062 999.982 783.212 1042.91 839.83 1012.67ZM672.673 1068.5C681.107 1063.65 689.34 1058.76 687.883 1056.34C715.663 1046.04 743.391 1035.82 771.023 1025.62C762.617 1033.99 709.312 1053.26 672.673 1068.5ZM343.768 1173.4C344.348 1172.69 345.251 1172.06 345.954 1171.41C350.518 1168.89 355.463 1166.43 360.738 1163.91C354.924 1166.95 349.177 1170.07 343.768 1173.4ZM132.168 1248.15C139.015 1245.72 145.924 1243.33 152.673 1240.91C146.606 1243.62 140.032 1246.57 132.98 1249.69L14.6045 1073.57C23.0135 1067.9 31.9916 1061.81 41.162 1055.66L43.7259 1059.42C34.5435 1064.49 25.1578 1069.7 15.7737 1074.93L132.168 1248.15ZM-75.8089 874.772L-75.7502 874.766L-72.2599 884.989C-72.2599 884.989 -72.2599 884.989 -72.2956 885.026L-75.8089 874.772ZM-84.1825 851.946C-84.1289 851.891 -84.0345 851.848 -83.9809 851.793L-79.3949 865.152C-79.4536 865.158 -79.571 865.17 -79.605 865.223L-84.1825 851.946ZM-88.1447 841.557L-88.0675 841.731L-84.8994 850.751C-84.9581 850.757 -84.9581 850.757 -84.9581 850.757L-88.1447 841.557ZM-114.68 775.271C-114.621 775.265 -114.621 775.265 -114.621 775.265L-108.818 791.976C-108.813 792.025 -108.872 792.031 -108.872 792.031L-114.68 775.271ZM-138.25 706.684C-137.236 706.167 -136.413 705.719 -135.648 705.277L-134.407 708.858C-135.352 709.088 -136.261 709.281 -137.206 709.51L-115.03 773.989C-115.025 774.038 -115.084 774.044 -115.084 774.044L-138.25 706.684ZM-135.122 705.008L-133.825 708.748L-133.864 708.752L-135.119 705.04C-135.122 705.008 -135.122 705.008 -135.122 705.008ZM-134.623 704.676L-133.286 708.61C-133.345 708.616 -133.438 708.675 -133.496 708.681L-134.886 704.802C-134.769 704.79 -134.715 704.735 -134.623 704.676ZM-134.426 704.474L-132.978 708.529C-133.017 708.533 -133.017 708.533 -133.017 708.533L-134.421 704.523L-134.426 704.474ZM176.641 566.121C177.704 565.879 178.652 565.682 179.656 565.447C172.334 570.541 162.118 576.71 159.362 579.303C151.67 582.54 142.109 586.052 131.444 589.794C146.485 581.725 161.558 573.783 176.641 566.121ZM226.474 543.106C226.943 543.057 226.37 543.249 225.312 543.539C225.693 543.401 226.057 543.281 226.474 543.106ZM122.8 549.273C108.346 553.655 93.9922 558.043 80.2377 562.303C106.115 551.577 126.199 545.442 136.596 537.391C150.441 531.902 163.118 526.6 172.268 522.355C217.928 508.312 175.05 533.377 244.399 512.677C232.703 518.488 219.173 524.918 205.949 531.25C162.742 545.5 122.553 557.394 122.8 549.273ZM-11.5691 590.851C-0.313277 583.272 11.0759 576.025 21.7343 570.124C22.4065 569.741 23.025 569.413 23.6775 569.032C25.7685 568.222 27.7471 567.473 29.7258 566.724C31.267 566.334 32.7989 566.044 34.3452 565.702C32.027 566.799 29.6305 567.905 27.4118 569.008C12.3775 576.566 2.50946 581.891 23.0914 573.874C29.7241 571.292 36.611 567.726 43.6603 564.012C47.3355 563.417 51.1398 562.924 55.2672 562.497C57.0065 560.009 67.6788 556.15 81.3594 551.75C77.8933 553.79 73.984 555.943 69.8858 558.181C64.7123 561.107 59.3923 564.147 54.5954 567.084C54.1803 567.276 53.7294 567.504 53.3126 567.679C53.4104 567.669 53.6791 567.591 53.8306 567.526C50.1092 569.775 47.0231 571.858 44.3327 573.753C21.1139 581.317 1.56031 587.81 -10.275 593.421C-9.10383 592.129 -9.68577 591.282 -11.5691 590.851ZM-54.8559 615.216L-56.77 612.579C-56.6041 612.463 -56.456 612.365 -56.3046 612.3L-54.4084 614.956C-54.5564 615.053 -54.7079 615.119 -54.8559 615.216ZM-55.523 615.648L-57.4812 612.966C-57.2762 612.845 -57.0695 612.742 -56.8058 612.615L-54.9095 615.271C-55.1146 615.392 -55.3749 615.55 -55.523 615.648ZM-63.5269 605.941C-63.4129 605.897 -63.3253 605.789 -63.1576 605.689L-59.8027 610.403C-59.9542 610.468 -60.0631 610.562 -60.2145 610.627L-63.5269 605.941ZM-65.4214 603.302C-65.3041 603.29 -65.0889 603.267 -64.9324 603.251L-64.37 604.1C-64.5265 604.116 -64.621 604.159 -64.7919 604.226L-65.4214 603.302ZM-69.6094 600.471L-70.0699 599.842C-69.7458 599.726 -69.3843 599.59 -69.0602 599.474L-68.7501 599.986C-69.0496 600.149 -69.31 600.308 -69.6094 600.471ZM-71.3893 597.984C-71.0932 597.789 -70.8345 597.613 -70.535 597.45L-69.1927 599.339C-69.5007 599.421 -69.8868 599.51 -70.2534 599.598L-71.3893 597.984ZM-101.793 589.244L-175.36 486.511C-171.276 484.142 -166.332 481.091 -160.577 477.478L-157.039 482.437C-161.801 485.519 -166.585 488.586 -170.847 491.336L-104.746 583.631C-99.1819 581.423 -93.9691 579.449 -88.9059 577.556L-84.5366 583.666C-88.8636 584.839 -94.4752 586.591 -101.793 589.244ZM-168.169 464.876C-167.924 464.769 -167.718 464.648 -167.458 464.49L-166.508 465.842C-166.395 465.781 -166.308 465.673 -166.194 465.628L-167.139 464.325C-166.783 464.139 -166.542 463.983 -166.223 463.818L-165.341 465.078C-165.081 464.919 -164.972 464.826 -164.733 464.653L-165.546 463.484C-165.453 463.425 -165.301 463.359 -165.193 463.266L-164.38 464.435C-164.212 464.335 -164.119 464.276 -164.01 464.182L-164.836 463.08C-164.571 462.971 -164.424 462.856 -164.159 462.747L-163.399 463.789L-163.363 463.752L-164.125 462.694C-163.918 462.59 -163.806 462.529 -163.601 462.408L-162.902 463.424C-157.682 459.999 -155.925 458.63 -156.571 458.696C-144.663 454.166 -146.969 456.532 -149.378 459.04C-153.732 461.486 -157.678 463.658 -161.375 465.574L-157.704 470.668C-157.914 470.739 -158.067 470.788 -158.282 470.811L-161.845 465.804C-161.904 465.811 -161.899 465.86 -161.938 465.864L-158.395 470.872C-158.546 470.937 -158.874 471.02 -159.085 471.075L-162.557 466.191C-162.728 466.259 -162.82 466.318 -162.974 466.366L-159.486 471.215C-159.657 471.283 -159.81 471.331 -159.967 471.348L-163.327 466.584C-163.532 466.705 -163.797 466.814 -164.002 466.935L-162.989 468.314C-163.322 468.348 -163.694 468.387 -164.178 468.486L-164.918 467.442C-165.032 467.486 -165.125 467.545 -165.237 467.607L-164.583 468.578C-164.852 468.655 -165.067 468.677 -165.396 468.744L-165.954 467.945C-170.958 470.408 -175.319 472.393 -178.91 473.804C-174.068 470.73 -170.305 468.313 -167.155 466.272L-168.169 464.876ZM-118.079 425.067C-118.531 425.476 -118.822 425.721 -119.22 426.075C-124.588 429.796 -133.165 433.273 -144.44 437.606C-133.027 430.406 -122.555 424.805 -118.079 425.067ZM2.32806 367.029C0.721086 367.739 -0.882513 368.482 -2.73873 369.268C-2.13036 368.842 -1.58066 368.423 -0.938248 367.944C0.177735 367.647 1.23165 367.324 2.32806 367.029ZM104.919 336.276C106.425 336.12 107.937 336.013 109.423 335.859C108.144 336.486 106.895 337.028 105.649 337.602C49.8783 357.489 14.4918 373.947 -25.9838 394.147C-34.4372 397.858 -43.2421 401.804 -52.4536 406.022C-50.8804 404.985 -49.5692 404.091 -48.0888 403.113C-33.6141 396.833 -12.2301 388.733 -12.6851 386.439C-15.7874 386.266 -22.4664 388.21 -30.7722 391.247C-22.8523 385.629 -17.7399 381.538 -12.9115 377.378C20.0029 366.452 55.8484 356.146 104.919 336.276ZM215.107 292.008L226.618 287.469C228.517 286.91 230.451 286.298 232.355 285.787C236.876 284.956 243.296 283.566 252.82 281.409C257.983 279.342 262.308 277.575 266.14 276.007C266.62 275.875 267.099 275.727 267.56 275.597C267.525 275.633 267.471 275.688 267.417 275.743C267.569 275.678 267.736 275.578 267.888 275.513C285.32 270.493 301.946 265.705 317.899 261.102C316.377 262.628 312.313 264.813 302.149 268.619C299.517 268.974 295.5 269.901 288.759 271.819C288.613 272.51 288.943 273.02 289.606 273.314C257.144 285.941 205.371 308.926 202.555 305.789C227.04 295.752 263.449 282.485 267.787 277.782C197.004 302.967 201.726 301.983 150.945 317.364L198.868 298.438C207.147 295.717 215.54 292.952 224.097 289.857C221.665 290.422 218.538 291.158 215.107 292.008ZM398.46 226.101C390.586 229.488 386.482 231.859 383.248 234.04C372.307 237.399 361.442 240.733 350.621 244.112C350.676 243.694 350.429 243.407 349.718 243.217C339.59 246.606 332.87 249.116 328.193 251.1C320.055 253.658 312.073 256.199 304.209 258.728C322.819 250.569 342.278 242.585 362.591 234.646C374.817 231.665 386.753 228.748 398.46 226.101ZM419.494 221.302C406.586 227.057 397.282 230.378 407.846 223.942C411.707 223.048 415.686 222.141 419.494 221.302ZM873.861 62.1275C879.296 59.6193 885.199 57.0626 891.219 54.8566C897.685 52.3899 904.336 50.168 910.964 48.1133C896.844 54.1917 880.546 60.8089 863.622 67.4909C866.549 65.7864 869.617 64.1003 873.861 62.1275ZM948.891 38.6302C930.661 46.2553 916.113 52.9716 916.326 55.027C887.481 61.7231 903.62 53.754 918.9 45.7088C929.635 42.6518 939.967 40.2796 948.891 38.6302ZM1054.48 -4.63363C1060.11 -6.75019 1065.03 -8.84278 1069.55 -10.8439C1070.25 -11.0147 1070.93 -11.1182 1071.63 -11.24L1071.01 -11.4892C1071.05 -11.4933 1071.05 -11.4933 1071.1 -11.5483L1071.78 -11.2562C1081.25 -13.0113 1091.64 -15.3896 1076.82 -9.15671L1094.45 -1.84709C1094.3 -1.74933 1094.15 -1.63525 1093.98 -1.53546L1076.62 -9.03655C1073.81 -7.88856 1070.44 -6.50036 1065.74 -4.66248C1063.62 -4.72309 1055.56 -3.52574 1046.48 -1.62975C1049.21 -2.63711 1051.91 -3.64246 1054.48 -4.63363ZM1045.08 -7.32137C1049 -9.21077 1053.71 -11.5115 1058.41 -13.8122C1065.14 -16.1747 1072.53 -18.7855 1080.15 -21.5205C1079.92 -21.3147 1079.81 -21.221 1079.6 -21.0682C1077.5 -19.3998 1074.67 -17.3914 1071 -15.1491C1073.44 -15.7305 1076.04 -16.1651 1078.72 -16.5914C1078.67 -16.5363 1078.55 -16.5242 1078.52 -16.4712C1075.67 -16.094 1073.03 -15.4576 1070.44 -14.8273C1069.98 -14.5483 1069.51 -14.3183 1069.1 -14.0453C1068.27 -13.8277 1067.43 -13.6081 1066.63 -13.4435L1067.36 -13.1066C1067.37 -13.0577 1067.37 -13.0577 1067.33 -13.0536L1066.58 -13.3885C1065.73 -13.2015 1064.89 -12.933 1064.04 -12.7623C1061.8 -11.3937 1061.44 -10.6803 1062.07 -10.3333C1055.52 -7.13263 1047.2 -3.69876 1036.28 -0.128059C1031.25 -0.0520417 1036.38 -3.02327 1045.08 -7.32137ZM1164.52 -47.04C1144.93 -42.9677 1119.66 -30.6722 1093.3 -21.3482C1093.13 -21.4299 1093.01 -21.4504 1092.84 -21.532C1091.82 -22.0527 1090.68 -22.5285 1089.75 -23.1082C1089.01 -23.4431 1088.43 -23.8778 1087.74 -24.2514C1117.64 -34.8983 1149.51 -45.9311 1164.52 -47.04ZM1173.64 -19.6753L1161.89 -24.2956C1163.51 -24.8755 1165.13 -25.4881 1166.69 -26.062L1178.34 -21.4806C1176.88 -20.8679 1175.22 -20.2512 1173.64 -19.6753ZM1177.85 -14.7851L1175.7 -15.6021C1176.92 -15.9418 1178.28 -16.314 1179.4 -16.6109L1181.02 -15.9716C1180.04 -15.5889 1178.89 -15.1575 1177.85 -14.7851ZM1172 -5.72203L1168.39 -7.14568C1172.07 -8.66415 1175.83 -10.2234 1179.47 -11.6889L1184.04 -9.90363C1180.17 -8.54637 1176.15 -7.14028 1172 -5.72203ZM1163.8 -2.87733L1160.91 -4.02931C1162.1 -4.51577 1163.35 -5.05726 1164.54 -5.57635L1167.82 -4.28343C1166.45 -3.79504 1165.15 -3.33106 1163.8 -2.87733ZM1182.25 7.28124C1179.03 8.10884 1175.76 9.0404 1172.32 9.97386L1165.83 7.44719C1169.31 6.44441 1172.63 5.52309 1175.69 4.7117L1182.25 7.28124ZM1160.89 25.8145C1160.33 26.0547 1159.7 26.301 1159.07 26.5472L1145.68 20.7942C1146.38 20.6234 1146.96 20.4811 1147.65 20.2614L1160.89 25.8145ZM1184.2 25.1661C1188.65 23.6991 1193.22 22.2363 1198.17 20.6861C1194.73 26.2846 1190.89 31.6117 1186.51 36.4511L1188.55 37.2783C1187.66 37.6018 1186.72 37.8805 1185.88 38.1491L1185.25 37.851C1185 38.1077 1184.75 38.3155 1184.49 38.5559C1176.62 40.9543 1170.02 42.7256 1163.85 44.222C1168.25 40.7323 1172.22 37.2547 1175.82 33.7992L1172.98 32.5595C1168.97 37.179 1164.79 41.2723 1160.61 45.0516C1151.41 47.2737 1143.13 49.0377 1133.48 51.439C1135.12 50.1801 1136.8 49.017 1138.38 47.6663C1145.83 43.5651 1153.14 38.7848 1159.98 33.2294C1162.61 32.2811 1165.27 31.3797 1168.06 30.4479L1164.7 28.9979C1165.1 28.6271 1165.49 28.2236 1165.89 27.8691L1170.25 29.7256C1172.61 28.9381 1174.92 28.1548 1177.38 27.3552C1176.28 28.7389 1175.27 30.0635 1174.16 31.3492L1177.16 32.589C1179.78 30.0584 1182.07 27.595 1184.2 25.1661ZM1161.93 58.122C1137.61 75.1485 1112.4 86.761 1088.02 96.8367C1080.45 98.0649 1072.61 99.289 1064.5 100.574C1072.66 96.6628 1076.3 94.0596 1057.23 98.4912C1038.5 104.585 1012.95 113.281 1039.97 106.148C1050.66 103.013 1060.84 99.7823 1057.83 102.633C1012.71 115.614 1008.76 117.738 1011.18 119.12C1013.73 120.257 1023.11 119.731 1006.35 124.813C987.936 129.308 961.179 134.205 936.94 140.507C931.937 141.833 927.139 143.237 922.467 144.709C909.155 145.412 890.071 148.608 872.392 151.625C883.498 146.799 894.387 141.978 905.098 137.159C927.022 133.702 948.703 130.386 952.818 127.734C948.018 127.967 942.371 128.42 936.189 129.06C947.717 126.778 964.318 122.702 983.603 117.82C983.606 117.853 983.514 117.912 983.519 117.961C983.763 117.836 984.146 117.714 984.395 117.639C988.056 116.716 991.697 115.795 995.433 114.831C1035.2 104.613 1082.44 89.5497 1108.79 74.7859C1086.16 84.5977 1059.64 93.575 1055.36 92.4853C1107.77 73.9512 1161.3 54.7084 1134.49 61.8199C1084.84 81.255 1067.72 84.4625 1044.62 90.6957C1050.75 88.8405 1056.81 87.0423 1062.63 85.1706C1079.85 79.5959 1096.47 73.6701 1112.59 64.9446C1126.88 60.0692 1140.27 55.9783 1152.37 52.2861C1149.47 54.6635 1146.62 56.9533 1144.06 58.9822C1147.61 56.5706 1150.93 54.0997 1154.26 51.6778C1163.5 48.8746 1172.05 46.1259 1179.63 43.3134C1173.97 48.7799 1168.03 53.8792 1161.93 58.122ZM1225.44 80.8943C1223.25 82.9174 1221.07 84.9079 1218.97 86.6579C1218.83 86.8209 1218.68 86.9187 1218.52 87.0348C1192.86 88.9987 1174.97 92.0875 1185.73 95.3919C1186.57 93.5901 1199.55 91.7519 1214.11 90.4755C1211.26 92.7489 1208.42 95.0876 1205.68 97.0859C1148.31 107.412 1144.16 116.48 1077.14 127.344C1082.69 122.383 1113.32 116.64 1131.43 111.319C1120.51 112.779 1110.24 114.057 1113.65 111.808C1112.61 110.745 1111.14 109.759 1095.85 112.381C1084.05 121.385 1043.01 131.371 1041.15 134.73C1013.33 138.385 1029.05 132.059 1041.54 128.54C1022.65 131.583 1007.58 134.232 995.47 136.574C1005.87 133.914 1018.77 130.221 1032.51 126.128C1047.98 121.69 1064.42 115.998 1078.49 110.666C1093.28 108.905 1110.76 106.419 1131.98 103.084C1150.59 94.9576 1119.22 99.7557 1103.46 100.481C1108.81 98.1133 1112.51 96.1972 1113.97 95.0891C1167.49 86.2998 1196.88 83.158 1225.44 80.8943ZM1227.51 86.4171C1226.02 86.5221 1224.5 86.5965 1222.99 86.7035C1225.02 84.8617 1227.2 82.8223 1229.46 80.6096C1231.13 80.4864 1232.85 80.3408 1234.52 80.2176C1232.05 82.5015 1229.66 84.6121 1227.51 86.4171ZM1266.37 77.9093C1263.06 78.7959 1257.04 81.5953 1250.01 85.3073C1243.53 85.5169 1237 85.8304 1230.75 86.2135C1232.96 84.0395 1234.97 81.9347 1236.68 80.0437C1246.1 79.3815 1255.71 78.6991 1266.37 77.9093ZM1268.07 80.6345C1269.36 78.9675 1269.53 78.044 1268.96 77.6909C1270.69 77.6105 1272.45 77.4609 1274.28 77.3215C1272.23 78.3905 1270.32 79.4453 1268.07 80.6345ZM1286.52 96.135C1288.11 95.2451 1289.7 94.3552 1291.35 93.4593C1290.72 94.2988 1289.09 95.1765 1286.52 96.135ZM1364.99 131.769L1365.32 132.542C1365.11 132.613 1364.86 132.64 1364.64 132.662L1364.35 131.885C1364.56 131.863 1364.77 131.791 1364.99 131.769ZM1368.94 131.178L1369.15 131.701C1368.08 131.894 1367.24 132.129 1366.14 132.375L1365.84 131.631C1366.85 131.477 1367.97 131.361 1368.94 131.178ZM1372.19 130.661L1372.32 130.961C1371.43 131.184 1370.52 131.377 1369.63 131.552L1369.41 131.13C1370.38 130.98 1371.23 130.809 1372.19 130.661ZM1373.94 130.381L1374.02 130.554C1373.92 130.613 1373.81 130.625 1373.71 130.635L1373.57 130.419C1373.72 130.403 1373.84 130.391 1373.94 130.381ZM1377.09 129.873C1376.41 130.042 1375.56 130.213 1374.87 130.383L1374.8 130.259C1375.55 130.131 1376.41 129.993 1377.09 129.873ZM1430.37 135.585L1437.3 151.766C1435.49 152.004 1433.62 152.28 1431.54 152.594L1425.05 137.487C1427.1 136.814 1428.81 136.191 1430.37 135.585ZM1454.34 155.526C1432.22 167.032 1508.07 156.64 1560.74 150.066C1546.93 156.92 1446.83 174.605 1454.53 167.888C1452.16 168.447 1449.05 169.313 1445.7 170.386L1440.55 158.438L1454.34 155.526ZM1613.73 125.092C1665.58 114.925 1701.72 120.961 1733.24 114.35L1799.78 100.355L1797.42 157.745L1797.23 162.612C1795.14 181.179 1791.11 187.284 1790.52 184.823C1790.07 183.599 1790.01 180.357 1790.27 175.615C1790.11 170.934 1790.13 164.831 1790.27 157.809L1791.27 106.215L1734.61 120.177C1720.69 123.596 1702.28 127.366 1684.48 129.786C1723.49 114.898 1622.55 132.768 1560.64 148.031C1585.51 136.867 1663.63 120.107 1613.73 125.092ZM1849.22 360.124C1849.12 360.183 1849.01 360.244 1848.98 360.281L1848.26 359.135C1848.3 359.131 1848.42 359.086 1848.51 359.027L1849.22 360.124ZM1853.41 365.526C1853.32 365.618 1853.16 365.734 1853.01 365.799L1851.59 363.539C1851.68 363.48 1851.85 363.38 1852 363.315L1853.41 365.526ZM1873.1 389.752C1872.13 390.298 1871.22 390.854 1870.3 391.345L1868.68 388.858C1869.67 388.475 1870.57 388.201 1871.82 387.708L1873.1 389.752ZM1974.75 554.589L1973.71 552.982C1974.76 552.609 1975.81 552.22 1976.8 551.854L1978.09 553.847C1977.12 554.03 1975.91 554.304 1974.75 554.589ZM1991.03 581.443L1989.67 579.325C1989.82 579.26 1989.93 579.199 1990.08 579.101L1991.49 581.296C1991.34 581.361 1991.19 581.427 1991.03 581.443ZM1993.52 586.197L1992.82 585.149C1992.93 585.088 1993.03 585.078 1993.14 585.016L1993.85 586.114C1993.68 586.181 1993.64 586.185 1993.52 586.197ZM1859.12 674.669C1813.68 700.164 1830.41 690.024 1786.78 718.365C1783.18 713 1834.67 682.938 1870.83 660.382C1863.82 666.5 1857.21 672.426 1859.12 674.669ZM1730.14 753.577C1722.19 757.961 1714.06 763.238 1705.72 769.031C1701.86 769.53 1698.11 770.001 1694.27 770.53C1711.81 756.745 1730.32 742.71 1753.26 726.683C1745.33 731.61 1736.27 735.219 1752.26 724.841C1786.09 706.549 1742.93 742.657 1730.14 753.577ZM1655.15 807.456C1651.81 808.166 1648.42 808.879 1645.19 809.576C1653.66 802.913 1661.67 796.477 1669.46 790.197C1672.52 789.781 1675.62 789.377 1678.72 788.957C1671 794.918 1663.12 801.109 1655.15 807.456ZM967.538 1203.12C965.589 1203.59 963.999 1203.88 963.002 1203.81C970.332 1197.08 979.062 1195.47 980.513 1197.06C975.971 1199.22 971.727 1201.19 967.538 1203.12ZM897.666 1227.75L900.394 1232.13C900.335 1232.14 900.242 1232.2 900.125 1232.21L897.539 1228.04C897.623 1227.9 897.671 1227.8 897.666 1227.75ZM895.113 1224.67L896.678 1227.18C896.678 1227.18 896.678 1227.18 896.619 1227.18L895.079 1224.72L895.113 1224.67ZM891.659 1219.57L891.808 1219.87C891.755 1219.92 891.66 1219.96 891.548 1220.03L891.359 1219.73C891.452 1219.67 891.565 1219.61 891.659 1219.57ZM806.083 1083.16L806.234 1083.47C806.12 1083.52 806.086 1083.57 805.974 1083.63L805.785 1083.34C805.878 1083.28 805.99 1083.22 806.083 1083.16ZM801.698 1075.75L803.19 1078.13C803.195 1078.18 803.137 1078.19 803.137 1078.19L801.58 1075.76C801.639 1075.75 801.639 1075.75 801.698 1075.75ZM798.905 1070.35L801.315 1074.15C801.267 1074.26 801.154 1074.32 801.119 1074.36L798.639 1070.46C798.751 1070.4 798.849 1070.39 798.905 1070.35ZM1016.17 945.45C1010.09 948.965 1003.94 952.404 997.789 955.844C994.157 955.907 988.26 957.193 982.29 958.537C990.255 955.453 997.132 952.746 1003.28 950.263C1007.51 948.688 1011.83 947.07 1016.17 945.45ZM162.775 930.595C162.878 931.211 160.533 932.624 157.25 934.332C159.271 933.035 161.218 931.795 162.775 930.595ZM-83.7401 851.637L-79.087 865.07C-79.1457 865.076 -79.1457 865.076 -79.1457 865.076L-83.7792 851.641C-83.7401 851.637 -83.7401 851.637 -83.7401 851.637ZM-85.7218 846.055L-85.5774 846.303L-84.116 850.488C-84.116 850.488 -84.116 850.488 -84.1696 850.543L-85.7218 846.055ZM-86.4522 844.729L-84.3797 850.615C-84.4384 850.621 -84.5362 850.631 -84.6485 850.692L-87.1188 843.446L-86.4522 844.729ZM232.63 531.34C235.739 528.528 240.813 525.018 246.348 521.379C253.367 520.24 258.89 519.536 263.57 518.145C259.726 521.89 261.459 523.92 231.23 536.15C236.276 533.138 236.079 531.807 232.63 531.34ZM223.515 510.899C245.425 506.735 276.032 498.735 304.634 490.069C297.104 487.996 273.259 490.283 245.302 495.618C245.562 495.459 245.803 495.303 246.063 495.144C244.853 495.483 243.854 495.768 242.646 496.124C224.743 499.659 205.278 504.329 187.309 509.899C196.334 505.981 198.669 504.469 183.426 509.625C168.496 516.282 152.945 523.053 137.49 529.797C136.592 529.527 136.357 528.975 137.12 527.939C133.887 529.181 130.855 530.253 127.79 531.395C129.909 529.906 130.825 528.822 130.427 528.22C130.117 527.708 129.014 527.558 127.4 527.627C129.253 526.808 131.07 526.027 132.937 525.157C132.493 523.538 130.164 523.004 126.66 523.153C136.788 519.384 144.517 516.506 150.792 513.911C162.678 508.789 169.879 505.01 180.229 497.657C219.862 484.023 255.122 474.173 275.382 471.449C231.959 487.239 184.394 497.588 167.302 513.158C181.045 508.025 211.167 496.861 247.101 486.265C282.479 475.644 323.269 465.354 356.712 459.533C354.98 460.174 353.359 460.754 351.496 461.475C318.104 476.193 355.815 468.628 386.859 457.962C397.539 458.571 425.152 456.025 359.144 473.659C391.364 464.816 408.526 461.951 425.495 459.337C424.25 459.911 422.952 460.556 421.707 461.13C411.949 465.801 402.868 470.137 394.85 473.853C388.706 474.275 385.851 473.433 388.311 470.458C380.959 475.835 371.644 480.773 361.516 485.498C360.209 484.908 360.262 483.32 362.17 480.353C318.741 499.144 279.735 517.114 294.1 503.096C280.825 508.362 273.529 511.788 269.173 514.218C260.26 516.542 255.635 516.938 256.238 514.93C270.004 506.003 279.72 499.21 257.491 506.029C254.094 507.782 250.28 509.711 246.315 511.704C227.683 514.49 221.66 513.993 223.515 510.899ZM90.347 543.268C91.4094 543.026 92.5152 542.631 93.5877 542.487C93.4387 542.767 93.1578 543.109 92.8786 543.468C87.7901 545.116 82.8497 546.666 78.0624 548.167C82.2392 546.498 86.3004 544.858 90.347 543.268ZM-62.1621 604.992C-62.0532 604.898 -61.8482 604.778 -61.7588 604.687L-58.3368 609.476C-58.4882 609.542 -58.6362 609.639 -58.7826 609.753L-62.1621 604.992ZM-62.2549 605.051L-58.8362 609.808C-59.0429 609.912 -59.248 610.032 -59.4497 610.185L-62.8046 605.471C-62.6616 605.324 -62.4616 605.155 -62.2549 605.051ZM-63.5938 603.195L-63.2004 603.748C-63.4692 603.825 -63.681 603.88 -63.8911 603.951L-64.4629 603.202C-64.0717 603.162 -63.9118 603.178 -63.5938 603.195ZM-81.6754 586.667L-80.3416 588.474C-80.3952 588.529 -80.5432 588.627 -80.5382 588.676L-81.9358 586.826C-81.8218 586.781 -81.729 586.722 -81.6754 586.667ZM-88.3326 577.365L-83.9582 583.523C-83.9973 583.527 -84.1113 583.572 -84.2092 583.582L-88.5818 577.44C-88.5427 577.436 -88.4304 577.375 -88.3326 577.365ZM-98.0281 564.305C-97.9303 564.295 -97.8163 564.25 -97.7576 564.244L-95.4978 567.357C-95.5922 567.4 -95.7096 567.412 -95.7436 567.465L-98.0281 564.305ZM-147.34 495.909C-151.47 498.414 -155.649 501.023 -159.691 503.42L-112.286 569.623C-107.641 567.889 -102.935 566.181 -98.2919 564.431L-96.0711 567.548C-101.247 569.304 -106.233 570.991 -110.748 572.448L-161.94 500.982C-157.08 498.27 -152.717 495.922 -148.796 493.884L-147.34 495.909ZM-148.286 493.649L-146.875 495.63C-146.987 495.691 -147.041 495.746 -147.08 495.75L-148.53 493.774C-148.496 493.721 -148.384 493.66 -148.286 493.649ZM-160.078 477.146L-156.518 482.12C-156.631 482.181 -156.666 482.217 -156.779 482.279L-160.319 477.303C-160.224 477.26 -160.171 477.205 -160.078 477.146ZM-162.068 472.06C-162.336 472.137 -162.586 472.212 -162.855 472.29L-164.377 470.188C-164.113 470.062 -163.912 469.909 -163.707 469.789L-162.068 472.06ZM-154.184 480.608C-154.498 480.822 -154.738 480.979 -155.057 481.144L-158.591 476.234C-158.355 476.028 -158.038 475.847 -157.738 475.684L-154.184 480.608ZM-154.163 478.71C-154.203 478.896 -154.282 479.085 -154.327 479.222L-157.13 475.258C-157.016 475.213 -156.87 475.099 -156.777 475.04L-154.163 478.71ZM-153.575 477.512C-153.727 477.758 -153.919 478.009 -153.998 478.199L-156.404 474.82C-156.203 474.668 -155.996 474.564 -155.791 474.444L-153.575 477.512ZM-153.215 476.98C-153.358 477.126 -153.441 477.283 -153.539 477.475L-155.757 474.391C-155.589 474.291 -155.443 474.177 -155.295 474.079L-153.215 476.98ZM-141.21 464.987C-142.174 465.796 -143.058 466.613 -143.943 467.43C-144.48 467.584 -145.005 467.672 -145.548 467.777C-144.06 466.865 -142.746 466.003 -141.21 464.987ZM-120.767 522.275C-120.979 522.33 -121.135 522.346 -121.281 522.46L-124.628 517.827C-124.48 517.729 -124.333 517.615 -124.185 517.518L-120.767 522.275ZM607.536 167.061C611.014 165.711 614.648 164.148 618.2 162.742C614.922 164.12 611.395 165.573 607.536 167.061ZM605.389 167.91C605.596 167.806 605.753 167.79 605.918 167.673C605.748 167.741 605.596 167.806 605.389 167.91ZM815.925 92.2306C825.735 92.0723 804.566 100.727 777.62 110.293C788.916 105.2 798.154 100.666 802.366 97.4266C790.313 100.933 774.367 106.558 759.187 111.757C761.33 110.496 763.307 109.154 765.1 107.567C761.099 108.838 757.476 109.939 754.06 110.935C760.902 108.463 766.905 106.292 772.244 104.387C769.805 105.464 767.364 106.524 765.1 107.567C790.223 103.696 805.551 90.947 815.925 92.2306ZM869.321 88.5489C874.365 78.4474 825.887 105.576 817.934 100.563C827.642 96.9365 836.641 93.3339 844.462 89.8201C845.353 89.4476 846.025 89.0648 846.858 88.7147C868.835 81.1798 891.148 75.7535 886.749 81.963C880.392 84.336 874.552 86.5564 869.321 88.5489ZM918.384 70.1308C920.929 69.5045 923.563 68.7866 926.626 68.0079C918.851 70.4451 911.218 73.0985 903.783 75.7643C908.681 73.8063 913.531 71.9522 918.384 70.1308ZM1052.96 19.4471C1054.4 19.2483 1056.04 18.8641 1057.47 18.5674C1056.69 19.3743 1056.53 19.9838 1057.5 20.378C1062.58 18.5832 1067.87 16.815 1072.07 15.5722C1074.4 15.0172 1076.77 14.4092 1079.2 13.7462C1081.77 13.4299 1080.66 14.6831 1072.82 18.6107C1047.64 26.6918 1047.24 26.453 1050.63 26.333C1053.75 26.1088 1059.82 25.5625 1044.16 31.8336C1028.66 37.2463 1012.5 42.2997 995.717 47.3018C1008.03 41.7237 1006.17 40.9272 996.931 42.7905C1018.53 35.2615 1037.77 27.8451 1052.96 19.4471ZM1116.95 7.52932C1116.63 7.66163 1116.26 7.78168 1115.9 7.91803L1109.25 5.02831C1109.56 4.89803 1109.89 4.83097 1110.19 4.7007L1116.95 7.52932ZM1087.37 -17.8495C1087.8 -17.894 1088.27 -17.9426 1088.7 -17.9872C1089.41 -18.0111 1090 -18.023 1090.65 -18.0898C1089.41 -18.0111 1088.23 -17.9386 1087.04 -17.815C1087.16 -17.8272 1087.25 -17.8373 1087.37 -17.8495ZM1096.47 -19.9126C1096.43 -19.9086 1096.43 -19.9086 1096.43 -19.9086C1096.43 -19.9086 1096.43 -19.9086 1096.48 -19.8637C1096.6 -19.8432 1096.66 -19.8004 1096.76 -19.7616C1096.66 -19.8004 1096.6 -19.8432 1096.47 -19.9126ZM1098.06 -19.2203L1097.84 -19.3285C1098.29 -19.161 1098.64 -19.0487 1099.03 -18.9077C1098.74 -19.0261 1098.42 -19.0753 1098.06 -19.2203ZM1099.75 -18.6197C1100.99 -18.3028 1101.7 -18.1127 1101.82 -18.0759C1101.44 -18.1679 1100.77 -18.3295 1099.75 -18.6197ZM1117.89 -20.96L1113.15 -22.8106C1113.39 -23.6096 1113.64 -24.4434 1113.84 -25.5198L1118.42 -23.6857C1118.31 -22.6683 1118.09 -21.755 1117.89 -20.96ZM1049.73 57.9827C1079.29 43.4473 1039.35 57.7389 1047.6 47.8987C1076.09 40.8761 1086.57 36.3121 1096.95 30.7204C1102.92 30.7287 1112.48 28.9635 1123.81 26.3065C1103.61 38.5219 1079.23 48.0532 1049.73 57.9827ZM919.7 130.586C920.055 130.764 920.808 130.784 921.409 130.854C920.357 131.013 919.228 131.179 918.097 131.329C918.622 131.06 919.191 130.82 919.7 130.586ZM899.098 134.203C900.254 133.72 901.454 133.283 902.591 132.803C902.134 133.163 901.638 133.528 901.138 133.86C900.439 133.982 899.797 134.081 899.098 134.203ZM842.501 156.616C848.683 154.08 855.286 151.401 862.163 148.694C869.4 147.368 876.062 145.639 880.851 143.198C878.38 143.586 875.881 143.894 873.823 144.058C876.448 143.061 879.048 142.016 881.597 141.044C885.324 140.377 889.268 139.705 893.313 139.056C886.894 142.935 878.514 147.364 867.382 152.507C858.057 154.099 849.432 155.585 842.501 156.616ZM851.579 159.518C849.337 159.437 846.843 159.415 844.41 159.403C850.225 157.894 855.519 156.703 860.453 155.664C857.595 156.9 854.681 158.158 851.579 159.518ZM902.322 151.593C895.426 154.121 889.224 156.659 883.692 159.177C876.495 160.318 869.24 161.481 862.045 162.638C862.653 160.679 858.996 159.92 853.763 159.605C857.643 157.934 861.489 156.315 865.33 154.648C884.942 150.82 897.668 150.179 908.419 149.379C906.338 150.089 904.242 150.85 902.322 151.593ZM933.547 155.285C969.242 149.825 1005.05 144.304 1040.86 138.832C1037.56 145.142 914.57 166.779 933.547 155.285ZM1061.41 166.547C1041.23 169.494 1031.58 171.169 1055.25 169.312C1054.57 169.646 1053.89 169.947 1053.17 170.253C1028 178.497 993.383 175.041 949.568 183.419C992.392 176.545 1028.74 168.841 1071.72 161.951C1068.3 163.476 1064.88 165 1061.41 166.547ZM1215.8 95.3619C1214.69 95.51 1213.57 95.7253 1212.5 95.8856C1214.29 94.3312 1216.58 92.3795 1219.27 90.0733C1220.68 89.9275 1222.01 89.8387 1223.42 89.7255C1220.41 92.1151 1217.89 93.9259 1215.8 95.3619ZM1237.7 92.0068C1232.02 92.7756 1226.85 93.5753 1221.94 94.3141C1223.77 92.723 1225.56 91.087 1227.35 89.4673C1233.26 89.0697 1238.83 88.8554 1243.64 88.7201C1241.7 89.779 1239.7 90.8929 1237.7 92.0068ZM1439.98 172.28L1434.61 159.728L1440.18 158.525L1445.33 170.506C1443.59 171.049 1441.76 171.651 1439.98 172.28ZM1593.38 176.842L1569.32 160.571C1569.6 160.673 1569.87 160.777 1570.22 160.84C1570.22 160.527 1570.41 160.227 1570.72 160.013L1594.68 176.213C1594.33 176.431 1593.79 176.618 1593.38 176.842ZM1599.89 180.504C1599.46 179.923 1599.03 179.423 1598.6 178.874L1600.51 180.176C1600.3 180.28 1600.16 180.394 1599.89 180.504ZM1852.66 366.05L1851.17 363.763C1851.27 363.704 1851.32 363.665 1851.43 363.604L1852.92 365.891C1852.8 365.952 1852.71 365.995 1852.66 366.05ZM1869.52 391.838C1869.43 391.897 1869.32 391.958 1869.22 392L1867.47 389.247C1867.57 389.237 1867.68 389.176 1867.78 389.133L1869.52 391.838ZM1869.63 391.744L1867.96 389.115C1868.05 389.055 1868.26 388.984 1868.37 388.923L1870.04 391.52C1869.89 391.618 1869.78 391.679 1869.63 391.744ZM1972.99 553.238C1973.14 553.189 1973.29 553.124 1973.44 553.059L1974.44 554.621C1974.27 554.689 1974.11 554.705 1973.96 554.77L1972.99 553.238ZM1973.47 554.869L1972.51 553.419C1972.63 553.374 1972.72 553.315 1972.84 553.303L1973.8 554.786C1973.68 554.798 1973.59 554.808 1973.47 554.869ZM1989.26 579.549C1989.37 579.488 1989.42 579.433 1989.51 579.374L1990.88 581.492C1990.77 581.553 1990.67 581.563 1990.56 581.624L1989.26 579.549ZM891.864 1219.45L892.013 1219.75C892.013 1219.75 892.018 1219.8 891.96 1219.8L891.771 1219.51C891.825 1219.45 891.825 1219.45 891.864 1219.45ZM806.439 1083.35C806.439 1083.35 806.439 1083.35 806.386 1083.41L806.197 1083.11C806.236 1083.11 806.236 1083.11 806.295 1083.1L806.439 1083.35ZM806.765 1082.87L806.89 1083.12C806.856 1083.18 806.739 1083.19 806.685 1083.24L806.5 1082.98C806.612 1082.92 806.648 1082.88 806.765 1082.87ZM803.641 1077.9C803.543 1077.91 803.49 1077.97 803.395 1078.01L802.016 1075.76C802.114 1075.75 802.236 1075.79 802.334 1075.78L803.641 1077.9ZM1008.28 954.675C1008.23 954.73 1008.14 954.772 1008.02 954.785C1008.13 954.74 1008.23 954.681 1008.34 954.62C1008.34 954.62 1008.34 954.669 1008.28 954.675ZM1070.01 925.037C1065.98 927.63 1061.97 930.123 1057.94 932.618C1042.81 938.257 1029.35 943.541 1020.14 947.743C1026.13 944.238 1031.99 940.778 1037.71 937.334C1048.16 933.416 1058.9 929.319 1070.01 925.037ZM1020.5 933.427C1039.47 925.858 1054.86 919.697 1067.31 914.616C1062.41 917.745 1057.43 920.832 1052.43 923.922C1049.46 925.004 1046.52 926.034 1043.59 927.096C1033.32 930.517 1024.81 933.031 1020.5 933.427ZM413.102 884.826C414.517 884.366 415.992 883.9 417.352 883.479C415.373 884.228 413.497 885.016 411.463 885.804C412.141 885.47 412.484 885.154 413.102 884.826ZM211.225 956.674C211.881 956.705 212.54 956.768 213.194 956.783C210.725 958.72 210.245 960.765 202.856 967.499C165.862 981.996 165.509 978.01 128.418 992.518C140.691 981.206 183.74 967.714 211.225 956.674ZM192.528 957.884C192.646 957.872 192.704 957.866 192.743 957.862C189.107 958.832 185.745 959.774 182.573 960.646C186.299 959.403 189.569 958.52 192.528 957.884ZM76.0322 998.7C76.9742 999.014 76.858 999.801 75.8885 1000.94C74.8105 1000.46 74.8927 999.724 76.0322 998.7ZM96.8545 989.949C89.8883 992.748 85.1495 994.145 76.7248 998.133C77.5885 997.5 78.703 996.807 80.2378 995.973C85.8753 993.707 91.4632 991.727 96.8545 989.949ZM229.055 564.981C235.96 562.552 243.227 559.986 250.345 557.501C251.235 557.129 252.072 556.811 252.95 556.506C250.962 558.113 246.247 560.893 239.796 564.463C232.603 566.79 224.205 569.506 213.7 572.688C218.654 570.312 223.825 567.749 229.055 564.981ZM432.691 466.588C432.638 466.643 432.433 466.763 432.402 466.849C432.074 466.932 431.767 467.014 431.437 467.081C431.913 466.9 432.271 466.731 432.691 466.588ZM178.486 489.61C172.661 488.91 172.945 486.886 164.679 488.781C156.477 490.718 139.378 496.28 100.634 512.773C107.731 504.173 139.332 490.679 177.274 478.474C215.199 466.288 259.305 455.571 288.929 448.382C252.156 461.373 232.363 471.287 178.486 489.61ZM84.38 532.229C115.987 516.888 48.4757 539.293 71.0387 528.45C81.8966 525.43 95.5968 521.027 114.324 514.57C142.672 504.991 181.971 490.42 241.814 470.902C226.011 477.913 183.408 493.222 140.258 509.94C121.018 517.356 101.873 525.125 84.38 532.229ZM-77.1824 584.042C-77.0114 583.975 -76.865 583.861 -76.717 583.763L-76.068 584.685C-76.2305 584.834 -76.3182 584.942 -76.4662 585.039L-77.1824 584.042ZM-77.8903 584.461C-77.6835 584.358 -77.4819 584.205 -77.2768 584.085L-76.5198 585.094C-76.7215 585.247 -76.9215 585.416 -77.0644 585.563L-77.8903 584.461ZM-78.5964 584.897C-78.502 584.855 -78.3506 584.789 -78.2433 584.679L-77.4142 585.814C-77.5214 585.924 -77.6694 586.021 -77.7817 586.082L-78.5964 584.897ZM-80.1457 585.783C-79.8267 585.618 -79.5663 585.459 -79.2669 585.296L-78.3263 586.551C-78.6123 586.844 -78.8123 587.014 -79.0642 587.254L-80.1457 585.783ZM-80.4988 586.001L-79.3535 587.515C-79.5501 587.716 -79.7467 587.918 -79.9484 588.071L-81.1514 586.382C-80.9446 586.278 -80.7038 586.121 -80.4988 586.001ZM-87.02 576.866L-82.4706 583.188C-82.7802 583.253 -82.9954 583.275 -83.3228 583.359L-87.7643 577.125C-87.5542 577.053 -87.2301 576.937 -87.02 576.866ZM-96.406 563.741L-94.1231 566.885C-94.3919 566.962 -94.6557 567.088 -94.9066 567.147L-97.1894 564.004C-96.9206 563.926 -96.6764 563.802 -96.406 563.741ZM-106.256 551.291C-106.051 551.171 -105.805 551.063 -105.6 550.943L-101.978 555.942C-102.242 556.069 -102.449 556.173 -102.712 556.299L-106.256 551.291ZM-107.084 551.69C-106.992 551.631 -106.933 551.625 -106.821 551.564L-103.281 556.539C-103.339 556.545 -103.432 556.604 -103.491 556.61L-107.084 551.69ZM-139.108 507.439C-142.699 509.806 -146.311 512.158 -149.548 514.307L-119.011 556.997C-114.635 555.143 -110.702 553.416 -107.35 551.8L-103.795 556.724C-107.788 558.456 -111.899 560.185 -116.318 561.994L-153.575 509.976C-150.077 507.668 -146.314 505.25 -142.458 502.774L-139.108 507.439ZM-138.646 507.127C-138.741 507.17 -138.794 507.225 -138.907 507.286L-142.199 502.598C-142.105 502.556 -142.046 502.55 -141.993 502.495L-138.646 507.127ZM-140.824 501.747L-137.538 506.37C-137.743 506.49 -137.945 506.643 -138.147 506.795L-141.491 502.179C-141.233 502.004 -141.031 501.851 -140.824 501.747ZM-144.496 494.164C-144.796 494.327 -145.09 494.539 -145.35 494.697L-146.732 492.812C-146.432 492.65 -146.074 492.481 -145.81 492.354L-144.496 494.164ZM-143.51 493.567C-143.622 493.628 -143.77 493.726 -143.883 493.787L-145.133 492.02C-144.987 491.906 -144.894 491.847 -144.78 491.803L-143.51 493.567ZM-142.544 492.972C-142.75 493.076 -142.955 493.196 -143.098 493.343L-144.365 491.611C-144.158 491.507 -143.953 491.387 -143.707 491.279L-142.544 492.972ZM-141.985 492.634C-142.132 492.748 -142.304 492.799 -142.451 492.913L-143.654 491.224C-143.501 491.175 -143.33 491.108 -143.183 490.994L-141.985 492.634ZM-135.002 504.706L-138.285 500.116C-138.078 500.012 -137.873 499.892 -137.671 499.739L-134.433 504.284C-134.599 504.4 -134.8 504.553 -135.002 504.706ZM-122.065 522.722L-125.231 518.302C-125.03 518.149 -124.883 518.035 -124.681 517.882L-121.379 522.47C-121.645 522.58 -121.796 522.645 -122.065 522.722ZM-119.047 525.708C-119.308 525.866 -119.454 525.98 -119.661 526.084L-121.111 524.108C-120.845 523.998 -120.699 523.884 -120.434 523.774L-119.047 525.708ZM-118.546 525.392C-118.694 525.49 -118.846 525.555 -118.994 525.652L-120.4 523.721C-120.229 523.653 -120.081 523.556 -119.929 523.491L-118.546 525.392ZM708.017 132.734C709.11 132.407 710.108 132.122 711.224 131.825C710.073 132.159 709.015 132.449 708.017 132.734ZM751.599 124.974C740.708 133.785 796.368 114.733 756.663 130.913C744.998 134.923 725.112 143.363 707.736 150.454C696.365 154.253 685.034 158.048 673.932 161.769C673.864 161.677 673.699 161.612 673.744 161.475C731.276 140.647 729.401 136.093 705.072 142.486C710.72 139.56 718.027 136.232 726.003 132.686C734.728 130.068 743.143 127.515 751.599 124.974ZM865.059 90.1607C848.456 96.3149 834.22 101.268 821.988 105.156C807.192 109.853 795.347 112.893 786.06 114.662C814.017 106.261 840.567 98.2198 865.515 89.9816C865.364 90.0467 865.212 90.1119 865.059 90.1607ZM873.511 95.9796C884.725 92.1971 897.63 87.5634 909.163 83.6159C910.314 84.7993 909.245 87.0862 910.81 88.0619C909.883 88.4711 908.834 88.8435 907.846 89.2261C889.059 95.8701 876.205 100.993 865.283 104.927C844.183 112.14 822.545 118.931 804.398 124.305C804.233 123.284 808.206 121.372 813.36 119.206C833.649 111.417 857.609 102.605 873.511 95.9796ZM1146.16 152.034C1149.42 153.099 1134.41 155.774 1114.76 158.798C1117.28 157.366 1119.85 156.061 1122.42 154.756C1130.08 153.832 1137.85 152.895 1146.16 152.034ZM1601.53 837.74C1601.69 837.756 1601.91 837.783 1602.03 837.82C1602.04 837.901 1601.95 838.191 1601.88 838.429C1601.26 838.806 1599.91 839.26 1597.8 839.89C1599.71 838.505 1600.89 837.839 1601.53 837.74ZM491.095 417.509C487.666 418.952 480.672 420.534 471.567 422.152C473.19 420.451 475.434 418.636 479.214 416.381C486.486 414.82 495.368 412.763 506.478 410.08C506.013 410.359 505.503 410.593 505.092 410.817C492.59 415.145 463.153 422.611 491.095 417.509ZM482.102 404.558C476.657 406.391 472.328 407.927 468.763 409.203C464.69 410.152 460.031 411.179 454.623 412.415C464.39 408.782 473.834 405.282 481.229 402.801C477.964 404.31 477.3 405.154 482.102 404.558ZM352.719 428.225C354.804 427.547 356.973 426.911 359.118 426.243C357.259 427.574 353.479 429.449 345.079 432.528C348.319 430.791 350.767 429.416 352.719 428.225ZM-84.1048 575.806C-83.8411 575.68 -83.631 575.608 -83.4192 575.554L-78.4832 582.363C-78.757 582.391 -79.0309 582.42 -79.2801 582.495L-84.1048 575.806ZM-84.9274 576.072C-84.7709 576.056 -84.6781 575.997 -84.5267 575.932L-79.7692 582.546C-79.9223 582.594 -80.0788 582.611 -80.2548 582.629L-84.9274 576.072ZM-85.6683 576.364L-80.9829 582.853C-81.3546 582.891 -81.7178 583.011 -82.104 583.101L-86.6032 576.691C-86.2986 576.577 -85.9712 576.494 -85.6683 576.364ZM-95.0543 563.238L-92.7664 566.431C-93.0743 566.512 -93.4571 566.634 -93.7599 566.765L-96.0444 563.605C-95.6812 563.485 -95.3588 563.352 -95.0543 563.238ZM-104.301 550.313L-100.63 555.407C-100.934 555.521 -101.316 555.66 -101.615 555.822L-105.222 550.772C-104.923 550.609 -104.62 550.478 -104.301 550.313ZM-115.628 536.202C-115.323 536.088 -114.996 536.005 -114.634 535.869L-114.013 536.711C-114.316 536.841 -114.679 536.961 -115.002 537.094L-115.628 536.202ZM-116.836 536.558C-116.573 536.432 -116.322 536.373 -116.053 536.296L-115.418 537.269C-115.668 537.344 -115.874 537.448 -116.138 537.574L-116.836 536.558ZM-117.742 536.784C-117.625 536.772 -117.527 536.762 -117.473 536.707L-116.648 537.808C-116.765 537.82 -116.82 537.859 -116.918 537.869L-117.742 536.784ZM-126.676 524.783C-129.587 526.073 -132.478 527.362 -135.879 529.082L-128.16 539.857C-124.988 538.985 -121.458 537.943 -118.006 536.91L-117.24 538.001C-120.611 539.439 -123.928 540.821 -126.937 542.122L-137.662 527.14C-134.615 525.061 -132.009 523.109 -129.285 521.162L-126.676 524.783ZM-126.166 524.548C-126.259 524.608 -126.318 524.614 -126.412 524.656L-129.024 521.003C-128.971 520.948 -128.878 520.889 -128.823 520.85L-126.166 524.548ZM-124.922 523.958C-125.127 524.078 -125.393 524.188 -125.598 524.308L-128.304 520.516C-128.122 520.365 -127.92 520.213 -127.72 520.043L-124.922 523.958ZM-126.557 519.247L-123.623 523.329C-123.884 523.488 -124.24 523.673 -124.564 523.789L-127.347 519.823C-127.112 519.618 -126.796 519.42 -126.557 519.247ZM-136.317 505.567C-136.611 505.779 -136.871 505.938 -137.166 506.15L-140.471 501.529C-140.213 501.354 -139.918 501.142 -139.599 500.977L-136.317 505.567ZM-135.703 505.19L-138.986 500.601C-138.896 500.509 -138.745 500.444 -138.638 500.334L-135.355 504.924C-135.501 505.038 -135.596 505.08 -135.703 505.19ZM-122.902 523.04L-125.948 518.821C-125.84 518.728 -125.693 518.614 -125.579 518.569L-122.482 522.897C-122.633 522.963 -122.75 522.975 -122.902 523.04ZM-120.42 526.575L-121.817 524.543C-121.723 524.501 -121.571 524.435 -121.464 524.325L-120.009 526.351C-120.16 526.416 -120.274 526.461 -120.42 526.575ZM-119.948 530.186C-119.624 530.07 -119.321 529.94 -118.997 529.824L-116.481 533.306C-116.784 533.437 -117.147 533.557 -117.47 533.689L-119.948 530.186ZM-121.089 530.618C-120.824 530.508 -120.619 530.388 -120.37 530.313L-117.833 533.809C-118.102 533.886 -118.347 533.994 -118.616 534.071L-121.089 530.618ZM-121.926 530.935C-121.814 530.874 -121.775 530.87 -121.663 530.809L-119.184 534.312C-119.302 534.324 -119.341 534.328 -119.453 534.389L-121.926 530.935ZM-123.831 528.775C-126.426 530.445 -129.055 532.168 -131.56 533.746L-131.052 534.452C-127.918 533.221 -125.007 532.112 -122.234 531.017L-119.722 534.466C-123.367 535.734 -126.467 536.731 -129.365 537.575L-134.057 531.021C-131.225 529.54 -128.439 528.18 -125.406 526.547L-123.831 528.775ZM-123.369 528.463C-123.422 528.518 -123.517 528.561 -123.57 528.616L-125.165 526.39C-125.047 526.378 -124.994 526.323 -124.96 526.27L-123.369 528.463ZM-123.366 525.429C-123.106 525.27 -122.753 525.052 -122.489 524.926L-121.034 526.952C-121.289 527.16 -121.589 527.323 -121.906 527.504L-123.366 525.429ZM-122.202 527.699C-122.461 527.875 -122.662 528.027 -122.869 528.131L-124.375 525.995C-124.19 525.877 -123.929 525.718 -123.724 525.598L-122.202 527.699ZM-115.32 532.873C-115.471 532.938 -115.644 532.989 -115.795 533.054L-118.277 529.519C-118.12 529.503 -117.949 529.435 -117.857 529.376L-115.32 532.873ZM-114.237 532.447C-114.483 532.555 -114.693 532.627 -114.9 532.73L-117.44 529.201C-117.23 529.13 -116.964 529.02 -116.754 528.949L-114.237 532.447ZM-113.644 532.254C-113.817 532.305 -113.968 532.37 -114.12 532.435L-116.656 528.939C-116.446 528.868 -116.332 528.823 -116.122 528.752L-113.644 532.254ZM-111.201 535.612C-111.391 535.681 -111.564 535.732 -111.715 535.797L-112.22 535.124C-112.067 535.075 -111.857 535.004 -111.686 534.937L-111.201 535.612ZM537.838 196.617C541.772 195.847 545.592 195.122 549.428 194.362C543.419 196.666 539.283 197.589 537.838 196.617ZM563.505 191.685C568.877 190.683 574.363 189.621 579.616 188.615C565.911 192.392 561.89 193.847 563.505 191.685ZM556.844 201.063C556.684 199.134 573.377 192.707 585.943 187.466C586.212 187.388 586.485 187.36 586.795 187.295C577.592 191.595 567.762 196.141 556.844 201.063ZM445.7 335.584C444.5 336.021 443.187 336.52 441.928 336.964C443.54 336.302 445.06 335.7 446.672 335.038C446.318 335.256 446.058 335.415 445.7 335.584ZM314.515 365.719C310.397 367.762 304.065 370 296.814 372.152C301.39 370.326 306.083 368.489 310.877 366.673C312.15 366.36 313.207 366.069 314.515 365.719ZM-92.6945 562.351C-92.5414 562.302 -92.39 562.237 -92.1799 562.166L-89.8869 565.407C-90.0384 565.473 -90.2093 565.54 -90.3608 565.605L-92.6945 562.351ZM-93.478 562.614C-93.2661 562.559 -93.0756 562.49 -92.8119 562.363L-90.4552 565.648C-90.724 565.725 -90.9341 565.796 -91.2046 565.857L-93.478 562.614ZM-93.8931 562.805L-91.6248 566C-91.7762 566.065 -91.8706 566.107 -92.0416 566.175L-94.315 562.931C-94.2172 562.921 -94.0658 562.856 -93.8931 562.805ZM-103.209 549.788L-99.5325 554.931C-99.7035 554.998 -99.8566 555.047 -99.9493 555.106L-103.625 549.963C-103.472 549.914 -103.38 549.855 -103.209 549.788ZM-112.911 536.284C-113.003 536.343 -113.174 536.41 -113.331 536.426L-113.904 535.661C-113.733 535.594 -113.58 535.545 -113.424 535.529L-112.911 536.284ZM-112.494 536.109L-113.003 535.386C-112.797 535.283 -112.528 535.205 -112.318 535.134L-111.808 535.856C-112.018 535.927 -112.284 536.037 -112.494 536.109ZM-98.5133 554.463C-98.7201 554.566 -98.9302 554.638 -99.1156 554.756L-102.855 549.57C-102.61 549.462 -102.444 549.346 -102.237 549.242L-98.5133 554.463ZM-97.8864 554.216C-98.0965 554.287 -98.2496 554.336 -98.396 554.45L-102.144 549.183C-101.996 549.086 -101.825 549.018 -101.679 548.904L-97.8864 554.216ZM-93.9988 559.683L-93.9597 559.679C-94.0524 559.738 -94.1647 559.799 -94.2575 559.858C-94.2039 559.803 -94.0524 559.738 -93.9988 559.683ZM910.917 214.18C911.44 214.076 912.022 213.967 912.561 213.828C946.666 208.665 920.952 215.812 898.19 220.147C903.066 217.977 907.349 216 910.917 214.18ZM898.465 216.508C893.302 218.576 888.314 220.626 883.528 222.523C874.744 223.613 870.154 223.198 877.03 219.535C853.179 223.093 778.97 239.053 823.469 232.5C793.069 245.375 794.556 233.004 770.368 237.503C809.719 225.927 866.982 221.4 898.465 216.508ZM508.091 404.076C511.179 403.542 514.3 402.939 517.442 402.35C518.2 402.222 518.997 402.09 519.849 401.919C523.302 401.281 526.752 400.611 530.05 400.005C530.329 400.026 530.642 399.994 530.802 400.01C527.046 401.355 523.814 402.597 520.85 403.761C515.593 404.355 506.246 406.312 497.756 407.949C500.814 406.742 504.223 405.482 508.091 404.076ZM564.676 395.101C564.968 395.253 565.291 395.318 565.881 395.29C565.789 395.349 565.618 395.416 565.461 395.432C564.824 395.581 564.242 395.69 563.602 395.806C564.009 395.533 564.362 395.315 564.676 395.101ZM611.393 386.11C609.653 387.065 607.906 387.955 606.264 388.9C597.568 390.262 588.381 391.658 579.682 393.004C582.849 391.505 586.142 389.895 589.396 388.288C592.904 387.035 596.508 385.755 600.107 384.426C609.451 383.59 615.018 383.888 611.393 386.11ZM687.174 379.797C694.715 376.626 704.547 372.673 713.652 368.96C725.124 367.097 737.071 365.233 749.228 363.298C745.265 364.747 741.547 366.072 737.929 367.222C735.926 367.347 734.032 367.394 732.258 367.446C718.763 370.195 715.305 372.317 718.718 372.821C710.686 374.873 704.115 376.328 699.058 377.709C695.477 378.261 691.44 378.993 687.174 379.797ZM778.188 338.817C777.166 339.829 776.648 340.559 776.582 341.061C772.712 341.873 769.043 342.534 765.516 343.031C768.421 341.873 771.189 340.729 773.995 339.564C775.37 339.29 776.809 339.059 778.188 338.817ZM512.634 393.532C515.12 391.956 518.361 390.219 522.18 388.339C525.24 388.105 528.36 387.881 531.744 387.53C524.217 390.255 518.081 392.292 513.45 393.579C513.112 393.565 512.893 393.555 512.634 393.532ZM507.356 389.149C509.292 389.13 511.61 388.988 513.775 388.896C511.783 390.092 509.425 391.375 506.7 392.745C504.984 392.016 504.986 390.894 507.356 389.149ZM927.395 91.6702C914.514 95.5759 902.75 99.2011 893.912 101.88C882.505 105.32 875.679 106.422 876.359 104.011C897.905 97.4769 914.686 93.6126 927.395 91.6702ZM956.511 82.8191C954.104 82.6727 953.41 81.7057 955.089 79.5864C955.99 79.3118 956.93 79.0331 957.831 78.7585C979.145 72.6606 999.708 66.5582 1031.78 55.3725C1024.49 60.7278 991.082 72.2326 956.511 82.8191ZM-77.784 582.241C-77.9992 582.263 -78.2093 582.335 -78.3854 582.353L-83.3069 575.492C-83.1163 575.423 -82.9454 575.356 -82.7922 575.307L-77.784 582.241ZM11.2902 566.638C10.835 567.015 10.5541 567.357 10.0044 567.777C9.00579 568.062 7.95187 568.385 6.95325 568.67C8.44456 567.988 9.79724 567.304 11.2902 566.638ZM14.5862 561.235C-0.522299 566.74 -17.0054 575.009 -30.5722 580.7C-32.3458 581.329 -34.1713 582.029 -35.9986 582.713C-29.5256 578.778 -21.6355 574.4 -13.3644 569.883C-7.38327 567.5 -1.4227 565.3 4.42894 563.194C9.88907 561.507 13.2981 560.824 14.5862 561.235ZM305.426 443.871C307.581 443.104 309.838 442.376 312.032 441.605C311.692 441.953 311.296 442.324 311.049 442.613C309.136 443.042 307.437 443.432 305.426 443.871ZM1068.33 918.352C1073.83 914.798 1079.03 911.226 1084.03 907.675C1108.19 897.44 1116.09 892.518 1118.05 886.478C1127.39 884.423 1129.77 884.506 1129.54 885.338C1117.81 893.51 1105.8 901.629 1093.68 909.66C1088.85 911.298 1083.83 913.037 1078.66 914.875C1075.15 916.063 1071.69 917.229 1068.33 918.352ZM1188.05 1061.47C1189.04 1061.51 1189.81 1061.65 1190.28 1062.06C1188.46 1062.2 1187.79 1062 1188.05 1061.47ZM1210.83 103.329C1213.21 103.181 1215.95 102.931 1219 102.582C1216.86 103.843 1214.81 105.093 1213.02 106.136C1210.77 106.32 1208.61 106.494 1206.57 106.623C1207.93 105.624 1209.39 104.467 1210.83 103.329ZM826.215 168.508C820.544 169.689 814.756 170.882 808.846 172.038C810.429 171.099 812.434 170.034 814.649 168.898C819.276 168.517 823.215 168.373 826.215 168.508ZM1120 8.79559C1119.75 9.00338 1119.55 9.15616 1119.29 9.36396L1118.74 9.15763C1118.99 8.94984 1119.19 8.74812 1119.36 8.4995L1120 8.79559ZM1125.29 4.5053C1124.31 4.92054 1123.26 5.29294 1122.27 5.62663C1124.27 3.375 1125.83 1.31678 1127.21 -0.672253C1128.72 -1.19113 1130.25 -1.66308 1131.72 -2.12897C1130.04 -0.0259834 1127.94 2.18684 1125.29 4.5053ZM1124.41 11.6042C1124.66 11.3964 1124.9 11.1907 1125.15 10.9339L1127.48 11.9122C1127.29 12.1629 1127.1 12.3972 1126.91 12.6479L1124.41 11.6042ZM1113.4 25.1758C1111.52 25.4029 1109.76 25.5851 1108.45 25.5394C1111.17 24.6319 1113.54 23.8424 1116.1 22.9838C1115.2 23.7192 1114.29 24.4404 1113.4 25.1758ZM1134.71 1.12316C1134.51 1.24331 1134.24 1.30428 1134.03 1.3755C1134.6 0.590919 1135.24 -0.0529403 1135.81 -0.837525C1135.54 -0.23215 1135.08 0.458717 1134.71 1.12316ZM1097.39 -19.4634L1096.83 -19.6861C1096.09 -19.972 1095.3 -20.2866 1094.45 -20.7092C1094.55 -20.6704 1094.62 -20.6275 1094.72 -20.5887C1094.49 -20.6643 1094.32 -20.7786 1094.15 -20.8929C1094.55 -20.6704 1095.13 -20.4172 1095.52 -20.2762C1095.98 -20.0435 1096.48 -19.8637 1096.89 -19.6921L1096.09 -20.0046C1096.6 -19.7943 1097.06 -19.6105 1097.39 -19.4634ZM1098 -19.2632C1097.96 -19.2591 1097.96 -19.2591 1097.96 -19.2591C1097.96 -19.2591 1098 -19.2632 1098.06 -19.2203C1098.01 -19.2142 1098 -19.2632 1098 -19.2632ZM1098.52 -19.0365C1098.68 -19.0201 1098.81 -18.9344 1098.97 -18.9016C1098.75 -18.9283 1098.58 -19.01 1098.45 -19.0794L1098.35 -19.1182L1098.19 -19.1509C1098.29 -19.161 1098.41 -19.1243 1098.45 -19.0794C1098.42 -19.0753 1098.42 -19.0753 1098.35 -19.1182C1098.42 -19.0753 1098.46 -19.0304 1098.52 -19.0365ZM1099.48 -18.6912C1099.48 -18.7402 1099.42 -18.7341 1099.36 -18.728C1099.48 -18.7402 1099.52 -18.6953 1099.65 -18.6585C1099.7 -18.6646 1099.75 -18.6197 1099.75 -18.6197C1099.7 -18.6646 1099.58 -18.7014 1099.48 -18.6912ZM1101.49 -18.0415C1101.61 -18.0536 1101.61 -18.0536 1101.66 -18.0597C1101.66 -18.0597 1101.66 -18.0597 1101.61 -18.0536C1101.49 -18.0415 1101.44 -18.0864 1101.32 -18.1068C1101.44 -18.0864 1101.44 -18.0864 1101.49 -18.0415ZM1099.48 -18.1958C1099.53 -18.2019 1099.57 -18.2059 1099.69 -18.2181C1099.75 -18.2241 1099.85 -18.1853 1099.91 -18.1914C1099.79 -18.1793 1099.57 -18.2059 1099.48 -18.1958ZM1099.2 -18.7934C1099.13 -18.8363 1099.13 -18.8363 1099.13 -18.8363C1099.2 -18.7934 1099.2 -18.7934 1099.26 -18.7505C1099.3 -18.7546 1099.36 -18.728 1099.48 -18.7402C1099.36 -18.7607 1099.26 -18.7505 1099.2 -18.7934ZM1100.04 -18.5176C1099.97 -18.5604 1099.87 -18.5992 1099.81 -18.5932C1099.71 -18.6156 1099.65 -18.6585 1099.52 -18.6953C1099.71 -18.6156 1099.87 -18.5992 1100.03 -18.5665C1100.04 -18.5176 1100.04 -18.5176 1100.04 -18.5176ZM1097.72 -18.3275C1098.38 -18.3128 1098.93 -18.2716 1099.31 -18.2285C1099.53 -18.2508 1099.75 -18.2241 1099.91 -18.1914C1099.75 -18.2241 1099.57 -18.2549 1099.41 -18.2387C1099.1 -18.2389 1098.94 -18.2227 1098.66 -18.2433C1098.16 -18.2905 1097.57 -18.3113 1096.97 -18.2995C1096.76 -18.3098 1096.48 -18.3304 1096.26 -18.3571C1096.38 -18.3203 1096.54 -18.3365 1096.63 -18.3466C1097.03 -18.3382 1097.35 -18.338 1097.72 -18.3275ZM890.998 86.7167C897.853 84.3747 902.132 83.3052 904.87 83.0216C897.92 85.5879 891.808 87.8529 886.812 89.8211C889.17 88.5382 890.799 87.4628 890.998 86.7167ZM564.553 186.152C600.968 172.753 635.345 161.247 668.125 150.747C646.219 159.527 627.244 168.367 604.784 178.87C593.032 181.077 581.25 183.385 569.507 185.688C569.939 185.281 570.245 184.986 570.692 184.527C569.661 185.079 568.72 185.539 567.745 186.052C560.636 187.464 553.503 188.846 546.397 190.291C553.025 187.857 559.857 185.286 566.749 182.726C564.099 184.253 562.656 185.59 564.553 186.152ZM436.84 228.624C452.84 222.367 450.232 226.017 454.317 226.138C474.055 217.417 495.964 209.032 519.666 200.214C524.332 199.269 529.06 198.334 533.634 197.448C508.835 210.37 494.4 213.217 463.749 224.617C454.946 226.485 446.147 228.385 437.291 230.308C437.113 229.733 437.018 229.199 436.84 228.624ZM-133.878 503.913C-134.024 504.027 -134.192 504.127 -134.338 504.241L-137.579 499.68C-137.406 499.629 -137.26 499.515 -137.111 499.417L-133.878 503.913ZM-156.078 481.794L-159.616 476.835C-159.411 476.714 -159.151 476.556 -158.944 476.452L-155.411 481.362C-155.611 481.531 -155.817 481.635 -156.078 481.794ZM-147.051 492.977L-145.703 494.915C-145.909 495.036 -146.169 495.194 -146.374 495.315L-147.762 493.364C-147.555 493.261 -147.315 493.104 -147.051 492.977ZM-73.3229 582.554C-73.5567 582.397 -73.8211 582.325 -74.2063 582.233C-71.048 580.274 -67.4022 577.869 -63.1531 574.989C-67.33 577.993 -70.6136 580.46 -73.3229 582.554ZM-50.8253 586.737C-47.0131 584.793 -43.2147 583.097 -39.446 581.305C-41.7382 582.845 -44.0678 584.406 -46.4527 586.004C-47.9259 586.289 -49.5794 586.74 -50.8253 586.737ZM-49.5118 591.976C-42.3841 589.21 -35.2435 586.377 -28.2577 583.576C-36.3294 587.347 -44.3136 591.389 -51.5279 595.037C-51.7196 594.332 -50.9568 593.297 -49.5118 591.976ZM-62.5259 603.579C-62.7411 603.601 -62.8925 603.666 -63.1026 603.738L-63.4764 603.183C-63.2221 603.156 -63.041 603.187 -62.8258 603.165L-62.5259 603.579ZM291.75 468.749C282.37 461.987 341.378 450.635 306.425 451.995C321.137 449.532 343.635 444.169 372.561 436.739C388.081 428.9 322.09 442.509 371.831 428.538C364.587 428.843 358.37 430.476 348.991 433.079C358.579 428.871 366.794 424.954 371.511 422.388C382.6 418.932 393.739 415.569 404.837 412.195C400.622 417.693 431.663 410.637 460.597 404.608C456.577 407.794 440.556 413.657 428.323 418.666C421.56 420.372 414.119 422.214 405.613 424.463C412.346 423.041 417.831 421.978 422.416 421.19C416.232 423.908 412.406 426.101 414.219 427.002C420.158 425.167 428.318 422.244 437.192 418.968C447.765 417.972 445.522 420.364 449.322 420.977C445.25 422.519 439.609 424.554 431.763 427.263C435.203 426.874 437.493 427.032 439.261 427.492C399.845 433.683 351.47 441.363 340.03 451.368C348.666 451.513 376.238 444.371 400.667 438.94C425.096 433.526 446.101 429.587 440.478 435.049C372.263 452.186 371.9 443.914 291.75 468.749ZM357.086 453.213C362.682 454.942 402.978 444.076 408.774 446.015C388.211 452.117 390.517 447.279 357.971 459.09C362.534 454.463 333.317 460.241 357.086 453.213ZM284.907 532.126C309.169 527.57 336.387 511.463 374.304 492.715C379.14 491.307 383.674 490.03 387.834 488.956C377.558 493.78 369.259 498.035 368.025 500.24C375.52 497.206 382.723 494.597 389.402 492.454C369.576 501.663 378.852 505.896 335.03 522.419C336.943 519.319 349.576 511.103 352.148 509.205C323.835 521.039 310.254 529.271 304.364 534.629C275.205 545.744 275.051 539.478 237.19 556.093C230.13 552.257 285.272 539.854 284.907 532.126ZM1003.12 957.65C1010.41 955.938 1018.08 953.974 1026.72 951.546C1009.19 961.852 992.031 971.46 975.628 980.116C965.597 983.875 955.481 987.758 945.19 991.858C964.504 979.998 984.148 968.649 1003.12 957.65ZM892.259 1219.64L892.071 1219.34C892.124 1219.29 892.217 1219.23 892.329 1219.17L892.523 1219.51C892.425 1219.52 892.372 1219.58 892.259 1219.64ZM897.395 1227.23C897.278 1227.25 897.177 1227.22 897.02 1227.24L895.378 1224.56C895.432 1224.5 895.525 1224.44 895.58 1224.41L897.395 1227.23ZM1624.59 831.18C1622.53 831.13 1620.05 831.206 1617.24 831.398C1625.98 824.673 1634.12 818.356 1641.83 812.265C1645.49 811.474 1648.89 810.726 1651.9 810.003C1650.95 810.728 1650 811.518 1648.99 812.299C1641.08 818.542 1632.9 824.863 1624.59 831.18ZM1691.08 779.55C1687.42 780.292 1683.69 780.991 1680.09 781.726C1683.49 779.017 1686.91 776.322 1690.25 773.667C1694.3 772.836 1698.65 771.891 1702.79 771.05C1698.94 773.757 1695 776.605 1691.08 779.55ZM1185.07 103.655C1190.67 102.746 1195.15 102.1 1199.11 101.608C1196.67 103.262 1194.21 105.05 1191.93 106.506C1188.46 106.057 1186.03 105.171 1185.07 103.655ZM1043.55 114.053C1049.58 113.66 1056.2 113.057 1063.45 112.356C1055.89 114.804 1048.91 117.06 1041.9 119.418C1022.27 125.786 1002.61 131.663 972.997 138.934C970.888 140.521 971.661 141.117 974.565 140.898C960.427 144.126 953.898 146.566 951.595 148.388C941.401 149.987 931.153 151.642 920.919 153.245C947.408 141.55 984.401 131.257 1025.78 119.372C1031.63 117.678 1037.61 115.839 1043.55 114.053ZM1096.87 97.9479C1102.56 96.9467 1107.89 96.0818 1113.06 95.2332C1107.78 97.1318 1102.92 98.9043 1098.26 100.524C1095.16 100.351 1094 99.6464 1096.87 97.9479ZM1068.6 106.216C1070.77 107.295 1067.85 108.322 1045.97 113.341C1053.49 111.079 1060.95 108.674 1068.6 106.216ZM1061.45 102.028C1062.35 103.88 1064.78 104.848 1066.76 105.551C1064.09 106.584 1061.49 107.629 1058.9 108.705C1035.03 113.847 1046.53 108.815 1058.03 103.601C1059.16 103.072 1060.37 102.551 1061.45 102.028ZM1004.22 108.003C988.263 112.985 975.989 115.888 969.38 114.495C993.255 105.823 1013.88 99.7639 1032.88 94.17C1035.52 96.0232 1018.92 102.226 1004.22 108.003ZM1131.82 21.3229C1129.91 21.7844 1128.12 22.25 1126.3 22.6525C1128.79 20.9109 1130.98 19.1508 1133.04 17.4375C1133.92 17.116 1134.97 16.7925 1135.81 16.524L1134.67 15.9992C1134.98 15.7527 1135.23 15.4959 1135.46 15.2412L1137.38 16.0479C1138.07 15.8282 1138.65 15.637 1139.34 15.4335C1138.99 15.733 1138.65 16.0814 1138.25 16.4033L1142.88 18.315C1142.3 18.5062 1141.73 18.6649 1141.15 18.8072L1137.4 17.1673C1135.59 18.6239 1133.73 19.9377 1131.82 21.3229ZM1172.01 -14.626L1174.67 -13.5497C1170.9 -12.1536 1167.1 -10.7208 1163.08 -9.23318L1159 -10.8386C1163.63 -12.2586 1167.95 -13.5299 1172.01 -14.626ZM1160.85 -23.9069L1172.65 -19.309C1171.57 -18.8673 1170.58 -18.501 1169.48 -18.0736L1158.63 -22.3751C1158.6 -21.5147 1158.69 -20.6991 1158.67 -19.8897L1166.24 -16.881C1163.57 -15.9287 1160.87 -14.9233 1157.93 -13.8937C1157.74 -13.066 1157.67 -12.2342 1157.47 -11.4554L1154.42 -12.6238C1153.07 -12.1701 1151.75 -11.6715 1150.3 -11.1587L1154.59 -9.47561C1155.53 -9.75429 1156.33 -10.0188 1157.27 -10.2975C1157.11 -9.73687 1156.9 -9.17019 1156.73 -8.65854L1159 -7.75576C1157.95 -7.38336 1156.9 -7.01097 1155.86 -6.57333C1155.83 -6.43877 1155.74 -6.24719 1155.66 -6.05761L1155.08 -6.31084C1153.82 -5.81831 1152.58 -5.37672 1151.27 -4.92704L1154.67 -3.5647C1154.44 -3.12852 1154.33 -2.62295 1154.04 -2.14808C1153.73 -1.57129 1153.29 -1.03127 1152.97 -0.454473C1154.43 -1.0998 1155.97 -1.83681 1157.43 -2.44952L1159.86 -1.53031C1157.25 -0.61665 1154.58 0.335709 1151.85 1.2452C1151.71 1.44084 1151.63 1.63041 1151.47 1.79546L1150.91 1.57283C1149.02 2.26271 1146.98 2.93617 1145 3.63616C1145.13 3.3916 1145.29 3.19393 1145.42 2.94935C1146.87 2.2714 1148.22 1.71979 1149.61 1.08053L1146.96 0.0367855C1147.62 -1.33495 1148.2 -2.61499 1148.66 -3.93182C1146.68 -3.23181 1144.64 -2.47678 1142.54 -1.71569L1137.06 -3.86854C1140.25 -4.92451 1143.26 -5.86238 1146.3 -6.85321L1149.19 -5.70123C1149.37 -6.44532 1149.47 -7.18131 1149.61 -7.92134C1149.86 -7.99661 1150.13 -8.05759 1150.4 -8.13488L1149.72 -8.42692C1149.9 -9.30353 1150.12 -10.2331 1150.25 -11.1526C1148.99 -10.709 1147.57 -10.2492 1146.27 -9.7852L1137.56 -13.1861C1137.33 -12.3544 1137.09 -11.4554 1136.74 -10.5626L1142.28 -8.4321C1140.66 -7.85214 1139.15 -7.33326 1137.42 -6.74115C1137.14 -7.89945 1136.9 -9.09443 1136.62 -10.2364C1136.62 -10.1875 1136.63 -10.1059 1136.57 -10.0998C1135.99 -8.45688 1135.14 -6.78555 1134.01 -5.08587L1130.63 -6.4013C1131.12 -7.35924 1131.61 -8.36614 1132.05 -9.26908C1132.35 -10.2068 1132.63 -11.1751 1132.85 -12.1047L1136.57 -10.6932C1136.36 -11.7434 1136.08 -12.8018 1135.87 -13.8683L1133.44 -14.7875C1133.62 -15.713 1133.74 -16.6814 1133.86 -17.6335L1138.21 -15.9239C1138.21 -15.875 1138.16 -15.771 1138.17 -15.6895C1138.28 -15.7506 1138.38 -15.7607 1138.49 -15.8055L1150.24 -11.2015C1150.36 -12.1536 1150.31 -13.2363 1150.36 -14.2313L1142.55 -17.3135C1145.18 -18.2292 1147.68 -19.1633 1150.19 -20.0505C1150.08 -21.1271 1149.97 -22.2527 1149.73 -23.3498L1154.37 -21.5707C1155.47 -21.9492 1156.56 -22.3909 1157.6 -22.7633L1149.36 -26.0313C1149.15 -26.8674 1148.84 -27.8239 1148.64 -28.7109L1158.58 -24.8097C1158.64 -24.2224 1158.6 -23.674 1158.6 -23.0969C1159.38 -23.392 1160.12 -23.6505 1160.85 -23.9069ZM1147.38 -33.6419L1158.06 -29.4547C1158.23 -28.1701 1158.49 -26.8283 1158.56 -25.5824L1148.43 -29.596C1148.08 -30.9603 1147.85 -32.1899 1147.38 -33.6419ZM1140.44 -31.9667L1141.7 -31.4704C1141.74 -30.5182 1141.7 -29.7067 1141.73 -29.0338L1141.1 -29.232C1140.85 -30.113 1140.66 -30.9512 1140.44 -31.9667ZM1132.72 -30.0963L1137.36 -28.2682C1138.23 -25.0114 1138.62 -21.8855 1138.49 -18.8883L1133.85 -20.7164C1133.85 -23.469 1133.53 -26.4705 1132.72 -30.0963ZM1104.58 -23.2916L1108.32 -21.7822C1108.25 -21.4948 1108.1 -21.1666 1108.09 -20.9342C1107.3 -20.1763 1106.71 -19.5711 1106.04 -19.1067C1108.3 -18.8788 1109.9 -19.0938 1111.21 -20.0369C1111.35 -20.151 1111.45 -20.3752 1111.6 -20.4893L1116.91 -18.4181C1116.36 -17.4541 1115.86 -16.5451 1115.34 -15.8155C1114.79 -13.3508 1116.83 -13.431 1118.66 -12.9444C1119.4 -12.6584 1119.84 -12.077 1119.77 -10.6682L1104.06 -16.8571C1104.12 -16.8632 1104.21 -16.9712 1104.27 -16.9773C1105.51 -17.6003 1106.25 -17.0839 1104.58 -23.2916ZM1089.92 -22.4495C1089.91 -22.5311 1090.02 -22.6411 1090.11 -22.7328L1090.22 -22.7939L1090.05 -22.9082C1090.09 -22.8796 1090.16 -22.8368 1090.22 -22.7939L1090.27 -22.8489C1090.22 -22.8429 1090.44 -22.7346 1090.49 -22.6897C1090.91 -22.4203 1091.41 -22.2405 1091.87 -21.9752C1091.64 -22.0834 1091.37 -22.1876 1091.14 -22.2958L1090.95 -22.4244C1091.02 -22.3815 1091.08 -22.3386 1091.14 -22.3447C1091.14 -22.3447 1091.08 -22.3386 1091.02 -22.3326C1091.37 -22.1876 1091.71 -21.9916 1091.87 -21.9262C1091.88 -21.8773 1091.94 -21.8834 1091.94 -21.8834C1091.94 -21.8507 1092 -21.8568 1092 -21.8568C1092 -21.8568 1092 -21.8568 1092.06 -21.8139L1091.94 -21.8507C1092.27 -21.7363 1092.56 -21.5852 1092.91 -21.4402C1092.95 -21.4117 1093.08 -21.3749 1093.18 -21.3361C1093.18 -21.2871 1093.18 -21.2871 1093.18 -21.2871C1093.37 -21.2238 1093.54 -21.1421 1093.71 -21.0278C1093.54 -21.1421 1093.37 -21.2238 1093.15 -21.2831C1090.11 -20.2107 1087.07 -19.2525 1083.97 -18.2555C1084.12 -18.3207 1084.33 -18.4245 1084.47 -18.5386C1087.7 -20.4061 1088.91 -21.702 1089.92 -22.4495ZM77.7683 337.372C82.2038 337.82 88.0983 337.655 94.5525 337.168C75.2796 343.697 77.6568 339.923 77.7683 337.372ZM-32.2973 387.019C-32.5762 386.998 -32.8305 387.025 -33.0457 387.047C-32.4467 386.721 -31.9176 386.485 -31.2455 386.102C-31.551 386.397 -32.0113 386.725 -32.2973 387.019ZM-96.1034 412.751C-85.8371 407.071 -76.0341 402.264 -66.518 397.932C-65.6151 398.251 -65.6251 399.109 -65.3518 399.839C-74.424 404.257 -84.7781 409.088 -96.305 412.903C-96.2514 412.848 -96.1961 412.81 -96.1034 412.751ZM-81.6859 413.747C-82.671 414.163 -83.7148 414.584 -84.6446 414.961C-92.9285 418.209 -99.3029 420.04 -101.317 419.49C-83.7302 411.189 -48.2939 396.358 -35.3225 389.69C-39.349 392.811 -44.9158 396.14 -51.0728 399.498C-62.1217 404.302 -73.3385 409.586 -81.6859 413.747ZM-162.547 468.96L-160.652 471.6C-161.019 471.687 -161.323 471.801 -161.704 471.94L-163.353 469.571C-163.004 469.321 -162.748 469.113 -162.547 468.96ZM-165.08 470.657C-164.985 470.614 -164.99 470.565 -164.878 470.504L-163.428 472.481C-163.54 472.542 -163.638 472.552 -163.755 472.564L-165.08 470.657ZM-74.1423 592.4C-74.3975 592.607 -74.697 592.77 -74.9914 592.982L-75.6354 592.109C-75.7298 592.152 -75.9059 592.17 -75.9986 592.229L-75.3054 593.196C-75.5071 593.349 -75.7657 593.524 -75.9674 593.677L-76.7183 592.534C-79.2814 593.558 -81.7646 594.59 -84.7479 595.756C-82.3815 593.978 -80.1181 592.161 -78.1982 590.462L-78.624 589.978C-78.4189 589.858 -78.0948 589.742 -77.8898 589.622L-77.5983 589.954C-77.486 589.893 -77.4358 589.806 -77.3481 589.698L-77.4729 589.447C-77.2288 589.323 -76.9634 589.213 -76.6639 589.05C-76.6052 589.044 -76.6052 589.044 -76.6103 588.995L-76.5465 589.038C-76.3415 588.918 -76.1347 588.814 -75.871 588.687L-76.0707 588.477C-75.9031 588.378 -75.8137 588.286 -75.7065 588.176L-75.4542 588.512C-75.3615 588.453 -75.2491 588.392 -75.096 588.343L-75.4206 587.882C-75.2826 587.687 -75.0827 587.518 -74.9448 587.322L-74.435 588.044C-74.4401 587.995 -74.3814 587.989 -74.3814 587.989L-74.8895 587.283C-74.7482 587.12 -74.6443 586.978 -74.4963 586.88L-73.8556 587.72C-68.5572 585.045 -60.9717 580.781 -51.8315 575.3C-51.7958 575.264 -51.6784 575.252 -51.6248 575.197C-50.2976 575.603 -49.4654 576.193 -49.3776 577.041C-56.9095 581.25 -64.2698 585.59 -70.7473 590.053C-71.1625 590.244 -71.467 590.358 -71.8839 590.533L-71.7624 590.752C-71.8552 590.811 -72.0228 590.911 -72.1691 591.025L-72.3543 590.764C-72.413 590.77 -72.413 590.77 -72.4717 590.776L-72.2635 591.067C-72.4635 591.237 -72.6702 591.34 -72.8328 591.489L-73.1327 591.075C-73.245 591.136 -73.3981 591.185 -73.5495 591.25L-73.1808 591.756C-73.2736 591.815 -73.4216 591.913 -73.5339 591.974L-73.9664 591.425C-74.1765 591.496 -74.4402 591.622 -74.652 591.677L-74.1423 592.4ZM-67.73 599.336C-67.8781 599.434 -67.9904 599.495 -68.1418 599.56L-68.3941 599.224C-68.2818 599.163 -68.184 599.153 -68.0717 599.091C-68.1891 599.104 -68.2818 599.163 -68.3992 599.175L-69.9216 597.074C-69.7557 596.958 -69.6613 596.915 -69.549 596.854L-67.9203 599.026C-67.8258 598.984 -67.6549 598.916 -67.557 598.906L-69.1423 596.581C-68.9551 596.479 -68.7892 596.363 -68.5824 596.259L-66.8374 598.601L-66.7787 598.595L-68.4897 596.2C-68.3416 596.102 -68.1757 595.986 -68.0243 595.921L-66.2445 598.408C-66.2104 598.355 -66.1517 598.349 -66.093 598.343C-66.1517 598.349 -66.2054 598.404 -66.2445 598.408L-66.0593 598.669C-66.2158 598.685 -66.4276 598.74 -66.6427 598.762L-66.7099 598.687C-66.7048 598.736 -66.7635 598.742 -66.7635 598.742L-66.755 598.823C-66.8137 598.829 -66.8529 598.833 -66.9115 598.839C-67.0596 598.937 -67.211 599.002 -67.3769 599.118L-67.4899 598.982C-67.6464 598.998 -67.7638 599.01 -67.9152 599.075L-67.73 599.336ZM-31.6975 590.264C-29.6099 589.421 -27.6313 588.672 -25.594 587.917C-27.0575 589.058 -28.853 590.431 -31.0814 592.014C-33.052 592.267 -35.0388 592.555 -37.1184 592.902C-32.7632 590.473 -27.7428 587.596 -22.4093 584.686C-22.5371 584.979 -22.9353 585.334 -23.2162 585.676C-26.1037 587.195 -29.0923 588.692 -31.6975 590.264ZM88.9031 551.282C93.1473 549.309 97.0283 547.457 100.528 545.742C101.317 545.529 102.066 545.319 102.85 545.057C98.0856 547.166 93.4748 549.226 88.9031 551.282ZM180.013 517.53C161.865 524.421 146.38 529.915 150.995 524.656C160.992 520.769 174.072 515.524 183.258 511.638C189.833 509.638 196.345 507.612 202.955 505.575C198.318 507.952 195.697 509.756 194.526 511.048C189.53 513.016 184.743 515.095 180.013 517.53ZM930.302 980.011C955.086 970.768 971.52 966.032 986.66 961.975C979.212 966.044 971.756 970.031 964.354 973.963C960.867 975.808 957.411 977.567 953.98 979.373C947.323 979.617 935.866 981.43 930.302 980.011ZM998.728 1191.2C996.024 1192.39 993.334 1193.53 990.624 1194.66C995.58 1192.31 998.884 1190.61 1000.46 1189.57C999.864 1190.15 999.211 1190.71 998.728 1191.2ZM1015.89 1187.4C1011.35 1189.53 1007.07 1191.61 1003.2 1193.54C1007.63 1191.24 1012.05 1188.92 1016.94 1186.47C1016.66 1186.78 1016.19 1187.09 1015.89 1187.4ZM1396.92 991.697C1393.78 992.121 1390.3 992.663 1386.63 993.356C1391.76 989.347 1396.41 985.65 1400.87 982.105C1404.66 981.086 1408.51 980.061 1412.37 978.985C1407 983.202 1401.86 987.444 1396.92 991.697ZM1402.14 991.289C1401.18 991.356 1400.31 991.347 1399.34 991.397C1430.98 969.326 1419.83 977.932 1402.14 991.289ZM2060.67 855.114C2043.05 857.795 2028.31 859.734 2015.07 861.335C2019.26 860.406 2022.99 859.691 2025.62 859.518C2027.18 855.102 2035.21 849.391 2056.4 840.997L2056.24 840.569C2056.3 840.563 2056.3 840.563 2056.3 840.563L2056.44 840.96C2057.03 840.751 2057.44 840.527 2058.01 840.336C2059.57 840.899 2062.08 840.871 2065.64 840.272L2047.1 779.077C2044.55 779.077 2041.39 779.305 2037.89 779.668L2038.89 783.043C2038.89 783.043 2038.89 783.043 2038.85 783.047L2037.85 779.672C2015.33 782.135 1975.64 791.587 1947.55 797.166C1965.37 784.423 1896.13 800.594 1858.61 807.99C1807.02 812.804 1820.71 804.693 1805.46 802.974C1789.14 809.725 1742.85 818.261 1716.23 825.996C1716.23 823.918 1701.75 826.457 1698.5 825.441C1761.35 808.843 1913.72 781.445 2002.61 761.804C1971.14 765.293 1897.24 781.354 1895.28 777.121C1909.13 774.368 1930.55 771.211 1931.09 769.16C1884.3 772.157 1766.05 788.967 1806.21 774.093C1772.27 779.866 1766.45 783.815 1734.34 789.53C1730.36 788.722 1733.88 785.505 1716.49 788.806C1713.18 796.568 1777.01 784.255 1787.99 787.735C1764.17 794.306 1721.34 802.038 1716.3 807.407C1815.72 789.974 1812.42 788.404 1823.82 781.272C1829.26 785.176 1886.02 774.189 1877.32 782.196C1866.01 783.036 1830.75 788.056 1795.81 794.163C1760.86 800.486 1726.22 807.369 1716.3 811.563C1736.22 811.313 1847.31 782.401 1859.19 789.497C1813.19 795.48 1730.06 811.407 1698.44 823.402C1681.35 826.343 1672.6 826.622 1664.31 827.348C1673.21 817.425 1703.63 797.096 1711.62 787.81C1714.9 786.036 1718.22 784.11 1721.56 782.181C1734.34 779.951 1745.38 777.72 1752.46 775.898C1746.58 776.145 1736.6 777.722 1726.68 779.294C1813.35 729.414 1926.03 653.315 2033.21 586.606L1869.12 330.298C1838.42 342.759 1808.79 354.418 1780.4 365.123L1779.46 363.372C1799.34 355.396 1816.37 348.027 1822.87 343.232C1815.39 348.524 1794.48 355.982 1778.06 360.896L1776.14 357.386C1777.6 356.871 1779.26 356.254 1780.94 355.668C1779.32 356.248 1777.7 356.812 1776.14 357.386L1765.42 338.331C1768.79 335.723 1772.22 333.11 1775.45 330.335C1793.42 315.449 1808.02 297.714 1817.32 283.907C1821.84 276.746 1825.26 270.654 1827.67 266.051C1829.83 261.31 1831.02 258.12 1831.21 256.832C1813.1 285.103 1796.2 301.378 1783.92 313.218C1775.37 321.16 1768.5 327.213 1762.17 332.518L1748.07 307.3C1759.55 305.074 1769.63 302.942 1776.96 301.012L1774.75 299.526C1764.69 301.293 1755.37 302.934 1746.47 304.433L1746.14 303.841C1747.81 300.189 1750.5 296.745 1758.09 288.276L1730.51 269.615C1731.09 269.505 1731.67 269.396 1732.19 269.259L1758.9 287.335C1762.3 283.536 1766.55 278.893 1772.19 272.702C1783.31 263.455 1786.78 261.794 1787.72 265.126C1788.65 268.426 1785.88 275.638 1783.09 282.109C1780.46 288.763 1777.64 294.017 1779.86 293.837C1781.89 293.627 1789.66 288.041 1803.97 269.099C1803.13 268.246 1799.53 272.312 1795.19 276.521C1790.79 280.637 1785.96 285.16 1783.57 286.396C1796.11 272.27 1803.59 260.648 1808.55 251.676C1813.58 242.614 1816.61 236.184 1818.57 230.606C1822.86 219.544 1825.03 212.311 1828.86 194.818C1822.94 211.935 1819.28 218.644 1818.54 219.266C1817.89 219.91 1819.79 214.52 1822.09 207.01C1827.31 191.912 1830.01 169.243 1827.97 170.542C1825.87 187.939 1821.86 199.615 1818.69 205.995C1815.61 212.38 1813.73 213.696 1813.12 211.418C1812.45 209.179 1813.09 203.326 1814.11 195.438C1814.52 187.713 1816.07 177.66 1816.2 167.292C1812.29 189.889 1805.83 202.858 1801.03 213.577C1798.12 218.891 1795.42 223.786 1792.46 229.204C1789.16 234.509 1785.54 240.407 1780.65 247.607C1802.36 211.806 1807.1 179.478 1808.86 157.649L1813.97 92.4718L1731.09 105.027C1700.24 109.721 1683.51 109.508 1684.57 105.062C1681.31 108.73 1641.76 115.1 1613.68 120.975C1586.05 129.458 1599.78 134.4 1543.02 145.438C1542.07 136.27 1618.11 113.921 1525.11 126.402C1508.87 133.376 1518.99 137.967 1489.69 146.112C1461.45 151.394 1456.04 149.414 1437.7 151.726L1430.69 135.403C1433.23 134.382 1435.3 133.392 1436.14 132.498C1434.29 132.953 1432.22 133.447 1430.04 133.937L1395.88 54.1135C1386.37 55.6748 1384.23 56.44 1396.07 55.5776L1429.67 134.024C1427.94 134.435 1426.08 134.841 1424.11 135.276L1399.65 78.1735C1384.62 80.0429 1369.6 82.1427 1355.14 84.4142L1350.7 73.9758C1350.43 74.0858 1350.19 74.21 1349.92 74.3199L1354.29 84.5522C1354.19 84.5624 1354.07 84.5745 1353.91 84.5907L1349.62 74.4502C1349.21 74.6742 1348.73 74.8553 1348.32 75.0304L1352.53 84.8161C1351.62 84.9602 1350.67 85.141 1349.81 85.279L1345.88 76.1399C1345.73 76.205 1345.58 76.3191 1345.41 76.37L1349.29 85.3337C1348.26 85.539 1347.21 85.6809 1346.19 85.8352L1342.67 77.6097C1342.41 77.7196 1342.16 77.8439 1341.9 77.9538L1345.38 86.0018C1345.17 86.0241 1344.91 86.0504 1344.7 86.0727L1341.33 78.194C1333.6 81.665 1325.64 85.3417 1313.53 91.8884C1312.89 92.0042 1312.31 92.1465 1311.73 92.2562C1311.87 92.1095 1311.95 91.9526 1312.21 91.7448C1315.23 90.6235 1316.54 89.6803 1316.45 88.8321C1322.05 85.2678 1330.99 80.452 1340.19 75.5589L1339.19 73.1726C1330.54 76.6899 1321.58 81.2447 1311.62 86.6613C1309.97 86.338 1307.93 86.0043 1305.46 85.7986C1314.19 81.1029 1322.98 76.4338 1331.21 72.1028C1333.58 71.8577 1335.92 71.6147 1338.38 71.3105L1337.32 68.8488C1337.49 68.749 1337.67 68.6309 1337.88 68.5597L1339.03 71.2437C1339.36 71.2093 1339.62 71.1829 1339.89 71.1546L1338.61 68.1708L1334.03 57.5651C1333.83 57.6853 1333.58 57.7932 1333.32 57.9194L1337.74 68.1783C1337.46 68.1577 1337.25 68.18 1337.03 68.1533L1332.76 58.2085C1332.64 58.2207 1332.54 58.2634 1332.43 58.3245C1332.42 58.243 1332.62 58.0412 1332.61 57.9434L1327.03 44.8699C1311.52 54.1587 1303.2 60.7243 1286.83 70.2837C1272.53 71.3034 1257.49 72.7772 1241.1 74.6559C1241.62 73.9263 1242.05 73.2884 1242.3 72.7177C1241.57 73.4695 1240.92 74.0808 1240.24 74.7939C1238.37 74.9883 1236.43 75.2215 1234.52 75.4689C1240.67 68.9629 1247.29 61.1217 1253.55 51.851C1262.13 39.4215 1268.75 24.3585 1272.52 11.0917C1274.22 4.45213 1275.32 -1.76176 1276.09 -7.26633C1276.69 -12.5712 1276.76 -17.1119 1276.82 -20.6799C1276.95 -27.8487 1276.3 -30.5344 1276.26 -27.6779C1276.15 -26.1835 1275.97 -23.1313 1275.61 -18.2952C1275.29 -13.4815 1274.67 -6.85545 1272.46 2.14488C1268.49 21.8626 1259.53 40.1028 1249.51 53.7525C1244.52 61.0953 1239.34 66.6111 1234.15 72.4408C1232.97 73.6348 1231.78 74.7636 1230.59 75.9249C1195.8 80.1539 1154.55 86.3703 1101.73 94.6911C1122.42 86.7618 1143.21 77.4707 1162.6 64.6145C1172.74 57.9583 1182.62 49.6973 1191.09 40.4119L1188.94 39.448C1189.71 39.1039 1190.61 38.8293 1191.32 38.4424L1192.52 38.9448C1193.05 38.3131 1193.57 37.5672 1194.15 36.9295C1196.41 35.7892 1198.74 34.6409 1200.72 33.3476C1198.92 33.9458 1197.36 34.4707 1195.67 35.0078C1202.85 26.17 1208.62 16.4871 1211.9 6.28857C1219.95 -16.968 1215.26 -36.6469 1210.41 -48.9389L1201.51 -71.5283L1208.04 -48.3309C1212.65 -32.1223 1213.26 -10.9007 1204.38 9.50688C1202.69 13.2594 1200.57 16.7771 1198.44 20.2459L1190.53 17.1901C1191.58 15.68 1192.71 14.1618 1193.55 12.8044C1192.39 13.2379 1191.2 13.7244 1190.06 14.1558C1189.05 15.5294 1188.32 16.2812 1187.93 16.1403L1187.82 16.1015C1187.69 15.9342 1187.6 15.6793 1187.66 15.1288C1187.72 15.1227 1187.72 15.1227 1187.72 15.0738C1187.3 15.2651 1186.93 15.4361 1186.52 15.5602L1185.85 15.3171C1185.69 15.5148 1185.61 15.7533 1185.48 15.9489C1185.48 15.9489 1185.48 15.9489 1185.48 15.9816C1181.2 17.6444 1176.93 19.3562 1172.57 21.127C1174.88 18.4474 1177.04 15.6352 1179 12.6291L1178.1 12.2778C1178.62 12.1742 1179.1 12.042 1179.58 11.8935C1179.8 11.5572 1180.11 11.2944 1180.29 10.9622C1181.08 9.75977 1181.67 8.56129 1182.35 7.35268L1188.45 9.75471C1188.57 9.74257 1188.62 9.68755 1188.66 9.6835C1188.67 9.73243 1188.67 9.78137 1188.63 9.78542L1190.26 10.4247C1190.5 10.0049 1190.73 9.61765 1190.94 9.18352C1191.64 9.02904 1192.43 8.79919 1193.13 8.69365L1191.54 8.03397C1196.24 -1.48863 1198.61 -11.0985 1198.94 -19.36C1199.59 -24.7199 1198.69 -29.2755 1198.48 -33.7715C1197.82 -38.0557 1196.95 -41.8895 1196.14 -45.4664L1190.72 -70.5429L1159.51 -59.8929C1093.42 -37.3211 1117.22 -42.7688 1160.68 -57.3923L1188.14 -66.6156L1193.02 -44.6978C1194.94 -36.027 1196.97 -26.3936 1195.69 -15.6269C1195.1 -8.87239 1193.33 -1.96166 1190.76 4.73443L1191.32 4.9897C1191.11 5.0446 1190.8 5.12593 1190.59 5.14822C1190.29 5.90446 1190.08 6.60163 1189.72 7.315L1186.73 6.14053C1185.31 6.51878 1183.94 6.84202 1182.4 7.2161C1182.86 6.49261 1183.33 5.71814 1183.74 4.94975L1180.06 3.53421C1181.66 3.13772 1183.18 2.71673 1184.66 2.33241L1184.83 2.4467C1184.88 2.3917 1184.94 2.35299 1184.93 2.30406C1186.45 1.86674 1187.99 1.49265 1189.46 1.11035L1185.95 -0.241853C1191.45 -14.1986 1191.74 -29.6942 1188.1 -43.5126L1183.52 -60.4327L1162.6 -53.5354C1137.51 -45.1831 1111.57 -36.0341 1084.69 -26.0132C1084.27 -26.25 1083.81 -26.4338 1083.41 -26.7053C1083.81 -26.4338 1084.12 -26.1848 1084.52 -25.9134C1084.01 -26.2236 1083.59 -26.542 1083.12 -26.8563C1083.01 -26.9278 1082.91 -26.9666 1082.78 -27.036C1083.25 -26.6891 1083.82 -26.3359 1084.52 -25.9134C1080.77 -24.5356 1077.06 -23.1456 1073.25 -21.7129C1073.34 -21.772 1073.55 -21.8758 1073.66 -21.9369C1077.6 -24.2075 1079.91 -25.9309 1081.45 -26.7658C1081.81 -27.0836 1082.44 -27.2809 1082.49 -27.236L1080.17 -28.7607C1080.12 -28.7057 1080.19 -28.6302 1080.06 -28.6996C1079.97 -28.6079 1079.15 -28.111 1078.29 -27.4449C1074.41 -24.6359 1065.64 -19.7547 1056.46 -15.2755C1047.6 -11.8685 1038.74 -8.42886 1029.63 -4.76513C1032.76 -5.50105 1036.69 -6.63398 1041.21 -8.04178C1025.75 -0.802121 1012.13 5.86791 1007.02 11.9036C1009.91 10.978 1012.73 10.0094 1015.5 9.07954C1022.86 7.37808 1020.38 8.9871 1012.44 12.4804C1010.81 12.9625 1009.28 13.3508 1007.44 13.9041C1007.2 14.2424 1007.17 14.5095 1006.98 14.8091C995.504 19.6578 978.071 26.574 961.476 33.3867C958.918 32.1677 944.861 35.7994 928.857 40.2922C929.564 39.8564 930.328 39.4145 930.995 38.9827C929.849 39.563 928.624 40.1351 927.433 40.6705C927.165 40.7478 926.894 40.8087 926.684 40.88C904.02 47.1176 877.173 56.4922 883.993 49.9989C908.708 41.0265 930.489 34.6659 948.808 29.4223C967.135 24.2603 981.78 20.5841 991.579 18.7947C972.831 20.4556 939.151 26.663 903.811 36.7025C894.956 39.2022 885.981 42.077 877.302 45.1354C872.869 46.8145 868.587 48.4283 864.518 49.9873C861.255 51.3144 858.125 52.5947 855.23 53.8507C843.427 58.8154 834.555 63.2623 830.612 66.424C825.924 64.1065 847.981 54.6837 844.889 51.9371C763.616 98.0092 676.739 120.705 533.574 181.594C580.489 159.425 486.287 189.474 482.545 195.154C500.509 188.578 522.961 182.775 500.057 192.615C446.347 212.553 468.145 200.618 449.104 206.151C445.239 208.727 437.832 212.61 430.153 216.357C424.807 217.619 419.561 218.888 414.227 220.264C414.897 219.865 415.364 219.603 416.129 219.161C414.302 219.844 412.779 220.414 411.162 221.027C397.173 224.553 382.973 228.331 368.689 232.25C425.069 210.222 486.407 187.961 546.301 161.101C533.992 161.568 448.524 201.116 462.412 187.643C384.258 220.878 210.406 295.298 230.142 272.81C188.604 288.866 162.1 300.975 137.229 312.635C106.506 321.24 78.1651 329.747 70.2007 333.407C88.0469 328.757 104.522 324.611 120.469 320.52C117.47 321.918 114.432 323.321 111.378 324.758C102.208 326.895 90.575 330.259 75.0958 335.621C73.3023 335.675 70.3857 336.339 65.5039 337.884C50.5578 350.494 38.9268 351.204 16.0227 357.417C17.0485 358.349 15.4758 359.963 11.9645 362.14C9.74699 362.683 7.41722 363.287 4.99471 363.95C12.1613 359.267 21.7284 353.71 36.1607 346.066C12.4104 355.944 -6.30683 364.213 -22.5027 371.628C-22.5563 371.683 -22.615 371.689 -22.6541 371.693C-20.9865 370.613 -19.2015 369.522 -17.4165 368.43C-21.14 370.085 -24.8245 371.736 -28.5089 373.387C-77.4914 387.807 -137.645 407.373 -150.397 412.535C-125.318 407.086 -86.2128 394.085 -46.8409 381.748C-89.984 401.581 -127.059 420.061 -130.111 424.004C-144.897 429.377 -162.406 435.756 -178.549 441.583L-176.58 444.363C-160.416 438.172 -143.155 431.686 -128.724 425.938C-137.128 430.699 -146.166 436.021 -156.172 442.118C-161.438 444.147 -167.095 446.415 -173.234 448.996L-171.387 451.558C-171.555 451.658 -171.701 451.772 -171.849 451.87L-173.749 449.181C-173.807 449.187 -173.802 449.236 -173.861 449.242L-171.961 451.931C-172.108 452.045 -172.373 452.155 -172.516 452.301L-174.547 449.494C-174.7 449.543 -174.792 449.602 -174.963 449.669L-172.869 452.519C-173.021 452.584 -173.128 452.694 -173.281 452.743L-175.361 449.843C-175.566 449.963 -175.778 450.018 -176.041 450.144L-173.889 453.169C-177.804 455.652 -181.722 458.102 -185.946 460.847C-190.839 468.576 -183.37 464.142 -171.79 456.068L-171.421 456.574C-171.21 456.519 -170.946 456.393 -170.697 456.317L-171.177 455.691C-171.029 455.593 -170.941 455.485 -170.827 455.44L-170.28 456.142C-170.162 456.13 -170.011 456.065 -169.858 456.016L-170.479 455.174C-170.274 455.053 -170.072 454.901 -169.865 454.797L-169.172 455.764C-169.172 455.764 -169.119 455.709 -169.079 455.705L-169.812 454.742C-169.665 454.628 -169.517 454.53 -169.371 454.416L-168.545 455.518C-148.146 447.833 -125.695 439.54 -101.81 429.433C-100.097 429.173 -98.5237 429.093 -97.2593 429.275C-115.514 437.233 -141.921 448.194 -166.826 457.994L-163.776 462.245C-163.947 462.312 -164.093 462.426 -164.246 462.475L-167.3 458.191C-167.339 458.195 -167.397 458.202 -167.394 458.234L-164.359 462.536C-164.505 462.65 -164.77 462.76 -164.975 462.881L-168.08 458.487C-168.231 458.552 -168.343 458.613 -168.495 458.678L-165.329 463.098C-165.482 463.147 -165.574 463.206 -165.745 463.274L-168.917 458.804C-169.161 458.928 -169.373 458.983 -169.636 459.109L-166.359 463.65C-166.663 463.764 -166.961 463.943 -167.28 464.108L-170.568 459.47C-170.739 459.537 -170.832 459.596 -170.988 459.612L-167.638 464.277C-173.649 467.521 -180.929 471.49 -186.659 474.391L-94.2638 603.337C-86.0435 601.002 -81.3664 600.155 -88.5537 604.064C-90.1893 604.498 -91.706 604.935 -93.3417 605.368L-188.913 471.904C-185.192 469.079 -179.19 464.797 -170.887 459.058L-171.073 458.796C-177.046 462.399 -183.337 466.183 -190.316 470.384L-93.6105 605.445C-109.045 609.714 -122.447 614.317 -128.801 618.454C-107.585 613.306 -78.3595 605.136 -66.2201 603.417L-65.5218 604.433C-82.1461 609.238 -77.6223 611.11 -94.5154 615.992C-102.64 614.476 -133.982 621.875 -160.872 627.594L-157.535 637.29C-133.968 632.327 -106.475 625.177 -77.1494 615.678C-72.5938 618.24 -62.8466 618.814 -52.3116 618.976L-51.7331 619.79C-51.6795 619.735 -51.6795 619.735 -51.6258 619.68L-52.1943 618.964C-51.9204 618.935 -51.7002 618.962 -51.5437 618.946L-51.2421 619.376C-51.037 619.256 -50.8354 619.103 -50.6695 618.987C-49.4219 619.006 -48.176 619.009 -46.9888 619.018C-48.2512 619.429 -49.4565 619.818 -50.6652 620.174L-50.2243 620.804C-106.121 633.368 -109.902 642.3 -144.172 641.281C-142.997 643.649 -145.35 646.514 -153.107 650.268L-152.55 651.827C-99.3068 638.268 -94.6588 643.442 -41.0459 629.252C-25.9121 619.408 34.5956 604.784 -25.1318 616.442C-8.20998 611.838 -5.17462 609.265 8.45652 605.15C51.2023 591.408 68.46 597.305 92.664 583.406C66.898 590.047 89.9312 581.644 109.52 578.545C106.301 576.289 114.47 569.261 91.5423 575.245C64.6613 588.877 -18.7981 606.389 -26.5175 604.203C25.5741 590.979 86.23 573.586 135.179 560.373C145.185 557.524 154.502 554.894 163.366 552.476C154.89 557.112 148.935 560.895 147.283 563.275C187.193 544.865 176.424 551.998 164.585 560.049C142.39 566.815 120.351 574.884 110.038 582.596C126.588 578.031 142.304 574.194 157.315 570.612C137.936 580.697 118.628 590.709 96.4166 601.319C95.9377 601.467 95.5353 601.591 95.0565 601.74C66.5335 605.814 96.3046 598.709 94.0572 593.616C41.4546 611.263 52.776 602.407 26.2261 608.734C22.2796 614.155 -47.9389 629.702 -57.822 635.836C-29.2284 638.745 -59.8116 637.625 -91.3534 650.734C-87.5604 650.704 -76.1474 651.517 -81.048 655.553C-88.71 658.506 -96.3702 661.475 -103.404 664.198C-104.731 664.55 -105.935 664.955 -107.418 665.339C-122.003 668.828 -134.448 671.798 -144.809 674.272L-141.637 683.523C-141.637 683.523 -141.637 683.523 -141.696 683.529L-144.868 674.279C-144.926 674.285 -145.024 674.295 -145.079 674.333L-141.906 683.6C-142.003 683.611 -142.062 683.617 -142.16 683.627L-145.353 674.362C-145.446 674.421 -145.563 674.433 -145.603 674.437L-142.429 683.704C-142.487 683.71 -142.487 683.71 -142.487 683.71L-145.661 674.443C-145.813 674.508 -145.93 674.52 -146.028 674.53L-142.851 683.83C-142.851 683.83 -142.851 683.83 -142.909 683.836L-146.087 674.537C-146.14 674.592 -146.14 674.592 -146.199 674.598L-143.007 683.846C-144.162 684.147 -145.225 684.389 -146.399 684.692L-115.53 774.321C-116.664 775.015 -116.666 775.378 -115.208 775.326L-109.401 792.267C-112.911 793.884 -116.688 795.594 -121.161 797.459L-2.76308 1016.77C1.35071 1015.25 6.27761 1013.57 11.6689 1011.79L13.3408 1014.19C5.50211 1019.26 -0.847521 1024.38 16.4755 1018.88L38.7291 1052.02C28.2693 1058.32 18.9598 1063.88 10.6432 1068.91L135.682 1254.97C146.781 1250.66 156.882 1246.63 166.832 1242.66L196.63 1286.99C286.909 1231.09 374.203 1183.58 454.673 1141.78C383.457 1178.64 480.039 1125.55 483.025 1118.68C371.634 1171.19 271.453 1233.05 207.54 1265.57C253.206 1241.27 223.376 1248.38 260.528 1227.59C304.966 1204.98 392.619 1160.38 466.262 1122.91C473.237 1119.43 479.986 1116.06 486.637 1112.7C511.188 1103.3 537.937 1092.98 567.079 1081.33C567.566 1083.35 581.184 1078.73 584.804 1079.13C528.238 1100.89 558.738 1095.48 518.115 1103.76C528.093 1109.42 545.246 1111.25 486.823 1124.04C496.702 1123.6 469.895 1141.58 505.885 1127.89C552.609 1115.34 574.713 1098.34 655.06 1070.63C672.819 1072.01 580.765 1099.89 590.496 1103.17C637.404 1085.52 630.631 1094.96 675.112 1078.5C657.674 1071.81 756.403 1040.42 790.588 1031.46C809.539 1017.43 736.286 1049.87 755.424 1035.74C772.091 1029.63 774.823 1026.81 788.148 1021.46C777.921 1031.52 827.143 1011.58 825.086 1017.5C806.357 1026.03 786.801 1035.56 768.485 1045.6L907.733 1267.5C918.216 1262.39 928.246 1257.1 937.486 1251.62C926.838 1256.11 915.356 1260.92 906.208 1264.8L770.312 1048.16C786.299 1040.64 797.419 1036.14 793.338 1041.21C787.55 1043.94 781.086 1047 772.417 1051.11L904.54 1261.68C918.713 1255.73 935.072 1248.74 952.604 1241.06C969.897 1233.17 987.812 1224.02 1006.22 1214.85C1024.09 1205.26 1041.96 1195.14 1059.04 1185.19C1075.64 1174.83 1091.62 1164.69 1105.67 1154.96C1085.48 1169.43 1092.25 1166.06 1103.29 1160.58C1114.14 1155.02 1128.78 1147.09 1125.27 1153.11C1071.44 1187.7 1019.77 1210.77 973.437 1235.47C1002.2 1225.67 1056.04 1198.02 1079.36 1188.74C1048.24 1206.52 1090.32 1186.75 1064.18 1201.79C1039.73 1213.87 1042.83 1207.76 1027.42 1213.82C1006.53 1226.29 991.959 1232.18 981.839 1236.99C971.422 1241.6 964.971 1244.79 957.452 1249.69C965.282 1248.75 978.262 1243.87 995.231 1237.06C1012.36 1230.25 1032.4 1220.68 1053.84 1209.87C1075.69 1199.33 1097.47 1186.64 1119.75 1174.65C1141.02 1162.14 1162.71 1150.17 1180.93 1139.15C1184.86 1131.7 1159.39 1147.53 1134.2 1161.81C1109.63 1176.37 1084.75 1188.86 1095.28 1177.55C1142.78 1147.27 1190.18 1114.55 1233.37 1087.16C1249.08 1081.69 1264.4 1076.35 1279.11 1071.13C1262.75 1076.62 1248.66 1081.29 1236.38 1085.27C1253.64 1074.39 1270.16 1064.41 1285.71 1055.84C1302.6 1049.43 1316.97 1043.65 1325.87 1039.51C1320.32 1040.91 1313.43 1042.93 1305.87 1045.29C1308.5 1043.98 1311.13 1042.67 1313.66 1041.5C1318.01 1037.44 1323.55 1033.29 1329.95 1028.66C1339.73 1025.75 1351.43 1022.46 1365.96 1018.78C1364.31 1020.22 1364.59 1020.27 1367.81 1018.32C1370.14 1017.72 1372.35 1017.16 1374.78 1016.54C1385.3 1009.27 1409.38 999.954 1438 989.885C1426.87 1001.21 1399.88 1021.23 1390.84 1031.3C1403.66 1020.12 1427.21 1002.94 1451.51 985.37C1482.03 975.747 1515.51 965.141 1543.38 956.32C1523.91 958.254 1484.18 970.05 1467.25 973.979C1477.44 966.593 1487.36 959.317 1496.32 952.603C1548.39 940.716 1613.47 925.387 1679.58 910.892C1772.93 889.966 1867.96 870.367 1927.39 855.806C1974.1 847.391 2000.69 846.039 2024.37 844.182C2014.27 846.76 2002.99 849.923 1988.83 854.423C1973.2 859.52 1960.81 863.968 1950.34 868.037C1937.88 869.327 1924.66 870.91 1909.11 873.114C1905.66 880.115 1814.37 892.189 1821.12 898.81C1891.46 885.922 1899.5 885.55 1856 896.749C1874.95 893.93 1892.62 890.831 1909.52 887.58C1908.15 888.448 1906.78 889.364 1905.56 890.216C1909.77 888.873 1913.95 887.353 1918.14 885.88C1967.81 876.121 2011.41 865.143 2060.78 855.597L2060.67 855.114Z" fill="#FFF5E0" fill-opacity="0.03"/>
</svg>
