<svg width="1920" height="2485" viewBox="0 0 1920 2485" fill="none" xmlns="http://www.w3.org/2000/svg">
<path d="M122.327 0L123.895 2481.04" stroke="#808080" stroke-opacity="0.4"/>
<path d="M0 125.463L1919.59 122.327" stroke="#808080" stroke-opacity="0.4"/>
<path d="M0 250.927L1919.59 247.79" stroke="#808080" stroke-opacity="0.4"/>
<path d="M0 376.391L1919.59 373.254" stroke="#808080" stroke-opacity="0.4"/>
<path d="M0 501.854L1919.59 498.717" stroke="#808080" stroke-opacity="0.4"/>
<path d="M0 627.317L1919.59 624.181" stroke="#808080" stroke-opacity="0.4"/>
<path d="M0 752.781L1919.59 749.644" stroke="#808080" stroke-opacity="0.4"/>
<path d="M0 878.244L1919.59 875.108" stroke="#808080" stroke-opacity="0.4"/>
<path d="M0 1003.71L1919.59 1000.57" stroke="#808080" stroke-opacity="0.4"/>
<path d="M0 1129.17L1919.59 1126.03" stroke="#808080" stroke-opacity="0.4"/>
<path d="M0 1756.49L1919.59 1753.35" stroke="#808080" stroke-opacity="0.4"/>
<path d="M0 1881.95L1919.59 1878.82" stroke="#808080" stroke-opacity="0.4"/>
<path d="M0 2007.42L1919.59 2004.28" stroke="#808080" stroke-opacity="0.4"/>
<path d="M0 2132.88L1919.59 2129.74" stroke="#808080" stroke-opacity="0.4"/>
<path d="M0 2258.34L1919.59 2255.21" stroke="#808080" stroke-opacity="0.4"/>
<path d="M0 2383.81L1919.59 2380.67" stroke="#808080" stroke-opacity="0.4"/>
<path d="M0 1254.63L1919.59 1251.5" stroke="#808080" stroke-opacity="0.4"/>
<path d="M0 1380.1L1919.59 1376.96" stroke="#808080" stroke-opacity="0.4"/>
<path d="M0 1505.56L1919.59 1502.42" stroke="#808080" stroke-opacity="0.4"/>
<path d="M0 1631.02L1919.59 1627.89" stroke="#808080" stroke-opacity="0.4"/>
<path d="M244.653 0L246.222 2481.04" stroke="#808080" stroke-opacity="0.4"/>
<path d="M366.98 0L368.548 2481.04" stroke="#808080" stroke-opacity="0.4"/>
<path d="M489.308 0L490.876 2481.04" stroke="#808080" stroke-opacity="0.4"/>
<path d="M1100.94 3.13672L1102.51 2484.18" stroke="#808080" stroke-opacity="0.4"/>
<path d="M1223.27 0L1224.84 2481.04" stroke="#808080" stroke-opacity="0.4"/>
<path d="M1345.6 0L1347.16 2481.04" stroke="#808080" stroke-opacity="0.4"/>
<path d="M1467.92 0L1469.49 2481.04" stroke="#808080" stroke-opacity="0.4"/>
<path d="M1590.25 0L1591.82 2481.04" stroke="#808080" stroke-opacity="0.4"/>
<path d="M1712.58 0L1714.14 2481.04" stroke="#808080" stroke-opacity="0.4"/>
<path d="M1834.9 0L1836.47 2481.04" stroke="#808080" stroke-opacity="0.4"/>
<path d="M611.634 0L613.203 2481.04" stroke="#808080" stroke-opacity="0.4"/>
<path d="M733.961 0L735.529 2481.04" stroke="#808080" stroke-opacity="0.4"/>
<path d="M856.288 0L857.857 2481.04" stroke="#808080" stroke-opacity="0.4"/>
<path d="M978.615 0L980.183 2481.04" stroke="#808080" stroke-opacity="0.4"/>
</svg>
