<svg width="569" height="544" viewBox="0 0 569 544" fill="none" xmlns="http://www.w3.org/2000/svg">
<path d="M1.69 357.38C2.62336 357.38 3.38 356.623 3.38 355.69C3.38 354.757 2.62336 354 1.69 354C0.756637 354 0 354.757 0 355.69C0 356.623 0.756637 357.38 1.69 357.38Z" fill="#FF9FF4"/>
<path d="M25.0699 357.38C26.0032 357.38 26.7599 356.623 26.7599 355.69C26.7599 354.757 26.0032 354 25.0699 354C24.1365 354 23.3799 354.757 23.3799 355.69C23.3799 356.623 24.1365 357.38 25.0699 357.38Z" fill="#FF9FF4"/>
<path d="M48.45 357.38C49.3834 357.38 50.14 356.623 50.14 355.69C50.14 354.757 49.3834 354 48.45 354C47.5167 354 46.76 354.757 46.76 355.69C46.76 356.623 47.5167 357.38 48.45 357.38Z" fill="#FF9FF4"/>
<path d="M73.5201 355.69C73.5201 356.62 72.7601 357.38 71.8301 357.38C70.9001 357.38 70.1401 356.62 70.1401 355.69C70.1401 354.76 70.9001 354 71.8301 354C72.7601 354 73.5201 354.76 73.5201 355.69Z" fill="#FF9FF4"/>
<path d="M96.9 355.69C96.9 356.62 96.14 357.38 95.21 357.38C94.28 357.38 93.52 356.62 93.52 355.69C93.52 354.76 94.28 354 95.21 354C96.14 354 96.9 354.76 96.9 355.69Z" fill="#FF9FF4"/>
<path d="M118.59 357.38C119.523 357.38 120.28 356.623 120.28 355.69C120.28 354.757 119.523 354 118.59 354C117.657 354 116.9 354.757 116.9 355.69C116.9 356.623 117.657 357.38 118.59 357.38Z" fill="#FF9FF4"/>
<path d="M141.97 357.38C142.903 357.38 143.66 356.623 143.66 355.69C143.66 354.757 142.903 354 141.97 354C141.037 354 140.28 354.757 140.28 355.69C140.28 356.623 141.037 357.38 141.97 357.38Z" fill="#FF9FF4"/>
<path d="M165.35 357.38C166.284 357.38 167.04 356.623 167.04 355.69C167.04 354.757 166.284 354 165.35 354C164.417 354 163.66 354.757 163.66 355.69C163.66 356.623 164.417 357.38 165.35 357.38Z" fill="#FF9FF4"/>
<path d="M188.73 357.38C189.663 357.38 190.42 356.623 190.42 355.69C190.42 354.757 189.663 354 188.73 354C187.797 354 187.04 354.757 187.04 355.69C187.04 356.623 187.797 357.38 188.73 357.38Z" fill="#FF9FF4"/>
<path d="M1.69 380.76C2.62336 380.76 3.38 380.003 3.38 379.07C3.38 378.137 2.62336 377.38 1.69 377.38C0.756637 377.38 0 378.137 0 379.07C0 380.003 0.756637 380.76 1.69 380.76Z" fill="#FF9FF4"/>
<path d="M25.0699 380.76C26.0032 380.76 26.7599 380.003 26.7599 379.07C26.7599 378.137 26.0032 377.38 25.0699 377.38C24.1365 377.38 23.3799 378.137 23.3799 379.07C23.3799 380.003 24.1365 380.76 25.0699 380.76Z" fill="#FF9FF4"/>
<path d="M48.45 380.76C49.3834 380.76 50.14 380.003 50.14 379.07C50.14 378.137 49.3834 377.38 48.45 377.38C47.5167 377.38 46.76 378.137 46.76 379.07C46.76 380.003 47.5167 380.76 48.45 380.76Z" fill="#FF9FF4"/>
<path d="M73.5199 379.07C73.5199 380 72.7599 380.76 71.8299 380.76C70.8999 380.76 70.1399 380 70.1399 379.07C70.1399 378.14 70.8999 377.38 71.8299 377.38C72.7599 377.38 73.5199 378.14 73.5199 379.07Z" fill="#FF9FF4"/>
<path d="M96.9 379.07C96.9 380 96.14 380.76 95.21 380.76C94.28 380.76 93.52 380 93.52 379.07C93.52 378.14 94.28 377.38 95.21 377.38C96.14 377.38 96.9 378.14 96.9 379.07Z" fill="#FF9FF4"/>
<path d="M118.59 380.76C119.523 380.76 120.28 380.003 120.28 379.07C120.28 378.137 119.523 377.38 118.59 377.38C117.657 377.38 116.9 378.137 116.9 379.07C116.9 380.003 117.657 380.76 118.59 380.76Z" fill="#FF9FF4"/>
<path d="M141.97 380.76C142.903 380.76 143.66 380.003 143.66 379.07C143.66 378.137 142.903 377.38 141.97 377.38C141.037 377.38 140.28 378.137 140.28 379.07C140.28 380.003 141.037 380.76 141.97 380.76Z" fill="#FF9FF4"/>
<path d="M165.35 380.76C166.283 380.76 167.04 380.003 167.04 379.07C167.04 378.137 166.283 377.38 165.35 377.38C164.417 377.38 163.66 378.137 163.66 379.07C163.66 380.003 164.417 380.76 165.35 380.76Z" fill="#FF9FF4"/>
<path d="M188.73 380.76C189.663 380.76 190.42 380.003 190.42 379.07C190.42 378.137 189.663 377.38 188.73 377.38C187.797 377.38 187.04 378.137 187.04 379.07C187.04 380.003 187.797 380.76 188.73 380.76Z" fill="#FF9FF4"/>
<path d="M1.69 404.14C2.62336 404.14 3.38 403.383 3.38 402.45C3.38 401.517 2.62336 400.76 1.69 400.76C0.756637 400.76 0 401.517 0 402.45C0 403.383 0.756637 404.14 1.69 404.14Z" fill="#FF9FF4"/>
<path d="M25.0699 404.14C26.0032 404.14 26.7599 403.383 26.7599 402.45C26.7599 401.517 26.0032 400.76 25.0699 400.76C24.1365 400.76 23.3799 401.517 23.3799 402.45C23.3799 403.383 24.1365 404.14 25.0699 404.14Z" fill="#FF9FF4"/>
<path d="M48.45 404.14C49.3834 404.14 50.14 403.383 50.14 402.45C50.14 401.517 49.3834 400.76 48.45 400.76C47.5167 400.76 46.76 401.517 46.76 402.45C46.76 403.383 47.5167 404.14 48.45 404.14Z" fill="#FF9FF4"/>
<path d="M73.5199 402.45C73.5199 403.38 72.7599 404.14 71.8299 404.14C70.8999 404.14 70.1399 403.38 70.1399 402.45C70.1399 401.52 70.8999 400.76 71.8299 400.76C72.7599 400.76 73.5199 401.52 73.5199 402.45Z" fill="#FF9FF4"/>
<path d="M96.9 402.45C96.9 403.38 96.14 404.14 95.21 404.14C94.28 404.14 93.52 403.38 93.52 402.45C93.52 401.52 94.28 400.76 95.21 400.76C96.14 400.76 96.9 401.52 96.9 402.45Z" fill="#FF9FF4"/>
<path d="M118.59 404.14C119.523 404.14 120.28 403.383 120.28 402.45C120.28 401.517 119.523 400.76 118.59 400.76C117.657 400.76 116.9 401.517 116.9 402.45C116.9 403.383 117.657 404.14 118.59 404.14Z" fill="#FF9FF4"/>
<path d="M141.97 404.14C142.903 404.14 143.66 403.383 143.66 402.45C143.66 401.517 142.903 400.76 141.97 400.76C141.037 400.76 140.28 401.517 140.28 402.45C140.28 403.383 141.037 404.14 141.97 404.14Z" fill="#FF9FF4"/>
<path d="M165.35 404.14C166.283 404.14 167.04 403.383 167.04 402.45C167.04 401.517 166.283 400.76 165.35 400.76C164.417 400.76 163.66 401.517 163.66 402.45C163.66 403.383 164.417 404.14 165.35 404.14Z" fill="#FF9FF4"/>
<path d="M188.73 404.14C189.663 404.14 190.42 403.383 190.42 402.45C190.42 401.517 189.663 400.76 188.73 400.76C187.797 400.76 187.04 401.517 187.04 402.45C187.04 403.383 187.797 404.14 188.73 404.14Z" fill="#FF9FF4"/>
<path d="M1.69 427.52C2.62336 427.52 3.38 426.763 3.38 425.83C3.38 424.897 2.62336 424.14 1.69 424.14C0.756637 424.14 0 424.897 0 425.83C0 426.763 0.756637 427.52 1.69 427.52Z" fill="#FF9FF4"/>
<path d="M25.0699 427.52C26.0032 427.52 26.7599 426.763 26.7599 425.83C26.7599 424.897 26.0032 424.14 25.0699 424.14C24.1365 424.14 23.3799 424.897 23.3799 425.83C23.3799 426.763 24.1365 427.52 25.0699 427.52Z" fill="#FF9FF4"/>
<path d="M50.14 425.83C50.14 426.76 49.38 427.52 48.45 427.52C47.52 427.52 46.76 426.76 46.76 425.83C46.76 424.9 47.52 424.14 48.45 424.14C49.38 424.14 50.14 424.9 50.14 425.83Z" fill="#FF9FF4"/>
<path d="M73.5199 425.83C73.5199 426.76 72.7599 427.52 71.8299 427.52C70.8999 427.52 70.1399 426.76 70.1399 425.83C70.1399 424.9 70.8999 424.14 71.8299 424.14C72.7599 424.14 73.5199 424.9 73.5199 425.83Z" fill="#FF9FF4"/>
<path d="M95.21 427.52C96.1434 427.52 96.9 426.763 96.9 425.83C96.9 424.897 96.1434 424.14 95.21 424.14C94.2767 424.14 93.52 424.897 93.52 425.83C93.52 426.763 94.2767 427.52 95.21 427.52Z" fill="#FF9FF4"/>
<path d="M118.59 427.52C119.523 427.52 120.28 426.763 120.28 425.83C120.28 424.897 119.523 424.14 118.59 424.14C117.657 424.14 116.9 424.897 116.9 425.83C116.9 426.763 117.657 427.52 118.59 427.52Z" fill="#FF9FF4"/>
<path d="M141.97 427.52C142.903 427.52 143.66 426.763 143.66 425.83C143.66 424.897 142.903 424.14 141.97 424.14C141.037 424.14 140.28 424.897 140.28 425.83C140.28 426.763 141.037 427.52 141.97 427.52Z" fill="#FF9FF4"/>
<path d="M165.35 427.52C166.283 427.52 167.04 426.763 167.04 425.83C167.04 424.897 166.283 424.14 165.35 424.14C164.417 424.14 163.66 424.897 163.66 425.83C163.66 426.763 164.417 427.52 165.35 427.52Z" fill="#FF9FF4"/>
<path d="M188.73 427.52C189.663 427.52 190.42 426.763 190.42 425.83C190.42 424.897 189.663 424.14 188.73 424.14C187.797 424.14 187.04 424.897 187.04 425.83C187.04 426.763 187.797 427.52 188.73 427.52Z" fill="#FF9FF4"/>
<path d="M1.69 450.9C2.62336 450.9 3.38 450.143 3.38 449.21C3.38 448.277 2.62336 447.52 1.69 447.52C0.756641 447.52 0 448.277 0 449.21C0 450.143 0.756641 450.9 1.69 450.9Z" fill="#FF9FF4"/>
<path d="M26.7599 449.21C26.7599 450.14 25.9999 450.9 25.0699 450.9C24.1399 450.9 23.3799 450.14 23.3799 449.21C23.3799 448.28 24.1399 447.52 25.0699 447.52C25.9999 447.52 26.7599 448.28 26.7599 449.21Z" fill="#FF9FF4"/>
<path d="M50.14 449.21C50.14 450.14 49.38 450.9 48.45 450.9C47.52 450.9 46.76 450.14 46.76 449.21C46.76 448.28 47.52 447.52 48.45 447.52C49.38 447.52 50.14 448.28 50.14 449.21Z" fill="#FF9FF4"/>
<path d="M71.8299 450.9C72.7633 450.9 73.5199 450.143 73.5199 449.21C73.5199 448.277 72.7633 447.52 71.8299 447.52C70.8965 447.52 70.1399 448.277 70.1399 449.21C70.1399 450.143 70.8965 450.9 71.8299 450.9Z" fill="#FF9FF4"/>
<path d="M95.21 450.9C96.1434 450.9 96.9 450.143 96.9 449.21C96.9 448.277 96.1434 447.52 95.21 447.52C94.2767 447.52 93.52 448.277 93.52 449.21C93.52 450.143 94.2767 450.9 95.21 450.9Z" fill="#FF9FF4"/>
<path d="M120.28 449.21C120.28 450.14 119.52 450.9 118.59 450.9C117.66 450.9 116.9 450.14 116.9 449.21C116.9 448.28 117.66 447.52 118.59 447.52C119.52 447.52 120.28 448.28 120.28 449.21Z" fill="#FF9FF4"/>
<path d="M143.66 449.21C143.66 450.14 142.9 450.9 141.97 450.9C141.04 450.9 140.28 450.14 140.28 449.21C140.28 448.28 141.04 447.52 141.97 447.52C142.9 447.52 143.66 448.28 143.66 449.21Z" fill="#FF9FF4"/>
<path d="M167.04 449.21C167.04 450.14 166.28 450.9 165.35 450.9C164.42 450.9 163.66 450.14 163.66 449.21C163.66 448.28 164.42 447.52 165.35 447.52C166.28 447.52 167.04 448.28 167.04 449.21Z" fill="#FF9FF4"/>
<path d="M190.42 449.21C190.42 450.14 189.66 450.9 188.73 450.9C187.8 450.9 187.04 450.14 187.04 449.21C187.04 448.28 187.8 447.52 188.73 447.52C189.66 447.52 190.42 448.28 190.42 449.21Z" fill="#FF9FF4"/>
<path d="M3.38 472.59C3.38 473.52 2.61999 474.28 1.68999 474.28C0.759995 474.28 0 473.52 0 472.59C0 471.66 0.759995 470.9 1.68999 470.9C2.61999 470.9 3.38 471.66 3.38 472.59Z" fill="#FF9FF4"/>
<path d="M26.7599 472.59C26.7599 473.52 25.9999 474.28 25.0699 474.28C24.1399 474.28 23.3799 473.52 23.3799 472.59C23.3799 471.66 24.1399 470.9 25.0699 470.9C25.9999 470.9 26.7599 471.66 26.7599 472.59Z" fill="#FF9FF4"/>
<path d="M50.14 472.59C50.14 473.52 49.38 474.28 48.45 474.28C47.52 474.28 46.76 473.52 46.76 472.59C46.76 471.66 47.52 470.9 48.45 470.9C49.38 470.9 50.14 471.66 50.14 472.59Z" fill="#FF9FF4"/>
<path d="M73.5199 472.59C73.5199 473.52 72.7599 474.28 71.8299 474.28C70.8999 474.28 70.1399 473.52 70.1399 472.59C70.1399 471.66 70.8999 470.9 71.8299 470.9C72.7599 470.9 73.5199 471.66 73.5199 472.59Z" fill="#FF9FF4"/>
<path d="M96.9 472.59C96.9 473.52 96.14 474.28 95.21 474.28C94.28 474.28 93.52 473.52 93.52 472.59C93.52 471.66 94.28 470.9 95.21 470.9C96.14 470.9 96.9 471.66 96.9 472.59Z" fill="#FF9FF4"/>
<path d="M120.28 472.59C120.28 473.52 119.52 474.28 118.59 474.28C117.66 474.28 116.9 473.52 116.9 472.59C116.9 471.66 117.66 470.9 118.59 470.9C119.52 470.9 120.28 471.66 120.28 472.59Z" fill="#FF9FF4"/>
<path d="M143.66 472.59C143.66 473.52 142.9 474.28 141.97 474.28C141.04 474.28 140.28 473.52 140.28 472.59C140.28 471.66 141.04 470.9 141.97 470.9C142.9 470.9 143.66 471.66 143.66 472.59Z" fill="#FF9FF4"/>
<path d="M167.04 472.59C167.04 473.52 166.28 474.28 165.35 474.28C164.42 474.28 163.66 473.52 163.66 472.59C163.66 471.66 164.42 470.9 165.35 470.9C166.28 470.9 167.04 471.66 167.04 472.59Z" fill="#FF9FF4"/>
<path d="M190.42 472.59C190.42 473.52 189.66 474.28 188.73 474.28C187.8 474.28 187.04 473.52 187.04 472.59C187.04 471.66 187.8 470.9 188.73 470.9C189.66 470.9 190.42 471.66 190.42 472.59Z" fill="#FF9FF4"/>
<path d="M3.38 495.97C3.38 496.9 2.62 497.66 1.69 497.66C0.760002 497.66 0 496.9 0 495.97C0 495.04 0.760002 494.28 1.69 494.28C2.62 494.28 3.38 495.04 3.38 495.97Z" fill="#FF9FF4"/>
<path d="M26.7599 495.97C26.7599 496.9 25.9999 497.66 25.0699 497.66C24.1399 497.66 23.3799 496.9 23.3799 495.97C23.3799 495.04 24.1399 494.28 25.0699 494.28C25.9999 494.28 26.7599 495.04 26.7599 495.97Z" fill="#FF9FF4"/>
<path d="M50.14 495.97C50.14 496.9 49.38 497.66 48.45 497.66C47.52 497.66 46.76 496.9 46.76 495.97C46.76 495.04 47.52 494.28 48.45 494.28C49.38 494.28 50.14 495.04 50.14 495.97Z" fill="#FF9FF4"/>
<path d="M73.5199 495.97C73.5199 496.9 72.7599 497.66 71.8299 497.66C70.8999 497.66 70.1399 496.9 70.1399 495.97C70.1399 495.04 70.8999 494.28 71.8299 494.28C72.7599 494.28 73.5199 495.04 73.5199 495.97Z" fill="#FF9FF4"/>
<path d="M96.9 495.97C96.9 496.9 96.14 497.66 95.21 497.66C94.28 497.66 93.52 496.9 93.52 495.97C93.52 495.04 94.28 494.28 95.21 494.28C96.14 494.28 96.9 495.04 96.9 495.97Z" fill="#FF9FF4"/>
<path d="M120.28 495.97C120.28 496.9 119.52 497.66 118.59 497.66C117.66 497.66 116.9 496.9 116.9 495.97C116.9 495.04 117.66 494.28 118.59 494.28C119.52 494.28 120.28 495.04 120.28 495.97Z" fill="#FF9FF4"/>
<path d="M143.66 495.97C143.66 496.9 142.9 497.66 141.97 497.66C141.04 497.66 140.28 496.9 140.28 495.97C140.28 495.04 141.04 494.28 141.97 494.28C142.9 494.28 143.66 495.04 143.66 495.97Z" fill="#FF9FF4"/>
<path d="M167.04 495.97C167.04 496.9 166.28 497.66 165.35 497.66C164.42 497.66 163.66 496.9 163.66 495.97C163.66 495.04 164.42 494.28 165.35 494.28C166.28 494.28 167.04 495.04 167.04 495.97Z" fill="#FF9FF4"/>
<path d="M190.42 495.97C190.42 496.9 189.66 497.66 188.73 497.66C187.8 497.66 187.04 496.9 187.04 495.97C187.04 495.04 187.8 494.28 188.73 494.28C189.66 494.28 190.42 495.04 190.42 495.97Z" fill="#FF9FF4"/>
<path d="M3.38 519.35C3.38 520.28 2.62 521.04 1.69 521.04C0.760002 521.04 0 520.28 0 519.35C0 518.42 0.760002 517.66 1.69 517.66C2.62 517.66 3.38 518.42 3.38 519.35Z" fill="#FF9FF4"/>
<path d="M26.7599 519.35C26.7599 520.28 25.9999 521.04 25.0699 521.04C24.1399 521.04 23.3799 520.28 23.3799 519.35C23.3799 518.42 24.1399 517.66 25.0699 517.66C25.9999 517.66 26.7599 518.42 26.7599 519.35Z" fill="#FF9FF4"/>
<path d="M48.45 521.04C49.3834 521.04 50.14 520.283 50.14 519.35C50.14 518.417 49.3834 517.66 48.45 517.66C47.5166 517.66 46.76 518.417 46.76 519.35C46.76 520.283 47.5166 521.04 48.45 521.04Z" fill="#FF9FF4"/>
<path d="M71.8299 521.04C72.7633 521.04 73.5199 520.283 73.5199 519.35C73.5199 518.417 72.7633 517.66 71.8299 517.66C70.8965 517.66 70.1399 518.417 70.1399 519.35C70.1399 520.283 70.8965 521.04 71.8299 521.04Z" fill="#FF9FF4"/>
<path d="M95.21 521.04C96.1434 521.04 96.9 520.283 96.9 519.35C96.9 518.417 96.1434 517.66 95.21 517.66C94.2767 517.66 93.52 518.417 93.52 519.35C93.52 520.283 94.2767 521.04 95.21 521.04Z" fill="#FF9FF4"/>
<path d="M120.28 519.35C120.28 520.28 119.52 521.04 118.59 521.04C117.66 521.04 116.9 520.28 116.9 519.35C116.9 518.42 117.66 517.66 118.59 517.66C119.52 517.67 120.28 518.42 120.28 519.35Z" fill="#FF9FF4"/>
<path d="M143.66 519.35C143.66 520.28 142.9 521.04 141.97 521.04C141.04 521.04 140.28 520.28 140.28 519.35C140.28 518.42 141.04 517.66 141.97 517.66C142.9 517.67 143.66 518.42 143.66 519.35Z" fill="#FF9FF4"/>
<path d="M167.04 519.35C167.04 520.28 166.28 521.04 165.35 521.04C164.42 521.04 163.66 520.28 163.66 519.35C163.66 518.42 164.42 517.66 165.35 517.66C166.28 517.67 167.04 518.42 167.04 519.35Z" fill="#FF9FF4"/>
<path d="M190.42 519.35C190.42 520.28 189.66 521.04 188.73 521.04C187.8 521.04 187.04 520.28 187.04 519.35C187.04 518.42 187.8 517.66 188.73 517.66C189.66 517.67 190.42 518.42 190.42 519.35Z" fill="#FF9FF4"/>
<path d="M1.68999 544.42C2.62336 544.42 3.38 543.663 3.38 542.73C3.38 541.797 2.62336 541.04 1.68999 541.04C0.756634 541.04 0 541.797 0 542.73C0 543.663 0.756634 544.42 1.68999 544.42Z" fill="#FF9FF4"/>
<path d="M26.7599 542.73C26.7599 543.66 25.9999 544.42 25.0699 544.42C24.1399 544.42 23.3799 543.66 23.3799 542.73C23.3799 541.8 24.1399 541.04 25.0699 541.04C25.9999 541.04 26.7599 541.79 26.7599 542.73Z" fill="#FF9FF4"/>
<path d="M50.14 542.73C50.14 543.66 49.38 544.42 48.45 544.42C47.52 544.42 46.76 543.66 46.76 542.73C46.76 541.8 47.52 541.04 48.45 541.04C49.38 541.04 50.14 541.79 50.14 542.73Z" fill="#FF9FF4"/>
<path d="M73.5199 542.73C73.5199 543.66 72.7599 544.42 71.8299 544.42C70.8999 544.42 70.1399 543.66 70.1399 542.73C70.1399 541.8 70.8999 541.04 71.8299 541.04C72.7599 541.04 73.5199 541.79 73.5199 542.73Z" fill="#FF9FF4"/>
<path d="M96.9 542.73C96.9 543.66 96.14 544.42 95.21 544.42C94.28 544.42 93.52 543.66 93.52 542.73C93.52 541.8 94.28 541.04 95.21 541.04C96.14 541.04 96.9 541.79 96.9 542.73Z" fill="#FF9FF4"/>
<path d="M120.28 542.73C120.28 543.66 119.52 544.42 118.59 544.42C117.66 544.42 116.9 543.66 116.9 542.73C116.9 541.8 117.66 541.04 118.59 541.04C119.52 541.04 120.28 541.79 120.28 542.73Z" fill="#FF9FF4"/>
<path d="M143.66 542.73C143.66 543.66 142.9 544.42 141.97 544.42C141.04 544.42 140.28 543.66 140.28 542.73C140.28 541.8 141.04 541.04 141.97 541.04C142.9 541.04 143.66 541.79 143.66 542.73Z" fill="#FF9FF4"/>
<path d="M167.04 542.73C167.04 543.66 166.28 544.42 165.35 544.42C164.42 544.42 163.66 543.66 163.66 542.73C163.66 541.8 164.42 541.04 165.35 541.04C166.28 541.04 167.04 541.79 167.04 542.73Z" fill="#FF9FF4"/>
<path d="M190.42 542.73C190.42 543.66 189.66 544.42 188.73 544.42C187.8 544.42 187.04 543.66 187.04 542.73C187.04 541.8 187.8 541.04 188.73 541.04C189.66 541.04 190.42 541.79 190.42 542.73Z" fill="#FF9FF4"/>
<g clip-path="url(#clip0_36_728)">
<path opacity="0.72" d="M-3.52583 246L123.639 359.601L125.42 357.6L-1.74989 244L-3.52583 246ZM-6.29506 249.106L120.875 362.712L119.094 364.712L-8.07603 251.111L-6.29506 249.106ZM-10.8402 254.217L116.325 367.818L114.544 369.818L-12.6262 256.217L-10.8402 254.217ZM-15.3905 259.323L111.779 372.929L109.998 374.929L-17.1714 261.329L-15.3905 259.323ZM-19.9356 264.434L107.229 378.035L105.448 380.035L-21.7216 266.435L-19.9356 264.434ZM-24.4858 269.541L102.684 383.146L100.903 385.146L-26.2668 271.546L-24.4858 269.541ZM-29.031 274.652L98.1338 388.252L96.3528 390.252L-30.812 276.652L-29.031 274.652ZM-33.5812 279.763L93.5886 393.363L91.8076 395.363L-35.3622 281.763L-33.5812 279.763ZM-38.1264 284.869L89.0384 398.474L87.2574 400.475L-39.9124 286.874L-38.1264 284.869ZM-42.6766 289.98L84.4932 403.58L82.7123 405.581L-44.4576 291.98L-42.6766 289.98ZM-47.2218 295.086L79.943 408.691L78.1621 410.692L-49.0078 297.091L-47.2218 295.086ZM-51.772 300.197L75.3978 413.798L73.6169 415.798L-53.5529 302.197L-51.772 300.197ZM-56.3172 305.303L70.8476 418.909L69.0667 420.909L-58.1031 307.308L-56.3172 305.303ZM-60.8674 310.414L66.3024 424.015L64.5215 426.015L-62.6483 312.415L-60.8674 310.414ZM-65.4176 315.525L61.7522 429.126L59.9713 431.126L-67.1985 317.526L-65.4176 315.525ZM-69.9628 320.632L57.207 434.237L55.4261 436.237L-71.7437 322.637L-69.9628 320.632ZM-74.513 325.743L52.6569 439.343L50.8759 441.343L-76.2939 327.743L-74.513 325.743ZM-79.0582 330.849L48.1117 444.454L46.3307 446.454L-80.8391 332.854L-79.0582 330.849ZM-83.6084 335.96L43.5615 449.56L41.7805 451.561L-85.3893 337.96L-83.6084 335.96ZM-88.1535 341.066L39.0163 454.671L37.2353 456.672L-89.9345 343.071L-88.1535 341.066ZM-92.7037 346.177L34.4661 459.778L32.6851 461.778L-94.4847 348.177L-92.7037 346.177ZM-97.2489 351.288L29.9209 464.889L28.1399 466.889L-99.0299 353.288L-97.2489 351.288ZM-101.799 356.394L25.3707 470L23.5898 472L-103.58 358.4L-101.799 356.394Z" fill="#FF9FF4"/>
<path opacity="0.72" d="M168.474 44.0002L295.639 157.601L297.42 155.6L170.25 42L168.474 44.0002ZM165.705 47.1061L292.875 160.712L291.094 162.712L163.924 49.1113L165.705 47.1061ZM161.16 52.2172L288.325 165.818L286.544 167.818L159.374 54.2174L161.16 52.2172ZM156.61 57.3233L283.779 170.929L281.998 172.929L154.829 59.3286L156.61 57.3233ZM152.064 62.4344L279.229 176.035L277.448 178.035L150.278 64.4346L152.064 62.4344ZM147.514 67.5405L274.684 181.146L272.903 183.146L145.733 69.5457L147.514 67.5405ZM142.969 72.6516L270.134 186.252L268.353 188.252L141.188 74.6519L142.969 72.6516ZM138.419 77.7627L265.589 191.363L263.808 193.363L136.638 79.763L138.419 77.7627ZM133.874 82.8688L261.038 196.474L259.257 198.475L132.088 84.8741L133.874 82.8688ZM129.323 87.98L256.493 201.58L254.712 203.581L127.542 89.9802L129.323 87.98ZM124.778 93.086L251.943 206.691L250.162 208.692L122.992 95.0913L124.778 93.086ZM120.228 98.1971L247.398 211.798L245.617 213.798L118.447 100.197L120.228 98.1971ZM115.683 103.303L242.848 216.909L241.067 218.909L113.897 105.308L115.683 103.303ZM111.133 108.414L238.302 222.015L236.521 224.015L109.352 110.415L111.133 108.414ZM106.582 113.525L233.752 227.126L231.971 229.126L104.801 115.526L106.582 113.525ZM102.037 118.632L229.207 232.237L227.426 234.237L100.256 120.637L102.037 118.632ZM97.487 123.743L224.657 237.343L222.876 239.343L95.7061 125.743L97.487 123.743ZM92.9418 128.849L220.112 242.454L218.331 244.454L91.1609 130.854L92.9418 128.849ZM88.3916 133.96L215.561 247.56L213.781 249.561L86.6107 135.96L88.3916 133.96ZM83.8465 139.066L211.016 252.671L209.235 254.672L82.0655 141.071L83.8465 139.066ZM79.2963 144.177L206.466 257.778L204.685 259.778L77.5153 146.177L79.2963 144.177ZM74.7511 149.288L201.921 262.889L200.14 264.889L72.9701 151.288L74.7511 149.288ZM70.2009 154.394L197.371 268L195.59 270L68.4199 156.4L70.2009 154.394Z" fill="#FF9FF4"/>
</g>
<g clip-path="url(#clip1_36_728)">
<path opacity="0.72" d="M309.946 246L182.781 359.601L181 357.6L308.17 244L309.946 246ZM312.715 249.106L185.545 362.712L187.326 364.712L314.496 251.111L312.715 249.106ZM317.26 254.217L190.095 367.818L191.876 369.818L319.046 256.217L317.26 254.217ZM321.81 259.323L194.641 372.929L196.422 374.929L323.591 261.329L321.81 259.323ZM326.356 264.434L199.191 378.035L200.972 380.035L328.142 266.435L326.356 264.434ZM330.906 269.541L203.736 383.146L205.517 385.146L332.687 271.546L330.906 269.541ZM335.451 274.652L208.286 388.252L210.067 390.252L337.232 276.652L335.451 274.652ZM340.001 279.763L212.831 393.363L214.612 395.363L341.782 281.763L340.001 279.763ZM344.546 284.869L217.382 398.474L219.162 400.475L346.332 286.874L344.546 284.869ZM349.097 289.98L221.927 403.58L223.708 405.581L350.877 291.98L349.097 289.98ZM353.642 295.086L226.477 408.691L228.258 410.692L355.428 297.091L353.642 295.086ZM358.192 300.197L231.022 413.798L232.803 415.798L359.973 302.197L358.192 300.197ZM362.737 305.303L235.572 418.909L237.353 420.909L364.523 307.308L362.737 305.303ZM367.287 310.414L240.117 424.015L241.898 426.015L369.068 312.415L367.287 310.414ZM371.838 315.525L244.668 429.126L246.449 431.126L373.618 317.526L371.838 315.525ZM376.383 320.632L249.213 434.237L250.994 436.237L378.164 322.637L376.383 320.632ZM380.933 325.743L253.763 439.343L255.544 441.343L382.714 327.743L380.933 325.743ZM385.478 330.849L258.308 444.454L260.089 446.454L387.259 332.854L385.478 330.849ZM390.028 335.96L262.858 449.56L264.639 451.561L391.809 337.96L390.028 335.96ZM394.573 341.066L267.404 454.671L269.185 456.672L396.354 343.071L394.573 341.066ZM399.124 346.177L271.954 459.778L273.735 461.778L400.905 348.177L399.124 346.177ZM403.669 351.288L276.499 464.889L278.28 466.889L405.45 353.288L403.669 351.288ZM408.219 356.394L281.049 470L282.83 472L410 358.4L408.219 356.394Z" fill="#FF9FF4"/>
<path opacity="0.72" d="M436.946 132L309.781 245.601L308 243.6L435.17 130L436.946 132ZM439.715 135.106L312.545 248.712L314.326 250.712L441.496 137.111L439.715 135.106ZM444.26 140.217L317.095 253.818L318.876 255.818L446.046 142.217L444.26 140.217ZM448.81 145.323L321.641 258.929L323.422 260.929L450.591 147.329L448.81 145.323ZM453.356 150.434L326.191 264.035L327.972 266.035L455.142 152.435L453.356 150.434ZM457.906 155.541L330.736 269.146L332.517 271.146L459.687 157.546L457.906 155.541ZM462.451 160.652L335.286 274.252L337.067 276.252L464.232 162.652L462.451 160.652ZM467.001 165.763L339.831 279.363L341.612 281.363L468.782 167.763L467.001 165.763ZM471.546 170.869L344.382 284.474L346.162 286.475L473.332 172.874L471.546 170.869ZM476.097 175.98L348.927 289.58L350.708 291.581L477.877 177.98L476.097 175.98ZM480.642 181.086L353.477 294.691L355.258 296.692L482.428 183.091L480.642 181.086ZM485.192 186.197L358.022 299.798L359.803 301.798L486.973 188.197L485.192 186.197ZM489.737 191.303L362.572 304.909L364.353 306.909L491.523 193.308L489.737 191.303ZM494.287 196.414L367.117 310.015L368.898 312.015L496.068 198.415L494.287 196.414ZM498.838 201.525L371.668 315.126L373.449 317.126L500.618 203.526L498.838 201.525ZM503.383 206.632L376.213 320.237L377.994 322.237L505.164 208.637L503.383 206.632ZM507.933 211.743L380.763 325.343L382.544 327.343L509.714 213.743L507.933 211.743ZM512.478 216.849L385.308 330.454L387.089 332.454L514.259 218.854L512.478 216.849ZM517.028 221.96L389.858 335.56L391.639 337.561L518.809 223.96L517.028 221.96ZM521.573 227.066L394.404 340.671L396.185 342.672L523.354 229.071L521.573 227.066ZM526.124 232.177L398.954 345.778L400.735 347.778L527.905 234.177L526.124 232.177ZM530.669 237.288L403.499 350.889L405.28 352.889L532.45 239.288L530.669 237.288ZM535.219 242.394L408.049 356L409.83 358L537 244.4L535.219 242.394Z" fill="#FF9FF4"/>
</g>
<path d="M381.69 357.38C382.623 357.38 383.38 356.623 383.38 355.69C383.38 354.757 382.623 354 381.69 354C380.757 354 380 354.757 380 355.69C380 356.623 380.757 357.38 381.69 357.38Z" fill="#FF9FF4"/>
<path d="M405.07 357.38C406.003 357.38 406.76 356.623 406.76 355.69C406.76 354.757 406.003 354 405.07 354C404.137 354 403.38 354.757 403.38 355.69C403.38 356.623 404.137 357.38 405.07 357.38Z" fill="#FF9FF4"/>
<path d="M428.45 357.38C429.383 357.38 430.14 356.623 430.14 355.69C430.14 354.757 429.383 354 428.45 354C427.517 354 426.76 354.757 426.76 355.69C426.76 356.623 427.517 357.38 428.45 357.38Z" fill="#FF9FF4"/>
<path d="M453.52 355.69C453.52 356.62 452.76 357.38 451.83 357.38C450.9 357.38 450.14 356.62 450.14 355.69C450.14 354.76 450.9 354 451.83 354C452.76 354 453.52 354.76 453.52 355.69Z" fill="#FF9FF4"/>
<path d="M476.9 355.69C476.9 356.62 476.14 357.38 475.21 357.38C474.28 357.38 473.52 356.62 473.52 355.69C473.52 354.76 474.28 354 475.21 354C476.14 354 476.9 354.76 476.9 355.69Z" fill="#FF9FF4"/>
<path d="M498.59 357.38C499.523 357.38 500.28 356.623 500.28 355.69C500.28 354.757 499.523 354 498.59 354C497.657 354 496.9 354.757 496.9 355.69C496.9 356.623 497.657 357.38 498.59 357.38Z" fill="#FF9FF4"/>
<path d="M521.97 357.38C522.903 357.38 523.66 356.623 523.66 355.69C523.66 354.757 522.903 354 521.97 354C521.037 354 520.28 354.757 520.28 355.69C520.28 356.623 521.037 357.38 521.97 357.38Z" fill="#FF9FF4"/>
<path d="M545.35 357.38C546.284 357.38 547.04 356.623 547.04 355.69C547.04 354.757 546.284 354 545.35 354C544.417 354 543.66 354.757 543.66 355.69C543.66 356.623 544.417 357.38 545.35 357.38Z" fill="#FF9FF4"/>
<path d="M568.73 357.38C569.663 357.38 570.42 356.623 570.42 355.69C570.42 354.757 569.663 354 568.73 354C567.797 354 567.04 354.757 567.04 355.69C567.04 356.623 567.797 357.38 568.73 357.38Z" fill="#FF9FF4"/>
<path d="M381.69 380.76C382.623 380.76 383.38 380.003 383.38 379.07C383.38 378.137 382.623 377.38 381.69 377.38C380.757 377.38 380 378.137 380 379.07C380 380.003 380.757 380.76 381.69 380.76Z" fill="#FF9FF4"/>
<path d="M405.07 380.76C406.003 380.76 406.76 380.003 406.76 379.07C406.76 378.137 406.003 377.38 405.07 377.38C404.137 377.38 403.38 378.137 403.38 379.07C403.38 380.003 404.137 380.76 405.07 380.76Z" fill="#FF9FF4"/>
<path d="M428.45 380.76C429.383 380.76 430.14 380.003 430.14 379.07C430.14 378.137 429.383 377.38 428.45 377.38C427.517 377.38 426.76 378.137 426.76 379.07C426.76 380.003 427.517 380.76 428.45 380.76Z" fill="#FF9FF4"/>
<path d="M453.52 379.07C453.52 380 452.76 380.76 451.83 380.76C450.9 380.76 450.14 380 450.14 379.07C450.14 378.14 450.9 377.38 451.83 377.38C452.76 377.38 453.52 378.14 453.52 379.07Z" fill="#FF9FF4"/>
<path d="M476.9 379.07C476.9 380 476.14 380.76 475.21 380.76C474.28 380.76 473.52 380 473.52 379.07C473.52 378.14 474.28 377.38 475.21 377.38C476.14 377.38 476.9 378.14 476.9 379.07Z" fill="#FF9FF4"/>
<path d="M498.59 380.76C499.523 380.76 500.28 380.003 500.28 379.07C500.28 378.137 499.523 377.38 498.59 377.38C497.657 377.38 496.9 378.137 496.9 379.07C496.9 380.003 497.657 380.76 498.59 380.76Z" fill="#FF9FF4"/>
<path d="M521.97 380.76C522.903 380.76 523.66 380.003 523.66 379.07C523.66 378.137 522.903 377.38 521.97 377.38C521.037 377.38 520.28 378.137 520.28 379.07C520.28 380.003 521.037 380.76 521.97 380.76Z" fill="#FF9FF4"/>
<path d="M545.35 380.76C546.283 380.76 547.04 380.003 547.04 379.07C547.04 378.137 546.283 377.38 545.35 377.38C544.417 377.38 543.66 378.137 543.66 379.07C543.66 380.003 544.417 380.76 545.35 380.76Z" fill="#FF9FF4"/>
<path d="M568.73 380.76C569.663 380.76 570.42 380.003 570.42 379.07C570.42 378.137 569.663 377.38 568.73 377.38C567.797 377.38 567.04 378.137 567.04 379.07C567.04 380.003 567.797 380.76 568.73 380.76Z" fill="#FF9FF4"/>
<path d="M381.69 404.14C382.623 404.14 383.38 403.383 383.38 402.45C383.38 401.517 382.623 400.76 381.69 400.76C380.757 400.76 380 401.517 380 402.45C380 403.383 380.757 404.14 381.69 404.14Z" fill="#FF9FF4"/>
<path d="M405.07 404.14C406.003 404.14 406.76 403.383 406.76 402.45C406.76 401.517 406.003 400.76 405.07 400.76C404.137 400.76 403.38 401.517 403.38 402.45C403.38 403.383 404.137 404.14 405.07 404.14Z" fill="#FF9FF4"/>
<path d="M428.45 404.14C429.383 404.14 430.14 403.383 430.14 402.45C430.14 401.517 429.383 400.76 428.45 400.76C427.517 400.76 426.76 401.517 426.76 402.45C426.76 403.383 427.517 404.14 428.45 404.14Z" fill="#FF9FF4"/>
<path d="M453.52 402.45C453.52 403.38 452.76 404.14 451.83 404.14C450.9 404.14 450.14 403.38 450.14 402.45C450.14 401.52 450.9 400.76 451.83 400.76C452.76 400.76 453.52 401.52 453.52 402.45Z" fill="#FF9FF4"/>
<path d="M476.9 402.45C476.9 403.38 476.14 404.14 475.21 404.14C474.28 404.14 473.52 403.38 473.52 402.45C473.52 401.52 474.28 400.76 475.21 400.76C476.14 400.76 476.9 401.52 476.9 402.45Z" fill="#FF9FF4"/>
<path d="M498.59 404.14C499.523 404.14 500.28 403.383 500.28 402.45C500.28 401.517 499.523 400.76 498.59 400.76C497.657 400.76 496.9 401.517 496.9 402.45C496.9 403.383 497.657 404.14 498.59 404.14Z" fill="#FF9FF4"/>
<path d="M521.97 404.14C522.903 404.14 523.66 403.383 523.66 402.45C523.66 401.517 522.903 400.76 521.97 400.76C521.037 400.76 520.28 401.517 520.28 402.45C520.28 403.383 521.037 404.14 521.97 404.14Z" fill="#FF9FF4"/>
<path d="M545.35 404.14C546.283 404.14 547.04 403.383 547.04 402.45C547.04 401.517 546.283 400.76 545.35 400.76C544.417 400.76 543.66 401.517 543.66 402.45C543.66 403.383 544.417 404.14 545.35 404.14Z" fill="#FF9FF4"/>
<path d="M568.73 404.14C569.663 404.14 570.42 403.383 570.42 402.45C570.42 401.517 569.663 400.76 568.73 400.76C567.797 400.76 567.04 401.517 567.04 402.45C567.04 403.383 567.797 404.14 568.73 404.14Z" fill="#FF9FF4"/>
<path d="M381.69 427.52C382.623 427.52 383.38 426.763 383.38 425.83C383.38 424.897 382.623 424.14 381.69 424.14C380.757 424.14 380 424.897 380 425.83C380 426.763 380.757 427.52 381.69 427.52Z" fill="#FF9FF4"/>
<path d="M405.07 427.52C406.003 427.52 406.76 426.763 406.76 425.83C406.76 424.897 406.003 424.14 405.07 424.14C404.137 424.14 403.38 424.897 403.38 425.83C403.38 426.763 404.137 427.52 405.07 427.52Z" fill="#FF9FF4"/>
<path d="M430.14 425.83C430.14 426.76 429.38 427.52 428.45 427.52C427.52 427.52 426.76 426.76 426.76 425.83C426.76 424.9 427.52 424.14 428.45 424.14C429.38 424.14 430.14 424.9 430.14 425.83Z" fill="#FF9FF4"/>
<path d="M453.52 425.83C453.52 426.76 452.76 427.52 451.83 427.52C450.9 427.52 450.14 426.76 450.14 425.83C450.14 424.9 450.9 424.14 451.83 424.14C452.76 424.14 453.52 424.9 453.52 425.83Z" fill="#FF9FF4"/>
<path d="M475.21 427.52C476.143 427.52 476.9 426.763 476.9 425.83C476.9 424.897 476.143 424.14 475.21 424.14C474.277 424.14 473.52 424.897 473.52 425.83C473.52 426.763 474.277 427.52 475.21 427.52Z" fill="#FF9FF4"/>
<path d="M498.59 427.52C499.523 427.52 500.28 426.763 500.28 425.83C500.28 424.897 499.523 424.14 498.59 424.14C497.657 424.14 496.9 424.897 496.9 425.83C496.9 426.763 497.657 427.52 498.59 427.52Z" fill="#FF9FF4"/>
<path d="M521.97 427.52C522.903 427.52 523.66 426.763 523.66 425.83C523.66 424.897 522.903 424.14 521.97 424.14C521.037 424.14 520.28 424.897 520.28 425.83C520.28 426.763 521.037 427.52 521.97 427.52Z" fill="#FF9FF4"/>
<path d="M545.35 427.52C546.283 427.52 547.04 426.763 547.04 425.83C547.04 424.897 546.283 424.14 545.35 424.14C544.417 424.14 543.66 424.897 543.66 425.83C543.66 426.763 544.417 427.52 545.35 427.52Z" fill="#FF9FF4"/>
<path d="M568.73 427.52C569.663 427.52 570.42 426.763 570.42 425.83C570.42 424.897 569.663 424.14 568.73 424.14C567.797 424.14 567.04 424.897 567.04 425.83C567.04 426.763 567.797 427.52 568.73 427.52Z" fill="#FF9FF4"/>
<path d="M381.69 450.9C382.623 450.9 383.38 450.143 383.38 449.21C383.38 448.277 382.623 447.52 381.69 447.52C380.757 447.52 380 448.277 380 449.21C380 450.143 380.757 450.9 381.69 450.9Z" fill="#FF9FF4"/>
<path d="M406.76 449.21C406.76 450.14 406 450.9 405.07 450.9C404.14 450.9 403.38 450.14 403.38 449.21C403.38 448.28 404.14 447.52 405.07 447.52C406 447.52 406.76 448.28 406.76 449.21Z" fill="#FF9FF4"/>
<path d="M430.14 449.21C430.14 450.14 429.38 450.9 428.45 450.9C427.52 450.9 426.76 450.14 426.76 449.21C426.76 448.28 427.52 447.52 428.45 447.52C429.38 447.52 430.14 448.28 430.14 449.21Z" fill="#FF9FF4"/>
<path d="M451.83 450.9C452.763 450.9 453.52 450.143 453.52 449.21C453.52 448.277 452.763 447.52 451.83 447.52C450.897 447.52 450.14 448.277 450.14 449.21C450.14 450.143 450.897 450.9 451.83 450.9Z" fill="#FF9FF4"/>
<path d="M475.21 450.9C476.143 450.9 476.9 450.143 476.9 449.21C476.9 448.277 476.143 447.52 475.21 447.52C474.277 447.52 473.52 448.277 473.52 449.21C473.52 450.143 474.277 450.9 475.21 450.9Z" fill="#FF9FF4"/>
<path d="M500.28 449.21C500.28 450.14 499.52 450.9 498.59 450.9C497.66 450.9 496.9 450.14 496.9 449.21C496.9 448.28 497.66 447.52 498.59 447.52C499.52 447.52 500.28 448.28 500.28 449.21Z" fill="#FF9FF4"/>
<path d="M523.66 449.21C523.66 450.14 522.9 450.9 521.97 450.9C521.04 450.9 520.28 450.14 520.28 449.21C520.28 448.28 521.04 447.52 521.97 447.52C522.9 447.52 523.66 448.28 523.66 449.21Z" fill="#FF9FF4"/>
<path d="M547.04 449.21C547.04 450.14 546.28 450.9 545.35 450.9C544.42 450.9 543.66 450.14 543.66 449.21C543.66 448.28 544.42 447.52 545.35 447.52C546.28 447.52 547.04 448.28 547.04 449.21Z" fill="#FF9FF4"/>
<path d="M570.42 449.21C570.42 450.14 569.66 450.9 568.73 450.9C567.8 450.9 567.04 450.14 567.04 449.21C567.04 448.28 567.8 447.52 568.73 447.52C569.66 447.52 570.42 448.28 570.42 449.21Z" fill="#FF9FF4"/>
<path d="M383.38 472.59C383.38 473.52 382.62 474.28 381.69 474.28C380.76 474.28 380 473.52 380 472.59C380 471.66 380.76 470.9 381.69 470.9C382.62 470.9 383.38 471.66 383.38 472.59Z" fill="#FF9FF4"/>
<path d="M406.76 472.59C406.76 473.52 406 474.28 405.07 474.28C404.14 474.28 403.38 473.52 403.38 472.59C403.38 471.66 404.14 470.9 405.07 470.9C406 470.9 406.76 471.66 406.76 472.59Z" fill="#FF9FF4"/>
<path d="M430.14 472.59C430.14 473.52 429.38 474.28 428.45 474.28C427.52 474.28 426.76 473.52 426.76 472.59C426.76 471.66 427.52 470.9 428.45 470.9C429.38 470.9 430.14 471.66 430.14 472.59Z" fill="#FF9FF4"/>
<path d="M453.52 472.59C453.52 473.52 452.76 474.28 451.83 474.28C450.9 474.28 450.14 473.52 450.14 472.59C450.14 471.66 450.9 470.9 451.83 470.9C452.76 470.9 453.52 471.66 453.52 472.59Z" fill="#FF9FF4"/>
<path d="M476.9 472.59C476.9 473.52 476.14 474.28 475.21 474.28C474.28 474.28 473.52 473.52 473.52 472.59C473.52 471.66 474.28 470.9 475.21 470.9C476.14 470.9 476.9 471.66 476.9 472.59Z" fill="#FF9FF4"/>
<path d="M500.28 472.59C500.28 473.52 499.52 474.28 498.59 474.28C497.66 474.28 496.9 473.52 496.9 472.59C496.9 471.66 497.66 470.9 498.59 470.9C499.52 470.9 500.28 471.66 500.28 472.59Z" fill="#FF9FF4"/>
<path d="M523.66 472.59C523.66 473.52 522.9 474.28 521.97 474.28C521.04 474.28 520.28 473.52 520.28 472.59C520.28 471.66 521.04 470.9 521.97 470.9C522.9 470.9 523.66 471.66 523.66 472.59Z" fill="#FF9FF4"/>
<path d="M547.04 472.59C547.04 473.52 546.28 474.28 545.35 474.28C544.42 474.28 543.66 473.52 543.66 472.59C543.66 471.66 544.42 470.9 545.35 470.9C546.28 470.9 547.04 471.66 547.04 472.59Z" fill="#FF9FF4"/>
<path d="M570.42 472.59C570.42 473.52 569.66 474.28 568.73 474.28C567.8 474.28 567.04 473.52 567.04 472.59C567.04 471.66 567.8 470.9 568.73 470.9C569.66 470.9 570.42 471.66 570.42 472.59Z" fill="#FF9FF4"/>
<path d="M383.38 495.97C383.38 496.9 382.62 497.66 381.69 497.66C380.76 497.66 380 496.9 380 495.97C380 495.04 380.76 494.28 381.69 494.28C382.62 494.28 383.38 495.04 383.38 495.97Z" fill="#FF9FF4"/>
<path d="M406.76 495.97C406.76 496.9 406 497.66 405.07 497.66C404.14 497.66 403.38 496.9 403.38 495.97C403.38 495.04 404.14 494.28 405.07 494.28C406 494.28 406.76 495.04 406.76 495.97Z" fill="#FF9FF4"/>
<path d="M430.14 495.97C430.14 496.9 429.38 497.66 428.45 497.66C427.52 497.66 426.76 496.9 426.76 495.97C426.76 495.04 427.52 494.28 428.45 494.28C429.38 494.28 430.14 495.04 430.14 495.97Z" fill="#FF9FF4"/>
<path d="M453.52 495.97C453.52 496.9 452.76 497.66 451.83 497.66C450.9 497.66 450.14 496.9 450.14 495.97C450.14 495.04 450.9 494.28 451.83 494.28C452.76 494.28 453.52 495.04 453.52 495.97Z" fill="#FF9FF4"/>
<path d="M476.9 495.97C476.9 496.9 476.14 497.66 475.21 497.66C474.28 497.66 473.52 496.9 473.52 495.97C473.52 495.04 474.28 494.28 475.21 494.28C476.14 494.28 476.9 495.04 476.9 495.97Z" fill="#FF9FF4"/>
<path d="M500.28 495.97C500.28 496.9 499.52 497.66 498.59 497.66C497.66 497.66 496.9 496.9 496.9 495.97C496.9 495.04 497.66 494.28 498.59 494.28C499.52 494.28 500.28 495.04 500.28 495.97Z" fill="#FF9FF4"/>
<path d="M523.66 495.97C523.66 496.9 522.9 497.66 521.97 497.66C521.04 497.66 520.28 496.9 520.28 495.97C520.28 495.04 521.04 494.28 521.97 494.28C522.9 494.28 523.66 495.04 523.66 495.97Z" fill="#FF9FF4"/>
<path d="M547.04 495.97C547.04 496.9 546.28 497.66 545.35 497.66C544.42 497.66 543.66 496.9 543.66 495.97C543.66 495.04 544.42 494.28 545.35 494.28C546.28 494.28 547.04 495.04 547.04 495.97Z" fill="#FF9FF4"/>
<path d="M570.42 495.97C570.42 496.9 569.66 497.66 568.73 497.66C567.8 497.66 567.04 496.9 567.04 495.97C567.04 495.04 567.8 494.28 568.73 494.28C569.66 494.28 570.42 495.04 570.42 495.97Z" fill="#FF9FF4"/>
<path d="M383.38 519.35C383.38 520.28 382.62 521.04 381.69 521.04C380.76 521.04 380 520.28 380 519.35C380 518.42 380.76 517.66 381.69 517.66C382.62 517.66 383.38 518.42 383.38 519.35Z" fill="#FF9FF4"/>
<path d="M406.76 519.35C406.76 520.28 406 521.04 405.07 521.04C404.14 521.04 403.38 520.28 403.38 519.35C403.38 518.42 404.14 517.66 405.07 517.66C406 517.66 406.76 518.42 406.76 519.35Z" fill="#FF9FF4"/>
<path d="M428.45 521.04C429.383 521.04 430.14 520.283 430.14 519.35C430.14 518.417 429.383 517.66 428.45 517.66C427.517 517.66 426.76 518.417 426.76 519.35C426.76 520.283 427.517 521.04 428.45 521.04Z" fill="#FF9FF4"/>
<path d="M451.83 521.04C452.763 521.04 453.52 520.283 453.52 519.35C453.52 518.417 452.763 517.66 451.83 517.66C450.897 517.66 450.14 518.417 450.14 519.35C450.14 520.283 450.897 521.04 451.83 521.04Z" fill="#FF9FF4"/>
<path d="M475.21 521.04C476.143 521.04 476.9 520.283 476.9 519.35C476.9 518.417 476.143 517.66 475.21 517.66C474.277 517.66 473.52 518.417 473.52 519.35C473.52 520.283 474.277 521.04 475.21 521.04Z" fill="#FF9FF4"/>
<path d="M500.28 519.35C500.28 520.28 499.52 521.04 498.59 521.04C497.66 521.04 496.9 520.28 496.9 519.35C496.9 518.42 497.66 517.66 498.59 517.66C499.52 517.67 500.28 518.42 500.28 519.35Z" fill="#FF9FF4"/>
<path d="M523.66 519.35C523.66 520.28 522.9 521.04 521.97 521.04C521.04 521.04 520.28 520.28 520.28 519.35C520.28 518.42 521.04 517.66 521.97 517.66C522.9 517.67 523.66 518.42 523.66 519.35Z" fill="#FF9FF4"/>
<path d="M547.04 519.35C547.04 520.28 546.28 521.04 545.35 521.04C544.42 521.04 543.66 520.28 543.66 519.35C543.66 518.42 544.42 517.66 545.35 517.66C546.28 517.67 547.04 518.42 547.04 519.35Z" fill="#FF9FF4"/>
<path d="M570.42 519.35C570.42 520.28 569.66 521.04 568.73 521.04C567.8 521.04 567.04 520.28 567.04 519.35C567.04 518.42 567.8 517.66 568.73 517.66C569.66 517.67 570.42 518.42 570.42 519.35Z" fill="#FF9FF4"/>
<path d="M381.69 544.42C382.623 544.42 383.38 543.663 383.38 542.73C383.38 541.797 382.623 541.04 381.69 541.04C380.757 541.04 380 541.797 380 542.73C380 543.663 380.757 544.42 381.69 544.42Z" fill="#FF9FF4"/>
<path d="M406.76 542.73C406.76 543.66 406 544.42 405.07 544.42C404.14 544.42 403.38 543.66 403.38 542.73C403.38 541.8 404.14 541.04 405.07 541.04C406 541.04 406.76 541.79 406.76 542.73Z" fill="#FF9FF4"/>
<path d="M430.14 542.73C430.14 543.66 429.38 544.42 428.45 544.42C427.52 544.42 426.76 543.66 426.76 542.73C426.76 541.8 427.52 541.04 428.45 541.04C429.38 541.04 430.14 541.79 430.14 542.73Z" fill="#FF9FF4"/>
<path d="M453.52 542.73C453.52 543.66 452.76 544.42 451.83 544.42C450.9 544.42 450.14 543.66 450.14 542.73C450.14 541.8 450.9 541.04 451.83 541.04C452.76 541.04 453.52 541.79 453.52 542.73Z" fill="#FF9FF4"/>
<path d="M476.9 542.73C476.9 543.66 476.14 544.42 475.21 544.42C474.28 544.42 473.52 543.66 473.52 542.73C473.52 541.8 474.28 541.04 475.21 541.04C476.14 541.04 476.9 541.79 476.9 542.73Z" fill="#FF9FF4"/>
<path d="M500.28 542.73C500.28 543.66 499.52 544.42 498.59 544.42C497.66 544.42 496.9 543.66 496.9 542.73C496.9 541.8 497.66 541.04 498.59 541.04C499.52 541.04 500.28 541.79 500.28 542.73Z" fill="#FF9FF4"/>
<path d="M523.66 542.73C523.66 543.66 522.9 544.42 521.97 544.42C521.04 544.42 520.28 543.66 520.28 542.73C520.28 541.8 521.04 541.04 521.97 541.04C522.9 541.04 523.66 541.79 523.66 542.73Z" fill="#FF9FF4"/>
<path d="M547.04 542.73C547.04 543.66 546.28 544.42 545.35 544.42C544.42 544.42 543.66 543.66 543.66 542.73C543.66 541.8 544.42 541.04 545.35 541.04C546.28 541.04 547.04 541.79 547.04 542.73Z" fill="#FF9FF4"/>
<path d="M570.42 542.73C570.42 543.66 569.66 544.42 568.73 544.42C567.8 544.42 567.04 543.66 567.04 542.73C567.04 541.8 567.8 541.04 568.73 541.04C569.66 541.04 570.42 541.79 570.42 542.73Z" fill="#FF9FF4"/>
<path d="M381.69 16.14C382.623 16.14 383.38 15.3834 383.38 14.45C383.38 13.5166 382.623 12.76 381.69 12.76C380.757 12.76 380 13.5166 380 14.45C380 15.3834 380.757 16.14 381.69 16.14Z" fill="#FF9FF4"/>
<path d="M405.07 16.14C406.003 16.14 406.76 15.3834 406.76 14.45C406.76 13.5166 406.003 12.76 405.07 12.76C404.137 12.76 403.38 13.5166 403.38 14.45C403.38 15.3834 404.137 16.14 405.07 16.14Z" fill="#FF9FF4"/>
<path d="M428.45 16.14C429.383 16.14 430.14 15.3834 430.14 14.45C430.14 13.5166 429.383 12.76 428.45 12.76C427.517 12.76 426.76 13.5166 426.76 14.45C426.76 15.3834 427.517 16.14 428.45 16.14Z" fill="#FF9FF4"/>
<path d="M451.83 16.14C452.763 16.14 453.52 15.3834 453.52 14.45C453.52 13.5166 452.763 12.76 451.83 12.76C450.897 12.76 450.14 13.5166 450.14 14.45C450.14 15.3834 450.897 16.14 451.83 16.14Z" fill="#FF9FF4"/>
<path d="M475.21 16.14C476.143 16.14 476.9 15.3834 476.9 14.45C476.9 13.5166 476.143 12.76 475.21 12.76C474.277 12.76 473.52 13.5166 473.52 14.45C473.52 15.3834 474.277 16.14 475.21 16.14Z" fill="#FF9FF4"/>
<path d="M500.28 14.45C500.28 15.38 499.52 16.14 498.59 16.14C497.66 16.14 496.9 15.38 496.9 14.45C496.9 13.52 497.66 12.76 498.59 12.76C499.52 12.76 500.28 13.52 500.28 14.45Z" fill="#FF9FF4"/>
<path d="M383.38 37.8299C383.38 38.7599 382.62 39.5199 381.69 39.5199C380.76 39.5199 380 38.7599 380 37.8299C380 36.8999 380.76 36.14 381.69 36.14C382.62 36.14 383.38 36.8999 383.38 37.8299Z" fill="#FF9FF4"/>
<path d="M405.07 39.5199C406.003 39.5199 406.76 38.7633 406.76 37.8299C406.76 36.8966 406.003 36.14 405.07 36.14C404.137 36.14 403.38 36.8966 403.38 37.8299C403.38 38.7633 404.137 39.5199 405.07 39.5199Z" fill="#FF9FF4"/>
<path d="M428.45 39.52C429.383 39.52 430.14 38.7633 430.14 37.83C430.14 36.8966 429.383 36.14 428.45 36.14C427.517 36.14 426.76 36.8966 426.76 37.83C426.76 38.7633 427.517 39.52 428.45 39.52Z" fill="#FF9FF4"/>
<path d="M451.83 39.52C452.763 39.52 453.52 38.7633 453.52 37.83C453.52 36.8966 452.763 36.14 451.83 36.14C450.897 36.14 450.14 36.8966 450.14 37.83C450.14 38.7633 450.897 39.52 451.83 39.52Z" fill="#FF9FF4"/>
<path d="M476.9 37.83C476.9 38.76 476.14 39.52 475.21 39.52C474.28 39.52 473.52 38.76 473.52 37.83C473.52 36.9 474.28 36.14 475.21 36.14C476.14 36.14 476.9 36.9 476.9 37.83Z" fill="#FF9FF4"/>
<path d="M500.28 37.83C500.28 38.76 499.52 39.52 498.59 39.52C497.66 39.52 496.9 38.76 496.9 37.83C496.9 36.9 497.66 36.14 498.59 36.14C499.52 36.14 500.28 36.9 500.28 37.83Z" fill="#FF9FF4"/>
<path d="M381.69 62.9C382.623 62.9 383.38 62.1433 383.38 61.21C383.38 60.2766 382.623 59.52 381.69 59.52C380.757 59.52 380 60.2766 380 61.21C380 62.1433 380.757 62.9 381.69 62.9Z" fill="#FF9FF4"/>
<path d="M405.07 62.9C406.003 62.9 406.76 62.1433 406.76 61.21C406.76 60.2766 406.003 59.52 405.07 59.52C404.137 59.52 403.38 60.2766 403.38 61.21C403.38 62.1433 404.137 62.9 405.07 62.9Z" fill="#FF9FF4"/>
<path d="M428.45 62.9C429.383 62.9 430.14 62.1433 430.14 61.21C430.14 60.2766 429.383 59.52 428.45 59.52C427.517 59.52 426.76 60.2766 426.76 61.21C426.76 62.1433 427.517 62.9 428.45 62.9Z" fill="#FF9FF4"/>
<path d="M453.52 61.21C453.52 62.14 452.76 62.9 451.83 62.9C450.9 62.9 450.14 62.14 450.14 61.21C450.14 60.28 450.9 59.52 451.83 59.52C452.76 59.52 453.52 60.28 453.52 61.21Z" fill="#FF9FF4"/>
<path d="M476.9 61.21C476.9 62.14 476.14 62.9 475.21 62.9C474.28 62.9 473.52 62.14 473.52 61.21C473.52 60.28 474.28 59.52 475.21 59.52C476.14 59.52 476.9 60.28 476.9 61.21Z" fill="#FF9FF4"/>
<path d="M498.59 62.9C499.523 62.9 500.28 62.1433 500.28 61.21C500.28 60.2766 499.523 59.52 498.59 59.52C497.657 59.52 496.9 60.2766 496.9 61.21C496.9 62.1433 497.657 62.9 498.59 62.9Z" fill="#FF9FF4"/>
<path d="M381.69 86.28C382.623 86.28 383.38 85.5233 383.38 84.59C383.38 83.6566 382.623 82.9 381.69 82.9C380.757 82.9 380 83.6566 380 84.59C380 85.5233 380.757 86.28 381.69 86.28Z" fill="#FF9FF4"/>
<path d="M406.76 84.59C406.76 85.52 406 86.28 405.07 86.28C404.14 86.28 403.38 85.52 403.38 84.59C403.38 83.66 404.14 82.9 405.07 82.9C406 82.9 406.76 83.66 406.76 84.59Z" fill="#FF9FF4"/>
<path d="M430.14 84.59C430.14 85.52 429.38 86.28 428.45 86.28C427.52 86.28 426.76 85.52 426.76 84.59C426.76 83.66 427.52 82.9 428.45 82.9C429.38 82.9 430.14 83.66 430.14 84.59Z" fill="#FF9FF4"/>
<path d="M453.52 84.59C453.52 85.52 452.76 86.28 451.83 86.28C450.9 86.28 450.14 85.52 450.14 84.59C450.14 83.66 450.9 82.9 451.83 82.9C452.76 82.9 453.52 83.66 453.52 84.59Z" fill="#FF9FF4"/>
<path d="M476.9 84.59C476.9 85.52 476.14 86.28 475.21 86.28C474.28 86.28 473.52 85.52 473.52 84.59C473.52 83.66 474.28 82.9 475.21 82.9C476.14 82.9 476.9 83.66 476.9 84.59Z" fill="#FF9FF4"/>
<path d="M500.28 84.59C500.28 85.52 499.52 86.28 498.59 86.28C497.66 86.28 496.9 85.52 496.9 84.59C496.9 83.66 497.66 82.9 498.59 82.9C499.52 82.9 500.28 83.66 500.28 84.59Z" fill="#FF9FF4"/>
<path d="M383.38 107.97C383.38 108.9 382.62 109.66 381.69 109.66C380.76 109.66 380 108.9 380 107.97C380 107.04 380.76 106.28 381.69 106.28C382.62 106.28 383.38 107.04 383.38 107.97Z" fill="#FF9FF4"/>
<path d="M406.76 107.97C406.76 108.9 406 109.66 405.07 109.66C404.14 109.66 403.38 108.9 403.38 107.97C403.38 107.04 404.14 106.28 405.07 106.28C406 106.28 406.76 107.04 406.76 107.97Z" fill="#FF9FF4"/>
<path d="M430.14 107.97C430.14 108.9 429.38 109.66 428.45 109.66C427.52 109.66 426.76 108.9 426.76 107.97C426.76 107.04 427.52 106.28 428.45 106.28C429.38 106.28 430.14 107.04 430.14 107.97Z" fill="#FF9FF4"/>
<path d="M453.52 107.97C453.52 108.9 452.76 109.66 451.83 109.66C450.9 109.66 450.14 108.9 450.14 107.97C450.14 107.04 450.9 106.28 451.83 106.28C452.76 106.28 453.52 107.04 453.52 107.97Z" fill="#FF9FF4"/>
<path d="M476.9 107.97C476.9 108.9 476.14 109.66 475.21 109.66C474.28 109.66 473.52 108.9 473.52 107.97C473.52 107.04 474.28 106.28 475.21 106.28C476.14 106.28 476.9 107.04 476.9 107.97Z" fill="#FF9FF4"/>
<path d="M500.28 107.97C500.28 108.9 499.52 109.66 498.59 109.66C497.66 109.66 496.9 108.9 496.9 107.97C496.9 107.04 497.66 106.28 498.59 106.28C499.52 106.28 500.28 107.04 500.28 107.97Z" fill="#FF9FF4"/>
<path d="M383.38 131.35C383.38 132.28 382.62 133.04 381.69 133.04C380.76 133.04 380 132.28 380 131.35C380 130.42 380.76 129.66 381.69 129.66C382.62 129.66 383.38 130.42 383.38 131.35Z" fill="#FF9FF4"/>
<path d="M406.76 131.35C406.76 132.28 406 133.04 405.07 133.04C404.14 133.04 403.38 132.28 403.38 131.35C403.38 130.42 404.14 129.66 405.07 129.66C406 129.66 406.76 130.42 406.76 131.35Z" fill="#FF9FF4"/>
<path d="M430.14 131.35C430.14 132.28 429.38 133.04 428.45 133.04C427.52 133.04 426.76 132.28 426.76 131.35C426.76 130.42 427.52 129.66 428.45 129.66C429.38 129.66 430.14 130.42 430.14 131.35Z" fill="#FF9FF4"/>
<path d="M453.52 131.35C453.52 132.28 452.76 133.04 451.83 133.04C450.9 133.04 450.14 132.28 450.14 131.35C450.14 130.42 450.9 129.66 451.83 129.66C452.76 129.66 453.52 130.42 453.52 131.35Z" fill="#FF9FF4"/>
<path d="M475.21 133.04C476.143 133.04 476.9 132.283 476.9 131.35C476.9 130.417 476.143 129.66 475.21 129.66C474.277 129.66 473.52 130.417 473.52 131.35C473.52 132.283 474.277 133.04 475.21 133.04Z" fill="#FF9FF4"/>
<path d="M498.59 133.04C499.523 133.04 500.28 132.283 500.28 131.35C500.28 130.417 499.523 129.66 498.59 129.66C497.657 129.66 496.9 130.417 496.9 131.35C496.9 132.283 497.657 133.04 498.59 133.04Z" fill="#FF9FF4"/>
<path d="M381.69 156.42C382.623 156.42 383.38 155.663 383.38 154.73C383.38 153.797 382.623 153.04 381.69 153.04C380.757 153.04 380 153.797 380 154.73C380 155.663 380.757 156.42 381.69 156.42Z" fill="#FF9FF4"/>
<path d="M406.76 154.73C406.76 155.66 406 156.42 405.07 156.42C404.14 156.42 403.38 155.66 403.38 154.73C403.38 153.8 404.14 153.04 405.07 153.04C406 153.05 406.76 153.8 406.76 154.73Z" fill="#FF9FF4"/>
<path d="M428.45 156.42C429.383 156.42 430.14 155.663 430.14 154.73C430.14 153.797 429.383 153.04 428.45 153.04C427.517 153.04 426.76 153.797 426.76 154.73C426.76 155.663 427.517 156.42 428.45 156.42Z" fill="#FF9FF4"/>
<path d="M453.52 154.73C453.52 155.66 452.76 156.42 451.83 156.42C450.9 156.42 450.14 155.66 450.14 154.73C450.14 153.8 450.9 153.04 451.83 153.04C452.76 153.04 453.52 153.79 453.52 154.73Z" fill="#FF9FF4"/>
<path d="M476.9 154.73C476.9 155.66 476.14 156.42 475.21 156.42C474.28 156.42 473.52 155.66 473.52 154.73C473.52 153.8 474.28 153.04 475.21 153.04C476.14 153.04 476.9 153.79 476.9 154.73Z" fill="#FF9FF4"/>
<path d="M500.28 154.73C500.28 155.66 499.52 156.42 498.59 156.42C497.66 156.42 496.9 155.66 496.9 154.73C496.9 153.8 497.66 153.04 498.59 153.04C499.52 153.04 500.28 153.79 500.28 154.73Z" fill="#FF9FF4"/>
<defs>
<clipPath id="clip0_36_728">
<rect width="190.42" height="190.42" fill="white" transform="matrix(-1 0 0 1 190.42 160)"/>
</clipPath>
<clipPath id="clip1_36_728">
<rect width="190.42" height="190.42" fill="white" transform="matrix(-1 0 0 1 380.42 160)"/>
</clipPath>
</defs>
</svg>
