<svg width="759" height="738" viewBox="0 0 759 738" fill="none" xmlns="http://www.w3.org/2000/svg">
<path opacity="0.2" d="M-55.3639 516.827C-18.0311 483.646 8.99493 440.655 41.3744 402.087C57.234 383.201 74.2485 365.092 93.2588 350.279C114.178 333.971 137.057 321.159 159.894 308.993C182.756 296.81 205.724 284.329 228.876 273.004C250.064 262.643 272.779 257.719 294.05 247.429C336.529 226.852 360.053 185.464 381.98 142.255C392.254 121.98 402.823 102.399 420.129 88.4361C436.554 75.1829 455.441 67.5426 474.573 62.2032C515.724 50.7082 557.87 49.9466 599.154 39.7106C644.197 28.5563 687.831 7.32484 723.485 -27.6752C736.673 -40.6119 748.415 -55.4655 758.655 -71.0315L123.856 -253L-108 555.834C-89.5115 544.276 -72.2166 531.789 -55.3639 516.827Z" fill="#E4E4E6"/>
<path d="M296.755 121.577C299.776 125.02 299.435 130.253 295.993 133.256C292.55 136.277 287.316 135.935 284.314 132.494C281.293 129.051 281.634 123.817 285.076 120.814C288.519 117.793 293.734 118.134 296.755 121.577ZM283.915 38.5798C272.08 48.9647 270.903 66.9978 281.288 78.833C291.673 90.6681 309.706 91.8452 321.541 81.4603C333.376 71.0755 334.553 53.0424 324.168 41.2072C313.783 29.372 295.77 28.1778 283.915 38.5798ZM494.377 -31.8151C482.475 -14.7586 473.002 2.65925 442.239 8.91326C400.991 17.2861 361.318 -4.68575 320.708 -4.95737C188.407 -5.81033 288.299 132.754 229.821 192.063C182.5 240.077 112.172 205.758 76.9408 271.694C55.1565 312.449 50.4147 357.691 22.9995 396.842C-2.09679 432.678 -35.1077 465.452 -80.1733 468.744L-77.0904 421.513C-76.4501 421.592 -75.7902 421.653 -75.1658 421.694C-60.7356 422.691 -47.382 415.319 -36.2627 406.861C-18.5266 393.376 -2.90662 376.709 10.9533 359.32C17.9432 350.555 24.3933 341.866 28.3485 331.28C30.1364 326.491 37.7171 301.61 35.6224 294.428C33.5413 287.322 26.4125 282.393 19.029 283.626C3.98299 286.13 4.81191 305.64 -0.623119 316.295C-9.33721 333.394 -26.0652 345.562 -44.2312 350.941C-53.9725 353.828 -63.8778 355.837 -73.0304 359.592L-45.1843 -67.0326L402.981 -37.7806C385.821 -33.4049 367.976 -30.6785 350.425 -30.4962C345.905 -30.4593 345.312 -24.2093 348.82 -22.8553C353.057 -19.3884 358.078 -18.8947 363.246 -17.2664C366.86 -16.1269 401.47 -7.00743 413.966 -5.4726C429.443 -3.55876 448.385 -4.71986 461.077 -14.6799C465.665 -18.2901 469.904 -22.7715 470.085 -28.9377C470.129 -30.4471 469.932 -31.9537 469.604 -33.432L494.377 -31.8151ZM58.3808 246.379C55.6971 235.507 44.7594 231.013 35.1612 236.509C31.0233 238.876 27.2474 242.761 26.6714 247.629C26.3856 248.053 26.134 248.516 25.9524 249.039C21.9533 259.732 33.1436 267.987 42.8959 267.757C54.1453 267.477 61.0203 257.081 58.3808 246.379Z" fill="url(#paint0_linear_2001_208)"/>
<defs>
<linearGradient id="paint0_linear_2001_208" x1="-67" y1="367.5" x2="252.5" y2="-114.5" gradientUnits="userSpaceOnUse">
<stop stop-color="#FFDFD9"/>
<stop offset="1" stop-color="#CEF2FF"/>
</linearGradient>
</defs>
</svg>
