<svg width="592" height="705" viewBox="0 0 592 705" fill="none" xmlns="http://www.w3.org/2000/svg">
<path opacity="0.2" d="M469.947 267.233C462.505 281.927 453.5 296.051 441.431 307.414C428.7 319.411 413.378 328.484 397.804 336.253C382.807 343.726 367.454 351.578 350.946 355.04C335.796 358.224 320.282 358.853 304.863 359.729C271.17 361.652 236.462 366.772 206.155 382.47C189.702 390.99 175.374 402.196 164.325 417.179C153.464 431.907 145.266 448.52 136.943 464.747C120.222 497.373 100.045 528.728 72.0372 552.821C56.6745 566.038 39.8812 577.256 21.6623 586.109C13.918 589.875 7.78326 592.684 -9.44727e-05 596.377L548.716 679.043L638.562 82.6655C610.708 86.8347 587.591 99.6831 564.406 114.971C537.802 132.51 518.832 157.398 504.975 185.823C492.045 212.404 483.316 240.835 469.947 267.233Z" fill="#E4E4E6"/>
<path d="M752.806 232.398C746.546 236.399 739.895 239.912 732.466 242.666C714.7 249.234 694.229 246.15 676.337 253.557C624.528 274.986 617.019 326.487 592.149 370.018C553.053 438.445 506.063 417.695 439.507 414.396C388.045 411.837 325.91 428.355 316.474 488.15C310.328 527.167 350.217 559.627 312.094 583.207C290.681 596.454 258.436 581.37 235.566 585.331C203.955 590.795 184.543 606.753 168 626.642L681.875 702.988L752.806 232.398ZM621.506 338.996C624.604 333.947 626.86 328.451 629.961 323.386C632.8 318.762 635.834 314.258 638.575 309.566C644.038 300.199 649.637 291.351 657.504 283.791C667.856 273.839 683.133 260.452 698.59 264.476C699.414 264.69 700.015 265.798 699.911 266.603C699.003 272.748 692.568 276.134 687.857 279.208C679.883 284.396 671.978 289.951 664.431 295.739C655.792 302.38 648.346 309.753 642.932 319.271C640.458 323.61 638.336 328.217 635.583 332.389C632.808 336.593 629.188 339.421 625.137 342.38C624.095 343.134 622.952 342.783 622.282 342.021C621.387 341.441 620.773 340.188 621.506 338.996ZM487.683 441.251C491.749 437.009 500.235 436.592 504.914 440.009C506.443 441.114 507.653 442.796 508.301 444.66C510.433 448.158 509.117 452.743 505.419 454.667C501.525 456.704 495.688 456.824 491.729 454.907C486.574 452.399 483.026 446.1 487.683 441.251ZM337.774 500.301C334.125 488.507 338.482 475.814 347.264 467.517C353.071 462.02 360.31 457.328 366.917 452.809C372.805 448.788 378.975 445.148 385.487 442.203C398.09 436.499 411.783 433.279 425.636 433.135C440.116 432.978 454.287 436.648 468.311 439.76C469.709 440.078 470.761 440.79 471.496 441.721C476.097 445.181 473.969 451.482 469.638 454.291C464.199 457.809 457.48 456.922 451.374 458.001C444.388 459.233 437.716 462.297 431.54 465.739C417.473 473.579 405.355 484.71 393.123 495.058C384.022 502.753 373.955 513.069 361.864 515.727C350.719 518.153 341.013 510.784 337.774 500.301ZM293.64 550.746C283.841 557.979 270.019 555.897 262.786 546.098C255.553 536.299 257.635 522.477 267.434 515.244C277.234 508.011 291.055 510.093 298.288 519.892C305.522 529.691 303.439 543.513 293.64 550.746ZM547.286 383.248C525.72 399.168 495.337 394.59 479.418 373.024C463.499 351.457 468.076 321.074 489.642 305.155C511.209 289.236 541.592 293.813 557.511 315.38C573.43 336.946 568.853 367.329 547.286 383.248ZM598.717 305.81C590.865 311.606 579.819 309.942 574.04 302.093C568.245 294.241 569.909 283.195 577.758 277.417C585.61 271.621 596.656 273.285 602.434 281.134C608.215 288.966 606.548 300.03 598.717 305.81Z" fill="url(#paint0_linear_2001_209)"/>
<defs>
<linearGradient id="paint0_linear_2001_209" x1="197.5" y1="614.5" x2="651" y2="254" gradientUnits="userSpaceOnUse">
<stop stop-color="#CEF2FF"/>
<stop offset="1" stop-color="#FFDFD9"/>
</linearGradient>
</defs>
</svg>
