<svg clip-rule="evenodd" fill-rule="evenodd" stroke-linejoin="round" stroke-miterlimit="2" viewBox="0 0 100 100" xmlns="http://www.w3.org/2000/svg"><path d="m0 0h100v100h-100z" fill="none"/><path d="m34.357 76.157c0-.453.236-.874.622-1.112.386-.237.868-.257 1.273-.053 4.158 2.044 8.833 3.188 13.774 3.188 4.94 0 9.616-1.144 13.776-3.183.403-.203.883-.183 1.267.053.385.237.619.656.619 1.107.004 2.774.006 7.477.006 9.656v1.172c0 1.727-2.766 3.251-6.964 4.146v4.684c0 1.701-3.9 3.082-8.704 3.082-4.805 0-8.705-1.381-8.705-3.082v-4.684c-4.197-.895-6.964-2.419-6.964-4.146zm42.878-7.108c-1.096-.898-2.699-.8-3.678.225 0 0-.001 0-.001.001-.979 1.024-1.004 2.63-.057 3.685 1.335 1.486 3.219 3.582 4.703 5.234.605.674 1.463 1.064 2.368 1.078s1.775-.35 2.4-1.005c.625-.654.949-1.54.894-2.443-.055-.904-.485-1.743-1.185-2.317-1.718-1.406-3.898-3.192-5.444-4.458zm-50.822 4.066c1.027-1.144 1.006-2.885-.049-4.003-.001 0-.001-.001-.001-.001-1.055-1.118-2.791-1.241-3.993-.282-1.48 1.181-3.473 2.771-5.11 4.077-.764.61-1.238 1.512-1.307 2.487-.069.976.273 1.935.944 2.647h.001c.671.712 1.609 1.11 2.587 1.098s1.906-.433 2.559-1.16c1.399-1.558 3.103-3.455 4.369-4.863zm15.367-3.308c-1.004-.378-1.534-1.478-1.202-2.498 1.202-3.731 3.904-12.048 3.904-12.048.42-1.29-.04-2.704-1.137-3.501 0 0-2.862-2.079-4.629-3.363-.192-.14-.272-.386-.199-.612.073-.225.283-.378.52-.378h5.722c1.357 0 2.559-.873 2.979-2.164 0 0 1.092-3.363 1.768-5.441.073-.226.283-.378.52-.378s.447.152.52.378c.675 2.078 1.768 5.441 1.768 5.441.419 1.291 1.622 2.164 2.979 2.164h5.721c.237 0 .447.153.52.378.073.226-.007.472-.199.612-1.767 1.284-4.628 3.363-4.628 3.363-1.098.797-1.557 2.211-1.138 3.501 0 0 2.702 8.317 3.913 12.045.334 1.025-.198 2.13-1.207 2.51-2.577.925-5.354 1.435-8.249 1.435-2.896 0-5.673-.51-8.246-1.444zm41.439-10.81c-1.44-.53-3.046.132-3.694 1.522-.649 1.391-.124 3.047 1.208 3.81 1.642.94 3.854 2.207 5.672 3.248.85.487 1.864.595 2.797.299.934-.296 1.7-.969 2.114-1.857.414-.887.438-1.908.065-2.813s-1.109-1.613-2.028-1.951c-1.965-.724-4.358-1.604-6.134-2.258zm-64.123 4.937c1.342-.745 1.888-2.394 1.257-3.793 0 0 0 0 0-.001-.631-1.398-2.227-2.08-3.674-1.569-1.783.631-4.188 1.481-6.163 2.179-.923.326-1.668 1.024-2.052 1.925-.385.9-.375 1.921.028 2.814.402.893 1.16 1.576 2.09 1.884.929.308 1.945.212 2.801-.263 1.831-1.018 4.06-2.256 5.713-3.176zm17.543 1.827c-.223.687-.773 1.219-1.468 1.419s-1.444.041-1.998-.423c-5.66-4.801-9.261-11.961-9.261-19.956 0-14.413 11.701-26.114 26.114-26.114 14.412 0 26.113 11.701 26.113 26.114 0 7.995-3.6 15.155-9.268 19.948-.551.461-1.296.619-1.988.42-.691-.199-1.238-.728-1.461-1.412-1.326-4.046-3.567-10.943-3.567-10.943l7.486-5.439c1.185-.861 1.681-2.387 1.228-3.78s-1.751-2.336-3.216-2.336h-9.252l-2.86-8.8c-.452-1.393-1.751-2.337-3.215-2.337-1.465 0-2.763.944-3.216 2.337l-2.859 8.8h-9.253c-1.465 0-2.763.943-3.216 2.336-.452 1.393.043 2.919 1.228 3.78l7.486 5.439s-2.241 6.897-3.557 10.947zm48.742-18.291c-1.537-.029-2.838 1.126-2.994 2.655v.001c-.155 1.528.886 2.92 2.396 3.202 1.86.347 4.367.816 6.426 1.2.962.18 1.955-.051 2.738-.637.784-.587 1.286-1.474 1.385-2.447 0-.001 0-.001 0-.001.099-.973-.214-1.944-.863-2.675-.649-.732-1.574-1.159-2.552-1.177-2.094-.039-4.643-.086-6.536-.121zm-70.194 5.412c1.514-.262 2.573-1.641 2.438-3.172-.136-1.532-1.424-2.703-2.962-2.694-1.893.011-4.443.026-6.536.039-.978.006-1.909.421-2.567 1.144s-.983 1.689-.896 2.663v.001c.086.975.577 1.868 1.353 2.464.776.597 1.766.841 2.73.673 2.063-.358 4.575-.794 6.44-1.118zm68.468-17.017c-1.459.475-2.31 1.987-1.96 3.481.351 1.493 1.787 2.469 3.305 2.244 1.871-.276 4.394-.649 6.466-.956.969-.143 1.833-.685 2.384-1.495.55-.81.736-1.814.512-2.767 0-.001 0-.001 0-.001-.224-.954-.837-1.77-1.691-2.25-.853-.481-1.869-.582-2.8-.279-1.992.649-4.417 1.438-6.216 2.023zm-68.534 5.278c1.514.244 2.963-.713 3.333-2.202 0 0 0 0 0-.001.37-1.488-.462-3.011-1.914-3.504-1.791-.608-4.206-1.429-6.19-2.103-.928-.315-1.944-.227-2.804.242-.859.47-1.483 1.278-1.719 2.228v.002c-.237.95-.064 1.956.476 2.773s1.397 1.37 2.364 1.526c2.068.333 4.586.738 6.454 1.039zm63.101-15.672c-1.224.928-1.533 2.64-.71 3.936.001.001.001.001.001.001.823 1.297 2.503 1.746 3.863 1.034 1.677-.878 3.936-2.06 5.792-3.032.867-.453 1.504-1.249 1.757-2.195.253-.945.098-1.953-.426-2.779 0 0 0-.001-.001-.001-.524-.826-1.37-1.395-2.333-1.568-.963-.174-1.954.064-2.734.655-1.669 1.265-3.701 2.806-5.209 3.949zm-59.334 4.571c1.351.73 3.036.302 3.876-.984 0 0 0-.001.001-.001.839-1.286.553-3.002-.66-3.945-1.493-1.163-3.506-2.729-5.158-4.016-.772-.601-1.761-.851-2.725-.69-.965.162-1.819.72-2.353 1.539-.001 0-.001 0-.001.001-.535.819-.702 1.825-.461 2.773.24.949.867 1.753 1.728 2.217 1.843.995 4.087 2.207 5.753 3.106zm50.797-12.632c-.856 1.277-.591 2.997.61 3.956h.001c1.201.959 2.937.837 3.992-.281 1.3-1.376 3.051-3.231 4.488-4.753.671-.711 1.014-1.671.945-2.646-.068-.976-.542-1.878-1.306-2.488-.001-.001-.001-.001-.002-.001-.764-.61-1.749-.873-2.715-.724-.967.15-1.827.697-2.372 1.509-1.166 1.738-2.586 3.856-3.641 5.428zm-43.591 3.366c1.041 1.132 2.776 1.276 3.989.332.001 0 .001 0 .001-.001 1.213-.943 1.5-2.659.661-3.946-1.035-1.585-2.428-3.721-3.572-5.474-.535-.82-1.388-1.378-2.353-1.539-.964-.162-1.953.088-2.725.689 0 0 0 0-.001 0-.771.601-1.257 1.497-1.338 2.471-.081.975.25 1.939.912 2.658 1.418 1.541 3.145 3.417 4.426 4.81zm32.9-8.181c-.389 1.483.424 3.017 1.87 3.528v.001c1.446.511 3.043-.17 3.674-1.568.778-1.725 1.828-4.049 2.689-5.958.403-.893.414-1.914.029-2.814-.384-.901-1.128-1.599-2.051-1.926-.001 0-.001 0-.002-.001-.923-.326-1.941-.251-2.806.207-.866.459-1.499 1.259-1.747 2.207-.531 2.027-1.177 4.494-1.656 6.324zm-23.067 1.778c.613 1.406 2.2 2.107 3.652 1.615.001-.001.001-.001.002-.001 1.452-.493 2.284-2.015 1.915-3.504-.456-1.836-1.07-4.311-1.574-6.345-.236-.95-.859-1.759-1.719-2.228-.859-.47-1.876-.558-2.803-.244-.001 0-.001.001-.002.001-.927.315-1.68 1.003-2.076 1.899s-.399 1.916-.007 2.814c.837 1.921 1.856 4.259 2.612 5.993zm11.396-2.581c.105 1.374 1.278 2.421 2.655 2.368l.096.001c1.613.071 2.996-1.14 3.139-2.748.16-1.792.367-4.125.543-6.1.094-1.052-.247-2.097-.942-2.892-.696-.795-1.686-1.271-2.741-1.317l-.094-.001c-.905.035-1.757.436-2.36 1.112-.604.676-.906 1.569-.837 2.472.171 2.237.388 5.097.541 7.105z"/></svg>