<svg clip-rule="evenodd" fill-rule="evenodd" stroke-linejoin="round" stroke-miterlimit="2" viewBox="0 0 100 101" xmlns="http://www.w3.org/2000/svg" xmlns:xlink="http://www.w3.org/1999/xlink"><clipPath id="a"><path clip-rule="evenodd" d="m0 .304h100v100h-100z"/></clipPath><path d="m0 .304h100v100h-100z" fill="none"/><g clip-path="url(#a)"><path d="m0 .304h100v100h-100z" fill="#089aff"/><path d="m43.35 43.162 39.897-42.858h-83.247l.002 42.858z" fill="#ffcc45"/><path d="m.002 43.162 75.861-42.858h24.137l-79.984 100h-20.014v-57.142z" fill="#fc593d"/><path d="m28.498 98.638 33.408-51.2 15.67-19.099c-27.575 37.344-9.026 70.299 7.547 71.965h-41.943z"/><path d="m61.906 47.438c-19.66 32.756-21.79 45.666-18.726 52.865h-23.881s20.16-24.885 42.607-52.865z" fill="#fff"/><circle cx="30.56" cy="54.471" r="9.167"/><path d="m50.001-1.207c-28.429 0-51.51 23.081-51.51 51.51s23.081 51.51 51.51 51.51 51.51-23.081 51.51-51.51-23.081-51.51-51.51-51.51zm0 1.01c27.872 0 50.5 22.628 50.5 50.5s-22.628 50.5-50.5 50.5-50.5-22.628-50.5-50.5 22.628-50.5 50.5-50.5z" fill="#fff"/></g></svg>