<svg clip-rule="evenodd" fill-rule="evenodd" stroke-linejoin="round" stroke-miterlimit="2" viewBox="0 0 100 100" xmlns="http://www.w3.org/2000/svg"><path d="m0 0h100v100h-100z" fill="none"/><path d="m69.138 3.799c6.067 2.519 11.533 6.199 16.12 10.763-.085.051-.109.056-.057.004-4.438 4.438-8.161 9.174-11.237 14.039l-57.278 71.395h-4.686c-6.627 0-12-5.373-12-12v-45.141zm-20.134 96.201c-3.726-14.253.904-26.114 16.156-52.319-.781 2.528-1.414 5.033-1.906 7.49-2.454 12.237-1.425 23.319 1.863 30.485 2.003 4.365 4.864 7.333 8.25 8.55-6.975 3.699-14.928 5.794-23.367 5.794zm39.713-81.625c7.051 8.619 11.283 19.632 11.283 31.625 0 13.152-5.089 25.125-13.403 34.053-4.828 4.445-11.45 1.733-13.606-3.001-2.043-4.485-2.99-10.638-2.736-17.351 1.078-28.479 14.636-42.048 18.462-45.326zm-88.717 15.556v-21.653c0-6.586 5.309-11.942 11.896-11.999 12.176-.117 30.375-.279 38.104-.279 4.865 0 9.569.696 14.02 1.996z" fill="#089aff"/></svg>