<svg clip-rule="evenodd" fill-rule="evenodd" stroke-linejoin="round" stroke-miterlimit="2" viewBox="0 0 100 100" xmlns="http://www.w3.org/2000/svg" xmlns:xlink="http://www.w3.org/1999/xlink"><linearGradient id="a"><stop offset="0" stop-color="#fc123d"/><stop offset="1" stop-color="#ff9ff4"/></linearGradient><linearGradient id="b" gradientTransform="matrix(-19.8053 0 0 -19.8053 94.6986 20.9563)" gradientUnits="userSpaceOnUse" x1="0" x2="1" xlink:href="#a" y1="0" y2="0"/><linearGradient id="c" gradientTransform="matrix(-16.1354 0 0 -16.1354 59.6812 63.8116)" gradientUnits="userSpaceOnUse" x1="0" x2="1" xlink:href="#a" y1="0" y2="0"/><linearGradient id="d" gradientTransform="matrix(29.0437 29.0437 -29.0437 29.0437 15.3925 41.9323)" gradientUnits="userSpaceOnUse" x1="0" x2="1" xlink:href="#a" y1="0" y2="0"/><clipPath id="e"><path clip-rule="evenodd" d="m0 0h100v100h-100z"/></clipPath><path d="m0 0h100v100h-100z" fill="none"/><g clip-path="url(#e)"><path d="m44.785 1.397c3.227-1.863 7.203-1.863 10.43 0 8.602 4.967 25.667 14.819 34.269 19.785 3.227 1.864 5.215 5.307 5.215 9.033v39.57c0 3.726-1.988 7.169-5.215 9.033-8.602 4.966-25.667 14.818-34.269 19.785-3.227 1.863-7.203 1.863-10.43 0-8.602-4.967-25.667-14.819-34.269-19.785-3.227-1.864-5.215-5.307-5.215-9.033v-39.57c0-3.726 1.988-7.169 5.215-9.033 8.602-4.966 25.667-14.818 34.269-19.785z" fill="url(#b)"/><path d="m48.708 56.318c-.11-3.883 1.946-7.506 5.337-9.402 8.519-4.761 24.844-13.886 34.003-19.005 1.384-.774 3.075-.756 4.443.046 1.367.802 2.208 2.27 2.208 3.855v37.973c0 3.726-1.988 7.169-5.215 9.033-8.196 4.731-24.073 13.898-32.995 19.049-1.363.787-3.04.799-4.414.031-1.374-.767-2.244-2.201-2.289-3.775-.29-10.194-.805-28.259-1.078-37.805z" fill="url(#c)"/><path d="m48.691 55.723c-.101-3.564-2.017-6.83-5.079-8.658-7.742-4.622-22.794-13.608-31.549-18.835-1.382-.825-3.099-.844-4.498-.05s-2.264 2.279-2.264 3.888v37.717c0 3.726 1.988 7.169 5.215 9.033 8.062 4.654 23.558 13.6 32.553 18.794 1.403.81 3.134.797 4.525-.032 1.391-.83 2.224-2.348 2.178-3.967-.299-10.498-.818-28.669-1.081-37.89z" fill="url(#d)"/><g fill="#fff"><path d="m44.132 83.837-13.058-32.999c-.476-1.203-1.839-1.793-3.042-1.317-1.202.476-1.792 1.839-1.316 3.042l13.059 32.998c.475 1.203 1.838 1.793 3.041 1.317 1.202-.476 1.792-1.839 1.316-3.041z"/><path d="m27.829 48.972-13.502 5.273c-1.506.588-2.251 2.288-1.663 3.794s2.288 2.251 3.794 1.663l13.502-5.273c1.506-.588 2.251-2.288 1.663-3.794s-2.288-2.251-3.794-1.663z"/><path d="m15.392 50.683c2.943 1.478 5.332 5.498 5.332 8.969 0 3.472-2.389 5.09-5.332 3.612-2.942-1.479-5.331-5.498-5.331-8.97s2.389-5.09 5.331-3.611z"/><path d="m28.895 45.41c2.942 1.478 5.331 5.498 5.331 8.969 0 3.472-2.389 5.09-5.331 3.612-2.943-1.479-5.332-5.498-5.332-8.97s2.389-5.09 5.332-3.611z"/><path d="m40.1 75.596c2.942 1.479 5.331 5.498 5.331 8.97s-2.389 5.09-5.331 3.611c-2.943-1.478-5.331-5.497-5.331-8.969s2.388-5.09 5.331-3.612z"/><path d="m78.934 25.609c.415-.239.67-.682.67-1.16s-.255-.92-.67-1.16c-1.739-1.004-4.225-2.439-5.858-3.382-1.036-.598-2.312-.598-3.348 0-3.498 2.02-11.572 6.681-15.343 8.858-.414.239-.669.681-.669 1.16 0 .478.255.92.669 1.159 1.74 1.004 4.226 2.44 5.859 3.383 1.036.598 2.312.598 3.348 0 3.498-2.02 11.572-6.681 15.342-8.858z"/><path d="m65.991 18.716c.518-.299.837-.852.837-1.45s-.319-1.151-.837-1.45c-3.83-2.211-11.03-6.368-14.286-8.247-1.035-.598-2.311-.598-3.347 0-3.35 1.934-10.896 6.29-14.841 8.568-.518.299-.837.852-.837 1.45s.319 1.15.837 1.449c3.83 2.211 11.03 6.368 14.286 8.248 1.035.598 2.312.598 3.347 0 3.35-1.934 10.896-6.291 14.841-8.568z"/><path d="m55.888 37.997c.414-.239.669-.681.669-1.159 0-.479-.255-.921-.669-1.16-5.593-3.229-21.27-12.28-26.435-15.262-1.036-.598-2.312-.598-3.347 0-.989.571-2.246 1.297-3.288 1.898-.414.239-.669.681-.669 1.16 0 .478.255.92.669 1.159 5.593 3.229 21.27 12.28 26.435 15.262 1.036.598 2.312.598 3.347 0 .989-.57 2.246-1.296 3.288-1.898z"/><path d="m74.15 70.895v-14.518c0-1.616 1.312-2.929 2.929-2.929 1.616 0 2.929 1.313 2.929 2.929v14.759c0 1.944-1.037 3.74-2.72 4.711-3.443 1.988-12.782 7.38-12.782 7.38-1.4.808-3.193.328-4.001-1.072s-.328-3.193 1.072-4.002z"/><path d="m77.394 53.821-6.106 8.909c-.914 1.333-2.739 1.674-4.072.76-1.334-.914-1.674-2.739-.76-4.072l9.088-13.259 9.916 5.365c1.422.77 1.952 2.549 1.182 3.971-.769 1.422-2.548 1.951-3.97 1.182z"/></g></g></svg>