<svg clip-rule="evenodd" fill-rule="evenodd" stroke-linejoin="round" stroke-miterlimit="2" viewBox="0 0 100 20" xmlns="http://www.w3.org/2000/svg"><g fill="#fff"><path d="m2059.8 155.078c-1.29-3.216-2-6.727-2-10.404 0-1.811-1.47-3.282-3.29-3.282-1.81 0-3.28 1.471-3.28 3.282 0 4.543.89 8.883 2.49 12.856.67 1.68 2.59 2.495 4.27 1.818s2.49-2.59 1.81-4.27z" transform="matrix(.04471592 .16688198 -.16688198 .04471592 -58.577576 -344.625752)"/><path d="m2082.69 172.408c-6.89-.737-13.03-3.99-17.49-8.82-1.23-1.33-3.31-1.413-4.64-.184s-1.41 3.307-.18 4.637c5.51 5.967 13.1 9.982 21.61 10.893 1.81.192 3.42-1.113 3.62-2.914.19-1.801-1.12-3.42-2.92-3.612z" transform="matrix(.04471592 .16688198 -.16688198 .04471592 -58.577576 -344.625752)"/><path d="m2329.59 109.156c6.64.87 13.05 3.854 18.15 8.951 11.48 11.487 12.24 29.667 2.26 42.032-1.04 1.289-2.93 1.491-4.22.452-1.29-1.04-1.49-2.93-.45-4.219 8.08-10.009 7.46-24.725-1.83-34.022-3.93-3.925-8.82-6.301-13.91-7.13z" transform="matrix(.163665 .094492 -.094492 .163665 -356.789565 -232.804606)"/><path d="m307.971 412.093c.815 0 1.543.508 1.825 1.272 1.669 4.523 7.31 19.807 9.062 24.553.301.816-.037 1.73-.796 2.154 0 0 0 0-.001 0-3.607 2.015-5.841 5.823-5.841 9.954-2.517 2.742-11.336 2.742-14.323 0 0-4.131-2.235-7.939-5.842-9.954-.76-.424-1.098-1.338-.796-2.154 1.751-4.746 7.392-20.03 9.061-24.553.282-.764 1.011-1.272 1.825-1.272h.004c.374 0 .732.149.996.413.265.265.413.623.413.997v19.123c-1.465.594-2.5 2.032-2.5 3.709 0 2.208 1.792 4 4 4s4-1.792 4-4c0-1.677-1.035-3.115-2.5-3.709v-19.123c0-.374.149-.732.413-.997.264-.264.623-.413.996-.413z" transform="matrix(.20832591 .12027698 -.12027698 .20832591 -.498388 -117.73513)"/><path d="m2205.68 166.712c-7.9 4.603-17.76 4.603-25.66 0-1.43-.833-3.27-.348-4.1 1.082-.83 1.431-.35 3.269 1.08 4.103 9.76 5.686 21.94 5.686 31.7 0 1.43-.834 1.91-2.672 1.08-4.103-.83-1.43-2.67-1.915-4.1-1.082z" transform="matrix(.163665 .094492 -.094492 .163665 -334.68039 -220.976472)"/><g fill-rule="nonzero"><path d="m.025 0 .123-.7h.239c.105 0 .183.026.232.077s.074.121.074.208c0 .081-.018.153-.053.216-.036.063-.086.111-.15.146-.064.036-.139.053-.226.053zm.147-.11h.105c.061 0 .112-.012.155-.036.042-.024.074-.058.096-.102s.033-.096.033-.156c0-.063-.016-.11-.048-.141s-.082-.046-.151-.046h-.105z" transform="matrix(9.94266343 0 0 9.94266343 21.98949 13.42595)"/><path d="m.26.012c-.066 0-.119-.019-.157-.057-.039-.038-.059-.089-.059-.154 0-.042.007-.082.022-.119s.036-.07.063-.099c.027-.028.06-.05.098-.067.037-.016.079-.024.124-.024.044 0 .082.008.113.025s.056.041.073.07c.017.03.025.064.025.102 0 .016-.001.032-.004.049s-.007.032-.011.045h-.377v.017c0 .033.01.06.03.078.02.02.046.029.078.029.025 0 .048-.006.068-.018.019-.011.035-.026.048-.045h.13c-.015.032-.036.061-.062.086-.027.025-.057.045-.091.06-.035.015-.072.022-.111.022zm.074-.416c-.031 0-.06.009-.087.026-.027.018-.047.045-.06.081h.247c.001-.005.001-.009.001-.011.001-.029-.008-.053-.027-.07s-.043-.026-.074-.026z" transform="matrix(9.94266343 0 0 9.94266343 29.109237 13.42595)"/><path d="m.23.012c-.045 0-.084-.008-.115-.023-.032-.015-.056-.036-.072-.063s-.023-.057-.02-.091h.128c-.001.023.007.042.023.057s.04.022.072.022c.028 0 .05-.006.066-.018.015-.012.023-.027.023-.046 0-.017-.008-.029-.025-.037-.017-.007-.038-.014-.064-.02-.027-.007-.054-.015-.08-.026s-.047-.025-.064-.042-.026-.04-.026-.067c0-.032.01-.061.029-.086.019-.024.045-.044.078-.059.033-.014.072-.021.115-.021.059 0 .105.014.139.042s.05.066.049.114h-.123c-.001-.017-.008-.031-.022-.042-.015-.011-.034-.016-.057-.016-.024 0-.043.005-.058.015-.015.011-.023.024-.023.039s.009.026.027.033c.017.008.04.015.069.022.031.007.06.016.085.027s.044.024.06.041c.015.017.022.04.022.067 0 .036-.01.067-.031.094s-.049.047-.084.062c-.036.015-.076.022-.121.022z" transform="matrix(9.94266343 0 0 9.94266343 35.034652 13.42595)"/><path d="m.205-.57c-.023 0-.042-.007-.057-.022-.016-.014-.023-.032-.023-.053s.007-.039.023-.054c.015-.014.034-.021.057-.021s.042.007.058.021c.015.015.022.033.022.054s-.007.039-.022.053c-.016.015-.035.022-.058.022zm-.178.57.087-.496h.128l-.087.496z" transform="matrix(9.94266343 0 0 9.94266343 40.363906 13.42595)"/><path d="m.247.232c-.041 0-.08-.007-.116-.021-.037-.014-.066-.036-.087-.065-.022-.029-.032-.067-.03-.114h.127c.001.028.013.05.036.066.022.015.051.023.086.023.025 0 .049-.005.072-.015.023-.011.044-.027.061-.048.017-.022.028-.049.033-.082l.011-.062c-.019.024-.045.045-.076.062-.032.018-.069.027-.111.027-.041 0-.078-.01-.109-.029s-.056-.044-.073-.077c-.017-.032-.026-.068-.026-.108 0-.041.007-.079.022-.115s.035-.068.062-.095c.026-.027.057-.049.092-.064s.073-.023.114-.023c.038 0 .072.008.101.023.029.016.051.036.064.059l.028-.07h.112l-.083.47c-.01.057-.03.105-.06.144-.031.038-.068.067-.111.086s-.09.028-.139.028zm.051-.34c.031 0 .06-.008.086-.024.026-.015.047-.036.062-.062s.023-.055.023-.087c0-.033-.011-.061-.034-.083-.023-.021-.054-.032-.091-.032-.032 0-.061.008-.086.023s-.045.036-.059.061c-.015.026-.022.054-.022.085 0 .034.011.062.033.085.021.023.051.034.088.034z" transform="matrix(9.94266343 0 0 9.94266343 43.048137 13.42595)"/><path d="m.022 0 .087-.496h.113l-.003.082c.021-.029.047-.052.078-.069s.066-.025.105-.025c.051 0 .091.014.12.042.028.029.042.07.042.123 0 .019-.002.04-.006.063l-.05.28h-.128l.048-.268c.001-.008.002-.016.003-.023s.001-.013.001-.019c0-.06-.03-.09-.089-.09-.035 0-.067.012-.094.037-.027.026-.045.06-.053.103l-.046.26z" transform="matrix(9.94266343 0 0 9.94266343 49.631038 13.42595)"/><path d="m.053-.236.018-.107h.419l-.019.107z" transform="matrix(9.94266343 0 0 9.94266343 55.686141 13.42595)"/><path d="m.243.012c-.041 0-.077-.01-.106-.029s-.052-.046-.068-.079-.024-.071-.024-.112c0-.057.012-.108.038-.153.025-.045.058-.081.101-.108.042-.026.089-.039.141-.039.041 0 .075.007.1.022.025.016.044.035.057.058l.026-.068h.114l-.088.496h-.113l-.003-.071c-.019.022-.042.041-.07.058-.029.017-.064.025-.105.025zm.049-.112c.031 0 .059-.008.084-.025.024-.016.043-.038.058-.065.014-.027.021-.057.021-.09 0-.035-.01-.063-.031-.084s-.049-.032-.085-.032c-.031 0-.059.008-.083.023-.025.015-.044.036-.058.062s-.021.055-.021.088c0 .035.01.064.031.087.02.024.048.036.084.036z" transform="matrix(9.94266343 0 0 9.94266343 60.925921 13.42595)"/><path d="m.053-.236.018-.107h.419l-.019.107z" transform="matrix(9.94266343 0 0 9.94266343 67.328868 13.42595)"/><path d="m.234 0c-.045 0-.081-.009-.108-.028-.028-.019-.041-.051-.041-.097 0-.015.002-.031.005-.049l.038-.215h-.08l.019-.107h.08l.038-.133h.114l-.024.133h.135l-.02.107h-.133l-.039.216c-.001.007-.002.013-.002.02 0 .016.005.027.014.034s.023.01.044.01h.068l-.02.109z" transform="matrix(9.94266343 0 0 9.94266343 72.568648 13.42595)"/><path d="m.022 0 .126-.72h.128l-.052.3c.021-.027.047-.048.078-.064s.065-.024.102-.024c.061 0 .105.019.133.058.027.039.034.095.021.17l-.05.28h-.128l.048-.268c.007-.043.004-.075-.009-.098s-.039-.034-.076-.034c-.035 0-.067.013-.094.038s-.045.061-.054.106v-.001l-.045.257z" transform="matrix(9.94266343 0 0 9.94266343 76.664362 13.42595)"/><path d="m.263.012c-.043 0-.081-.01-.114-.029s-.058-.046-.076-.079c-.019-.032-.028-.07-.028-.113 0-.042.008-.081.023-.118.015-.036.035-.068.063-.095.027-.027.058-.048.094-.064.036-.015.075-.022.116-.022.044 0 .083.009.116.028s.058.044.077.077.028.071.028.114-.008.082-.023.118c-.015.037-.036.069-.063.096-.028.027-.059.049-.095.064-.037.015-.076.023-.118.023zm.017-.111c.029 0 .054-.008.077-.024s.041-.038.054-.066c.013-.027.02-.058.02-.093 0-.037-.01-.065-.03-.085-.021-.02-.045-.03-.074-.03-.028 0-.053.008-.076.024s-.042.038-.055.065c-.013.028-.02.059-.02.094 0 .037.01.065.031.085.02.02.044.03.073.03z" transform="matrix(9.94266343 0 0 9.94266343 82.719465 13.42595)"/><path d="m.022 0 .087-.496h.113l-.003.082c.021-.029.047-.052.078-.069s.066-.025.105-.025c.051 0 .091.014.12.042.028.029.042.07.042.123 0 .019-.002.04-.006.063l-.05.28h-.128l.048-.268c.001-.008.002-.016.003-.023s.001-.013.001-.019c0-.06-.03-.09-.089-.09-.035 0-.067.012-.094.037-.027.026-.045.06-.053.103l-.046.26z" transform="matrix(9.94266343 0 0 9.94266343 88.754461 13.42595)"/></g></g></svg>