<svg clip-rule="evenodd" fill-rule="evenodd" stroke-linejoin="round" stroke-miterlimit="2" viewBox="0 0 100 100" xmlns="http://www.w3.org/2000/svg"><circle cx="49.834422" cy="54.63312" r="27.415"/><path d="m63.043 17.668c0-2.715-2.201-4.915-4.916-4.915-5.801 0-15.39 0-21.191 0-2.715 0-4.916 2.2-4.916 4.915v.001c0 2.715 2.201 4.916 4.916 4.916h21.191c2.715 0 4.916-2.201 4.916-4.916 0 0 0 0 0-.001z" transform="translate(2.30286 2.22312)"/><path d="m63.043 17.668c0-2.715-2.975-4.916-6.646-4.915-5.234 0-12.497 0-17.731 0-3.67-.001-6.646 2.2-6.646 4.915v.002c0 2.714 2.976 4.915 6.646 4.915h17.731c3.671 0 6.646-2.201 6.646-4.915 0-.001 0-.002 0-.002z" transform="matrix(-.332379 .332379 .449411 .449411 32.5548 8.97142)"/><path d="m63.043 17.668c0-2.715-2.975-4.916-6.646-4.915-5.234 0-12.497 0-17.731 0-3.67-.001-6.646 2.2-6.646 4.915v.002c0 2.714 2.976 4.915 6.646 4.915h17.731c3.671 0 6.646-2.201 6.646-4.915 0-.001 0-.002 0-.002z" transform="matrix(.332379 .332379 -.449411 .449411 67.4452 8.97142)"/><path d="m51.506 35.144c.094-.466.504-.801.98-.801.475 0 .885.335.98.801 1.094 5.386 2.868 14.118 4.063 19.998.307 1.513-.081 3.085-1.059 4.281-.977 1.196-2.44 1.89-3.984 1.889 0 0 0 0-.001 0-1.544.001-3.007-.693-3.984-1.889s-1.366-2.768-1.059-4.281c1.195-5.88 2.969-14.612 4.064-19.998z" fill="#fff" transform="matrix(.866025 .5 -.5 .866025 33.1619 -18.4689)"/></svg>