<svg preserveAspectRatio="none" overflow="visible" style="display: block;" width="25" height="25" viewBox="0 0 25 25" fill="none" xmlns="http://www.w3.org/2000/svg">
<g id="griddy-icons:email">
<path id="Vector" d="M20.0521 4.16667H4.94792C4.18861 4.16804 3.46079 4.47029 2.92387 5.0072C2.38696 5.54412 2.08471 6.27194 2.08333 7.03125V17.9687C2.08471 18.7281 2.38696 19.4559 2.92387 19.9928C3.46079 20.5297 4.18861 20.832 4.94792 20.8333H20.0521C20.8114 20.832 21.5392 20.5297 22.0761 19.9928C22.613 19.4559 22.9153 18.7281 22.9167 17.9687V7.03125C22.9153 6.27194 22.613 5.54412 22.0761 5.0072C21.5392 4.47029 20.8114 4.16804 20.0521 4.16667ZM4.94792 5.72917H20.0521C20.7708 5.72917 21.3542 6.3125 21.3542 7.03125V8.04688L12.5 13.1615L3.64583 8.04688V7.03125C3.64583 6.3125 4.22917 5.72917 4.94792 5.72917ZM20.0521 19.2708H4.94792C4.22917 19.2708 3.64583 18.6875 3.64583 17.9687V9.85417L12.5 14.9687L21.3542 9.85417V17.9687C21.3542 18.6875 20.7708 19.2708 20.0521 19.2708Z" fill="black"/>
</g>
</svg>
