<svg clip-rule="evenodd" fill-rule="evenodd" stroke-linejoin="round" stroke-miterlimit="2" viewBox="0 0 100 100" xmlns="http://www.w3.org/2000/svg"><g fill="#fff"><path d="m50-5.556c-30.662 0-55.556 24.894-55.556 55.556s24.894 55.556 55.556 55.556 55.556-24.894 55.556-55.556-24.894-55.556-55.556-55.556zm0 11.112c24.53 0 44.444 19.914 44.444 44.444s-19.914 44.444-44.444 44.444-44.444-19.914-44.444-44.444 19.914-44.444 44.444-44.444z" transform="matrix(.9 0 0 .9 5 5)"/><path d="m73.69 58c-3.338 9.879-12.689 17-23.69 17-13.798 0-25-11.202-25-25s11.202-25 25-25c11.001 0 20.352 7.121 23.69 17h-11.002c-2.659-4.206-7.35-7-12.688-7-8.279 0-15 6.721-15 15s6.721 15 15 15c5.338 0 10.029-2.794 12.688-7z"/></g></svg>