<svg clip-rule="evenodd" fill-rule="evenodd" stroke-linejoin="round" stroke-miterlimit="2" viewBox="0 0 669 88" xmlns="http://www.w3.org/2000/svg" xmlns:xlink="http://www.w3.org/1999/xlink"><linearGradient id="a" gradientTransform="matrix(-1 -44 44 -1 323 68)" gradientUnits="userSpaceOnUse" x1="0" x2="1" y1="0" y2="0"><stop offset="0" stop-color="#089aff"/><stop offset="1" stop-color="#011efb"/></linearGradient><path d="m215.724 87.765c-3.81 0-7.39-.646-10.74-1.936-3.35-1.291-6.023-3.288-8.021-5.993-1.997-2.704-2.904-6.207-2.719-10.509h11.708c.123 2.581 1.214 4.594 3.273 6.038s4.717 2.167 7.974 2.167c2.274 0 4.487-.477 6.638-1.429 2.151-.953 4.01-2.428 5.577-4.425 1.567-1.998 2.597-4.502 3.089-7.514l1.014-5.716c-1.783 2.213-4.133 4.133-7.053 5.762-2.919 1.629-6.315 2.443-10.187 2.443-3.81 0-7.16-.876-10.048-2.627-2.889-1.752-5.132-4.118-6.73-7.099s-2.397-6.315-2.397-10.002c0-3.749.676-7.283 2.028-10.602s3.242-6.238 5.67-8.758c2.427-2.52 5.27-4.487 8.527-5.9 3.258-1.414 6.761-2.121 10.51-2.121 3.503 0 6.607.722 9.311 2.167 2.704 1.444 4.671 3.242 5.9 5.393l2.581-6.453h10.326l-7.652 43.329c-.922 5.285-2.781 9.695-5.578 13.229-2.796 3.534-6.192 6.177-10.187 7.928-3.994 1.752-8.266 2.628-12.814 2.628zm-75.872-20.282c-4.179 0-7.729-.707-10.648-2.12-2.919-1.414-5.117-3.35-6.592-5.808-1.475-2.459-2.089-5.255-1.843-8.39h11.8c-.062 2.151.645 3.903 2.12 5.255s3.688 2.028 6.638 2.028c2.581 0 4.594-.553 6.038-1.659 1.445-1.106 2.167-2.52 2.167-4.241 0-1.536-.768-2.658-2.305-3.365-1.536-.707-3.503-1.337-5.9-1.89-2.52-.614-4.978-1.413-7.375-2.397-2.397-.983-4.379-2.274-5.946-3.872-1.568-1.598-2.351-3.656-2.351-6.176 0-2.95.875-5.578 2.627-7.882 1.752-2.305 4.164-4.118 7.237-5.44 3.073-1.321 6.607-1.982 10.602-1.982 5.408 0 9.68 1.291 12.814 3.872 3.135 2.582 4.64 6.085 4.517 10.51h-11.339c-.061-1.598-.753-2.889-2.074-3.872-1.322-.983-3.058-1.475-5.209-1.475-2.212 0-4.01.476-5.393 1.429-1.383.952-2.074 2.136-2.074 3.549 0 1.352.814 2.382 2.443 3.088 1.628.707 3.764 1.368 6.407 1.983 2.889.676 5.485 1.505 7.79 2.489 2.305.983 4.149 2.258 5.531 3.826 1.383 1.567 2.075 3.61 2.075 6.13 0 3.319-.953 6.208-2.858 8.666s-4.502 4.364-7.79 5.716-6.991 2.028-11.109 2.028zm445.184 0c-3.995 0-7.498-.891-10.509-2.674-3.012-1.782-5.363-4.194-7.053-7.236-1.69-3.043-2.535-6.531-2.535-10.464 0-3.872.691-7.483 2.074-10.832 1.383-3.35 3.319-6.285 5.808-8.804 2.489-2.52 5.393-4.472 8.712-5.854 3.319-1.383 6.884-2.075 10.694-2.075 4.057 0 7.606.861 10.648 2.582 3.042 1.72 5.424 4.087 7.145 7.098 1.721 3.012 2.581 6.515 2.581 10.51 0 3.933-.707 7.575-2.12 10.924-1.414 3.35-3.365 6.285-5.854 8.804-2.489 2.52-5.409 4.487-8.758 5.901-3.35 1.413-6.961 2.12-10.833 2.12zm-497.364 0c-6.084 0-10.924-1.752-14.519-5.255-3.596-3.503-5.394-8.236-5.394-14.197 0-3.872.677-7.529 2.029-10.971 1.352-3.441 3.288-6.468 5.808-9.08 2.519-2.612 5.516-4.671 8.988-6.177 3.473-1.506 7.298-2.259 11.478-2.259 4.056 0 7.529.784 10.417 2.351 2.889 1.567 5.117 3.718 6.684 6.453s2.351 5.854 2.351 9.358c0 1.475-.138 2.996-.415 4.563s-.599 2.935-.968 4.102h-34.756v1.568c0 3.073.922 5.485 2.766 7.237 1.844 1.751 4.241 2.627 7.191 2.627 2.335 0 4.41-.538 6.223-1.613 1.813-1.076 3.303-2.474 4.471-4.195h11.985c-1.414 2.95-3.335 5.593-5.762 7.928-2.428 2.336-5.224 4.18-8.39 5.532-3.165 1.352-6.56 2.028-10.187 2.028zm293.441 0c-3.811 0-7.068-.891-9.773-2.674-2.704-1.782-4.793-4.21-6.268-7.283-1.476-3.073-2.213-6.514-2.213-10.325 0-5.224 1.152-9.926 3.457-14.105s5.409-7.483 9.311-9.91c3.903-2.428 8.251-3.642 13.045-3.642 3.811 0 6.884.692 9.219 2.075 2.336 1.382 4.087 3.149 5.255 5.3l2.397-6.268h10.509l-8.112 45.726h-10.418l-.276-6.546c-1.721 2.028-3.888 3.811-6.5 5.347-2.612 1.537-5.823 2.305-9.633 2.305zm-381.113-1.106 11.339-64.533h22.034c9.71 0 16.84 2.366 21.388 7.098 4.548 4.733 6.822 11.125 6.822 19.176 0 7.498-1.644 14.136-4.932 19.913s-7.883 10.279-13.783 13.506c-5.9 3.226-12.845 4.84-20.835 4.84h-22.033zm170.551 0 8.021-45.726h11.8l-8.021 45.726zm317.686 0c-4.179 0-7.513-.861-10.003-2.582-2.489-1.721-3.733-4.701-3.733-8.942 0-1.352.153-2.858.461-4.517l3.503-19.821h-7.375l1.751-9.864h7.376l3.503-12.262h10.509l-2.212 12.262h12.445l-1.843 9.864h-12.262l-3.595 19.913c-.123.614-.184 1.229-.184 1.844 0 1.475.415 2.519 1.244 3.134.83.615 2.197.922 4.103.922h6.269l-1.844 10.049zm130.541 0 8.02-45.726h10.418l-.277 7.559c1.905-2.643 4.302-4.748 7.191-6.315s6.115-2.351 9.68-2.351c4.732 0 8.405 1.306 11.017 3.918s3.918 6.377 3.918 11.294c0 1.72-.185 3.656-.553 5.808l-4.61 25.813h-11.8l4.425-24.707c.061-.738.138-1.429.23-2.074.093-.646.139-1.245.139-1.798 0-5.532-2.735-8.297-8.205-8.297-3.258 0-6.146 1.152-8.666 3.457s-4.149 5.454-4.886 9.449l-4.241 23.97zm-362.767 0 8.021-45.726h10.417l-.277 7.559c1.906-2.643 4.303-4.748 7.191-6.315 2.889-1.567 6.115-2.351 9.68-2.351 4.733 0 8.405 1.306 11.017 3.918s3.918 6.377 3.918 11.294c0 1.72-.184 3.656-.553 5.808l-4.61 25.813h-11.8l4.425-24.707c.062-.738.138-1.429.231-2.074.092-.646.138-1.245.138-1.798 0-5.532-2.735-8.297-8.205-8.297-3.257 0-6.146 1.152-8.666 3.457s-4.148 5.454-4.886 9.449l-4.241 23.97zm250.664 0 11.616-66.377h11.8l-4.794 27.657c1.906-2.458 4.287-4.425 7.145-5.9s6.008-2.213 9.45-2.213c5.654 0 9.726 1.783 12.215 5.347 2.489 3.565 3.149 8.789 1.982 15.673l-4.61 25.813h-11.8l4.425-24.707c.676-3.934.4-6.945-.83-9.035-1.229-2.089-3.564-3.134-7.006-3.134-3.257 0-6.146 1.167-8.666 3.503-2.52 2.335-4.179 5.593-4.978 9.772v-.092l-4.149 23.693zm79.929-9.127c2.642 0 5.009-.738 7.098-2.213 2.09-1.475 3.749-3.488 4.978-6.038 1.23-2.551 1.844-5.424 1.844-8.62 0-3.38-.937-5.992-2.812-7.836-1.874-1.844-4.133-2.766-6.776-2.766-2.581 0-4.932.738-7.052 2.213s-3.795 3.488-5.024 6.038c-1.23 2.551-1.844 5.424-1.844 8.62 0 3.38.937 5.992 2.812 7.836 1.874 1.844 4.133 2.766 6.776 2.766zm-200.974-.092c2.888 0 5.454-.753 7.698-2.259 2.243-1.506 4.025-3.519 5.347-6.038 1.321-2.52 1.982-5.286 1.982-8.297 0-3.196-.953-5.778-2.858-7.744-1.905-1.967-4.517-2.951-7.836-2.951-2.889 0-5.455.707-7.698 2.121-2.243 1.413-4.01 3.319-5.301 5.716s-1.936 5.101-1.936 8.112c0 3.196.937 5.885 2.812 8.067 1.874 2.182 4.471 3.273 7.79 3.273zm-165.204-.738c2.888 0 5.531-.722 7.928-2.166 2.397-1.445 4.302-3.365 5.716-5.762 1.413-2.397 2.12-5.071 2.12-8.021 0-3.073-1.06-5.608-3.18-7.605-2.121-1.998-4.902-2.997-8.344-2.997-2.95 0-5.592.707-7.928 2.121-2.335 1.413-4.164 3.303-5.485 5.67-1.322 2.366-1.982 4.962-1.982 7.79 0 3.134.999 5.746 2.996 7.836 1.997 2.089 4.717 3.134 8.159 3.134zm-206.874-.184h9.68c5.593 0 10.34-1.107 14.243-3.319 3.903-2.213 6.868-5.347 8.896-9.403 2.029-4.057 3.043-8.851 3.043-14.382 0-5.777-1.475-10.095-4.425-12.953s-7.591-4.287-13.921-4.287h-9.68zm301.46-11.616 1.66-9.864h38.627l-1.751 9.864zm107.955 0 1.659-9.864h38.628l-1.752 9.864zm-328.472-15.488c-2.828 0-5.501.814-8.021 2.443s-4.364 4.102-5.531 7.421h22.771c.061-.491.092-.829.092-1.014.061-2.704-.769-4.855-2.489-6.453-1.721-1.598-3.995-2.397-6.822-2.397zm92.466-15.304c-2.151 0-3.918-.66-5.301-1.982-1.383-1.321-2.074-2.965-2.074-4.932 0-1.966.691-3.611 2.074-4.932s3.15-1.982 5.301-1.982 3.918.661 5.301 1.982 2.074 2.966 2.074 4.932c0 1.967-.691 3.611-2.074 4.932-1.383 1.322-3.15 1.982-5.301 1.982z" fill="url(#a)" fill-rule="nonzero"/></svg>