<svg clip-rule="evenodd" fill-rule="evenodd" stroke-linejoin="round" stroke-miterlimit="2" viewBox="0 0 1085 1085" xmlns="http://www.w3.org/2000/svg" xmlns:xlink="http://www.w3.org/1999/xlink"><linearGradient id="a" gradientTransform="matrix(-417.897 -509.384 509.384 -417.897 661.897 771.234)" gradientUnits="userSpaceOnUse" x1="0" x2="1" y1="0" y2="0"><stop offset="0" stop-color="#011efb"/><stop offset="1" stop-color="#0081ff"/></linearGradient><linearGradient id="b" gradientTransform="matrix(-13.746 -351.79 351.79 -13.746 1011.75 774.79)" gradientUnits="userSpaceOnUse" x1="0" x2="1" y1="0" y2="0"><stop offset="0" stop-color="#011efb"/><stop offset="1" stop-color="#001197"/></linearGradient><path d="m543.972 978.079c-149.775.586-289.565-80.118-363.971-210.141-13.472-23.541-43.522-31.717-67.064-18.245-23.541 13.472-31.716 43.522-18.245 67.063 91.925 160.635 264.627 260.335 449.664 259.611 27.123-.106 49.058-22.213 48.952-49.336s-22.213-49.058-49.336-48.952z" fill="url(#a)"/><path d="m854.357 282.394s-92.463-39.488-44.121-123.219c3.897-6.75 10.316-11.675 17.844-13.692s15.549-.961 22.299 2.936c.021.012.043.025.064.037 1.986 1.147 3.848 2.444 5.574 3.872l.699-1.211c87.075 66.732 153.65 161.617 184.215 275.685 68.872 257.033-69.362 521.113-312.188 614.825-25.304 9.765-53.777-2.85-63.542-28.155-9.766-25.304 2.85-53.777 28.154-63.543 196.551-75.853 308.383-289.637 252.636-497.687-17.474-65.214-49.492-122.678-91.634-169.848z" fill="url(#b)"/><path d="m129.689 624.497c-16.053-102.547 7.198-204.022 59.767-287.263 14.483-22.933 7.623-53.31-15.31-67.793-22.934-14.483-53.311-7.623-67.794 15.31-64.952 102.85-93.604 228.245-73.769 354.947 4.195 26.797 29.357 45.148 56.154 40.953s45.147-29.357 40.952-56.154z" fill="url(#a)"/><path d="m291.662 226.229c41.493-31.201 89.532-55.114 142.72-69.365 26.199-7.021 41.77-33.991 34.75-60.19s-33.99-41.77-60.189-34.75c-65.727 17.611-125.078 47.191-176.353 85.748-21.678 16.301-26.044 47.136-9.743 68.814 16.302 21.679 47.136 26.045 68.815 9.743z" fill="url(#a)"/><path d="m854.357 282.394-76.559 445.9c-3.07 17.877-18.696 30.859-36.833 30.601h-.009c-86.14-1.224-166.202 44.245-209.276 118.851-74.024 23.277-233.277-68.668-258.64-149.326 43.074-74.606 42.419-166.677-1.711-240.664-.001-.002-.003-.005-.004-.008-9.292-15.578-5.862-35.601 8.085-47.198 81.101-67.433 342.319-284.628 419.61-348.893 13.063-10.861 31.51-12.433 46.222-3.939.021.013.043.025.064.037 6.75 3.897 11.675 10.315 13.692 17.844 2.017 7.528.961 15.549-2.936 22.298-48.342 83.731-199.378 345.334-199.378 345.334-32.651-4.555-66.324 10.618-83.812 40.909-23.017 39.866-9.337 90.918 30.529 113.935s90.918 9.337 113.935-30.529c17.488-30.29 13.792-67.038-6.478-93.038 0 0 151.036-261.602 199.378-345.333 3.897-6.75 10.316-11.675 17.844-13.692s15.549-.961 22.299 2.936c.021.012.045.023.064.037 33.838 25.335 3.914 133.938 3.914 133.938z" fill="#011efb"/></svg>