<svg clip-rule="evenodd" fill-rule="evenodd" height="100" stroke-linejoin="round" stroke-miterlimit="2" width="100" xmlns="http://www.w3.org/2000/svg"><path d="m84.71 17.778c-6.474-3.028-13.395-5.23-20.631-6.483-.889 1.607-1.927 3.768-2.643 5.487-7.692-1.157-15.314-1.157-22.865 0-.715-1.719-1.777-3.88-2.674-5.487-7.244 1.253-14.173 3.463-20.646 6.499-13.057 19.73-16.596 38.97-14.826 57.937 8.659 6.467 17.052 10.395 25.302 12.966 2.038-2.804 3.854-5.784 5.42-8.925-2.981-1.133-5.836-2.531-8.534-4.153.716-.531 1.416-1.085 2.092-1.655 16.454 7.696 34.332 7.696 50.59 0 .684.57 1.384 1.124 2.092 1.655-2.706 1.63-5.569 3.028-8.55 4.161 1.565 3.133 3.375 6.121 5.419 8.925 8.259-2.571 16.659-6.499 25.319-12.974 2.076-21.987-3.547-41.051-14.865-57.953zm-51.322 46.289c-4.939 0-8.99-4.612-8.99-10.227s3.964-10.234 8.99-10.234 9.077 4.611 8.99 10.234c.008 5.615-3.964 10.227-8.99 10.227zm33.223 0c-4.939 0-8.99-4.612-8.99-10.227s3.964-10.234 8.99-10.234 9.077 4.611 8.991 10.234c0 5.615-3.965 10.227-8.991 10.227z" fill="#fff" fill-rule="nonzero"/></svg>