<svg clip-rule="evenodd" fill-rule="evenodd" height="100" stroke-linejoin="round" stroke-miterlimit="2" width="100" xmlns="http://www.w3.org/2000/svg"><g fill="#fff"><path d="m50 6c-11.724 0-13.194.05-17.798.26-4.714.215-7.933.969-10.75 2.064-2.952 1.147-5.455 2.683-7.951 5.178-2.495 2.495-4.03 4.999-5.177 7.95-1.095 2.817-1.849 6.036-2.064 10.75-.211 4.604-.26 6.074-.26 17.798s.049 13.193.26 17.797c.215 4.715.969 7.934 2.064 10.751 1.147 2.951 2.682 5.455 5.177 7.95 2.496 2.495 4.999 4.031 7.951 5.177 2.817 1.096 6.036 1.849 10.75 2.065 4.604.21 6.074.26 17.798.26 11.723 0 13.193-.05 17.797-.26 4.715-.216 7.933-.969 10.75-2.065 2.952-1.146 5.455-2.682 7.951-5.177 2.495-2.495 4.031-4.999 5.177-7.95 1.096-2.817 1.849-6.036 2.065-10.751.21-4.604.26-6.073.26-17.797s-.05-13.194-.26-17.798c-.216-4.714-.969-7.933-2.065-10.75-1.146-2.951-2.682-5.455-5.177-7.95-2.496-2.495-4.999-4.031-7.951-5.178-2.817-1.095-6.035-1.849-10.75-2.064-4.604-.21-6.074-.26-17.797-.26zm0 9.631c11.47 0 12.829.044 17.358.25 4.043.186 6.24.853 7.7 1.42 1.879.731 3.221 1.603 4.629 3.012 1.409 1.408 2.281 2.75 3.011 4.628.568 1.461 1.236 3.658 1.421 7.7.206 4.53.25 5.889.25 17.359s-.044 12.829-.25 17.358c-.185 4.043-.853 6.24-1.421 7.7-.73 1.879-1.602 3.221-3.01 4.629-1.409 1.409-2.751 2.281-4.63 3.012-1.46.567-3.657 1.235-7.7 1.42-4.529.206-5.887.25-17.358.25s-12.829-.044-17.359-.25c-4.042-.185-6.239-.853-7.7-1.42-1.879-.731-3.22-1.603-4.629-3.012-1.408-1.408-2.281-2.75-3.011-4.629-.567-1.46-1.236-3.657-1.42-7.7-.206-4.529-.25-5.888-.25-17.358s.044-12.829.25-17.359c.184-4.042.853-6.239 1.42-7.7.73-1.878 1.603-3.22 3.011-4.628 1.409-1.409 2.75-2.281 4.629-3.012 1.461-.567 3.658-1.234 7.7-1.42 4.53-.206 5.889-.25 17.359-.25z"/><path d="m50 26.95c-12.73 0-23.051 10.32-23.051 23.05s10.321 23.05 23.051 23.05 23.05-10.32 23.05-23.05-10.32-23.05-23.05-23.05zm0 36.468c-7.411 0-13.418-6.007-13.418-13.418s6.007-13.418 13.418-13.418 13.418 6.007 13.418 13.418-6.007 13.418-13.418 13.418z"/><path d="m77.987 27.012c0-2.761-2.238-5-5-5-2.761 0-5 2.239-5 5 0 2.762 2.239 5 5 5 2.762 0 5-2.238 5-5z"/></g></svg>