<svg clip-rule="evenodd" fill-rule="evenodd" height="48" stroke-linejoin="round" stroke-miterlimit="2" width="24" xmlns="http://www.w3.org/2000/svg"><path d="m0 0h24v48h-24z" fill="none"/><path d="m10.617 5h-1.617c-2.209 0-4 1.791-4 4v6c0 2.209 1.791 4 4 4h6c2.209 0 4-1.791 4-4v-1.617c0-.552-.448-1-1-1s-1 .448-1 1v1.617c0 1.105-.895 2-2 2h-6c-1.105 0-2-.895-2-2v-6c0-1.105.895-2 2-2h1.617c.552 0 1-.448 1-1s-.448-1-1-1zm6.969 0-7.137 7.136c-.39.391-.39 1.024 0 1.415.391.39 1.024.39 1.415 0l7.136-7.137v3.642c0 .552.448 1 1 1s1-.448 1-1v-6.056c0-.552-.448-1-1-1h-6.056c-.552 0-1 .448-1 1s.448 1 1 1z" fill="#7a7a8d"/><path d="m10.617 29h-1.617c-2.209 0-4 1.791-4 4v6c0 2.209 1.791 4 4 4h6c2.209 0 4-1.791 4-4v-1.617c0-.552-.448-1-1-1s-1 .448-1 1v1.617c0 1.105-.895 2-2 2h-6c-1.105 0-2-.895-2-2v-6c0-1.105.895-2 2-2h1.617c.552 0 1-.448 1-1s-.448-1-1-1zm6.969 0-7.137 7.136c-.39.391-.39 1.024 0 1.415.391.39 1.024.39 1.415 0l7.136-7.137v3.642c0 .552.448 1 1 1s1-.448 1-1v-6.056c0-.552-.448-1-1-1h-6.056c-.552 0-1 .448-1 1s.448 1 1 1z" fill="#01b7ff"/></svg>