<svg clip-rule="evenodd" fill-rule="evenodd" stroke-linejoin="round" stroke-miterlimit="2" viewBox="0 0 2100 2100" xmlns="http://www.w3.org/2000/svg" xmlns:xlink="http://www.w3.org/1999/xlink"><linearGradient id="a" gradientTransform="matrix(1634 -1634 1634 1634 245 1855)" gradientUnits="userSpaceOnUse" x1="0" x2="1" y1="0" y2="0"><stop offset="0" stop-color="#fecc19"/><stop offset=".5" stop-color="#ed1c24"/><stop offset=".75" stop-color="#c7296f"/><stop offset="1" stop-color="#b42d91"/></linearGradient><path d="m1049.67.662c-285.075 0-320.821 1.209-432.779 6.317-111.725 5.1-188.029 22.842-254.8 48.792-69.025 26.825-127.563 62.717-185.917 121.071s-94.246 116.891-121.071 185.916c-25.95 66.767-43.691 143.071-48.792 254.796-5.108 111.959-6.312 147.704-6.312 432.779 0 285.071 1.204 320.817 6.312 432.775 5.101 111.725 22.842 188.029 48.792 254.796 26.825 69.025 62.717 127.563 121.071 185.921 58.354 58.354 116.892 94.246 185.917 121.071 66.771 25.946 143.075 43.691 254.8 48.787 111.958 5.109 147.704 6.317 432.779 6.317 285.071 0 320.816-1.208 432.775-6.317 111.725-5.096 188.029-22.841 254.796-48.787 69.025-26.825 127.562-62.717 185.92-121.071 58.355-58.358 94.246-116.896 121.071-185.921 25.946-66.767 43.692-143.071 48.788-254.796 5.108-111.958 6.317-147.704 6.317-432.775 0-285.075-1.209-320.82-6.317-432.779-5.096-111.725-22.842-188.029-48.788-254.796-26.825-69.025-62.716-127.562-121.071-185.916-58.358-58.354-116.895-94.246-185.92-121.071-66.767-25.95-143.071-43.692-254.796-48.792-111.959-5.108-147.704-6.317-432.775-6.317zm0 189.134c280.271 0 313.471 1.067 424.154 6.117 102.342 4.67 157.921 21.77 194.908 36.141 48.996 19.042 83.963 41.792 120.692 78.521 36.733 36.729 59.479 71.7 78.521 120.692 14.375 36.987 31.475 92.566 36.141 194.908 5.05 110.683 6.121 143.883 6.121 424.158 0 280.271-1.071 313.471-6.121 424.154-4.666 102.342-21.766 157.921-36.141 194.909-19.042 48.996-41.788 83.962-78.521 120.692-36.729 36.733-71.696 59.479-120.692 78.52-36.987 14.375-92.566 31.475-194.908 36.142-110.667 5.05-143.862 6.121-424.154 6.121-280.296 0-313.488-1.071-424.158-6.121-102.342-4.667-157.921-21.767-194.909-36.142-48.996-19.041-83.962-41.787-120.696-78.52-36.729-36.73-59.479-71.696-78.516-120.692-14.375-36.988-31.475-92.567-36.146-194.909-5.05-110.683-6.117-143.883-6.117-424.154 0-280.275 1.067-313.475 6.117-424.158 4.671-102.342 21.771-157.921 36.146-194.908 19.037-48.992 41.787-83.963 78.516-120.692 36.734-36.729 71.7-59.479 120.696-78.521 36.988-14.371 92.567-31.471 194.909-36.141 110.683-5.05 143.883-6.117 424.158-6.117zm0 321.516c-297.696 0-539.021 241.325-539.021 539.021 0 297.692 241.325 539.017 539.021 539.017 297.692 0 539.017-241.325 539.017-539.017 0-297.696-241.325-539.021-539.017-539.021zm0 888.909c-193.242 0-349.892-156.65-349.892-349.888 0-193.241 156.65-349.891 349.892-349.891 193.237 0 349.887 156.65 349.887 349.891 0 193.238-156.65 349.888-349.887 349.888zm686.275-910.204c0 69.566-56.396 125.958-125.963 125.958-69.562 0-125.958-56.392-125.958-125.958 0-69.567 56.396-125.959 125.958-125.959 69.567 0 125.963 56.392 125.963 125.959z" fill="url(#a)" fill-rule="nonzero"/></svg>