<svg clip-rule="evenodd" fill-rule="evenodd" height="200" stroke-linejoin="round" stroke-miterlimit="2" width="100" xmlns="http://www.w3.org/2000/svg"><path d="m99.999 49.999c0-13.11-5.046-25.042-13.301-33.96-25.495-18.567-46.559 65.423-36.697 79.057 9.487 0 16.258-.565 25.914-2.328 14.438-8.769 24.084-24.641 24.084-42.769z" fill="#41c2ff"/><path d="m43.349 42.858s30.797-34.531 25.803-39.059c-5.899-2.448-12.369-3.8-19.153-3.8h-50l.002 42.859z" fill="#ffcc45"/><path d="m.002 42.858 69.142-39.062c6.56 2.722 12.416 6.798 17.216 11.884l.338.36-66.682 83.96h-20.014v-57.142z" fill="#fc593d"/><path d="m28.498 98.334 33.408-51.2 15.328-19.344c-18.008 22.446-17.734 63.02-1.316 64.978-7.558 4.59-16.428 7.232-25.916 7.232h-6.822z"/><path d="m61.713 47.131c-19.66 32.755-21.597 45.668-18.533 52.867h-23.881s19.967-24.887 42.414-52.867z" fill="#fff"/><circle cx="25.249" cy="59.167" r="9.166"/><g fill="#7a7a8d"><path d="m.003 142.858-.003-42.858h50c6.782 0 13.247 1.349 19.145 3.796.101.043.204.086.306.129 6.518 2.78 12.406 6.959 17.248 12.115 8.254 8.918 13.301 20.85 13.301 33.96 0 18.127-9.645 34-24.084 42.767h.002c-7.558 4.592-16.426 7.233-25.915 7.233h-6.822l-.011-.001h.011c-2.959-6.95-1.256-19.228 16.561-49.548l1.719-2.634-41.444 52.183h-20.014v-57.142zm74.489-26.572c-1.979-1.425-4.993-3.12-4.993-3.12-20.387 11.52-40.775 23.038-61.163 34.556v43.945h7.658l59.356-74.738c-.232-.178-.466-.354-.702-.527l-.075-.056zm6.951 6.372-6.278 7.903c-12.627 18.159-14.664 45.548-7.06 56.978 13.944-6.737 23.564-21.014 23.564-37.539 0-10.462-3.858-20.025-10.226-27.342zm-22.165-13.288c-2.984-.678-6.089-1.037-9.277-1.037h-41.667v29.817z"/><circle cx="24.221" cy="159.899" r="8.749"/></g></svg>