<?xml version="1.0" encoding="UTF-8" standalone="no"?>
<!DOCTYPE svg PUBLIC "-//W3C//DTD SVG 1.1//EN" "http://www.w3.org/Graphics/SVG/1.1/DTD/svg11.dtd">
<svg width="100%" height="100%" viewBox="0 0 100 200" version="1.1" xmlns="http://www.w3.org/2000/svg" xmlns:xlink="http://www.w3.org/1999/xlink" xml:space="preserve" xmlns:serif="http://www.serif.com/" style="fill-rule:evenodd;clip-rule:evenodd;stroke-linejoin:round;stroke-miterlimit:2;">
    <g>
        <path d="M49.957,7c-23.736,0 -42.957,19.264 -42.957,43c0,23.736 19.221,43 42.957,43c23.779,0 43.043,-19.264 43.043,-43c0,-23.736 -19.264,-43 -43.043,-43Zm29.799,25.8l-12.685,0c-1.376,-5.375 -3.354,-10.535 -5.934,-15.308c7.912,2.709 14.491,8.213 18.619,15.308Zm-29.756,-17.028c3.569,5.16 6.364,10.879 8.213,17.028l-16.426,0c1.849,-6.149 4.644,-11.868 8.213,-17.028Zm-33.282,42.828c-0.688,-2.752 -1.118,-5.633 -1.118,-8.6c0,-2.967 0.43,-5.848 1.118,-8.6l14.534,0c-0.344,2.838 -0.602,5.676 -0.602,8.6c0,2.924 0.258,5.762 0.602,8.6l-14.534,0Zm3.526,8.6l12.685,0c1.376,5.375 3.354,10.535 5.934,15.308c-7.912,-2.709 -14.491,-8.17 -18.619,-15.308Zm12.685,-34.4l-12.685,-0c4.128,-7.138 10.707,-12.599 18.619,-15.308c-2.58,4.773 -4.558,9.933 -5.934,15.308Zm17.071,51.428c-3.569,-5.16 -6.364,-10.879 -8.213,-17.028l16.426,-0c-1.849,6.149 -4.644,11.868 -8.213,17.028Zm10.062,-25.628l-20.124,-0c-0.387,-2.838 -0.688,-5.676 -0.688,-8.6c0,-2.924 0.301,-5.805 0.688,-8.6l20.124,0c0.387,2.795 0.688,5.676 0.688,8.6c0,2.924 -0.301,5.762 -0.688,8.6Zm1.075,23.908c2.58,-4.773 4.558,-9.933 5.934,-15.308l12.685,-0c-4.128,7.095 -10.707,12.599 -18.619,15.308Zm7.611,-23.908c0.344,-2.838 0.602,-5.676 0.602,-8.6c0,-2.924 -0.258,-5.762 -0.602,-8.6l14.534,0c0.688,2.752 1.118,5.633 1.118,8.6c0,2.967 -0.43,5.848 -1.118,8.6l-14.534,-0Z" style="fill-rule:nonzero;"/>
        <path d="M49.957,107c-23.736,0 -42.957,19.264 -42.957,43c0,23.736 19.221,43 42.957,43c23.779,0 43.043,-19.264 43.043,-43c0,-23.736 -19.264,-43 -43.043,-43Zm29.799,25.8l-12.685,0c-1.376,-5.375 -3.354,-10.535 -5.934,-15.308c7.912,2.709 14.491,8.213 18.619,15.308Zm-29.756,-17.028c3.569,5.16 6.364,10.879 8.213,17.028l-16.426,0c1.849,-6.149 4.644,-11.868 8.213,-17.028Zm-33.282,42.828c-0.688,-2.752 -1.118,-5.633 -1.118,-8.6c0,-2.967 0.43,-5.848 1.118,-8.6l14.534,0c-0.344,2.838 -0.602,5.676 -0.602,8.6c0,2.924 0.258,5.762 0.602,8.6l-14.534,0Zm3.526,8.6l12.685,0c1.376,5.375 3.354,10.535 5.934,15.308c-7.912,-2.709 -14.491,-8.17 -18.619,-15.308Zm12.685,-34.4l-12.685,0c4.128,-7.138 10.707,-12.599 18.619,-15.308c-2.58,4.773 -4.558,9.933 -5.934,15.308Zm17.071,51.428c-3.569,-5.16 -6.364,-10.879 -8.213,-17.028l16.426,0c-1.849,6.149 -4.644,11.868 -8.213,17.028Zm10.062,-25.628l-20.124,0c-0.387,-2.838 -0.688,-5.676 -0.688,-8.6c0,-2.924 0.301,-5.805 0.688,-8.6l20.124,0c0.387,2.795 0.688,5.676 0.688,8.6c0,2.924 -0.301,5.762 -0.688,8.6Zm1.075,23.908c2.58,-4.773 4.558,-9.933 5.934,-15.308l12.685,0c-4.128,7.095 -10.707,12.599 -18.619,15.308Zm7.611,-23.908c0.344,-2.838 0.602,-5.676 0.602,-8.6c0,-2.924 -0.258,-5.762 -0.602,-8.6l14.534,0c0.688,2.752 1.118,5.633 1.118,8.6c0,2.967 -0.43,5.848 -1.118,8.6l-14.534,0Z" style="fill:#7a7a8d;fill-rule:nonzero;"/>
    </g>
</svg>
