<svg clip-rule="evenodd" fill-rule="evenodd" stroke-linejoin="round" stroke-miterlimit="2" viewBox="0 0 100 200" xmlns="http://www.w3.org/2000/svg"><path d="m150.9 150.6c22.1-.7 30.6-15.2 30.6-15.2 0-32.2-14.4-58.3-14.4-58.3-14.4-10.8-28.1-10.5-28.1-10.5l-1.4 1.6c17 5.2 24.9 12.7 24.9 12.7-10.4-5.7-20.6-8.5-30.1-9.6-7.2-.8-14.1-.6-20.2.2-.6 0-1.1.1-1.7.2-3.5.3-12 1.6-22.7 6.3-3.7 1.7-5.9 2.9-5.9 2.9s8.3-7.9 26.3-13.1l-1-1.2s-13.7-.3-28.1 10.5c0 0-14.4 26.1-14.4 58.3 0 0 8.4 14.5 30.5 15.2 0 0 3.7-4.5 6.7-8.3-12.7-3.8-17.5-11.8-17.5-11.8s1 .7 2.8 1.7c.1.1.2.2.4.3.3.2.6.3.9.5 2.5 1.4 5 2.5 7.3 3.4 4.1 1.6 9 3.2 14.7 4.3 7.5 1.4 16.3 1.9 25.9.1 4.7-.8 9.5-2.2 14.5-4.3 3.5-1.3 7.4-3.2 11.5-5.9 0 0-5 8.2-18.1 11.9 3 3.8 6.6 8.1 6.6 8.1zm-46.5-46.7c-5.7 0-10.2 5-10.2 11.1s4.6 11.1 10.2 11.1c5.7 0 10.2-5 10.2-11.1.1-6.1-4.5-11.1-10.2-11.1zm36.5 0c-5.7 0-10.2 5-10.2 11.1s4.6 11.1 10.2 11.1c5.7 0 10.2-5 10.2-11.1s-4.5-11.1-10.2-11.1z" transform="matrix(.85616451 0 0 .85616451 -55.39373 -42.979088)"/><path d="m150.9 150.6c22.1-.7 30.6-15.2 30.6-15.2 0-32.2-14.4-58.3-14.4-58.3-14.4-10.8-28.1-10.5-28.1-10.5l-1.4 1.6c17 5.2 24.9 12.7 24.9 12.7-10.4-5.7-20.6-8.5-30.1-9.6-7.2-.8-14.1-.6-20.2.2-.6 0-1.1.1-1.7.2-3.5.3-12 1.6-22.7 6.3-3.7 1.7-5.9 2.9-5.9 2.9s8.3-7.9 26.3-13.1l-1-1.2s-13.7-.3-28.1 10.5c0 0-14.4 26.1-14.4 58.3 0 0 8.4 14.5 30.5 15.2 0 0 3.7-4.5 6.7-8.3-12.7-3.8-17.5-11.8-17.5-11.8s1 .7 2.8 1.7c.1.1.2.2.4.3.3.2.6.3.9.5 2.5 1.4 5 2.5 7.3 3.4 4.1 1.6 9 3.2 14.7 4.3 7.5 1.4 16.3 1.9 25.9.1 4.7-.8 9.5-2.2 14.5-4.3 3.5-1.3 7.4-3.2 11.5-5.9 0 0-5 8.2-18.1 11.9 3 3.8 6.6 8.1 6.6 8.1zm-46.5-46.7c-5.7 0-10.2 5-10.2 11.1s4.6 11.1 10.2 11.1c5.7 0 10.2-5 10.2-11.1.1-6.1-4.5-11.1-10.2-11.1zm36.5 0c-5.7 0-10.2 5-10.2 11.1s4.6 11.1 10.2 11.1c5.7 0 10.2-5 10.2-11.1s-4.5-11.1-10.2-11.1z" fill="#7a7a8d" transform="matrix(.85616451 0 0 .85616451 -55.39373 57.020905)"/></svg>