<svg clip-rule="evenodd" fill-rule="evenodd" stroke-linejoin="round" stroke-miterlimit="2" viewBox="0 0 200 100" xmlns="http://www.w3.org/2000/svg" xmlns:xlink="http://www.w3.org/1999/xlink"><linearGradient id="a"><stop offset="0" stop-color="#fc123d"/><stop offset="1" stop-color="#ff9ff4"/></linearGradient><linearGradient id="b" gradientTransform="matrix(-13.2926 0 0 -13.2926 78.5 30.5069)" gradientUnits="userSpaceOnUse" x1="0" x2="1" xlink:href="#a" y1="0" y2="0"/><linearGradient id="c" gradientTransform="matrix(-10.8295 0 0 -10.8295 54.9977 59.2698)" gradientUnits="userSpaceOnUse" x1="0" x2="1" xlink:href="#a" y1="0" y2="0"/><linearGradient id="d" gradientTransform="matrix(19.4931 19.4931 -19.4931 19.4931 25.2727 44.5853)" gradientUnits="userSpaceOnUse" x1="0" x2="1" xlink:href="#a" y1="0" y2="0"/><path d="m0 0h200v100h-200z" fill="none"/><path d="m45 17.38c2.166-1.251 4.834-1.251 7 0 5.773 3.333 17.227 9.946 23 13.279 2.166 1.25 3.5 3.561 3.5 6.062v26.558c0 2.501-1.334 4.812-3.5 6.062-5.773 3.333-17.227 9.946-23 13.279-2.166 1.251-4.834 1.251-7 0-5.773-3.333-17.227-9.946-23-13.279-2.166-1.25-3.5-3.561-3.5-6.062v-26.558c0-2.501 1.334-4.812 3.5-6.062 5.773-3.333 17.227-9.946 23-13.279z" fill="url(#b)"/><path d="m47.633 54.24c-.074-2.606 1.306-5.038 3.582-6.31 5.717-3.195 16.675-9.32 22.821-12.756.929-.519 2.064-.507 2.982.032.918.538 1.482 1.523 1.482 2.587v25.486c0 2.501-1.334 4.812-3.5 6.062-5.5 3.176-16.157 9.328-22.145 12.785-.915.529-2.04.537-2.962.022-.923-.516-1.506-1.478-1.536-2.534-.195-6.842-.541-18.967-.724-25.374z" fill="url(#c)"/><path d="m47.622 53.841c-.068-2.392-1.354-4.584-3.409-5.811-5.197-3.102-15.299-9.133-21.175-12.641-.927-.554-2.08-.566-3.019-.034-.939.533-1.519 1.53-1.519 2.609v25.315c0 2.501 1.334 4.812 3.5 6.062 5.411 3.124 15.811 9.129 21.848 12.614.942.544 2.103.536 3.037-.021s1.493-1.576 1.462-2.662c-.201-7.047-.549-19.242-.725-25.431z" fill="url(#d)"/><g fill="#fff"><path d="m44.562 72.71-8.765-22.148c-.319-.807-1.234-1.203-2.041-.883-.807.319-1.203 1.234-.883 2.041l8.764 22.147c.319.808 1.234 1.204 2.041.884.807-.319 1.203-1.234.884-2.041z"/><path d="m33.62 49.31-9.062 3.539c-1.011.395-1.511 1.536-1.117 2.546.395 1.011 1.536 1.511 2.547 1.117l9.062-3.54c1.011-.394 1.511-1.535 1.116-2.546-.394-1.011-1.535-1.511-2.546-1.116z"/><path d="m25.273 50.458c1.975.993 3.578 3.69 3.578 6.02s-1.603 3.417-3.578 2.424c-1.975-.992-3.578-3.69-3.578-6.02s1.603-3.416 3.578-2.424z"/><path d="m34.335 46.919c1.975.993 3.578 3.69 3.578 6.02s-1.603 3.417-3.578 2.424c-1.975-.992-3.578-3.69-3.578-6.02s1.603-3.416 3.578-2.424z"/><path d="m41.855 67.179c1.975.993 3.579 3.69 3.579 6.02 0 2.331-1.604 3.417-3.579 2.424-1.974-.992-3.578-3.69-3.578-6.02s1.604-3.416 3.578-2.424z"/><path d="m67.92 33.63c.278-.161.449-.458.449-.779s-.171-.618-.449-.778c-1.168-.674-2.836-1.637-3.932-2.27-.696-.402-1.552-.402-2.247 0-2.348 1.355-7.767 4.484-10.298 5.945-.278.16-.449.457-.449.778s.171.618.449.779c1.168.673 2.836 1.637 3.932 2.27.696.401 1.552.401 2.247 0 2.348-1.356 7.767-4.484 10.298-5.945z"/><path d="m59.232 29.003c.348-.201.562-.571.562-.973 0-.401-.214-.772-.562-.973-2.57-1.484-7.402-4.274-9.587-5.535-.696-.402-1.552-.402-2.247 0-2.249 1.298-7.313 4.222-9.961 5.75-.347.201-.561.572-.561.973 0 .402.214.773.561.973 2.571 1.484 7.403 4.274 9.588 5.536.695.401 1.552.401 2.247 0 2.248-1.298 7.313-4.222 9.96-5.751z"/><path d="m52.452 41.944c.278-.16.449-.457.449-.778s-.171-.618-.449-.778c-3.754-2.167-14.276-8.242-17.742-10.244-.695-.401-1.552-.401-2.247 0-.663.383-1.507.871-2.206 1.274-.278.161-.45.457-.45.779 0 .321.172.617.45.778 3.753 2.167 14.275 8.242 17.742 10.243.695.401 1.551.401 2.246 0 .664-.383 1.508-.87 2.207-1.274z"/><path d="m64.708 64.024v-9.744c0-1.085.881-1.966 1.966-1.966s1.966.881 1.966 1.966v9.906c0 1.304-.696 2.51-1.825 3.162-2.311 1.334-8.579 4.953-8.579 4.953-.94.542-2.143.22-2.685-.72-.543-.94-.22-2.143.719-2.686z"/><path d="m66.886 52.565-4.098 5.979c-.614.895-1.839 1.123-2.734.51-.895-.614-1.123-1.838-.51-2.733l6.1-8.899 6.655 3.601c.955.517 1.31 1.711.794 2.665s-1.71 1.31-2.665.793z"/></g></svg>