<svg clip-rule="evenodd" fill-rule="evenodd" stroke-linecap="round" stroke-linejoin="round" stroke-miterlimit="1.5" viewBox="0 0 200 100" xmlns="http://www.w3.org/2000/svg" xmlns:xlink="http://www.w3.org/1999/xlink"><linearGradient id="a"><stop offset="0" stop-color="#fc593d"/><stop offset="1" stop-color="#ff1f22"/></linearGradient><linearGradient id="b" gradientTransform="matrix(0 -6.39178 6.39178 0 48 78)" gradientUnits="userSpaceOnUse" x1="0" x2="1" xlink:href="#a" y1="0" y2="0"/><linearGradient id="c" gradientTransform="matrix(0 -14.1446 14.1446 0 64.7236 50)" gradientUnits="userSpaceOnUse" x1="0" x2="1" xlink:href="#a" y1="0" y2="0"/><g fill="none"><path d="m0 0h200v100h-200z"/><path d="m48 48.394v32.753" stroke="url(#b)" stroke-width="6"/><path d="m48 18.853v10.563" stroke="#fc593d" stroke-width="5"/><path d="m31.276 81.147 16.724-11.8 16.724 11.8" stroke="url(#b)" stroke-width="6"/><path d="m19.939 29.416h56.122" stroke="#fc593d" stroke-width="5"/></g><path d="m76.061 35.855h-56.122v33.436c0 .614.267 1.204.743 1.638.475.435 1.12.679 1.792.679h51.052c.672 0 1.317-.244 1.792-.679.476-.434.743-1.024.743-1.638 0-8.031 0-33.436 0-33.436z" fill="url(#c)"/><path d="m37.856 57.579.065.125.003.005c.157.26.425.237.425.237.133 0 .26-.052.353-.146l4.726-4.714c.144-.143.187-.358.109-.545-.077-.187-.259-.309-.462-.309h-2.993c.257-4.017 3.59-7.189 7.673-7.189 4.251 0 7.689 3.438 7.689 7.689s-3.438 7.689-7.689 7.689c-2.119 0-4.041-.868-5.424-2.262-.094-.095-.221-.148-.354-.148s-.261.052-.355.146l-1.661 1.662c-.195.195-.195.511 0 .707 1.997 1.997 4.742 3.234 7.794 3.234 6.09 0 11.028-4.938 11.028-11.028s-4.938-11.029-11.028-11.029c-5.923 0-10.756 4.671-11.018 10.529h-3.02c-.203 0-.385.122-.462.308-.078.187-.035.402.108.545zm8.729-10.027c-.276 0-.5.224-.5.5v5.85c0 .176.093.34.245.43l4.972 2.948c.236.14.542.063.683-.173l.901-1.497c.069-.114.089-.251.056-.38-.032-.129-.115-.24-.229-.308l-3.873-2.299v-4.571c0-.276-.224-.5-.5-.5z" fill="#fff" fill-rule="nonzero"/></svg>