<svg clip-rule="evenodd" fill-rule="evenodd" stroke-linejoin="round" stroke-miterlimit="2" viewBox="0 0 200 100" xmlns="http://www.w3.org/2000/svg"><path d="m0 0h200v100h-200z" fill="none"/><path d="m63.032 30.632h-28.8c-1.8 0-3.6 1.62-3.6 3.6v5.418c0 1.296.774 2.412 1.8 3.042v20.34c0 1.98 1.98 3.6 3.6 3.6h25.2c1.62 0 3.6-1.62 3.6-3.6v-20.34c1.026-.63 1.8-1.746 1.8-3.042v-5.418c0-1.98-1.8-3.6-3.6-3.6zm-10.8 21.6h-7.2c-.99 0-1.8-.81-1.8-1.8s.81-1.8 1.8-1.8h7.2c.99 0 1.8.81 1.8 1.8s-.81 1.8-1.8 1.8zm10.8-12.6h-28.8v-5.4h28.8z" fill="#202024" fill-rule="nonzero"/></svg>