<svg clip-rule="evenodd" fill-rule="evenodd" stroke-linejoin="round" stroke-miterlimit="2" viewBox="0 0 200 100" xmlns="http://www.w3.org/2000/svg"><path d="m0 0h200v100h-200z" fill="none"/><path d="m50.062 67.494c-6.309.024-12.197-3.375-15.332-8.852-.567-.992-1.833-1.336-2.825-.769-.991.568-1.336 1.834-.768 2.825 3.872 6.767 11.147 10.966 18.941 10.936 1.143-.005 2.067-.936 2.062-2.078-.004-1.143-.935-2.067-2.078-2.062zm13.074-29.305-3.225 18.783c-.129.753-.787 1.3-1.551 1.289-3.629-.052-7.001 1.864-8.816 5.006-3.118.981-9.826-2.892-10.895-6.29 1.815-3.142 1.787-7.021-.072-10.137v-.001c-.391-.656-.247-1.499.34-1.987 3.48-2.894 14.834-12.334 17.85-14.842.446-.37 1.075-.424 1.577-.134h.001c.337.195.583.515.683.891.101.375.048.775-.146 1.112-2.149 3.722-8.285 14.349-8.285 14.349-1.375-.192-2.793.447-3.53 1.723-.969 1.679-.393 3.83 1.286 4.799 1.679.97 3.83.394 4.799-1.286.737-1.275.581-2.823-.273-3.919 0 0 6.136-10.626 8.285-14.348.194-.337.514-.583.89-.684.376-.1.776-.048 1.112.147.001 0 .001 0 .002.001.017.009.033.019.05.03l.018-.032c3.668 2.811 6.472 6.808 7.759 11.613 2.902 10.827-2.921 21.951-13.15 25.899-1.066.411-2.265-.121-2.676-1.186-.412-1.066.12-2.266 1.186-2.677 8.279-3.195 12.99-12.2 10.641-20.964-.736-2.747-2.084-5.168-3.86-7.155zm-30.525 14.411c-.676-4.32.303-8.594 2.518-12.101.61-.966.321-2.245-.645-2.855s-2.246-.321-2.856.645c-2.736 4.332-3.943 9.614-3.107 14.951.176 1.129 1.236 1.902 2.365 1.725s1.902-1.237 1.725-2.365zm6.823-16.777c1.748-1.314 3.771-2.321 6.012-2.921 1.103-.296 1.759-1.432 1.464-2.536-.296-1.103-1.432-1.759-2.536-1.464-2.768.742-5.269 1.988-7.428 3.612-.914.687-1.097 1.986-.411 2.899.687.913 1.986 1.097 2.899.41z" fill="#202024"/></svg>