<svg height="512" viewBox="0 0 1454 512" width="1454" xmlns="http://www.w3.org/2000/svg"><path d="m257.097142 105.772367 92.367896 10.418039c1.949508.219883 3.720225 1.238834 4.889425 2.813599l68.752282 92.600649c1.964623 2.646098 1.841274 6.297666-.297438 8.80527l-163.812921 192.067929c-1.26786 1.486544-3.501245 1.664249-4.988405.396915-.142671-.121581-.275448-.254304-.39708-.396915l-163.8129209-192.067929c-2.1387122-2.507604-2.2620605-6.159172-.2974381-8.80527l68.752282-92.600649c1.1692-1.574765 2.939917-2.593716 4.889425-2.813599l92.367896-10.418039c.527326-.059476 1.059671-.059476 1.586997 0zm19.174581 19.978138c-.541286-.543985-1.405932-.592137-2.004319-.11162-.587527.471795-.726084 1.295187-.356345 1.926353l.126229.183039 52.088259 64.811758c.504767.628066.779911 1.409561.779911 2.215195 0 1.855773-1.429774 3.377744-3.248282 3.525301l-.290211.011725h-134.126643c-.805968 0-1.587787-.275029-2.216113-.779587-1.438882-1.155451-1.735456-3.205469-.732907-4.712598l.190438-.260036 52.088259-64.811758c.480716-.598139.432544-1.462427-.111666-2.003488-.534332-.531241-1.368359-.577421-1.954809-.140013l-.16796.145729-70.56441 70.916227c-.564135.566948-1.341913.868837-2.140984.831006-1.469792-.069585-2.62455-1.247719-2.693653-2.687504l-.000046-.272819 2.433933-51.367436c.032485-.685587-.431991-1.295593-1.101733-1.446926-.698926-.157928-1.39395.230714-1.637692.883633l-.05495.184409-13.370347 59.122837c-.457369 2.022456-1.980723 3.622199-3.954626 4.19024l-.375236.094268-33.104887 7.129273c-.651869.140383-1.117299.716527-1.117299 1.383076 0 .716264.53248 1.308211 1.223336 1.401895l.192061.012916h33.023158c1.920277 0 3.700165.971971 4.740468 2.565042l.198022.326792 79.2188 141.25023c.544633.971102 1.747411 1.356445 2.755311.882739.990371-.465466 1.453401-1.597698 1.105095-2.608959l-.087159-.21456-64.042916-136.150847c-.265768-.565006-.403564-1.181662-.403564-1.806005 0-2.242216 1.739366-4.07835 3.942946-4.233775l.303245-.010657h170.962413c.624603 0 1.241514.137739 1.806754.403397 2.029953.954063 2.952166 3.308739 2.155256 5.368194l-.119383.278846-64.042916 136.150847c-.473902 1.007482-.088399 2.209762.883105 2.754168.954608.53494 2.145432.253373 2.766151-.617772l.123991-.195616 79.2188-141.25023c.939029-1.674325 2.657589-2.750942 4.556484-2.878978l.382006-.012856h33.023158c.666826 0 1.243209-.465237 1.38365-1.116836.150915-.700198-.244899-1.390968-.90052-1.627992l-.185032-.053059-33.104887-7.129273c-2.027817-.436698-3.64355-1.943162-4.231763-3.9104l-.098098-.374108-13.370347-59.122837c-.151397-.669464-.761655-1.133749-1.447527-1.101277-.715758.033886-1.282096.593555-1.343029 1.287784l-.00382.192377 2.433933 51.367436c.037847.79874-.264167 1.576195-.83135 2.140097-1.039189 1.033177-2.679449 1.093508-3.788863.184043l-.21447-.194823zm326.354677 28.975986c28.382413 0 51.327291 7.709068 71.470935 17.860561l2.268587 1.159376c.37615.194874.751339.390547 1.125584.586983l2.234281 1.187495c.370539.199348.740169.399389 1.108908.600087l2.201887 1.211792c.365246.203186.729637.406958 1.09319.611281l2.171404 1.23227c.360272.206386.719742.413252 1.078427.620564l2.142835 1.248925-12.894251 27.159313c-22.985403-13.43966-47.092046-23.239412-75.403336-23.239412-28.591599 0-41.48585 10.079745-41.48585 24.91937 0 10.419989 7.761181 16.963775 22.178313 21.471327l1.463859.444036 1.507986.43087 1.551867.418113 1.595505.405764c.26954.066621.540888.132745.814038.19838l1.660498.388008c.280342.063713.562476.126954.846398.189732l1.724939.371173 1.767592.36046c.29814.059207.598047.117985.899715.176341l1.831113.345158 37.561513 6.71983c1.524885.279993 3.023309.57253 4.494949.878237l2.187332.468518c33.952212 7.497325 53.023706 22.441443 53.023706 52.971871 0 40.038987-33.356866 62.43842-83.25201 62.43842-32.115094 0-57.938634-9.803728-76.796166-21.326879l-1.670095-1.036305c-.550479-.346824-1.094733-.694965-1.632744-1.044208l-1.595286-1.05082c-1.051014-.702464-2.076983-1.408477-3.077765-2.116317l-1.482265-1.062915c-.48778-.354619-.969244-.70948-1.444376-1.064368l-1.406379-1.064528-1.368275-1.0634-1.330064-1.060981-1.291744-1.057271-1.253316-1.052271c-.205678-.174891-.40975-.349519-.612215-.523858l-1.195474-1.042353-1.156778-1.034128c-.189566-.171598-.377514-.342799-.563844-.513577l-1.098532-1.019371-.534661-.505472 18.500447-25.479356.822004.727828 1.663256 1.445383c.279351.2397.559773.478782.841268.717219l1.701853 1.422651c.285792.235743.572658.470784.860601.705095l1.740588 1.396888 1.766488 1.378028c19.27746 14.82162 43.125146 26.086051 71.893784 26.086051.790473 0 1.576406-.007812 2.357359-.023534l1.555135-.042019c.258039-.008771.515492-.018428.772344-.028975l1.533752-.073987 1.518521-.095518c.503548-.035447 1.004428-.074512 1.50251-.117223l1.485718-.139103 1.468146-.161157c1.4591-.172243 2.890671-.377829 4.291202-.617546l1.390054-.251122c.459816-.087519.916053-.17886 1.36858-.27405l1.346326-.297154c.444979-.10292.88612-.209721 1.323291-.32043l1.299476-.343883c.429103-.118556.854106-.241049 1.27488-.36751l1.249505-.391311c13.189935-4.301551 21.915867-12.695067 21.915867-26.134727 0-10.750151-6.359991-17.202818-20.30244-21.647537l-1.46942-.45273c-.748285-.222877-1.516968-.440594-2.306219-.653467l-1.605976-.41938-1.661125-.407026-1.716574-.395236c-.290733-.064921-.583789-.129375-.879175-.193372l-.893149-.190636-39.243372-7.279816c-1.244576-.243593-2.472501-.493487-3.683654-.749915l-2.39991-.521637c-.396246-.088415-.790619-.177573-1.183116-.267483l-2.332419-.548556-2.287158-.567021c-33.96682-8.645902-52.584997-23.664722-52.584997-51.38402 0-35.279108 29.152219-58.238527 77.645814-58.238527zm312.159904 56.602514c39.405952 0 64.251127 27.442106 64.744089 68.470798l.007475 1.5858-.017355 1.769517-.04797 1.626719-.097964 2.019973-.073309 1.174176-.043712.631062h-100.631218c1.681859 27.159312 15.977658 43.118909 37.841823 43.118909 15.711364 0 26.272892-7.580653 30.351951-19.547255l.201817-.612235h31.394697c-5.325886 26.319334-27.19005 46.478824-62.509085 46.478824-41.76616 0-69.23652-29.119263-69.23652-73.078151s27.47036-73.638137 68.115281-73.638137zm242.573186-.043945c35.79837 0 59.78327 22.228106 63.25122 53.100475l.0988.938158h-32.23563c-1.96217-15.39961-12.61394-27.439306-31.3947-27.439306-21.02323 0-34.4781 17.079568-34.4781 46.758817 0 30.239235 14.01549 46.758817 35.03872 46.758817 18.81027 0 28.06617-12.815638 30.731-28.759842l.10308-.639414h31.95532c-3.64403 32.759171-27.75067 55.998583-63.63033 55.998583-40.0843 0-66.71373-29.679249-66.71373-73.078151s26.62943-73.638137 67.27435-73.638137zm-409.252304-52.638668v118.157011l58.304438-62.438421h38.122133l-52.698242 54.038633 56.342269 86.237818h-37.561513l-40.92523-66.358321-21.583855 22.11944v44.238881h-31.955317v-195.995041zm291.802504 4.199894v51.518696h31.675v25.199363h-31.675v73.078151c0 .826208.02448 1.618556.077 2.377043l.0767.89393c.80041 7.752817 4.91023 11.70101 16.55811 11.844581l.66739.004063h23.54603v26.87932h-32.51594c-26.34614 0-40.07091-11.510827-40.35995-33.990177l-.00466-.728944v-80.357967h-20.462616v-25.199363h20.462616v-33.039164zm233.77827-4.199894v82.877903c10.37147-16.239589 27.47036-30.239235 47.93298-30.239235 29.1382 0 45.36402 20.032737 45.68562 54.121321l.00488 1.037284v88.197768h-31.95532v-78.118023c0-2.604878-.08026-5.058006-.24252-7.363438l-.12034-1.515119c-.02209-.248887-.04519-.495963-.06932-.741231l-.157-1.449976c-2.11589-17.854802-9.9933-25.609308-24.6387-25.609308-18.03794 0-36.07587 16.739684-36.43483 45.057193l-.00545.861645v68.878257h-31.95531v-195.995041zm-358.901656 77.881975c-16.861413 0-30.179319 11.163044-33.502717 27.045422l-.134459.673877h64.751564c-1.681859-17.359561-14.01549-27.719299-31.114388-27.719299z"/></svg>