<svg clip-rule="evenodd" fill-rule="evenodd" stroke-linejoin="round" stroke-miterlimit="2" viewBox="0 0 100 100" xmlns="http://www.w3.org/2000/svg"><path d="m77.09 36.098c6.457 4.613 14.367 7.327 22.91 7.327v-16.431c-1.617.001-3.229-.168-4.811-.503v12.934c-8.542 0-16.452-2.715-22.91-7.328v33.531c0 16.774-13.605 30.371-30.386 30.371-6.262 0-12.082-1.892-16.917-5.136 5.518 5.638 13.213 9.137 21.727 9.137 16.783 0 30.388-13.597 30.388-30.372v-33.53zm5.935-16.577c-3.299-3.603-5.466-8.26-5.935-13.408v-2.113h-4.559c1.147 6.543 5.062 12.133 10.494 15.521zm-47.434 58.47c-1.843-2.415-2.84-5.372-2.836-8.41 0-7.672 6.223-13.893 13.9-13.893 1.431 0 2.853.219 4.217.651v-16.798c-1.593-.218-3.202-.311-4.809-.277v13.075c-1.365-.432-2.788-.652-4.219-.651-7.677 0-13.899 6.221-13.899 13.893 0 5.425 3.11 10.122 7.646 12.41z" fill="#ee1d52"/><path d="m72.279 32.097c6.458 4.613 14.368 7.328 22.91 7.328v-12.934c-4.768-1.015-8.99-3.506-12.164-6.97-5.432-3.388-9.347-8.978-10.494-15.521h-11.976v65.628c-.027 7.65-6.239 13.845-13.9 13.845-4.515 0-8.525-2.15-11.065-5.482-4.536-2.288-7.646-6.985-7.646-12.41 0-7.672 6.222-13.893 13.9-13.893 1.47 0 2.888.229 4.218.651v-13.075c-16.487.341-29.746 13.805-29.746 30.364 0 8.266 3.302 15.76 8.66 21.235 4.835 3.245 10.655 5.137 16.917 5.137 16.781 0 30.386-13.598 30.386-30.371v-33.532z" fill="#fff"/><path d="m95.189 26.491v-3.497c-4.3.006-8.516-1.198-12.164-3.474 3.229 3.534 7.483 5.971 12.164 6.971zm-22.658-22.491c-.11-.625-.194-1.255-.252-1.887v-2.113h-16.536v65.628c-.026 7.65-6.238 13.845-13.899 13.845-2.25 0-4.373-.533-6.254-1.482 2.54 3.332 6.55 5.482 11.065 5.482 7.66 0 13.873-6.195 13.9-13.845v-65.628zm-26.468 35.264v-3.723c-1.382-.189-2.775-.283-4.17-.283-16.783 0-30.388 13.598-30.388 30.37 0 10.516 5.347 19.783 13.472 25.235-5.359-5.475-8.661-12.969-8.661-21.235 0-16.559 13.259-30.023 29.747-30.364z" fill="#69c9d0"/></svg>