<svg clip-rule="evenodd" fill-rule="evenodd" stroke-linejoin="round" stroke-miterlimit="2" viewBox="0 0 100 100" xmlns="http://www.w3.org/2000/svg"><path d="m87.41 38.334h.966v-15.299l-.927-.067c-9.826-.719-17.803-8.446-18.834-18.245l-.094-.895h-13.406l-.122 57.09c0 6.339-5.622 11.305-11.96 11.305-6.286 0-11.458-5.172-11.458-11.458s5.172-11.459 11.458-11.459c.475 0 .928.09 1.39.145l1.119.134v-14.095l-.937-.059c-.522-.033-1.041-.079-1.572-.079-13.939 0-25.41 11.47-25.41 25.41s11.471 25.41 25.41 25.41c13.94 0 25.41-11.47 25.41-25.41v-30.051c4.231 4.866 10.405 7.724 16.947 7.723h.002c.675-.003 1.348-.036 2.018-.1z" fill="#fff"/></svg>