<svg clip-rule="evenodd" fill-rule="evenodd" stroke-linejoin="round" stroke-miterlimit="2" viewBox="0 0 24 24" xmlns="http://www.w3.org/2000/svg"><circle cx="17.5" cy="17.5" fill="#cef2ff" r="2.5"/><g fill-rule="nonzero"><path d="m5 15.5h4v4h-4zm7-9.66-1.93 3.16h3.86z" fill="#cef2ff"/><path d="m12 2-5.5 9h11zm0 3.84 1.93 3.16h-3.87zm5.5 7.16c-2.49 0-4.5 2.01-4.5 4.5s2.01 4.5 4.5 4.5 4.5-2.01 4.5-4.5-2.01-4.5-4.5-4.5zm0 7c-1.38 0-2.5-1.12-2.5-2.5s1.12-2.5 2.5-2.5 2.5 1.12 2.5 2.5-1.12 2.5-2.5 2.5zm-6.5-6.5h-8v8h8zm-2 6h-4v-4h4z" fill="#089aff"/></g></svg>