<svg width="1271" height="1092" viewBox="0 0 1271 1092" fill="none" xmlns="http://www.w3.org/2000/svg">
<path d="M860.873 525.428C783.668 394.341 826.636 182.706 1419.38 263.729L1872.53 720.274L858.678 1675.36C819.805 1675.17 574.875 1804.23 409.01 1546.09C272.207 1333.18 223.925 1223.91 368.173 1117.61C682.895 885.699 1295.68 1263.69 860.873 525.428Z" fill="url(#paint0_linear_190_2130)"/>
<mask id="mask0_190_2130" style="mask-type:luminance" maskUnits="userSpaceOnUse" x="309" y="284" width="1367" height="1215">
<path d="M1675.1 682.362L1367.05 284.396L309.072 1100.27L617.119 1498.23L1675.1 682.362Z" fill="white"/>
</mask>
<g mask="url(#mask0_190_2130)">
<path d="M971.402 594.171C971.416 593.612 965.484 596.322 975.443 589.772C983.239 584.949 990.94 580.537 998.558 576.504C1005.91 572.746 1013.05 569.422 1020.01 566.498C1026.76 563.647 1033.27 561.201 1039.54 559.143C1045.51 557.287 1051.26 555.757 1056.77 554.54C1067.64 552.144 1077.49 550.941 1086.26 550.932C1095.34 550.828 1103.53 551.611 1110.83 553.281C1110.44 552.693 1109.86 552.254 1109.03 552.021C1118.98 553.752 1127.21 557.016 1133.72 561.795C1139.65 566.403 1145.73 570.353 1151.63 573.725C1153.04 575.68 1158.25 580.63 1154.56 580.829C1151.78 579.277 1149.17 580.916 1147.91 582.214C1151.78 586.32 1153.51 586.658 1155.25 586.417C1156.99 586.182 1158.48 585.542 1161.07 588.266C1166.44 586.996 1159.71 583.276 1162.83 580.736L1169.03 589.727C1174.36 593.333 1176.91 599.114 1181.87 602.009C1179.94 600.498 1184.22 599.194 1180.1 597.379C1180.37 597.944 1179.84 597.838 1180.1 598.396C1173.87 592.431 1177.76 593.335 1174.3 588.073C1176.17 590.749 1178.34 593.689 1180.63 596.462C1183.27 599.618 1185.47 602.984 1187.86 605.147C1184.5 605.983 1190.09 609.924 1189.38 612.694L1189.84 612.842C1188.76 613.67 1190.12 617.553 1190.45 618.816L1194.43 617.798C1195.5 620.468 1192.43 618.315 1193.51 620.954C1193.83 621.943 1194.6 623.386 1195.43 625.116C1196.28 626.837 1197.18 628.845 1198.23 630.638C1200.32 634.232 1202.85 637.052 1204.64 636.356C1206.17 641.16 1204.85 643.806 1207.1 648.268C1207.8 647.302 1207.68 645.912 1208.04 645.44C1210.53 650.125 1211.76 656.452 1213.6 662.245C1215.23 668.205 1216.36 674.415 1218.46 679.071C1219.31 686.772 1218.84 695.295 1217.04 704.637C1217.28 701.835 1216.08 694.887 1214.49 700.765C1213.66 704.879 1213.31 708.719 1213.46 712.239C1215.09 710.231 1215.42 721.34 1216.31 712.595C1220.41 712.043 1215.16 730.973 1218.92 728.478C1218.01 730.977 1217.31 743.065 1214.95 748.875C1216.47 748.928 1216.7 741.513 1217.8 740.851L1216.75 746.811L1217.82 746.158C1218 749.63 1217 753.785 1214.84 758.574C1213.07 762.095 1211.74 765.383 1210.85 768.454L1211.32 767.952L1210.04 772.811L1213.79 765.779C1212.41 773.126 1208.68 778.682 1206.45 787.234L1207.2 787.533L1205.15 793.087C1205.49 792.157 1205.98 791.631 1206.11 792.028C1202.3 798.315 1200.63 808.658 1197.12 814.453C1196.66 817.582 1199.37 818.511 1195.87 824.275L1199.51 821.528C1202.81 810.108 1198.18 818.698 1202.46 806.195C1204.72 812.438 1197.57 837.288 1193.77 853.03C1191.29 860.825 1189.67 868.133 1188.86 874.972C1188.21 878.563 1187.97 881.664 1187.19 884.605C1186.8 886.767 1185.82 889.225 1184.25 891.977L1186.39 889.519L1186.93 898.148L1188.32 906.108C1188.65 909.625 1189.2 913.006 1190.02 916.149L1191.72 920.47L1192.54 922.597C1192.88 923.249 1193.34 923.802 1193.72 924.421C1195.35 926.752 1196.48 929.365 1198.47 931.101C1200.19 933.052 1201.45 935.214 1203.22 936.697L1207.22 936.548C1208.7 939.262 1211.19 941.144 1214.71 942.185C1218.94 943.534 1223.88 944.192 1229.54 944.149C1240.97 944.157 1254.13 941.738 1258.54 942.565C1270.15 938.459 1256.86 941.322 1256.61 940.603C1260.7 939.28 1265.14 938.899 1270.39 937.475C1272.83 936.916 1275.42 936.179 1278.12 935.276C1280.53 934.405 1283.09 933.235 1285.82 931.75C1286.3 930.95 1274.24 935.494 1280.01 932.97C1282.91 931.444 1285.46 930.481 1287.66 930.089C1290.07 929.661 1292.89 928.514 1296.11 926.647C1291.98 929.515 1305.88 925.265 1317.3 920.071C1316.32 920.489 1315.3 921.024 1314.21 921.662C1313.12 922.599 1314.71 922.045 1317.17 921.003C1319.63 919.969 1323.04 918.214 1325.39 917.132C1324.99 917.142 1324.45 917.296 1323.83 917.593C1339.21 910.511 1354.96 902.315 1371.11 892.994C1379.38 888.341 1387.82 883.106 1396.29 877.921C1404.79 872.453 1413.36 866.987 1421.9 861.05C1439.13 849.259 1456.05 836.806 1472.65 823.724C1489 810.801 1504.83 797.559 1520.15 783.973C1516.19 787.152 1512.17 790.243 1508.25 793.335C1518.41 785.146 1528.04 776.7 1537.13 768.01L1535.81 769.105C1540.69 764.015 1546.07 759.078 1551.95 754.271C1557.06 750.236 1561.39 746.072 1564.91 741.797L1562.43 743.955C1580.78 726.535 1589.08 716.022 1606.77 698.978C1618.87 685.533 1616.37 687.05 1624.02 677.829C1627.65 673.738 1631.84 669.751 1636.6 665.882L1633.31 669.616C1630.88 673.612 1641.84 661.35 1647.46 655.711C1645.77 659.64 1651.23 657.027 1638.64 672.863C1627.11 684.647 1631.18 684.189 1618.04 697.628C1608.21 705.178 1601.19 716.944 1586.55 729.015C1594.78 722.669 1572.46 743.71 1585.12 733.202C1580 738.689 1574.36 744.078 1568.23 749.373C1560.84 755.821 1553.81 762.347 1547.16 768.965C1549.15 767.501 1549.07 767.964 1551.74 765.741C1536.2 778.913 1542.46 775.259 1531.16 785.219L1530.38 784.289C1525.67 787.918 1525.19 789.467 1521.03 792.734C1524.06 790.001 1529.92 784.095 1526.03 786.834C1520.64 790.993 1515.34 795.231 1510.12 799.57C1510.46 799.878 1514.63 796.61 1517.44 794.394C1517.44 794.394 1514.38 797.045 1511.28 799.821C1508.85 801.831 1506.67 803.887 1504.71 806.006C1509.59 802.512 1515.3 797.616 1519.85 794.623C1503.78 808.797 1518.93 795.923 1511.74 803.299C1512.72 800.575 1496.82 815.051 1487.22 822.159C1486.68 823.315 1493.82 817.118 1496.44 815.54C1489.79 822.28 1482.35 828.502 1474.15 834.213C1464.88 840.675 1455.68 847.331 1446.57 854.173C1448.24 853.225 1449.89 852.171 1451.56 850.955C1446.67 854.435 1441.85 858.009 1437.09 861.702C1433.26 864.82 1429.33 867.539 1425.32 869.85C1419.91 873.72 1419.48 874.502 1418.32 875.741C1417.15 876.987 1415.2 878.808 1406.67 884.324C1409.11 881.847 1404.14 885.179 1398.44 888.982C1392.78 892.707 1386.42 896.633 1386.27 895.818C1381.93 898.905 1377.58 901.97 1373.18 904.892C1367.54 907.714 1368.49 906.359 1368 905.96C1367.57 905.444 1365.68 906.237 1354.87 912.128C1334.77 924.061 1355.8 914.753 1343.7 922.485L1339.2 923.802L1329.08 929.88L1330.54 929.197C1324.78 931.942 1314.12 937.319 1313.75 938.128C1314.45 938.239 1320.81 935.106 1321.51 935.209C1318.2 936.608 1314.76 938.288 1311.24 940.211C1306.94 942.495 1302.04 944.905 1297.11 947.394C1292.36 949.811 1287.73 951.9 1283.3 953.632C1279.69 955.217 1276.63 956.05 1274.13 956.147C1268.33 958.887 1257.26 962.99 1257.85 963.703C1253.66 964.406 1248.96 965.781 1243.82 967.786C1238.32 969.675 1233.23 970.997 1228.6 971.742C1228.89 972.259 1221.98 974.585 1217.62 975.023C1224.67 972.964 1221.2 973.05 1217.86 972.808C1213.19 974.044 1208.86 974.878 1204.84 975.318C1200.37 975.747 1196.27 976.086 1194.06 977.349C1190.88 976.876 1190.76 975.829 1191.1 975.037C1191.47 974.221 1192.58 973.352 1192.72 972.427C1190.84 972.7 1189.06 972.845 1187.44 972.836L1184.33 972.886L1181.57 972.608C1178.02 972.28 1175.01 972.247 1174.55 973.864C1176.28 974.111 1179.03 974.549 1180.95 975.09C1182.88 975.631 1184.44 975.912 1182.66 976.813C1178.55 977.083 1178.48 976.377 1178.2 976.012C1177.99 974.94 1177.24 974.321 1175.93 974.14C1175.75 974.746 1170.78 974.938 1170.84 975.981C1167.99 975.137 1164.86 973.232 1160.9 971.966C1167.59 973.511 1159.72 968.355 1164.15 968.936L1166.95 973.488C1167.77 974.103 1168.89 974.441 1170.29 974.517C1171 974.512 1171.27 974.321 1171.44 974.058C1171.78 973.526 1171.66 972.747 1173.44 972.785C1171.06 972.064 1169.19 970.925 1167.84 969.325C1166.99 968.437 1166.3 967.417 1165.76 966.28C1164.79 963.161 1163.38 960.359 1161.59 957.831C1159.55 956.786 1157.79 955.493 1156.31 953.979C1158.02 956.893 1154.64 958.693 1152.97 957.517C1152.82 955.945 1152.34 954.614 1151.53 953.518C1150.86 952.389 1150.18 951.376 1149.31 950.519C1147.9 948.962 1145.96 947.834 1145 946.02C1145.71 947.062 1146.51 946.899 1146.97 946.352C1147.7 945.162 1148.12 944.113 1148.23 943.229C1148.03 931.669 1146.22 940.019 1143.93 936.437C1143.82 932.036 1143.17 928.363 1142.96 924.717C1142.84 921.02 1142.43 917.737 1142.44 914.338C1142.43 910.954 1142.56 907.585 1142.94 904.041C1143.48 900.434 1144.23 896.662 1145.42 892.442L1147.05 898.134L1143.94 902.186C1145.14 906.659 1150.15 897.527 1152.49 893.239C1151.62 893.001 1153.9 883.133 1151.67 887.835L1154.8 877.739C1155.68 878.473 1153.89 884.852 1156.1 879.724C1155.8 877.167 1157.52 867.73 1154.5 874.771C1155.61 869.778 1158.07 862.808 1159.35 863.052C1161.54 854.832 1155.7 865.823 1153.8 870.062C1155.14 863.725 1152.62 865.871 1151.4 868.243L1153.99 859.051C1152.75 861.433 1151.65 862.049 1150.42 864.407C1150.91 859.053 1154.98 853.141 1154.04 849.363L1156.88 845.854C1159.21 830.689 1158.55 832.486 1161.83 817.929L1162.92 819.429C1168.36 806.78 1162.01 812.976 1166.23 797.819C1168.44 789.368 1169.99 783.798 1172.56 783.208C1173.84 780.037 1173.67 777.817 1172 776.589C1175.15 769.663 1176.53 763.736 1176.15 758.809C1174.97 763.005 1174 766.37 1173.26 770.059C1170.64 770.713 1173.91 758.577 1172.58 754.113L1175.94 741.918C1177.06 736.894 1178.3 731.403 1179.38 727.344C1181.67 728.886 1184.85 725.685 1186.81 718.326C1185.26 720.268 1184.28 711.78 1182.67 708.676C1181.28 711.67 1177.75 702.632 1177.97 711.303C1179.08 713.124 1181.47 712.72 1181.02 716.521C1178.08 714.055 1175.87 711.025 1174.35 707.465C1173.19 710.347 1172.82 712.752 1173.2 714.715C1173.77 712.695 1174.39 713.23 1175.07 712.998C1174.23 724.201 1170.94 713.476 1169.06 716.323C1169.47 713.22 1167.94 708.225 1170 709.683C1164.95 707.557 1169.51 693.145 1164.52 690.557C1164.88 690.039 1167.04 692.04 1167.07 687.822C1166.92 685.051 1165.45 683.291 1162.7 682.532C1162.83 678.965 1162.26 675.883 1160.94 673.296C1160.69 669.286 1166.3 673.921 1166.29 668.056C1167.96 662.853 1163.53 660.637 1162.56 656.632C1158.57 653.877 1163.32 661.734 1163.25 664.129L1158.58 651.501C1156.88 650.404 1156.44 651.256 1156.74 652.757C1157.12 654.797 1157.81 656.612 1158.8 658.209C1154.96 654.66 1152.71 648.081 1154.18 645.059C1152.75 642.808 1150.97 640.815 1148.83 639.118C1149.52 642.399 1145.38 645.306 1147.29 649.767C1151.69 656.155 1148.75 645.134 1152.87 650.317L1150.87 652.523C1152.94 654.361 1154.1 656.88 1154.32 660.083C1155.66 661.194 1154.96 659.143 1154.79 657.855C1156.99 663.054 1160.58 665.863 1159.34 671.888C1154.24 666.458 1151.94 654.314 1147.36 653.711C1145.86 648.715 1144.33 643.727 1142.21 639.165C1143.26 638.353 1148.14 641.069 1147.11 636.593C1143.26 637.383 1139.71 634.648 1135.25 630.929C1139.63 630.162 1131.52 622.293 1135.84 622.515C1135.92 624.396 1137.35 625.128 1140.09 624.726C1136.41 620.593 1142.25 622.068 1140.28 619.742C1136.44 616.33 1136.05 616.758 1135.61 617.258C1135.18 617.758 1134.79 618.239 1130.41 615.409C1130.54 616.646 1131.04 618.625 1131.63 621.072C1132.2 623.535 1133.02 626.32 1134.31 628.786C1132.76 629.529 1130.69 624.681 1127.63 624.185C1131.4 625.294 1128.79 620.365 1131.28 621.773L1124.02 611.104C1121.49 607.299 1118.04 603.955 1114.28 600.736C1111.44 605.093 1125.06 613.111 1117.35 615.469C1114.18 611.955 1116.09 610.389 1112.59 608.346C1109.21 607.885 1106.65 606.703 1104.93 604.797C1102.2 602.907 1099.4 600.524 1096.43 598.778L1100.34 599.222C1098.01 596.911 1094.89 595.273 1090.96 594.325L1091.15 595.139C1090.48 594.499 1089.89 593.786 1089.15 593.22C1088.57 593.147 1088.33 593.231 1088.19 593.361C1086.36 590.905 1076.55 589.272 1069.8 587.639C1071.74 585.758 1077.07 588.752 1080.42 589.483C1081.74 589.288 1088.61 590.403 1087.04 588.282C1078.96 585.736 1074.95 582.372 1063.36 581.9L1067.53 581.558C1063.81 580.353 1059.1 580.156 1053.43 580.94C1041.19 583.135 1059.28 582.742 1051.64 584.309C1053.45 584.873 1055.63 585.07 1058.15 584.918C1060.54 584.904 1062.23 585.261 1061.62 586.39C1058.8 587.087 1056.01 587.774 1053.03 588.717C1051.04 588.057 1048.37 588.111 1045.04 588.861C1042.01 589.426 1039.09 590.121 1037.14 590.353C1038.97 589.701 1040.73 589.144 1042.43 588.682C1043.38 586.716 1037.89 588.887 1035.61 589.483L1041 586.21C1047.99 584.819 1049.92 587.01 1055.71 585.355C1052.73 585.145 1050.01 584.69 1047.55 583.99C1044.53 583.317 1040.65 583.542 1035.98 584.641C1035.21 585.244 1035.88 585.174 1036.82 585.018C1037.84 584.834 1038.68 584.852 1039.35 585.049C1036.55 585.691 1033.93 586.123 1031.48 586.363C1028.32 586.675 1024.69 587.611 1020.58 589.172C1022.95 588.686 1025.19 588.352 1027.29 588.18C1028.63 588.359 1028.57 588.806 1024.95 590.345L1021.81 589.694C1017.56 591.217 1018.72 591.43 1016.99 592.077C1010.87 594.622 1019.7 589.546 1009.97 593.469C1008.34 594.37 1004.87 596.267 1006.04 596.058C995.002 600.855 1001.11 597.753 990.71 602.137C1000.27 597.383 1002.18 594.343 991.649 599.361C976.651 607.512 965.36 614.424 955.7 623.133L948.668 627.658C951.183 626.429 948.774 628.194 945.487 630.95C942.084 633.691 938.765 636.495 935.551 639.347C935.384 640.151 940.601 635.72 946.079 631.228C951.663 626.828 957.618 622.597 957.977 623.416C948.889 630.646 953.331 627.919 956.43 626.159C946.724 633.435 951.99 627.87 947.076 630.832C944.849 633.097 942.435 635.297 939.806 637.441C936.478 640.368 934.263 642.869 937.462 640.53C934.696 643.118 931.773 645.593 928.662 647.957C926.129 650.004 923.801 652.138 921.72 654.325C923.216 653.509 924.967 652.625 925.265 653.188C923.602 654.54 922.174 655.932 921.011 657.354L916.924 662.137C917.785 660.856 913.006 664.833 919.55 658.26C916.295 661.014 913.512 663.802 911.2 666.622C908.098 670.284 905.194 673.713 904.716 673.627C905.709 673.979 893.393 688.034 889.149 694.874C887.023 695.231 889.965 691.762 893.068 688.145C896.148 684.5 899.891 680.692 898.958 679.885C892.396 687.323 886.771 694.551 882.071 701.555C875.826 710.287 869.972 719.569 864.271 727.497C857.804 739.931 866.265 726.705 866.629 728.592C874.5 716.508 874.927 714.046 882.794 703.376L870.164 723.407C865.706 730.504 861.428 737.3 858.426 741.666C851.634 753.815 856.664 752.512 848.168 767.467C847.385 766.322 846.838 766.768 848.428 762.616C846 766.971 843.945 771.143 842.205 775.189C839.85 778.264 844.065 769.303 840.233 775.567C839.442 777.693 837.308 782.427 838.968 780.937L839.605 779.898C831.172 794.536 838.857 788.063 829.635 801.549C829.211 801.002 831.625 797.87 832.507 795.197C832.265 793.554 826.731 801.831 823.451 807.612C825.121 806.09 821.295 812.363 819.777 816.075C820.502 817.765 825.121 806.09 827.434 803.538L822.476 814.109L823.251 812.008L815.631 824.505C820.248 816.107 815.093 821.726 813.119 825.381C809.535 833.296 805.936 841.235 808.629 839.263C805.936 841.235 801.084 851.236 797.098 858.587C800.135 851.163 795.673 858.474 793.831 861.06L790.32 871.728C797.002 859.127 791.045 873.418 793.973 869.843C798.026 865.237 800.495 858.321 803.367 851.969C801.265 862.774 792.376 870.794 788.94 880.939C789.979 880.464 791.655 878.95 793.811 874.199C793.56 875.825 786.881 885.149 784.411 892.065C784.634 890.448 784.664 887.161 780.148 894.98L777.883 903.579C772.856 914.682 773.284 908.676 767.479 918.596L768.755 913.241C766.056 915.206 762.523 925.891 759.936 927.292C762.707 921.518 766.234 917.388 768.513 911.598C767.257 910.375 763.434 919.932 760.431 924.031C757.533 930.438 755.349 936.481 753.872 942.154C757.429 940.809 766.123 924.513 769.987 924.319C762.598 937.558 756.205 950.355 750.83 962.693C744.308 974.215 741.859 974.553 740.503 973.909C738.55 977.326 737.101 980.507 736.203 983.425L739.944 977.708C731.999 991.912 726.917 1000.33 718.768 1015.38C713.319 1024.25 713.119 1021.65 712.561 1020.3C710.749 1023.42 708.736 1026.62 706.8 1029.79L707.174 1028.55C703.69 1031.54 699.442 1039.57 695.172 1046.07C696.128 1045.75 698.963 1041.7 699.295 1041.86C695.926 1048.02 691.361 1054.53 685.559 1061.44C686.391 1061.23 691.599 1056.44 695.783 1049.56C696.062 1048.9 695.472 1049.38 695.746 1048.72C698.761 1044.68 701.733 1040.63 704.526 1036.65C695.041 1050.33 691.069 1058.06 693.508 1057.08C682.058 1071.64 699.658 1046.23 686.551 1063.3C680.313 1073.46 671.882 1084.11 661.23 1095.26C652.646 1103.9 644.75 1112.49 637.57 1121.04C634.316 1123.79 630.822 1126.64 627.184 1129.61C623.414 1132.54 619.621 1135.66 615.38 1138.83C606.017 1146.01 596.515 1152.93 586.876 1159.58C586.733 1159.09 583.17 1161.53 579.816 1163.58C576.462 1165.63 573.392 1167.43 574.431 1166.07C584.52 1158.98 593.728 1152.83 602.577 1146.53C611.21 1140.62 619.047 1134.12 626.033 1127.05C634.375 1120.14 632.694 1122.8 636.766 1119.69C643.936 1113.21 649.941 1106.96 650.045 1106.08C641.997 1113.59 640.223 1114.45 638.018 1115.81C635.807 1117.16 633.374 1119.03 623.103 1128.06C626.372 1124.57 629.933 1121.1 633.768 1117.68C638.552 1113.22 643.11 1108.73 647.439 1104.22C644.968 1106.12 646.204 1104.09 649.731 1099.91C642.274 1106.5 634.649 1112.96 626.836 1119.31C629.302 1117.67 625.948 1121.05 627.878 1119.64C620.867 1125.43 613.67 1131.03 606.319 1136.38C600.357 1141.89 598.789 1143.81 602.737 1141.42C595.822 1146.89 588.765 1151.96 581.568 1156.62C578.153 1158.86 575.139 1160.73 572.96 1162.26C570.796 1163.72 569.441 1164.72 569.365 1165.2C553.283 1174.47 574.658 1161.22 575.879 1159.65L574.53 1160.43C580.114 1156.92 585.659 1153.18 591.188 1149.19C591.451 1148.51 590.472 1149.02 588.745 1150.2C587.044 1151.38 584.584 1153.07 582.008 1154.93C576.821 1158.56 570.928 1162.43 569.756 1162.16C569.217 1161.59 567.574 1162.22 565.248 1163.56C562.355 1165.18 559.437 1166.95 556.518 1168.86C549.542 1173.41 542.944 1176.85 536.745 1179.17C538.34 1179.02 539.92 1178.98 541.718 1178.64L547.321 1177.5C543.598 1179.03 539.997 1180.36 536.56 1181.46C538.53 1181.21 540.328 1181.14 541.978 1181.23C544.424 1181.25 547.48 1180.45 551.14 1178.84C546.379 1181.29 541.694 1183.53 537.119 1185.55C532.336 1187.57 527.738 1189.3 523.324 1190.74C519.241 1192.07 515.397 1193.08 511.77 1193.81C509.073 1194.27 506.556 1194.52 504.242 1194.54C500.081 1196.04 497.481 1197.38 497.519 1198.71C493.606 1197.78 489.302 1197.23 484.609 1197.06L478.772 1196.48C476.843 1196.11 475.181 1195.52 473.717 1194.74C471.716 1191.89 473.734 1192.5 476.031 1193.12C478.576 1193.57 481.345 1194.04 480.109 1191.82C478.284 1191.68 476.967 1191.09 476.186 1190.04C475.257 1189.19 474.564 1188.16 474.087 1186.97C475.119 1188.7 476.758 1189.93 478.966 1190.7C480.428 1191.22 481.99 1191.77 483.61 1192.22L488.662 1193.17C484.515 1191.84 487.169 1190.04 487.019 1188.83C489.366 1189.46 491.524 1190.26 494.288 1190.5C495.33 1189.24 493.043 1188.81 490.731 1187.99C488.256 1187.5 486.404 1186.48 485.216 1184.9C484.3 1187.97 483.326 1187.51 482.557 1190.55C478.251 1187.21 473.168 1181.35 469.644 1178.44C467.341 1176.88 469.29 1181.44 469.408 1183.14C466.884 1183.51 467.801 1177.78 465.249 1178.39C463.816 1180.44 466.539 1181.47 466.932 1183.49C463.956 1179.25 461.911 1174.34 460.785 1168.77C459.74 1169.45 460.043 1174.01 461.315 1176.14C458.493 1172.41 458.723 1166.77 461.976 1159.22C460.485 1153.93 458.801 1147.89 457.229 1151.01C457.824 1147.79 458.877 1149.01 459.988 1148.32C459.224 1140.51 463.077 1137.15 462.91 1132.32L465.111 1134.64C462.626 1128.28 468.461 1130.59 466.321 1124.94C464.345 1127.4 461.856 1128.57 459.448 1129C461.461 1126.51 459.078 1123.69 458.502 1121.13C461.011 1121.27 459.064 1114.32 462.193 1116.99C462.236 1109.95 458.314 1109.59 458.546 1104.26C459.59 1105.12 459.532 1103.62 459.333 1102.17C459.155 1100.7 458.931 1099.17 460.448 1099.44C456.782 1095.15 450.21 1095.84 449.7 1098.28C451.799 1098.87 454.978 1100.18 453.141 1101.4C450.81 1099.14 447.718 1097.54 443.837 1096.6C441.791 1096.84 439.584 1097 437.67 1097.28C435.574 1097.72 433.68 1098.37 432.483 1099.36C430.393 1098.47 427.355 1098.62 423.361 1099.8C421.404 1100.33 419.516 1100.78 417.734 1101.09C416.174 1101.51 414.971 1101.55 414.11 1101.24C415.221 1101.26 416.497 1101.09 417.939 1100.73C419.089 1100.54 420.323 1100.22 421.659 1099.78C423.67 1099.01 425.602 1098.36 427.434 1097.84C426.706 1097.83 426.063 1097.71 425.26 1097.78L426.66 1097.51C425.278 1096.7 423.611 1096.14 421.959 1095.47C426.21 1094.09 426.091 1094.6 426.204 1095.19C426.333 1095.75 426.725 1096.35 431.414 1095.89C437.007 1093.85 433.561 1093.03 429.513 1092.64C427.335 1092.61 425.151 1092.59 424.123 1092.41C423.016 1092.36 423.348 1091.81 426.31 1090.76C435.374 1088.15 431.31 1091.59 436.285 1092.08L434.649 1092.31C438.672 1092.37 442.225 1092.88 445.313 1093.85C446.958 1092.83 444.503 1091.57 444.503 1091.57C449.574 1091.96 454.067 1092.89 458.004 1094.34C462.099 1095.99 465.186 1098.47 467.263 1101.78C466.266 1101.51 461.378 1102.6 462.89 1107.39C463.378 1111.25 465.832 1109.99 466.96 1112.73C467.972 1109.78 467.761 1107.65 466.323 1106.32L469.227 1104.45C469.08 1101.77 469.494 1098.76 470.474 1095.42C470.758 1094.06 470.698 1092.92 470.249 1092.03C469.489 1090.02 468.245 1088.37 466.577 1087.06C466.487 1084.68 465.242 1083.21 462.82 1082.65C461.126 1081.84 459.138 1081.31 456.828 1081.07C454.565 1080.72 452.014 1080.66 449.18 1080.9C451.252 1080.38 453.459 1079.78 455.501 1079.36C451.808 1077.82 450.594 1078.51 449.149 1079.17C447.725 1079.82 445.818 1080.59 439.274 1080.42L431.789 1083.83C429.446 1084.93 427.068 1086.15 424.612 1087.55C420.618 1089.83 418.874 1091.48 422.319 1091.59C410.613 1095.39 407.416 1095.34 395.528 1100.64C387.406 1105.97 397.987 1101.38 395.467 1104.19C387.754 1107.26 376.976 1112.75 383.741 1108.06C380.935 1109.71 378.095 1111.5 375.312 1113.18C372.504 1114.96 369.706 1116.93 366.971 1118.76C366.559 1119.38 372.443 1115.59 374.744 1114.13C368.398 1118.25 356.071 1126 352.151 1128.82C353.56 1127.81 357.704 1124.74 359.471 1123.34C357.423 1124.64 355.388 1126.05 353.389 1127.54C351.145 1129.12 348.957 1130.73 346.776 1132.38C344.093 1134.59 341.359 1136.69 338.551 1138.69C342.163 1135.78 345.63 1132.77 348.916 1129.7C350.427 1128.37 351.944 1127.09 353.533 1125.82C354.51 1125.04 355.526 1124.27 356.564 1123.53C357.7 1122.78 358.977 1121.95 360.438 1121.04C359.391 1121.42 356.998 1122.01 351.222 1126.87C355.47 1123.09 359.957 1119.49 364.647 1116.11C368.034 1113.83 371.329 1111.4 374.554 1108.78C371.075 1111.29 367.611 1113.55 364.12 1115.61C361.414 1117.3 359.496 1118.32 358.569 1118.9C360.869 1117.17 363.182 1115.5 365.534 1113.89C368.163 1112.18 370.998 1110.39 373.758 1108.69C376.299 1107.18 378.815 1105.78 381.312 1104.48C383.11 1103.48 384.872 1102.61 386.552 1101.9C387.38 1100.62 394.813 1096.66 400.227 1094.47C405.845 1091.94 409.696 1090.75 406.038 1091.08C407.903 1090.83 410.028 1090.2 412.411 1089.2C415.676 1087.97 419.173 1086.86 421.875 1085.69C422.059 1085.18 419.179 1085.76 415.587 1086.57L404.522 1089.74C400.969 1091.22 398.292 1092.33 396.274 1093.27C394.9 1093.93 393.5 1094.65 392.086 1095.44C390.558 1096.3 391.271 1096.16 392.651 1095.72C395.548 1094.68 400.542 1093.24 397.095 1095.08C393.533 1096.69 389.698 1098.74 386.005 1100.57C382.16 1102.7 378.3 1104.85 374.378 1107.18C375.599 1106.28 373.225 1107.47 372.486 1107.66C372.116 1107.76 372.167 1107.61 373.297 1106.8C375.746 1105.14 378.157 1103.69 380.539 1102.42C378.393 1103.28 376.159 1104.34 373.821 1105.62C367.348 1109.05 360.888 1113.2 354.434 1118.07C351.065 1120.64 347.83 1123.28 344.673 1126.03C341.418 1128.08 350.788 1120.72 353.689 1118.49C350.774 1120.35 347.878 1122.11 344.975 1123.81C343.921 1124.35 343.565 1124.34 344.859 1123.08C347.509 1120.65 350.287 1118.35 353.228 1116.16C352.248 1117.07 364.098 1109.28 354.482 1116.67C356.651 1115.18 359.701 1113 362.96 1110.65C366.225 1108.31 369.631 1106.15 372.531 1104.13C375.453 1102.1 377.753 1100.59 378.785 1099.8C379.843 1098.99 379.665 1098.85 377.37 1099.92C379.973 1098.5 383.138 1096.78 386.521 1094.99C389.866 1093.28 393.249 1091.76 396.636 1090.15C402.147 1087.69 407.485 1085.54 412.618 1083.75C414.006 1082.75 412.545 1083.22 410.316 1084.06C408.082 1084.9 404.82 1086.45 403.061 1087.01C405.254 1086.08 407.528 1085.07 409.653 1084.22L415.879 1081.94C419.937 1080.49 423.869 1079.23 427.63 1078.19L420.027 1081.71C424.169 1080.1 427.998 1078.93 431.531 1078.18C433.132 1077.85 434.663 1077.57 436.118 1077.32C437.499 1077.15 438.761 1077.1 439.991 1077.05L443.557 1076.96L446.727 1077.24L449.928 1077.48L453.036 1077.9C453.985 1075.54 445.78 1075.66 438.612 1076.38C448.287 1072.3 442.708 1076.48 453.859 1075.28C455.616 1074.85 456.494 1074.3 456.478 1073.61L459.626 1074.58L462.302 1075.95C464.2 1075.92 464.142 1075.54 463.648 1075.25C465.081 1075.69 466.096 1076.46 466.708 1077.57C466.907 1077.87 466.841 1078.31 466.516 1078.91C466.131 1079.7 467.083 1079.96 471.883 1083.81C470.161 1082.96 468.579 1082.51 467.754 1081.89L465.752 1080.32C464.511 1078.81 462.478 1078 459.651 1077.89C456.393 1078.47 458.075 1079.45 460.578 1080.46C462.758 1081.42 464.475 1082.75 465.791 1084.4C469.11 1085.46 471.179 1085.69 473.526 1086.11C476.049 1086.8 477.579 1088.29 478.089 1090.58C477.33 1086.81 480.744 1088.83 476.234 1083.84C474.343 1080.12 479.155 1084.25 481.072 1083.84C481.753 1085.74 477.65 1084.92 481.081 1088.95L481.359 1088.47C481.752 1090 481.929 1091.64 482.03 1093.33C482.207 1094.97 482.232 1096.69 482.187 1098.45C486.53 1105.12 482.138 1119.66 485.627 1123.59L482.618 1124.1C482.561 1129.87 482.559 1137.89 482.158 1142.12C483.812 1140.13 483.825 1136.38 484.338 1132.04C484.741 1140.31 484.223 1149.18 482.805 1158.6C480.684 1156.66 479.068 1154.35 477.984 1151.62C476.513 1155.04 476.631 1157.41 478.375 1158.73C480.274 1160.3 481.296 1162.51 481.463 1165.34C484.373 1163.47 483.092 1161.63 486.503 1161.25C485.434 1165.46 488.287 1169.14 488.672 1172.83C492.631 1171.83 492.339 1168.35 489.591 1162.01C484.904 1158.97 488.151 1149.82 485.401 1146.31L487.482 1148.15C487.219 1142.98 487.485 1137.48 488.284 1131.64L487.875 1132.13L490.674 1127.5L490.741 1130.51C492.831 1125.77 494.171 1121.42 494.808 1117.46C494.644 1127.18 490.04 1130.72 487.653 1136.72C488.246 1144.71 493.511 1144.51 492.004 1150.72C493.355 1150.25 495.88 1152.84 496.292 1149.08C496.196 1147.36 495.916 1145.75 495.437 1144.29C495.172 1143.06 495.118 1142.2 496.072 1141.34C496.094 1142.7 496.422 1143.84 497.041 1144.77C497.69 1146.23 498.16 1147.81 498.432 1149.54C496.122 1152.45 495.209 1158.31 495.444 1163.27C496.596 1167.91 499.734 1170.94 504.891 1172.37C500.867 1170.28 500.453 1165.18 502.961 1164.56C503.149 1166.45 504.309 1167.54 506.445 1167.87C508.279 1168.33 509.546 1168.68 507.351 1169.79C508.439 1170.44 510.138 1170.78 511.662 1171.33C513.297 1171.71 515.086 1171.94 517.015 1172.04C520.737 1172.1 524.438 1171.25 525.944 1169.96C519.998 1170.04 514.955 1169.24 510.816 1167.57C511.883 1168.02 513.74 1167.67 513.743 1166.88C512.649 1166.66 511.8 1166.18 510.892 1165.77C509.963 1165.36 509.034 1164.96 508.276 1164.38C512.163 1164.7 515.655 1165.4 518.767 1166.45C518.152 1166.59 516.938 1166.84 517.376 1167.09C518.894 1167.42 520.809 1167.85 522.54 1167.91L525.072 1165.6C527.96 1166.23 531.723 1165.9 536.348 1164.61C541.816 1163.07 547.485 1161.26 553.312 1159.22L552.417 1159.3C556.166 1157.54 559.573 1156.31 562.637 1155.62C566.412 1154.69 570.66 1152.73 575.43 1149.71C571.567 1151.55 573.401 1149.75 574.052 1148.64C576.798 1147.23 579.49 1145.43 582.13 1143.25C584.558 1141.38 586.902 1139.22 590.027 1136.75C582.777 1142.89 595.817 1134.07 590.462 1138.46C590.573 1139.18 594.138 1136.83 598.643 1133.52C600.889 1131.81 603.331 1129.82 605.655 1127.94C607.938 1125.97 610.114 1124.09 611.904 1122.54C613.209 1120.37 607.586 1124.99 602.815 1128.62C598.028 1132.28 594.143 1135.02 598.699 1130.4C605.323 1124.86 607.862 1123.75 603.259 1128C605.41 1126.21 607.739 1124.08 610.242 1121.9C612.645 1119.69 615.171 1117.37 617.502 1115.1C621.598 1111.17 625.149 1107.29 628.169 1103.44C632.189 1099.99 635.956 1096.48 639.443 1092.91C642.213 1090.02 645.214 1087.21 648.485 1084.43C646.926 1086.27 645.094 1088.11 642.971 1089.94C640.751 1092.03 638.881 1094.09 637.365 1096.13C640.1 1093.81 642.773 1091.45 645.385 1089.07C651.936 1081.17 657.409 1073.57 661.775 1066.31C659.845 1068.65 657.872 1070.98 655.848 1073.28L656.429 1072.88C653.673 1075.66 647.252 1084.12 646.486 1083.44C653.275 1077.05 655.118 1072.74 662.205 1064.43L661.63 1064.84C673.28 1050.19 673.525 1042.26 683.209 1031.59C681.755 1034.14 680.624 1038.49 682.448 1036.55C683.235 1033.79 688.293 1025.08 686.717 1025.97L684.69 1029.02C688.65 1021.29 690.781 1016.64 692.752 1013.55C695.608 1010.59 695.823 1012.25 699.657 1006.07C705.565 992.472 692.786 1013.6 696.029 1004.71L704.399 990.655L704.242 988.457C712.36 969.423 725.088 951.822 735.444 930.759C732.905 931.645 724.275 947.402 721.6 952.635C722.415 947.216 730.256 936.379 732.886 928.384C736.48 920.438 741.881 913.231 742.76 913.835C748.635 903.384 744.668 907.434 744.833 906.362C749.373 901.766 754.544 889.608 759.151 881.241L757.667 881.629L765.934 868.062C764.512 871.233 767.435 867.651 768.452 867.192L769.886 864.036C768.346 874.325 753.047 893.303 751.963 903.649C754.5 899.479 752.827 904.277 755.384 900.09C756.812 896.926 756.882 896.395 756.405 896.355C758.712 893.795 762.453 888.078 759.035 894.921C762.677 893.021 768.501 879.8 774.307 869.88C775.71 863.448 767.145 879.156 763.564 883.794C766.387 879.507 768.593 875.487 770.177 871.725L766.937 874.189C774.733 860.589 770.973 869.607 774.957 865.533C780.017 860.501 780.53 853.939 782.505 850.283L779.968 854.454C783.797 844.905 787.674 841.402 791.894 832.448L791.907 829.14C788.947 839.324 781.439 844.695 779.584 850.589C785.267 835.146 772.446 856.572 767.672 862.771C771.226 856.592 773.683 850.944 774.993 845.855C783.524 833.914 784.411 824.687 793.388 812.835C795.613 807.553 789.17 818.512 791.957 812.715C797.101 801.673 803.176 790.24 810.172 778.4C813.139 772.347 811.48 773.883 811.275 772.643C816.89 760.748 824.403 748.113 833.808 734.73C842.243 722.666 850.75 710.383 865.209 691.074C863.223 693.118 861.372 695.117 859.604 697.087C862.239 693.399 865.082 689.669 868.18 685.869C870.349 683.042 873.01 680.186 876.202 677.305C878.914 672.254 887.695 662.72 898.019 652.742L905.832 645.237C908.41 642.759 911.276 640.257 913.796 637.883C916.403 635.488 918.787 633.16 921.119 630.942C923.394 628.873 925.555 626.787 927.627 624.677C950.422 605.454 953.023 606.199 971.402 594.171Z" fill="#F84E72"/>
</g>
<path d="M786.177 676.016C786.085 675.732 785.904 675.635 785.759 675.647C785.906 675.895 786.054 676.091 786.177 676.016ZM785.888 682.83C785.899 682.696 785.905 682.559 785.903 682.423C785.796 682.599 785.752 682.77 785.888 682.83ZM767.152 666.404C767.209 665.879 766.608 666.006 766.099 665.859C766.455 666.038 766.8 666.239 767.152 666.404ZM747.585 659.971L747.283 659.703C746.978 659.705 746.677 659.722 746.376 659.757L747.585 659.971ZM744.099 649.334C743.338 648.971 743.159 648.734 743.317 648.56C742.724 648.372 742.126 648.22 741.518 648.103C741.096 648.17 743.252 648.964 744.099 649.334ZM764.435 640.453L764.619 640.113C764.619 640.113 764.522 640.32 764.478 640.438L764.435 640.453ZM777.85 630.176L777.783 629.97C777.535 629.979 777.289 630.001 777.047 630.037L777.85 630.176ZM789.791 699.927C789.431 699.627 789.592 699.819 789.791 699.927V699.927ZM855.236 644.818C854.86 645.43 853.971 645.232 853.012 645.022C852.054 644.812 851.178 644.856 851.077 645.656C851.861 645.561 852.648 645.548 853.439 645.617C854.419 645.591 855.289 645.533 855.247 644.849L855.236 644.818ZM812.023 685.156C812.247 685.181 812.461 685.151 812.669 685.067C812.445 685.036 812.225 685.055 812.012 685.125L812.023 685.156ZM813.392 673.591C813.518 673.431 813.543 673.256 813.466 673.061L813.288 673.119C813.345 673.176 813.383 673.245 813.4 673.325C813.416 673.405 813.411 673.483 813.382 673.56L813.392 673.591ZM814.492 663.056L814.223 663.144L814.29 663.349L814.492 663.056ZM783.369 605.714C783.145 604.374 782.974 603.4 782.829 602.505C782.893 603.581 783.069 604.639 783.359 605.682L783.369 605.714ZM822.821 603.45C822.821 603.45 822.896 603.426 823.115 602.987L822.821 603.45ZM836.069 579.125L835.535 579.563L834.543 580.36C834.014 580.8 833.459 581.203 832.879 581.568C831.968 582.109 831.389 582.056 831.443 581.061C830.004 582.806 828.907 583.636 827.646 585.218L828.396 582.984C825.65 584.222 823.182 585.898 820.993 588.011L821.787 586.004C821.202 586.606 820.714 587.284 820.325 588.042C819.937 588.799 819.662 589.603 819.502 590.453C818.992 592.366 818.622 594.005 817.923 594.689C817.685 593.963 817.353 593.303 817.043 592.656C816.25 593.401 815.415 594.087 814.535 594.716C813.655 595.353 812.779 596.095 811.935 596.843C811.501 597.228 811.058 597.636 810.679 598.04C810.467 598.242 810.268 598.458 810.082 598.688L809.75 599.129C809.31 599.765 809.038 600.479 808.932 601.264C808.74 601.031 808.366 600.542 808.566 600.146C807.645 601.11 804.187 603.133 806.606 604.68C805.195 603.396 804.643 606.788 804.328 608.496L803.45 607.423C803.712 608.023 803.882 608.648 803.958 609.297C804.032 609.948 804.009 610.59 803.887 611.225C803.664 611.298 803.234 610.739 803.351 610.597C803.069 610.69 803.146 610.978 803.221 611.355C803.295 611.733 803.312 612.286 802.828 612.323C802.704 611.943 802.706 611.543 802.616 611.17C802.123 611.628 802.407 612.04 802.466 613.628C802.372 614.2 802.036 614.483 801.737 614.373C801.436 614.262 801.181 613.735 801.071 612.845C801.099 613.591 801.049 614.329 800.923 615.058C800.877 615.371 800.805 615.358 800.731 615.331C800.656 615.303 800.585 615.187 800.504 614.985C800.456 614.573 800.5 614.173 800.639 613.79C800.252 612.608 799.93 612.887 799.538 612.946C799.145 613.005 798.696 612.942 798.658 611.874C798.789 611.578 798.879 611.269 798.931 610.946C799.32 611.373 799.643 611.851 799.896 612.376C800 611.538 799.953 610.943 800.006 610.349C800.1 609.6 800.243 608.86 800.434 608.132C800.313 608.796 800.034 609.369 799.597 609.855C799.193 610.232 798.703 610.148 798.699 609.731C798.76 609.586 798.83 609.447 798.908 609.314L799.042 609.27C798.985 609.096 798.9 609.09 798.687 609.141L798.738 608.794C798.738 608.794 798.665 608.573 798.593 608.352C799.261 607.574 797.955 606.66 797.566 606.019C796.554 606.909 796.135 605.982 795.828 607.408C795.782 607.266 796.032 607.429 796.386 607.802C796.459 607.778 796.582 607.946 796.686 607.965L796.507 608.024C796.845 608.401 797.254 608.895 797.72 609.458C796.851 609.429 796.015 609.285 796.085 608.144C795.325 608.358 794.555 608.525 793.775 608.64C794.583 606.629 794.213 604.394 794.971 603.483L794.613 603.198C794.455 603.069 794.309 602.925 794.174 602.767L794.133 602.642L794.233 602.138L793.89 602.354L793.174 601.524C792.488 600.737 791.791 599.917 791.124 599.142C790.578 598.485 789.948 597.934 789.232 597.492C789.109 597.4 788.978 597.328 788.835 597.281C788.692 597.234 788.545 597.211 788.398 597.214C788.25 597.218 788.107 597.245 787.97 597.298C787.831 597.351 787.705 597.427 787.594 597.523C787.021 597.188 787.281 595.567 787.19 594.636C787.566 594.776 787.924 595.461 788.205 595.264C786.919 594.411 784.897 589.646 784.605 592.832C783.995 590.971 784.182 590.335 784.309 590.014C784.434 589.694 784.492 589.517 783.598 588.099L783.819 587.364C782.697 583.44 781.53 581.134 780.724 580.386C779.918 579.636 779.351 580.067 778.916 580.401C778.793 581.839 778.625 582.381 778.273 582.113C778.154 582.011 778.056 581.893 777.976 581.757L777.94 581.647L777.876 581.756C777.838 581.829 777.787 581.893 777.723 581.945C777.611 582.051 777.479 582.112 777.326 582.128C777.172 582.141 777.028 582.107 776.892 582.025C777.108 582.077 777.207 582.079 777.398 582.661C776.687 584.044 776.243 585.522 776.064 587.096C775.733 588.948 775.523 591.077 775.347 593.054C775.171 595.032 774.979 596.963 774.72 598.741C774.467 600.472 773.993 602.128 773.299 603.708C772.701 605.807 773.747 606.686 774.565 608.128C774.092 608.144 773.625 608.175 773.146 608.227C773.641 609.065 774.179 609.872 774.763 610.645C775.387 611.995 774.516 612.962 773.819 614.149C773.7 614.282 773.596 614.424 773.505 614.576C773.412 614.729 773.335 614.889 773.273 615.058C773.21 615.225 773.163 615.4 773.131 615.58C773.099 615.757 773.083 615.938 773.083 616.122C773.083 616.305 773.1 616.487 773.133 616.668C773.165 616.849 773.211 617.026 773.276 617.199C773.34 617.371 773.418 617.538 773.51 617.697C773.601 617.855 773.706 618.004 773.825 618.145L774.751 617.701C774.63 618.84 775.603 621.209 774.496 621.101C774.677 621.198 775.515 621.395 775.062 621.874L774.317 621.961L775.907 624.599C775.667 626.789 772.919 624.585 773.22 627.767C773.701 628.935 775.866 630.81 776.336 630.236C776.323 630.073 776.338 629.915 776.38 629.758C776.42 629.604 776.487 629.462 776.578 629.332C776.668 629.205 776.779 629.097 776.907 629.01C777.035 628.924 777.175 628.863 777.326 628.83L777.88 629.817C779.477 629.963 780.977 629.663 782.383 628.917C782.578 628.933 782.76 628.995 782.93 629.103C783.099 629.211 783.236 629.353 783.342 629.529C783.033 630.799 784.034 630.732 784.668 631.259C784.675 631.587 784.684 631.916 784.677 632.249L784.381 632.346C781.981 632.127 779.613 632.256 777.272 632.74C775.857 633.022 774.473 633.404 773.115 633.892L772.103 634.224L770.676 634.901C769.661 635.372 768.711 635.945 767.742 636.507C765.005 638.224 765.271 639.534 765.352 640.589C765.135 640.652 764.921 640.634 764.71 640.538C764.529 640.44 764.508 640.324 764.596 640.192L764.016 641.289C763.976 640.813 763.125 640.133 763.822 640.044C761.641 640.026 761.983 642.986 760.612 641.969L760.684 641.788C759.422 642.968 759.938 643.236 760.276 643.859L759.406 644.981C758.728 644.354 758.058 643.719 757.397 643.075L757.877 644.539C757.609 644.627 757.102 644.793 756.911 644.158C756.444 645.549 757.346 644.679 757.234 645.798C756.363 645.456 755.652 646.003 754.81 646.401C754.62 646.527 754.415 646.616 754.196 646.67C753.973 646.722 753.75 646.736 753.523 646.708C753.296 646.681 753.078 646.616 752.868 646.513C752.66 646.408 752.473 646.271 752.306 646.104C752.672 647.222 754.215 646.245 753.403 647.49C752.226 646.566 751.791 646.848 751.516 647.27C751.454 647.439 751.363 647.592 751.244 647.724C751.126 647.857 750.988 647.961 750.83 648.04C750.674 648.115 750.508 648.162 750.332 648.172C750.156 648.185 749.983 648.162 749.812 648.108C748.695 647.06 750.981 646.991 748.143 646.736C748.896 647.674 748.156 647.831 746.871 647.885C745.716 647.818 744.587 647.943 743.484 648.262C744.629 648.689 744.563 648.99 744.023 649.254C743.807 649.533 743.556 649.773 743.27 649.972C743.128 650.098 742.996 650.233 742.875 650.381C742.741 650.425 742.942 650.586 742.994 650.744C743.045 650.901 743.231 651.015 743.363 651.164C742.499 650.941 744.216 654.374 744.809 656.03L744.451 656.043C746.358 656.081 747.359 657.22 748.54 658.055L748.231 658.627C747.554 658.751 746.896 658.659 746.261 658.347C746.638 658.694 746.967 659.092 747.389 659.425C748.231 659.41 749.026 659.621 749.773 660.058L748.283 660.546C749.309 661.205 750.399 661.698 751.554 662.022C752.119 662.238 752.678 662.438 753.245 662.708C753.814 663.007 754.343 663.376 754.827 663.813C755.16 663.267 755.054 662.288 755.309 661.507C755.452 661.006 755.738 660.626 756.172 660.37L756.969 660.388C756.768 661.029 756.469 661.878 755.891 661.875C756.085 661.812 756.724 661.602 756.984 662.041C756.585 662.321 756.162 662.554 755.712 662.738C756.56 663.663 756.571 662.089 757.262 662.438C756.954 663.359 757.547 663.305 757.26 663.993C757.067 664.056 756.746 663.376 756.35 663.628C756.764 663.868 757.125 664.176 757.435 664.554C757.743 664.93 757.978 665.352 758.138 665.816C758.201 665.255 758.468 664.556 759.115 664.623C760.714 664.972 759.405 665.907 760.285 666.63C760.811 666.074 761.778 666.963 762 665.528C762.465 665.638 762.488 666.31 762.642 666.731C763.584 666.284 766.685 666.942 765.76 665.326L765.539 665.206L765.687 665.158C766.337 664.902 767.013 664.756 767.714 664.72C768.412 664.683 769.105 664.76 769.79 664.948C771.171 665.327 772.538 665.322 773.89 664.93L774.04 665.389C775.435 664.615 777.431 664.416 778.237 663.106C778.729 662.945 779.335 663.739 779.322 664.355C779.979 663.791 780.2 663.16 781.243 663.726C780.45 664.875 781.405 664.474 780.496 664.615C780.926 664.719 781.118 664.954 781.337 664.968C781.557 664.984 781.799 664.816 782.51 663.817C781.78 665.365 782.324 665.517 782.872 664.92C782.903 664.614 782.895 664.308 782.85 664.001C783.176 663.753 783.542 663.633 783.952 663.64L783.268 664.721L782.593 665.831L782.634 665.956C782.182 667.345 782.877 666.697 783.491 666.81C784.106 666.925 784.695 667.568 783.307 668.616C784.424 668.652 783.887 667.518 785.14 667.265C785.081 667.603 784.962 667.913 784.784 668.193C784.604 668.477 784.38 668.709 784.108 668.894C783.823 669.096 783.601 669.354 783.439 669.672C783.264 669.94 783.165 670.146 783.187 670.261C782.704 672.461 785.795 671.78 785.616 674.003C785.717 673.917 785.827 673.844 785.944 673.784C786.062 673.725 786.185 673.678 786.312 673.647C786.441 673.615 786.57 673.597 786.703 673.596C786.835 673.594 786.967 673.606 787.097 673.634C787.228 673.661 787.354 673.703 787.477 673.761C787.601 673.816 787.717 673.886 787.826 673.966C787.934 674.049 788.034 674.143 788.125 674.248C788.216 674.351 788.296 674.463 788.363 674.586C788.455 676.074 786.441 676.821 785.804 675.983C785.69 675.635 785.821 675.435 786.012 675.41C785.717 674.964 785.362 674.382 784.881 675.081L785.471 675.167C785.057 676.018 785.539 678.043 784.534 677.744C785.297 678.767 785.539 678.043 785.643 677.152C785.249 679.219 786.255 680.127 786.165 682.217C786.405 681.842 786.978 681.427 787.046 681.736C787.021 684.729 788.359 682.773 789.033 684.576C788.925 684.796 788.774 684.972 788.577 685.106C788.379 685.239 788.162 685.312 787.924 685.322C787.776 685.371 787.671 685.405 787.688 685.557C787.709 685.672 787.745 685.783 787.797 685.888L788.142 686.542C788.016 688.417 786.783 687.424 786.192 686.675C786.561 687.283 786.835 687.931 787.013 688.62C787.19 689.31 787.265 690.008 787.236 690.715C787.156 691.975 787.202 693.233 787.368 694.492C787.022 694.091 786.724 693.652 786.476 693.179C786.88 693.942 787.246 694.723 787.575 695.525C787.748 694.945 787.939 694.376 788.128 693.843C788.293 694.801 788.555 695.447 788.221 695.889C788.677 696.019 788.948 695.44 789.307 694.974C789.664 694.508 790.078 694.112 790.755 694.361C790.742 695.83 792.351 696.316 791.73 698.091C791.063 696.563 790.919 696.977 790.687 697.576C790.455 698.176 790.345 698.648 789.836 698.203C790.114 698.626 790.344 699.075 790.527 699.55C790.499 699.82 790.288 699.783 790.108 699.687C790.759 701.672 791.221 701.521 791.714 701.165C791.78 701.091 791.852 701.026 791.933 700.967C792.013 700.911 792.098 700.864 792.188 700.827C792.278 700.789 792.372 700.762 792.469 700.747C792.564 700.732 792.663 700.726 792.76 700.735C792.859 700.741 792.955 700.759 793.05 700.789C793.146 700.817 793.236 700.856 793.324 700.907C793.412 700.958 793.494 701.017 793.569 701.084C793.646 701.153 793.713 701.228 793.774 701.313C793.203 701.987 793.769 703.513 794.263 703.559C793.26 702.86 794.252 701.713 795.197 701.632C796.552 703.299 796.986 702.057 797.768 702.533C797.445 702.327 797.14 702.094 796.848 701.841C797.274 701.073 797.996 701.62 799.17 701.429C799.274 702.146 798.114 701.775 798.52 702.113C799.185 701.475 799.908 701.866 800.717 702.126C801.527 702.384 802.51 702.568 802.991 701.519C803.757 701.689 803.465 703.267 804.148 703.288C804.772 702.072 805.195 702.002 805.753 701.942C806.308 701.882 806.884 701.571 807.424 700.103C806.882 699.757 806.657 699.673 806.603 699.359C806.613 698.607 806.659 697.859 806.742 697.114C806.527 697.843 806.258 698.55 805.935 699.229C805.65 699.938 805.325 700.626 804.963 701.293C805.244 700.032 805.435 698.754 805.536 697.458C805.236 698.022 804.995 698.613 804.814 699.231C804.601 699.841 804.373 700.299 804.144 700.409C804.447 698.566 804.421 698.939 803.825 698.227C804.514 698.717 804.821 697.744 804.994 696.763C805.093 696.259 805.177 695.761 805.302 695.336C805.334 695.134 805.413 694.955 805.533 694.798C805.653 694.642 805.804 694.525 805.984 694.448L807.805 697.343C808.992 696.483 809.347 694.498 809.57 692.663C809.643 692.186 809.697 691.697 809.751 691.208L812.647 694.359L810.71 687.49L810.194 685.913C810.235 685.746 810.245 685.574 810.222 685.398C811.094 685.793 811.587 685.336 812.246 685.136C811.887 685.044 812.099 684.434 812.096 683.772L812.171 683.747L812.114 683.574C812.116 683.421 812.093 683.269 812.05 683.12C812.005 682.971 811.941 682.833 811.856 682.704C811.771 682.575 811.669 682.463 811.55 682.366C811.434 682.269 811.305 682.193 811.165 682.139L812.68 681.225C813.735 679.013 810.713 677.837 811.456 675.727C812.317 676.648 813.13 675.806 813.577 677.475C813.743 676.723 814.044 676.082 813.415 675.923C814.083 675.598 812.63 673.527 813.541 673.036C813.182 672.648 812.256 672.339 812.448 671.51C812.609 671.494 812.762 671.525 812.907 671.604C812.448 671.51 812.442 670.186 811.342 670.703C812.955 669.842 813.106 668.187 813.168 666.615C813.162 665.838 813.229 665.071 813.369 664.313C813.431 663.967 813.558 663.652 813.752 663.368C813.957 663.185 814.192 663.067 814.46 663.013C814.085 661.943 814.003 660.858 814.218 659.76C814.45 660.067 814.632 660.167 814.488 660.23C815.11 660.114 814.688 659.432 814.329 658.536C813.97 657.642 813.766 656.82 815.001 657.166C816.616 658.678 814.684 658.212 815.517 658.741C816.598 660.377 816.74 660.208 817.045 659.986C817.352 659.763 817.8 659.321 818.241 660.361L818.113 660.525C818.217 660.84 818.351 660.902 818.525 660.88C818.761 660.811 818.979 660.705 819.179 660.56L819.575 660.308C819.788 660.223 820.008 660.151 820.23 660.093C820.704 659.995 821.177 660.003 821.654 660.116C821.582 660.272 821.561 660.436 821.586 660.609C823.094 659.173 825.578 658.952 827.436 658.692C826.827 659.903 826.577 659.288 826.881 660.62C827.717 660.503 826.739 658.572 828.39 658.38C828.892 659.105 830.065 659.769 830.23 661.128L828.586 661.142C829.379 662.959 830.644 661.184 831.475 661.505L831.364 662.274C832.311 662.184 833.126 661.801 833.806 661.125C834.11 660.846 834.449 660.619 834.82 660.444C835.436 660.232 836.074 660.129 836.729 660.132L836.279 659.564C836.925 658.567 837.242 658.83 837.767 659.076C838.294 659.324 838.787 659.719 839.281 658.966C839.761 659.576 840.272 660.175 840.816 660.782C841.534 660.345 842.222 659.865 842.881 659.338C843.552 658.782 844.266 658.297 845.026 657.885C845.486 659.288 843.661 660.358 842.447 661.384C843.349 661.274 844.229 661.077 845.091 660.797C845.969 660.509 846.597 660.058 846.357 659.631C846.07 659.864 845.898 660.392 845.134 660.224C845.173 659.487 845.402 658.831 845.824 658.252C846.384 657.715 847.042 657.373 847.793 657.223C848.619 657.809 849.523 658.135 850.505 658.201C851.274 658.191 852.006 658.027 852.701 657.709C854.148 656.942 855.682 656.439 857.301 656.202C857.491 655.373 857.742 654.569 858.06 653.789C858.387 652.831 858.558 651.839 858.569 650.812C858.575 649.947 858.435 649.101 858.152 648.278C857.905 647.541 857.51 646.904 856.963 646.365C854.104 647.702 856.182 645.642 852.306 646.443C851.36 646.018 851.098 645.825 851.313 645.72L851.354 645.847L851.386 645.696C851.469 644.896 851.403 644.104 851.184 643.318C851.572 642.441 853.056 643.596 853.853 643.264C852.899 642.461 852.95 642.164 853.294 641.86C853.64 641.555 854.179 641.291 853.594 640.558C852.711 641.335 850.683 640.935 849.292 639.908C849.653 640.514 849.964 641.144 850.225 641.801C847.307 641.396 847.223 640.69 846.831 639.841C846.437 638.993 845.907 638.084 843.15 637.768C843.806 637.71 844.499 637.656 845.215 637.631C843.832 637.334 841.625 636.383 839.4 635.68C838.791 635.471 838.175 635.41 837.55 635.499C836.924 635.587 836.354 635.815 835.838 636.184C835.704 635.773 835.723 634.877 836.342 634.901C835.568 634.512 834.762 634.248 833.922 634.107L832.589 633.915L831.921 633.837C831.681 633.811 831.457 633.781 831.423 633.826C830.723 634.056 829.671 633.964 830.024 633.132L830.698 632.72C830.489 632.788 829.61 633.076 829.663 632.832C829.698 632.737 829.756 632.661 829.835 632.601C830.133 632.503 830.563 632.362 830.578 632.253C830.334 632.292 830.088 632.285 829.845 632.23C829.605 632.152 829.458 631.957 829.7 631.79C829.969 631.827 830.237 631.845 830.508 631.84C830.76 631.6 830.772 631.49 830.642 631.341C830.56 631.239 830.47 631.146 830.37 631.065C830.37 631.065 830.287 630.813 830.235 630.654L830.075 630.166C829.475 628.904 829.097 627.58 828.937 626.192C830.975 626.626 832.054 624.229 832.588 623.042L832.868 623.142C833.681 619.386 832.142 616.4 831.907 612.811C832.227 612.598 832.503 612.333 832.733 612.016C832.854 611.854 832.962 611.686 833.061 611.509C833.196 611.216 833.306 610.913 833.39 610.598C833.857 609.019 834.231 607.411 834.515 605.778C835.099 602.048 835.925 598.385 836.996 594.791C836.41 596.117 835.116 596.192 835.018 595.439C835.797 593.44 833.653 594.142 835.916 591.794L835.846 592.236C838.095 589.038 837.655 587.14 837.833 585.215L834.978 588.733C835.749 587.257 836.283 585.682 836.581 584.016C836.878 582.348 836.926 580.664 836.724 578.964C836.481 578.676 836.216 578.973 836.059 579.094L836.069 579.125ZM798.22 607.567C798.671 607.837 798.571 608.133 798.399 608.362C798.199 608.145 797.98 607.949 797.746 607.775L797.582 607.829C797.775 607.694 797.984 607.597 798.209 607.535L798.22 607.567ZM754.215 651.428L754.141 651.452L750.178 655.91L749.961 656.155C749.26 656.177 748.654 656.043 748.866 655.38L749.797 655.354C748.921 654.943 747.255 654.441 746.999 653.758C748.949 653.572 748.471 654.375 750.21 654.452C749.345 653.968 748.452 653.557 747.531 653.216C746.469 652.744 745.675 652.081 746.608 651.914C747.502 652.425 747.827 652.963 748.729 653.348C749.277 653.265 749.798 653.094 750.291 652.836C750.441 652.787 750.208 652.584 750.341 652.383L750.773 652.346L751.816 652.355L751.048 652.327L752.537 652.292L751.58 652.188C750.953 652.026 750.373 651.751 749.84 651.361C749.497 650.967 750.129 650.829 750.614 650.654C751.1 650.476 751.476 650.215 751.177 649.405C751.503 650.398 751.948 650.547 752.299 650.661C752.855 650.738 753.379 650.927 753.869 651.227L754.378 651.322L754.215 651.428ZM764.179 660.049C764.032 660.017 763.888 659.977 763.744 659.928C763.352 660.546 762.686 660.275 762.999 661.378C762.699 660.934 762.347 660.543 761.938 660.206C762.582 660.105 763.192 659.905 763.77 659.606C764.407 659.642 764.38 659.807 764.168 660.016L764.179 660.049ZM795.82 687.934C796.168 687.49 796.358 687.462 796.765 686.996L796.775 687.728C796.359 688.072 795.981 688.528 795.809 687.903L795.82 687.934ZM796.772 688.373L796.776 688.792L796.572 689.224C796.568 688.911 796.63 688.617 796.762 688.342L796.772 688.373ZM795.247 686.639C795.515 686.551 795.795 686.199 795.858 686.439C795.683 685.903 794.962 685.617 794.295 684.944C793.578 684.039 793.174 683.006 793.085 681.851C793.661 682.5 794.197 682.883 794.384 682.594C794.336 681.946 794.633 680.89 795.428 680.75L795.998 682.187L796.801 682.222L796.847 687.041C795.976 687.604 795.105 687.716 795.236 686.608L795.247 686.639ZM789.305 669.51C789.8 669.157 791.227 669.389 791.582 669.166C791.768 669.733 791.96 670.317 792.145 670.885L792.011 670.929L792.429 671.803C792.856 673.159 793.127 674.54 793.246 675.952L793.082 676.005L792.916 675.85L792.239 673.785L791.878 675.352C790.709 674.148 789.722 675.919 789.791 674.012C790.033 674.351 789.526 672.651 790.417 671.747C789.763 671.159 789.037 670.506 789.295 669.479L789.305 669.51ZM789.39 661.821C789.278 661.939 789.176 662.065 789.086 662.2C788.766 662.585 788.51 662.913 788.511 662.109C788.791 661.96 789.086 661.854 789.395 661.785L789.39 661.821ZM788.558 661.396C788.542 661.355 788.529 661.314 788.517 661.271C788.553 661.382 788.677 661.306 788.776 661.309C788.707 661.351 788.63 661.371 788.547 661.365L788.558 661.396ZM789.141 663.63C789.209 663.837 789.27 664.025 789.442 664.197C789.299 664.183 789.152 664.177 789.009 664.182C789.041 663.926 789.088 663.77 789.131 663.599L789.141 663.63ZM789.656 664.649C790.371 666.112 791.009 667.606 791.572 669.135C790.807 668.914 790.571 668.241 790.243 667.041C789.915 665.839 789.624 664.851 788.822 664.765C789.114 664.804 789.388 664.755 789.646 664.617L789.656 664.649ZM792.789 676.118L792.183 676.231C792.1 675.96 792.087 675.691 792.147 675.42L792.743 675.976L792.789 676.118ZM789.326 663.135C789.455 662.92 789.624 662.748 789.833 662.62C789.807 662.753 789.747 662.863 789.653 662.953C789.556 663.042 789.445 663.092 789.315 663.102L789.326 663.135ZM789.004 660.744C789.014 660.808 789.006 660.868 788.981 660.927L789.004 660.744ZM787.393 656.228C787.402 656.351 787.403 656.471 787.397 656.594C786.842 656.863 786.262 657.053 785.654 657.165C786.155 656.984 786.625 656.749 787.072 656.455C787.179 656.376 787.283 656.288 787.383 656.197L787.393 656.228ZM764.687 641.73C764.856 641.773 764.993 641.869 765.096 642.017C764.789 642.548 764.375 642.963 763.853 643.26C764.059 642.705 764.338 642.196 764.687 641.73ZM767.203 661.483L767.477 660.904L768.595 660.695L769.972 660.419C769.081 660.829 768.168 661.181 767.234 661.473L767.203 661.483ZM774.668 660.467L776.617 660.177C776.748 661.776 775.72 660.908 774.698 660.459L774.668 660.467ZM776.793 651.707C776.996 651.52 776.995 651.415 777.17 651.445C776.605 651.281 776.067 651.807 775.251 652.231C774.879 652.516 774.468 652.722 774.02 652.853C773.572 652.981 773.113 653.023 772.644 652.981C773.086 652.016 774.624 652.333 774.47 651.963C775.773 650.908 775.346 651.013 774.481 651.243C773.619 651.475 772.122 651.79 773.146 651.14L773.652 650.974C774.286 650.54 773.083 650.9 771.393 651.227C770.842 651.407 770.21 651.439 769.688 651.506C769.454 651.542 769.219 651.56 768.981 651.563C768.848 651.606 768.49 651.62 768.762 651.443C768.762 651.443 769.356 651.248 769.877 651.077C766.58 651.476 767.339 649.622 768.147 648.258C769.78 648.718 768.676 648.819 771.079 648.607C771.157 648.39 770.27 648.401 769.358 648.385C768.446 648.37 767.653 648.212 768.159 647.54C769.826 646.968 771.543 646.807 773.308 647.056L772.524 647.785C774.054 647.771 774.133 647.659 774.188 647.378C774.244 647.098 773.981 646.748 774.424 646.638L775.235 647.053C775.454 646.785 775.529 646.477 775.46 646.125L776.855 646.312L776.112 646.207L776.716 646.288L779.465 646.679C778.447 646.541 779.008 646.637 780.274 646.832L780.314 647.255L780.382 647.462C780.382 647.462 780.307 647.486 780.418 647.57L780.962 647.724L783.145 648.3L783.691 648.454L783.91 648.521C783.903 648.735 783.856 648.938 783.763 649.128C783.561 649.5 783.285 649.8 782.937 650.027C782.622 650.252 782.277 650.41 781.901 650.496C781.525 650.585 781.146 650.595 780.761 650.532C779.488 651.055 778.176 651.444 776.823 651.699L776.793 651.707ZM797.084 693.001C796.541 693.858 795.848 694.261 795.651 694.813C795.929 694.301 796.116 693.751 796.207 693.164C796.296 692.576 796.289 691.987 796.179 691.394C796.123 690.568 796.296 689.808 796.7 689.113L796.723 691.898L797.785 689.803L798.034 689.461C798.058 690.742 797.753 691.919 797.114 692.991L797.084 693.001ZM800.942 686.815C801.164 687.738 801.116 688.8 800.685 689.098C800.395 688.967 800.259 687.492 800.008 687.033C800.081 688.056 799.823 688.577 799.443 688.824C798.862 689.038 798.372 689.387 797.969 689.865C798.027 689.524 798.13 689.201 798.278 688.891L800.185 684.952C800.542 685.528 800.806 686.146 800.972 686.805L800.942 686.815ZM801.641 684.318L801.595 684.977C801.596 685.097 801.607 685.216 801.628 685.333C801.66 685.541 801.68 685.751 801.685 685.959C801.708 686.435 801.697 686.91 801.657 687.382C800.848 686.374 800.908 686.057 800.965 685.724C801.021 685.394 800.973 685.146 800.231 684.745L801.336 682.48L801.695 682.868C801.706 683.354 801.69 683.812 801.716 684.293L801.641 684.318ZM781.874 606.081C781.874 606.081 782.024 606.136 781.358 604.505C782.42 606.339 783.218 609.027 782.684 607.091C782.849 607.594 783.045 608.192 783.2 608.666L782.705 608.916L782.674 608.822L782.699 608.899C781.957 607.643 781.814 606.852 780.893 605.303C781.668 606.269 782.31 607.322 782.818 608.461C781.979 606.502 781.879 606.149 781.904 606.072L781.874 606.081ZM782.418 609.201L781.883 609.377C781.749 609.021 781.574 608.689 781.357 608.38C781.524 608.587 781.872 608.944 781.763 608.91C781.946 608.869 782.187 608.998 782.448 609.192L782.418 609.201ZM782.594 609.737L781.997 609.933L782.624 609.831L782.594 609.737ZM779.847 604.424C780.596 605.297 781.217 606.256 781.713 607.303C782.04 607.895 782.375 608.465 782.801 609.111L782.517 609.204C781.41 607.741 780.549 606.138 779.936 604.395L779.847 604.424ZM781.728 604.175C781.477 602.354 782.618 606.343 783.368 608.68C782.11 604.992 782.374 605.744 781.838 604.209L781.728 604.175ZM784.919 609.289L783.557 609.509L784.914 609.273L784.919 609.289ZM784.773 605.166C784.796 605.56 784.798 605.956 784.781 606.351L784.817 606.863L784.789 607.378C784.762 607.648 784.724 607.887 784.687 608.126L784.049 608.441L783.974 608.465C783.958 608.423 783.944 608.381 783.932 608.338C783.959 608.015 784.03 607.784 784.148 608.39C784.27 606.955 784.174 606.009 784.332 604.629C784.643 604.215 784.826 604.627 784.882 605.2L784.773 605.166ZM782.408 597.949C783.121 602.287 782.267 598.728 782.731 601.805C782.78 601.299 782.871 600.804 783.003 600.318C783.144 599.942 783.387 599.931 783.59 600.754C783.834 604.164 782.946 600.6 783.536 604.262L783.019 602.182C783.961 608.573 782.791 601.487 783.757 608.204L783.783 608.283L783.708 608.308C783.718 608.363 783.735 608.415 783.76 608.466L783.432 608.573C782.914 606.71 782.51 604.823 782.22 602.914C782.484 603.717 782.572 603.986 782.75 605.131C782.566 604.215 782.458 603.587 782.413 603.147C782.367 602.709 782.419 602.866 782.469 602.867C782.52 602.867 782.677 603.201 782.635 602.464C782.62 602.172 782.59 601.728 782.528 601.086L782.741 602.289C782.28 599.474 781.96 597.537 781.691 595.914C781.9 596.3 781.8 594.134 782.284 597.117C782.149 596.706 782.256 597.84 782.311 598.609C782.399 598.475 782.416 598.226 782.458 598.002L782.408 597.949ZM786.013 606.889C786.222 606.821 786.356 606.777 786.409 607.092L786.013 606.889ZM803.27 644.708L803.164 644.639L803.357 644.575L803.27 644.708ZM806.744 653.097C806.688 652.924 806.631 652.751 806.574 652.578L807.011 652.557C806.951 652.76 806.879 652.959 806.795 653.152L806.744 653.097ZM814.237 644.064C813.995 645.189 813.576 646.024 812.485 645.615C812.89 646.145 813.206 645.903 813.457 645.715C813.71 645.528 813.888 645.469 813.872 646.574C812.651 646.223 812.581 646.664 812.492 647.393C812.4 648.121 812.159 649.246 811.166 649.136C810.795 647.652 811.953 647.464 810.373 647.319C810.464 647.554 810.505 647.796 810.496 648.047C810.434 648.765 809.713 648.826 809.049 648.66C808.384 648.495 807.82 648.033 807.433 648.16C807.48 649.105 806.839 649.262 806.053 648.979L805.498 648.794L805.542 647.821C805.494 647.173 804.982 646.764 804.428 646.336C804.229 645.722 804.069 645.099 803.949 644.467L804.307 644.35C803.837 643.876 803.334 643.396 802.836 642.931L803.25 642.585C803.142 642.594 803.043 642.626 802.952 642.683L802.758 642.746C802.652 642.657 802.549 642.562 802.451 642.463C802.919 642.188 803.369 641.883 803.8 641.55C803.867 641.755 803.542 642.122 803.233 642.434C803.941 642.079 805.057 642.062 804.607 641.145L803.991 641.679C803.778 641.576 803.634 641.407 803.561 641.174L803.832 640.893L803.672 640.405C803.916 639.782 804.231 639.208 804.624 638.679L805.487 639.198C805.343 638.758 805.276 638.309 805.193 637.847C806.337 638.754 807.599 639.4 808.975 639.783C809.022 639.925 808.964 640.101 808.931 640.303C809.056 640.187 809.167 640.057 809.266 639.916C809.794 640.112 810.266 640.412 810.681 640.813C810.098 640.794 809.51 640.76 808.906 640.679C810.141 641.298 811.411 641.82 812.715 642.241L812.11 641.705C812.563 641.679 813.068 641.811 812.658 643.376C812.876 642.833 813.083 642.259 813.286 641.669C813.675 641.974 814.104 642.163 814.577 642.241C814.547 642.95 814.409 643.589 814.287 644.117L814.237 644.064ZM813.312 641.748L813.592 640.942C812.988 641.314 812.211 641.76 812.312 640.505C812.084 640.81 811.873 641.128 811.685 641.461L810.904 640.793C813.212 640.838 811.562 638.623 813.861 640.154C813.653 640.222 813.902 640.282 814.365 640.532C814.651 640.671 814.93 640.83 815.197 641.01C814.929 641.371 814.731 641.774 814.602 642.217C814.207 642.013 813.794 641.876 813.362 641.803L813.312 641.748ZM813.475 636.809C813.578 637.124 813.452 637.392 813.346 637.724C813.152 637.543 813 637.332 812.889 637.089L813.475 636.809ZM810.793 629.433L810.697 628.086C810.835 628.293 810.916 628.524 810.944 628.772C810.969 629.021 810.935 629.258 810.844 629.486L810.793 629.433ZM814.104 637.074L815.034 637.798L813.858 638.183C813.733 638.104 813.638 638.012 813.526 637.926C813.712 637.621 813.913 637.328 814.13 637.047L814.104 637.074ZM823.89 650.586C822.813 650.416 821.74 650.209 820.667 650.106C819.596 650.004 818.931 649.838 817.998 649.811C817.82 649.87 817.57 649.813 817.337 649.802C817.648 649.09 817.727 648.342 817.575 647.56C817.789 647.612 818.001 647.053 818.197 646.744C818.394 646.437 818.663 646.157 819.166 646.532C819.361 644.357 818.288 646.82 817.749 646.385C817.687 645.605 817.735 644.837 817.895 644.079C818.054 643.321 818.318 642.61 818.684 641.944C819.139 641.988 819.567 642.134 819.965 642.379C820.187 643.056 819.335 644.331 819.504 644.747C820.376 643.833 822.261 644.453 823.77 644.43C824.184 644.59 824.52 644.709 824.855 644.878C824.811 645.039 824.799 645.207 824.822 645.377L825.112 645.055C825.714 645.513 826.215 646.071 826.615 646.727C824.837 646.332 826.667 647.687 824.89 646.139C825.627 646.981 826.01 647.641 826.518 648.138C827.015 648.566 827.57 648.88 828.181 649.079C828.793 649.279 829.414 649.347 830.042 649.286C829.552 649.55 829.597 649.937 830.029 650.301C828.029 650.924 825.992 651.01 823.915 650.561L823.89 650.586ZM816.63 628.777C816.495 628.442 816.383 628.101 816.294 627.753C816.964 626.73 817.865 628.423 817.962 628.62L816.63 628.777ZM818.463 632.364L818.515 632.522C818.508 632.478 818.494 632.435 818.474 632.395L818.463 632.364ZM817.786 623.86C818.219 624.173 818.528 623.808 819.006 623.252C818.762 621.953 817.227 622.299 817.743 620.959C818.406 621.211 819.053 621.505 819.681 621.843C819.374 621.353 819.043 620.88 818.689 620.423C818.507 620.168 818.299 619.887 818.115 619.58L817.832 619.116C817.832 619.116 817.77 618.927 817.754 618.879L817.837 618.729L817.91 618.601C818.06 618.609 818.199 618.656 818.327 618.742C818.456 618.828 818.556 618.94 818.628 619.082C818.661 619.153 818.685 619.227 818.7 619.303L818.958 619.584C819.119 619.77 819.297 619.94 819.487 620.092L819.296 619.508L819.365 619.365C819.491 619.171 819.594 618.961 819.67 618.741L819.617 619.333C820.911 619.66 820.469 620.572 821.411 621.538C820.368 623.334 819.604 625.261 819.117 627.315C819.355 628.041 819.527 628.264 819.787 628.352L818.056 628.554C818.331 627.795 818.448 627.004 818.405 626.184C818.364 625.363 818.165 624.58 817.811 623.835L817.786 623.86ZM829.594 651.788L830.226 650.447C830.398 650.56 830.579 650.66 830.766 650.741C831.124 650.867 831.489 650.957 831.86 651.011C831.505 652.035 831.136 652.976 829.619 651.764L829.594 651.788ZM832.21 650.164L831.739 649.986L832.317 649.988C832.283 650.034 832.255 650.084 832.234 650.138L832.21 650.164ZM834.831 649.409C835.582 649.043 836.184 648.497 836.636 647.772C836.797 647.792 836.927 647.872 837.026 648.009C837.208 648.263 837.021 648.447 838.561 648.363C835.85 649.251 835.849 649.094 836.658 649.247C837.038 649.298 837.552 649.46 837.545 649.638C837.535 649.814 836.963 649.932 835.531 649.686L837.604 650.071C839.443 650.656 836.312 649.954 835.878 649.835C837.396 650.245 837.76 650.196 838.76 650.531C839.293 651.403 837.364 651.302 836.068 650.923C835.697 650.822 835.346 650.67 835.014 650.467C835.181 650.394 835.338 650.302 835.483 650.191C835.244 650.269 835.051 650.333 834.827 650.406C834.604 650.479 834.623 650.281 834.551 650.217C834.405 650.094 834.285 649.947 834.192 649.776C834.405 649.669 834.606 649.546 834.797 649.404L834.831 649.409ZM823.957 601.734C823.301 603.101 822.451 604.636 821.899 605.515C822.325 604.895 822.83 604.357 823.414 603.9C822.639 604.958 822.412 605.171 821.922 605.838C823.832 603.468 819.893 608.754 821.641 606.541C822.077 605.909 822.799 605.044 823.128 604.588C822.021 606.241 821.924 606.553 822.156 606.652L822.182 606.731L821.091 607.733C820.911 608.037 821.031 608.051 821.231 608.159C821.322 608.235 821.386 608.33 821.423 608.445C821.46 608.559 821.465 608.673 821.437 608.789C821.958 608.618 823.779 608.284 823.859 608.78C823.337 608.848 822.804 608.883 822.252 608.907C823.171 609.198 822.899 608.52 823.968 609.112C823.764 609.546 822.971 609.439 822.34 609.174C822.256 608.961 822.116 608.805 821.92 608.702C821.716 608.926 821.532 609.166 821.366 609.424C821.221 609.331 821.068 609.252 820.911 609.19C821.771 609.954 819.02 611.274 820.524 612.439L820.056 612.419L819.995 612.839L820.031 612.95C819.88 614.086 819.799 615.229 819.787 616.381C819.49 616.478 819.233 616.754 818.967 616.894C819.152 616.877 819.298 616.951 819.403 617.117C819.579 617.385 819.676 617.68 819.692 618.001C819.735 618.738 819.463 618.808 818.989 618.825C818.543 618.806 818.107 618.729 817.675 618.591C817.827 618.359 817.962 618.117 818.082 617.866C817.737 617.752 817.389 617.716 817.034 617.752C816.679 617.789 816.349 617.899 816.041 618.08L815.788 618.162C815.788 618.162 815.85 618.352 815.881 618.446C815.943 618.683 816.019 618.913 816.109 619.141C816.269 619.629 816.582 620.085 816.827 620.527C817.071 620.971 817.305 621.382 817.474 621.747C817.664 622.156 817.773 622.587 817.798 623.036L815.737 622.228C816.373 622.962 816.979 623.706 817.58 624.486C817.113 625.022 816.031 625.395 815.67 624.292C814.812 625.952 816.484 625.771 815.449 627.141C815.281 627.281 815.182 627.228 815.101 627.079C815.276 627.615 815.525 628.127 815.72 628.622C815.289 628.309 814.328 628.85 814.591 627.893C814.456 628.247 814.375 628.618 814.345 629.002L813.987 629.119C813.025 629.234 812.112 629.046 811.246 628.552C811.447 628.311 811.289 627.876 811.912 628.071C811.505 627.97 811.094 627.888 810.679 627.83L810.611 627.068C810.464 627.048 810.365 626.965 810.314 626.816C810.262 626.982 810.249 627.153 810.278 627.33C810.307 627.506 810.373 627.666 810.476 627.809C808.49 627.587 806.596 627.893 804.62 627.599L803.407 627.421L804.668 626.239C804.993 625.016 805.275 623.86 805.505 622.754C805.801 622.396 806.318 622.767 806.101 623.519C807.686 622.319 805.745 622.433 806.163 620.986C806.809 619.989 807.517 620.542 807.26 621.62C807.702 620.551 808.166 619.353 808.795 618.151C809.423 616.95 810.105 615.611 810.323 615.068C810.616 614.372 811.026 613.767 811.553 613.249C812.08 612.732 812.684 612.342 813.367 612.08L813.389 612.701C814.941 611.756 812.476 609.161 814.529 608.837L814.514 609.244C815.241 608.61 815.917 607.923 816.543 607.182L817.433 606.176C817.57 605.995 817.717 605.824 817.875 605.664C818.475 605.031 819.277 604.558 819.714 605.69C819.672 604.256 820.001 604.252 820.24 604.227C820.478 604.201 820.686 604.08 821.139 601.541C821.313 602.312 821.334 603.085 821.207 603.857C821.119 604.548 821.096 605.133 820.982 605.937C820.955 606.156 822.614 601.913 823.33 600.98L821.886 604.368C822.479 603.109 823.17 601.8 823.902 600.46C823.32 601.804 822.704 603.193 821.958 604.587L822.643 603.508C822.984 602.628 823.373 601.772 823.814 600.944C824.146 600.45 824.344 600.299 824.375 600.393C824.405 600.487 824.283 601.068 823.981 601.707L823.957 601.734ZM789.516 698.534C789.408 698.376 789.282 698.238 789.133 698.119C789.251 698.256 789.385 698.375 789.53 698.477L789.516 698.534ZM796.298 607.986C796.298 607.986 796.193 608.021 796.096 607.879C796.065 608.013 796.049 608.153 796.051 608.295L796.543 608.134L796.298 607.986ZM765.742 665.678C765.704 665.609 765.68 665.536 765.67 665.457C765.67 665.457 765.706 665.568 765.727 665.63L765.742 665.678ZM821.72 605.067L822.059 604.293L821.712 604.998L821.72 605.067ZM798.471 688.881C798.471 688.881 798.471 688.881 798.56 688.852C798.614 688.31 798.532 688.512 798.367 688.862L798.471 688.881ZM790.551 671.756C790.839 671.982 791.099 672.239 791.333 672.53C791.241 672.001 791.161 671.556 790.462 671.785L790.551 671.756ZM791.577 673.827C791.648 673.608 791.663 673.382 791.62 673.15C791.574 672.918 791.48 672.712 791.333 672.53C791.232 672.969 791.277 673.395 791.471 673.81L791.577 673.827ZM753.874 645.204C754.29 645.068 754.677 644.941 755.094 644.805L756.018 644.502C755.476 644.155 754.793 643.681 755.49 643.192C754.117 642.979 754.353 643.197 754.648 643.59C754.805 643.788 754.879 644.014 754.87 644.268C754.839 644.627 754.538 644.917 753.77 645.188L753.874 645.204ZM745.444 647.6C746.582 646.949 744.425 647.113 744.075 646.898C743.604 647.523 743.63 647.654 745.338 647.583L745.444 647.6ZM779.768 666.371C780.119 666.081 779.704 665.868 779.61 665.079L779.768 666.371ZM782.458 668.44L782.294 668.493C782.454 668.516 782.607 668.566 782.754 668.638L782.458 668.44ZM815.624 664.551L814.136 664.638C814.262 665.277 815.911 665.626 815.534 664.581L815.624 664.551ZM839.092 661.206C837.966 661.192 836.795 660.633 836.343 660.869C836.847 661.646 838.486 662.07 839.004 661.237L839.092 661.206ZM837.495 583.631L837.144 582.561L836.996 583.517C837.135 583.557 837.271 583.607 837.407 583.662L837.495 583.631ZM820.317 622.577C820.217 622.27 820.052 622.003 819.826 621.778C819.922 622.026 820.005 622.278 820.074 622.535L820.317 622.577ZM806.976 649.079C807.064 648.689 807.267 648.39 807.588 648.18C807.567 647.837 807.523 647.496 807.453 647.16C807.172 647.111 807.049 648.496 806.887 649.108L806.976 649.079ZM815.238 626.999L815.068 626.478C815.01 626.654 815.068 626.88 815.154 627.043L815.238 626.999ZM796.098 682.346L796.005 682.062L795.263 682.061L796.098 682.346ZM820.19 623.09C820.232 623.36 820.26 623.628 820.274 623.899C820.267 623.63 820.21 623.369 820.1 623.12L820.19 623.09ZM780.575 650.417L780.819 650.51L781.044 650.437L780.575 650.417ZM819.58 622.643C819.917 622.709 820.107 622.838 820.19 623.09C820.133 622.917 820.077 622.744 820.015 622.554C819.952 622.364 819.595 622.535 819.448 622.687L819.58 622.643ZM804.77 644.355L804.442 644.463L804.81 644.832L804.77 644.355ZM809.062 647.748C809.768 647.186 808.724 646.97 808.701 646.645C808.37 647.296 808.178 647.463 808.974 647.777L809.062 647.748ZM823.471 644.877L822.649 645.793C823.582 646.376 822.854 645.463 823.425 644.892L823.471 644.877ZM780.964 649.539C781.359 649.689 781.778 649.813 782.198 649.936C782.265 649.637 780.856 649.207 780.874 649.569L780.964 649.539Z" fill="#F84E72"/>
<defs>
<linearGradient id="paint0_linear_190_2130" x1="1647.97" y1="457.167" x2="547.61" y2="1396.31" gradientUnits="userSpaceOnUse">
<stop stop-color="#FFF5E0" stop-opacity="0.85"/>
<stop offset="1" stop-color="#FF6969"/>
</linearGradient>
</defs>
</svg>
