<svg width="709" height="1367" viewBox="0 0 709 1367" fill="none" xmlns="http://www.w3.org/2000/svg">
<mask id="mask0_190_2131" style="mask-type:luminance" maskUnits="userSpaceOnUse" x="-742" y="0" width="1451" height="1367">
<path d="M-115.566 0.63623L-742 546.431L81.8954 1366.47L708.329 820.678L-115.566 0.63623Z" fill="white"/>
</mask>
<g mask="url(#mask0_190_2131)">
<path d="M-427.559 850.852C-428.316 851.106 -426.239 856.605 -432.453 848.339C-436.903 841.723 -440.82 835.015 -444.242 828.221C-447.36 821.6 -449.947 815.015 -452.036 808.434C-454.082 802.065 -455.643 795.773 -456.74 789.577C-457.643 783.617 -458.162 777.761 -458.321 772.027C-458.624 760.704 -457.582 749.989 -455.202 739.921C-452.869 729.548 -449.57 719.772 -445.307 710.592C-446.213 711.319 -446.969 712.197 -447.513 713.264C-442.442 701.006 -435.753 689.994 -427.463 680.21C-419.565 671.174 -412.525 662.291 -406.319 653.886C-403.271 651.323 -395.105 642.96 -395.839 647.097C-398.711 651.036 -397.188 653.239 -395.762 654.057C-389.112 647.639 -388.177 645.481 -388.034 643.608C-387.88 641.724 -388.345 640.318 -383.926 636.031C-384.196 630.488 -391.099 640 -393.713 637.655L-379.766 626.191C-373.399 618.332 -364.822 612.608 -359.527 605.527C-362.111 608.466 -362.723 604.19 -366.318 609.789C-365.476 609.212 -365.764 609.869 -364.934 609.302C-374.763 619.333 -372.47 614.431 -380.583 620.938C-376.428 617.504 -371.828 613.591 -367.426 609.63C-362.403 605.066 -357.216 600.922 -353.615 597.129C-353.393 600.589 -346.497 592.27 -342.914 591.74L-342.587 591.143C-341.751 591.976 -336.088 588.541 -334.277 587.557L-334.58 583.48C-330.649 580.96 -334.42 585.527 -330.528 583.01C-329.093 582.166 -326.915 580.581 -324.332 578.798C-321.754 576.99 -318.771 574.984 -316.042 572.918C-310.572 568.777 -306.04 564.517 -306.5 562.794C-299.536 558.725 -296.288 558.956 -289.591 554.213C-290.718 553.884 -292.646 554.689 -293.193 554.51C-286.127 549.384 -277.168 544.92 -268.768 540.007C-260.201 535.26 -251.426 530.956 -244.509 526.304C-233.779 521.608 -222.29 518.032 -210.043 515.576C-213.799 516.662 -223.595 521.387 -216.016 520.374C-210.635 519.34 -205.497 517.892 -200.657 516.018C-202.949 515.11 -187.715 509.365 -199.396 512.577C-199.032 508.137 -174.656 505.014 -177.032 501.899C-173.874 501.74 -157.586 496.7 -150.311 496.608C-149.824 494.841 -159.87 498.159 -160.472 497.216L-152.634 495.54L-153.231 494.624C-148.448 492.736 -143.059 491.882 -137.119 492.047C-132.801 492.377 -128.682 492.317 -124.737 491.848L-125.293 491.551L-119.02 490.676L-127.582 489.766C-117.943 487.802 -111.386 489.397 -100.337 487.828L-99.726 486.828L-92.713 486.495C-93.8865 486.55 -94.4709 486.247 -93.8933 485.9C-86.3629 487.24 -72.718 484.159 -65.775 485.387C-61.6353 484.404 -59.6303 480.846 -52.727 482.077L-55.4806 479.229C-70.1464 480.951 -59.7015 482.126 -75.5758 483.245C-66.4514 477.638 -34.5253 473.839 -14.1025 470.599C-4.1513 469.675 5.36981 468 14.4714 465.63C19.189 464.643 23.3495 463.423 27.1478 462.893C29.9898 462.291 33.0726 462.228 36.3961 462.706L33.629 461.431L45.539 456.645L56.7682 451.202C61.6502 449.135 66.4108 446.861 70.9194 444.401L77.2713 440.366L80.3957 438.393C81.3754 437.696 82.2547 436.898 83.201 436.168C86.8231 433.168 90.6931 430.608 93.6034 427.479C96.7312 424.567 100.022 422.074 102.524 419.332L103.411 414.811C107.515 411.798 110.758 408.035 113.136 403.496C116.129 397.984 118.371 392.002 119.855 385.524C122.98 372.401 123.268 358.47 125.598 353.005C123.165 341.663 123.445 355.537 122.398 356.167C121.709 352.115 122.398 347.204 121.887 341.871C121.792 339.331 121.493 336.718 120.997 334.058C120.467 331.708 119.57 329.336 118.288 326.923C117.328 326.761 120.237 338.405 118.368 333.007C117.077 330.414 116.459 327.955 116.524 325.618C116.599 323.054 115.803 320.375 114.136 317.579C116.921 320.931 114.914 307.032 110.946 296.435C111.249 297.358 111.699 298.277 112.273 299.214C113.252 300.016 112.931 298.453 112.18 296.14C111.441 293.818 109.977 290.752 109.144 288.572C109.046 289.033 109.112 289.569 109.346 290.146C103.883 275.916 97.0021 261.798 88.6978 247.764C84.6088 240.52 79.7705 233.367 75.0126 226.144C69.8733 219.035 64.7581 211.842 58.993 204.903C47.6132 190.832 35.2483 177.431 21.9382 164.698C8.77771 152.178 -4.96122 140.412 -19.3068 129.393C-16.0515 132.397 -12.9341 135.521 -9.7864 138.525C-18.1792 130.815 -27.0711 123.852 -36.4389 117.616L-35.3044 118.595C-40.9142 115.456 -46.1797 111.673 -51.1289 107.24C-55.2365 103.324 -59.7333 100.37 -64.6024 98.3975L-62.3366 100.202C-81.0808 87.5502 -93.1509 83.1063 -111.564 71.0405C-126.596 63.6489 -125.208 65.7812 -135.694 61.456C-140.282 59.2696 -144.576 56.3896 -148.552 52.7959L-144.357 54.7627C-139.573 55.6223 -153.302 48.9696 -159.457 45.2443C-154.564 45.2905 -156.637 40.2886 -138.48 47.0811C-125.558 54.6244 -125.075 50.1739 -110.334 58.7558C-102.722 66.3967 -88.5963 68.7689 -76.1307 79.7394C-82.5392 73.3609 -59.9358 88.8035 -70.8108 79.3518C-64.7264 82.5771 -58.9186 86.4493 -53.3694 90.9217C-46.5939 96.2932 -39.6127 101.204 -32.4031 105.636C-33.8568 104.06 -33.2487 103.936 -35.5512 101.945C-21.8303 113.414 -25.104 107.99 -14.6051 116.145L-16.0881 117.5C-12.4238 121.147 -10.4436 120.952 -7.12335 124.149C-10.0238 121.992 -16.4775 118.12 -13.8021 121.255C-9.6023 125.435 -5.2699 129.468 -0.77666 133.361C-0.263939 132.821 -3.58415 129.623 -5.83876 127.465C-5.83876 127.465 -3.05846 129.696 -0.119312 131.914C1.95948 133.726 4.16764 135.238 6.52192 136.466C3.08833 132.555 -2.029 128.362 -4.86995 124.591C10.0727 136.183 -3.34705 125.013 4.74792 129.704C1.30051 129.896 16.7017 141.151 23.7767 148.729C25.2032 148.798 18.7026 143.593 17.2651 141.347C24.6399 145.728 31.0957 151.253 36.6443 157.912C42.9271 165.431 49.4961 172.763 56.3398 179.918C55.5017 178.462 54.5153 177.072 53.3126 175.747C56.7232 179.677 60.2831 183.478 64.0207 187.155C67.2267 190.046 69.8614 193.247 71.9195 196.732C75.7202 201.073 76.6702 201.182 78.0407 201.924C79.4228 202.657 81.3727 204.019 86.5684 211.141C83.8575 209.537 87.0446 213.631 90.6752 218.338C94.2097 223.036 97.8293 228.44 96.676 229.007C99.7027 232.492 102.695 236.006 105.482 239.637C107.792 244.746 106.201 244.32 105.526 245.064C104.704 245.811 105.271 247.598 110.354 257.161C121.145 274.463 114.187 254.821 121.431 264.969L121.999 269.502L127.527 278.178L126.994 276.831C129.165 282.123 133.59 291.76 134.592 291.792C134.934 290.932 132.397 285.147 132.728 284.297C133.732 287.42 135.088 290.549 136.749 293.661C138.688 297.499 140.641 301.951 142.689 306.413C144.689 310.698 146.275 315.001 147.432 319.24C148.608 322.619 148.91 325.729 148.361 328.549C150.515 333.888 153.093 344.603 154.225 343.585C154.041 348.055 154.635 352.785 155.968 357.714C157.044 363.117 157.46 368.313 157.212 373.277C157.997 372.686 159.283 379.499 158.692 384.293C157.807 377.193 156.98 381.131 155.739 385.085C156.151 389.848 156.107 394.415 155.613 398.812C154.98 403.736 154.325 408.274 155.444 410.203C153.933 414.081 152.472 414.729 151.487 414.713C150.473 414.69 149.592 413.834 148.369 414.119C148.23 416.146 147.944 418.113 147.489 419.976L146.708 423.53L145.58 426.825C144.164 431.056 143.299 434.527 145.377 434.278C146.186 432.168 147.531 428.81 148.794 426.335C150.056 423.861 150.863 421.94 151.608 423.54C150.856 428.131 149.875 428.548 149.3 429.048C147.781 429.81 146.732 430.974 146.129 432.561C146.907 432.477 145.815 438.081 147.252 437.517C145.324 441.195 141.877 445.698 139.07 450.861C142.999 442.44 133.826 453.961 135.826 448.596L142.795 443.181C143.857 441.943 144.621 440.496 145.106 438.855C145.295 438.035 145.106 437.825 144.795 437.752C144.163 437.616 143.067 438.134 143.604 436.073C141.975 439.148 139.909 441.853 137.363 444.165C135.919 445.58 134.341 446.861 132.646 448.026C128.129 450.649 123.923 453.626 119.991 456.896C118.009 459.748 115.769 462.386 113.3 464.818C117.738 461.451 119.271 464.457 117.215 466.935C115.031 467.87 113.086 469.065 111.369 470.53C109.649 471.841 108.082 473.112 106.677 474.524C104.17 476.896 102.104 479.664 99.3704 481.64C100.983 480.328 100.979 479.488 100.36 479.215C98.9369 478.957 97.6223 478.978 96.4448 479.285C80.6323 485.098 91.5233 483.136 86.0159 487.497C79.9866 489.752 74.803 492.269 69.7747 494.277C64.7024 496.198 60.1151 498.258 55.4837 499.888C50.8689 501.535 46.3136 503.006 41.5858 504.283C36.815 505.41 31.8768 506.371 26.4505 507.038L34.6528 502.422L39.3294 504.031C45.7528 500.496 34.6704 499.158 29.4625 498.542C28.9011 499.656 16.0697 501.81 21.8719 502.095L8.96352 503.379C10.203 502.018 18.411 500.988 12.0216 500.933C8.45607 502.509 -3.94033 505.096 4.83378 505.165C-1.67072 506.304 -10.4998 506.844 -9.81749 505.25C-20.4287 506.719 -7.03568 508.105 -1.77492 508.237C-10.0473 509.761 -7.8107 511.622 -4.9085 511.873L-16.7319 513.336C-13.8245 513.614 -13.2846 514.58 -10.4053 514.851C-17.5697 516.877 -24.5204 515.062 -29.9253 517.96L-33.9341 516.393C-53.9714 521.046 -51.7037 520.944 -70.6541 524.212L-68.3115 522.234C-84.0696 522.096 -77.3564 526.398 -96.8664 528.873C-107.785 530.422 -114.954 531.328 -115.059 528.671C-119.032 528.728 -122.105 530 -124.235 532.512C-132.819 532.245 -140.521 533.521 -147.341 536.34C-141.943 535.666 -137.618 535.146 -132.794 534.222C-132.615 536.909 -148.267 539.021 -154.716 542.703L-170.423 544.739C-176.967 545.881 -184.113 547.11 -189.354 547.834C-186.627 544.458 -190.123 542.351 -199.621 543.662C-197.397 544.503 -209.234 549.726 -213.904 553.077C-210.201 553.224 -223.483 561.641 -211.601 557.192C-208.82 555.05 -208.717 552.493 -203.66 551.179C-207.822 555.742 -212.553 559.739 -217.82 563.204C-214.211 563.151 -211.032 562.411 -208.251 561.019C-210.851 561.348 -209.952 560.377 -210.083 559.711C-195.04 555.255 -210.556 564.215 -207.187 564.995C-211.304 566.022 -218.531 570.194 -215.984 567.132C-220.256 573.946 -238.661 575.677 -243.546 582.651C-244.156 582.495 -240.838 579.042 -246.58 581.047C-250.4 582.563 -253.199 585.096 -254.982 588.617C-259.811 590.201 -264.167 592.341 -268.052 595.101C-273.588 597.332 -265.741 588.652 -273.74 591.499C-280.377 592.097 -284.604 598.248 -290.329 601.299C-295.169 607.203 -283.166 597.963 -279.92 596.884L-298.405 608.336C-300.365 610.824 -299.324 610.916 -297.194 609.841C-294.31 608.422 -291.65 606.76 -289.201 604.845C-295.087 610.973 -304.667 616.727 -308.385 616.5C-311.845 619.233 -315.048 622.243 -317.943 625.515C-313.283 623.141 -310.447 626.479 -303.846 622.134C-293.94 614.002 -309.764 622.698 -301.577 615.472L-299.115 616.7C-296.044 613.43 -292.293 610.881 -287.868 609.087C-285.989 607.012 -288.974 608.801 -290.777 609.623C-283.09 604.58 -278.284 599.113 -270.409 597.623C-279.199 606.094 -296.379 614.597 -298.45 620.149C-305.67 624.285 -312.885 628.448 -319.683 633.09C-320.503 632.274 -315.471 625.36 -321.851 628.701C-321.825 632.738 -326.521 638.142 -332.805 645.054C-332.658 640.397 -345.595 653.511 -344.116 648.443C-341.528 647.438 -340.142 645.45 -339.943 642.496C-346.578 648.715 -342.977 641.299 -346.685 644.685C-352.383 650.743 -351.905 650.983 -351.343 651.242C-350.781 651.502 -350.229 651.708 -355.281 658.109C-353.558 657.357 -350.724 655.825 -347.228 653.966C-343.715 652.123 -339.696 649.84 -335.983 647.167C-335.394 648.589 -342.567 653.309 -344.076 657.06C-341.535 652.191 -348.967 657.574 -346.368 654.028L-362.891 667.518C-368.767 672.263 -374.265 677.834 -379.677 683.706C-374.512 684.858 -359.871 665.356 -358.758 673.069C-364.411 678.4 -366.025 676.965 -369.764 681.971C-371.313 686.069 -373.623 689.581 -376.688 692.47C-380.01 696.52 -384.022 700.89 -387.21 705.136L-385.538 700.431C-389.326 704.231 -392.409 708.603 -394.77 713.565L-393.611 712.961C-394.664 714.035 -395.796 715.053 -396.772 716.184C-397.026 716.874 -396.979 717.114 -396.839 717.21C-400.687 720.5 -405.584 732.544 -409.651 741.085C-411.686 739.766 -406.151 732.195 -404.244 728.003C-404.148 726.576 -400.757 718.157 -404.076 720.986C-409.749 731.488 -415.427 737.716 -419.227 751.239L-418.559 746.628C-421.213 751.471 -422.767 756.979 -423.244 763.109C-423.585 776.087 -419.192 755.519 -419.138 763.529C-417.877 761.182 -417.014 758.588 -416.534 755.764C-415.901 753.027 -414.956 750.922 -413.582 751.068C-413.401 753.971 -413.225 756.848 -412.751 759.808C-414.191 762.405 -414.845 765.443 -414.73 768.903C-414.786 772.106 -414.636 775.13 -414.851 777.253C-415.242 775.47 -415.52 773.714 -415.685 771.984C-418.108 771.846 -416.644 777.098 -416.454 779.431L-419.446 774.823C-419.438 767.476 -415.925 764.197 -416.603 758.354C-417.701 761.872 -419.062 765.213 -420.687 768.377C-422.43 772.176 -423.178 776.513 -422.954 781.346C-422.34 781.936 -422.255 781.206 -422.211 780.199C-422.182 779.112 -421.929 778.142 -421.479 777.282C-421.366 780.182 -421.49 782.975 -421.833 785.679C-422.267 789.149 -421.98 792.866 -420.972 796.829C-420.99 794.345 -420.832 791.928 -420.495 789.605C-419.886 787.981 -419.295 787.84 -418.182 791.243L-419.926 795.168C-419.006 799.3 -418.4 797.867 -417.99 799.54C-416.189 805.342 -420.702 797.655 -418.004 806.923C-417.223 808.366 -415.583 811.435 -415.546 810.185C-412.016 820.539 -414.58 815.027 -411.438 824.845C-415.312 816.165 -418.938 815.451 -414.966 825.108C-407.942 838.383 -401.596 848.002 -392.357 854.881L-388.105 860.765C-389.094 858.472 -387.345 860.384 -384.483 862.825C-381.675 865.406 -378.756 867.861 -375.745 870.172C-374.694 869.974 -379.312 866.128 -383.944 862.011C-388.419 857.728 -392.564 852.938 -391.35 852.13C-383.971 859.068 -386.477 855.286 -388.032 852.581C-380.76 860.205 -386.91 856.85 -384.212 861.058C-381.731 862.52 -379.39 864.228 -377.184 866.209C-374.1 868.614 -371.294 869.948 -373.611 867.407C-370.837 869.331 -368.259 871.489 -365.884 873.917C-363.785 875.836 -361.511 877.477 -359.096 878.809C-359.8 877.486 -360.528 875.903 -359.68 875.289C-358.289 876.545 -356.781 877.51 -355.159 878.159L-349.753 880.538C-351.265 880.169 -347.146 883.733 -354.324 879.398C-351.455 881.803 -348.414 883.651 -345.2 884.941C-341.053 886.731 -337.17 888.408 -337.418 888.999C-336.666 887.688 -320.863 895.032 -312.696 896.599C-312.789 898.866 -316.716 897.166 -320.8 895.352C-324.931 893.579 -329.101 891.122 -330.455 892.583C-322.105 896.52 -313.784 899.484 -305.517 901.494C-295.315 904.442 -284.258 906.677 -275.005 909.39C-259.816 910.804 -275.541 907.483 -272.869 906.155C-287.196 902.959 -290.436 903.659 -302.838 899.785L-278.974 904.603C-270.514 906.289 -262.416 907.916 -257.282 909.252C-242.572 911.178 -242.978 906.034 -224.907 908.56C-226.68 910.012 -226.222 910.424 -231.448 910.605C-226.173 911.288 -221.046 911.63 -216.005 911.673C-212.455 912.89 -223.522 912.382 -216.026 913.753C-213.345 913.634 -207.473 913.796 -209.052 912.611L-210.294 912.382C-192.638 914.988 -199.369 909.297 -183.497 913.364C-184.359 914.115 -187.97 912.858 -191.374 913.137C-193.679 914.209 -183.904 916.561 -176.918 917.532C-178.536 916.35 -171.029 917.711 -166.383 917.661C-163.881 916.012 -178.536 916.35 -181.386 914.929L-168.326 915.512L-170.979 915.638L-156.021 918.346C-166.21 917.104 -159.955 920.306 -155.51 920.805C-145.697 921.094 -135.856 921.39 -137.81 919.251C-135.856 921.39 -123.546 922.127 -114.611 923.15C-123.904 923.251 -115.153 924.84 -112.131 925.705L-98.5449 924.58C-113.901 922.999 -96.0433 922.932 -100.119 921.298C-105.293 918.872 -114.047 919.379 -121.924 919.152C-107.768 916.344 -99.2569 922.671 -86.3651 921.714C-86.7294 920.751 -88.3365 919.559 -94.2253 919.38C-92.0761 918.882 -81.1867 922.043 -72.4318 921.536C-74.5758 922.061 -79.0474 923.615 -69.6203 925.021L-58.5148 923.465C-44.7494 923.871 -52.8206 926.281 -40.8798 928.152L-47.8316 929.274C-45.8884 931.422 -32.2861 930.315 -31.0816 932.607C-38.1964 932.216 -42.866 930.163 -50.1372 930.346C-52.1464 932.377 -40.1611 932.148 -35.3917 933.614C-27.4472 933.844 -19.8041 933.432 -12.474 932.386C-13.3375 928.953 -33.183 926.849 -32.395 922.508C-16.3617 924.592 -0.659371 925.746 14.6954 925.954C28.6238 927.873 28.4178 930.52 27.1703 932.388C31.2965 932.978 35.2374 933.105 38.971 932.725L32.197 931.194C49.3946 933.45 59.4846 935.216 77.7782 937.298C88.3919 939.263 84.7823 940.752 82.8018 942.041C86.5487 942.618 90.372 943.378 94.168 944.068L92.5734 944.24C95.6998 946.794 105.49 947.79 113.184 949.55C113.012 948.607 108.263 947.311 108.576 946.85C116.045 947.744 123.683 949.835 131.522 953.156C131.462 952.302 126.341 948.643 118.111 947.163C117.289 947.16 117.781 947.606 116.948 947.614C112.264 946.104 107.551 944.651 102.898 943.365C118.959 947.642 128.406 948.468 127.746 946.138C144.464 952.249 114.632 944.322 134.324 951.12C146.474 953.371 158.696 957.901 170.994 964.738C180.428 970.417 189.992 975.327 199.682 979.439C202.551 981.844 205.478 984.478 208.533 987.219C211.501 990.13 214.725 992.974 217.884 996.312C225.128 1003.59 231.971 1011.15 238.413 1019C237.698 1019.4 240.06 1022.31 241.941 1025.17C243.822 1028.03 245.434 1030.68 243.862 1030.15C236.944 1021.99 231.076 1014.4 224.9 1007.28C219.193 1000.23 212.47 994.376 204.742 989.772C197.595 983.538 200.763 984.182 197.624 981.014C190.753 975.913 183.869 972.041 182.691 972.349C190.738 977.956 191.421 979.579 192.677 981.451C193.922 983.334 195.801 985.226 205.309 992.652C201.444 990.585 197.686 988.174 194.064 985.427C189.29 982.091 184.422 979.025 179.446 976.238C181.37 978.154 178.93 977.719 174.198 975.689C181.149 981.064 187.881 986.692 194.41 992.59C192.839 990.555 196.532 992.772 195.14 991.236C201.124 996.485 206.792 1002.04 212.087 1007.89C217.969 1012.07 220.159 1012.94 217.975 1009.57C223.551 1014.86 228.537 1020.51 232.935 1026.52C235.054 1029.36 236.781 1031.91 238.272 1033.67C239.671 1035.45 240.663 1036.53 241.294 1036.38C249.559 1050.36 237.315 1032.23 235.506 1031.59L236.207 1032.76C232.939 1028.04 229.352 1023.49 225.427 1019.07C224.572 1019.09 225 1019.97 226.139 1021.38C227.272 1022.77 228.918 1024.77 230.749 1026.83C234.28 1031.03 237.947 1035.92 237.255 1037.4C236.341 1038.29 236.746 1039.88 237.938 1041.9C239.365 1044.43 240.986 1046.93 242.783 1049.36C247.087 1055.16 249.985 1061.07 251.46 1067.06C251.68 1065.31 252.054 1063.52 252.084 1061.62L252.058 1055.74C253.129 1059.27 253.963 1062.76 254.527 1066.17C254.725 1064.03 255.12 1062 255.694 1060.06C256.379 1057.25 256.128 1054.13 254.93 1050.7C256.97 1054.99 258.743 1059.28 260.256 1063.55C261.709 1068.07 262.811 1072.51 263.564 1076.88C264.265 1080.92 264.605 1084.84 264.601 1088.66C264.494 1091.53 264.15 1094.3 263.553 1096.94C264.457 1101 265.576 1103.33 267.406 1102.64C265.067 1107.58 263.144 1112.79 261.635 1118.26L259.253 1125.24C258.23 1127.63 256.966 1129.82 255.5 1131.88C251.069 1135.55 252.453 1132.94 253.921 1130.01C255.228 1126.87 256.63 1123.46 253.271 1125.95C252.58 1128.12 251.413 1129.91 249.765 1131.32C248.359 1132.79 246.77 1134.08 245.013 1135.21C247.656 1133.19 249.78 1130.71 251.429 1127.81C252.53 1125.88 253.713 1123.82 254.771 1121.74L257.43 1115.49C254.496 1120.89 252.762 1118.71 251.068 1119.47C252.577 1116.47 254.248 1113.61 255.337 1110.32C253.89 1109.73 252.684 1112.56 250.942 1115.61C249.596 1118.69 247.702 1121.31 245.227 1123.43C249.165 1123 248.272 1124.34 252.207 1123.76C246.472 1130.31 237.101 1138.98 232.172 1144.43C229.421 1147.82 236.165 1143.39 238.52 1142.43C238.341 1145.14 230.779 1146.86 230.907 1149.5C233.311 1150.15 235.464 1146.53 238.319 1145.1C231.723 1150.57 224.483 1155.28 216.573 1159.27C217.228 1160.13 223.523 1157.59 226.774 1155.1C220.916 1160.14 213.286 1162.6 203.889 1162.51C196.264 1166.78 187.583 1171.63 191.396 1171.93C187.167 1172.8 189.128 1171 188.485 1170.06C177.626 1174.71 174.101 1171.91 167.478 1174.43L171.229 1170.79C161.885 1176.72 166.619 1168.9 158.34 1174.09C161.15 1175.17 162.071 1177.46 162.008 1180.01C159.154 1178.91 154.67 1183 151.02 1184.9C151.894 1181.95 141.892 1187.54 146.382 1182.66C136.8 1186.02 135.231 1190.69 128.028 1193C129.487 1191.39 127.435 1192.18 125.398 1193.11C123.344 1194.02 121.198 1195.02 121.987 1193.14C115.135 1199.43 114.279 1206.64 117.472 1206.04C118.84 1203.35 121.496 1199.07 122.657 1200.59C118.943 1204.35 115.918 1208.68 113.585 1213.58C113.352 1215.82 112.973 1218.27 112.827 1220.33C112.855 1222.53 113.233 1224.38 114.245 1225.28C112.472 1228.11 111.852 1231.52 112.372 1235.53C112.561 1237.52 112.65 1239.48 112.591 1241.37C112.742 1242.96 112.471 1244.32 111.807 1245.46C112.133 1244.17 112.252 1242.79 112.162 1241.31C112.204 1240.08 112.116 1238.82 111.871 1237.5C111.369 1235.56 111.008 1233.66 110.805 1231.81C110.593 1232.65 110.252 1233.44 110.131 1234.33L110.137 1232.86C108.655 1234.84 107.443 1237.02 106.076 1239.24C105.355 1235.03 106.02 1234.91 106.853 1234.5C107.659 1234.08 108.577 1233.34 109.231 1228.18C107.974 1222.75 105.922 1227.1 104.277 1231.94C103.654 1234.45 103.019 1236.97 102.5 1238.23C102.123 1239.53 101.468 1239.41 100.845 1236.52C99.76 1227.38 103.338 1230.38 105.358 1224.43L105.234 1226.2C106.406 1221.55 108.072 1217.23 110.243 1213.21C109.296 1211.82 106.903 1215.25 106.903 1215.25C108.816 1209.24 111.307 1203.64 114.357 1198.42C117.73 1192.92 121.952 1188.18 127.023 1184.2C126.385 1185.47 126.537 1190.55 133.478 1186.5C138.882 1184.08 137.829 1181.87 141.875 1179.25C138.132 1179.51 135.166 1180.79 132.966 1183.08L131.197 1180.65C127.514 1182.11 123.522 1183.09 119.231 1183.58C117.453 1183.91 115.88 1184.54 114.545 1185.48C111.61 1187.32 109.019 1189.54 106.775 1192.09C103.51 1193.35 101.159 1195.49 99.7397 1198.54C98.1675 1200.87 96.9037 1203.41 95.9537 1206.18C94.8562 1208.94 94.0788 1211.9 93.6326 1215.04C93.4963 1212.91 93.2711 1210.67 93.2539 1208.53C90.1558 1213.51 90.7679 1214.57 91.2735 1215.91C91.7625 1217.23 92.2947 1219.05 90.2883 1226.63L92.8922 1233.58C93.7475 1235.74 94.7732 1237.87 96.0026 1240.02C98.0324 1243.5 99.8035 1244.7 100.886 1240.7C102.884 1252.29 101.942 1255.99 105.925 1267.07C110.98 1273.82 107.602 1263.89 110.755 1265.43C112.837 1272.79 117.386 1282.51 112.833 1277.01C114.318 1279.44 115.974 1281.84 117.506 1284.22C119.168 1286.58 121.093 1288.84 122.841 1291.09C123.575 1291.27 120.01 1286.35 118.647 1284.41C122.541 1289.7 129.741 1300.1 132.524 1303.24C131.522 1302.11 128.469 1298.84 127.046 1297.49C128.259 1299.21 129.621 1300.86 131.115 1302.44C132.655 1304.25 134.248 1305.98 135.915 1307.69C138.195 1309.7 140.308 1311.82 142.272 1314.08C139.285 1311.34 136.124 1308.82 132.834 1306.53C131.435 1305.44 130.111 1304.31 128.81 1303.1C128.017 1302.36 127.242 1301.56 126.513 1300.73C125.803 1299.79 125.015 1298.73 124.179 1297.49C124.407 1298.51 124.555 1300.97 129.609 1305.25C125.618 1302.2 121.933 1298.79 118.598 1295.04C116.422 1292.25 113.998 1289.65 111.312 1287.21C113.783 1289.99 115.925 1292.87 117.769 1295.89C119.336 1298.18 120.21 1299.88 120.741 1300.67C119.014 1298.86 117.372 1297.01 115.81 1295.1C114.208 1292.9 112.54 1290.51 110.963 1288.17C109.604 1285.98 108.375 1283.77 107.289 1281.53C106.413 1279.95 105.708 1278.35 105.194 1276.77C103.676 1276.43 100.302 1269.82 98.8029 1264.66C96.8742 1259.44 96.3062 1255.59 95.7552 1259.63C95.923 1257.61 95.6509 1255.47 94.9387 1253.22C94.1443 1250.07 93.5817 1246.59 92.7324 1244.06C92.0804 1244.09 92.0835 1247.12 92.2115 1250.85L93.5195 1262.02C94.571 1265.38 95.3524 1267.91 96.082 1269.78C96.6117 1271.03 97.2094 1272.29 97.8978 1273.54C98.6586 1274.87 98.659 1274.12 98.4429 1272.75C97.8075 1269.93 97.2072 1264.89 98.7791 1267.96C99.9957 1271.27 101.743 1274.68 103.237 1278.04C105.087 1281.42 106.965 1284.81 109.082 1288.18C108.179 1287.22 109.154 1289.37 109.221 1290.12C109.255 1290.5 109.056 1290.52 108.272 1289.61C106.666 1287.6 105.345 1285.54 104.268 1283.41C104.859 1285.46 105.693 1287.51 106.799 1289.58C109.711 1295.35 113.613 1300.76 118.496 1305.81C121.072 1308.44 123.798 1310.87 126.685 1313.17C128.585 1315.92 121.113 1308.72 118.854 1306.47C120.6 1308.91 122.204 1311.39 123.733 1313.9C124.189 1314.84 124.069 1315.26 122.712 1314.38C120.124 1312.51 117.738 1310.44 115.559 1308.12C116.528 1308.81 109.144 1298.97 116.6 1306.43C115.149 1304.67 113.013 1302.22 110.697 1299.61C108.393 1297 106.376 1294.13 104.419 1291.78C102.446 1289.41 101.02 1287.49 100.217 1286.69C99.4083 1285.87 99.166 1286.14 99.9994 1288.26C98.7667 1285.96 97.2871 1283.16 95.7654 1280.14C94.3515 1277.13 93.1945 1273.98 91.9237 1270.87C90.0787 1265.73 88.6069 1260.64 87.5645 1255.62C86.5793 1254.51 86.8113 1255.96 87.3552 1258.11C87.8876 1260.27 89.1092 1263.27 89.3989 1265.01C88.7234 1262.95 87.9695 1260.82 87.3954 1258.79L85.9783 1252.75C85.106 1248.8 84.4595 1244.89 84.0723 1241.08L86.7995 1248.1C85.735 1244.12 85.1836 1240.29 85.1173 1236.6C85.1098 1234.92 85.1411 1233.3 85.1995 1231.75C85.3479 1230.25 85.6197 1228.83 85.8852 1227.44L86.7309 1223.39L87.9802 1219.62L89.173 1215.83L90.5979 1212.06C87.6342 1212.11 85.5716 1221.47 84.5917 1229.35C81.6654 1220.22 85.8508 1224.6 87.2561 1212.38C87.143 1210.57 86.6335 1209.83 85.6932 1210.18L87.8651 1206.1L90.4677 1202.37C90.9437 1200.2 90.4016 1200.46 89.8806 1201.16C90.8616 1199.31 92.2003 1197.76 93.8683 1196.53C94.3331 1196.16 94.9245 1196.02 95.6539 1196.1C96.6217 1196.16 97.2301 1194.94 103.788 1187.58C102.158 1189.96 101.118 1191.99 100.044 1193.24L97.3617 1196.3C94.9596 1198.45 93.302 1201.18 92.389 1204.47C92.2889 1207.93 94.0774 1205.53 96.1473 1202.16C98.0409 1199.2 100.326 1196.59 102.94 1194.28C105.28 1189.96 106.163 1187.47 107.37 1184.58C108.996 1181.35 111.443 1178.88 114.716 1177.18C109.365 1179.87 113.045 1174.98 105.023 1182.56C99.4249 1186.54 106.37 1179.02 106.339 1177.01C109.114 1175.31 106.875 1180.42 113.307 1174.53L112.725 1174.45C114.913 1173.26 117.207 1172.26 119.527 1171.33C121.82 1170.33 124.168 1169.47 126.554 1168.68C136.835 1160.47 155.46 1158.48 161.767 1152.58L161.632 1155.79C169.493 1153.07 180.425 1149.19 186.075 1147.61C183.819 1146.67 178.709 1148.47 172.923 1149.98C184.318 1145.52 196.256 1141.83 208.72 1138.91C205.495 1142.28 201.907 1145.25 197.89 1147.81C202.149 1147.85 205.41 1146.57 207.689 1143.93C210.342 1140.99 213.629 1138.75 217.534 1137.19C215.777 1134.76 212.929 1137.11 213.34 1133.38C218.779 1132.58 224.581 1127.52 229.715 1125.3C229.428 1121.24 224.603 1123.26 215.209 1129.47C209.786 1136.32 198.202 1137.02 192.67 1141.87L195.752 1138.59C188.632 1141.39 181.197 1143.74 173.456 1145.65L174.014 1145.88L168.466 1144.9L172.592 1143.37C166.69 1143.26 161.135 1143.82 155.905 1145.01C169.108 1140.5 172.677 1144.08 180.208 1143.92C191.265 1139.37 192.423 1133.43 200.477 1132.16C200.203 1130.84 204.432 1126.68 199.409 1128.03C197.037 1128.97 194.777 1130.07 192.655 1131.32C190.907 1132.22 189.71 1132.7 188.809 1132.02C190.666 1131.34 192.301 1130.41 193.741 1129.25C195.906 1127.8 198.192 1126.5 200.618 1125.35C203.958 1126.6 211.708 1124.81 218.531 1122.15C225.164 1118.58 230.156 1113.52 233.512 1106.91C229.56 1112.54 222.494 1115.48 222.337 1112.9C224.954 1111.77 226.768 1109.91 227.79 1107.3C228.92 1104.97 229.744 1103.35 230.659 1105.33C231.845 1103.77 232.762 1101.66 233.927 1099.64C234.894 1097.58 235.693 1095.42 236.352 1093.16C237.457 1088.85 237.308 1085.02 235.96 1083.91C234.442 1090.7 231.982 1096.87 228.581 1102.43C229.481 1100.99 229.512 1099.02 228.43 1099.4C227.836 1100.76 226.956 1101.97 226.138 1103.21C225.336 1104.47 224.534 1105.73 223.536 1106.88C225.037 1102.27 226.941 1097.92 229.22 1093.84C229.238 1094.48 229.247 1095.76 229.715 1095.13C230.567 1093.23 231.681 1090.82 232.24 1088.81L229.776 1087.02C231.419 1083.4 232 1079.24 231.496 1074.56C230.893 1069.02 229.973 1063.39 228.772 1057.69L228.643 1058.68C227.264 1055.23 226.518 1051.91 226.403 1048.73C226.165 1044.85 224.652 1040.92 221.843 1036.9C223.294 1040.45 221.342 1039.21 220.008 1039C218.824 1036.53 217.108 1034.31 214.862 1032.33C212.971 1030.45 210.669 1028.8 208.141 1026.41C214.548 1031.76 206.078 1021.06 210.597 1025.09C211.608 1024.61 209.371 1021.66 206.085 1018.09C204.368 1016.33 202.324 1014.49 200.403 1012.73C198.339 1011.06 196.358 1009.48 194.742 1008.17C192.137 1007.72 196.897 1011.94 200.549 1015.66C204.229 1019.39 206.905 1022.52 201.848 1019.53C196.102 1014.6 195.284 1012.22 199.822 1015.45C197.972 1013.85 195.698 1012.21 193.415 1010.39C191.051 1008.7 188.575 1006.92 186.125 1005.34C181.886 1002.53 177.564 1000.33 173.131 998.731C169.524 995.784 165.764 993.156 161.857 990.876C158.668 989.095 155.647 987.011 152.751 984.6C154.838 985.498 156.853 986.71 158.76 988.265C161.013 989.8 163.312 990.952 165.668 991.71C163.253 989.692 160.773 987.76 158.231 985.916C149.253 982.213 140.383 979.603 131.677 978.1C134.34 979.184 136.973 980.326 139.565 981.534L139.176 981.06C142.212 982.882 151.995 986.164 150.86 987.371C144 982.667 138.625 982.634 129.229 978.515L129.63 978.978C112.836 972.684 102.095 976.233 90.1851 970.276C93.2713 970.71 98.8867 969.909 96.7353 968.754C93.1992 969.18 82.6986 967.585 83.4813 968.964L87.0936 969.815C77.6229 969.009 71.8647 968.81 68.2002 968.036C64.9437 966.189 67.2545 965.144 59.884 963.726C42.9544 963.516 68.2692 967.976 57.0376 968.549L40.1605 965.732L37.1214 966.974C13.3866 966.853 -7.13788 960.749 -33.0287 959.04C-32.5128 961.526 -13.384 963.818 -6.97966 964.359C-14.1442 966.042 -26.7802 962.278 -36.9624 963.123C-46.8151 962.837 -55.1679 960.121 -54.105 958.82C-66.751 957.126 -62.3109 959.723 -63.7267 960.051C-68.7554 957.061 -83.9199 957 -94.069 955.755L-93.9457 957.271L-110.187 954.337C-106.251 954.437 -110.338 952.814 -110.686 951.868L-114.598 951.747C-100.991 948.543 -79.2904 956.933 -65.482 953.178C-70.4758 952.282 -64.3909 951.884 -69.4013 950.972C-73.3255 950.861 -74.0308 951.039 -74.2154 951.605C-77.0766 950.194 -83.8506 948.663 -75.4533 949.28C-77.0503 946.017 -93.4857 945.72 -105.426 943.85C-113.812 945.346 -94.7332 947.588 -89.3866 949.457C-94.461 948.288 -99.3406 947.698 -104.037 947.699L-101.562 950.227C-117.976 947.85 -106.707 947.808 -111.175 945.204C-116.657 941.829 -125.461 944.409 -129.906 943.909L-124.912 944.805C-136.886 945.025 -140.604 942.268 -151.66 941.75L-156.166 943.333C-143.09 941.81 -137.814 947.832 -130.285 947.113C-149.788 948.052 -124.075 952.415 -116.926 954.899C-124.38 953.805 -131.409 953.714 -137.99 954.669C-151.942 950.647 -164.278 954.087 -177.989 949.511C-184.583 949.509 -171.4 951.609 -178.543 951.211C-192.193 950.642 -206.123 949.193 -220.357 946.884C-227.799 946.404 -226.157 947.566 -227.904 948.4C-242.588 947.702 -257.765 945.184 -273.445 940.856C-287.592 937.004 -302.018 933.175 -324.399 925.909C-322.153 927.201 -319.934 928.359 -317.73 929.438C-322.039 928.194 -326.349 926.734 -330.684 925.014C-333.947 923.89 -337.115 922.216 -340.173 919.945C-346.32 919.273 -356.924 913.801 -367.712 906.773L-375.814 901.433C-378.488 899.672 -381.118 897.59 -383.668 895.845C-386.222 894.011 -388.746 892.399 -391.134 890.795C-393.335 889.183 -395.589 887.711 -397.902 886.353C-417.894 869.478 -416.169 866.134 -427.559 850.852Z" fill="#F84E72"/>
</g>
</svg>
