<svg width="755" height="1431" viewBox="0 0 755 1431" fill="none" xmlns="http://www.w3.org/2000/svg">
<path d="M449.346 1381.28C449.223 1380.95 448.995 1380.83 448.814 1380.84C449.003 1381.14 449.192 1381.37 449.346 1381.28ZM449.131 1389.37C449.143 1389.21 449.147 1389.05 449.141 1388.89C449.011 1389.09 448.96 1389.3 449.131 1389.37ZM425.3 1369.5C425.361 1368.88 424.61 1369.02 423.969 1368.83C424.419 1369.05 424.856 1369.3 425.3 1369.5ZM400.645 1361.48L400.261 1361.15C399.879 1361.15 399.502 1361.16 399.126 1361.2L400.645 1361.48ZM396.047 1348.78C395.085 1348.33 394.856 1348.05 395.05 1347.85C394.303 1347.61 393.551 1347.42 392.787 1347.27C392.259 1347.34 394.978 1348.32 396.047 1348.78ZM421.332 1338.64L421.555 1338.24C421.555 1338.24 421.439 1338.48 421.386 1338.62L421.332 1338.64ZM437.917 1326.7L437.828 1326.45C437.518 1326.46 437.21 1326.48 436.907 1326.52L437.917 1326.7ZM454.393 1409.74C453.935 1409.38 454.141 1409.61 454.393 1409.74V1409.74ZM535.191 1345.6C534.733 1346.32 533.614 1346.07 532.409 1345.8C531.203 1345.53 530.107 1345.57 529.998 1346.52C530.978 1346.42 531.964 1346.42 532.956 1346.52C534.183 1346.51 535.273 1346.45 535.204 1345.64L535.191 1345.6ZM481.925 1392.64C482.207 1392.68 482.475 1392.65 482.733 1392.55C482.452 1392.51 482.177 1392.53 481.912 1392.61L481.925 1392.64ZM483.39 1378.94C483.544 1378.75 483.572 1378.55 483.471 1378.31L483.249 1378.38C483.322 1378.45 483.371 1378.53 483.394 1378.63C483.416 1378.72 483.411 1378.81 483.377 1378.9L483.39 1378.94ZM484.539 1366.46L484.204 1366.55L484.293 1366.8L484.539 1366.46ZM444.3 1297.76C443.989 1296.17 443.754 1295.01 443.554 1293.94C443.656 1295.22 443.901 1296.48 444.287 1297.73L444.3 1297.76ZM493.679 1295.85C493.679 1295.85 493.772 1295.83 494.037 1295.31L493.679 1295.85ZM509.749 1267.23L509.089 1267.74L507.864 1268.67C507.211 1269.18 506.523 1269.65 505.806 1270.07C504.676 1270.7 503.949 1270.62 503.996 1269.44C502.23 1271.48 500.874 1272.45 499.328 1274.3L500.22 1271.66C496.806 1273.08 493.75 1275.02 491.053 1277.49L492.004 1275.12C491.285 1275.82 490.688 1276.62 490.218 1277.51C489.747 1278.4 489.42 1279.35 489.238 1280.36C488.641 1282.62 488.213 1284.56 487.352 1285.36C487.039 1284.49 486.608 1283.7 486.205 1282.92C485.229 1283.79 484.197 1284.59 483.108 1285.32C482.019 1286.06 480.937 1286.92 479.897 1287.79C479.362 1288.24 478.815 1288.72 478.349 1289.19C478.088 1289.43 477.843 1289.68 477.616 1289.95L477.209 1290.47C476.671 1291.21 476.346 1292.05 476.231 1292.98C475.985 1292.7 475.505 1292.12 475.748 1291.65C474.615 1292.78 470.326 1295.11 473.391 1296.99C471.595 1295.44 470.977 1299.46 470.62 1301.48L469.496 1300.19C469.837 1300.91 470.064 1301.65 470.173 1302.42C470.28 1303.2 470.265 1303.96 470.126 1304.71C469.848 1304.79 469.297 1304.12 469.441 1303.96C469.089 1304.06 469.192 1304.4 469.295 1304.85C469.395 1305.3 469.429 1305.96 468.823 1305.99C468.659 1305.54 468.653 1305.07 468.533 1304.62C467.925 1305.15 468.29 1305.65 468.398 1307.54C468.292 1308.21 467.878 1308.54 467.501 1308.41C467.122 1308.27 466.79 1307.64 466.633 1306.58C466.684 1307.47 466.638 1308.34 466.496 1309.2C466.445 1309.57 466.355 1309.56 466.261 1309.52C466.167 1309.49 466.076 1309.35 465.969 1309.11C465.9 1308.62 465.947 1308.14 466.113 1307.69C465.602 1306.28 465.205 1306.61 464.715 1306.67C464.223 1306.73 463.659 1306.65 463.589 1305.38C463.747 1305.03 463.852 1304.66 463.911 1304.28C464.408 1304.8 464.822 1305.37 465.151 1306C465.263 1305.01 465.192 1304.3 465.244 1303.59C465.346 1302.71 465.51 1301.83 465.732 1300.97C465.596 1301.76 465.258 1302.43 464.721 1303C464.224 1303.44 463.607 1303.33 463.594 1302.84C463.667 1302.66 463.752 1302.5 463.846 1302.34L464.013 1302.29C463.939 1302.09 463.832 1302.08 463.566 1302.13L463.622 1301.72C463.622 1301.72 463.526 1301.46 463.431 1301.2C464.25 1300.29 462.595 1299.17 462.093 1298.41C460.845 1299.44 460.3 1298.33 459.946 1300.02C459.885 1299.85 460.202 1300.05 460.654 1300.5C460.745 1300.47 460.902 1300.67 461.034 1300.7L460.81 1300.77C461.241 1301.22 461.764 1301.81 462.361 1302.49C461.272 1302.44 460.221 1302.25 460.284 1300.9C459.337 1301.14 458.376 1301.32 457.4 1301.44C458.369 1299.07 457.858 1296.41 458.787 1295.34L458.332 1295C458.131 1294.84 457.945 1294.67 457.773 1294.48L457.719 1294.33L457.833 1293.73L457.409 1293.98L456.494 1292.98C455.617 1292.04 454.725 1291.05 453.873 1290.12C453.175 1289.32 452.374 1288.66 451.466 1288.12C451.311 1288.01 451.144 1287.92 450.964 1287.86C450.784 1287.8 450.6 1287.77 450.415 1287.77C450.231 1287.77 450.051 1287.8 449.881 1287.86C449.708 1287.92 449.552 1288.01 449.415 1288.12C448.69 1287.71 448.98 1285.8 448.846 1284.69C449.32 1284.86 449.783 1285.68 450.131 1285.45C448.502 1284.42 445.864 1278.72 445.568 1282.5C444.764 1280.27 444.985 1279.52 445.136 1279.14C445.285 1278.77 445.354 1278.56 444.204 1276.86L444.464 1275.99C442.974 1271.31 441.462 1268.55 440.435 1267.64C439.409 1266.74 438.708 1267.24 438.171 1267.63C438.047 1269.33 437.849 1269.97 437.402 1269.65C437.251 1269.52 437.125 1269.38 437.023 1269.22L436.975 1269.09L436.896 1269.21C436.851 1269.3 436.789 1269.37 436.71 1269.43C436.572 1269.56 436.407 1269.63 436.216 1269.64C436.023 1269.66 435.842 1269.61 435.671 1269.51C435.942 1269.58 436.066 1269.58 436.318 1270.28C435.458 1271.91 434.933 1273.65 434.743 1275.52C434.368 1277.71 434.152 1280.23 433.974 1282.58C433.796 1284.92 433.598 1287.21 433.312 1289.32C433.033 1291.37 432.475 1293.32 431.639 1295.19C430.936 1297.67 432.266 1298.73 433.322 1300.46C432.729 1300.47 432.145 1300.49 431.546 1300.55C432.184 1301.55 432.876 1302.52 433.624 1303.45C434.435 1305.07 433.366 1306.2 432.517 1307.59C432.371 1307.75 432.244 1307.91 432.134 1308.09C432.021 1308.27 431.928 1308.46 431.853 1308.66C431.778 1308.86 431.723 1309.06 431.687 1309.28C431.65 1309.49 431.634 1309.7 431.639 1309.92C431.643 1310.14 431.668 1310.35 431.713 1310.57C431.757 1310.78 431.819 1311 431.903 1311.2C431.988 1311.41 432.089 1311.61 432.208 1311.8C432.325 1311.99 432.46 1312.17 432.612 1312.34L433.762 1311.83C433.636 1313.18 434.907 1316.01 433.518 1315.86C433.746 1315.98 434.801 1316.23 434.244 1316.79L433.311 1316.88L435.361 1320.04C435.108 1322.63 431.617 1319.96 432.063 1323.75C432.691 1325.14 435.444 1327.41 436.02 1326.74C436.001 1326.55 436.017 1326.36 436.065 1326.17C436.112 1325.99 436.194 1325.82 436.304 1325.67C436.414 1325.52 436.551 1325.4 436.709 1325.3C436.868 1325.2 437.042 1325.13 437.231 1325.09L437.946 1326.27C439.951 1326.48 441.824 1326.15 443.569 1325.29C443.812 1325.32 444.043 1325.39 444.258 1325.52C444.472 1325.66 444.647 1325.83 444.784 1326.04C444.423 1327.54 445.676 1327.48 446.482 1328.12C446.498 1328.51 446.517 1328.9 446.516 1329.29L446.146 1329.4C443.135 1329.1 440.171 1329.2 437.248 1329.73C435.481 1330.04 433.755 1330.46 432.065 1331.02L430.803 1331.39L429.031 1332.17C427.769 1332.71 426.592 1333.37 425.389 1334.02C421.998 1336 422.359 1337.56 422.484 1338.81C422.213 1338.89 421.945 1338.86 421.678 1338.74C421.45 1338.62 421.422 1338.48 421.529 1338.33L420.825 1339.62C420.765 1339.05 419.685 1338.23 420.555 1338.14C417.822 1338.07 418.316 1341.59 416.575 1340.36L416.661 1340.15C415.106 1341.52 415.759 1341.85 416.195 1342.6L415.13 1343.91C414.266 1343.16 413.414 1342.39 412.572 1341.61L413.205 1343.36C412.87 1343.46 412.239 1343.64 411.986 1342.89C411.431 1344.53 412.542 1343.51 412.426 1344.84C411.328 1344.42 410.449 1345.05 409.403 1345.51C409.167 1345.65 408.913 1345.76 408.639 1345.81C408.361 1345.87 408.082 1345.89 407.797 1345.85C407.512 1345.81 407.237 1345.73 406.972 1345.6C406.709 1345.47 406.471 1345.31 406.259 1345.11C406.742 1346.44 408.653 1345.31 407.663 1346.77C406.168 1345.65 405.63 1345.98 405.295 1346.48C405.22 1346.68 405.11 1346.85 404.964 1347.01C404.818 1347.16 404.648 1347.29 404.452 1347.38C404.258 1347.46 404.05 1347.51 403.83 1347.52C403.61 1347.53 403.393 1347.5 403.178 1347.44C401.756 1346.17 404.618 1346.13 401.057 1345.77C402.021 1346.9 401.097 1347.07 399.488 1347.11C398.04 1347.01 396.628 1347.14 395.252 1347.5C396.696 1348.02 396.621 1348.38 395.95 1348.68C395.685 1349.01 395.375 1349.29 395.022 1349.52C394.846 1349.67 394.685 1349.83 394.536 1350C394.369 1350.05 394.624 1350.24 394.693 1350.43C394.76 1350.62 394.996 1350.76 395.164 1350.94C394.076 1350.66 396.303 1354.77 397.082 1356.74L396.633 1356.75C399.024 1356.83 400.302 1358.21 401.8 1359.22L401.426 1359.89C400.58 1360.03 399.754 1359.91 398.951 1359.52C399.43 1359.94 399.852 1360.42 400.387 1360.83C401.442 1360.82 402.443 1361.09 403.388 1361.62L401.532 1362.17C402.832 1362.98 404.209 1363.58 405.662 1363.99C406.375 1364.26 407.08 1364.51 407.796 1364.84C408.516 1365.2 409.186 1365.65 409.803 1366.18C410.208 1365.54 410.053 1364.37 410.356 1363.45C410.524 1362.86 410.875 1362.41 411.412 1362.12L412.412 1362.16C412.174 1362.91 411.817 1363.92 411.093 1363.9C411.334 1363.83 412.131 1363.59 412.466 1364.12C411.973 1364.44 411.447 1364.71 410.888 1364.92C411.97 1366.04 411.95 1364.17 412.824 1364.6C412.457 1365.68 413.199 1365.63 412.855 1366.44C412.614 1366.51 412.197 1365.7 411.706 1365.99C412.23 1366.28 412.69 1366.66 413.085 1367.11C413.48 1367.56 413.784 1368.07 413.994 1368.62C414.061 1367.96 414.38 1367.13 415.193 1367.23C417.203 1367.67 415.583 1368.76 416.701 1369.63C417.348 1368.98 418.579 1370.06 418.827 1368.36C419.411 1368.5 419.455 1369.3 419.656 1369.8C420.827 1369.29 424.727 1370.13 423.533 1368.19L423.254 1368.05L423.438 1367.99C424.247 1367.7 425.09 1367.54 425.967 1367.51C426.841 1367.48 427.711 1367.59 428.573 1367.82C430.312 1368.3 432.024 1368.32 433.71 1367.88L433.908 1368.43C435.639 1367.54 438.136 1367.34 439.117 1365.8C439.729 1365.62 440.506 1366.57 440.504 1367.31C441.314 1366.65 441.578 1365.9 442.896 1366.6C441.928 1367.95 443.116 1367.49 441.98 1367.64C442.521 1367.77 442.767 1368.05 443.042 1368.07C443.317 1368.1 443.617 1367.9 444.486 1366.73C443.605 1368.55 444.29 1368.74 444.963 1368.05C444.995 1367.68 444.979 1367.32 444.916 1366.95C445.319 1366.67 445.775 1366.53 446.289 1366.55L445.455 1367.82L444.634 1369.12L444.688 1369.27C444.151 1370.91 445.008 1370.16 445.78 1370.3C446.552 1370.45 447.304 1371.23 445.588 1372.44C446.989 1372.51 446.292 1371.15 447.856 1370.87C447.789 1371.27 447.647 1371.64 447.43 1371.97C447.211 1372.3 446.935 1372.57 446.598 1372.79C446.245 1373.02 445.973 1373.32 445.777 1373.7C445.563 1374.01 445.444 1374.26 445.475 1374.39C444.917 1377 448.775 1376.25 448.599 1378.88C448.724 1378.78 448.859 1378.7 449.005 1378.63C449.151 1378.56 449.305 1378.51 449.463 1378.47C449.623 1378.44 449.785 1378.42 449.951 1378.42C450.117 1378.42 450.282 1378.44 450.447 1378.47C450.611 1378.51 450.769 1378.56 450.925 1378.63C451.082 1378.7 451.228 1378.79 451.367 1378.88C451.504 1378.98 451.632 1379.1 451.747 1379.22C451.864 1379.35 451.966 1379.48 452.053 1379.63C452.2 1381.4 449.694 1382.25 448.877 1381.24C448.727 1380.82 448.887 1380.59 449.125 1380.56C448.746 1380.03 448.289 1379.33 447.701 1380.15L448.442 1380.26C447.942 1381.27 448.59 1383.68 447.324 1383.3C448.303 1384.53 448.59 1383.68 448.7 1382.62C448.252 1385.07 449.532 1386.17 449.465 1388.65C449.758 1388.21 450.466 1387.72 450.559 1388.09C450.592 1391.65 452.226 1389.35 453.109 1391.5C452.979 1391.76 452.794 1391.97 452.55 1392.12C452.305 1392.28 452.034 1392.36 451.736 1392.37C451.552 1392.42 451.421 1392.46 451.446 1392.64C451.474 1392.78 451.522 1392.91 451.589 1393.04L452.036 1393.82C451.918 1396.04 450.352 1394.84 449.596 1393.94C450.071 1394.67 450.429 1395.44 450.666 1396.26C450.904 1397.09 451.012 1397.92 450.991 1398.76C450.919 1400.25 451.003 1401.74 451.238 1403.24C450.797 1402.76 450.413 1402.23 450.093 1401.67C450.616 1402.58 451.092 1403.52 451.521 1404.47C451.724 1403.79 451.952 1403.12 452.177 1402.49C452.404 1403.63 452.747 1404.4 452.338 1404.92C452.912 1405.08 453.24 1404.4 453.679 1403.85C454.116 1403.31 454.626 1402.84 455.479 1403.15C455.495 1404.9 457.521 1405.51 456.782 1407.6C455.913 1405.77 455.742 1406.26 455.464 1406.97C455.186 1407.68 455.059 1408.24 454.412 1407.7C454.769 1408.21 455.067 1408.74 455.306 1409.31C455.278 1409.63 455.013 1409.58 454.785 1409.46C455.643 1411.83 456.219 1411.66 456.829 1411.25C456.911 1411.16 456.999 1411.09 457.099 1411.02C457.198 1410.95 457.304 1410.9 457.416 1410.86C457.527 1410.82 457.644 1410.79 457.766 1410.77C457.885 1410.75 458.008 1410.75 458.13 1410.76C458.254 1410.77 458.375 1410.79 458.495 1410.83C458.616 1410.87 458.729 1410.91 458.841 1410.98C458.952 1411.04 459.055 1411.11 459.152 1411.19C459.249 1411.27 459.335 1411.37 459.413 1411.47C458.713 1412.26 459.455 1414.08 460.074 1414.14C458.802 1413.29 460.021 1411.95 461.202 1411.87C462.936 1413.88 463.454 1412.41 464.443 1412.99C464.035 1412.74 463.647 1412.46 463.276 1412.15C463.793 1411.25 464.709 1411.91 466.176 1411.71C466.322 1412.56 464.861 1412.1 465.377 1412.51C466.196 1411.77 467.11 1412.24 468.129 1412.57C469.15 1412.89 470.386 1413.13 470.965 1411.89C471.928 1412.11 471.597 1413.98 472.453 1414.02C473.209 1412.58 473.737 1412.51 474.434 1412.45C475.129 1412.39 475.844 1412.03 476.488 1410.3C475.802 1409.88 475.519 1409.77 475.443 1409.4C475.44 1408.51 475.482 1407.62 475.569 1406.74C475.316 1407.6 474.994 1408.43 474.604 1409.23C474.262 1410.07 473.87 1410.88 473.431 1411.66C473.756 1410.17 473.968 1408.66 474.066 1407.12C473.702 1407.78 473.414 1408.48 473.2 1409.21C472.946 1409.93 472.67 1410.47 472.386 1410.6C472.726 1408.42 472.701 1408.86 471.939 1408C472.813 1408.6 473.176 1407.45 473.371 1406.29C473.485 1405.69 473.579 1405.1 473.726 1404.6C473.762 1404.36 473.857 1404.15 474.004 1403.96C474.152 1403.78 474.338 1403.64 474.561 1403.56L476.906 1407.03C478.374 1406.03 478.776 1403.68 479.016 1401.51C479.097 1400.94 479.154 1400.36 479.211 1399.78L482.907 1403.58L480.332 1395.39L479.65 1393.51C479.699 1393.31 479.707 1393.1 479.674 1392.9C480.776 1393.38 481.384 1392.85 482.205 1392.62C481.753 1392.51 482.005 1391.79 481.987 1391L482.081 1390.97L482.006 1390.77C482.005 1390.59 481.973 1390.4 481.916 1390.23C481.856 1390.05 481.773 1389.88 481.663 1389.73C481.554 1389.57 481.424 1389.44 481.273 1389.32C481.125 1389.21 480.961 1389.11 480.786 1389.05L482.664 1387.99C483.937 1385.38 480.125 1383.93 481.01 1381.44C482.11 1382.55 483.11 1381.57 483.705 1383.56C483.898 1382.67 484.261 1381.91 483.47 1381.71C484.299 1381.34 482.434 1378.85 483.564 1378.28C483.106 1377.82 481.94 1377.43 482.162 1376.45C482.363 1376.44 482.555 1376.48 482.739 1376.57C482.162 1376.45 482.126 1374.88 480.759 1375.47C482.761 1374.48 482.914 1372.52 482.957 1370.65C482.933 1369.73 483.001 1368.82 483.16 1367.93C483.23 1367.52 483.382 1367.14 483.619 1366.81C483.871 1366.6 484.164 1366.46 484.499 1366.4C484.005 1365.13 483.879 1363.84 484.125 1362.54C484.422 1362.91 484.651 1363.03 484.473 1363.1C485.25 1362.97 484.706 1362.16 484.237 1361.09C483.768 1360.02 483.495 1359.04 485.049 1359.47C487.106 1361.3 484.674 1360.71 485.73 1361.35C487.12 1363.32 487.293 1363.12 487.671 1362.86C488.051 1362.6 488.602 1362.08 489.178 1363.33L489.021 1363.52C489.158 1363.9 489.327 1363.97 489.545 1363.95C489.839 1363.87 490.11 1363.75 490.357 1363.58L490.847 1363.29C491.113 1363.2 491.387 1363.11 491.664 1363.05C492.255 1362.94 492.849 1362.96 493.449 1363.1C493.362 1363.29 493.338 1363.48 493.374 1363.69C495.232 1362.01 498.339 1361.8 500.662 1361.53C499.925 1362.95 499.599 1362.22 500.008 1363.81C501.053 1363.68 499.785 1361.37 501.85 1361.18C502.494 1362.05 503.978 1362.86 504.215 1364.48L502.156 1364.46C503.188 1366.63 504.735 1364.55 505.783 1364.95L505.661 1365.86C506.846 1365.77 507.858 1365.33 508.695 1364.54C509.07 1364.22 509.49 1363.95 509.951 1363.75C510.718 1363.51 511.515 1363.4 512.336 1363.42L511.759 1362.74C512.547 1361.57 512.951 1361.89 513.614 1362.19C514.279 1362.49 514.905 1362.97 515.508 1362.09C516.122 1362.82 516.775 1363.54 517.471 1364.27C518.36 1363.77 519.212 1363.21 520.027 1362.6C520.855 1361.95 521.739 1361.39 522.683 1360.92C523.289 1362.59 521.026 1363.82 519.528 1365.02C520.655 1364.91 521.753 1364.69 522.827 1364.37C523.921 1364.05 524.698 1363.53 524.388 1363.02C524.034 1363.29 523.829 1363.91 522.869 1363.69C522.901 1362.82 523.174 1362.05 523.69 1361.37C524.38 1360.74 525.197 1360.35 526.135 1360.18C527.182 1360.9 528.322 1361.3 529.554 1361.4C530.518 1361.4 531.431 1361.22 532.295 1360.86C534.091 1359.98 536.002 1359.41 538.025 1359.16C538.245 1358.18 538.543 1357.23 538.924 1356.31C539.313 1355.18 539.505 1354 539.497 1352.78C539.486 1351.76 539.292 1350.75 538.919 1349.77C538.593 1348.89 538.085 1348.12 537.388 1347.47C533.835 1349 536.394 1346.6 531.555 1347.47C530.361 1346.95 530.028 1346.72 530.294 1346.6L530.349 1346.75L530.386 1346.57C530.473 1345.62 530.372 1344.68 530.081 1343.74C530.548 1342.71 532.433 1344.11 533.424 1343.73C532.211 1342.76 532.269 1342.41 532.694 1342.05C533.12 1341.7 533.79 1341.39 533.04 1340.51C531.952 1341.42 529.401 1340.9 527.637 1339.66C528.102 1340.38 528.505 1341.14 528.847 1341.92C525.182 1341.39 525.061 1340.54 524.551 1339.53C524.04 1338.51 523.356 1337.42 519.894 1337C520.716 1336.94 521.582 1336.89 522.479 1336.87C520.74 1336.49 517.953 1335.32 515.151 1334.44C514.384 1334.18 513.61 1334.1 512.829 1334.19C512.047 1334.28 511.338 1334.54 510.7 1334.97C510.522 1334.48 510.527 1333.42 511.303 1333.46C510.325 1332.98 509.309 1332.65 508.254 1332.47L506.58 1332.21L505.741 1332.11C505.439 1332.07 505.158 1332.03 505.117 1332.09C504.244 1332.34 502.925 1332.21 503.349 1331.23L504.184 1330.76C503.924 1330.83 502.829 1331.16 502.891 1330.87C502.932 1330.76 503.003 1330.67 503.1 1330.6C503.471 1330.49 504.008 1330.33 504.024 1330.2C503.719 1330.24 503.411 1330.23 503.104 1330.16C502.802 1330.06 502.614 1329.83 502.914 1329.63C503.251 1329.68 503.588 1329.71 503.927 1329.71C504.237 1329.43 504.25 1329.3 504.084 1329.12C503.979 1329 503.864 1328.89 503.737 1328.79C503.737 1328.79 503.628 1328.49 503.56 1328.3L503.349 1327.71C502.569 1326.2 502.066 1324.62 501.836 1322.97C504.399 1323.53 505.698 1320.7 506.341 1319.3L506.694 1319.43C507.631 1314.99 505.639 1311.41 505.266 1307.15C505.662 1306.9 506.002 1306.59 506.284 1306.22C506.432 1306.03 506.564 1305.83 506.684 1305.62C506.847 1305.28 506.977 1304.92 507.076 1304.55C507.627 1302.68 508.061 1300.78 508.381 1298.85C509.031 1294.43 509.987 1290.1 511.251 1285.85C510.545 1287.41 508.926 1287.48 508.786 1286.58C509.719 1284.22 507.048 1285.02 509.832 1282.27L509.755 1282.8C512.503 1279.04 511.91 1276.78 512.091 1274.5L508.591 1278.62C509.525 1276.88 510.16 1275.02 510.497 1273.05C510.832 1271.08 510.856 1269.08 510.566 1267.06C510.256 1266.71 509.93 1267.06 509.735 1267.2L509.749 1267.23ZM462.946 1300.26C463.517 1300.59 463.399 1300.94 463.188 1301.2C462.932 1300.94 462.654 1300.71 462.357 1300.49L462.152 1300.56C462.392 1300.4 462.652 1300.29 462.932 1300.22L462.946 1300.26ZM408.766 1351.46L408.675 1351.49L403.806 1356.71L403.539 1356.99C402.661 1357.01 401.9 1356.83 402.15 1356.05L403.317 1356.04C402.21 1355.53 400.112 1354.9 399.775 1354.09C402.215 1353.91 401.633 1354.85 403.814 1354.98C402.72 1354.38 401.592 1353.88 400.431 1353.46C399.091 1352.88 398.081 1352.07 399.247 1351.89C400.377 1352.52 400.796 1353.16 401.934 1353.64C402.619 1353.55 403.268 1353.36 403.88 1353.06C404.067 1353 403.771 1352.76 403.933 1352.52L404.473 1352.49L405.781 1352.52L404.818 1352.47L406.682 1352.46L405.481 1352.31C404.693 1352.11 403.96 1351.77 403.283 1351.3C402.845 1350.82 403.634 1350.67 404.238 1350.47C404.843 1350.27 405.308 1349.97 404.916 1349C405.346 1350.19 405.906 1350.37 406.349 1350.52C407.048 1350.62 407.708 1350.85 408.328 1351.22L408.969 1351.34L408.766 1351.46ZM421.438 1361.9C421.252 1361.86 421.071 1361.8 420.89 1361.74C420.412 1362.47 419.572 1362.13 419.988 1363.45C419.603 1362.92 419.153 1362.45 418.633 1362.04C419.438 1361.93 420.198 1361.71 420.915 1361.36C421.714 1361.42 421.684 1361.61 421.423 1361.86L421.438 1361.9ZM461.685 1395.62C462.112 1395.1 462.349 1395.07 462.849 1394.53L462.878 1395.4C462.364 1395.8 461.901 1396.33 461.672 1395.59L461.685 1395.62ZM462.888 1396.16L462.902 1396.66L462.656 1397.17C462.644 1396.8 462.716 1396.45 462.875 1396.13L462.888 1396.16ZM460.939 1394.08C461.274 1393.98 461.617 1393.56 461.701 1393.85C461.47 1393.21 460.56 1392.86 459.711 1392.04C458.792 1390.95 458.264 1389.72 458.127 1388.35C458.862 1389.13 459.543 1389.6 459.771 1389.25C459.696 1388.49 460.045 1387.24 461.039 1387.09L461.784 1388.8L462.79 1388.86L462.953 1394.58C461.874 1395.23 460.785 1395.35 460.926 1394.04L460.939 1394.08ZM453.124 1373.62C453.735 1373.21 455.528 1373.52 455.969 1373.26C456.214 1373.94 456.466 1374.63 456.712 1375.31L456.544 1375.36L457.087 1376.41C457.651 1378.02 458.021 1379.67 458.201 1381.35L457.997 1381.41L457.784 1381.22L456.892 1378.76L456.473 1380.61C454.983 1379.16 453.785 1381.24 453.829 1378.98C454.14 1379.38 453.468 1377.35 454.564 1376.3C453.732 1375.59 452.809 1374.8 453.11 1373.58L453.124 1373.62ZM453.062 1364.5C452.925 1364.63 452.8 1364.78 452.689 1364.94C452.297 1365.39 451.984 1365.77 451.968 1364.82C452.315 1364.65 452.682 1364.53 453.068 1364.45L453.062 1364.5ZM452.01 1363.97C451.99 1363.92 451.972 1363.88 451.956 1363.82C452.004 1363.96 452.158 1363.87 452.282 1363.87C452.196 1363.92 452.101 1363.95 451.997 1363.94L452.01 1363.97ZM452.79 1366.64C452.879 1366.88 452.96 1367.11 453.18 1367.32C452.999 1367.3 452.816 1367.29 452.636 1367.29C452.671 1366.99 452.727 1366.8 452.776 1366.6L452.79 1366.64ZM453.457 1367.86C454.385 1369.61 455.217 1371.39 455.955 1373.22C454.992 1372.94 454.681 1372.14 454.245 1370.71C453.807 1369.28 453.421 1368.1 452.415 1367.98C452.782 1368.03 453.124 1367.98 453.444 1367.82L453.457 1367.86ZM457.632 1381.54L456.875 1381.66C456.765 1381.33 456.743 1381.01 456.813 1380.69L457.57 1381.37L457.632 1381.54ZM453.011 1366.05C453.167 1365.8 453.376 1365.6 453.635 1365.45C453.605 1365.61 453.532 1365.74 453.416 1365.84C453.297 1365.95 453.159 1366.01 452.997 1366.01L453.011 1366.05ZM452.555 1363.21C452.569 1363.29 452.561 1363.36 452.531 1363.43L452.555 1363.21ZM450.439 1357.82C450.453 1357.96 450.457 1358.1 450.452 1358.25C449.763 1358.56 449.04 1358.77 448.28 1358.89C448.904 1358.69 449.488 1358.42 450.041 1358.08C450.174 1357.99 450.303 1357.88 450.425 1357.78L450.439 1357.82ZM421.676 1340.16C421.888 1340.21 422.062 1340.33 422.194 1340.51C421.821 1341.13 421.312 1341.61 420.664 1341.96C420.91 1341.3 421.249 1340.7 421.676 1340.16ZM425.257 1363.66L425.587 1362.98L426.984 1362.75L428.703 1362.45C427.596 1362.92 426.459 1363.32 425.296 1363.65L425.257 1363.66ZM434.588 1362.6L437.024 1362.29C437.222 1364.19 435.915 1363.14 434.626 1362.59L434.588 1362.6ZM437.06 1352.24C437.311 1352.02 437.306 1351.9 437.527 1351.94C436.816 1351.73 436.153 1352.34 435.139 1352.83C434.68 1353.16 434.169 1353.4 433.611 1353.55C433.052 1353.69 432.478 1353.73 431.889 1353.67C432.422 1352.53 434.356 1352.94 434.155 1352.5C435.764 1351.27 435.232 1351.39 434.153 1351.64C433.078 1351.9 431.21 1352.25 432.479 1351.49L433.109 1351.31C433.893 1350.81 432.394 1351.21 430.284 1351.56C429.598 1351.77 428.807 1351.79 428.154 1351.86C427.862 1351.9 427.567 1351.92 427.269 1351.91C427.104 1351.96 426.655 1351.97 426.992 1351.77C426.992 1351.77 427.732 1351.55 428.382 1351.36C424.259 1351.77 425.17 1349.58 426.152 1347.98C428.208 1348.55 426.827 1348.65 429.834 1348.45C429.926 1348.19 428.816 1348.19 427.673 1348.15C426.529 1348.11 425.532 1347.91 426.151 1347.12C428.228 1346.48 430.376 1346.32 432.593 1346.65L431.626 1347.5C433.542 1347.51 433.639 1347.38 433.702 1347.05C433.767 1346.72 433.429 1346.3 433.981 1346.17L435.007 1346.68C435.276 1346.37 435.363 1346.01 435.269 1345.59L437.021 1345.84L436.088 1345.7L436.846 1345.81L440.299 1346.32C439.02 1346.14 439.724 1346.26 441.315 1346.52L441.375 1347.02L441.464 1347.27C441.464 1347.27 441.371 1347.3 441.511 1347.4L442.197 1347.59L444.944 1348.32L445.632 1348.51L445.907 1348.6C445.903 1348.85 445.849 1349.09 445.737 1349.31C445.492 1349.75 445.152 1350.1 444.721 1350.37C444.332 1350.63 443.902 1350.81 443.434 1350.9C442.964 1351 442.49 1351.01 442.005 1350.92C440.423 1351.52 438.787 1351.95 437.098 1352.23L437.06 1352.24ZM463.38 1401.66C462.718 1402.67 461.859 1403.14 461.624 1403.79C461.961 1403.19 462.183 1402.54 462.284 1401.84C462.383 1401.14 462.361 1400.44 462.211 1399.74C462.123 1398.76 462.323 1397.86 462.814 1397.04L462.903 1400.35L464.188 1397.88L464.493 1397.48C464.551 1399 464.194 1400.39 463.417 1401.65L463.38 1401.66ZM468.079 1394.4C468.376 1395.5 468.34 1396.76 467.806 1397.1C467.44 1396.94 467.237 1395.19 466.913 1394.64C467.027 1395.85 466.715 1396.47 466.244 1396.75C465.522 1396.99 464.915 1397.4 464.421 1397.96C464.486 1397.55 464.608 1397.17 464.786 1396.81L467.09 1392.17C467.55 1392.86 467.894 1393.6 468.116 1394.38L468.079 1394.4ZM468.9 1391.44L468.857 1392.23C468.86 1392.37 468.878 1392.51 468.907 1392.65C468.951 1392.9 468.981 1393.15 468.991 1393.39C469.03 1393.96 469.027 1394.52 468.987 1395.08C467.952 1393.87 468.02 1393.5 468.084 1393.1C468.147 1392.71 468.081 1392.42 467.143 1391.92L468.478 1389.26L468.936 1389.72C468.96 1390.3 468.95 1390.85 468.994 1391.42L468.9 1391.44ZM442.435 1298.17C442.435 1298.17 442.623 1298.24 441.753 1296.29C443.124 1298.49 444.182 1301.7 443.471 1299.39C443.688 1299.99 443.947 1300.7 444.152 1301.27L443.537 1301.55L443.496 1301.44L443.53 1301.53C442.573 1300.03 442.376 1299.09 441.189 1297.23C442.18 1298.39 443.007 1299.65 443.669 1301.01C442.575 1298.67 442.442 1298.25 442.472 1298.16L442.435 1298.17ZM443.184 1301.89L442.517 1302.08C442.342 1301.66 442.116 1301.26 441.837 1300.89C442.05 1301.14 442.494 1301.57 442.357 1301.53C442.585 1301.48 442.89 1301.64 443.221 1301.88L443.184 1301.89ZM443.416 1302.53L442.673 1302.75L443.456 1302.64L443.416 1302.53ZM439.859 1296.16C440.816 1297.22 441.615 1298.37 442.259 1299.62C442.682 1300.33 443.114 1301.01 443.662 1301.79L443.308 1301.89C441.89 1300.13 440.776 1298.21 439.97 1296.13L439.859 1296.16ZM442.211 1295.91C441.856 1293.74 443.373 1298.5 444.363 1301.29C442.706 1296.88 443.053 1297.78 442.348 1295.95L442.211 1295.91ZM446.32 1302.04L444.618 1302.27L446.313 1302.02L446.32 1302.04ZM446.046 1297.14C446.084 1297.61 446.095 1298.08 446.082 1298.55L446.139 1299.16L446.115 1299.77C446.087 1300.09 446.045 1300.37 446.003 1300.65L445.21 1301.02L445.117 1301.04C445.097 1300.99 445.078 1300.94 445.062 1300.89C445.089 1300.51 445.173 1300.24 445.334 1300.96C445.456 1299.26 445.315 1298.13 445.483 1296.5C445.863 1296.01 446.101 1296.5 446.184 1297.18L446.046 1297.14ZM442.927 1288.53C443.914 1293.69 442.767 1289.45 443.416 1293.11C443.465 1292.51 443.568 1291.93 443.723 1291.35C443.892 1290.91 444.197 1290.9 444.468 1291.88C444.849 1295.93 443.659 1291.69 444.478 1296.04L443.784 1293.56C445.103 1301.17 443.484 1292.74 444.84 1300.73L444.874 1300.82L444.78 1300.85C444.795 1300.92 444.817 1300.98 444.849 1301.04L444.441 1301.16C443.751 1298.94 443.204 1296.69 442.8 1294.42C443.147 1295.38 443.263 1295.7 443.511 1297.06C443.26 1295.97 443.112 1295.22 443.045 1294.7C442.979 1294.18 443.047 1294.36 443.111 1294.37C443.174 1294.37 443.378 1294.77 443.309 1293.89C443.284 1293.54 443.237 1293.02 443.146 1292.25L443.439 1293.69C442.8 1290.34 442.357 1288.03 441.984 1286.1C442.255 1286.56 442.083 1283.99 442.753 1287.54C442.576 1287.05 442.734 1288.39 442.82 1289.31C442.926 1289.15 442.942 1288.86 442.991 1288.59L442.927 1288.53ZM447.638 1299.21C447.898 1299.14 448.065 1299.09 448.139 1299.46L447.638 1299.21ZM470.08 1344.45L469.946 1344.37L470.187 1344.3L470.08 1344.45ZM474.616 1354.48C474.541 1354.27 474.466 1354.07 474.391 1353.86L474.939 1353.84C474.867 1354.08 474.781 1354.32 474.681 1354.55L474.616 1354.48ZM483.806 1343.9C483.529 1345.23 483.021 1346.22 481.645 1345.71C482.164 1346.35 482.555 1346.06 482.866 1345.85C483.179 1345.63 483.401 1345.56 483.404 1346.87C481.867 1346.43 481.789 1346.96 481.693 1347.82C481.594 1348.68 481.316 1350.01 480.069 1349.86C479.573 1348.09 481.02 1347.89 479.037 1347.69C479.156 1347.97 479.212 1348.26 479.207 1348.56C479.145 1349.41 478.242 1349.47 477.406 1349.26C476.571 1349.05 475.854 1348.49 475.371 1348.63C475.451 1349.75 474.651 1349.93 473.66 1349.58L472.961 1349.35L472.995 1348.19C472.921 1347.42 472.27 1346.93 471.567 1346.41C471.304 1345.67 471.091 1344.93 470.926 1344.18L471.372 1344.05C470.772 1343.47 470.132 1342.89 469.498 1342.33L470.009 1341.93C469.875 1341.94 469.751 1341.98 469.638 1342.04L469.397 1342.11C469.261 1342 469.131 1341.89 469.006 1341.77C469.586 1341.45 470.143 1341.1 470.676 1340.71C470.765 1340.96 470.365 1341.39 469.985 1341.75C470.864 1341.34 472.262 1341.35 471.679 1340.25L470.918 1340.87C470.649 1340.74 470.464 1340.54 470.368 1340.26L470.702 1339.93L470.491 1339.35C470.783 1338.62 471.166 1337.94 471.646 1337.32L472.738 1337.95C472.548 1337.43 472.455 1336.89 472.34 1336.34C473.794 1337.44 475.389 1338.23 477.122 1338.72C477.183 1338.89 477.114 1339.09 477.078 1339.33C477.231 1339.2 477.368 1339.04 477.489 1338.88C478.154 1339.12 478.753 1339.49 479.281 1339.97C478.55 1339.94 477.812 1339.89 477.054 1339.78C478.616 1340.54 480.217 1341.18 481.86 1341.71L481.091 1341.06C481.658 1341.04 482.293 1341.2 481.814 1343.05C482.075 1342.41 482.323 1341.74 482.563 1341.04C483.058 1341.41 483.599 1341.64 484.194 1341.74C484.171 1342.59 484.012 1343.34 483.87 1343.97L483.806 1343.9ZM482.597 1341.13L482.931 1340.18C482.182 1340.61 481.219 1341.13 481.318 1339.64C481.038 1340 480.782 1340.37 480.553 1340.76L479.56 1339.95C482.453 1340.05 480.337 1337.39 483.251 1339.25C482.992 1339.33 483.306 1339.4 483.89 1339.71C484.252 1339.88 484.604 1340.08 484.943 1340.29C484.616 1340.72 484.377 1341.19 484.224 1341.72C483.725 1341.47 483.204 1341.3 482.662 1341.2L482.597 1341.13ZM482.695 1335.27C482.831 1335.65 482.678 1335.97 482.553 1336.36C482.306 1336.14 482.11 1335.89 481.967 1335.59L482.695 1335.27ZM479.175 1326.46L479.025 1324.86C479.202 1325.11 479.309 1325.39 479.348 1325.68C479.386 1325.98 479.348 1326.26 479.239 1326.53L479.175 1326.46ZM483.489 1335.6L484.669 1336.48L483.204 1336.91C483.046 1336.82 482.924 1336.71 482.783 1336.6C483.009 1336.24 483.255 1335.9 483.521 1335.57L483.489 1335.6ZM496.043 1351.83C494.69 1351.61 493.341 1351.35 491.995 1351.2C490.65 1351.06 489.814 1350.85 488.644 1350.8C488.422 1350.87 488.108 1350.79 487.815 1350.77C488.189 1349.94 488.272 1349.05 488.065 1348.12C488.334 1348.18 488.588 1347.52 488.827 1347.16C489.067 1346.8 489.398 1346.47 490.037 1346.93C490.233 1344.35 488.942 1347.25 488.258 1346.73C488.163 1345.8 488.206 1344.89 488.391 1343.99C488.573 1343.09 488.888 1342.26 489.332 1341.47C489.903 1341.53 490.442 1341.72 490.947 1342.01C491.24 1342.82 490.2 1344.32 490.421 1344.82C491.494 1343.75 493.868 1344.52 495.759 1344.52C496.28 1344.72 496.704 1344.87 497.128 1345.08C497.077 1345.27 497.064 1345.47 497.097 1345.67L497.454 1345.29C498.217 1345.85 498.857 1346.52 499.373 1347.31C497.137 1346.8 499.459 1348.45 497.199 1346.58C498.141 1347.59 498.634 1348.38 499.282 1348.98C499.914 1349.5 500.616 1349.88 501.387 1350.13C502.157 1350.38 502.936 1350.47 503.722 1350.41C503.114 1350.72 503.179 1351.18 503.729 1351.62C501.236 1352.32 498.686 1352.38 496.073 1351.81L496.043 1351.83ZM486.473 1325.8C486.296 1325.4 486.149 1324.99 486.03 1324.58C486.847 1323.38 488.013 1325.4 488.139 1325.64L486.473 1325.8ZM488.848 1330.09L488.916 1330.28C488.907 1330.23 488.888 1330.18 488.861 1330.13L488.848 1330.09ZM487.815 1319.98C488.364 1320.36 488.743 1319.94 489.33 1319.29C488.995 1317.74 487.08 1318.12 487.698 1316.54C488.534 1316.85 489.351 1317.21 490.145 1317.63C489.749 1317.04 489.325 1316.47 488.871 1315.92C488.637 1315.62 488.371 1315.28 488.134 1314.91L487.769 1314.35C487.769 1314.35 487.687 1314.13 487.667 1314.07L487.766 1313.89L487.856 1313.74C488.043 1313.76 488.218 1313.81 488.381 1313.92C488.544 1314.02 488.673 1314.16 488.765 1314.33C488.808 1314.41 488.84 1314.5 488.861 1314.59L489.19 1314.93C489.396 1315.15 489.622 1315.36 489.864 1315.54L489.612 1314.85L489.695 1314.68C489.848 1314.45 489.973 1314.2 490.064 1313.94L490.01 1314.65C491.639 1315.06 491.104 1316.13 492.306 1317.3C491.038 1319.41 490.123 1321.68 489.558 1324.11C489.871 1324.98 490.091 1325.25 490.42 1325.36L488.255 1325.56C488.583 1324.67 488.712 1323.73 488.641 1322.76C488.571 1321.78 488.305 1320.85 487.845 1319.96L487.815 1319.98ZM503.215 1353.37L503.978 1351.79C504.196 1351.93 504.425 1352.05 504.661 1352.15C505.112 1352.31 505.572 1352.42 506.038 1352.5C505.615 1353.71 505.173 1354.81 503.246 1353.35L503.215 1353.37ZM506.458 1351.5L505.863 1351.28L506.587 1351.29C506.547 1351.34 506.513 1351.4 506.487 1351.47L506.458 1351.5ZM509.725 1350.65C510.657 1350.23 511.401 1349.6 511.951 1348.74C512.153 1348.77 512.318 1348.87 512.445 1349.03C512.678 1349.34 512.448 1349.55 514.375 1349.48C510.999 1350.48 510.994 1350.3 512.01 1350.5C512.487 1350.56 513.135 1350.77 513.13 1350.98C513.121 1351.19 512.408 1351.32 510.609 1350.99L513.213 1351.49C515.531 1352.22 511.593 1351.33 511.046 1351.18C512.957 1351.7 513.412 1351.64 514.672 1352.06C515.358 1353.11 512.94 1352.95 511.308 1352.47C510.841 1352.35 510.398 1352.16 509.977 1351.91C510.185 1351.83 510.379 1351.72 510.559 1351.59C510.261 1351.68 510.02 1351.75 509.742 1351.84C509.464 1351.92 509.483 1351.68 509.392 1351.61C509.206 1351.46 509.053 1351.28 508.933 1351.08C509.197 1350.95 509.446 1350.81 509.682 1350.65L509.725 1350.65ZM495.065 1293.84C494.273 1295.45 493.241 1297.25 492.569 1298.29C493.09 1297.56 493.711 1296.93 494.432 1296.4C493.484 1297.64 493.204 1297.89 492.605 1298.67C494.946 1295.89 490.127 1302.09 492.268 1299.5C492.8 1298.76 493.686 1297.75 494.088 1297.21C492.738 1299.15 492.623 1299.52 492.916 1299.64L492.95 1299.74L491.605 1300.9C491.386 1301.26 491.537 1301.28 491.789 1301.41C491.905 1301.5 491.987 1301.62 492.036 1301.75C492.086 1301.89 492.094 1302.03 492.062 1302.16C492.711 1301.97 494.985 1301.61 495.096 1302.2C494.443 1302.27 493.776 1302.3 493.085 1302.32C494.243 1302.68 493.887 1301.87 495.239 1302.6C494.994 1303.11 493.997 1302.97 493.201 1302.64C493.091 1302.38 492.913 1302.2 492.665 1302.07C492.414 1302.33 492.188 1302.61 491.986 1302.92C491.803 1302.8 491.609 1302.71 491.41 1302.63C492.505 1303.55 489.088 1305.07 490.997 1306.48L490.41 1306.45L490.342 1306.94L490.39 1307.08C490.226 1308.42 490.149 1309.78 490.159 1311.15C489.79 1311.25 489.474 1311.58 489.142 1311.74C489.374 1311.72 489.559 1311.81 489.693 1312.01C489.921 1312.33 490.048 1312.69 490.075 1313.07C490.145 1313.94 489.805 1314.02 489.213 1314.03C488.653 1314 488.105 1313.9 487.561 1313.73C487.747 1313.46 487.91 1313.17 488.056 1312.87C487.62 1312.73 487.183 1312.68 486.739 1312.72C486.296 1312.76 485.884 1312.88 485.502 1313.09L485.188 1313.18C485.188 1313.18 485.27 1313.41 485.31 1313.52C485.393 1313.8 485.493 1314.08 485.61 1314.35C485.821 1314.93 486.224 1315.48 486.541 1316.01C486.856 1316.54 487.157 1317.03 487.378 1317.47C487.625 1317.96 487.77 1318.47 487.812 1319.01L485.211 1318.01C486.024 1318.89 486.8 1319.79 487.57 1320.72C486.997 1321.35 485.649 1321.77 485.172 1320.46C484.134 1322.41 486.225 1322.23 484.957 1323.83C484.75 1324 484.625 1323.93 484.52 1323.75C484.752 1324.39 485.074 1325.01 485.33 1325.6C484.783 1325.22 483.59 1325.84 483.899 1324.71C483.738 1325.13 483.645 1325.57 483.614 1326.02L483.169 1326.15C481.966 1326.27 480.819 1326.03 479.723 1325.43C479.969 1325.14 479.761 1324.62 480.547 1324.87C480.034 1324.74 479.518 1324.64 478.997 1324.56L478.895 1323.65C478.71 1323.63 478.584 1323.52 478.517 1323.35C478.456 1323.54 478.443 1323.75 478.483 1323.96C478.523 1324.17 478.609 1324.36 478.741 1324.53C476.249 1324.23 473.883 1324.55 471.4 1324.16L469.877 1323.93L471.431 1322.55C471.812 1321.11 472.139 1319.74 472.404 1318.43C472.766 1318.01 473.422 1318.46 473.167 1319.35C475.127 1317.96 472.697 1318.05 473.19 1316.34C473.977 1315.17 474.877 1315.84 474.578 1317.12C475.108 1315.86 475.664 1314.44 476.426 1313.03C477.186 1311.62 478.012 1310.04 478.273 1309.4C478.625 1308.58 479.126 1307.87 479.775 1307.27C480.424 1306.66 481.172 1306.21 482.021 1305.91L482.063 1306.65C483.988 1305.56 480.842 1302.43 483.408 1302.09L483.398 1302.57C484.294 1301.83 485.127 1301.03 485.894 1300.16L486.988 1298.98C487.156 1298.77 487.336 1298.57 487.531 1298.38C488.268 1297.64 489.263 1297.1 489.835 1298.45C489.751 1296.75 490.163 1296.75 490.462 1296.72C490.761 1296.7 491.018 1296.56 491.531 1293.55C491.765 1294.47 491.809 1295.39 491.666 1296.3C491.571 1297.12 491.555 1297.82 491.429 1298.77C491.4 1299.03 493.387 1294.02 494.263 1292.93L492.528 1296.92C493.244 1295.44 494.08 1293.9 494.969 1292.32C494.268 1293.91 493.527 1295.55 492.623 1297.19L493.457 1295.92C493.865 1294.88 494.334 1293.87 494.869 1292.9C495.274 1292.32 495.519 1292.14 495.559 1292.25C495.6 1292.37 495.459 1293.05 495.095 1293.81L495.065 1293.84ZM454.018 1408.08C453.88 1407.89 453.718 1407.73 453.529 1407.58C453.68 1407.75 453.851 1407.89 454.035 1408.02L454.018 1408.08ZM460.547 1300.72C460.547 1300.72 460.417 1300.76 460.293 1300.59C460.257 1300.74 460.24 1300.91 460.245 1301.08L460.858 1300.9L460.547 1300.72ZM423.518 1368.61C423.469 1368.53 423.437 1368.44 423.423 1368.35C423.423 1368.35 423.47 1368.48 423.497 1368.55L423.518 1368.61ZM492.335 1297.75L492.742 1296.84L492.324 1297.67L492.335 1297.75ZM465.028 1396.8C465.028 1396.8 465.028 1396.8 465.139 1396.77C465.195 1396.12 465.096 1396.36 464.896 1396.78L465.028 1396.8ZM454.733 1376.31C455.099 1376.59 455.43 1376.9 455.73 1377.25C455.603 1376.62 455.493 1376.09 454.622 1376.35L454.733 1376.31ZM456.063 1378.79C456.147 1378.53 456.161 1378.27 456.102 1377.99C456.04 1377.71 455.917 1377.47 455.73 1377.25C455.612 1377.77 455.678 1378.27 455.93 1378.77L456.063 1378.79ZM408.203 1344.07C408.722 1343.92 409.205 1343.77 409.724 1343.62L410.874 1343.28C410.188 1342.86 409.323 1342.28 410.185 1341.71C408.46 1341.43 408.76 1341.7 409.138 1342.17C409.34 1342.41 409.437 1342.68 409.431 1342.98C409.4 1343.4 409.03 1343.74 408.073 1344.05L408.203 1344.07ZM397.694 1346.75C399.105 1346 396.407 1346.15 395.963 1345.89C395.387 1346.62 395.422 1346.78 397.561 1346.73L397.694 1346.75ZM441.107 1369.71C441.54 1369.37 441.015 1369.11 440.879 1368.17L441.107 1369.71ZM444.521 1372.22L444.316 1372.28C444.517 1372.31 444.711 1372.37 444.897 1372.46L444.521 1372.22ZM485.99 1368.25L484.127 1368.33C484.299 1369.09 486.373 1369.53 485.878 1368.29L485.99 1368.25ZM515.32 1364.74C513.909 1364.7 512.429 1364.02 511.869 1364.29C512.517 1365.22 514.579 1365.76 515.21 1364.78L515.32 1364.74ZM511.634 1272.61L511.171 1271.33L511.006 1272.47C511.181 1272.52 511.352 1272.58 511.524 1272.65L511.634 1272.61ZM490.958 1318.51C490.825 1318.14 490.613 1317.83 490.325 1317.55C490.451 1317.85 490.56 1318.15 490.652 1318.46L490.958 1318.51ZM474.818 1349.71C474.921 1349.25 475.169 1348.9 475.567 1348.66C475.532 1348.25 475.469 1347.84 475.375 1347.44C475.022 1347.38 474.898 1349.02 474.708 1349.75L474.818 1349.71ZM484.691 1323.66L484.466 1323.04C484.397 1323.25 484.475 1323.52 484.586 1323.71L484.691 1323.66ZM461.913 1388.99L461.79 1388.66L460.861 1388.64L461.913 1388.99ZM490.81 1319.12C490.868 1319.44 490.909 1319.76 490.932 1320.08C490.918 1319.76 490.841 1319.45 490.697 1319.15L490.81 1319.12ZM441.77 1350.78L442.078 1350.9L442.359 1350.82L441.77 1350.78ZM490.036 1318.58C490.459 1318.66 490.701 1318.82 490.81 1319.12C490.735 1318.91 490.66 1318.71 490.578 1318.48C490.496 1318.25 490.052 1318.45 489.871 1318.62L490.036 1318.58ZM471.952 1344.06L471.544 1344.18L472.013 1344.63L471.952 1344.06ZM477.404 1348.17C478.276 1347.52 476.963 1347.24 476.927 1346.86C476.526 1347.62 476.289 1347.82 477.293 1348.21L477.404 1348.17ZM495.394 1345.05L494.384 1346.12C495.565 1346.83 494.633 1345.73 495.337 1345.07L495.394 1345.05ZM442.239 1349.75C442.737 1349.93 443.264 1350.09 443.794 1350.24C443.87 1349.89 442.096 1349.35 442.126 1349.78L442.239 1349.75Z" fill="#FF75A4"/>
<mask id="mask0_2252_1035" style="mask-type:luminance" maskUnits="userSpaceOnUse" x="0" y="0" width="1451" height="1367">
<path d="M824.314 0.185059L1450.75 545.98L626.853 1366.02L0.418952 820.226L824.314 0.185059Z" fill="white"/>
</mask>
<g mask="url(#mask0_2252_1035)">
<path d="M1136.31 850.401C1137.06 850.655 1134.99 856.153 1141.2 847.888C1145.65 841.271 1149.57 834.564 1152.99 827.77C1156.11 821.149 1158.7 814.564 1160.78 807.982C1162.83 801.614 1164.39 795.322 1165.49 789.126C1166.39 783.166 1166.91 777.31 1167.07 771.576C1167.37 760.253 1166.33 749.538 1163.95 739.469C1161.62 729.097 1158.32 719.321 1154.05 710.141C1154.96 710.868 1155.72 711.745 1156.26 712.812C1151.19 700.555 1144.5 689.542 1136.21 679.759C1128.31 670.722 1121.27 661.84 1115.07 653.435C1112.02 650.872 1103.85 642.509 1104.59 646.646C1107.46 650.585 1105.94 652.787 1104.51 653.606C1097.86 647.187 1096.93 645.03 1096.78 643.157C1096.63 641.273 1097.09 639.867 1092.67 635.58C1092.94 630.036 1099.85 639.549 1102.46 637.204L1088.51 625.739C1082.15 617.881 1073.57 612.157 1068.27 605.076C1070.86 608.015 1071.47 603.739 1075.07 609.338C1074.22 608.761 1074.51 609.418 1073.68 608.85C1083.51 618.882 1081.22 613.98 1089.33 620.487C1085.18 617.053 1080.58 613.139 1076.17 609.179C1071.15 604.615 1065.96 600.471 1062.36 596.678C1062.14 600.138 1055.25 591.819 1051.66 591.289L1051.34 590.692C1050.5 591.525 1044.84 588.09 1043.02 587.105L1043.33 583.029C1039.4 580.509 1043.17 585.076 1039.28 582.559C1037.84 581.715 1035.66 580.129 1033.08 578.347C1030.5 576.539 1027.52 574.533 1024.79 572.467C1019.32 568.326 1014.79 564.066 1015.25 562.343C1008.28 558.274 1005.04 558.504 998.339 553.762C999.466 553.433 1001.39 554.238 1001.94 554.059C994.875 548.933 985.916 544.469 977.516 539.555C968.949 534.808 960.174 530.505 953.257 525.852C942.527 521.157 931.038 517.581 918.791 515.125C922.547 516.211 932.343 520.936 924.764 519.923C919.383 518.889 914.245 517.441 909.405 515.567C911.697 514.659 896.463 508.914 908.144 512.126C907.78 507.686 883.404 504.563 885.78 501.448C882.622 501.289 866.334 496.249 859.059 496.157C858.572 494.39 868.618 497.708 869.22 496.765L861.382 495.089L861.979 494.172C857.196 492.285 851.807 491.431 845.867 491.596C841.549 491.926 837.43 491.866 833.485 491.396L834.042 491.1L827.768 490.225L836.33 489.315C826.691 487.351 820.134 488.946 809.085 487.377L808.474 486.376L801.461 486.044C802.635 486.098 803.219 485.796 802.641 485.448C795.111 486.789 781.466 483.708 774.523 484.936C770.383 483.953 768.378 480.394 761.475 481.626L764.229 478.778C778.894 480.499 768.45 481.675 784.324 482.794C775.199 477.186 743.273 473.388 722.851 470.148C712.899 469.223 703.378 467.549 694.277 465.179C689.559 464.191 685.399 462.971 681.6 462.442C678.758 461.84 675.675 461.777 672.352 462.254L675.119 460.98L663.209 456.194L651.98 450.751C647.098 448.684 642.337 446.41 637.829 443.95L631.477 439.915L628.352 437.942C627.373 437.245 626.493 436.447 625.547 435.717C621.925 432.717 618.055 430.157 615.145 427.028C612.017 424.115 608.726 421.623 606.224 418.881L605.337 414.36C601.233 411.346 597.99 407.584 595.612 403.045C592.619 397.533 590.377 391.551 588.893 385.073C585.768 371.95 585.48 358.019 583.15 352.554C585.583 341.212 585.303 355.085 586.35 355.716C587.039 351.663 586.35 346.753 586.861 341.42C586.956 338.88 587.255 336.266 587.751 333.607C588.281 331.257 589.178 328.884 590.46 326.472C591.42 326.309 588.511 337.954 590.38 332.555C591.671 329.963 592.289 327.503 592.224 325.167C592.149 322.603 592.945 319.924 594.612 317.128C591.827 320.479 593.834 306.581 597.802 295.983C597.499 296.907 597.049 297.826 596.475 298.763C595.496 299.565 595.817 298.002 596.568 295.689C597.307 293.366 598.771 290.301 599.604 288.121C599.702 288.581 599.636 289.118 599.402 289.695C604.865 275.465 611.746 261.347 620.05 247.313C624.139 240.069 628.978 232.916 633.735 225.693C638.875 218.584 643.99 211.391 649.755 204.452C661.135 190.38 673.5 176.98 686.81 164.247C699.97 151.727 713.709 139.96 728.055 128.941C724.8 131.946 721.682 135.07 718.534 138.074C726.927 130.364 735.819 123.401 745.187 117.165L744.052 118.144C749.662 115.005 754.928 111.222 759.877 106.789C763.985 102.872 768.481 99.9192 773.35 97.9463L771.085 99.7513C789.829 87.0991 801.899 82.6551 820.312 70.5894C835.344 63.1977 833.956 65.33 844.442 61.0049C849.03 58.8184 853.324 55.9384 857.301 52.3448L853.105 54.3115C848.321 55.1711 862.05 48.5184 868.206 44.7932C863.312 44.8393 865.385 39.8375 847.228 46.6299C834.307 54.1733 833.823 49.7227 819.082 58.3047C811.47 65.9455 797.344 68.3178 784.879 79.2882C791.287 72.9098 768.684 88.3524 779.559 78.9007C773.474 82.1259 767.667 85.9981 762.117 90.4705C755.342 95.842 748.361 100.753 741.151 105.184C742.605 103.609 741.997 103.485 744.299 101.493C730.578 112.963 733.852 107.539 723.353 115.694L724.836 117.049C721.172 120.696 719.192 120.501 715.871 123.698C718.772 121.541 725.226 117.669 722.55 120.803C718.35 124.984 714.018 129.017 709.525 132.91C709.012 132.37 712.332 129.172 714.587 127.014C714.587 127.014 711.807 129.245 708.867 131.463C706.789 133.275 704.58 134.786 702.226 136.015C705.66 132.104 710.777 127.911 713.618 124.14C698.675 135.732 712.095 124.562 704 129.252C707.448 129.445 692.046 140.7 684.971 148.278C683.545 148.347 690.045 143.142 691.483 140.896C684.108 145.277 677.652 150.802 672.104 157.461C665.821 164.98 659.252 172.312 652.408 179.466C653.246 178.01 654.233 176.621 655.435 175.295C652.025 179.226 648.465 183.027 644.727 186.704C641.521 189.595 638.887 192.796 636.829 196.281C633.028 200.622 632.078 200.731 630.707 201.473C629.325 202.206 627.375 203.567 622.18 210.69C624.891 209.086 621.703 213.18 618.073 217.887C614.538 222.584 610.919 227.988 612.072 228.556C609.045 232.04 606.053 235.555 603.266 239.186C600.957 244.294 602.547 243.869 603.222 244.613C604.044 245.36 603.477 247.146 598.394 256.709C587.603 274.011 594.561 254.37 587.317 264.518L586.749 269.051L581.221 277.726L581.754 276.38C579.583 281.672 575.158 291.309 574.156 291.341C573.814 290.481 576.351 284.696 576.02 283.846C575.016 286.968 573.66 290.098 571.999 293.21C570.06 297.048 568.108 301.5 566.059 305.962C564.059 310.247 562.473 314.549 561.316 318.789C560.14 322.168 559.838 325.278 560.387 328.098C558.234 333.437 555.655 344.152 554.523 343.134C554.707 347.604 554.113 352.334 552.78 357.263C551.704 362.666 551.288 367.862 551.536 372.826C550.751 372.235 549.465 379.048 550.056 383.842C550.941 376.742 551.768 380.68 553.009 384.634C552.597 389.397 552.641 393.964 553.135 398.361C553.768 403.285 554.423 407.823 553.304 409.752C554.815 413.63 556.276 414.278 557.261 414.262C558.275 414.239 559.156 413.383 560.379 413.668C560.519 415.694 560.804 417.661 561.259 419.525L562.04 423.079L563.169 426.373C564.584 430.605 565.449 434.076 563.371 433.827C562.562 431.716 561.217 428.359 559.954 425.884C558.692 423.41 557.885 421.489 557.14 423.089C557.892 427.679 558.873 428.097 559.448 428.597C560.967 429.358 562.016 430.523 562.619 432.11C561.842 432.026 562.933 437.63 561.496 437.066C563.424 440.744 566.871 445.247 569.678 450.409C565.749 441.989 574.922 453.51 572.922 448.145L565.953 442.73C564.892 441.492 564.127 440.045 563.642 438.404C563.453 437.584 563.643 437.374 563.953 437.301C564.585 437.165 565.681 437.682 565.144 435.622C566.774 438.697 568.839 441.402 571.385 443.714C572.829 445.128 574.407 446.41 576.103 447.574C580.619 450.198 584.825 453.175 588.757 456.445C590.739 459.296 592.979 461.935 595.448 464.367C591.01 461 589.477 464.006 591.533 466.484C593.717 467.419 595.662 468.614 597.379 470.079C599.099 471.39 600.666 472.661 602.071 474.072C604.578 476.445 606.644 479.213 609.378 481.188C607.765 479.877 607.769 479.037 608.388 478.764C609.811 478.505 611.126 478.526 612.303 478.834C628.116 484.647 617.225 482.685 622.732 487.046C628.761 489.301 633.945 491.818 638.973 493.826C644.046 495.746 648.633 497.807 653.264 499.437C657.879 501.084 662.434 502.555 667.162 503.832C671.933 504.959 676.871 505.919 682.298 506.587L674.095 501.97L669.419 503.58C662.995 500.045 674.078 498.707 679.286 498.091C679.847 499.205 692.678 501.358 686.876 501.644L699.785 502.927C698.545 501.566 690.337 500.537 696.726 500.482C700.292 502.058 712.688 504.644 703.914 504.714C710.419 505.853 719.248 506.393 718.566 504.799C729.177 506.268 715.784 507.654 710.523 507.786C718.795 509.309 716.559 511.171 713.657 511.422L725.48 512.885C722.573 513.162 722.033 514.129 719.153 514.4C726.318 516.426 733.268 514.611 738.673 517.509L742.682 515.942C762.719 520.595 760.452 520.493 779.402 523.761L777.06 521.783C792.818 521.645 786.104 525.947 805.614 528.422C816.533 529.971 823.702 530.877 823.808 528.22C827.78 528.276 830.853 529.549 832.983 532.061C841.567 531.794 849.269 533.07 856.089 535.889C850.691 535.215 846.366 534.695 841.542 533.771C841.363 536.457 857.015 538.57 863.464 542.252L879.171 544.288C885.715 545.429 892.862 546.659 898.102 547.383C895.375 544.007 898.871 541.9 908.369 543.211C906.145 544.052 917.982 549.275 922.652 552.626C918.95 552.773 932.231 561.19 920.349 556.741C917.568 554.598 917.465 552.042 912.408 550.727C916.57 555.291 921.301 559.288 926.568 562.752C922.959 562.7 919.78 561.96 916.999 560.568C919.599 560.897 918.7 559.926 918.831 559.259C903.788 554.804 919.304 563.763 915.935 564.544C920.052 565.571 927.279 569.743 924.732 566.681C929.004 573.495 947.409 575.226 952.295 582.2C952.904 582.044 949.586 578.591 955.328 580.596C959.148 582.112 961.947 584.644 963.73 588.166C968.559 589.75 972.916 591.89 976.8 594.65C982.336 596.881 974.489 588.201 982.488 591.048C989.125 591.646 993.352 597.796 999.077 600.848C1003.92 606.752 991.914 597.512 988.668 596.433L1007.15 607.884C1009.11 610.373 1008.07 610.465 1005.94 609.39C1003.06 607.971 1000.4 606.309 997.949 604.394C1003.84 610.522 1013.42 616.276 1017.13 616.049C1020.59 618.782 1023.8 621.791 1026.69 625.064C1022.03 622.69 1019.19 626.028 1012.59 621.682C1002.69 613.551 1018.51 622.247 1010.32 615.02L1007.86 616.249C1004.79 612.979 1001.04 610.43 996.616 608.636C994.737 606.561 997.722 608.35 999.525 609.172C991.838 604.129 987.032 598.661 979.157 597.172C987.947 605.642 1005.13 614.146 1007.2 619.698C1014.42 623.834 1021.63 627.996 1028.43 632.639C1029.25 631.823 1024.22 624.908 1030.6 628.25C1030.57 632.287 1035.27 637.691 1041.55 644.603C1041.41 639.946 1054.34 653.06 1052.86 647.992C1050.28 646.986 1048.89 644.999 1048.69 642.045C1055.33 648.264 1051.73 640.847 1055.43 644.234C1061.13 650.292 1060.65 650.531 1060.09 650.791C1059.53 651.051 1058.98 651.257 1064.03 657.658C1062.31 656.906 1059.47 655.374 1055.98 653.514C1052.46 651.672 1048.44 649.388 1044.73 646.715C1044.14 648.138 1051.31 652.857 1052.82 656.609C1050.28 651.74 1057.72 657.123 1055.12 653.577L1071.64 667.067C1077.51 671.812 1083.01 677.383 1088.43 683.254C1083.26 684.407 1068.62 664.905 1067.51 672.618C1073.16 677.949 1074.77 676.513 1078.51 681.52C1080.06 685.618 1082.37 689.13 1085.44 692.019C1088.76 696.068 1092.77 700.438 1095.96 704.684L1094.29 699.98C1098.07 703.779 1101.16 708.152 1103.52 713.114L1102.36 712.51C1103.41 713.584 1104.54 714.602 1105.52 715.732C1105.77 716.423 1105.73 716.663 1105.59 716.759C1109.43 720.049 1114.33 732.093 1118.4 740.633C1120.43 739.315 1114.9 731.744 1112.99 727.552C1112.9 726.125 1109.51 717.706 1112.82 720.535C1118.5 731.036 1124.18 737.265 1127.97 750.788L1127.31 746.177C1129.96 751.02 1131.52 756.528 1131.99 762.658C1132.33 775.636 1127.94 755.068 1127.89 763.078C1126.62 760.73 1125.76 758.136 1125.28 755.313C1124.65 752.575 1123.7 750.471 1122.33 750.617C1122.15 753.52 1121.97 756.397 1121.5 759.356C1122.94 761.954 1123.59 764.992 1123.48 768.452C1123.53 771.655 1123.38 774.678 1123.6 776.802C1123.99 775.019 1124.27 773.262 1124.43 771.532C1126.86 771.394 1125.39 776.647 1125.2 778.98L1128.19 774.372C1128.19 767.025 1124.67 763.746 1125.35 757.903C1126.45 761.42 1127.81 764.762 1129.44 767.926C1131.18 771.724 1131.93 776.062 1131.7 780.895C1131.09 781.485 1131 780.755 1130.96 779.748C1130.93 778.661 1130.68 777.691 1130.23 776.831C1130.11 779.731 1130.24 782.524 1130.58 785.228C1131.02 788.698 1130.73 792.415 1129.72 796.377C1129.74 793.894 1129.58 791.477 1129.24 789.153C1128.63 787.53 1128.04 787.389 1126.93 790.792L1128.67 794.717C1127.75 798.849 1127.15 797.415 1126.74 799.088C1124.94 804.891 1129.45 797.204 1126.75 806.472C1125.97 807.915 1124.33 810.984 1124.29 809.734C1120.76 820.088 1123.33 814.576 1120.19 824.394C1124.06 815.714 1127.69 815 1123.71 824.657C1116.69 837.932 1110.34 847.55 1101.11 854.43L1096.85 860.313C1097.84 858.021 1096.09 859.933 1093.23 862.374C1090.42 864.955 1087.5 867.41 1084.49 869.721C1083.44 869.523 1088.06 865.677 1092.69 861.56C1097.17 857.277 1101.31 852.487 1100.1 851.679C1092.72 858.617 1095.23 854.835 1096.78 852.13C1089.51 859.754 1095.66 856.399 1092.96 860.607C1090.48 862.068 1088.14 863.777 1085.93 865.758C1082.85 868.163 1080.04 869.497 1082.36 866.955C1079.59 868.88 1077.01 871.038 1074.63 873.466C1072.53 875.385 1070.26 877.026 1067.84 878.358C1068.55 877.035 1069.28 875.452 1068.43 874.838C1067.04 876.094 1065.53 877.059 1063.91 877.708L1058.5 880.087C1060.01 879.718 1055.89 883.282 1063.07 878.947C1060.2 881.352 1057.16 883.199 1053.95 884.49C1049.8 886.28 1045.92 887.957 1046.17 888.547C1045.41 887.237 1029.61 894.581 1021.44 896.148C1021.54 898.415 1025.46 896.715 1029.55 894.901C1033.68 893.128 1037.85 890.671 1039.2 892.132C1030.85 896.069 1022.53 899.032 1014.26 901.043C1004.06 903.991 993.006 906.226 983.753 908.939C968.564 910.353 984.289 907.032 981.617 905.704C995.944 902.508 999.184 903.207 1011.59 899.334L987.722 904.152C979.262 905.838 971.164 907.465 966.03 908.801C951.32 910.726 951.726 905.583 933.655 908.109C935.428 909.56 934.97 909.973 940.196 910.154C934.921 910.837 929.794 911.179 924.753 911.222C921.203 912.439 932.27 911.931 924.774 913.302C922.093 913.183 916.221 913.345 917.8 912.16L919.042 911.931C901.386 914.537 908.117 908.845 892.245 912.913C893.107 913.664 896.718 912.406 900.122 912.686C902.427 913.758 892.652 916.11 885.666 917.081C887.284 915.899 879.777 917.26 875.131 917.209C872.629 915.561 887.284 915.899 890.134 914.478L877.074 915.061L879.727 915.186L864.769 917.895C874.958 916.653 868.703 919.854 864.258 920.354C854.445 920.643 844.604 920.939 846.558 918.8C844.604 920.939 832.294 921.676 823.359 922.699C832.652 922.799 823.901 924.389 820.879 925.253L807.293 924.129C822.649 922.548 804.791 922.481 808.867 920.847C814.041 918.421 822.796 918.928 830.672 918.701C816.516 915.893 808.005 922.22 795.113 921.263C795.477 920.3 797.085 919.108 802.973 918.929C800.824 918.431 789.935 921.592 781.18 921.085C783.324 921.61 787.795 923.164 778.368 924.57L767.263 923.014C753.497 923.42 761.569 925.83 749.628 927.7L756.58 928.823C754.636 930.971 741.034 929.864 739.83 932.156C746.944 931.765 751.614 929.712 758.885 929.894C760.894 931.926 748.909 931.697 744.14 933.163C736.195 933.393 728.552 932.98 721.222 931.935C722.086 928.502 741.931 926.398 741.143 922.057C725.11 924.141 709.407 925.295 694.053 925.503C680.124 927.422 680.33 930.069 681.578 931.937C677.452 932.527 673.511 932.654 669.777 932.274L676.551 930.743C659.353 932.999 649.263 934.764 630.97 936.847C620.356 938.812 623.966 940.301 625.946 941.589C622.199 942.166 618.376 942.927 614.58 943.617L616.175 943.788C613.048 946.343 603.258 947.338 595.564 949.099C595.736 948.156 600.486 946.859 600.172 946.399C592.703 947.293 585.065 949.384 577.226 952.704C577.287 951.851 582.407 948.192 590.637 946.712C591.459 946.709 590.967 947.155 591.8 947.163C596.484 945.653 601.197 944.2 605.85 942.914C589.789 947.191 580.342 948.017 581.002 945.687C564.284 951.798 594.116 943.871 574.424 950.669C562.274 952.919 550.052 957.45 537.754 964.287C528.32 969.966 518.756 974.876 509.066 978.988C506.197 981.392 503.271 984.027 500.215 986.768C497.247 989.679 494.023 992.523 490.864 995.861C483.62 1003.14 476.777 1010.7 470.335 1018.55C471.05 1018.95 468.688 1021.86 466.807 1024.72C464.926 1027.57 463.314 1030.23 464.886 1029.69C471.804 1021.54 477.672 1013.94 483.848 1006.83C489.555 999.78 496.278 993.925 504.006 989.321C511.153 983.086 507.985 983.731 511.124 980.563C517.995 975.462 524.879 971.59 526.057 971.898C518.01 977.505 517.328 979.128 516.071 981C514.826 982.883 512.947 984.775 503.439 992.201C507.304 990.134 511.062 987.723 514.684 984.976C519.458 981.64 524.327 978.573 529.302 975.787C527.378 977.702 529.818 977.268 534.55 975.238C527.599 980.613 520.867 986.241 514.338 992.139C515.909 990.104 512.216 992.321 513.608 990.785C507.624 996.034 501.956 1001.59 496.661 1007.44C490.779 1011.62 488.589 1012.49 490.773 1009.12C485.197 1014.41 480.211 1020.06 475.813 1026.07C473.694 1028.9 471.967 1031.46 470.476 1033.22C469.077 1035 468.085 1036.07 467.454 1035.93C459.189 1049.9 471.434 1031.78 473.242 1031.13L472.541 1032.3C475.809 1027.59 479.397 1023.04 483.321 1018.62C484.176 1018.64 483.748 1019.52 482.609 1020.93C481.476 1022.32 479.83 1024.32 477.999 1026.38C474.468 1030.58 470.801 1035.47 471.493 1036.95C472.407 1037.84 472.002 1039.42 470.81 1041.45C469.383 1043.98 467.762 1046.47 465.965 1048.91C461.661 1054.71 458.763 1060.62 457.289 1066.61C457.068 1064.86 456.694 1063.07 456.664 1061.17L456.69 1055.29C455.619 1058.82 454.785 1062.31 454.221 1065.72C454.023 1063.58 453.628 1061.55 453.054 1059.61C452.369 1056.8 452.62 1053.68 453.818 1050.25C451.778 1054.53 450.005 1058.83 448.492 1063.1C447.039 1067.61 445.937 1072.06 445.184 1076.43C444.483 1080.47 444.143 1084.39 444.147 1088.21C444.254 1091.08 444.598 1093.85 445.195 1096.49C444.291 1100.54 443.172 1102.88 441.342 1102.19C443.681 1107.13 445.604 1112.34 447.113 1117.81L449.495 1124.79C450.518 1127.18 451.782 1129.37 453.248 1131.43C457.679 1135.1 456.295 1132.49 454.827 1129.56C453.52 1126.42 452.118 1123.01 455.477 1125.5C456.168 1127.66 457.335 1129.46 458.983 1130.87C460.389 1132.34 461.978 1133.63 463.735 1134.76C461.092 1132.73 458.968 1130.26 457.319 1127.35C456.218 1125.43 455.035 1123.37 453.977 1121.29L451.318 1115.04C454.252 1120.44 455.986 1118.26 457.68 1119.02C456.171 1116.02 454.5 1113.16 453.411 1109.86C454.858 1109.28 456.064 1112.11 457.806 1115.16C459.152 1118.24 461.046 1120.86 463.521 1122.98C459.583 1122.55 460.476 1123.89 456.541 1123.3C462.276 1129.86 471.647 1138.53 476.577 1143.98C479.327 1147.37 472.583 1142.93 470.228 1141.98C470.407 1144.69 477.969 1146.41 477.841 1149.05C475.438 1149.7 473.284 1146.07 470.429 1144.65C477.025 1150.11 484.266 1154.83 492.175 1158.82C491.52 1159.68 485.225 1157.13 481.974 1154.65C487.832 1159.69 495.462 1162.15 504.859 1162.06C512.484 1166.33 521.165 1171.18 517.352 1171.48C521.581 1172.35 519.62 1170.55 520.263 1169.61C531.122 1174.26 534.647 1171.46 541.27 1173.98L537.519 1170.34C546.863 1176.26 542.129 1168.45 550.408 1173.64C547.598 1174.72 546.677 1177.01 546.74 1179.56C549.595 1178.46 554.078 1182.55 557.728 1184.45C556.854 1181.5 566.857 1187.09 562.366 1182.21C571.948 1185.56 573.517 1190.24 580.72 1192.55C579.261 1190.94 581.313 1191.73 583.35 1192.66C585.404 1193.57 587.55 1194.57 586.761 1192.69C593.613 1198.98 594.469 1206.19 591.276 1205.59C589.908 1202.9 587.252 1198.62 586.092 1200.14C589.805 1203.9 592.83 1208.22 595.163 1213.13C595.396 1215.36 595.775 1217.82 595.921 1219.88C595.893 1222.07 595.515 1223.93 594.503 1224.83C596.276 1227.65 596.896 1231.07 596.376 1235.08C596.187 1237.07 596.098 1239.03 596.157 1240.92C596.006 1242.51 596.277 1243.87 596.941 1245.01C596.615 1243.72 596.496 1242.34 596.586 1240.86C596.544 1239.63 596.632 1238.37 596.877 1237.05C597.379 1235.11 597.74 1233.21 597.943 1231.36C598.155 1232.2 598.496 1232.99 598.617 1233.88L598.611 1232.41C600.093 1234.38 601.306 1236.57 602.672 1238.79C603.393 1234.57 602.728 1234.46 601.895 1234.05C601.089 1233.63 600.171 1232.89 599.517 1227.73C600.774 1222.3 602.826 1226.65 604.471 1231.48C605.095 1234 605.729 1236.52 606.248 1237.78C606.625 1239.08 607.28 1238.96 607.903 1236.07C608.988 1226.93 605.41 1229.93 603.39 1223.98L603.514 1225.75C602.342 1221.1 600.676 1216.78 598.505 1212.76C599.452 1211.37 601.845 1214.8 601.845 1214.8C599.932 1208.79 597.442 1203.19 594.391 1197.97C591.018 1192.47 586.796 1187.73 581.726 1183.75C582.363 1185.02 582.211 1190.1 575.27 1186.05C569.867 1183.63 570.919 1181.42 566.873 1178.8C570.616 1179.06 573.582 1180.34 575.782 1182.63L577.551 1180.2C581.234 1181.66 585.226 1182.64 589.517 1183.13C591.295 1183.46 592.868 1184.08 594.203 1185.03C597.138 1186.87 599.729 1189.09 601.973 1191.64C605.238 1192.89 607.589 1195.04 609.008 1198.08C610.581 1200.42 611.844 1202.96 612.794 1205.72C613.892 1208.49 614.669 1211.45 615.115 1214.59C615.252 1212.46 615.477 1210.22 615.494 1208.08C618.592 1213.06 617.98 1214.12 617.475 1215.45C616.986 1216.78 616.453 1218.59 618.46 1226.18L615.856 1233.13C615.001 1235.29 613.975 1237.42 612.745 1239.57C610.716 1243.05 608.945 1244.25 607.862 1240.25C605.864 1251.84 606.806 1255.54 602.823 1266.62C597.768 1273.37 601.147 1263.44 597.993 1264.97C595.911 1272.34 591.362 1282.06 595.915 1276.56C594.43 1278.99 592.774 1281.38 591.242 1283.77C589.58 1286.13 587.655 1288.39 585.907 1290.64C585.173 1290.81 588.738 1285.89 590.101 1283.96C586.207 1289.25 579.007 1299.65 576.224 1302.79C577.226 1301.66 580.279 1298.39 581.702 1297.04C580.489 1298.76 579.127 1300.41 577.633 1301.99C576.093 1303.8 574.5 1305.53 572.833 1307.24C570.554 1309.25 568.44 1311.37 566.476 1313.63C569.463 1310.89 572.624 1308.37 575.914 1306.08C577.313 1304.99 578.637 1303.86 579.938 1302.65C580.731 1301.9 581.506 1301.11 582.235 1300.28C582.945 1299.34 583.733 1298.27 584.569 1297.03C584.341 1298.05 584.193 1300.52 579.139 1304.8C583.13 1301.75 586.816 1298.34 590.15 1294.59C592.326 1291.8 594.75 1289.2 597.436 1286.76C594.965 1289.54 592.823 1292.42 590.979 1295.44C589.412 1297.73 588.538 1299.43 588.007 1300.22C589.734 1298.41 591.376 1296.56 592.938 1294.64C594.54 1292.45 596.208 1290.06 597.785 1287.72C599.144 1285.53 600.373 1283.32 601.459 1281.08C602.335 1279.5 603.04 1277.9 603.554 1276.32C605.072 1275.98 608.446 1269.37 609.945 1264.21C611.874 1258.98 612.442 1255.14 612.993 1259.18C612.825 1257.16 613.097 1255.02 613.809 1252.77C614.604 1249.62 615.166 1246.14 616.016 1243.6C616.668 1243.64 616.665 1246.67 616.537 1250.4L615.229 1261.56C614.177 1264.93 613.396 1267.46 612.666 1269.33C612.136 1270.58 611.539 1271.84 610.85 1273.08C610.089 1274.42 610.089 1273.67 610.305 1272.3C610.941 1269.48 611.541 1264.44 609.969 1267.51C608.752 1270.82 607.005 1274.23 605.511 1277.58C603.661 1280.97 601.783 1284.36 599.666 1287.73C600.569 1286.77 599.594 1288.92 599.527 1289.67C599.493 1290.05 599.692 1290.07 600.476 1289.16C602.082 1287.15 603.403 1285.09 604.48 1282.96C603.889 1285.01 603.055 1287.06 601.949 1289.13C599.037 1294.9 595.135 1300.31 590.252 1305.36C587.676 1307.99 584.95 1310.42 582.063 1312.72C580.163 1315.46 587.635 1308.26 589.894 1306.02C588.148 1308.46 586.544 1310.94 585.015 1313.45C584.559 1314.39 584.679 1314.81 586.036 1313.93C588.624 1312.06 591.01 1309.99 593.189 1307.67C592.22 1308.35 599.604 1298.52 592.148 1305.98C593.599 1304.22 595.736 1301.77 598.051 1299.16C600.355 1296.55 602.372 1293.68 604.329 1291.33C606.302 1288.95 607.728 1287.04 608.531 1286.24C609.34 1285.42 609.582 1285.69 608.749 1287.81C609.981 1285.51 611.461 1282.71 612.983 1279.69C614.397 1276.67 615.554 1273.53 616.824 1270.42C618.669 1265.28 620.141 1260.19 621.184 1255.17C622.169 1254.06 621.937 1255.51 621.393 1257.66C620.86 1259.82 619.639 1262.81 619.349 1264.56C620.025 1262.49 620.779 1260.37 621.353 1258.34L622.77 1252.3C623.642 1248.34 624.289 1244.44 624.676 1240.62L621.949 1247.65C623.013 1243.67 623.564 1239.84 623.631 1236.15C623.638 1234.47 623.607 1232.85 623.549 1231.3C623.4 1229.8 623.128 1228.38 622.863 1226.99L622.017 1222.94L620.768 1219.17L619.575 1215.38L618.15 1211.61C621.114 1211.66 623.176 1221.02 624.156 1228.9C627.083 1219.77 622.897 1224.15 621.492 1211.93C621.605 1210.12 622.115 1209.38 623.055 1209.73L620.883 1205.65L618.28 1201.91C617.804 1199.75 618.346 1200 618.867 1200.71C617.886 1198.85 616.548 1197.31 614.88 1196.08C614.415 1195.71 613.824 1195.56 613.094 1195.65C612.126 1195.71 611.518 1194.49 604.96 1187.12C606.59 1189.51 607.63 1191.54 608.704 1192.79L611.386 1195.85C613.788 1198 615.446 1200.73 616.359 1204.02C616.459 1207.48 614.671 1205.08 612.601 1201.71C610.707 1198.75 608.422 1196.14 605.808 1193.83C603.468 1189.51 602.585 1187.02 601.378 1184.13C599.752 1180.9 597.305 1178.42 594.033 1176.73C599.383 1179.42 595.703 1174.53 603.725 1182.11C609.323 1186.08 602.378 1178.56 602.409 1176.56C599.634 1174.86 601.873 1179.97 595.441 1174.08L596.023 1174C593.835 1172.81 591.541 1171.81 589.221 1170.88C586.928 1169.88 584.58 1169.02 582.194 1168.23C571.913 1160.02 553.288 1158.03 546.981 1152.13L547.116 1155.34C539.255 1152.61 528.323 1148.74 522.673 1147.16C524.929 1146.22 530.04 1148.02 535.825 1149.53C524.43 1145.07 512.492 1141.38 500.028 1138.46C503.253 1141.83 506.841 1144.8 510.858 1147.36C506.599 1147.4 503.338 1146.12 501.059 1143.48C498.406 1140.54 495.119 1138.3 491.214 1136.74C492.971 1134.31 495.819 1136.66 495.408 1132.93C489.969 1132.13 484.167 1127.07 479.033 1124.85C479.32 1120.79 484.145 1122.81 493.54 1129.02C498.962 1135.87 510.546 1136.56 516.078 1141.42L512.996 1138.14C520.116 1140.94 527.551 1143.29 535.292 1145.19L534.735 1145.43L540.282 1144.45L536.156 1142.92C542.058 1142.81 547.613 1143.37 552.843 1144.56C539.641 1140.05 536.071 1143.62 528.54 1143.47C517.484 1138.92 516.325 1132.98 508.271 1131.71C508.545 1130.39 504.316 1126.23 509.339 1127.58C511.711 1128.52 513.972 1129.62 516.093 1130.87C517.841 1131.77 519.038 1132.25 519.939 1131.57C518.082 1130.89 516.447 1129.96 515.007 1128.8C512.842 1127.35 510.556 1126.05 508.13 1124.9C504.79 1126.15 497.041 1124.36 490.217 1121.69C483.584 1118.13 478.592 1113.06 475.236 1106.46C479.189 1112.09 486.254 1115.02 486.412 1112.44C483.794 1111.32 481.98 1109.46 480.958 1106.85C479.828 1104.52 479.004 1102.9 478.089 1104.88C476.903 1103.32 475.986 1101.21 474.821 1099.19C473.854 1097.13 473.055 1094.97 472.396 1092.71C471.291 1088.4 471.44 1084.56 472.788 1083.46C474.306 1090.25 476.766 1096.42 480.168 1101.98C479.267 1100.53 479.236 1098.57 480.318 1098.95C480.912 1100.31 481.792 1101.52 482.61 1102.76C483.412 1104.02 484.214 1105.28 485.212 1106.43C483.711 1101.82 481.807 1097.47 479.528 1093.39C479.51 1094.03 479.501 1095.3 479.033 1094.68C478.181 1092.78 477.067 1090.37 476.508 1088.36L478.972 1086.57C477.329 1082.95 476.748 1078.79 477.252 1074.11C477.855 1068.57 478.775 1062.94 479.977 1057.24L480.105 1058.23C481.484 1054.78 482.23 1051.46 482.345 1048.28C482.583 1044.4 484.096 1040.47 486.905 1036.45C485.454 1039.99 487.406 1038.76 488.74 1038.55C489.924 1036.08 491.64 1033.86 493.886 1031.88C495.777 1030 498.079 1028.35 500.608 1025.96C494.2 1031.31 502.67 1020.61 498.151 1024.63C497.14 1024.16 499.377 1021.2 502.663 1017.63C504.38 1015.88 506.424 1014.04 508.345 1012.28C510.409 1010.61 512.39 1009.02 514.006 1007.72C516.611 1007.27 511.851 1011.49 508.199 1015.21C504.519 1018.94 501.843 1022.07 506.9 1019.08C512.646 1014.15 513.464 1011.77 508.926 1015C510.776 1013.4 513.05 1011.76 515.333 1009.93C517.697 1008.25 520.173 1006.47 522.623 1004.89C526.862 1002.08 531.184 999.883 535.617 998.28C539.224 995.332 542.984 992.705 546.891 990.425C550.08 988.644 553.101 986.56 555.997 984.149C553.91 985.047 551.895 986.259 549.988 987.814C547.735 989.349 545.436 990.501 543.08 991.259C545.495 989.241 547.975 987.309 550.517 985.464C559.495 981.761 568.365 979.152 577.071 977.649C574.408 978.733 571.775 979.874 569.183 981.082L569.572 980.609C566.536 982.43 556.753 985.713 557.888 986.92C564.748 982.216 570.123 982.183 579.519 978.064L579.119 978.527C595.912 972.233 606.653 975.782 618.563 969.824C615.477 970.259 609.861 969.458 612.013 968.303C615.549 968.729 626.049 967.134 625.267 968.513L621.654 969.364C631.125 968.558 636.883 968.359 640.548 967.585C643.804 965.738 641.494 964.693 648.864 963.275C665.794 963.065 640.479 967.525 651.71 968.097L668.588 965.281L671.627 966.523C695.361 966.402 715.886 960.298 741.777 958.588C741.261 961.075 722.132 963.366 715.728 963.908C722.892 965.59 735.528 961.827 745.71 962.672C755.563 962.386 763.916 959.669 762.853 958.368C775.499 956.675 771.059 959.272 772.475 959.599C777.503 956.61 792.668 956.549 802.817 955.303L802.694 956.82L818.935 953.886C814.999 953.986 819.086 952.363 819.434 951.416L823.346 951.296C809.739 948.092 788.038 956.482 774.23 952.727C779.224 951.831 773.139 951.433 778.149 950.52C782.074 950.41 782.779 950.587 782.963 951.154C785.825 949.743 792.599 948.212 784.201 948.828C785.798 945.566 802.234 945.269 814.175 943.399C822.56 944.895 803.481 947.137 798.135 949.006C803.209 947.837 808.089 947.247 812.785 947.248L810.31 949.776C826.724 947.399 815.455 947.356 819.923 944.753C825.405 941.378 834.209 943.958 838.654 943.458L833.661 944.354C845.634 944.574 849.352 941.816 860.408 941.299L864.914 942.882C851.838 941.358 846.562 947.381 839.033 946.662C858.536 947.601 832.823 951.964 825.674 954.448C833.128 953.354 840.157 953.263 846.738 954.218C860.69 950.196 873.026 953.636 886.737 949.06C893.331 949.058 880.148 951.158 887.291 950.76C900.941 950.191 914.871 948.742 929.105 946.433C936.547 945.952 934.905 947.114 936.652 947.949C951.336 947.251 966.513 944.733 982.193 940.405C996.34 936.553 1010.77 932.724 1033.15 925.458C1030.9 926.75 1028.68 927.908 1026.48 928.986C1030.79 927.743 1035.1 926.283 1039.43 924.563C1042.69 923.439 1045.86 921.765 1048.92 919.494C1055.07 918.822 1065.67 913.35 1076.46 906.322L1084.56 900.982C1087.24 899.22 1089.87 897.139 1092.42 895.394C1094.97 893.56 1097.49 891.948 1099.88 890.343C1102.08 888.732 1104.34 887.26 1106.65 885.902C1126.64 869.027 1124.92 865.682 1136.31 850.401Z" fill="#F84E72"/>
</g>
</svg>
