<svg width="259" height="291" viewBox="0 0 259 291" fill="none" xmlns="http://www.w3.org/2000/svg">
<path d="M63.3445 10.3919C69.571 19.4554 75.7545 28.4449 82.0207 37.5583C79.7014 38.6448 77.5521 39.6375 75.4245 40.6457C66.2575 44.9842 57.5155 49.929 49.7135 56.2155C41.8114 62.5812 35.3736 70.0177 30.6054 78.6827C30.3818 79.0938 30.0655 79.4491 29.606 80.0899C27.2947 78.4337 25.0828 76.8812 22.9028 75.2761C17.9541 71.644 13.0333 67.978 8.09019 64.3391C7.39801 63.8324 6.69857 63.3204 5.93318 62.9445C4.17483 62.0618 2.95501 62.2224 1.50002 63.4108C0.150685 64.5133 -0.395828 65.9323 0.308832 67.4611C0.844037 68.6206 1.63252 69.7675 2.60597 70.6482C5.97417 73.6867 9.46311 76.607 12.9224 79.5491C18.923 84.6677 24.9218 89.7743 30.9335 94.8794C36.6187 99.7074 42.3095 104.529 47.9947 109.357C53.9539 114.413 59.8946 119.478 65.8649 124.521C70.4257 128.371 75.0608 132.145 79.5696 136.044C86.4435 141.982 93.3823 147.87 100.019 154.026C107.175 160.674 114.023 167.596 120.977 174.433C130.606 183.886 139.679 193.804 148.676 203.785C158.842 215.068 169.127 226.263 179.288 237.553C187.334 246.487 195.274 255.506 203.249 264.497C203.614 264.909 203.993 265.375 204.174 265.871C205.464 269.339 208.284 271.22 211.806 272.418C216.408 273.99 221.011 275.575 225.598 277.191C231.625 279.321 237.645 281.458 243.185 284.598C245.935 286.158 248.702 287.71 251.473 289.243C252.162 289.629 252.874 289.999 253.608 290.287C256.266 291.341 257.862 290.416 258.105 287.711C258.129 287.373 258.146 287.03 258.125 286.691C257.363 273.88 256.672 261.066 255.797 248.251C255.341 241.543 254.191 234.921 250.961 228.813C249.316 225.705 247.529 222.614 245.389 219.798C234.945 206.118 223.598 193.084 212.251 180.049C198.231 163.947 184.128 147.903 170.055 131.838C154.075 113.598 139.235 94.5797 124.922 75.1743C116.552 63.8311 107.353 53.0152 98.6592 41.882C89.4927 30.13 80.4705 18.2874 71.4187 6.46667C69.9145 4.50514 68.3746 2.61499 65.9789 1.52351C63.4428 0.363824 62.2314 0.584362 61.3128 2.98695C60.4891 5.13427 58.9497 6.18674 56.8892 7.11375C48.2968 10.9802 40.0981 15.4629 32.6498 21.0544C24.8941 26.8783 18.2466 33.658 12.8185 41.4407C9.75405 45.8408 7.83346 50.7048 6.89013 55.8703C6.5472 57.7155 7.32513 59.3937 8.49154 60.8115C9.44659 61.9808 11.3116 61.9914 12.3445 60.8239C13.1504 59.9033 13.7685 58.7619 14.1994 57.6372C15.9137 53.1212 17.9652 48.7712 20.5478 44.6186C25.4862 36.7006 31.9772 30.1106 40.0366 24.9138C47.2564 20.2578 54.5953 15.7519 61.8873 11.1907C62.2646 10.9437 62.7185 10.7301 63.3445 10.3919ZM94.0918 51.8873C100.762 60.9455 107.329 69.8214 113.851 78.7088C131.558 102.831 150.792 125.86 170.905 148.258C180.72 159.181 191.186 169.611 201.173 180.41C212.501 192.655 223.675 205.016 234.808 217.412C238.645 221.691 242.146 226.236 245.887 230.771C242.476 236.852 239.108 242.867 235.709 248.934C234.99 248.656 234.506 248.514 234.063 248.294C230.703 246.619 227.37 244.911 223.995 243.268C222.577 242.576 221.115 241.894 219.595 241.452C217.679 240.887 216.857 241.322 216.26 243.082C215.89 244.175 215.681 245.34 215.567 246.487C215.007 252.197 214.514 257.911 213.987 263.623C213.914 264.411 213.816 265.203 213.739 265.913C212.216 266.245 211.715 265.422 211.121 264.587C206.633 258.364 202.393 251.953 197.531 246.001C190.577 237.483 183.152 229.297 175.948 220.955C159.885 202.354 143.568 183.948 126.643 166.012C115.746 154.464 104.046 143.666 91.9799 133.199C85.2279 127.338 78.383 121.56 71.5511 115.781C62.1684 107.851 52.7505 99.9498 43.355 92.0214C41.6133 90.5579 39.8364 89.123 38.2116 87.56C36.7444 86.1423 36.6956 85.3745 37.6558 83.7345C38.9982 81.4631 40.3624 79.2074 41.7759 76.9761C42.8411 75.2929 43.9902 73.6482 45.1382 71.9488C47.7214 74.2847 47.8178 75.6255 45.8437 78.1017C44.5816 79.687 43.385 81.3192 42.2448 82.9811C41.4316 84.1767 41.4262 85.4446 42.3813 86.6139C43.6377 88.1608 45.7432 88.5809 47.4257 87.3831C48.9304 86.3166 50.2747 85.038 51.5715 83.747C58.4286 76.9236 65.1824 70.0153 72.6249 63.7299C76.4259 60.5257 80.1726 57.2611 84.7032 54.9246C87.6145 53.4432 90.6459 52.3067 94.0918 51.8873ZM220.545 267.071C220.607 263.786 222.527 251.312 223.19 249.977C224.737 250.568 226.292 251.165 227.841 251.768C229.39 252.372 230.926 253.02 232.479 253.604C237.139 255.359 239.309 254.564 241.355 250.264C242.572 247.709 243.681 245.119 244.864 242.55C245.075 242.098 245.403 241.687 245.676 241.257C245.843 241.28 246.009 241.302 246.176 241.324C246.664 243.269 246.549 245.288 246.715 247.272C246.884 249.311 246.987 251.358 247.115 253.389C247.247 255.499 247.405 257.606 247.512 259.72C247.604 261.682 247.867 263.649 247.61 265.642C246.958 265.143 246.512 264.618 246.089 264.078C245.653 263.528 245.259 262.955 244.787 262.434C243.112 260.566 241.283 260.204 238.723 261.204C238.336 263.158 237.946 265.13 237.547 267.183C236.1 266.89 234.896 266.555 233.678 266.448C232.936 266.38 231.942 266.421 231.428 266.819C229.439 268.347 227.309 268.307 225.006 267.789C223.574 267.507 222.118 267.337 220.545 267.071ZM57.3451 60.2827C58.3305 62.088 59.1688 63.6371 60.0501 65.2601C57.4134 67.3478 54.9434 69.3177 52.3827 71.3413C51.1475 69.7126 49.662 68.5835 48.9997 66.8912C50.4301 65.7606 51.7734 64.7076 53.1037 63.6562C54.434 62.6048 55.7627 61.5414 57.3451 60.2827ZM69.4972 51.7244C71.9121 50.1998 74.0513 48.855 76.281 47.4565C77.3032 48.8248 78.1828 50.0155 79.1328 51.289C76.8444 52.6885 74.789 53.9317 72.5782 55.2791C71.5555 54.0937 70.6122 53.0082 69.4972 51.7244ZM89.8092 46.8034C88.1411 47.311 86.7984 47.7607 85.4237 48.123C84.5092 48.3622 83.6639 48.0691 83.0824 47.3722C82.5226 46.6909 82.0647 45.9424 81.4686 45.095C82.9527 44.0675 84.2646 43.1646 85.6654 42.196C87.0811 43.7601 88.3286 45.1497 89.8092 46.8034ZM61.479 58.8475C61.2786 57.3244 61.1975 57.2124 62.6324 56.3006C63.9231 55.4794 64.7451 53.6003 67.0144 54.2564C66.8705 56.1686 66.7355 57.958 66.5877 59.8891C64.7037 59.5091 63.0813 59.1765 61.479 58.8475Z" fill="#242424"/>
<path d="M209.714 230.426C210.603 228.606 210.301 227.15 208.978 225.642C201.942 217.615 195.012 209.503 187.998 201.449C175.417 186.981 162.977 172.398 150.155 158.124C142.547 149.655 134.391 141.612 126.318 133.511C120.391 127.561 114.287 121.754 108.133 116.008C103.121 111.318 97.9237 106.796 92.8076 102.203C90.3256 99.983 87.8716 97.7289 85.3209 95.5779C84.5353 94.918 83.534 94.3514 82.5327 94.0651C80.6324 93.5226 79.3904 94.8313 80.0001 96.6153C80.1466 97.0544 80.5067 97.431 80.7785 97.8305C83.3854 101.595 86.971 104.552 90.3549 107.656C97.0863 113.837 103.898 119.936 110.618 126.13C116.965 131.993 123.417 137.769 129.478 143.88C135.631 150.088 141.453 156.588 147.256 163.095C160.072 177.473 172.784 191.938 185.541 206.36C192.014 213.681 198.498 220.989 204.958 228.312C206.163 229.683 207.468 230.779 209.714 230.426Z" fill="#242424"/>
<path d="M112.821 107.847C112.413 108.341 112.021 108.815 111.485 109.465C112.72 110.814 113.887 112.189 115.152 113.473C123.26 121.729 131.343 129.999 139.508 138.199C158.339 157.092 177.147 176.011 195.172 195.586C198.843 199.575 202.561 203.521 206.284 207.461C207.106 208.33 207.926 209.241 208.923 209.912C211.357 211.559 212.103 212.449 215.592 210.24C215.799 209.008 215.209 208.068 214.319 207.172C210.537 203.373 206.742 199.576 203.023 195.715C195.354 187.741 187.748 179.705 180.073 171.738C170.492 161.791 160.918 151.837 151.219 141.977C143.998 134.637 136.631 127.419 129.247 120.22C125.757 116.825 122.038 113.622 118.465 110.285C116.888 108.832 115.02 108.054 112.821 107.847Z" fill="#242424"/>
</svg>
