<svg width="897" height="571" viewBox="0 0 897 571" fill="none" xmlns="http://www.w3.org/2000/svg">
<mask id="mask0_190_689" style="mask-type:luminance" maskUnits="userSpaceOnUse" x="0" y="10" width="897" height="551">
<path d="M88.0674 10.1375L896.391 136.291L808.324 560.015L0.000387095 433.862L88.0674 10.1375Z" fill="white"/>
</mask>
<g mask="url(#mask0_190_689)">
<path d="M813.011 460.464C807.65 460.656 802.358 460.837 797.047 461.004C795.427 460.751 793.831 460.491 792.233 460.242C801.235 459.484 808.756 459.09 813.011 460.464ZM808.118 455.189C810.781 455.819 817.742 455.546 825.556 455.104L825.552 453.371C819.808 453.652 813.751 453.867 807.234 453.934C807.054 454.12 806.999 454.277 806.991 454.424C790.581 453.283 774.261 452.848 758.6 449.892C766.525 452.741 738.502 451.762 731.422 449.463C752.598 451.883 741.472 448.165 752.22 448.622C725.068 448.747 706.696 442.633 687.173 439.377C705.203 441.163 716.277 442.412 726.325 443.661C736.374 444.839 745.408 446.067 759.344 447.956C766.054 447.854 772.915 447.885 779.934 447.94C781.24 448.595 779.642 449.237 786.065 449.909C783.92 445.03 731.146 441.564 708.677 436.214C718.216 436.8 720.293 436.035 729.114 436.537C763.084 445.052 788.503 443.468 825.485 446.72L825.469 445.045C815.971 444.256 806.398 443.438 802.878 442.245C823.438 444.805 828.722 442.73 809.812 442.315C808.784 441.115 819.03 442.307 825.446 442.686L825.434 441.887C824.496 441.784 823.597 441.677 822.761 441.59C823.641 441.574 824.542 441.566 825.436 441.557L825.43 441.011C825.43 441.011 825.43 441.011 825.452 441.015L825.457 441.56C825.669 441.544 825.89 441.551 826.115 441.542L826.1 441.116C826.946 441.264 827.757 441.402 828.538 441.54L828.702 458.704C827.874 458.679 827.064 458.646 826.251 458.624L826.258 458.521C826.032 458.496 825.816 458.463 825.597 458.445L825.609 458.601L825.588 458.598L825.597 458.445C814.479 457.012 803.634 455.485 808.118 455.189ZM797.76 437.656C808.204 438.576 815.5 439.478 821.309 440.352C819.339 440.495 817.224 440.693 814.969 440.963C809.823 440.688 806.287 440.753 796.973 439.585L797.76 437.656ZM601.093 447.334C584.938 446.716 593.834 449.398 578.139 449.033C583.756 447.181 588.556 445.471 592.844 443.862C598.162 444.164 604.354 444.481 611.176 444.803C607.508 445.788 604.372 446.536 601.093 447.334ZM563.741 447.617C563.719 447.614 563.717 447.624 563.695 447.621C563.695 447.621 563.719 447.614 563.741 447.617ZM445.548 470.522C439.434 471.224 430.209 473.058 418.092 475.183C430.771 472.105 418.203 472.966 412.36 475.191C412.444 475.072 411.991 475.001 410.728 474.996C409.197 475.214 407.81 475.416 406.389 475.601C413.267 474.083 423.682 471.995 432.191 470.671C441.597 469.042 448.701 468.401 445.548 470.522ZM398.933 482.222C397.93 482.473 395.032 482.972 390.175 483.705C385.201 484.288 378.27 485.094 369.249 486.128L346.312 414.194C346.504 414.164 346.782 414.114 347.048 414.084C344.397 413.323 352.229 411.933 360.607 410.528C365.716 411.837 348.954 414.425 354.133 415.718C351.634 415.867 349.287 416.078 347.123 416.296L368.712 483.992C383.2 483.117 392.452 480.76 405.99 478.092C405.238 478.277 404.715 478.432 404.718 478.526C408.045 478.11 410.772 477.826 413.253 477.58C406.667 479.446 395.646 481.484 382.941 483.182C395.546 482.359 400.918 481.613 398.933 482.222ZM373.127 404.713C385.68 403.531 396.982 402.61 407.844 401.802C402.323 402.585 397.593 403.387 395.009 404.233C401.249 404.426 403.015 405.334 407.183 406.271C402.28 407.117 397.45 407.904 392.726 408.674C382.687 409.886 375.112 410.574 374.365 409.732C384.662 408.142 399.832 406.631 401.944 405.409C397.291 405.343 385.204 406.895 374.324 408.355C363.487 410.009 353.786 411.378 353.633 410.254C391.683 405.04 349.736 409.194 373.127 404.713ZM307.575 407.335C311.096 406.558 314.549 405.749 314.283 404.849C325.283 404.09 336.258 403.349 347.196 402.608C343.316 404.506 322.258 405.808 307.575 407.335ZM179.112 410.927C179.393 410.756 179.782 410.635 180.102 410.492C181.995 410.106 184.019 409.772 186.168 409.447C183.772 409.888 181.393 410.358 179.112 410.927ZM95.7035 415.542C98.4029 415.391 101.122 415.255 103.785 415.098C101.335 415.409 98.6769 415.753 95.8313 416.107L72.0265 349.528C75.624 348.489 79.4691 347.367 83.3884 346.246L83.91 347.669C80.0987 348.45 76.2004 349.256 72.3011 350.066L95.7035 415.542ZM60.5847 278.283L60.6063 278.286L60.7806 281.846C60.7806 281.846 60.7806 281.846 60.764 281.854L60.5847 278.283ZM59.9879 270.284C60.0128 270.271 60.051 270.266 60.0759 270.253L60.3128 274.906C60.2912 274.903 60.2481 274.896 60.2303 274.91L59.9879 270.284ZM59.6624 266.629L59.6718 266.691L59.8572 269.84C59.8356 269.836 59.8356 269.836 59.8356 269.836L59.6624 266.629ZM57.1373 243.199C57.1589 243.202 57.1589 243.202 57.1589 243.202L57.4789 249.029C57.4755 249.045 57.4539 249.042 57.4539 249.042L57.1373 243.199ZM55.9124 219.306C56.3288 219.234 56.6699 219.166 56.9894 219.095L57.0569 220.343C56.6954 220.331 56.3504 220.31 55.9888 220.298L57.1467 242.76C57.1434 242.776 57.1218 242.773 57.1218 242.773L55.9124 219.306ZM57.2054 219.057L57.2762 220.361L57.2618 220.359L57.2032 219.068C57.2054 219.057 57.2054 219.057 57.2054 219.057ZM57.4186 218.997L57.4833 220.366C57.4617 220.362 57.4224 220.373 57.4008 220.369L57.3111 219.013C57.3543 219.02 57.3792 219.007 57.4186 218.997ZM57.5099 218.95L57.6018 220.368C57.5874 220.365 57.5874 220.365 57.5874 220.365L57.5066 218.966L57.5099 218.95ZM183.111 203.133C183.516 203.152 183.875 203.175 184.259 203.191C181.11 204.146 176.814 205.181 175.558 205.755C172.471 206.088 168.688 206.339 164.487 206.564C170.705 205.361 176.921 204.202 183.111 203.133ZM203.322 200.328C203.494 200.355 203.27 200.364 202.862 200.361C203.012 200.352 203.155 200.346 203.322 200.328ZM165.65 192.925C160.028 193.01 154.442 193.107 149.083 193.217C159.449 192.15 167.266 192.016 171.823 190.4C177.343 189.908 182.427 189.37 186.139 188.849C203.919 188.516 185.977 192.598 212.915 192.291C208.128 193.079 202.622 193.898 197.235 194.713C180.31 195.334 164.71 195.48 165.65 192.925ZM113.302 193.987C118.117 192.598 122.944 191.327 127.369 190.417C127.65 190.356 127.905 190.308 128.178 190.246C129.009 190.177 129.795 190.118 130.58 190.059C131.171 190.075 131.749 190.121 132.337 190.152C131.394 190.291 130.422 190.425 129.514 190.575C123.352 191.616 119.269 192.415 127.461 191.729C130.1 191.509 132.934 190.999 135.841 190.457C137.216 190.6 138.626 190.787 140.145 191.024C141.027 190.391 145.243 190.131 150.59 189.969C149.138 190.304 147.517 190.634 145.818 190.974C143.664 191.436 141.445 191.92 139.424 192.419C139.256 192.442 139.071 192.474 138.903 192.492C138.939 192.497 139.043 192.497 139.104 192.49C137.54 192.868 136.219 193.25 135.059 193.608C125.974 193.912 118.31 194.207 113.495 194.919C114.048 194.615 113.929 194.294 113.302 193.987ZM95.2876 197.811L94.8806 196.801C94.952 196.779 95.0152 196.761 95.0761 196.754L95.4747 197.768C95.4116 197.786 95.3507 197.793 95.2876 197.811ZM95.0041 197.887L94.586 196.859C94.6719 196.84 94.7566 196.825 94.864 196.809L95.2627 197.823C95.1768 197.843 95.0672 197.87 95.0041 197.887ZM93.1636 194.085C93.209 194.081 93.2516 194.054 93.3219 194.038L94.0257 195.837C93.9648 195.844 93.916 195.863 93.8551 195.87L93.1636 194.085ZM92.7638 193.076C92.807 193.083 92.8862 193.095 92.9438 193.104L93.0556 193.424C92.998 193.415 92.9598 193.42 92.8917 193.426L92.7638 193.076ZM91.565 191.799L91.4665 191.558C91.5944 191.551 91.7378 191.54 91.8657 191.533L91.9227 191.723C91.7987 191.748 91.689 191.775 91.565 191.799ZM91.1902 190.85C91.3164 190.814 91.4272 190.782 91.5512 190.757L91.8325 191.478C91.714 191.476 91.5667 191.47 91.4266 191.464L91.1902 190.85ZM81.2487 185.331L65.7491 146.089C67.4563 145.706 69.5416 145.184 71.9758 144.557L72.7194 146.45C70.6955 146.998 68.6656 147.54 66.8549 148.027L80.7825 183.283C83.0013 183.085 85.07 182.929 87.0767 182.786L87.9964 185.119C86.328 185.101 84.1403 185.15 81.2487 185.331ZM70.586 139.873C70.6852 139.861 70.771 139.841 70.8806 139.814L71.0783 140.329C71.1248 140.32 71.1674 140.294 71.2128 140.29L71.0118 139.791C71.1586 139.764 71.261 139.736 71.3923 139.713L71.575 140.192C71.6846 140.165 71.7333 140.146 71.8369 140.112L71.6691 139.668C71.7084 139.658 71.7693 139.651 71.8181 139.631L71.9858 140.075C72.0562 140.058 72.0955 140.048 72.1442 140.028L71.9648 139.604C72.0711 139.593 72.1354 139.57 72.2417 139.559L72.4039 139.959L72.4205 139.95L72.2594 139.545C72.3441 139.531 72.3906 139.522 72.4765 139.502L72.6193 139.888C74.8431 139.272 75.6139 138.996 75.3763 138.959C80.104 138.597 79.0325 139.139 77.909 139.717C76.0978 140.1 74.4604 140.434 72.9393 140.708L73.7162 142.656C73.6337 142.659 73.5739 142.661 73.4947 142.649L72.7472 140.738C72.7256 140.735 72.7223 140.751 72.7079 140.749L73.4482 142.658C73.3873 142.665 73.2616 142.662 73.1802 142.66L72.4526 140.797C72.3845 140.803 72.3452 140.813 72.2854 140.815L73.0224 142.668C72.9543 142.674 72.8945 142.676 72.8369 142.667L72.1364 140.852C72.0506 140.872 71.9443 140.883 71.8585 140.902L72.0755 141.431C71.9531 141.412 71.8164 141.391 71.6331 141.379L71.4781 140.981C71.4327 140.984 71.3933 140.995 71.3468 141.004L71.4786 141.371C71.3745 141.371 71.2953 141.359 71.1707 141.351L71.0556 141.047C69.0101 141.377 67.2443 141.613 65.814 141.736C67.8656 141.198 69.4631 140.771 70.802 140.407L70.586 139.873ZM92.6499 131.763C92.4455 131.852 92.316 131.903 92.1366 131.98C89.8292 132.676 86.4016 133.005 81.9203 133.362C86.7516 132.108 91.079 131.275 92.6499 131.763ZM141.738 124.217C141.089 124.297 140.439 124.388 139.693 124.47C139.955 124.39 140.195 124.306 140.475 124.212C140.905 124.219 141.315 124.212 141.738 124.217ZM181.601 123.721C182.156 123.807 182.706 123.91 183.254 123.995C182.731 124.079 182.228 124.138 181.723 124.207C159.72 125.483 145.356 127.511 128.783 130.266C125.374 130.681 121.816 131.138 118.084 131.644C118.755 131.457 119.317 131.292 119.948 131.116C125.776 130.43 134.262 129.79 134.34 129.021C133.251 128.686 130.661 128.7 127.377 128.913C130.794 127.846 133.049 127.009 135.21 126.125C148.11 125.63 161.993 125.596 181.601 123.721ZM225.595 119.622L230.182 119.221C230.919 119.215 231.674 119.195 232.408 119.205C234.109 119.35 236.548 119.488 240.175 119.664C242.236 119.474 243.966 119.303 245.499 119.152C245.684 119.153 245.871 119.15 246.049 119.15C246.033 119.158 246.008 119.171 245.983 119.184C246.044 119.177 246.114 119.16 246.175 119.153C252.927 119.134 259.367 119.116 265.547 119.095C264.843 119.442 263.163 119.769 259.134 120.059C258.156 119.934 256.625 119.865 254.016 119.865C253.892 120.071 253.956 120.263 254.162 120.416C241.245 121.492 220.344 124.112 219.668 122.862C229.465 121.887 243.859 120.965 245.901 119.864C217.981 121.465 219.771 121.579 200.022 121.875L219.122 120.196C222.364 120.08 225.651 119.961 229.032 119.751C228.104 119.711 226.91 119.662 225.595 119.622ZM297.989 115.262C294.821 115.626 293.107 116.008 291.723 116.408C287.463 116.486 283.233 116.563 279.015 116.658C279.078 116.531 279.02 116.417 278.786 116.293C274.814 116.454 272.151 116.643 270.272 116.851C267.097 116.928 263.98 117.013 260.907 117.106C268.409 116.197 276.195 115.421 284.282 114.735C288.961 114.893 293.53 115.045 297.989 115.262ZM306.004 115.638C300.79 116.299 297.119 116.513 301.567 115.424C303.04 115.489 304.556 115.561 306.004 115.638ZM484.966 106.151C487.169 105.846 489.546 105.568 491.927 105.411C494.495 105.212 497.103 105.108 499.686 105.054C494.006 105.708 487.491 106.336 480.746 106.929C481.971 106.652 483.243 106.394 484.966 106.151ZM514.225 105.469C506.915 106.243 501.015 107.061 500.876 107.732C489.872 107.253 496.471 106.181 502.772 105.008C506.927 105.007 510.865 105.187 514.225 105.469ZM556.471 101.273C558.705 101.11 560.682 100.891 562.506 100.664C562.772 100.672 563.026 100.701 563.288 100.725L563.093 100.59C563.108 100.593 563.108 100.593 563.133 100.58L563.346 100.734C566.911 101.032 570.871 101.215 564.926 101.856L570.453 105.766C570.39 105.784 570.325 105.807 570.255 105.823L564.84 101.875C563.717 101.986 562.366 102.122 560.497 102.281C559.746 102.071 556.742 101.723 553.301 101.505C554.379 101.431 555.45 101.356 556.471 101.273ZM553.398 99.5724C554.995 99.3264 556.917 99.0211 558.838 98.7158C561.491 98.5742 564.401 98.4121 567.411 98.2327C567.305 98.2767 567.256 98.2966 567.168 98.3269C566.243 98.6666 565.019 99.0478 563.476 99.4286C564.405 99.4636 565.381 99.5609 566.384 99.668C566.359 99.6806 566.316 99.6738 566.298 99.6876C565.242 99.5502 564.231 99.5135 563.242 99.4802C563.047 99.5267 562.855 99.5573 562.681 99.6071C562.362 99.6015 562.037 99.5947 561.736 99.5753L561.96 99.7478C561.957 99.7638 561.957 99.7638 561.943 99.7615L561.711 99.5879C561.388 99.5704 561.059 99.5796 560.737 99.5568C559.796 99.7897 559.593 99.9835 559.781 100.15C557.106 100.575 553.774 100.913 549.499 101.06C547.694 100.63 549.837 100.15 553.398 99.5724ZM600.218 97.7521C592.796 97.276 582.479 98.8953 572.087 99.4742C572.037 99.4333 571.996 99.4159 571.945 99.3749C571.634 99.1173 571.278 98.8637 571.007 98.5958C570.775 98.4221 570.614 98.2319 570.406 98.051C582.201 97.3719 594.742 96.7488 600.218 97.7521ZM600.606 107.259L596.895 104.732C597.534 104.695 598.176 104.646 598.794 104.605L602.472 107.11C601.887 107.173 601.231 107.219 600.606 107.259ZM601.594 109.19L600.915 108.738C601.383 108.739 601.91 108.745 602.339 108.751L602.854 109.101C602.461 109.133 602.008 109.167 601.594 109.19ZM598.557 111.539L597.418 110.761C598.891 110.612 600.395 110.456 601.85 110.32L603.296 111.299C601.771 111.38 600.185 111.463 598.557 111.539ZM595.328 111.701L594.417 111.074C594.895 111.028 595.398 110.969 595.878 110.912L596.913 111.618C596.371 111.649 595.86 111.679 595.328 111.701ZM600.851 116.59C599.616 116.562 598.352 116.563 597.025 116.548L594.973 115.161C596.319 115.156 597.603 115.164 598.781 115.183L600.851 116.59ZM591.282 120.543C591.054 120.568 590.805 120.59 590.555 120.611L586.377 117.577C586.643 117.585 586.864 117.593 587.133 117.585L591.282 120.543ZM599.672 122.441C601.417 122.378 603.204 122.327 605.131 122.281C603.318 123.748 601.388 125.091 599.316 126.231L599.959 126.678C599.605 126.7 599.24 126.704 598.911 126.713L598.719 126.562C598.603 126.621 598.49 126.664 598.375 126.717C595.31 126.767 592.768 126.734 590.407 126.651C592.345 125.941 594.128 125.196 595.775 124.424L594.892 123.775C592.975 124.879 591.052 125.8 589.164 126.622C585.645 126.497 582.504 126.309 578.803 126.199C579.524 125.949 580.246 125.731 580.952 125.445C584.04 124.816 587.154 123.959 590.179 122.814C591.218 122.75 592.26 122.704 593.354 122.66L592.309 121.897C592.49 121.816 592.672 121.723 592.852 121.646L594.215 122.63C595.137 122.592 596.045 122.552 597.01 122.521C596.471 122.861 595.972 123.19 595.44 123.497L596.379 124.161C597.582 123.595 598.66 123.021 599.672 122.441ZM588.263 130.889C577.793 134.096 567.572 135.505 557.807 136.501C554.977 136.208 552.049 135.888 549.017 135.563C552.34 135.059 553.915 134.562 546.638 134.246C539.311 134.489 529.273 134.941 539.671 135.117C543.817 135.087 547.793 134.982 546.42 135.615C528.946 135.66 527.312 135.978 528.03 136.634C528.821 137.226 532.225 137.905 525.708 138.005C518.66 137.769 508.591 136.907 499.273 136.718C497.347 136.687 495.487 136.7 493.664 136.745C488.836 135.766 481.685 135.057 475.055 134.419C479.528 133.89 483.922 133.343 488.253 132.781C496.445 133.664 504.536 134.569 506.283 134.099C504.545 133.739 502.48 133.373 500.206 133.018C504.562 133.335 510.918 133.54 518.317 133.732C518.315 133.743 518.276 133.753 518.273 133.769C518.373 133.752 518.522 133.748 518.619 133.746C520.024 133.784 521.421 133.82 522.856 133.852C538.13 134.2 556.579 133.685 567.537 131.379C558.426 132.449 548.016 132.904 546.601 132.171C567.262 131.022 588.396 129.748 578.077 129.585C558.307 131.27 551.855 130.741 542.952 130.634C545.337 130.599 547.69 130.575 549.964 130.507C556.697 130.292 563.257 129.913 569.928 128.599C575.541 128.342 580.754 128.253 585.46 128.173C584.176 128.666 582.919 129.136 581.793 129.549C583.313 129.104 584.758 128.62 586.201 128.151C589.794 128.096 593.137 127.996 596.138 127.788C593.543 129.011 590.888 130.093 588.263 130.889ZM608.556 143.849C607.564 144.294 606.575 144.728 605.644 145.094C605.576 145.133 605.513 145.151 605.442 145.173C596.073 143.48 589.36 142.845 592.857 144.865C593.346 144.369 598.174 144.957 603.507 145.867C602.251 146.331 600.99 146.816 599.803 147.203C578.23 145.3 575.799 147.803 550.723 145.199C553.227 144.127 564.766 145.069 571.793 145.016C567.74 144.493 563.939 143.972 565.391 143.566C565.131 143.135 564.711 142.689 558.976 142.141C553.818 143.933 538.114 143.396 537.095 144.294C526.778 142.942 533.054 142.354 537.883 142.364C530.82 141.625 525.161 141.105 520.589 140.755C524.582 140.85 529.578 140.843 534.911 140.784C540.904 140.773 547.37 140.45 552.957 140.03C558.421 140.805 564.924 141.595 572.854 142.453C580.353 141.554 568.645 140.244 562.94 139.051C565.099 138.783 566.62 138.509 567.26 138.29C587.296 140.333 598.122 141.989 608.556 143.849ZM608.718 145.789C608.174 145.687 607.625 145.574 607.074 145.472C607.99 145.07 608.983 144.62 610.023 144.122C610.631 144.233 611.263 144.343 611.871 144.454C610.749 144.956 609.673 145.41 608.718 145.789ZM623.488 146.597C622.213 146.58 619.77 146.925 616.871 147.468C614.533 146.949 612.168 146.459 609.896 146.017C610.913 145.526 611.853 145.04 612.66 144.594C616.094 145.234 619.6 145.886 623.488 146.597ZM623.811 147.616C624.447 147.204 624.601 146.925 624.434 146.762C625.061 146.892 625.707 147.004 626.373 147.125C625.531 147.279 624.739 147.442 623.811 147.616ZM628.774 154.201C629.435 154.062 630.096 153.923 630.778 153.787C630.467 153.997 629.793 154.128 628.774 154.201ZM653.059 172.592L653.099 172.868C653.016 172.872 652.922 172.857 652.843 172.845L652.818 172.571C652.897 172.584 652.98 172.58 653.059 172.592ZM654.533 172.762L654.554 172.947C654.152 172.912 653.826 172.91 653.406 172.889L653.379 172.626C653.757 172.668 654.167 172.732 654.533 172.762ZM655.747 172.891L655.762 172.998C655.422 172.989 655.077 172.968 654.74 172.943L654.705 172.789C655.069 172.829 655.391 172.852 655.747 172.891ZM656.401 172.96L656.411 173.022C656.372 173.032 656.328 173.026 656.292 173.02L656.265 172.939C656.322 172.948 656.365 172.954 656.401 172.96ZM657.58 173.083C657.321 173.076 656.999 173.053 656.733 173.045L656.72 172.999C657.005 173.027 657.325 173.06 657.58 173.083ZM676.009 179.706L676.789 185.467C676.116 185.379 675.419 185.298 674.643 185.209L673.91 179.83C674.711 179.801 675.389 179.758 676.009 179.706ZM682.479 188.199C673.373 189.853 701.552 193.404 721.049 196.072C715.401 197.001 677.794 193.574 681.251 192.139C680.345 192.102 679.142 192.096 677.834 192.134L677.247 187.877L682.479 188.199ZM742.593 192.931C762.178 194.387 774.449 199.565 786.4 200.313L811.633 201.88L804.771 219.878L804.193 221.405C801.499 227.109 799.418 228.682 799.465 227.847C799.435 227.419 799.754 226.385 800.345 224.904C800.776 223.403 801.423 221.468 802.21 219.253L807.98 202.971L786.28 202.286C780.95 202.114 773.979 201.648 767.368 200.809C782.861 199.607 744.938 196.164 721.229 195.418C731.279 194.12 760.936 195.855 742.593 192.931ZM802.045 288.775C802.006 288.785 801.959 288.795 801.943 288.803L801.809 288.375C801.823 288.377 801.868 288.373 801.908 288.363L802.045 288.775ZM802.977 290.868C802.936 290.889 802.864 290.911 802.804 290.918L802.533 290.073C802.573 290.062 802.643 290.046 802.704 290.039L802.977 290.868ZM807.468 300.333C807.064 300.419 806.681 300.513 806.301 300.586L805.983 299.65C806.376 299.618 806.726 299.613 807.226 299.569L807.468 300.333ZM826.483 361.818L826.282 361.214C826.695 361.191 827.11 361.162 827.502 361.135L827.755 361.884C827.39 361.855 826.926 361.832 826.483 361.818ZM829.483 371.81L829.217 371.014C829.278 371.007 829.324 370.998 829.387 370.981L829.662 371.805C829.601 371.812 829.54 371.819 829.483 371.81ZM829.873 373.543L829.732 373.147C829.779 373.138 829.815 373.143 829.861 373.134L829.999 373.546C829.93 373.552 829.916 373.55 829.873 373.543ZM772.597 389.483C753.694 393.471 760.73 391.763 742.178 396.818C741.454 394.79 762.998 389.9 778.277 386.007C775.129 387.314 772.149 388.599 772.597 389.483ZM718.258 402.878C714.96 403.551 711.502 404.491 707.917 405.577C706.485 405.387 705.097 405.197 703.67 405.019C711.378 402.227 719.462 399.445 729.334 396.431C725.984 397.278 722.371 397.605 729.17 395.756C743.17 393.006 723.971 400.567 718.258 402.878ZM685.827 413.205C684.557 413.127 683.273 413.048 682.047 412.978C685.768 411.627 689.305 410.309 692.746 409.019C693.883 409.164 695.033 409.316 696.185 409.462C692.8 410.656 689.337 411.909 685.827 413.205ZM398.763 476.678C398.018 476.649 397.419 476.6 397.071 476.485C400.395 475.012 403.682 475.289 404.032 475.926C402.184 476.199 400.462 476.442 398.763 476.678ZM371.227 478.184L371.741 479.822C371.719 479.818 371.68 479.829 371.637 479.822L371.15 478.266C371.195 478.229 371.223 478.2 371.227 478.184ZM370.638 476.976L370.934 477.913C370.934 477.913 370.934 477.913 370.912 477.91L370.62 476.989L370.638 476.976ZM369.939 475.046L369.961 475.154C369.937 475.166 369.898 475.171 369.852 475.18L369.815 475.07C369.855 475.06 369.901 475.051 369.939 475.046ZM353.683 424.032L353.704 424.146C353.659 424.149 353.641 424.163 353.594 424.172L353.558 424.062C353.597 424.052 353.644 424.043 353.683 424.032ZM352.894 421.285L353.177 422.176C353.174 422.192 353.152 422.189 353.152 422.189L352.851 421.278C352.872 421.281 352.872 421.281 352.894 421.285ZM352.463 419.319L352.924 420.745C352.896 420.773 352.85 420.783 352.833 420.791L352.356 419.33C352.403 419.321 352.439 419.327 352.463 419.319ZM443.152 399.302C440.612 399.868 438.055 400.404 435.499 400.941C434.195 400.633 431.954 400.509 429.681 400.396C432.849 400.137 435.589 399.898 438.045 399.666C439.72 399.547 441.433 399.424 443.152 399.302ZM139.936 317.538C139.909 317.743 138.923 317.979 137.571 318.225C138.429 317.996 139.255 317.778 139.936 317.538ZM60.1784 270.225L60.4313 274.908C60.4097 274.905 60.4097 274.905 60.4097 274.905L60.164 270.223C60.1784 270.225 60.1784 270.225 60.1784 270.225ZM60.056 268.275L60.0815 268.367L60.1645 269.827C60.1645 269.827 60.1646 269.827 60.1396 269.84L60.056 268.275ZM59.9342 267.788L60.0571 269.843C60.0355 269.84 59.9995 269.834 59.953 269.843L59.8307 267.321L59.9342 267.788ZM206.754 197.15C208.16 196.539 210.34 195.883 212.698 195.228C215.324 195.5 217.37 195.776 219.188 195.757C217.422 196.598 217.828 197.399 205.75 198.551C207.868 198.05 207.937 197.61 206.754 197.15ZM205.643 189.841C213.904 190.498 225.674 190.723 236.797 190.555C234.325 189.217 225.57 187.79 215.026 186.959C215.136 186.932 215.238 186.904 215.348 186.877C214.88 186.876 214.493 186.876 214.024 186.88C207.26 186.385 199.819 186.11 192.817 186.255C196.451 185.826 197.444 185.557 191.459 185.817C185.429 186.582 179.165 187.326 172.939 188.071C172.646 187.904 172.62 187.708 173.001 187.448C171.717 187.55 170.521 187.617 169.307 187.702C170.22 187.421 170.661 187.16 170.581 186.933C170.524 186.742 170.146 186.595 169.563 186.471C170.31 186.379 171.041 186.295 171.799 186.188C171.81 185.634 171.034 185.254 169.768 184.985C173.78 184.703 176.842 184.488 179.355 184.231C184.137 183.679 187.105 183.13 191.573 181.731C207.157 180.983 220.782 181.041 228.303 182.005C211.14 183.095 193.067 182.085 185.33 185.483C190.777 185.095 202.705 184.271 216.65 184.153C230.398 183.977 246.045 184.395 258.599 185.567C257.913 185.614 257.273 185.652 256.532 185.712C243.063 187.368 257.324 188.372 269.53 187.79C273.28 188.948 283.409 190.633 257.986 190.269C270.42 190.372 276.849 191.012 283.184 191.715C282.679 191.785 282.148 191.872 281.643 191.942C277.668 192.543 273.97 193.099 270.717 193.555C268.479 193.134 267.547 192.609 268.738 191.887C265.548 192.929 261.704 193.655 257.591 194.24C257.186 193.935 257.372 193.436 258.364 192.667C240.884 194.708 225.069 196.889 231.669 193.738C226.376 194.21 223.411 194.639 221.601 195.016C218.174 194.949 216.481 194.657 216.906 194.075C222.759 192.485 226.941 191.206 218.287 191.363C216.89 191.613 215.326 191.88 213.701 192.155C206.754 191.357 204.656 190.655 205.643 189.841ZM154.69 188.089C155.094 188.108 155.531 188.083 155.929 188.134C155.846 188.209 155.71 188.293 155.573 188.381C153.583 188.445 151.656 188.491 149.789 188.535C151.455 188.382 153.078 188.228 154.69 188.089ZM93.7505 193.907C93.7992 193.887 93.8851 193.867 93.9266 193.846L94.6464 195.675C94.5855 195.682 94.5224 195.7 94.4581 195.723L93.7505 193.907ZM93.7112 193.917L94.4332 195.735C94.3485 195.749 94.2627 195.769 94.1746 195.799L93.4709 194C93.5373 193.967 93.6265 193.931 93.7112 193.917ZM93.4277 193.207L93.5102 193.418C93.4061 193.418 93.3247 193.416 93.2422 193.42L93.1165 193.131C93.2605 193.153 93.3159 193.173 93.4277 193.207ZM88.7035 186.33L88.9903 187.024C88.9654 187.036 88.9023 187.054 88.8989 187.07L88.5938 186.357C88.6392 186.353 88.6786 186.342 88.7035 186.33ZM87.3015 182.777L88.2179 185.126C88.2035 185.124 88.1581 185.128 88.1221 185.122L87.2046 182.778C87.219 182.78 87.2655 182.771 87.3015 182.777ZM85.2085 177.757C85.2445 177.763 85.2899 177.759 85.3115 177.762L85.7922 178.954C85.7539 178.959 85.7108 178.952 85.693 178.966L85.2085 177.757ZM74.7703 151.601C73.0327 152.023 71.2669 152.474 69.5719 152.869L79.5589 178.157C81.3995 178.026 83.2594 177.91 85.1011 177.773L85.5673 178.963C83.5346 179.053 81.5772 179.138 79.8119 179.193L69.0243 151.893C71.0443 151.471 72.8489 151.12 74.463 150.827L74.7703 151.601ZM74.6695 150.799L74.9658 151.555C74.9192 151.564 74.8943 151.576 74.8799 151.574L74.5693 150.816C74.587 150.802 74.6335 150.793 74.6695 150.799ZM72.189 144.497L72.9387 146.397C72.8922 146.406 72.8756 146.414 72.829 146.424L72.0865 144.525C72.1247 144.52 72.1497 144.507 72.189 144.497ZM72.0118 142.703C71.9077 142.704 71.8108 142.705 71.7067 142.705L71.3834 141.901C71.4908 141.885 71.5788 141.855 71.6646 141.835L72.0118 142.703ZM73.931 146.128C73.7964 146.167 73.694 146.195 73.5627 146.219L72.8158 144.342C72.9215 144.298 73.0539 144.269 73.1779 144.244L73.931 146.128ZM74.1375 145.527C74.1037 145.583 74.0555 145.636 74.0251 145.675L73.4398 144.164C73.4852 144.16 73.5495 144.137 73.5888 144.127L74.1375 145.527ZM74.4731 145.2C74.3928 145.265 74.2981 145.327 74.2499 145.38L73.7449 144.091C73.833 144.06 73.9177 144.046 74.0035 144.027L74.4731 145.2ZM74.6575 145.064C74.591 145.098 74.5451 145.14 74.4897 145.192L74.0213 144.013C74.0916 143.996 74.1558 143.973 74.2189 143.956L74.6575 145.064ZM80.2025 142.342C79.7734 142.512 79.3719 142.691 78.9705 142.871C78.7623 142.871 78.5657 142.851 78.3608 142.836C78.9876 142.681 79.5474 142.526 80.2025 142.342ZM81.4956 162.367C81.4142 162.365 81.3566 162.356 81.2924 162.379L80.5831 160.607C80.6462 160.589 80.7104 160.566 80.7736 160.549L81.4956 162.367ZM378.848 115.404C380.231 115.29 381.693 115.122 383.109 114.996C381.794 115.137 380.382 115.28 378.848 115.404ZM377.992 115.479C378.077 115.465 378.134 115.474 378.206 115.452C378.138 115.458 378.077 115.465 377.992 115.479ZM461.118 110.473C464.638 111.308 456.17 112.144 445.544 112.746C450.112 112.15 453.887 111.545 455.731 110.898C451.058 110.922 444.773 111.267 438.807 111.546C439.705 111.34 440.551 111.092 441.358 110.751C439.796 110.793 438.387 110.815 437.062 110.823C439.765 110.656 442.137 110.509 444.243 110.387C443.259 110.508 442.276 110.624 441.358 110.751C450.737 111.791 457.547 109.129 461.118 110.473ZM480.573 114.125C483.434 111.375 463.276 115.607 460.962 113.298C464.809 113.024 468.4 112.693 471.562 112.284C471.919 112.247 472.199 112.186 472.534 112.15C481.173 111.743 489.71 112.036 487.488 113.609C484.969 113.788 482.65 113.966 480.573 114.125ZM500.027 112.711C501.001 112.742 502.017 112.752 503.193 112.781C500.161 112.853 497.156 113.005 494.222 113.18C496.176 113.001 498.103 112.85 500.027 112.711ZM553.402 108.778C553.938 108.845 554.565 108.871 555.107 108.906C554.742 109.091 554.623 109.271 554.928 109.483C556.928 109.372 559.004 109.289 560.635 109.274C561.527 109.308 562.436 109.329 563.371 109.337C564.325 109.47 563.795 109.767 560.584 110.305C550.743 110.596 550.625 110.484 551.848 110.752C552.985 110.963 555.211 111.338 548.96 111.913C542.86 112.232 536.557 112.376 530.039 112.449C535.022 111.79 534.44 111.369 530.946 111.127C539.45 110.688 547.099 110.071 553.402 108.778ZM577.505 110.773C577.376 110.786 577.234 110.791 577.091 110.802L575.02 109.285C575.142 109.271 575.267 109.279 575.389 109.265L577.505 110.773ZM569.605 100.05C569.763 100.074 569.936 100.101 570.094 100.126C570.35 100.182 570.563 100.232 570.8 100.269C570.35 100.182 569.921 100.099 569.482 100.03C569.525 100.037 569.561 100.043 569.605 100.05ZM573.07 100.216C573.056 100.214 573.056 100.214 573.056 100.214C573.056 100.214 573.056 100.214 573.067 100.232C573.108 100.25 573.126 100.269 573.159 100.291C573.126 100.269 573.108 100.25 573.07 100.216ZM573.567 100.58L573.497 100.525C573.641 100.619 573.753 100.686 573.878 100.766C573.787 100.702 573.677 100.658 573.567 100.58ZM574.105 100.922C574.514 101.135 574.749 101.259 574.789 101.282C574.661 101.218 574.439 101.107 574.105 100.922ZM580.831 101.818L579.332 100.803C579.5 100.571 579.676 100.328 579.862 100.005L581.305 101.001C581.159 101.314 580.984 101.583 580.831 101.818ZM548.209 120.715C560.288 118.771 544.526 119.7 548.505 117.322C559.418 117.666 563.64 117.164 567.931 116.327C570.063 116.868 573.664 117.172 577.989 117.352C569.491 119.404 559.785 120.227 548.209 120.715ZM494.157 132.014C494.265 132.102 494.532 132.177 494.739 132.253C494.347 132.208 493.926 132.159 493.506 132.105C493.722 132.067 493.95 132.042 494.157 132.014ZM486.42 131.301C486.883 131.252 487.358 131.222 487.814 131.172C487.613 131.245 487.398 131.316 487.184 131.377C486.922 131.352 486.682 131.326 486.42 131.301ZM463.857 133.304C466.331 133.057 468.97 132.803 471.71 132.565C474.433 132.798 476.994 132.851 478.96 132.508C478.037 132.408 477.112 132.28 476.36 132.146C477.402 132.067 478.44 131.97 479.452 131.892C480.853 132.017 482.332 132.16 483.845 132.319C481.146 132.97 477.689 133.619 473.174 134.246C469.676 133.909 466.44 133.602 463.857 133.304ZM466.795 135.044C466.002 134.816 465.114 134.584 464.246 134.36C466.481 134.406 468.497 134.506 470.368 134.622C469.218 134.756 468.045 134.893 466.795 135.044ZM485.747 137.111C483.02 137.29 480.539 137.536 478.299 137.835C475.609 137.547 472.896 137.262 470.205 136.979C470.627 136.412 469.401 135.841 467.565 135.269C469.126 135.089 470.67 134.923 472.216 134.74C479.622 135.296 484.234 136.242 488.157 136.959C487.339 136.996 486.511 137.048 485.747 137.111ZM496.512 141.101C509.832 142.592 523.199 144.073 536.562 145.57C534.722 147.274 488.529 143.036 496.512 141.101ZM540.993 156.219C533.478 155.332 529.855 154.993 538.504 156.54C538.227 156.585 537.952 156.619 537.663 156.651C527.811 156.995 515.809 152.773 499.283 151.476C515.298 153.161 529.088 153.998 545.16 155.692C543.779 155.867 542.397 156.042 540.993 156.219ZM603.598 147.57C603.186 147.517 602.762 147.483 602.362 147.438C603.167 147.107 604.189 146.694 605.391 146.205C605.909 146.286 606.395 146.378 606.911 146.47C605.584 146.956 604.494 147.303 603.598 147.57ZM611.77 148.482C609.663 148.214 607.73 148 605.901 147.792C606.722 147.452 607.532 147.095 608.341 146.742C610.493 147.15 612.506 147.585 614.238 147.976C613.432 148.136 612.601 148.309 611.77 148.482ZM675.594 192.219L674.991 187.751L677.107 187.872L677.691 192.139C677.012 192.154 676.293 192.179 675.594 192.219ZM729.9 207.516L723.012 200.18C723.104 200.239 723.188 200.296 723.304 200.347C723.339 200.248 723.437 200.17 723.572 200.13L730.43 207.434C730.281 207.471 730.07 207.482 729.9 207.516ZM731.84 209.266C731.745 209.042 731.645 208.845 731.548 208.632L732.095 209.218C732.011 209.232 731.946 209.255 731.84 209.266ZM802.652 290.966L802.363 290.107C802.402 290.096 802.426 290.089 802.472 290.08L802.762 290.939C802.716 290.948 802.677 290.953 802.652 290.966ZM805.971 300.672C805.932 300.682 805.885 300.692 805.847 300.697L805.512 299.665C805.548 299.671 805.594 299.661 805.632 299.656L805.971 300.672ZM806.02 300.652L805.697 299.666C805.736 299.656 805.819 299.652 805.865 299.643L806.19 300.618C806.127 300.636 806.081 300.645 806.02 300.652ZM825.996 361.23C826.056 361.229 826.117 361.222 826.178 361.215L826.368 361.8C826.3 361.806 826.242 361.797 826.181 361.804L825.996 361.23ZM825.998 361.792L825.807 361.245C825.853 361.241 825.892 361.231 825.935 361.237L826.124 361.795C826.081 361.788 826.045 361.783 825.998 361.792ZM829.046 371.048C829.093 371.039 829.118 371.026 829.157 371.016L829.423 371.811C829.376 371.821 829.34 371.815 829.294 371.824L829.046 371.048ZM370.025 475.026L370.047 475.134C370.047 475.134 370.044 475.15 370.022 475.147L369.986 475.036C370.011 475.024 370.011 475.024 370.025 475.026ZM353.79 424.126C353.79 424.126 353.79 424.126 353.765 424.139L353.728 424.028C353.743 424.031 353.743 424.031 353.764 424.034L353.79 424.126ZM353.957 424.003L353.975 424.094C353.957 424.108 353.914 424.101 353.889 424.114L353.85 424.014C353.897 424.005 353.913 423.997 353.957 424.003ZM353.362 422.145C353.326 422.139 353.301 422.152 353.263 422.157L353.006 421.319C353.042 421.324 353.082 421.347 353.118 421.353L353.362 422.145ZM439.37 401.517C439.345 401.53 439.307 401.535 439.264 401.528C439.309 401.524 439.348 401.514 439.395 401.505C439.395 401.505 439.392 401.521 439.37 401.517ZM464.521 397.685C462.812 398.145 461.118 398.573 459.416 399.001C453.42 399.424 448.062 399.886 444.331 400.388C446.836 399.816 449.295 399.248 451.696 398.671C455.839 398.371 460.106 398.041 464.521 397.685ZM445.96 395.878C453.528 395.188 459.672 394.623 464.649 394.134C462.573 394.685 460.471 395.215 458.362 395.744C457.187 395.82 456.029 395.881 454.87 395.953C450.846 396.112 447.54 396.141 445.96 395.878ZM234.136 325.615C234.69 325.597 235.265 325.583 235.795 325.572C235.01 325.631 234.257 325.711 233.448 325.778C233.725 325.733 233.881 325.664 234.136 325.615ZM154.505 330.188C154.735 330.257 154.964 330.337 155.196 330.4C154.111 330.792 153.725 331.398 150.38 332.867C135.648 334.128 135.94 332.831 121.172 334.086C126.742 331.604 143.531 331.21 154.505 330.188ZM147.7 328.884C147.744 328.891 147.765 328.894 147.78 328.896C146.379 328.876 145.08 328.871 143.855 328.861C145.317 328.803 146.577 328.819 147.7 328.884ZM101.815 331.318C102.119 331.503 101.995 331.742 101.529 332.016C101.195 331.765 101.301 331.54 101.815 331.318ZM110.17 330.421C107.388 330.68 105.549 330.696 102.122 331.201C102.497 331.077 102.968 330.958 103.603 330.832C105.854 330.622 108.058 330.498 110.17 330.421ZM201.949 207.503C204.67 207.356 207.535 207.197 210.337 207.052C210.694 207.014 211.027 206.989 211.372 206.971C210.493 207.301 208.518 207.758 205.84 208.308C203.027 208.397 199.743 208.501 195.657 208.562C197.676 208.255 199.792 207.909 201.949 207.503ZM284.993 194.666C284.968 194.678 284.883 194.698 284.863 194.722C284.737 194.719 284.618 194.717 284.494 194.709C284.683 194.694 284.828 194.673 284.993 194.666ZM191.794 179.02C189.787 178.272 190.101 177.655 186.95 177.51C183.818 177.384 177.128 177.606 161.561 179.341C164.998 177.253 177.699 175.824 192.529 175.377C207.351 174.934 224.227 175.515 235.561 175.909C221.065 176.711 212.957 178.07 191.794 179.02ZM153.716 184.048C166.613 182.033 140.153 183.048 149.348 181.644C153.542 181.666 158.897 181.506 166.262 181.148C177.391 180.667 192.954 179.591 216.372 178.801C209.993 179.599 193.173 180.611 176.01 182.02C168.361 182.636 160.709 183.373 153.716 184.048ZM90.5834 185.902C90.6515 185.896 90.7157 185.873 90.7788 185.856L90.9139 186.207C90.8403 186.24 90.7977 186.266 90.7345 186.284L90.5834 185.902ZM90.2866 185.972C90.3713 185.957 90.4593 185.927 90.5452 185.907L90.7096 186.296C90.6216 186.326 90.5324 186.362 90.466 186.396L90.2866 185.972ZM89.9887 186.046C90.0269 186.041 90.0878 186.034 90.1376 186.009L90.3148 186.444C90.265 186.469 90.2018 186.486 90.1553 186.496L89.9887 186.046ZM89.3425 186.187C89.4737 186.164 89.5833 186.137 89.7074 186.112L89.9117 186.595C89.7788 186.663 89.6897 186.698 89.5745 186.752L89.3425 186.187ZM89.1935 186.225L89.4438 186.808C89.3524 186.855 89.2611 186.901 89.173 186.931L88.9205 186.287C89.0053 186.272 89.1077 186.244 89.1935 186.225ZM87.8226 182.737L88.7843 185.154C88.667 185.147 88.5878 185.134 88.4621 185.131L87.5297 182.752C87.6122 182.748 87.7401 182.741 87.8226 182.737ZM85.847 177.725L86.3326 178.928C86.2285 178.929 86.1211 178.945 86.0253 178.941L85.5397 177.737C85.6438 177.737 85.744 177.72 85.847 177.725ZM83.635 172.885C83.7208 172.865 83.8199 172.853 83.9057 172.833L84.6748 174.747C84.5674 174.763 84.4827 174.777 84.3753 174.794L83.635 172.885ZM83.2972 172.936C83.3365 172.926 83.3581 172.929 83.4046 172.92L84.1471 174.819C84.1255 174.815 84.0862 174.826 84.0646 174.822L83.2972 172.936ZM76.5011 156.003C74.9706 156.43 73.434 156.85 72.0525 157.24L78.4814 173.544C80.2384 173.35 81.8243 173.158 83.1909 172.947L83.9439 174.831C82.3364 175.02 80.6869 175.197 78.9189 175.373L71.0686 155.502C72.5598 155.085 74.1573 154.658 75.7941 154.22L76.5011 156.003ZM76.6988 155.946C76.6606 155.951 76.6357 155.964 76.5892 155.973L75.9048 154.188C75.943 154.183 75.9646 154.186 75.9895 154.174L76.6988 155.946ZM76.4851 154.042L77.1739 155.805C77.0881 155.825 77 155.855 76.912 155.886L76.2016 154.119C76.3124 154.086 76.4004 154.056 76.4851 154.042ZM75.9691 151.304C75.8451 151.329 75.7177 151.369 75.6081 151.396L75.3124 150.673C75.4364 150.649 75.5821 150.627 75.6895 150.611L75.9691 151.304ZM76.3838 151.204C76.3373 151.213 76.2742 151.231 76.2277 151.24L75.9663 150.566C76.0306 150.543 76.0699 150.533 76.1153 150.529L76.3838 151.204ZM76.7914 151.102C76.7067 151.117 76.6208 151.136 76.5544 151.17L76.2836 150.506C76.3684 150.492 76.4542 150.472 76.5533 150.46L76.7914 151.102ZM77.0262 151.045C76.9619 151.068 76.8949 151.069 76.8307 151.092L76.5782 150.447C76.638 150.446 76.7061 150.44 76.7704 150.417L77.0262 151.045ZM78.2542 155.506L77.5632 153.754C77.6479 153.739 77.7338 153.72 77.8218 153.689L78.5018 155.424C78.4303 155.446 78.3423 155.476 78.2542 155.506ZM80.9851 162.392L80.3179 160.703C80.4059 160.673 80.4701 160.65 80.5582 160.62L81.2564 162.374C81.1501 162.384 81.0892 162.391 80.9851 162.392ZM81.7497 163.611C81.6401 163.638 81.5759 163.661 81.4911 163.676L81.1805 162.917C81.2868 162.906 81.3511 162.883 81.4574 162.873L81.7497 163.611ZM81.9618 163.556C81.8987 163.574 81.8378 163.581 81.7746 163.599L81.4751 162.859C81.5432 162.853 81.6063 162.835 81.6672 162.828L81.9618 163.556ZM418.333 113.583C418.757 113.578 419.144 113.578 419.574 113.584C419.127 113.586 418.719 113.583 418.333 113.583ZM434.711 115.055C429.898 116.868 451.774 115.848 435.897 117.397C431.31 117.617 423.323 118.499 416.374 119.181C411.915 119.36 407.47 119.541 403.115 119.719C403.1 119.684 403.048 119.648 403.079 119.609C425.809 118.194 425.617 116.58 416.258 116.412C418.582 115.993 421.541 115.597 424.761 115.192C428.152 115.149 431.425 115.098 434.711 115.055ZM478.882 114.252C472.307 114.706 466.704 114.992 461.928 115.122C456.151 115.276 451.602 115.172 448.1 114.895C458.965 114.753 469.29 114.598 479.064 114.237C479.003 114.244 478.942 114.251 478.882 114.252ZM481.29 116.862C485.692 116.674 490.787 116.369 495.32 116.157C495.606 116.637 494.985 117.266 495.441 117.717C495.068 117.763 494.654 117.787 494.261 117.819C486.855 118.231 481.727 118.696 477.414 118.958C469.122 119.342 460.682 119.543 453.637 119.61C453.686 119.271 455.305 119.023 457.373 118.801C465.436 118.162 474.916 117.529 481.29 116.862ZM572.785 159.266C573.835 159.898 568.196 159.392 560.859 158.577C561.909 158.35 562.965 158.168 564.021 157.987C566.852 158.384 569.726 158.789 572.785 159.266ZM663.499 417.973C663.554 417.992 663.63 418.021 663.67 418.043C663.665 418.07 663.603 418.154 663.551 418.223C663.293 418.287 662.76 418.308 661.941 418.318C662.769 418.051 663.259 417.946 663.499 417.973ZM310.998 184.365C309.622 184.513 306.959 184.383 303.537 184.075C304.295 183.682 305.287 183.308 306.873 182.934C309.634 183.096 313.022 183.245 317.271 183.396C317.076 183.443 316.869 183.471 316.699 183.505C311.78 183.749 300.484 183.461 310.998 184.365ZM309.145 179.443C307.008 179.533 305.301 179.63 303.894 179.713C302.34 179.646 300.568 179.551 298.507 179.455C302.376 179.184 306.116 178.926 309.017 178.807C307.693 178.991 307.367 179.199 309.145 179.443ZM260.456 175.272C261.272 175.245 262.113 175.239 262.949 175.221C262.145 175.475 260.599 175.729 257.276 175.947C258.615 175.689 259.634 175.474 260.456 175.272ZM88.9749 182.664C89.0823 182.648 89.1648 182.644 89.2462 182.646L90.2949 185.252C90.1941 185.236 90.0933 185.221 89.9964 185.222L88.9749 182.664ZM88.6532 182.674C88.7108 182.683 88.7501 182.673 88.811 182.666L89.8165 185.194C89.7567 185.196 89.6991 185.187 89.6343 185.176L88.6532 182.674ZM88.358 182.7L89.3508 185.182C89.214 185.16 89.0717 185.166 88.9244 185.159L87.9898 182.719C88.1105 182.71 88.2362 182.714 88.358 182.7ZM86.3824 177.687L86.8647 178.907C86.7462 178.905 86.5967 178.909 86.4749 178.923L85.9904 177.714C86.1327 177.709 86.2617 177.696 86.3824 177.687ZM84.4357 172.751L85.2125 174.699C85.0918 174.707 84.9412 174.717 84.8171 174.742L84.0586 172.813C84.1826 172.788 84.3044 172.774 84.4357 172.751ZM81.8704 167.25C81.9911 167.242 82.1168 167.245 82.2602 167.234L82.3936 167.558C82.2718 167.572 82.1295 167.577 82.0005 167.59L81.8704 167.25ZM81.4014 167.254C81.5088 167.238 81.6046 167.242 81.7087 167.242L81.8333 167.608C81.7364 167.609 81.6516 167.623 81.5442 167.64L81.4014 167.254ZM81.0542 167.244C81.0974 167.251 81.1334 167.256 81.1583 167.244L81.3377 167.668C81.2945 167.661 81.2707 167.668 81.2347 167.663L81.0542 167.244ZM79.1223 162.629C77.9473 162.776 76.7795 162.924 75.3847 163.163L77.0114 167.279C78.2357 167.288 79.6056 167.277 80.9468 167.26L81.1057 167.676C79.7513 167.827 78.4218 167.967 77.2108 168.108L74.9517 162.385C76.2579 162.001 77.3931 161.617 78.5703 161.245L79.1223 162.629ZM79.3289 162.601C79.2896 162.611 79.268 162.608 79.2297 162.613L78.6799 161.218C78.7048 161.205 78.7442 161.195 78.768 161.187L79.3289 162.601ZM79.835 162.526C79.7491 162.545 79.6428 162.556 79.557 162.576L78.9884 161.128C79.0692 161.097 79.1572 161.067 79.2464 161.031L79.835 162.526ZM79.7453 160.883L80.3649 162.443C80.2553 162.47 80.1085 162.497 79.9806 162.505L79.4025 160.995C79.5083 160.951 79.6418 160.917 79.7453 160.883ZM77.6944 155.661C77.5671 155.702 77.4574 155.729 77.3301 155.769L76.6341 154.005C76.7448 153.972 76.8722 153.932 77.0034 153.908L77.6944 155.661ZM77.953 155.597L77.262 153.844C77.3035 153.823 77.3644 153.816 77.4143 153.791L78.1053 155.544C78.041 155.567 78.0028 155.572 77.953 155.597ZM80.6528 162.417L80.0072 160.803C80.0559 160.783 80.1202 160.76 80.1656 160.756L80.8178 162.41C80.7569 162.417 80.7137 162.41 80.6528 162.417ZM81.1683 163.763L80.8826 162.992C80.9208 162.987 80.9817 162.98 81.0316 162.955L81.3389 163.729C81.278 163.736 81.2325 163.74 81.1683 163.763ZM80.9584 164.951C81.0863 164.944 81.2082 164.93 81.3361 164.922L81.8693 166.254C81.7475 166.268 81.6051 166.274 81.4761 166.287L80.9584 164.951ZM80.5055 164.985C80.6118 164.974 80.6976 164.955 80.7945 164.953L81.3338 166.292C81.2297 166.292 81.1306 166.304 81.0265 166.304L80.5055 164.985ZM80.1732 165.01C80.2198 165.001 80.2342 165.003 80.2807 164.994L80.7984 166.329C80.7552 166.323 80.7408 166.32 80.6943 166.33L80.1732 165.01ZM79.7198 164.153C78.6179 164.449 77.4982 164.758 76.4378 165.033L76.5452 165.302C77.7939 165.195 78.9495 165.105 80.0548 165.008L80.5902 166.33C79.1555 166.403 77.9439 166.44 76.8204 166.446L75.8321 163.942C76.9988 163.728 78.1361 163.548 79.3909 163.304L79.7198 164.153ZM79.9174 164.096C79.8925 164.108 79.8543 164.113 79.8294 164.126L79.4933 163.276C79.5365 163.282 79.5614 163.27 79.5791 163.256L79.9174 164.096ZM80.2364 163.133C80.346 163.106 80.495 163.069 80.6024 163.053L80.9097 163.827C80.7968 163.87 80.6727 163.894 80.5404 163.923L80.2364 163.133ZM80.4141 163.959C80.3034 163.991 80.2154 164.021 80.1306 164.035L79.8167 163.222C79.8953 163.201 80.005 163.174 80.0908 163.154L80.4141 163.959ZM82.3294 166.222C82.2685 166.229 82.2015 166.229 82.1406 166.236L81.6251 164.89C81.6827 164.899 81.7508 164.893 81.7901 164.883L82.3294 166.222ZM82.7608 166.184C82.6617 166.197 82.5791 166.2 82.4944 166.214L81.9573 164.865C82.0399 164.862 82.1462 164.851 82.2287 164.847L82.7608 166.184ZM82.9928 166.177C82.9258 166.177 82.8649 166.184 82.804 166.191L82.2647 164.853C82.3472 164.849 82.3926 164.845 82.4751 164.841L82.9928 166.177ZM83.5133 167.463C83.438 167.468 83.371 167.468 83.31 167.475L83.2004 167.216C83.2602 167.214 83.3427 167.211 83.4108 167.205L83.5133 167.463ZM350.857 118.49C352.343 118.601 353.783 118.716 355.232 118.821C352.845 119.009 351.271 118.929 350.857 118.49ZM360.54 119.242C362.564 119.41 364.635 119.568 366.616 119.723C361.326 119.684 359.737 119.783 360.54 119.242ZM357.178 121.617C357.323 120.99 363.959 120.458 368.996 119.929C369.1 119.929 369.201 119.945 369.319 119.952C365.581 120.486 361.594 121.041 357.178 121.617ZM303.378 154.269C302.903 154.3 302.382 154.339 301.886 154.366C302.531 154.302 303.137 154.248 303.782 154.184C303.633 154.221 303.523 154.248 303.378 154.269ZM253.367 151.988C251.682 152.264 249.186 152.403 246.371 152.431C248.196 152.265 250.065 152.105 251.968 151.962C252.455 151.977 252.863 151.981 253.367 151.988ZM87.3182 177.619C87.378 177.617 87.439 177.61 87.5215 177.606L88.0004 178.842C87.9395 178.849 87.8714 178.855 87.8105 178.862L87.3182 177.619ZM87.0109 177.631C87.0923 177.633 87.1676 177.628 87.275 177.612L87.7723 178.867C87.6682 178.867 87.5857 178.871 87.4827 178.866L87.0109 177.631ZM86.8426 177.655L87.3177 178.873C87.2568 178.88 87.2185 178.885 87.1504 178.891L86.6787 177.656C86.7147 177.662 86.7756 177.655 86.8426 177.655ZM84.8808 172.683L85.6544 174.647C85.5863 174.653 85.5264 174.654 85.4871 174.665L84.7136 172.701C84.7734 172.699 84.8127 172.689 84.8808 172.683ZM82.8322 167.522C82.7929 167.532 82.7248 167.538 82.6672 167.529L82.5426 167.234C82.6107 167.228 82.6705 167.227 82.7281 167.236L82.8322 167.522ZM82.9994 167.504L82.8931 167.228C82.9778 167.214 83.0819 167.214 83.1644 167.21L83.2707 167.485C83.1882 167.489 83.0819 167.5 82.9994 167.504ZM86.0674 174.59C85.9827 174.604 85.9002 174.608 85.8216 174.629L85.0298 172.646C85.1289 172.634 85.2003 172.612 85.2851 172.597L86.0674 174.59ZM86.3172 174.569C86.2347 174.572 86.1749 174.574 86.1106 174.597L85.3244 172.587C85.3875 172.569 85.4556 172.563 85.5198 172.54L86.3172 174.569ZM87.1322 176.654L87.1466 176.657C87.1073 176.667 87.0608 176.676 87.0215 176.687C87.0464 176.674 87.1073 176.667 87.1322 176.654ZM482.254 157.747C482.451 157.762 482.671 157.779 482.878 157.784C495.599 159.225 485.666 159.171 477.082 158.492C479.051 158.243 480.788 158.003 482.254 157.747ZM477.562 157.362C475.501 157.552 473.505 157.752 471.597 157.922C468.346 157.475 466.75 156.929 469.59 156.387C460.699 155.363 432.523 153.727 449.102 155.665C436.895 157.006 438.723 153.215 429.613 152.459C444.881 152.338 465.806 156.072 477.562 157.362ZM318.477 181.637C319.636 181.746 320.813 181.836 321.997 181.933C322.281 181.961 322.58 181.991 322.902 182.014C324.202 182.123 325.504 182.222 326.746 182.328C326.843 182.359 326.959 182.377 327.014 182.397C325.532 182.485 324.247 182.587 323.066 182.689C321.127 182.402 317.583 182.179 314.38 181.933C315.598 181.826 316.948 181.734 318.477 181.637ZM339.626 183.898C339.715 183.972 339.823 184.022 340.037 184.066C339.998 184.077 339.929 184.082 339.872 184.073C339.629 184.063 339.41 184.045 339.169 184.024C339.343 183.974 339.492 183.937 339.626 183.898ZM357.253 185.262C356.532 185.408 355.815 185.533 355.129 185.684C351.88 185.331 348.453 184.945 345.205 184.587C346.493 184.397 347.838 184.183 349.169 183.967C350.553 183.886 351.975 183.806 353.399 183.709C356.824 184.287 358.781 184.884 357.253 185.262ZM384.979 190.101C388.005 189.775 391.931 189.409 395.572 189.053C399.864 189.497 404.326 189.985 408.871 190.468C407.304 190.57 405.837 190.655 404.424 190.693C403.696 190.552 403.015 190.396 402.376 190.252C397.267 189.906 395.81 190.267 396.976 190.735C393.892 190.661 391.393 190.53 389.442 190.511C388.106 190.363 386.587 190.231 384.979 190.101ZM421.781 185.314C421.31 185.543 421.048 185.728 420.972 185.881C419.505 185.79 418.125 185.668 416.813 185.507C417.972 185.402 419.081 185.289 420.205 185.173C420.725 185.21 421.263 185.266 421.781 185.314ZM321.205 178.701C322.258 178.425 323.598 178.166 325.158 177.915C326.276 178.117 327.414 178.327 328.659 178.522C325.685 178.707 323.28 178.799 321.491 178.79C321.372 178.754 321.295 178.731 321.205 178.701ZM319.78 176.833C320.473 177.002 321.316 177.167 322.099 177.333C321.262 177.532 320.285 177.727 319.168 177.915C318.632 177.529 318.75 177.173 319.78 176.833ZM500.986 120.359C495.976 120.436 491.395 120.524 487.958 120.576C483.523 120.638 480.97 120.371 481.465 119.667C489.845 119.539 496.244 119.828 500.986 120.359ZM512.313 120.179C511.468 119.916 511.322 119.546 512.144 119.025C512.494 119.019 512.859 119.016 513.21 119.01C521.461 118.999 529.445 118.919 542.074 118.266C538.907 119.307 525.769 119.941 512.313 120.179ZM90.5574 185.277C90.4782 185.264 90.3957 185.268 90.3309 185.258L89.2927 182.636C89.368 182.632 89.4361 182.626 89.4959 182.624L90.5574 185.277ZM124.005 188.368C123.803 188.446 123.667 188.529 123.426 188.613C123.04 188.613 122.63 188.62 122.243 188.621C122.847 188.539 123.402 188.444 124.005 188.368ZM125.749 186.951C119.776 187.333 113.022 188.469 107.58 189.05C106.881 189.09 106.155 189.147 105.431 189.199C108.155 188.535 111.432 187.858 114.86 187.171C117.246 186.955 119.605 186.795 121.916 186.655C124.043 186.613 125.332 186.704 125.749 186.951ZM241.925 175.967C242.775 175.918 243.658 175.891 244.522 175.844C244.364 175.924 244.184 176.006 244.065 176.075C243.337 176.039 242.689 176.009 241.925 175.967ZM464.622 395.412C466.96 394.781 469.194 394.117 471.348 393.441C481.053 392.376 484.388 391.526 485.723 389.787C489.273 389.978 490.115 390.219 489.945 390.462C484.899 391.997 479.759 393.489 474.589 394.943C472.691 395.026 470.716 395.125 468.678 395.242C467.298 395.302 465.94 395.359 464.622 395.412ZM492.37 451.635C492.72 451.74 492.979 451.852 493.106 452.025C492.44 451.905 492.22 451.783 492.37 451.635ZM600.989 149.65C601.853 149.817 602.859 149.985 603.984 150.15C603.086 150.357 602.225 150.569 601.476 150.738C600.651 150.593 599.863 150.453 599.12 150.31C599.71 150.116 600.353 149.881 600.989 149.65ZM456.793 135.607C454.644 135.469 452.452 135.325 450.22 135.159C450.884 135.004 451.712 134.847 452.622 134.686C454.314 134.983 455.736 135.293 456.793 135.607ZM578.464 111.451C578.352 111.494 578.263 111.524 578.151 111.567L577.974 111.451C578.087 111.409 578.178 111.362 578.266 111.299L578.464 111.451ZM580.803 110.567C580.408 110.61 579.994 110.633 579.605 110.65C580.555 110.116 581.331 109.604 582.031 109.097C582.624 109.069 583.22 109.057 583.796 109.043C582.975 109.558 581.992 110.07 580.803 110.567ZM579.742 112.74C579.855 112.697 579.961 112.653 580.077 112.594L580.809 113.115C580.714 113.178 580.621 113.234 580.526 113.297L579.742 112.74ZM574.387 116.052C573.693 115.955 573.046 115.854 572.583 115.721C573.647 115.678 574.576 115.642 575.581 115.6C575.185 115.753 574.783 115.9 574.387 116.052ZM584.521 110.344C584.435 110.364 584.332 110.359 584.25 110.362C584.536 110.165 584.834 110.019 585.12 109.821C584.959 109.989 584.722 110.166 584.521 110.344ZM573.351 100.442L573.175 100.321C572.94 100.163 572.693 99.9924 572.432 99.7811C572.465 99.8027 572.483 99.8221 572.516 99.8437C572.444 99.7994 572.395 99.7478 572.346 99.6961C572.465 99.8027 572.646 99.9354 572.77 100.015C572.91 100.131 573.067 100.232 573.197 100.324L572.942 100.152C573.105 100.266 573.248 100.365 573.351 100.442ZM573.549 100.561C573.534 100.558 573.534 100.558 573.534 100.558C573.534 100.558 573.549 100.561 573.567 100.58C573.545 100.577 573.549 100.561 573.549 100.561ZM573.71 100.679C573.765 100.699 573.802 100.738 573.856 100.763C573.78 100.734 573.729 100.693 573.692 100.66L573.659 100.638L573.605 100.613C573.641 100.619 573.681 100.642 573.692 100.66C573.677 100.658 573.677 100.658 573.659 100.638C573.677 100.658 573.688 100.676 573.71 100.679ZM574.018 100.876C574.022 100.86 574 100.857 573.978 100.853C574.022 100.86 574.033 100.878 574.073 100.901C574.094 100.904 574.105 100.922 574.105 100.922C574.094 100.904 574.054 100.882 574.018 100.876ZM574.666 101.263C574.709 101.27 574.709 101.27 574.731 101.273C574.731 101.273 574.731 101.273 574.709 101.27C574.666 101.263 574.655 101.245 574.614 101.227C574.655 101.245 574.655 101.245 574.666 101.263ZM573.963 101.032C573.985 101.036 573.999 101.038 574.043 101.045C574.064 101.048 574.097 101.07 574.119 101.073C574.075 101.066 573.999 101.038 573.963 101.032ZM573.926 100.818C573.908 100.798 573.908 100.798 573.908 100.798C573.926 100.818 573.926 100.818 573.945 100.837C573.959 100.839 573.978 100.853 574.022 100.86C573.981 100.843 573.945 100.837 573.926 100.818ZM574.197 100.981C574.179 100.961 574.146 100.94 574.125 100.937C574.091 100.92 574.073 100.901 574.033 100.878C574.091 100.92 574.146 100.94 574.2 100.965C574.197 100.981 574.197 100.981 574.197 100.981ZM573.351 100.832C573.583 100.896 573.778 100.959 573.909 101.007C573.988 101.02 574.064 101.048 574.119 101.073C574.064 101.048 574.003 101.022 573.945 101.013C573.832 100.984 573.775 100.975 573.677 100.944C573.504 100.884 573.293 100.823 573.081 100.774C573.004 100.751 572.906 100.719 572.831 100.691C572.87 100.713 572.928 100.722 572.964 100.728C573.105 100.766 573.218 100.795 573.351 100.832ZM488.507 115.501C491.201 115.377 492.841 115.424 493.849 115.581C491.097 115.768 488.677 115.935 486.686 116.108C487.663 115.914 488.358 115.72 488.507 115.501ZM361.495 117.581C375.905 116.617 389.389 116.07 402.197 115.697C393.453 116.506 385.749 117.598 376.627 118.903C372.198 118.542 367.748 118.21 363.313 117.881C363.51 117.791 363.65 117.725 363.858 117.62C363.432 117.702 363.048 117.763 362.646 117.838C359.958 117.644 357.266 117.438 354.577 117.255C357.199 117.081 359.909 116.882 362.638 116.692C361.532 116.938 360.877 117.232 361.495 117.581ZM311.431 119.528C317.801 118.987 316.487 119.91 317.933 120.317C325.897 119.332 334.6 118.649 343.99 117.991C345.755 118.112 347.542 118.242 349.268 118.374C339.056 120.236 333.603 119.836 321.461 120.686C318.121 120.484 314.78 120.293 311.415 120.103C311.412 119.904 311.434 119.726 311.431 119.528ZM78.7387 155.356C78.6745 155.379 78.6042 155.396 78.54 155.419L77.8611 153.679C77.9281 153.678 77.9924 153.655 78.0555 153.638L78.7387 155.356ZM73.1303 146.333L72.3867 144.44C72.4725 144.42 72.5821 144.393 72.6668 144.379L73.4138 146.256C73.3246 146.292 73.2399 146.306 73.1303 146.333ZM75.1812 150.697L75.4591 151.434C75.3733 151.453 75.2637 151.48 75.1778 151.5L74.8866 150.755C74.9713 150.741 75.0737 150.713 75.1812 150.697ZM92.1177 185.779C92.0507 185.708 91.9638 185.661 91.8359 185.597C93.1693 185.261 94.7236 184.826 96.5431 184.296C94.7363 184.872 93.3049 185.359 92.1177 185.779ZM99.7137 189.137C101.279 188.864 102.813 188.669 104.347 188.441C103.367 188.723 102.372 189.007 101.352 189.3C100.796 189.257 100.158 189.251 99.7137 189.137ZM99.6333 190.918C102.469 190.684 105.316 190.43 108.105 190.172C104.827 190.64 101.551 191.201 98.5923 191.708C98.5979 191.467 98.9788 191.207 99.6333 190.918ZM93.7688 193.425C93.6896 193.413 93.6287 193.42 93.5462 193.423L93.4709 193.214C93.5645 193.228 93.6259 193.254 93.7051 193.267L93.7688 193.425ZM234.432 182.626C231.791 179.634 254.055 181.359 241.43 178.635C246.942 179.182 255.539 179.511 266.649 179.765C273.014 178.679 248.019 177.039 267.248 177.097C264.629 176.539 262.238 176.496 258.615 176.475C262.481 176.006 265.825 175.505 267.779 175.116C272.102 175.021 276.433 174.959 280.75 174.89C278.668 176.254 290.494 176.818 301.459 177.517C299.689 178.165 293.353 178.579 288.459 179.064C285.865 178.995 283.014 178.908 279.74 178.854C282.294 179.01 284.365 179.168 286.084 179.332C283.591 179.636 281.995 179.987 282.548 180.436C284.861 180.39 288.082 180.199 291.595 179.961C295.475 180.6 294.423 181.156 295.716 181.694C294.1 181.815 291.872 181.952 288.786 182.103C290.055 182.29 290.856 182.547 291.439 182.853C276.714 181.259 258.632 179.328 253.497 181.47C256.566 182.296 267.162 182.519 276.456 183.001C285.748 183.488 293.663 184.135 291.082 185.361C264.923 184.64 265.661 181.982 234.432 182.626ZM259.395 183.595C261.212 184.649 276.742 184.839 278.609 185.978C270.625 186.058 271.957 184.731 259.095 185.54C261.209 184.484 250.169 183.68 259.395 183.595ZM225.342 202.12C234.484 202.865 245.894 200.211 261.401 197.685C263.276 197.675 265.029 197.679 266.627 197.714C262.452 198.317 259.042 198.918 258.37 199.506C261.365 199.22 264.211 199.042 266.821 198.965C258.774 200.097 261.643 202.278 244.26 203.565C245.268 202.754 250.642 201.287 251.759 200.917C240.407 202.116 234.693 203.502 232.028 204.671C220.449 205.565 221.051 203.563 205.787 205.417C203.668 203.562 224.662 204.605 225.342 202.12ZM437.212 401.995C439.997 402.11 442.941 402.179 446.283 402.189C438.939 403.876 431.805 405.376 425.039 406.642C421.063 406.929 417.043 407.248 412.937 407.62C421.079 405.6 429.284 403.772 437.212 401.995ZM370.146 475.122L370.11 475.012C370.135 474.999 370.174 474.989 370.221 474.979L370.254 475.106C370.218 475.1 370.193 475.113 370.146 475.122ZM371.184 477.996C371.141 477.989 371.107 477.973 371.049 477.964L370.744 476.965C370.769 476.952 370.809 476.942 370.832 476.934L371.184 477.996ZM672.425 417.974C671.694 417.771 670.799 417.571 669.776 417.379C673.601 416.033 677.172 414.764 680.565 413.528C681.953 413.607 683.247 413.677 684.397 413.719C683.981 413.863 683.56 414.028 683.119 414.185C679.637 415.452 676.052 416.719 672.425 417.974ZM701.582 407.592C700.197 407.497 698.794 407.383 697.431 407.291C698.928 406.738 700.432 406.191 701.904 405.651C703.436 405.753 705.089 405.845 706.657 405.953C704.998 406.464 703.293 407.012 701.582 407.592ZM591.752 147.427C593.847 147.644 595.515 147.843 596.982 148.045C595.938 148.35 594.87 148.695 593.903 148.951C592.712 148.495 591.939 147.995 591.752 147.427ZM540.123 137.95C542.317 138.369 544.745 138.775 547.405 139.207C544.45 139.302 541.719 139.387 538.968 139.502C531.291 139.751 523.655 139.841 512.316 139.475C511.396 139.788 511.61 140.047 512.669 140.24C507.282 139.987 504.694 140.172 503.681 140.542C499.872 140.129 496.039 139.729 492.216 139.314C502.902 137.994 517.193 138.068 533.216 138.033C535.485 138.023 537.813 137.98 540.123 137.95ZM560.853 137.653C562.99 137.849 564.983 138.055 566.919 138.253C564.834 138.379 562.913 138.502 561.08 138.596C559.991 138.261 559.65 137.933 560.853 137.653ZM549.891 137.724C550.552 138.262 549.402 138.325 541.061 137.942C543.982 137.903 546.899 137.813 549.891 137.724ZM547.774 135.749C547.903 136.418 548.67 136.945 549.3 137.346C548.242 137.434 547.204 137.531 546.163 137.638C537.101 137.115 541.736 136.556 546.39 135.94C546.849 135.874 547.336 135.818 547.774 135.749ZM526.709 132.478C520.489 132.619 515.801 132.432 513.587 131.393C523.023 130.797 531.024 130.736 538.394 130.676C539.144 131.503 532.566 131.973 526.709 132.478ZM581.37 116.493C580.64 116.467 579.952 116.453 579.261 116.417C580.332 116.089 581.299 115.728 582.213 115.37C582.56 115.347 582.97 115.34 583.299 115.331L582.946 115.061C583.083 115.011 583.199 114.952 583.308 114.892L583.91 115.321C584.179 115.314 584.404 115.305 584.672 115.303C584.518 115.367 584.36 115.447 584.183 115.512L585.635 116.537C585.41 116.546 585.187 116.544 584.966 116.537L583.799 115.678C583.001 115.977 582.199 116.226 581.37 116.493ZM599.493 108.714L600.331 109.296C598.838 109.399 597.329 109.51 595.738 109.619L594.449 108.741C596.254 108.709 597.929 108.695 599.493 108.714ZM596.48 104.761L600.214 107.286C599.781 107.329 599.389 107.355 598.951 107.391L595.529 105.047C595.428 105.318 595.373 105.584 595.282 105.84L597.669 107.478C596.616 107.539 595.545 107.614 594.388 107.675C594.233 107.921 594.12 108.178 593.968 108.407L593.003 107.762C592.47 107.783 591.949 107.823 591.378 107.855L592.732 108.776C593.097 108.772 593.412 108.761 593.777 108.757C593.661 108.921 593.524 109.081 593.411 109.228L594.127 109.72C593.713 109.743 593.299 109.766 592.881 109.811C592.858 109.852 592.803 109.904 592.754 109.957L592.574 109.824C592.074 109.867 591.586 109.895 591.068 109.919L592.14 110.658C592.012 110.776 591.921 110.927 591.769 111.052C591.595 111.206 591.382 111.338 591.209 111.492C591.796 111.419 592.426 111.325 593.011 111.262L593.782 111.773C592.752 111.827 591.699 111.888 590.628 111.93C590.558 111.979 590.51 112.032 590.435 112.07L590.259 111.949C589.513 111.998 588.712 112.027 587.93 112.07C588.003 112.004 588.08 111.956 588.154 111.89C588.743 111.806 589.282 111.753 589.848 111.676L589.008 111.105C589.391 110.73 589.732 110.376 590.033 109.999C589.251 110.042 588.444 110.098 587.616 110.15L585.884 108.972C587.135 108.925 588.307 108.899 589.497 108.859L590.407 109.486C590.55 109.266 590.663 109.041 590.791 108.819C590.888 108.818 590.991 108.823 591.095 108.823L590.882 108.668C591.04 108.407 591.216 108.132 591.356 107.851C590.86 107.878 590.306 107.896 589.795 107.927L587.039 106.061C586.87 106.304 586.688 106.567 586.473 106.819L588.227 107.996C587.588 108.033 586.995 108.062 586.312 108.093C586.334 107.7 586.373 107.299 586.394 106.912C586.391 106.928 586.385 106.954 586.363 106.951C585.984 107.42 585.503 107.873 584.922 108.31L583.853 107.588C584.13 107.329 584.41 107.053 584.662 106.806C584.867 106.536 585.067 106.253 585.243 105.978L586.425 106.762C586.461 106.41 586.469 106.049 586.506 105.691L585.736 105.18C585.897 104.903 586.041 104.606 586.183 104.315L587.557 105.25C587.553 105.266 587.525 105.295 587.52 105.321C587.566 105.312 587.602 105.318 587.648 105.314L591.36 107.835C591.502 107.544 591.597 107.196 591.721 106.885L589.254 105.201C590.29 105.149 591.279 105.077 592.271 105.023C592.344 104.671 592.421 104.304 592.453 103.935L593.921 104.917C594.356 104.897 594.788 104.855 595.202 104.831L592.6 103.05C592.614 102.766 592.601 102.434 592.626 102.135L595.765 104.27C595.725 104.462 595.652 104.632 595.592 104.815C595.901 104.792 596.194 104.777 596.48 104.761ZM592.693 100.456L596.066 102.749C595.993 103.172 595.944 103.621 595.838 104.023L592.644 101.835C592.659 101.37 592.707 100.959 592.693 100.456ZM590.037 100.361L590.434 100.632C590.348 100.938 590.251 101.192 590.191 101.408L589.985 101.288C589.989 100.986 590.01 100.703 590.037 100.361ZM587.086 100.258L588.55 101.257C588.52 102.369 588.329 103.395 587.97 104.335L586.505 103.336C586.791 102.462 586.995 101.482 587.086 100.258ZM576.322 99.8765L577.497 100.693C577.443 100.778 577.357 100.869 577.327 100.941C576.965 101.11 576.691 101.249 576.405 101.336C577.187 101.613 577.781 101.689 578.346 101.507C578.41 101.484 578.468 101.422 578.532 101.399L580.213 102.536C579.915 102.792 579.641 103.035 579.38 103.22C578.923 103.952 579.663 104.112 580.265 104.431C580.5 104.589 580.595 104.813 580.421 105.253L575.461 101.871C575.483 101.875 575.526 101.848 575.547 101.852C576.055 101.766 576.268 101.997 576.322 99.8765ZM570.997 98.8199C571.003 98.7933 571.053 98.768 571.094 98.747L571.141 98.7378L571.092 98.6861C571.104 98.699 571.122 98.7184 571.141 98.7378L571.166 98.7251C571.144 98.7218 571.214 98.7768 571.225 98.795C571.348 98.9187 571.506 99.0203 571.643 99.1462C571.573 99.0913 571.488 99.034 571.418 98.979L571.363 98.921C571.381 98.9403 571.399 98.9597 571.421 98.963C571.421 98.963 571.399 98.9597 571.378 98.9563C571.488 99.034 571.587 99.1266 571.64 99.1622C571.636 99.1782 571.658 99.1816 571.658 99.1816C571.656 99.1922 571.677 99.1956 571.677 99.1956C571.677 99.1956 571.677 99.1956 571.695 99.215L571.656 99.1922C571.761 99.2582 571.849 99.3325 571.96 99.4102C571.972 99.4231 572.012 99.4459 572.044 99.4675C572.041 99.4835 572.041 99.4835 572.041 99.4835C572.1 99.5202 572.151 99.5612 572.2 99.6128C572.151 99.5612 572.1 99.5202 572.027 99.4812C570.831 99.5477 569.643 99.5769 568.432 99.6134C568.493 99.6064 568.577 99.5921 568.642 99.5691C569.99 99.2679 570.558 98.9659 570.997 98.8199ZM171.79 121.617C173.327 122.16 175.449 122.64 177.805 123.068C170.238 123.4 171.483 122.417 171.79 121.617ZM127.275 127.434C127.178 127.402 127.084 127.388 127.005 127.375C127.253 127.326 127.467 127.299 127.747 127.238C127.607 127.304 127.408 127.367 127.275 127.434ZM101.79 129.839C106.052 128.963 110.057 128.323 113.91 127.807C114.199 127.99 114.105 128.262 114.126 128.518C110.423 129.101 106.218 129.699 101.702 129.869C101.727 129.856 101.75 129.849 101.79 129.839ZM106.834 131.457C106.439 131.499 106.022 131.539 105.65 131.574C102.351 131.857 99.8826 131.863 99.2209 131.506C106.372 130.46 120.583 128.953 125.915 128.009C124.15 128.635 121.812 129.189 119.261 129.699C114.812 130.226 110.252 130.89 106.834 131.457ZM72.1658 141.677L72.5655 142.685C72.4254 142.68 72.3047 142.689 72.1541 142.698L71.8136 141.798C71.9648 141.75 72.0777 141.707 72.1658 141.677ZM71.0832 141.986C71.1214 141.981 71.1248 141.965 71.1713 141.956L71.4819 142.714C71.4354 142.723 71.3994 142.718 71.3562 142.711L71.0832 141.986ZM90.7926 188.829C90.6797 188.872 90.5556 188.896 90.4283 188.937L90.2899 188.602C90.2516 188.607 90.1869 188.597 90.1475 188.607L90.2937 188.977C90.2057 189.007 90.0949 189.039 90.0069 189.069L89.8585 188.639C88.8358 188.733 87.8407 188.836 86.653 188.937C87.6846 188.586 88.6835 188.214 89.5473 187.848L89.446 187.656C89.5318 187.636 89.6597 187.629 89.7456 187.609L89.8148 187.741C89.8613 187.732 89.8884 187.708 89.9311 187.682L89.9128 187.591C90.013 187.574 90.1193 187.563 90.2434 187.538C90.265 187.542 90.265 187.542 90.2683 187.526L90.2866 187.545C90.3724 187.525 90.4571 187.511 90.5645 187.495L90.5152 187.41C90.5856 187.394 90.6271 187.373 90.6769 187.347L90.7317 187.477C90.7711 187.467 90.8176 187.457 90.8774 187.456L90.8098 187.28C90.8796 187.23 90.9687 187.195 91.0385 187.145L91.1448 187.42C91.1481 187.404 91.1697 187.408 91.1697 187.408L91.0623 187.138C91.1299 187.099 91.1819 187.063 91.2451 187.045L91.3857 187.37C93.5585 186.999 96.7147 186.331 100.554 185.417C100.57 185.409 100.614 185.416 100.638 185.403C101.07 185.652 101.305 185.914 101.248 186.191C98.1162 186.847 95.0325 187.559 92.2511 188.391C92.0828 188.414 91.9621 188.423 91.7949 188.441L91.8154 188.521C91.776 188.531 91.7057 188.548 91.6415 188.571L91.6027 188.471C91.5811 188.468 91.5811 188.468 91.5595 188.464L91.6033 188.576C91.5141 188.611 91.4294 188.626 91.3558 188.658L91.2921 188.5C91.2456 188.509 91.1858 188.511 91.1249 188.518L91.2035 188.711C91.1642 188.722 91.1011 188.739 91.0545 188.749L90.9576 188.536C90.8751 188.539 90.7677 188.555 90.6863 188.554L90.7926 188.829ZM92.3552 191.609C92.2921 191.627 92.2455 191.636 92.1846 191.643L92.1298 191.513C92.1763 191.504 92.2123 191.51 92.2588 191.501C92.2156 191.494 92.1763 191.504 92.1331 191.497L91.8098 190.693C91.8812 190.671 91.9194 190.666 91.9659 190.657L92.3197 191.494C92.3579 191.488 92.4261 191.483 92.462 191.488L92.1398 190.607C92.2173 190.592 92.2888 190.57 92.3735 190.556L92.7511 191.456L92.7727 191.46L92.4128 190.545C92.4759 190.528 92.5473 190.506 92.6083 190.499L92.9831 191.449C93.0008 191.435 93.0224 191.438 93.044 191.442C93.0224 191.438 92.9975 191.451 92.9831 191.449L93.0219 191.548C92.9643 191.539 92.8829 191.537 92.8037 191.525L92.7876 191.495C92.7843 191.511 92.7627 191.508 92.7627 191.508L92.7572 191.534C92.7356 191.531 92.7212 191.529 92.6996 191.525C92.6365 191.543 92.5756 191.55 92.5041 191.572L92.4781 191.518C92.4205 191.509 92.3773 191.503 92.3164 191.51L92.3552 191.609ZM106.175 191.983C107.009 191.904 107.794 191.845 108.601 191.79C107.959 192.02 107.173 192.293 106.212 192.594C105.481 192.497 104.741 192.409 103.962 192.331C105.772 191.954 107.867 191.494 110.077 191.052C110.001 191.133 109.821 191.21 109.685 191.293C108.495 191.515 107.27 191.72 106.175 191.983ZM153.333 190.502C155.056 190.259 156.636 190.022 158.066 189.794C158.37 189.797 158.66 189.798 158.967 189.786C157.044 190.025 155.182 190.262 153.333 190.502ZM189.411 188.018C182.207 188.566 176.101 188.911 178.301 187.659C182.279 187.328 187.5 186.844 191.188 186.441C193.746 186.4 196.284 186.345 198.858 186.295C196.953 186.631 195.828 186.967 195.274 187.271C193.284 187.444 191.356 187.672 189.411 188.018ZM408.863 402.516C418.683 401.821 425.049 401.802 430.881 401.882C427.795 402.5 424.714 403.092 421.658 403.672C420.219 403.942 418.801 404.188 417.386 404.452C414.983 403.928 410.701 403.469 408.863 402.516ZM411.152 475.712C410.062 475.844 408.982 475.962 407.895 476.078C409.912 475.777 411.27 475.538 411.94 475.351C411.668 475.479 411.376 475.598 411.152 475.712ZM417.68 476.054C415.834 476.321 414.09 476.594 412.504 476.858C414.327 476.526 416.151 476.189 418.153 475.853C418.019 475.925 417.821 475.982 417.68 476.054ZM574.282 448.354C573.116 448.205 571.816 448.063 570.434 447.952C572.683 447.142 574.735 446.389 576.699 445.667C578.159 445.686 579.641 445.708 581.133 445.715C578.771 446.568 576.491 447.45 574.282 448.354ZM576.188 448.696C575.837 448.63 575.527 448.549 575.178 448.478C588.793 444.33 583.909 446.055 576.188 448.696ZM825.652 464.94C819.08 464.2 813.61 463.484 808.714 462.797C810.309 462.881 811.713 462.99 812.671 463.173C813.691 461.913 817.158 460.825 825.607 460.075L825.594 459.924C825.616 459.928 825.616 459.928 825.616 459.928L825.624 460.067C825.857 460.054 826.028 460.02 826.253 460.011C826.751 460.331 827.65 460.548 828.982 460.679L828.781 439.587C827.87 439.356 826.718 439.144 825.429 438.942L825.433 440.104C825.433 440.104 825.433 440.104 825.418 440.102L825.415 438.94C817.113 437.689 801.947 437.104 791.33 436.339C799.03 433.904 772.605 432.783 758.433 431.743C739.501 428.613 745.241 427.275 739.978 425.353C733.44 426.022 716.013 424.551 705.694 424.602C705.913 423.943 700.473 423.44 699.42 422.825C723.607 423.233 780.895 428.295 814.702 430.088C803.097 428.354 775.02 426.778 774.764 425.258C779.999 425.635 787.98 426.567 788.388 425.965C771.365 422.692 727.372 417.35 743.273 416.256C730.546 415.023 728.053 415.751 715.987 414.666C714.651 414.05 716.246 413.347 709.688 412.824C707.692 414.989 731.78 416.844 735.335 418.94C726.141 418.875 710.032 417.461 707.67 418.71C745.005 422.154 743.989 421.358 748.808 420.124C750.344 421.854 771.764 423.492 767.817 425.247C763.693 424.493 750.572 422.902 737.455 421.686C724.309 420.536 711.217 419.593 707.232 420.028C714.373 421.748 757.078 422.603 760.578 425.927C743.523 423.673 712.164 421.221 699.615 422.173C693.201 421.563 690.047 420.861 687.011 420.344C691.23 417.998 704.225 414.293 708.054 412.069C709.41 411.802 710.798 411.49 712.193 411.179C716.99 411.626 721.166 411.914 723.888 411.976C721.76 411.523 718.031 411.122 714.323 410.725C750.508 402.723 798.732 388.748 844.002 377.256L812.282 281.108C800.011 282.29 788.205 283.314 776.943 284.148L776.794 283.508C784.728 282.771 791.583 281.971 794.408 281.036C791.182 282.04 782.93 282.518 776.552 282.596L776.233 281.308C776.811 281.277 777.468 281.231 778.129 281.197C777.489 281.234 776.851 281.267 776.233 281.308L774.406 274.294C775.882 273.771 777.38 273.251 778.825 272.662C786.805 269.561 793.876 265.251 798.648 261.71C801.012 259.845 802.873 258.221 804.217 256.978C805.485 255.669 806.245 254.764 806.446 254.372C797.013 261.708 789.271 265.347 783.645 267.995C779.759 269.743 776.672 271.044 773.854 272.156L771.464 262.881C775.795 263.21 779.619 263.444 782.44 263.494L781.806 262.823C778.029 262.475 774.528 262.154 771.193 261.826L771.134 261.608C772.116 260.601 773.437 259.75 777.034 257.748L769.144 249.337C769.363 249.354 769.582 249.372 769.782 249.376L777.423 257.523C779.037 256.624 781.04 255.534 783.705 254.08C788.647 252.149 790.059 251.935 790.045 253.077C790.033 254.209 788.286 256.247 786.611 258.049C784.973 259.922 783.416 261.335 784.226 261.478C784.975 261.595 788.334 260.524 795.431 255.805C795.22 255.459 793.511 256.424 791.517 257.367C789.514 258.276 787.315 259.275 786.334 259.452C792.292 256.102 796.181 253.089 798.895 250.69C801.642 248.269 803.399 246.502 804.682 244.908C807.374 241.785 808.91 239.687 812.111 234.481C808.202 239.378 806.193 241.177 805.861 241.307C805.563 241.453 806.805 239.914 808.416 237.739C811.863 233.419 815.203 226.469 814.338 226.697C811.766 232.028 809.109 235.371 807.306 237.109C805.538 238.858 804.728 239.106 804.749 238.328C804.745 237.557 805.588 235.757 806.78 233.346C807.735 230.932 809.343 227.882 810.477 224.603C806.712 231.421 803.042 234.953 800.203 237.921C798.607 239.344 797.131 240.654 795.506 242.106C793.769 243.491 791.857 245.036 789.356 246.879C800.867 237.48 805.95 227.649 808.865 220.88L817.527 200.66L786.61 197.16C775.099 195.865 769.147 194.286 769.993 192.971C768.445 193.841 753.65 192.291 743.006 191.621C732.248 191.818 736.637 194.626 715.206 193.004C715.828 190.009 745.328 189.782 710.807 185.346C704.276 186.093 707.41 188.464 696.089 188.402C685.449 187.529 683.727 186.413 676.933 185.49L676.142 179.678C677.157 179.583 678.001 179.456 678.394 179.248C677.685 179.225 676.896 179.196 676.065 179.154L672.235 150.739C668.676 150.376 667.833 150.426 672.149 151.221L675.925 179.149C675.261 179.122 674.556 179.083 673.806 179.043L671.06 158.715C665.496 157.951 659.91 157.261 654.509 156.677L654.018 152.963C653.911 152.974 653.811 152.991 653.705 153.002L654.189 156.643C654.153 156.637 654.11 156.631 654.052 156.622L653.583 153.016C653.412 153.05 653.223 153.065 653.056 153.083L653.536 156.569C653.194 156.532 652.836 156.503 652.516 156.47L652.07 153.215C652.009 153.222 651.945 153.245 651.878 153.245L652.321 156.44C651.933 156.412 651.542 156.362 651.165 156.32L650.77 153.392C650.664 153.403 650.563 153.42 650.457 153.431L650.857 156.299C650.778 156.287 650.684 156.272 650.605 156.26L650.229 153.456C647.105 153.86 643.876 154.307 638.863 155.291C638.622 155.27 638.401 155.263 638.182 155.245C638.248 155.212 638.294 155.169 638.407 155.126C639.606 155.044 640.171 154.862 640.229 154.585C642.603 153.96 646.298 153.238 650.097 152.516L649.991 151.669C646.532 152.004 642.855 152.64 638.731 153.46C638.174 153.208 637.483 152.919 636.622 152.63C640.231 151.928 643.86 151.24 647.253 150.609C648.124 150.745 648.988 150.88 649.898 151.005L649.776 150.128C649.846 150.111 649.925 150.091 650.008 150.087L650.136 151.042C650.258 151.062 650.352 151.076 650.453 151.092L650.309 150.03L649.787 146.251C649.701 146.27 649.602 146.283 649.494 146.299L649.998 149.954C649.901 149.922 649.821 149.909 649.746 149.881L649.263 146.34C649.22 146.333 649.181 146.338 649.135 146.347C649.14 146.321 649.232 146.274 649.239 146.242L648.615 141.59C642.103 143.137 638.444 144.47 631.596 146.025C626.379 145.057 620.856 144.168 614.805 143.284C615.066 143.099 615.286 142.935 615.438 142.777C615.097 142.95 614.801 143.085 614.485 143.25C613.794 143.142 613.079 143.042 612.37 142.948C615.248 141.438 618.435 139.548 621.642 137.171C626.009 134.001 629.955 129.819 632.691 125.95C633.997 123.997 635.04 122.124 635.894 120.447C636.663 118.818 637.162 117.382 637.56 116.256C638.357 113.993 638.406 113.081 638.092 113.984C637.898 114.449 637.515 115.402 636.876 116.903C636.259 118.402 635.343 120.449 633.61 123.105C630.124 129.004 625.009 133.983 620.002 137.41C617.448 139.289 615.019 140.572 612.554 141.953C612.007 142.225 611.465 142.476 610.92 142.738C598.05 140.938 582.666 139.187 562.931 137.058C571.152 136.41 579.549 135.338 587.822 133.009C592.143 131.813 596.538 130.084 600.537 127.902L599.868 127.401C600.181 127.362 600.531 127.356 600.826 127.298L601.201 127.566C601.456 127.413 601.718 127.223 601.995 127.073C602.919 126.915 603.873 126.761 604.716 126.53C604.012 126.557 603.397 126.582 602.739 126.601C606.227 124.444 609.307 121.893 611.545 118.952C616.86 112.299 617.25 105.631 616.806 101.293L615.996 93.3207L615.896 101.272C615.841 106.831 613.835 113.621 608.524 119.295C607.528 120.333 606.399 121.258 605.274 122.166L602.77 120.482C603.303 120.098 603.865 119.718 604.31 119.364C603.85 119.396 603.372 119.443 602.92 119.477C602.417 119.822 602.076 119.994 601.952 119.914L601.919 119.893C601.888 119.827 601.884 119.739 601.964 119.569C601.985 119.573 601.985 119.573 601.989 119.557C601.82 119.58 601.668 119.6 601.511 119.603L601.294 119.465C601.217 119.514 601.166 119.582 601.096 119.632C601.096 119.632 601.096 119.632 601.094 119.643C599.392 119.784 597.687 119.942 595.943 120.11C597.05 119.468 598.117 118.771 599.133 117.994L598.846 117.801C599.043 117.815 599.229 117.817 599.416 117.813C599.53 117.726 599.668 117.671 599.768 117.582C600.175 117.271 600.51 116.944 600.882 116.622L602.809 117.935C602.852 117.942 602.877 117.929 602.891 117.932C602.888 117.948 602.885 117.964 602.87 117.961L603.385 118.311C603.512 118.199 603.637 118.098 603.758 117.979C604.023 117.993 604.328 117.991 604.59 118.021L604.091 117.668C606.771 115.071 608.624 112.235 609.608 109.643C610.403 108.001 610.557 106.474 610.954 105.028C611.167 103.609 611.258 102.314 611.345 101.106L612.038 92.6591L599.778 93.2214C573.807 94.4169 582.876 94.8365 599.933 94.1204L610.705 93.6725L610.149 101.068C609.928 103.993 609.641 107.233 608.056 110.534C607.138 112.625 605.779 114.658 604.159 116.551L604.333 116.682C604.251 116.68 604.133 116.678 604.054 116.666C603.868 116.879 603.722 117.082 603.518 117.276L602.574 116.633C602.026 116.625 601.503 116.604 600.912 116.583C601.152 116.395 601.402 116.192 601.631 115.985L600.463 115.203C601.076 115.222 601.663 115.226 602.232 115.237L602.281 115.289C602.306 115.276 602.33 115.269 602.333 115.253C602.921 115.251 603.511 115.272 604.074 115.283L602.965 114.538C606.391 110.605 608.121 105.714 608.268 101L608.407 95.2174L600.214 95.5178C590.377 95.9025 580.153 96.4635 569.502 97.2166C569.377 97.1036 569.234 97.0043 569.118 96.8817C569.234 97.0043 569.316 97.1106 569.432 97.2332C569.283 97.089 569.164 96.9493 569.03 96.8073C568.999 96.7751 568.967 96.7535 568.929 96.7201C569.061 96.8727 569.228 97.0362 569.432 97.2332C567.947 97.3316 566.476 97.4376 564.967 97.5486C565.006 97.5382 565.091 97.524 565.137 97.5147C566.781 97.1496 567.788 96.8115 568.424 96.6852C568.586 96.6171 568.833 96.6115 568.844 96.6297L568.178 95.9371C568.153 95.9497 568.169 95.9797 568.131 95.9463C568.09 95.9674 567.745 96.0511 567.368 96.1849C565.688 96.7258 562.045 97.4832 558.295 98.0753C554.773 98.3565 551.249 98.6483 547.611 98.9883C548.805 99.0371 550.329 99.0329 552.091 98.9943C545.81 99.8956 540.245 100.782 537.788 102.236C538.917 102.203 540.027 102.151 541.114 102.106C543.92 102.23 542.865 102.517 539.662 102.908C539.029 102.914 538.445 102.9 537.729 102.909C537.608 102.995 537.568 103.077 537.47 103.155C532.862 103.657 525.911 104.278 519.27 104.941C518.484 104.324 513.083 104.207 506.896 104.188C507.194 104.113 507.514 104.042 507.797 103.965C507.327 104.046 506.829 104.117 506.348 104.179C506.244 104.179 506.141 104.174 506.059 104.178C497.31 104.111 486.739 104.662 489.856 103.217C499.623 102.601 508.069 102.55 515.161 102.54C522.248 102.556 527.864 102.712 531.551 103.029C524.681 101.863 512.002 100.792 498.328 100.787C494.903 100.781 491.397 100.883 487.976 101.07C486.217 101.202 484.519 101.328 482.902 101.455C481.597 101.582 480.345 101.705 479.18 101.843C474.444 102.352 470.809 102.963 469.069 103.61C467.638 102.451 476.504 101.452 475.688 100.302C441.831 107.584 408.424 106.942 350.91 113.338C369.989 110.539 333.195 111.569 331.263 113.033C338.368 112.569 346.995 112.754 337.784 113.809C316.511 115.287 325.547 113.467 318.167 113.504C316.517 113.972 313.464 114.536 310.329 115.031C308.287 114.949 306.281 114.878 304.231 114.833C304.513 114.767 304.707 114.726 305.026 114.655C304.302 114.707 303.699 114.75 303.057 114.799C297.691 114.655 292.224 114.572 286.711 114.525C309.157 112.626 333.397 111.1 357.604 107.984C353.159 107.021 318.488 111.854 324.861 108.832C293.464 112.322 223.571 120.241 232.978 114.887C216.46 116.232 205.724 117.681 195.619 119.136C183.745 119.093 172.731 119.233 169.503 119.676C176.364 119.811 182.683 119.983 188.807 120.125C187.589 120.298 186.357 120.469 185.116 120.649C181.617 120.499 177.11 120.516 171.019 120.82C170.373 120.675 169.262 120.623 167.356 120.672C160.696 123.325 156.468 122.5 147.636 122.403C147.905 122.792 147.174 123.162 145.692 123.536C144.843 123.508 143.948 123.489 143.013 123.481C146.063 122.642 150.063 121.742 156.019 120.619C146.501 121.61 138.949 122.544 132.387 123.434C132.363 123.447 132.341 123.444 132.327 123.441C133.035 123.249 133.787 123.064 134.539 122.879C133.036 123.068 131.547 123.259 130.058 123.45C111.052 123.604 87.5175 124.382 82.4222 124.868C91.9501 125.404 107.279 124.808 122.634 124.448C105.146 126.847 89.9677 129.363 88.4643 130.339C82.6203 130.709 75.6982 131.153 69.3221 131.544L69.7334 132.604C76.1555 132.099 83.0001 131.599 88.7566 131.078C85.256 131.83 81.4702 132.703 77.2574 133.734C75.1638 133.903 72.9057 134.112 70.4427 134.376L70.8336 135.356C70.7633 135.373 70.6991 135.396 70.636 135.413L70.2395 134.389C70.2179 134.385 70.2146 134.401 70.193 134.398L70.5894 135.423C70.5252 135.446 70.4189 135.456 70.3525 135.49L69.9217 134.416C69.8619 134.418 69.8226 134.428 69.7545 134.434L70.2035 135.527C70.1426 135.534 70.0928 135.56 70.033 135.561L69.5944 134.453C69.5086 134.473 69.4272 134.471 69.3198 134.487L69.771 135.641C68.1126 136.076 66.4564 136.5 64.6601 136.989C62.1019 139 65.2343 138.267 70.2168 136.751L70.2954 136.945C70.3768 136.946 70.4842 136.93 70.5811 136.929L70.4754 136.687C70.5385 136.669 70.5811 136.643 70.6265 136.639L70.7483 136.911C70.7915 136.918 70.8524 136.911 70.9122 136.909L70.7788 136.585C70.8646 136.566 70.9527 136.536 71.0374 136.521L71.1836 136.891C71.1836 136.891 71.2085 136.878 71.2229 136.88L71.0623 136.509C71.1265 136.486 71.1897 136.468 71.2539 136.445L71.4333 136.869C79.5243 136.272 88.4121 135.668 98.0021 134.617C98.6411 134.689 99.2114 134.806 99.6439 134.978C92.2899 135.855 81.7098 136.949 71.7877 137.81L72.431 139.435C72.3629 139.441 72.2987 139.464 72.2389 139.465L71.5977 137.83C71.5833 137.828 71.5617 137.825 71.5595 137.835L72.1924 139.474C72.1282 139.497 72.0218 139.508 71.936 139.528L71.2882 137.853C71.2273 137.86 71.1808 137.87 71.1199 137.877L71.7871 139.565C71.7273 139.567 71.688 139.577 71.6198 139.583L70.956 137.879C70.8557 137.896 70.7743 137.894 70.6669 137.91L71.3613 139.647C71.2405 139.656 71.1154 139.686 70.9842 139.71L70.2965 137.941C70.2284 137.947 70.1891 137.957 70.1315 137.948L70.8385 139.731C68.3518 140.218 65.3356 140.82 62.985 141.223L82.4596 190.483C85.6402 190.484 87.3994 190.638 84.4225 191.229C83.793 191.219 83.2055 191.221 82.5759 191.211L62.4408 140.23C64.0659 139.67 66.6585 138.853 70.2256 137.781L70.1868 137.681C67.6757 138.285 65.0322 138.918 62.0991 139.621L82.4718 191.211C76.5121 191.172 71.2428 191.423 68.5401 192.162C76.6565 192.444 87.9508 192.49 92.4664 193.04L92.6093 193.426C86.1684 193.449 87.5876 194.452 81.0426 194.476C78.3 193.261 66.3307 192.78 56.1278 192.167L56.3027 195.544C65.2398 196.098 75.8082 196.311 87.2774 195.944C88.6357 197.169 92.0566 198.231 95.802 199.233L95.9232 199.544C95.9481 199.531 95.9481 199.531 95.973 199.519L95.8451 199.24C95.9459 199.256 96.0218 199.284 96.0794 199.293L96.1419 199.457C96.2278 199.437 96.3158 199.407 96.3872 199.385C96.8308 199.504 97.2754 199.617 97.6984 199.727C97.2045 199.744 96.7333 199.758 96.2643 199.762L96.3557 200.002C75.0755 198.942 72.7886 201.435 60.6566 198.018C60.8277 198.875 59.687 199.572 56.523 200.063L56.5584 200.608C76.9952 201.112 78.1126 203.174 98.7477 203.511C105.185 201.754 128.328 202.577 105.774 200.883C112.301 200.95 113.655 200.408 118.954 200.332C135.661 199.831 141.206 203.261 151.308 201.035C141.409 200.816 150.516 200.23 157.837 201.015C156.924 200.008 160.579 198.515 151.763 198.345C140.733 200.243 109.091 198.265 106.563 196.874C126.554 197.381 150.04 197.338 168.907 197.565C172.779 197.564 176.382 197.571 179.801 197.604C176.288 198.31 173.765 198.972 172.925 199.579C189.109 197.34 184.515 198.631 179.442 200.117C170.807 200.26 162.089 200.831 157.597 202.347C163.987 202.392 170.002 202.594 175.739 202.813C167.76 204.263 159.814 205.697 150.769 207.058C150.583 207.062 150.426 207.065 150.239 207.069C139.626 205.787 151.003 206.22 150.735 204.401C130.098 205.252 135.07 203.464 124.924 203.074C122.946 204.438 96.2388 203.032 92.0659 204.086C101.972 207.591 91.1677 204.474 78.5284 205.786C79.8861 206.119 83.8768 207.407 81.7034 208.246C78.6574 208.491 75.6102 208.742 72.8128 208.971C72.3017 208.962 71.8294 208.982 71.2596 208.97C65.6847 208.761 60.9288 208.579 56.9691 208.429L57.1319 211.651C57.1319 211.651 57.1319 211.651 57.1103 211.648L56.9475 208.426C56.926 208.422 56.89 208.417 56.8662 208.424L57.0278 211.651C56.9918 211.646 56.9702 211.642 56.9342 211.637L56.7654 208.408C56.7261 208.419 56.6829 208.412 56.6685 208.41L56.8301 211.637C56.8085 211.634 56.8085 211.634 56.8085 211.634L56.6469 208.406C56.586 208.413 56.5428 208.407 56.5068 208.401L56.6662 211.639C56.6662 211.639 56.6662 211.639 56.6446 211.636L56.4852 208.398C56.4603 208.41 56.4603 208.41 56.4387 208.407L56.6086 211.63C56.1645 211.621 55.7598 211.602 55.3085 211.592L56.9336 242.821C56.4557 242.939 56.4169 243.054 56.943 243.169L57.2402 249.069C55.8171 249.265 54.2888 249.467 52.4959 249.655L71.7805 329.937C73.4084 329.828 75.3442 329.739 77.4561 329.662L77.8016 330.574C74.471 331.473 71.6658 332.527 78.4295 332.344L82.9011 344.871C78.5057 345.924 74.5975 346.849 71.0996 347.695L96.2427 418.025C100.659 417.658 104.689 417.291 108.658 416.931L114.651 433.69C152.756 424.1 188.913 416.907 222.035 410.908C192.737 416.173 232.796 408.048 234.583 406.138C189.295 412.742 147.03 423.327 120.794 427.876C139.651 424.288 128.252 423.852 143.701 420.607C161.942 417.446 197.924 411.205 228.153 405.965C231.009 405.492 233.772 405.032 236.5 404.566C246.254 403.8 256.889 402.94 268.519 401.872C268.48 402.559 273.829 402.321 275.08 402.775C252.596 404.575 264.056 405.61 248.68 404.569C251.65 407.266 257.584 409.397 235.377 408.182C238.952 408.932 227.493 412.216 241.781 411.123C259.785 411.358 269.461 407.961 301.061 406.423C307.259 408.463 271.46 408.999 274.591 410.918C293.195 409.552 289.786 411.936 307.398 410.729C301.871 407.033 340.422 405.985 353.571 406.228C361.81 403.486 332.247 407.169 340.564 404.412C347.157 403.978 348.429 403.329 353.749 402.833C349.041 405.102 368.71 403.221 367.355 404.913C359.772 405.93 351.789 407.187 344.194 408.72L370.653 491.706C374.933 491.032 379.07 490.258 382.944 489.355C378.671 489.816 374.065 490.308 370.391 490.714L344.578 409.699C351.076 408.754 355.519 408.331 353.53 409.572C351.177 409.914 348.547 410.302 345.02 410.824L370.123 489.571C375.809 488.962 382.384 488.222 389.451 487.367C396.455 486.424 403.811 485.14 411.347 483.89C418.734 482.463 426.179 480.863 433.322 479.249C440.337 477.461 447.106 475.684 453.147 473.865C444.418 476.634 447.189 476.175 451.706 475.433C456.165 474.649 462.225 473.455 460.34 475.048C437.487 481.164 416.616 483.821 397.477 487.475C408.777 486.961 430.905 483.047 440.205 482.21C427.227 485.043 444.33 482.568 433.416 484.98C423.417 486.605 425.166 484.947 419.028 485.48C410.26 487.55 404.437 488.104 400.318 488.716C396.115 489.238 393.477 489.668 390.277 490.544C393.173 490.952 398.319 490.577 405.094 489.946C411.925 489.334 420.088 488.104 428.879 486.61C437.785 485.238 446.893 483.177 456.11 481.386C465.015 479.337 474.019 477.496 481.68 475.644C483.866 473.636 473.111 476.359 462.616 478.616C452.314 481.019 442.118 482.734 447.066 480.095C467.204 474.777 487.565 468.673 505.863 463.881C512.045 463.564 518.078 463.251 523.876 462.924C517.459 463.188 511.938 463.399 507.135 463.551C514.44 461.66 521.388 459.983 527.837 458.667C534.543 458.157 540.28 457.622 543.894 457.113C541.765 457.056 539.093 457.073 536.144 457.141C537.221 456.963 538.299 456.784 539.324 456.642C541.302 455.746 543.716 454.928 546.488 454.035C550.286 453.995 554.81 454.008 560.383 454.152C559.643 454.46 559.738 454.502 561.092 454.174C561.988 454.193 562.838 454.216 563.769 454.24C568.287 452.882 577.866 452.099 589.141 451.488C583.98 454.077 572.241 457.994 567.957 460.373C573.708 457.981 583.92 454.656 594.44 451.275C606.348 450.977 619.418 450.634 630.297 450.351C623.14 449.207 607.716 449.363 601.257 449.082C605.67 447.658 609.977 446.245 613.879 444.923C633.722 445.852 658.572 446.864 683.704 448.233C719.236 450.021 755.229 452.381 777.979 453.126C795.546 454.674 805.184 456.646 813.833 458.193C809.958 458.1 805.598 458.086 800.068 458.235C793.953 458.441 789.061 458.734 784.894 459.08C780.309 458.364 775.421 457.673 769.637 456.968C767.672 458.879 733.8 454.467 735.518 457.178C761.989 459.439 764.902 460.047 748.191 459.673C755.253 460.489 761.889 461.101 768.267 461.596C767.685 461.747 767.1 461.914 766.577 462.075C768.221 462.029 769.871 461.923 771.524 461.835C790.284 463.222 807.008 463.675 825.64 465.103L825.652 464.94Z" fill="url(#paint0_linear_190_689)"/>
</g>
<defs>
<linearGradient id="paint0_linear_190_689" x1="107.763" y1="416.121" x2="852.578" y2="368.446" gradientUnits="userSpaceOnUse">
<stop offset="0.171305" stop-color="#FF6969"/>
<stop offset="0.698912" stop-color="#FF75A4"/>
</linearGradient>
</defs>
</svg>
