<?xml version="1.0" encoding="utf-8"?>
<svg width="320" height="84" viewBox="0 0 320 84" fill="none" xmlns="http://www.w3.org/2000/svg">
  <path d="M 294.682 49.129 L 302.441 39.165 L 314.283 25.224 L 294.518 21.363 M 294.757 49.03 L 315.219 60.373 L 294.543 61.892 M 294.888 49.302 L 21.156 49.552 M 40.613 68.441 L 202.749 68.635 M 40.613 68.441 L 37.511 67.908 M 40.613 68.441 L 37.513 71.913 M 309.417 30.74 L 27.442 30.621 M 37.481 20.864 L 37.457 30.693 L 27.442 30.621 M 37.481 20.864 L 55.84 19.578 M 37.481 20.864 L 37.501 52.745 M 55.84 19.578 L 74.199 18.292 M 55.84 19.578 L 55.878 79.426 M 74.199 18.292 L 92.558 17.006 M 74.199 18.292 L 74.237 78.077 M 92.558 17.006 L 110.917 15.72 M 92.558 17.006 L 92.596 76.728 M 110.917 15.72 L 129.088 14.447 M 110.917 15.72 L 110.954 75.379 M 129.088 14.447 L 147.295 13.171 M 129.088 14.447 L 129.088 74.047 M 147.295 13.171 L 165.994 11.862 M 147.295 13.171 L 147.332 72.707 M 147.295 13.171 L 165.994 13.109 M 165.994 11.862 L 184.17 10.588 M 165.994 11.862 L 165.994 13.109 M 184.17 10.588 L 202.712 9.289 M 184.17 10.588 L 184.17 70 M 202.712 9.289 L 221.071 8.003 M 202.712 9.289 L 202.749 68.635 M 221.071 8.003 L 239.429 6.717 M 221.071 8.003 L 221.108 67.287 M 239.429 6.717 L 257.788 5.431 M 239.429 6.717 L 239.467 65.938 M 257.788 5.431 L 276.147 4.145 M 257.788 5.431 L 257.826 64.589 M 276.147 4.145 L 276.257 63.235 L 276.147 63.243 M 276.147 4.145 L 294.506 2.859 M 294.506 2.859 L 300.915 2.41 L 296.62 13.162 M 294.506 2.859 L 294.516 18.429 M 21.156 49.552 L 3.408 46.085 L 27.35 30.77 L 27.442 30.621 M 21.156 49.552 L 37.501 52.745 M 202.749 68.635 L 184.17 70 M 202.749 68.635 L 221.108 67.287 M 296.62 13.162 L 165.994 13.109 M 296.62 13.162 L 294.516 18.429 M 37.519 80.774 L 29.045 81.397 L 37.513 71.913 M 37.519 80.774 L 55.878 79.426 M 37.519 80.774 L 37.513 71.913 M 55.878 79.426 L 74.237 78.077 M 74.237 78.077 L 92.596 76.728 M 92.596 76.728 L 110.954 75.379 M 110.954 75.379 L 129.088 74.047 M 129.088 74.047 L 147.332 72.707 M 147.332 72.707 L 166.031 71.333 M 166.031 71.333 L 184.17 70 M 166.031 71.333 L 165.994 13.109 M 37.501 52.745 L 43.857 54.06 L 37.504 57.02 M 37.504 57.02 L 37.503 64.043 L 37.511 67.908 M 37.504 57.02 L 37.511 67.908 M 294.516 18.429 L 294.517 21.506 L 294.518 21.363 M 294.518 21.363 L 294.543 61.892 M 294.543 61.892 L 276.147 63.243 M 276.147 63.243 L 257.826 64.589 M 257.826 64.589 L 239.467 65.938 M 239.467 65.938 L 221.108 67.287 M 22.077 21.915 L 301.309 2 L 294.481 21.215 L 294.249 13.96 L 294.784 49.189 L 316 60.256 L 28.709 82 L 40.136 68.462 L 19.733 65.259 L 43.808 54.103 L 3 46.308 L 27.256 30.832 L 22.077 21.915 Z" stroke-width="2" style="fill: rgb(255, 255, 255); stroke: rgb(184, 177, 164);"/>
</svg>