<svg width="320" height="84" viewBox="0 0 320 84" fill="#242424" xmlns="http://www.w3.org/2000/svg">
    <path d="M297.301 49.1025L304.541 39.6384L314.283 25.224L294.518 21.3631Z" fill="#242424"/>
    
    <path d="M297.301 49.1025L304.541 39.6384L314.283 25.224L294.518 
    
    
    21.3631M297.301 49.1025L315.219 60.3726L294.543 61.8916M297.301 49.1025L21.1558 49.5521M40.613 68.4407L202.749 67.9076M40.613 71.9127M310.557 30.7363L27.4415 30.6213M37.481 20.8638L37.5011 52.7449M55.8399 19.5778L74.1989 18.2918M55.8399 19.5778L55.8776 79.4256M74.1989 18.2918L92.5579 17.0057M74.1989 18.2918L74.2365 78.0769M92.5579 17.0057L110.917 15.7197M92.5579 17.0057L92.5955 76.7281M110.917 15.7197L129.088 14.4468M110.917 15.7197L110.954 75.3793M129.088 14.4468L147.295 13.1714M129.088 14.4468V74.0471M147.295 13.1714L165.994 11.8615M147.295 13.1714L147.332 72.7067M147.295 13.1714L165.994 13.1093M165.994 11.8615L184.17 10.5883M165.994 11.8615L165.994 13.1093M184.17 10.5883L202.712 9.28945M184.17 10.5883V70.0004M202.712 9.28945L221.071 8.00341M202.712 9.28945L202.749 68.6354M221.071 8.00341L239.429 6.71736M221.071 8.00341L221.108 67.2867M239.429 6.71736L257.788 5.43132M239.429 6.71736L239.467 65.9379M257.788 5.43132L276.147 4.14527M257.788 5.43132L257.826 64.5891M276.147 4.14527L276.257 63.2351L276.147 63.2431M276.147 4.14527L294.506 2.85922M294.506 2.85922L300.915 2.41026L296.62 13.1624M294.506 2.85922L294.516 18.4294M21.1558 49.5521L3.40808 46.0853L27.8799 31.4401L27.4415 30.6213M21.1558 49.5521L37.5011 52.7449M202.749 68.6354L184.17 70.0004M202.749 68.6354L221.108 67.2867M296.62 13.1624L165.994 13.1093M296.62 13.1624L294.516 18.4294M37.5187 80.7744L29.0452 81.3969L37.5131 71.9127M37.5187 80.7744L55.8776 79.4256M37.5187 80.7744L37.5131 71.9127M55.8776 79.4256L74.2365 78.0769M74.2365 78.0769L92.5955 76.7281M92.5955 76.7281L110.954 75.3793M110.954 75.3793L129.088 74.0471M129.088 74.0471L147.332 72.7067M147.332 72.7067L166.031 71.333M166.031 71.333L184.17 70.0004M166.031 71.333L165.994 13.1093M37.5011 52.7449L43.6265 53.9415L37.5038 57.0202M37.5038 57.0202L21.3678 65.1339L37.5106 67.9076M37.5038 57.0202L37.5106 67.9076M294.516 18.4294L293.429 21.1504L294.518 21.3631M294.518 21.3631L294.543 61.8916M294.543 64.5891M257.826 67.2867M22.588 21.6923L301.309 2L293.555 21.2821L314.776 25.3846L297.636 49.1795L316 60.2564L28.7093 82L40.1356 68.4615L20.5476 65.5897L43.8083 54.1026L3 46.3077L27.8931 31.5385L22.588 21.6923Z" stroke="#505050" stroke-width="2"/>
</svg>
