<svg xmlns="http://www.w3.org/2000/svg" fill="none" viewBox="49.91 54.71 466.04 432.28">
<path d="M290.819 85.7165C286.744 86.8833 211.635 104.893 174.396 111.52L51.2065 138.823C41.396 144.61 124.874 486.172 136.795 486.367C148.716 486.561 145.425 486.618 155.819 485.764C168.811 484.697 231.347 469.057 259.161 464.088C278.386 460.653 335.456 446.591 368.986 440.47C368.986 440.47 510.343 413.689 514.443 404.296C526.04 377.729 433.378 54.9766 410.208 55.2067C387.037 55.4368 294.894 84.5497 290.819 85.7165Z" fill="#F84E72" stroke="#242424"/>
<path d="M220.645 446.191C224.883 446.282 301.956 451.309 339.489 456L465.24 466.378C476.324 463.755 497.673 112.788 486.344 109.074C475.015 105.36 478.175 106.28 467.994 104.019C455.268 101.194 390.905 97.6243 362.866 94.1393C343.486 91.7305 284.811 88.2721 250.972 84.1957C250.972 84.1957 108.021 67.9414 101.325 75.7001C82.384 97.6452 75.374 433.362 97.5746 440C119.775 446.638 216.407 446.1 220.645 446.191Z" fill="#FFF5E0" stroke="#242424"/>
</svg>