<svg xmlns="http://www.w3.org/2000/svg" fill="none" viewBox="25.06 41.86 466.04 432.28">
<path d="M250.181 72.8737C254.256 74.0406 329.365 92.05 366.604 98.6773L489.794 125.98C499.604 131.767 416.126 473.329 404.205 473.524C392.284 473.718 395.575 473.775 385.181 472.921C372.189 471.854 309.653 456.215 281.839 451.245C262.614 447.81 205.544 433.749 172.014 427.627C172.014 427.627 30.6571 400.846 26.5569 391.453C14.9597 364.886 107.622 42.1338 130.792 42.3639C153.963 42.594 246.106 71.7069 250.181 72.8737Z" fill="#FFF5E0" stroke="#242424"/>
<path d="M201.248 92.3835C205.112 92.2965 275.375 87.5155 309.592 83.0535L424.232 73.1813C434.337 75.6771 453.8 409.515 443.472 413.048C433.143 416.581 436.024 415.706 426.743 417.856C415.141 420.543 356.465 423.939 330.904 427.254C313.236 429.545 259.745 432.835 228.896 436.712C228.896 436.712 98.5752 452.173 92.4704 444.793C75.2033 423.919 68.8126 104.586 89.0517 98.2724C109.291 91.9587 197.385 92.4705 201.248 92.3835Z" fill="#FF6969" stroke="#242424"/>
</svg>